<?xml version="1.0" encoding="UTF-8" standalone="no"?>
<svg
   xmlns:dc="http://purl.org/dc/elements/1.1/"
   xmlns:cc="http://creativecommons.org/ns#"
   xmlns:rdf="http://www.w3.org/1999/02/22-rdf-syntax-ns#"
   xmlns:svg="http://www.w3.org/2000/svg"
   xmlns="http://www.w3.org/2000/svg"
   xmlns:xlink="http://www.w3.org/1999/xlink"
   xmlns:sodipodi="http://sodipodi.sourceforge.net/DTD/sodipodi-0.dtd"
   xmlns:inkscape="http://www.inkscape.org/namespaces/inkscape"
   width="952"
   height="595"
   version="1.1"
   id="svg1967"
   sodipodi:docname="pcharteDITOR.svg"
   inkscape:version="0.92.3 (2405546, 2018-03-11)">
  <metadata
     id="metadata1973">
    <rdf:RDF>
      <cc:Work
         rdf:about="">
        <dc:format>image/svg+xml</dc:format>
        <dc:type
           rdf:resource="http://purl.org/dc/dcmitype/StillImage" />
        <dc:title></dc:title>
      </cc:Work>
    </rdf:RDF>
  </metadata>
  <defs
     id="defs1971" />
  <sodipodi:namedview
     pagecolor="#ffffff"
     bordercolor="#666666"
     borderopacity="1"
     objecttolerance="10"
     gridtolerance="10"
     guidetolerance="10"
     inkscape:pageopacity="0"
     inkscape:pageshadow="2"
     inkscape:window-width="1920"
     inkscape:window-height="1017"
     id="namedview1969"
     showgrid="false"
     inkscape:zoom="1.4252101"
     inkscape:cx="585.09233"
     inkscape:cy="252.40475"
     inkscape:window-x="1912"
     inkscape:window-y="-8"
     inkscape:window-maximized="1"
     inkscape:current-layer="g1827"
     showguides="true"
     inkscape:guide-bbox="true">
    <sodipodi:guide
       position="4.4652793,383.02173"
       orientation="1,0"
       id="guide2001"
       inkscape:locked="false" />
  </sodipodi:namedview>
  <g
     clip-path="url(#clip)"
     id="g1395"
     transform="matrix(0.77885621,0,0,0.80141226,100.31078,39.405297)"
     style="fill:#000000;stroke:none;stroke-width:1px" />
  <text
     id="text1397"
     style="font-size:9.48064518px;fill:none;stroke:#000000;stroke-width:0.79005373px;stroke-opacity:1"
     x="101.75293"
     y="38.846802"
     transform="scale(0.98582687,1.0143769)" />
  <text
     id="text1399"
     style="font-size:9.48064518px;fill:none;stroke:#000000;stroke-width:0.79005373px;stroke-opacity:1"
     x="101.75293"
     y="38.846802"
     transform="scale(0.98582687,1.0143769)" />
  <text
     id="text1401"
     style="font-size:9.48064518px;fill:none;stroke:#000000;stroke-width:0.79005373px;stroke-opacity:1"
     x="101.75293"
     y="38.846802"
     transform="scale(0.98582687,1.0143769)" />
  <text
     id="text1403"
     style="font-size:9.48064518px;fill:none;stroke:#000000;stroke-width:0.79005373px;stroke-opacity:1"
     x="101.75293"
     y="38.846802"
     transform="scale(0.98582687,1.0143769)" />
  <text
     id="text1405"
     style="font-size:9.48064518px;fill:none;stroke:#000000;stroke-width:0.79005373px;stroke-opacity:1"
     x="101.75293"
     y="38.846802"
     transform="scale(0.98582687,1.0143769)" />
  <text
     id="text1407"
     style="font-size:9.48064518px;fill:none;stroke:#000000;stroke-width:0.79005373px;stroke-opacity:1"
     x="101.75293"
     y="38.846802"
     transform="scale(0.98582687,1.0143769)" />
  <text
     id="text1409"
     style="font-size:9.48064518px;fill:none;stroke:#000000;stroke-width:0.79005373px;stroke-opacity:1"
     x="101.75293"
     y="38.846802"
     transform="scale(0.98582687,1.0143769)" />
  <text
     id="text1411"
     style="font-size:9.48064518px;fill:none;stroke:#000000;stroke-width:0.79005373px;stroke-opacity:1"
     x="101.75293"
     y="38.846802"
     transform="scale(0.98582687,1.0143769)" />
  <text
     id="text1413"
     style="font-size:9.48064518px;fill:none;stroke:#000000;stroke-width:0.79005373px;stroke-opacity:1"
     x="101.75293"
     y="38.846802"
     transform="scale(0.98582687,1.0143769)" />
  <text
     id="text1415"
     style="font-size:9.48064518px;fill:none;stroke:#000000;stroke-width:0.79005373px;stroke-opacity:1"
     x="101.75293"
     y="38.846802"
     transform="scale(0.98582687,1.0143769)" />
  <g
     clip-path="url(#clip)"
     id="g1417"
     transform="matrix(0.77885621,0,0,0.80141226,100.31078,39.405297)" />
  <text
     id="text1419"
     style="font-size:9.48064518px;fill:none;stroke:#000000;stroke-width:0.79005373;stroke-opacity:1"
     x="101.75293"
     y="38.846802"
     transform="scale(0.98582687,1.0143769)" />
  <text
     id="text1421"
     style="font-size:9.48064518px;fill:none;stroke:#000000;stroke-width:0.79005373;stroke-opacity:1"
     x="101.75293"
     y="38.846802"
     transform="scale(0.98582687,1.0143769)" />
  <text
     id="text1423"
     style="font-size:9.48064518px;fill:none;stroke:#000000;stroke-width:0.79005373;stroke-opacity:1"
     x="101.75293"
     y="38.846802"
     transform="scale(0.98582687,1.0143769)" />
  <text
     id="text1425"
     style="font-size:9.48064518px;fill:none;stroke:#000000;stroke-width:0.79005373;stroke-opacity:1"
     x="101.75293"
     y="38.846802"
     transform="scale(0.98582687,1.0143769)" />
  <text
     id="text1427"
     style="font-size:9.48064518px;fill:none;stroke:#000000;stroke-width:0.79005373;stroke-opacity:1"
     x="101.75293"
     y="38.846802"
     transform="scale(0.98582687,1.0143769)" />
  <text
     id="text1429"
     style="font-size:9.48064518px;fill:none;stroke:#000000;stroke-width:0.79005373;stroke-opacity:1"
     x="101.75293"
     y="38.846802"
     transform="scale(0.98582687,1.0143769)" />
  <text
     id="text1431"
     style="font-size:9.48064518px;fill:none;stroke:#000000;stroke-width:0.79005373;stroke-opacity:1"
     x="101.75293"
     y="38.846802"
     transform="scale(0.98582687,1.0143769)" />
  <text
     id="text1433"
     style="font-size:9.48064518px;fill:none;stroke:#000000;stroke-width:0.79005373;stroke-opacity:1"
     x="101.75293"
     y="38.846802"
     transform="scale(0.98582687,1.0143769)" />
  <text
     id="text1435"
     style="font-size:9.48064518px;fill:none;stroke:#000000;stroke-width:0.79005373;stroke-opacity:1"
     x="101.75293"
     y="38.846802"
     transform="scale(0.98582687,1.0143769)" />
  <text
     id="text1437"
     style="font-size:9.48064518px;fill:none;stroke:#000000;stroke-width:0.79005373;stroke-opacity:1"
     x="101.75293"
     y="38.846802"
     transform="scale(0.98582687,1.0143769)" />
  <g
     class="axis"
     transform="matrix(0.77885621,0,0,0.46108581,100.31078,494.08604)"
     font-size="10"
     id="g1827"
     style="font-size:10px;font-family:sans-serif;text-anchor:middle;fill:none">
    <path
       class="domain"
       d="M 0.5,6 V 0.5 h 912 V 6"
       id="path1753"
       inkscape:connector-curvature="0"
       style="stroke:#000000" />
    <g
       class="tick"
       transform="translate(0.5)"
       id="g1759"
       style="opacity:1">
      <line
         y2="6"
         id="line1755"
         x1="0"
         y1="0"
         x2="0"
         style="stroke:#000000" />
      <text
         y="9"
         dy="0.70999998em"
         id="text1757"
         style="fill:none;stroke:#000000;stroke-opacity:1">-10</text>
    </g>
    <g
       class="tick"
       transform="translate(83.409091)"
       id="g1765"
       style="opacity:1">
      <line
         y2="6"
         id="line1761"
         x1="0"
         y1="0"
         x2="0"
         style="stroke:#000000" />
      <text
         y="9"
         dy="0.70999998em"
         id="text1763"
         style="fill:none;stroke:#000000;stroke-opacity:1">-5</text>
    </g>
    <g
       class="tick"
       transform="translate(166.31818)"
       id="g1771"
       style="opacity:1">
      <line
         y2="6"
         id="line1767"
         x1="0"
         y1="0"
         x2="0"
         style="stroke:#000000" />
      <text
         y="9"
         dy="0.70999998em"
         id="text1769"
         style="fill:none;stroke:#000000;stroke-opacity:1">0</text>
    </g>
    <g
       class="tick"
       transform="translate(249.22727)"
       id="g1777"
       style="opacity:1">
      <line
         y2="6"
         id="line1773"
         x1="0"
         y1="0"
         x2="0"
         style="stroke:#000000" />
      <text
         y="9"
         dy="0.70999998em"
         id="text1775"
         style="fill:none;stroke:#000000;stroke-opacity:1">5</text>
    </g>
    <g
       class="tick"
       transform="translate(332.13636)"
       id="g1783"
       style="opacity:1">
      <line
         y2="6"
         id="line1779"
         x1="0"
         y1="0"
         x2="0"
         style="stroke:#000000" />
      <text
         y="9"
         dy="0.70999998em"
         id="text1781"
         style="fill:none;stroke:#000000;stroke-opacity:1">10</text>
    </g>
    <g
       class="tick"
       transform="translate(415.04545)"
       id="g1789"
       style="opacity:1">
      <line
         y2="6"
         id="line1785"
         x1="0"
         y1="0"
         x2="0"
         style="stroke:#000000" />
      <text
         y="9"
         dy="0.70999998em"
         id="text1787"
         style="fill:none;stroke:#000000;stroke-opacity:1">15</text>
    </g>
    <g
       class="tick"
       transform="translate(497.95455)"
       id="g1795"
       style="opacity:1">
      <line
         y2="6"
         id="line1791"
         x1="0"
         y1="0"
         x2="0"
         style="stroke:#000000" />
      <text
         y="9"
         dy="0.70999998em"
         id="text1793"
         style="fill:none;stroke:#000000;stroke-opacity:1">20</text>
    </g>
    <g
       class="tick"
       transform="translate(580.86364)"
       id="g1801"
       style="opacity:1">
      <line
         y2="6"
         id="line1797"
         x1="0"
         y1="0"
         x2="0"
         style="stroke:#000000" />
      <text
         y="9"
         dy="0.70999998em"
         id="text1799"
         style="fill:none;stroke:#000000;stroke-opacity:1">25</text>
    </g>
    <g
       class="tick"
       transform="translate(663.77273)"
       id="g1807"
       style="opacity:1">
      <line
         y2="6"
         id="line1803"
         x1="0"
         y1="0"
         x2="0"
         style="stroke:#000000" />
      <text
         y="9"
         dy="0.70999998em"
         id="text1805"
         style="fill:none;stroke:#000000;stroke-opacity:1">30</text>
    </g>
    <g
       class="tick"
       transform="translate(746.68182)"
       id="g1813"
       style="opacity:1">
      <line
         y2="6"
         id="line1809"
         x1="0"
         y1="0"
         x2="0"
         style="stroke:#000000" />
      <text
         y="9"
         dy="0.70999998em"
         id="text1811"
         style="fill:none;stroke:#000000;stroke-opacity:1">35</text>
    </g>
    <g
       class="tick"
       transform="translate(829.59091)"
       id="g1819"
       style="opacity:1">
      <line
         y2="6"
         id="line1815"
         x1="0"
         y1="0"
         x2="0"
         style="stroke:#000000" />
      <text
         y="9"
         dy="0.70999998em"
         id="text1817"
         style="fill:none;stroke:#000000;stroke-opacity:1">40</text>
    </g>
    <g
       class="tick"
       transform="translate(912.5)"
       id="g1825"
       style="opacity:1">
      <line
         y2="6"
         id="line1821"
         x1="0"
         y1="0"
         x2="0"
         style="stroke:#000000" />
      <text
         y="9"
         dy="0.70999998em"
         id="text1823"
         style="fill:none;stroke:#000000;stroke-opacity:1">45</text>
    </g>
  </g>
  <g
     class="axis"
     transform="matrix(0.77885621,0,0,0.46108581,810.62764,238.18342)"
     font-size="10"
     id="g1881"
     style="font-size:10px;font-family:sans-serif;text-anchor:start;fill:none">
    <path
       class="domain"
       d="M 6,555.5 H 0.5 V 40.5 H 6"
       id="path1831"
       inkscape:connector-curvature="0"
       style="stroke:#000000" />
    <g
       class="tick"
       transform="translate(0,555.5)"
       id="g1837"
       style="opacity:1">
      <line
         x2="6"
         id="line1833"
         x1="0"
         y1="0"
         y2="0"
         style="stroke:#000000" />
      <text
         x="9"
         dy="0.31999999em"
         id="text1835"
         style="fill:none;stroke:#000000;stroke-opacity:1">0</text>
    </g>
    <g
       class="tick"
       transform="translate(0,481.92857)"
       id="g1843"
       style="opacity:1">
      <line
         x2="6"
         id="line1839"
         x1="0"
         y1="0"
         y2="0"
         style="stroke:#000000" />
      <text
         x="9"
         dy="0.31999999em"
         id="text1841"
         style="fill:none;stroke:#000000;stroke-opacity:1">5</text>
    </g>
    <g
       class="tick"
       transform="translate(0,408.35714)"
       id="g1849"
       style="opacity:1">
      <line
         x2="6"
         id="line1845"
         x1="0"
         y1="0"
         y2="0"
         style="stroke:#000000" />
      <text
         x="9"
         dy="0.31999999em"
         id="text1847"
         style="fill:none;stroke:#000000;stroke-opacity:1">10</text>
    </g>
    <g
       class="tick"
       transform="translate(0,334.78571)"
       id="g1855"
       style="opacity:1">
      <line
         x2="6"
         id="line1851"
         x1="0"
         y1="0"
         y2="0"
         style="stroke:#000000" />
      <text
         x="9"
         dy="0.31999999em"
         id="text1853"
         style="fill:none;stroke:#000000;stroke-opacity:1">15</text>
    </g>
    <g
       class="tick"
       transform="translate(0,261.21429)"
       id="g1861"
       style="opacity:1">
      <line
         x2="6"
         id="line1857"
         x1="0"
         y1="0"
         y2="0"
         style="stroke:#000000" />
      <text
         x="9"
         dy="0.31999999em"
         id="text1859"
         style="fill:none;stroke:#000000;stroke-opacity:1">20</text>
    </g>
    <g
       class="tick"
       transform="translate(0,187.64286)"
       id="g1867"
       style="opacity:1">
      <line
         x2="6"
         id="line1863"
         x1="0"
         y1="0"
         y2="0"
         style="stroke:#000000" />
      <text
         x="9"
         dy="0.31999999em"
         id="text1865"
         style="fill:none;stroke:#000000;stroke-opacity:1">25</text>
    </g>
    <g
       class="tick"
       transform="translate(0,114.07143)"
       id="g1873"
       style="opacity:1">
      <line
         x2="6"
         id="line1869"
         x1="0"
         y1="0"
         y2="0"
         style="stroke:#000000" />
      <text
         x="9"
         dy="0.31999999em"
         id="text1871"
         style="fill:none;stroke:#000000;stroke-opacity:1">30</text>
    </g>
    <g
       class="tick"
       transform="translate(0,40.5)"
       id="g1879"
       style="opacity:1">
      <line
         x2="6"
         id="line1875"
         x1="0"
         y1="0"
         y2="0"
         style="stroke:#000000" />
      <text
         x="9"
         dy="0.31999999em"
         id="text1877"
         style="fill:none;stroke:#000000;stroke-opacity:1">35</text>
    </g>
  </g>
  <text
     transform="matrix(0,-0.76941781,1.299684,0,0,0)"
     y="635.69666"
     x="-487.84473"
     class="axis"
     style="font-size:7.19118977px;text-anchor:middle;fill:none;stroke:#000000;stroke-width:0.59926581;stroke-opacity:1"
     id="text1883" />
  <path
     style="fill:none;stroke:#0095f3;stroke-width:0.22649416;stroke-miterlimit:4;stroke-dasharray:none;stroke-opacity:0.73869348"
     d="M 100.31078 479.26163 L 106.7682 478.58761 L 113.22563 477.88558 L 119.68305 477.15446 L 126.14048 476.39319 L 132.59791 475.60062 L 139.05533 474.77558 L 145.51276 473.91689 L 151.97018 473.02327 L 158.42761 472.09345 L 164.88504 471.12609 L 171.34246 470.11981 L 177.79989 469.07319 L 184.25732 467.98475 L 190.71474 466.85298 L 197.17217 465.67631 L 203.6296 464.45311 L 210.08701 463.1817 L 216.54444 461.86035 L 223.00187 460.48727 L 229.45929 459.05718 L 235.91672 457.75303 L 242.37415 456.40552 L 248.83157 455.01341 L 255.289 453.57538 L 261.74643 452.09009 L 268.20385 450.55617 L 274.66128 448.9722 L 281.1187 447.33675 L 287.57613 445.64834 L 294.03355 443.90542 L 300.49098 442.10645 L 306.94841 440.24981 L 313.40583 438.33389 L 319.86326 436.35697 L 326.32069 434.31734 L 332.77811 432.21321 L 339.23554 430.04277 L 345.69297 427.80415 L 352.15039 425.49542 L 358.60781 423.11463 L 365.06524 420.65976 L 371.52267 418.12873 L 377.98009 415.51942 L 384.43752 412.82965 L 390.89495 410.05717 L 397.35237 407.19969 L 403.8098 404.25486 L 410.26723 401.22026 L 416.72465 398.09339 L 423.18207 394.87171 L 429.6395 391.55261 L 436.09693 388.13338 L 442.55435 384.61128 L 449.01178 380.98346 L 455.46921 377.24701 L 461.92663 373.39895 L 468.38406 369.4362 L 474.84149 365.3556 L 481.29891 361.15392 L 487.75634 356.82781 L 494.21376 352.37385 L 500.67118 347.78853 L 507.12861 343.06821 L 513.58604 338.20919 L 520.04346 333.20762 L 526.50089 328.05959 L 532.95832 322.76103 L 539.41575 317.30778 L 545.87317 311.69556 L 552.3306 305.91995 L 558.78803 299.97641 L 565.24544 293.86028 L 571.70287 287.56672 L 578.1603 281.09079 L 584.61772 274.42737 L 591.07515 267.5712 L 597.53258 260.51685 L 603.99 253.25874 L 610.44743 245.7911 L 616.90486 238.10797 L 622.83888 230.84395 "
     id="rh100" />
  <text
     id="text1888"
     style="fill:#000000;stroke:none;stroke-opacity:1;fill-opacity:1;"
     transform="translate(-0.35082547,-3.332842)">
    <textPath
       xlink:href="#rh100"
       class="rhtext"
       startOffset="0%"
       style="text-anchor:start;fill:#000000;stroke:none;stroke-opacity:1;fill-opacity:1;"
       id="textPath1886">100% relative humidity</textPath>
  </text>
  <path
     style="fill:none;stroke:#0095f3;stroke-width:0.22649416;stroke-miterlimit:4;stroke-dasharray:none;stroke-opacity:0.73869348"
     d="M 100.31078 480.74876 L 106.7682 480.14258 L 113.22563 479.51122 L 119.68305 478.85373 L 126.14048 478.16915 L 132.59791 477.45644 L 139.05533 476.71458 L 145.51276 475.94247 L 151.97018 475.13901 L 158.42761 474.30301 L 164.88504 473.43332 L 171.34246 472.52867 L 177.79989 471.58781 L 184.25732 470.6094 L 190.71474 469.5921 L 197.17217 468.53449 L 203.6296 467.43512 L 210.08701 466.29249 L 216.54444 465.10505 L 223.00187 463.87121 L 229.45929 462.58622 L 235.91672 461.41445 L 242.37415 460.20383 L 248.83157 458.95321 L 255.289 457.66142 L 261.74643 456.32727 L 268.20385 454.94953 L 274.66128 453.52695 L 281.1187 452.05824 L 287.57613 450.54209 L 294.03355 448.97712 L 300.49098 447.36195 L 306.94841 445.69518 L 313.40583 443.97531 L 319.86326 442.20086 L 326.32069 440.37029 L 332.77811 438.48202 L 339.23554 436.53444 L 345.69297 434.52589 L 352.15039 432.45466 L 358.60781 430.31902 L 365.06524 428.11718 L 371.52267 425.84729 L 377.98009 423.50749 L 384.43752 421.09583 L 390.89495 418.61034 L 397.35237 416.04901 L 403.8098 413.40972 L 410.26723 410.69036 L 416.72465 407.88874 L 423.18207 405.0026 L 429.6395 402.02963 L 436.09693 398.96747 L 442.55435 395.8137 L 449.01178 392.56582 L 455.46921 389.22127 L 461.92663 385.77742 L 468.38406 382.23159 L 474.84149 378.581 L 481.29891 374.82283 L 487.75634 370.95414 L 494.21376 366.97195 L 500.67118 362.87318 L 507.12861 358.65467 L 513.58604 354.31318 L 520.04346 349.84537 L 526.50089 345.24782 L 532.95832 340.51702 L 539.41575 335.64933 L 545.87317 330.64105 L 552.3306 325.48835 L 558.78803 320.1873 L 565.24544 314.73385 L 571.70287 309.12385 L 578.1603 303.35303 L 584.61772 297.41697 L 591.07515 291.31114 L 597.53258 285.03089 L 603.99 278.57141 L 610.44743 271.92777 L 616.90486 265.09485 L 623.36228 258.06743 L 629.81971 250.84008 L 636.27713 243.40725 L 642.73456 235.76318 L 646.77584 230.84335 "
     id="rh90" />
  <text
     id="text1893"
     style="fill:none;stroke:#000000;stroke-opacity:1;">
    <textPath
       xlink:href="#rh90"
       class="rhtext"
       startOffset="0%"
       style="text-anchor:start;fill:none;stroke:#000000;stroke-opacity:1;"
       id="textPath1891"></textPath>
  </text>
  <path
     style="fill:none;stroke:#0095f3;stroke-width:0.22649416;stroke-miterlimit:4;stroke-dasharray:none;stroke-opacity:0.73869348"
     d="M 100.31078 482.23484 L 106.7682 481.6964 L 113.22563 481.13561 L 119.68305 480.55164 L 126.14048 479.94362 L 132.59791 479.31065 L 139.05533 478.65181 L 145.51276 477.96613 L 151.97018 477.25263 L 158.42761 476.51029 L 164.88504 475.73805 L 171.34246 474.93481 L 177.79989 474.09945 L 184.25732 473.23081 L 190.71474 472.32768 L 197.17217 471.38882 L 203.6296 470.41294 L 210.08701 469.39873 L 216.54444 468.3448 L 223.00187 467.24976 L 229.45929 466.1094 L 235.91672 465.06959 L 242.37415 463.99537 L 248.83157 462.88572 L 255.289 461.73962 L 261.74643 460.55602 L 268.20385 459.33384 L 274.66128 458.07197 L 281.1187 456.76929 L 287.57613 455.42463 L 294.03355 454.03679 L 300.49098 452.60455 L 306.94841 451.12668 L 313.40583 449.60186 L 319.86326 448.0288 L 326.32069 446.40614 L 332.77811 444.73251 L 339.23554 443.00646 L 345.69297 441.22658 L 352.15039 439.39135 L 358.60781 437.49925 L 365.06524 435.54873 L 371.52267 433.53816 L 377.98009 431.46592 L 384.43752 429.33031 L 390.89495 427.1296 L 397.35237 424.86203 L 403.8098 422.52577 L 410.26723 420.11897 L 416.72465 417.63972 L 423.18207 415.08606 L 429.6395 412.45598 L 436.09693 409.74743 L 442.55435 406.9583 L 449.01178 404.08642 L 455.46921 401.12957 L 461.92663 398.08549 L 468.38406 394.95183 L 474.84149 391.72621 L 481.29891 388.40616 L 487.75634 384.98917 L 494.21376 381.47265 L 500.67118 377.85396 L 507.12861 374.13036 L 513.58604 370.29907 L 520.04346 366.35722 L 526.50089 362.30187 L 532.95832 358.12999 L 539.41575 353.83848 L 545.87317 349.42418 L 552.3306 344.88377 L 558.78803 340.21394 L 565.24544 335.41121 L 571.70287 330.47203 L 578.1603 325.39278 L 584.61772 320.1697 L 591.07515 314.79893 L 597.53258 309.27654 L 603.99 303.59843 L 610.44743 297.76044 L 616.90486 291.75824 L 623.36228 285.58743 L 629.81971 279.24344 L 636.27713 272.72157 L 642.73456 266.017 L 649.19198 259.12476 L 655.64941 252.03974 L 662.10684 244.75665 L 668.56426 237.27006 L 673.66269 231.19399 "
     id="rh80" />
  <text
     id="text1898"
     style="fill:none;stroke:#000000;stroke-opacity:1;">
    <textPath
       xlink:href="#rh80"
       class="rhtext"
       startOffset="0%"
       style="text-anchor:start;fill:none;stroke:#000000;stroke-opacity:1;"
       id="textPath1896"></textPath>
  </text>
  <path
     style="fill:none;stroke:#0095f3;stroke-width:0.22649416;stroke-miterlimit:4;stroke-dasharray:none;stroke-opacity:0.73869348"
     d="M 100.31078 483.71988 L 106.7682 483.24908 L 113.22563 482.75876 L 119.68305 482.24818 L 126.14048 481.7166 L 132.59791 481.16323 L 139.05533 480.58726 L 145.51276 479.98785 L 151.97018 479.36415 L 158.42761 478.71526 L 164.88504 478.04026 L 171.34246 477.33821 L 177.79989 476.60812 L 184.25732 475.84898 L 190.71474 475.05974 L 197.17217 474.23932 L 203.6296 473.3866 L 210.08701 472.50043 L 216.54444 471.57962 L 223.00187 470.62295 L 229.45929 469.62675 L 235.91672 468.71845 L 242.37415 467.78015 L 248.83157 466.81096 L 255.289 465.81002 L 261.74643 464.77638 L 268.20385 463.70914 L 274.66128 462.60732 L 281.1187 461.46994 L 287.57613 460.296 L 294.03355 459.08447 L 300.49098 457.83429 L 306.94841 456.54437 L 313.40583 455.21361 L 319.86326 453.84086 L 326.32069 452.42497 L 332.77811 450.96474 L 339.23554 449.45894 L 345.69297 447.90632 L 352.15039 446.3056 L 358.60781 444.65546 L 365.06524 442.95456 L 371.52267 441.2015 L 377.98009 439.39488 L 384.43752 437.53325 L 390.89495 435.61513 L 397.35237 433.63898 L 403.8098 431.60325 L 410.26723 429.50635 L 416.72465 427.34664 L 423.18207 425.12244 L 429.6395 422.83203 L 436.09693 420.47366 L 442.55435 418.04552 L 449.01178 415.54576 L 455.46921 412.97248 L 461.92663 410.32376 L 468.38406 407.59759 L 474.84149 404.79194 L 481.29891 401.90471 L 487.75634 398.93377 L 494.21376 395.87693 L 500.67118 392.73193 L 507.12861 389.49646 L 513.58604 386.16815 L 520.04346 382.74459 L 526.50089 379.22328 L 532.95832 375.60167 L 539.41575 371.87713 L 545.87317 368.047 L 552.3306 364.10852 L 558.78803 360.05884 L 565.24544 355.89509 L 571.70287 351.61428 L 578.1603 347.21337 L 584.61772 342.6892 L 591.07515 338.03857 L 597.53258 333.25816 L 603.99 328.3446 L 610.44743 323.29439 L 616.90486 318.10394 L 623.36228 312.76959 L 629.81971 307.28755 L 636.27713 301.65395 L 642.73456 295.86478 L 649.19198 289.91595 L 655.64941 283.80323 L 662.10684 277.52228 L 668.56426 271.06864 L 675.02169 264.43772 L 681.47912 257.62479 L 687.93654 250.62498 L 694.39397 243.43329 L 700.8514 236.04457 L 705.5744 230.49241 "
     id="rh70" />
  <text
     id="text1903"
     style="fill:none;stroke:#000000;stroke-opacity:1;">
    <textPath
       xlink:href="#rh70"
       class="rhtext"
       startOffset="0%"
       style="text-anchor:start;fill:none;stroke:#000000;stroke-opacity:1;"
       id="textPath1901"></textPath>
  </text>
  <path
     style="fill:none;stroke:#0095f3;stroke-width:0.22649416;stroke-miterlimit:4;stroke-dasharray:none;stroke-opacity:0.73869348"
     d="M 100.31078 485.20388 L 106.7682 484.80063 L 113.22563 484.38066 L 119.68305 483.94337 L 126.14048 483.4881 L 132.59791 483.01419 L 139.05533 482.52094 L 145.51276 482.00764 L 151.97018 481.47356 L 158.42761 480.91794 L 164.88504 480.33999 L 171.34246 479.7389 L 177.79989 479.11383 L 184.25732 478.46392 L 190.71474 477.78828 L 197.17217 477.08598 L 203.6296 476.35608 L 210.08701 475.5976 L 216.54444 474.80951 L 223.00187 473.99078 L 229.45929 473.13828 L 235.91672 472.36106 L 242.37415 471.55819 L 248.83157 470.72897 L 255.289 469.87262 L 261.74643 468.98838 L 268.20385 468.07544 L 274.66128 467.133 L 281.1187 466.16022 L 287.57613 465.15624 L 294.03355 464.1202 L 300.49098 463.05119 L 306.94841 461.94831 L 313.40583 460.8106 L 319.86326 459.63711 L 326.32069 458.42685 L 332.77811 457.1788 L 339.23554 455.89194 L 345.69297 454.56521 L 352.15039 453.19752 L 358.60781 451.78775 L 365.06524 450.33479 L 371.52267 448.83744 L 377.98009 447.29454 L 384.43752 445.70485 L 390.89495 444.06712 L 397.35237 442.38008 L 403.8098 440.64241 L 410.26723 438.85278 L 416.72465 437.0098 L 423.18207 435.11206 L 429.6395 433.15815 L 436.09693 431.14656 L 442.55435 429.0758 L 449.01178 426.94432 L 455.46921 424.75052 L 461.92663 422.49281 L 468.38406 420.1695 L 474.84149 417.7789 L 481.29891 415.31928 L 487.75634 412.78884 L 494.21376 410.18575 L 500.67118 407.50816 L 507.12861 404.75413 L 513.58604 401.92171 L 520.04346 399.00888 L 526.50089 396.0136 L 532.95832 392.93374 L 539.41575 389.76714 L 545.87317 386.51159 L 552.3306 383.16481 L 558.78803 379.72448 L 565.24544 376.18821 L 571.70287 372.55357 L 578.1603 368.81803 L 584.61772 364.97903 L 591.07515 361.03395 L 597.53258 356.98006 L 603.99 352.81461 L 610.44743 348.53475 L 616.90486 344.13758 L 623.36228 339.62008 L 629.81971 334.97921 L 636.27713 330.21181 L 642.73456 325.31464 L 649.19198 320.2844 L 655.64941 315.11767 L 662.10684 309.81096 L 668.56426 304.36068 L 675.02169 298.76314 L 681.47912 293.01455 L 687.93654 287.11103 L 694.39397 281.04856 L 700.8514 274.82304 L 707.30882 268.43024 L 713.76624 261.86582 L 720.22367 255.12531 L 726.6811 248.20412 L 733.13852 241.09751 L 739.59595 233.80061 L 743.05163 229.79118 "
     id="rh60" />
  <text
     id="text1908"
     style="fill:none;stroke:#000000;stroke-opacity:1;">
    <textPath
       xlink:href="#rh60"
       class="rhtext"
       startOffset="0%"
       style="text-anchor:start;fill:none;stroke:#000000;stroke-opacity:1;"
       id="textPath1906"></textPath>
  </text>
  <path
     style="fill:none;stroke:#0095f3;stroke-width:0.22649416;stroke-miterlimit:4;stroke-dasharray:none;stroke-opacity:0.73869348"
     d="M 100.31078 486.68684 L 106.7682 486.35103 L 113.22563 486.00133 L 119.68305 485.6372 L 126.14048 485.25812 L 132.59791 484.86353 L 139.05533 484.45285 L 145.51276 484.02551 L 151.97018 483.58088 L 158.42761 483.11833 L 164.88504 482.63721 L 171.34246 482.13686 L 177.79989 481.61657 L 184.25732 481.07564 L 190.71474 480.51331 L 197.17217 479.92883 L 203.6296 479.32142 L 210.08701 478.69025 L 216.54444 478.03449 L 223.00187 477.35327 L 229.45929 476.644 L 235.91672 475.99741 L 242.37415 475.32953 L 248.83157 474.63975 L 255.289 473.92747 L 261.74643 473.19203 L 268.20385 472.43278 L 274.66128 471.64906 L 281.1187 470.84016 L 287.57613 470.00539 L 294.03355 469.14403 L 300.49098 468.25533 L 306.94841 467.33855 L 313.40583 466.3929 L 319.86326 465.4176 L 326.32069 464.41184 L 332.77811 463.37477 L 339.23554 462.30557 L 345.69297 461.20334 L 352.15039 460.06721 L 358.60781 458.89626 L 365.06524 457.68955 L 371.52267 456.44615 L 377.98009 455.16505 L 384.43752 453.84528 L 390.89495 452.48579 L 397.35237 451.08556 L 403.8098 449.6435 L 410.26723 448.15851 L 416.72465 446.62949 L 423.18207 445.05527 L 429.6395 443.43468 L 436.09693 441.76653 L 442.55435 440.04959 L 449.01178 438.28259 L 455.46921 436.46424 L 461.92663 434.59324 L 468.38406 432.66823 L 474.84149 430.68784 L 481.29891 428.65064 L 487.75634 426.5552 L 494.21376 424.40005 L 500.67118 422.18367 L 507.12861 419.90451 L 513.58604 417.56099 L 520.04346 415.15149 L 526.50089 412.67435 L 532.95832 410.12788 L 539.41575 407.51033 L 545.87317 404.81993 L 552.3306 402.05487 L 558.78803 399.21326 L 565.24544 396.29322 L 571.70287 393.29279 L 578.1603 390.20996 L 584.61772 387.0427 L 591.07515 383.7889 L 597.53258 380.44643 L 603.99 377.01307 L 610.44743 373.48659 L 616.90486 369.86467 L 623.36228 366.14495 L 629.81971 362.32501 L 636.27713 358.40237 L 642.73456 354.37449 L 649.19198 350.23877 L 655.64941 345.99254 L 662.10684 341.63305 L 668.56426 337.1575 L 675.02169 332.56302 L 681.47912 327.84666 L 687.93654 323.00539 L 694.39397 318.0361 L 700.8514 312.93564 L 707.30882 307.7007 L 713.76624 302.32795 L 720.22367 296.81395 L 726.6811 291.15517 L 733.13852 285.34797 L 739.59595 279.38865 L 746.05338 273.27337 L 752.5108 266.99821 L 758.96823 260.55914 L 765.42566 253.952 L 771.88308 247.17255 L 778.3405 240.21638 L 784.79793 233.07902 L 785.53198 232.24655 "
     id="rh50" />
  <text
     id="text1913"
     style="fill:none;stroke:#000000;stroke-opacity:1;">
    <textPath
       xlink:href="#rh50"
       class="rhtext"
       startOffset="0%"
       style="text-anchor:start;fill:none;stroke:#000000;stroke-opacity:1;"
       id="textPath1911"></textPath>
  </text>
  <path
     class="line"
     d="m 100.31078,488.16875 6.45742,-0.26845 6.45743,-0.27955 6.45742,-0.29108 6.45743,-0.30301 6.45743,-0.3154 6.45742,-0.32825 6.45743,-0.34156 6.45742,-0.35536 6.45743,-0.36966 6.45743,-0.38448 6.45742,-0.39985 6.45743,-0.41574 6.45743,-0.43223 6.45742,-0.4493 6.45743,-0.46696 6.45743,-0.48527 6.45741,-0.50421 6.45743,-0.52383 6.45743,-0.54413 6.45742,-0.56649 6.45743,-0.51641 6.45743,-0.53338 6.45742,-0.55081 6.45743,-0.56876 6.45743,-0.58721 6.45742,-0.60617 6.45743,-0.62568 6.45742,-0.64571 6.45743,-0.66633 6.45742,-0.68749 6.45743,-0.70924 6.45743,-0.73161 6.45742,-0.75457 6.45743,-0.77816 6.45743,-0.80239 6.45742,-0.82728 6.45743,-0.85284 6.45743,-0.87908 6.45742,-0.90604 6.45742,-0.93369 6.45743,-0.9621 6.45743,-0.99124 6.45742,-1.02117 6.45743,-1.05187 6.45743,-1.08338 6.45742,-1.11571 6.45743,-1.14888 6.45743,-1.18292 6.45742,-1.21782 6.45742,-1.25364 6.45743,-1.29036 6.45743,-1.32804 6.45742,-1.36665 6.45743,-1.40627 6.45743,-1.44689 6.45742,-1.48852 6.45743,-1.53123 6.45743,-1.57498 6.45742,-1.61985 6.45743,-1.66584 6.45742,-1.71296 6.45742,-1.76127 6.45743,-1.81076 6.45743,-1.8615 6.45742,-1.91348 6.45743,-1.96673 6.45743,-2.02131 6.45743,-2.07721 6.45742,-2.1345 6.45743,-2.19317 6.45743,-2.25327 6.45741,-2.31485 6.45743,-2.37791 6.45743,-2.44251 6.45742,-2.50867 6.45743,-2.57643 6.45743,-2.64582 6.45742,-2.7169 6.45743,-2.78968 6.45743,-2.8642 6.45742,-2.94053 6.45743,-3.01868 6.45742,-3.09871 6.45743,-3.18065 6.45742,-3.26456 6.45743,-3.35047 6.45743,-3.43844 6.45742,-3.52851 6.45743,-3.62072 6.45743,-3.71516 6.45742,-3.81183 6.45743,-3.91082 6.45743,-4.01217 6.45742,-4.11593 6.45742,-4.2222 6.45743,-4.33097 6.45743,-4.44237 6.45742,-4.55642 6.45743,-4.6732 6.45743,-4.79278 6.45742,-4.91524 6.45743,-5.04062 6.45743,-5.16901 6.45742,-5.30051 6.45742,-5.43515 6.45743,-5.57307 6.45743,-5.7143 6.45742,-5.85895 6.45743,-6.00713"
     id="rh40"
     style="fill:none;stroke:#0095f3;stroke-width:0.22649416;stroke-miterlimit:4;stroke-dasharray:none;stroke-opacity:0.73869348"
     inkscape:connector-curvature="0" />
  <text
     id="text1918"
     style="fill:none;stroke:#000000;stroke-opacity:1;">
    <textPath
       xlink:href="#rh40"
       class="rhtext"
       startOffset="0%"
       style="text-anchor:start;fill:none;stroke:#000000;stroke-opacity:1;"
       id="textPath1916"></textPath>
  </text>
  <path
     class="line"
     d="m 100.31078,489.64963 6.45742,-0.2012 6.45743,-0.2095 6.45742,-0.21814 6.45743,-0.22707 6.45743,-0.23635 6.45742,-0.24597 6.45743,-0.25593 6.45742,-0.26626 6.45743,-0.27697 6.45743,-0.28805 6.45742,-0.29955 6.45743,-0.31145 6.45743,-0.32378 6.45742,-0.33655 6.45743,-0.34976 6.45743,-0.36345 6.45741,-0.37762 6.45743,-0.39229 6.45743,-0.40746 6.45742,-0.42418 6.45743,-0.38666 6.45743,-0.39934 6.45742,-0.41236 6.45743,-0.42577 6.45743,-0.43955 6.45742,-0.45372 6.45743,-0.46828 6.45742,-0.48324 6.45743,-0.49863 6.45742,-0.51442 6.45743,-0.53066 6.45743,-0.54734 6.45742,-0.56447 6.45743,-0.58206 6.45743,-0.60014 6.45742,-0.61869 6.45743,-0.63775 6.45743,-0.65729 6.45742,-0.67738 6.45742,-0.69799 6.45743,-0.71913 6.45743,-0.74083 6.45742,-0.76312 6.45743,-0.78595 6.45743,-0.8094 6.45742,-0.83345 6.45743,-0.8581 6.45743,-0.88341 6.45742,-0.90935 6.45742,-0.93595 6.45743,-0.96323 6.45743,-0.99119 6.45742,-1.01986 6.45743,-1.04925 6.45743,-1.07937 6.45742,-1.11024 6.45743,-1.14188 6.45743,-1.1743 6.45742,-1.20753 6.45743,-1.24156 6.45742,-1.27644 6.45742,-1.31216 6.45743,-1.34875 6.45743,-1.38624 6.45742,-1.42463 6.45743,-1.46394 6.45743,-1.50422 6.45743,-1.54545 6.45742,-1.58766 6.45743,-1.63089 6.45743,-1.67516 6.45741,-1.72045 6.45743,-1.76685 6.45743,-1.81433 6.45742,-1.86292 6.45743,-1.91267 6.45743,-1.96359 6.45742,-2.01568 6.45743,-2.06902 6.45743,-2.12359 6.45742,-2.17942 6.45743,-2.23657 6.45742,-2.29503 6.45743,-2.35486 6.45742,-2.41606 6.45743,-2.47867 6.45743,-2.54273 6.45742,-2.60828 6.45743,-2.67532 6.45743,-2.74391 6.45742,-2.81406 6.45743,-2.88583 6.45743,-2.95924 6.45742,-3.03433 6.45742,-3.11113 6.45743,-3.1897 6.45743,-3.27005 6.45742,-3.35222 6.45743,-3.43629 6.45743,-3.52226 6.45742,-3.61019 6.45743,-3.70013 6.45743,-3.79211 6.45742,-3.88619 6.45742,-3.98241 6.45743,-4.08082 6.45743,-4.18148 6.45742,-4.28443 6.45743,-4.38972"
     id="rh30"
     style="fill:none;stroke:#0095f3;stroke-width:0.22649416;stroke-miterlimit:4;stroke-dasharray:none;stroke-opacity:0.73869348"
     inkscape:connector-curvature="0" />
  <text
     id="text1923"
     style="fill:none;stroke:#000000;stroke-opacity:1;">
    <textPath
       xlink:href="#rh30"
       class="rhtext"
       startOffset="0%"
       style="text-anchor:start;fill:none;stroke:#000000;stroke-opacity:1;"
       id="textPath1921"></textPath>
  </text>
  <path
     class="line"
     d="m 100.31078,491.12947 6.45742,-0.13403 6.45743,-0.13957 6.45742,-0.14531 6.45743,-0.15126 6.45743,-0.15744 6.45742,-0.16382 6.45743,-0.17046 6.45742,-0.17734 6.45743,-0.18445 6.45743,-0.19183 6.45742,-0.19948 6.45743,-0.2074 6.45743,-0.21559 6.45742,-0.22408 6.45743,-0.23288 6.45743,-0.24197 6.45741,-0.25138 6.45743,-0.26114 6.45743,-0.27122 6.45742,-0.28234 6.45743,-0.25733 6.45743,-0.26576 6.45742,-0.27441 6.45743,-0.28332 6.45743,-0.29247 6.45742,-0.30187 6.45743,-0.31153 6.45742,-0.32147 6.45743,-0.33167 6.45742,-0.34216 6.45743,-0.35292 6.45743,-0.36399 6.45742,-0.37535 6.45743,-0.38701 6.45743,-0.39899 6.45742,-0.41128 6.45743,-0.42392 6.45743,-0.43686 6.45742,-0.45016 6.45742,-0.46381 6.45743,-0.4778 6.45743,-0.49217 6.45742,-0.5069 6.45743,-0.52203 6.45743,-0.53751 6.45742,-0.55342 6.45743,-0.56972 6.45743,-0.58643 6.45742,-0.60357 6.45742,-0.62114 6.45743,-0.63914 6.45743,-0.6576 6.45742,-0.67651 6.45743,-0.69589 6.45743,-0.71575 6.45742,-0.73609 6.45743,-0.75693 6.45743,-0.77829 6.45742,-0.80015 6.45743,-0.82255 6.45742,-0.84548 6.45742,-0.86898 6.45743,-0.89302 6.45743,-0.91764 6.45742,-0.94284 6.45743,-0.96865 6.45743,-0.99505 6.45743,-1.02209 6.45742,-1.04975 6.45743,-1.07805 6.45743,-1.10703 6.45741,-1.13666 6.45743,-1.16699 6.45743,-1.19802 6.45742,-1.22975 6.45743,-1.26221 6.45743,-1.29542 6.45742,-1.32937 6.45743,-1.36411 6.45743,-1.39962 6.45742,-1.43594 6.45743,-1.47308 6.45742,-1.51105 6.45743,-1.54987 6.45742,-1.58955 6.45743,-1.63013 6.45743,-1.67161 6.45742,-1.71398 6.45743,-1.75732 6.45743,-1.80161 6.45742,-1.84687 6.45743,-1.89312 6.45743,-1.94039 6.45742,-1.98869 6.45742,-2.03805 6.45743,-2.08848 6.45743,-2.14001 6.45742,-2.19265 6.45743,-2.24645 6.45743,-2.30139 6.45742,-2.35754 6.45743,-2.41489 6.45743,-2.47346 6.45742,-2.53331 6.45742,-2.59445 6.45743,-2.65688 6.45743,-2.72066 6.45742,-2.7858 6.45743,-2.85234"
     id="rh20"
     style="fill:none;stroke:#0095f3;stroke-width:0.22649416;stroke-miterlimit:4;stroke-dasharray:none;stroke-opacity:0.73869348"
     inkscape:connector-curvature="0" />
  <text
     id="text1928"
     style="fill:none;stroke:#000000;stroke-opacity:1;">
    <textPath
       xlink:href="#rh20"
       class="rhtext"
       startOffset="0%"
       style="text-anchor:start;fill:none;stroke:#000000;stroke-opacity:1;"
       id="textPath1926"></textPath>
  </text>
  <path
     class="line"
     d="m 100.31078,492.60827 6.45742,-0.067 6.45743,-0.0697 6.45742,-0.0726 6.45743,-0.0756 6.45743,-0.0786 6.45742,-0.0818 6.45743,-0.0852 6.45742,-0.0886 6.45743,-0.0921 6.45743,-0.0958 6.45742,-0.0996 6.45743,-0.10357 6.45743,-0.10767 6.45742,-0.11189 6.45743,-0.11629 6.45743,-0.12082 6.45741,-0.12552 6.45743,-0.13037 6.45743,-0.1354 6.45742,-0.14093 6.45743,-0.12846 6.45743,-0.13264 6.45742,-0.13697 6.45743,-0.14139 6.45743,-0.14595 6.45742,-0.15064 6.45743,-0.15544 6.45742,-0.16038 6.45743,-0.16547 6.45742,-0.17068 6.45743,-0.17604 6.45743,-0.18155 6.45742,-0.18718 6.45743,-0.193 6.45743,-0.19894 6.45742,-0.20507 6.45743,-0.21132 6.45743,-0.21777 6.45742,-0.22437 6.45742,-0.23115 6.45743,-0.2381 6.45743,-0.24523 6.45742,-0.25254 6.45743,-0.26004 6.45743,-0.26772 6.45742,-0.27561 6.45743,-0.2837 6.45743,-0.29197 6.45742,-0.30045 6.45742,-0.30917 6.45743,-0.31808 6.45743,-0.32721 6.45742,-0.33657 6.45743,-0.34615 6.45743,-0.35598 6.45742,-0.36603 6.45743,-0.37632 6.45743,-0.38687 6.45742,-0.39767 6.45743,-0.40872 6.45742,-0.42003 6.45742,-0.43161 6.45743,-0.44347 6.45743,-0.4556 6.45742,-0.468 6.45743,-0.4807 6.45743,-0.49369 6.45743,-0.50699 6.45742,-0.52058 6.45743,-0.53449 6.45743,-0.5487 6.45741,-0.56325 6.45743,-0.57812 6.45743,-0.59332 6.45742,-0.60886 6.45743,-0.62476 6.45743,-0.64099 6.45742,-0.65759 6.45743,-0.67457 6.45743,-0.69189 6.45742,-0.70962 6.45743,-0.72772 6.45742,-0.74621 6.45743,-0.76511 6.45742,-0.78441 6.45743,-0.80412 6.45743,-0.82427 6.45742,-0.84483 6.45743,-0.86583 6.45743,-0.88729 6.45742,-0.90918 6.45743,-0.93155 6.45743,-0.95437 6.45742,-0.97767 6.45742,-1.00147 6.45743,-1.02576 6.45743,-1.05054 6.45742,-1.07584 6.45743,-1.10165 6.45743,-1.12801 6.45742,-1.15488 6.45743,-1.18232 6.45743,-1.21031 6.45742,-1.23886 6.45742,-1.26799 6.45743,-1.29771 6.45743,-1.32802 6.45742,-1.35896 6.45743,-1.39048"
     id="rh10"
     style="fill:none;stroke:#0095f3;stroke-width:0.22649416;stroke-miterlimit:4;stroke-dasharray:none;stroke-opacity:0.73869348"
     inkscape:connector-curvature="0" />
  <text
     id="text1933"
     style="fill:#000000;stroke:none;stroke-opacity:1;fill-opacity:1;">
    <textPath
       xlink:href="#rh10"
       class="rhtext"
       startOffset="0%"
       style="text-anchor:start;fill:#000000;stroke:none;stroke-opacity:1;fill-opacity:1;"
       id="textPath1931">10%</textPath>
  </text>
  <text
     class="PASSIVE_SOLAR_HEATING comfH"
     x="103.45808"
     y="335.9288"
     font-weight="200"
     id="text1936"
     style="font-weight:200;font-size:9.48064518px;fill:#1e90ff;stroke-width:0.79005373"
     transform="scale(0.98582687,1.0143769)">PASSIVE_SOLAR_HEATING</text>
  <text
     class="HEATING_INTERNAL_GAINS comfH"
     x="103.45808"
     y="315.44626"
     font-weight="200"
     id="text1938"
     style="font-weight:200;font-size:9.48064518px;fill:#40e0d0;stroke-width:0.79005373"
     transform="scale(0.98582687,1.0143769)">HEATING_INTERNAL_GAINS</text>
  <text
     class="ACTIVE_SOLAR_HEATING comfH"
     x="104.26357"
     y="356.41138"
     font-weight="200"
     id="text1940"
     style="font-weight:200;font-size:9.48064518px;fill:#0000ff;stroke-width:0.79005373"
     transform="scale(0.98582687,1.0143769)">ACTIVE_SOLAR_HEATING</text>
  <text
     class="SOLAR_PROTECTION comfH"
     x="103.76361"
     y="214.2971"
     font-weight="200"
     id="text1942"
     style="font-weight:200;font-size:9.48064518px;fill:#f4a460;stroke-width:0.79005373"
     transform="scale(0.98582687,1.0143769)">SOLAR_PROTECTION</text>
  <text
     class="COMFORT_ZONE comfH"
     x="103.85156"
     y="376.89395"
     font-weight="200"
     id="text1944"
     style="font-weight:200;font-size:9.48064518px;fill:#3cb371;stroke-width:0.79005373"
     transform="scale(0.98582687,1.0143769)">COMFORT_ZONE</text>
  <text
     class="EVAPORATIVE_COOLING comfH"
     x="103.45808"
     y="437.09637"
     font-weight="200"
     id="text1946"
     style="font-weight:200;font-size:9.48064518px;fill:#a46be8;fill-opacity:1;stroke-width:0.79005373"
     transform="scale(0.98582687,1.0143769)">EVAPORATIVE_COOLING</text>
  <text
     class="COOLING_HIGH_THERMAL_MASS comfH"
     x="103.85156"
     y="275.74487"
     font-weight="200"
     id="text1948"
     style="font-weight:200;font-size:9.48064518px;fill:#ff6eac;fill-opacity:0.8627451;stroke-width:0.79005373"
     transform="scale(0.98582687,1.0143769)">COOLING_HIGH_THERMAL_MASS</text>
  <text
     class="COOLING_HIGH_THERMAL_MASS_WITH_NIGHT_COOLING comfH"
     x="103.85156"
     y="234.77971"
     font-weight="200"
     id="text1950"
     style="font-weight:200;font-size:9.48064518px;fill:#ffa500;stroke-width:0.79005373"
     transform="scale(0.98582687,1.0143769)">COOLING_HIGH_THERMAL_MASS_WITH_NIGHT_COOLING</text>
  <text
     class="CONVENTIONAL_HEATING comfH"
     x="103.85156"
     y="397.3765"
     font-weight="200"
     id="text1952"
     style="font-weight:200;font-size:9.48064518px;fill:#800080;stroke-width:0.79005373"
     transform="scale(0.98582687,1.0143769)">CONVENTIONAL_HEATING</text>
  <path
     class="COMFORT_ZONE strategy"
     d="m 488.53569,460.43857 0.13387,-84.60155 53.25684,-31.21228 39.05745,37.0977 -0.78367,63.32098 -91.66449,15.39515"
     id="sz0"
     style="opacity:1;fill:none;stroke:#3cb371;stroke-width:1.13247085;stroke-miterlimit:4;stroke-dasharray:none"
     inkscape:connector-curvature="0" />
  <path
     class="HEATING_INTERNAL_GAINS strategy"
     d="m 405.36736,493.69105 -0.95285,-89.71652 19.41184,-9.42955 0.0358,-0.0182 0.034,-0.0172 39.57301,-22.04664 0.0324,-0.0197 0.0306,-0.0186 22.58589,-14.48719 -0.21796,135.58058 -80.53279,0.17318"
     id="sz1"
     style="opacity:1;fill:none;stroke:#40e0d0;stroke-width:1.13247085;stroke-miterlimit:4;stroke-dasharray:none"
     inkscape:connector-curvature="0" />
  <path
     class="PASSIVE_SOLAR_HEATING strategy"
     d="m 321.72119,493.32904 -0.31523,-57.45357 37.93195,-13.03464 0.0482,-0.0181 0.0458,-0.0172 42.41061,-17.6441 0.9418,88.52662 -81.06311,-0.359"
     id="sz2"
     style="opacity:1;fill:none;stroke:#1e90ff;stroke-width:1.13247085;stroke-miterlimit:4;stroke-dasharray:none"
     inkscape:connector-curvature="0" />
  <path
     class="ACTIVE_SOLAR_HEATING strategy"
     d="m 247.69364,493.00954 v -37.74751 l 48.75903,-12.0239 0.0852,-0.0236 0.0796,-0.0221 22.21014,-6.51417 0.31059,56.63952 -71.44451,-0.3082"
     id="sz3"
     style="opacity:1;fill:none;stroke:#0000ff;stroke-width:1.13247085;stroke-miterlimit:4;stroke-dasharray:none"
     inkscape:connector-curvature="0" />
  <path
     class="HUMIDIFICATION strategy"
     d="m 163.51084,483.91737 82.95036,-2.37465 0.21119,-0.006 0.19707,-0.0479 35.82501,-8.70134 37.8497,-6.47037 42.58488,-3.51181 40.54336,-0.002 43.74044,3.51549 39.44931,6.47644 26.43941,5.37752 0.2905,13.05407 -350.08123,-1.65515 v -5.65463"
     id="sz4"
     style="opacity:1;fill:none;stroke:#da70d6;stroke-width:1.13247085;stroke-miterlimit:4;stroke-dasharray:none"
     inkscape:connector-curvature="0" />
  <path
     class="CONVENTIONAL_HEATING strategy"
     d="m 163.51084,493.00399 v -21.66883 l 81.59983,-15.51406 v 37.18289 h -81.59983"
     id="sz5"
     style="opacity:1;fill:none;stroke:#800080;stroke-width:1.13247085;stroke-miterlimit:4;stroke-dasharray:none"
     inkscape:connector-curvature="0" />
  <path
     style="opacity:1;fill:none;stroke:#f4a460;stroke-width:1.13247085;stroke-miterlimit:4;stroke-dasharray:none"
     d="m 614.59165,236.73532 c -12.34394,14.73511 -25.3699,29.24717 -39.97845,43.24758 -11.57655,12.19451 -23.49903,24.28858 -37.70912,35.46623 -13.17172,11.5587 -26.82698,22.94627 -42.28793,33.48743 -3.09948,2.48978 -7.60995,4.76293 -9.02938,7.70538 -0.0728,45.43587 -0.14546,90.87173 -0.21831,136.3076 122.02689,-0.20609 244.05378,-0.41167 366.08067,-0.61779 0,-64.63547 0,-129.27093 0,-193.90639 -65.86199,-20.33002 -131.44377,-41.0874 -197.48416,-61.1488 -12.97182,-0.35588 -25.94355,-0.71289 -38.91543,-1.06807 l -0.35634,0.41 z"
     id="sz6"
     inkscape:connector-curvature="0" />
  <path
     style="opacity:1;fill:none;stroke:#ff6eac;stroke-width:1.13247085;stroke-miterlimit:4;stroke-dasharray:none;stroke-opacity:1"
     d="m 585.99607,380.05196 c 1.61916,7.61878 -0.0315,15.4275 0.42094,23.11809 -0.18411,14.83794 -0.36668,29.67589 -0.55176,44.51382 -22.13809,3.71974 -44.27724,7.43725 -66.41575,11.15612 52.98606,0 105.97211,0 158.95817,0 0,-24.44955 0,-48.89911 0,-73.34866 -13.25882,-13.15265 -26.51762,-26.3053 -39.77643,-39.45796 -29.48245,0 -58.96489,0 -88.44734,0 11.93739,11.33953 23.87478,22.67905 35.81217,34.01859 z"
     id="sz7"
     inkscape:connector-curvature="0" />
  <path
     class="EVAPORATIVE_COOLING strategy"
     d="m 491.55035,461.60796 90.26782,-15.1591 0.9496,-0.15956 0.008,-0.61663 0.7944,-64.18681 0.003,-0.24926 -0.21888,-0.20761 -37.47114,-35.59083 132.83806,41.17851 44.79926,19.87542 28.70433,34.59132 v 49.40517 L 618.29886,490.26241 491.55053,461.60796"
     id="sz8"
     style="opacity:1;fill:none;stroke:#a46be8;stroke-width:1.13247085;stroke-miterlimit:4;stroke-dasharray:none;stroke-opacity:1"
     inkscape:connector-curvature="0" />
  <path
     class="COOLING_HIGH_THERMAL_MASS_WITH_NIGHT_COOLING strategy"
     d="m 497.05422,460.68418 84.76395,-14.23532 0.9496,-0.15956 0.008,-0.61663 0.7944,-64.18681 0.003,-0.24926 -0.21888,-0.20761 -38.79183,-36.84699 196.53634,-0.61069 51.67101,33.00828 -1.17562,84.10459 h -294.5398"
     id="sz9"
     style="opacity:1;fill:none;stroke:#ffa500;stroke-width:1.13247085;stroke-miterlimit:4;stroke-dasharray:none"
     inkscape:connector-curvature="0" />
  <path
     class="COOLING_NATURAL_AND_MECHANICAL_VENTILATION strategy"
     d="m 488.67306,373.61238 0.0249,-15.81545 48.44346,-32.37725 0.0178,-0.0119 0.017,-0.0123 31.47689,-22.84885 56.02081,51.47918 -1.57303,80.749 -40.31074,9.70935 0.77966,-62.99827 0.003,-0.24925 -0.21887,-0.20762 -40.11719,-38.1077 -0.84086,-0.79992 -1.11346,0.65344 -52.60945,30.83758"
     id="sz10"
     style="opacity:1;fill:none;stroke:#7fe100;stroke-width:1.13247085;stroke-miterlimit:4;stroke-dasharray:none;stroke-opacity:1"
     inkscape:connector-curvature="0" />
  <path
     class="AIR_CONDITIONED strategy"
     d="m 754.8075,490.49077 v -28.18833 h 38.06661 1.28018 l 0.0112,-0.802 1.19161,-85.24521 0.005,-0.33868 -0.37756,-0.24091 -52.43038,-33.49626 -0.38179,-0.24423 -0.54315,0.002 -126.56529,0.39333 -32.05021,-29.45343 71.85722,-73.43138 193.46317,60.09547 V 490.49077 H 754.8075"
     id="sz11"
     style="opacity:1;fill:none;stroke:#ff0000;stroke-width:1.13247085;stroke-miterlimit:4;stroke-dasharray:none"
     inkscape:connector-curvature="0" />
  <text
     xml:space="preserve"
     style="font-style:normal;font-weight:normal;font-size:9.48064518px;line-height:1.25;font-family:sans-serif;letter-spacing:0px;word-spacing:0px;fill:#80e200;fill-opacity:0.81568627;stroke:none;stroke-width:0.79005373"
     x="103.85156"
     y="255.26231"
     id="text1995"
     transform="scale(0.98582687,1.0143769)"><tspan
       sodipodi:role="line"
       id="tspan1993"
       x="103.85156"
       y="255.26231"
       style="stroke-width:0.79005373">COOLING NATURAL_AND_MECHANICAL_VENTILATION</tspan></text>
  <text
     xml:space="preserve"
     style="font-style:normal;font-weight:normal;font-size:9.48064518px;line-height:1.25;font-family:sans-serif;letter-spacing:0px;word-spacing:0px;fill:#ff0000;fill-opacity:0.95294118;stroke:none;stroke-width:0.79005373;stroke-opacity:1"
     x="104.26357"
     y="296.22748"
     id="text1999"
     transform="scale(0.98582687,1.0143769)"><tspan
       sodipodi:role="line"
       id="tspan1997"
       x="104.26357"
       y="296.22748"
       style="stroke-width:0.79005373">AIR CONDITIONED</tspan></text>
  <text
     xml:space="preserve"
     style="font-style:normal;font-weight:normal;font-size:9.48064518px;line-height:1.25;font-family:sans-serif;letter-spacing:0px;word-spacing:0px;fill:#da70d6;fill-opacity:1;stroke:none;stroke-width:0.79005373"
     x="103.45808"
     y="417.85907"
     id="text5743"
     transform="scale(0.98582687,1.0143769)"><tspan
       sodipodi:role="line"
       id="tspan5741"
       x="103.45808"
       y="417.85907"
       style="stroke-width:0.79005373">HUMIDIFICATION</tspan></text>
  <text
     xml:space="preserve"
     style="font-style:normal;font-weight:normal;font-size:9.48064518px;line-height:1.25;font-family:sans-serif;letter-spacing:0px;word-spacing:0px;fill:#000000;fill-opacity:1;stroke:none;stroke-width:0.79005373"
     x="424.10275"
     y="503.38538"
     id="text5763"
     transform="scale(0.98582687,1.0143769)"><tspan
       sodipodi:role="line"
       id="tspan5761"
       x="424.10275"
       y="503.38538"
       style="stroke-width:0.79005373">DRY BULB TEMPERATURE</tspan></text>
  <text
     xml:space="preserve"
     style="font-style:normal;font-weight:normal;font-size:9.48064518px;line-height:1.25;font-family:sans-serif;letter-spacing:0px;word-spacing:0px;fill:#000000;fill-opacity:1;stroke:none;stroke-width:0.79005373"
     x="-431.55734"
     y="850.19727"
     id="text5767"
     transform="matrix(0,-1.0143769,0.98582687,0,0,0)"><tspan
       sodipodi:role="line"
       id="tspan5765"
       x="-431.55734"
       y="850.19727"
       style="stroke-width:0.79005373">HUMDITY RATIO G/KG</tspan></text>
</svg>
