<svg xmlns="http://www.w3.org/2000/svg" width="60" height="60" viewBox="0 0 60 60"><title>architecture-resource_IOT_Thing-Thermostat</title><g id="Background"><rect width="60" height="60" style="fill:#fff"/><path d="M59,1V59H1V1H59m1-1H0V60H60V0Z" style="fill:#232f3e"/></g><g id="Art"><path d="M46.77,12.18H15.16a2,2,0,0,0-2,2V45.78a2,2,0,0,0,2,2H46.77a2,2,0,0,0,2-2V14.17A2,2,0,0,0,46.77,12.18Z" style="fill:none;stroke:#232f3e;stroke-miterlimit:10;stroke-width:2px"/><line x1="19.72" y1="6.53" x2="19.72" y2="12.16" style="fill:none;stroke:#232f3e;stroke-miterlimit:10;stroke-width:2px"/><line x1="25.34" y1="6.53" x2="25.34" y2="12.16" style="fill:none;stroke:#232f3e;stroke-miterlimit:10;stroke-width:2px"/><line x1="30.97" y1="6.53" x2="30.97" y2="12.16" style="fill:none;stroke:#232f3e;stroke-miterlimit:10;stroke-width:2px"/><line x1="36.59" y1="6.53" x2="36.59" y2="12.16" style="fill:none;stroke:#232f3e;stroke-miterlimit:10;stroke-width:2px"/><line x1="42.22" y1="6.53" x2="42.22" y2="12.16" style="fill:none;stroke:#232f3e;stroke-miterlimit:10;stroke-width:2px"/><line x1="19.72" y1="47.78" x2="19.72" y2="53.41" style="fill:none;stroke:#232f3e;stroke-miterlimit:10;stroke-width:2px"/><line x1="25.34" y1="47.78" x2="25.34" y2="53.41" style="fill:none;stroke:#232f3e;stroke-miterlimit:10;stroke-width:2px"/><line x1="30.97" y1="47.78" x2="30.97" y2="53.41" style="fill:none;stroke:#232f3e;stroke-miterlimit:10;stroke-width:2px"/><line x1="36.59" y1="47.78" x2="36.59" y2="53.41" style="fill:none;stroke:#232f3e;stroke-miterlimit:10;stroke-width:2px"/><line x1="42.22" y1="47.78" x2="42.22" y2="53.41" style="fill:none;stroke:#232f3e;stroke-miterlimit:10;stroke-width:2px"/><line x1="13.16" y1="18.72" x2="7.53" y2="18.72" style="fill:none;stroke:#232f3e;stroke-miterlimit:10;stroke-width:2px"/><line x1="13.16" y1="24.34" x2="7.53" y2="24.34" style="fill:none;stroke:#232f3e;stroke-miterlimit:10;stroke-width:2px"/><line x1="13.16" y1="29.97" x2="7.53" y2="29.97" style="fill:none;stroke:#232f3e;stroke-miterlimit:10;stroke-width:2px"/><line x1="13.16" y1="35.59" x2="7.53" y2="35.59" style="fill:none;stroke:#232f3e;stroke-miterlimit:10;stroke-width:2px"/><line x1="13.16" y1="41.22" x2="7.53" y2="41.22" style="fill:none;stroke:#232f3e;stroke-miterlimit:10;stroke-width:2px"/><line x1="54.41" y1="18.72" x2="48.78" y2="18.72" style="fill:none;stroke:#232f3e;stroke-miterlimit:10;stroke-width:2px"/><line x1="54.41" y1="24.34" x2="48.78" y2="24.34" style="fill:none;stroke:#232f3e;stroke-miterlimit:10;stroke-width:2px"/><line x1="54.41" y1="29.97" x2="48.78" y2="29.97" style="fill:none;stroke:#232f3e;stroke-miterlimit:10;stroke-width:2px"/><line x1="54.41" y1="35.59" x2="48.78" y2="35.59" style="fill:none;stroke:#232f3e;stroke-miterlimit:10;stroke-width:2px"/><line x1="54.41" y1="41.22" x2="48.78" y2="41.22" style="fill:none;stroke:#232f3e;stroke-miterlimit:10;stroke-width:2px"/><circle cx="30.97" cy="29.97" r="13.59" style="fill:none;stroke:#232f3e;stroke-linejoin:round;stroke-width:2px"/><line x1="30.97" y1="35.59" x2="30.97" y2="22.47" style="fill:none;stroke:#232f3e;stroke-linejoin:round;stroke-width:2px"/><line x1="28.16" y1="24.34" x2="30.97" y2="24.34" style="fill:none;stroke:#232f3e;stroke-linejoin:round;stroke-width:2px"/><line x1="28.16" y1="28.09" x2="30.97" y2="28.09" style="fill:none;stroke:#232f3e;stroke-linejoin:round;stroke-width:2px"/><line x1="28.16" y1="31.84" x2="30.97" y2="31.84" style="fill:none;stroke:#232f3e;stroke-linejoin:round;stroke-width:2px"/><circle cx="30.97" cy="37.47" r="2.34" style="fill:none;stroke:#232f3e;stroke-linejoin:round;stroke-width:2px"/><line x1="43.34" y1="25.36" x2="40.07" y2="26.58" style="fill:none;stroke:#232f3e;stroke-linejoin:round;stroke-width:2px"/><line x1="36.45" y1="17.96" x2="35.01" y2="21.14" style="fill:none;stroke:#232f3e;stroke-linejoin:round;stroke-width:2px"/><line x1="27.58" y1="20.87" x2="26.36" y2="17.6" style="fill:none;stroke:#232f3e;stroke-linejoin:round;stroke-width:2px"/><line x1="22.14" y1="25.93" x2="18.96" y2="24.48" style="fill:none;stroke:#232f3e;stroke-linejoin:round;stroke-width:2px"/></g></svg>