<svg xmlns="http://www.w3.org/2000/svg" width="60" height="60" viewBox="0 0 60 60"><title>architecture-resource_EBS_Snapshot</title><g id="Background"><rect width="60" height="60" style="fill:#fff"/><path d="M59,1V59H1V1H59m1-1H0V60H60V0Z" style="fill:#232f3e"/></g><g id="Art"><polygon points="41.25 12.19 16.88 12.19 21.21 7.5 36.92 7.5 41.25 12.19" style="fill:none;stroke:#232f3e;stroke-linejoin:round;stroke-width:2px"/><polyline points="16.88 18.75 16.88 15.94 41.25 15.94 41.25 18.75" style="fill:none;stroke:#232f3e;stroke-linejoin:round;stroke-width:2px"/><path d="M43.92,24.33,40.57,49.24c0,.68-.8,1.32-2.13,1.85a16.65,16.65,0,0,1-2.2.66A33.12,33.12,0,0,1,29,52.5c-6,0-11.55-1.46-11.55-3.26L14.1,24.33c.58,2.23,7.36,4,14.91,4S43.34,26.56,43.92,24.33Z" style="fill:none;stroke:#232f3e;stroke-linejoin:round;stroke-width:2px"/><path d="M44,24l0,.3c-.58,2.23-7.36,4-14.91,4s-14.33-1.75-14.91-4l0-.3c0-2.37,7.06-4.81,15-4.81S44,21.66,44,24Z" style="fill:none;stroke:#232f3e;stroke-linejoin:round;stroke-width:2px"/><path d="M29,32.76s15.17,7.45,16.78,5.52c.91-1.08-2.67-3-3.3-3.33" style="fill:none;stroke:#232f3e;stroke-linejoin:round;stroke-width:2px"/><circle cx="29.01" cy="32.76" r="0.87" style="fill:none;stroke:#232f3e;stroke-linejoin:round;stroke-width:2px"/></g></svg>