<svg xmlns="http://www.w3.org/2000/svg" width="60" height="60" viewBox="0 0 60 60"><title>architecture-resource_On-Demand-Workforce_Amazon-Mechanical-Turk</title><g id="Background"><rect width="60" height="60" style="fill:#fff"/><path d="M59,1V59H1V1H59m1-1H0V60H60V0Z" style="fill:#232f3e"/></g><g id="Art"><rect x="14.06" y="7.5" width="31.88" height="45" style="fill:none;stroke:#232f3e;stroke-linejoin:round;stroke-width:2px"/><rect x="17.81" y="11.25" width="5.63" height="3.75" style="fill:none;stroke:#232f3e;stroke-linejoin:round;stroke-width:2px"/><rect x="27.19" y="11.25" width="5.63" height="3.75" style="fill:none;stroke:#232f3e;stroke-linejoin:round;stroke-width:2px"/><rect x="36.56" y="11.25" width="5.63" height="3.75" style="fill:none;stroke:#232f3e;stroke-linejoin:round;stroke-width:2px"/><rect x="17.81" y="18.75" width="5.63" height="3.75" style="fill:none;stroke:#232f3e;stroke-linejoin:round;stroke-width:2px"/><rect x="27.19" y="18.75" width="5.63" height="3.75" style="fill:none;stroke:#232f3e;stroke-linejoin:round;stroke-width:2px"/><rect x="36.56" y="18.75" width="5.63" height="3.75" style="fill:none;stroke:#232f3e;stroke-linejoin:round;stroke-width:2px"/><rect x="17.81" y="26.25" width="5.63" height="3.75" style="fill:none;stroke:#232f3e;stroke-linejoin:round;stroke-width:2px"/><rect x="27.19" y="26.25" width="5.63" height="3.75" style="fill:none;stroke:#232f3e;stroke-linejoin:round;stroke-width:2px"/><rect x="36.56" y="26.25" width="5.63" height="3.75" style="fill:none;stroke:#232f3e;stroke-linejoin:round;stroke-width:2px"/><rect x="17.81" y="33.75" width="5.63" height="3.75" style="fill:none;stroke:#232f3e;stroke-linejoin:round;stroke-width:2px"/><rect x="27.19" y="33.75" width="5.63" height="3.75" style="fill:none;stroke:#232f3e;stroke-linejoin:round;stroke-width:2px"/><rect x="36.56" y="33.75" width="5.63" height="3.75" style="fill:none;stroke:#232f3e;stroke-linejoin:round;stroke-width:2px"/></g></svg>