<svg xmlns="http://www.w3.org/2000/svg" width="60" height="60" viewBox="0 0 60 60"><title>architecture-resource_IOT_Alexa-smart-home-skill</title><g id="Background"><rect width="60" height="60" style="fill:#fff"/><path d="M59,1V59H1V1H59m1-1H0V60H60V0Z" style="fill:#232f3e"/></g><g id="Art"><polygon points="52.5 30 47.81 29.98 47.81 52.5 12.19 52.5 12.19 30 7.5 29.98 7.5 28.13 30 7.5 52.5 28.13 52.5 30" style="fill:none;stroke:#232f3e;stroke-linejoin:round;stroke-width:2px"/><path id="_Path_" data-name="&lt;Path&gt;" d="M28,46.57V44a2.3,2.3,0,0,0-1.41-2.09,8.85,8.85,0,1,1,12.29-8.15C38.85,39.49,34.42,44.91,28,46.57Z" style="fill:none;stroke:#232f3e;stroke-linejoin:round;stroke-width:2px"/><path id="_Compound_Path_" data-name="&lt;Compound Path&gt;" d="M30,20.79a13,13,0,1,0,13,13A13,13,0,0,0,30,20.79Z" style="fill:none;stroke:#232f3e;stroke-linejoin:round;stroke-width:2px"/></g></svg>