<svg xmlns="http://www.w3.org/2000/svg" width="60" height="60" viewBox="0 0 60 60"><title>architecture-resource_general_Internet</title><g id="Background"><rect width="60" height="60" style="fill:#fff"/><path d="M59,1V59H1V1H59m1-1H0V60H60V0Z" style="fill:#232f3e"/></g><g id="Art"><path d="M13.69,20.66h0M39.38,35.89h5c3.18,0,8.1-1,8.1-7.47,0-5.66-4.56-7.35-7.31-7.91-.24-4-2.64-5.84-5-5.84a4.76,4.76,0,0,0-3.79,1.93,13.32,13.32,0,0,0-3.16-5A11.6,11.6,0,0,0,20.36,9.12,11.64,11.64,0,0,0,13.6,19.28a10.28,10.28,0,0,0,.09,1.37c-2.92.72-6.19,2.86-6.19,7.69,0,.2,0,.39,0,.58.23,4.17,3.76,7,8.08,7h5m13.13,0h-7.5" style="fill:none;stroke:#232f3e;stroke-linejoin:round;stroke-width:2px"/><polyline points="42.19 46.2 36.56 51.83 30.94 46.2" style="fill:none;stroke:#232f3e;stroke-linejoin:round;stroke-width:2px"/><line x1="36.56" y1="50.89" x2="36.56" y2="34.95" style="fill:none;stroke:#232f3e;stroke-linejoin:round;stroke-width:2px"/><polyline points="17.81 25.58 23.44 19.95 29.06 25.58" style="fill:none;stroke:#232f3e;stroke-linejoin:round;stroke-width:2px"/><line x1="23.44" y1="19.95" x2="23.44" y2="36.83" style="fill:none;stroke:#232f3e;stroke-linejoin:round;stroke-width:2px"/></g></svg>