<svg xmlns="http://www.w3.org/2000/svg" width="60" height="60" viewBox="0 0 60 60"><title>architecture-resource_DMS_EMR-engine-MapR-M7</title><g id="Background"><rect width="60" height="60" style="fill:#fff"/><path d="M59,1V59H1V1H59m1-1H0V60H60V0Z" style="fill:#232f3e"/></g><g id="Art"><line x1="30.94" y1="14.88" x2="23" y2="21.33" style="fill:none;stroke:#232f3e;stroke-linejoin:round;stroke-width:2px"/><line x1="30.94" y1="45.12" x2="23.31" y2="38.92" style="fill:none;stroke:#232f3e;stroke-linejoin:round;stroke-width:2px"/><polyline points="23.44 31.56 38.8 36.68 39.35 36.86 44.06 38.44" style="fill:none;stroke:#232f3e;stroke-linejoin:round;stroke-width:2px"/><polyline points="23.44 28.44 38.8 23.32 39.35 23.14 44.06 21.56" style="fill:none;stroke:#232f3e;stroke-linejoin:round;stroke-width:2px"/><line x1="33.75" y1="15.94" x2="45.94" y2="33.75" style="fill:none;stroke:#232f3e;stroke-linejoin:round;stroke-width:2px"/><path d="M39.38,11.25s5.32,3.88,8.73,6.56" style="fill:none;stroke:#232f3e;stroke-linejoin:round;stroke-width:2px"/><rect x="30.94" y="7.5" width="8.44" height="8.44" style="fill:none;stroke:#232f3e;stroke-linejoin:round;stroke-width:2px"/><line x1="33.75" y1="44.06" x2="45.94" y2="26.25" style="fill:none;stroke:#232f3e;stroke-linejoin:round;stroke-width:2px"/><path d="M39.38,48.75s5.32-3.88,8.73-6.56" style="fill:none;stroke:#232f3e;stroke-linejoin:round;stroke-width:2px"/><rect x="30.94" y="44.06" width="8.44" height="8.44" style="fill:none;stroke:#232f3e;stroke-linejoin:round;stroke-width:2px"/><rect x="44.06" y="33.75" width="8.44" height="8.44" style="fill:none;stroke:#232f3e;stroke-linejoin:round;stroke-width:2px"/><rect x="44.06" y="17.81" width="8.44" height="8.44" style="fill:none;stroke:#232f3e;stroke-linejoin:round;stroke-width:2px"/><path d="M23.44,22.25V38.42c0,1.56-3.58,2.83-8,2.83s-8-1.27-8-2.83V22.25c0-1.56,3.57-2.83,8-2.83S23.44,20.69,23.44,22.25Z" style="fill:none;stroke:#232f3e;stroke-linejoin:round;stroke-width:2px"/><path d="M23.44,21.76c0,1.56-3.58,2.83-8,2.83s-8-1.27-8-2.83" style="fill:none;stroke:#232f3e;stroke-linejoin:round;stroke-width:2px"/></g></svg>