<svg xmlns="http://www.w3.org/2000/svg" width="60" height="60" viewBox="0 0 60 60"><title>architecture-resource_EPS_File-System</title><g id="Background"><rect width="60" height="60" style="fill:#fff"/><path d="M59,1V59H1V1H59m1-1H0V60H60V0Z" style="fill:#232f3e"/></g><g id="Art"><polyline points="52.03 51.56 44.53 34.67 7.03 34.67 14.53 51.55" style="fill:none;stroke:#232f3e;stroke-linejoin:round;stroke-width:2px"/><polyline points="10.7 34.67 9.84 30.92 47.34 30.92 52.03 51.56" style="fill:none;stroke:#232f3e;stroke-linejoin:round;stroke-width:2px"/><path d="M14.53,30.92V29.19a2.1,2.1,0,0,1,2.08-2.11H37.52v-2.3a1.35,1.35,0,0,1,1.35-1.36h4.55a1.36,1.36,0,0,1,1.36,1.36v2.3H50A2.1,2.1,0,0,1,52,29.19V51.56H14.53" style="fill:none;stroke:#232f3e;stroke-linejoin:round;stroke-width:2px"/><rect x="10.78" y="11.25" width="7.5" height="7.5" style="fill:none;stroke:#232f3e;stroke-linejoin:round;stroke-width:2px"/><line x1="11.72" y1="8.44" x2="11.72" y2="11.25" style="fill:none;stroke:#232f3e;stroke-linejoin:round;stroke-width:2px"/><line x1="14.53" y1="8.44" x2="14.53" y2="11.25" style="fill:none;stroke:#232f3e;stroke-linejoin:round;stroke-width:2px"/><line x1="17.34" y1="8.44" x2="17.34" y2="11.25" style="fill:none;stroke:#232f3e;stroke-linejoin:round;stroke-width:2px"/><line x1="11.72" y1="18.75" x2="11.72" y2="21.56" style="fill:none;stroke:#232f3e;stroke-linejoin:round;stroke-width:2px"/><line x1="14.53" y1="18.75" x2="14.53" y2="21.56" style="fill:none;stroke:#232f3e;stroke-linejoin:round;stroke-width:2px"/><line x1="17.34" y1="18.75" x2="17.34" y2="21.56" style="fill:none;stroke:#232f3e;stroke-linejoin:round;stroke-width:2px"/><line x1="18.28" y1="17.81" x2="21.09" y2="17.81" style="fill:none;stroke:#232f3e;stroke-linejoin:round;stroke-width:2px"/><line x1="18.28" y1="15" x2="21.09" y2="15" style="fill:none;stroke:#232f3e;stroke-linejoin:round;stroke-width:2px"/><line x1="18.28" y1="12.19" x2="21.09" y2="12.19" style="fill:none;stroke:#232f3e;stroke-linejoin:round;stroke-width:2px"/><line x1="7.97" y1="17.81" x2="10.78" y2="17.81" style="fill:none;stroke:#232f3e;stroke-linejoin:round;stroke-width:2px"/><line x1="7.97" y1="15" x2="10.78" y2="15" style="fill:none;stroke:#232f3e;stroke-linejoin:round;stroke-width:2px"/><line x1="7.97" y1="12.19" x2="10.78" y2="12.19" style="fill:none;stroke:#232f3e;stroke-linejoin:round;stroke-width:2px"/><rect x="26.72" y="11.25" width="7.5" height="7.5" style="fill:none;stroke:#232f3e;stroke-linejoin:round;stroke-width:2px"/><line x1="27.66" y1="8.44" x2="27.66" y2="11.25" style="fill:none;stroke:#232f3e;stroke-linejoin:round;stroke-width:2px"/><line x1="30.47" y1="8.44" x2="30.47" y2="11.25" style="fill:none;stroke:#232f3e;stroke-linejoin:round;stroke-width:2px"/><line x1="33.28" y1="8.44" x2="33.28" y2="11.25" style="fill:none;stroke:#232f3e;stroke-linejoin:round;stroke-width:2px"/><line x1="27.66" y1="18.75" x2="27.66" y2="21.56" style="fill:none;stroke:#232f3e;stroke-linejoin:round;stroke-width:2px"/><line x1="30.47" y1="18.75" x2="30.47" y2="21.56" style="fill:none;stroke:#232f3e;stroke-linejoin:round;stroke-width:2px"/><line x1="33.28" y1="18.75" x2="33.28" y2="21.56" style="fill:none;stroke:#232f3e;stroke-linejoin:round;stroke-width:2px"/><line x1="34.22" y1="17.81" x2="37.03" y2="17.81" style="fill:none;stroke:#232f3e;stroke-linejoin:round;stroke-width:2px"/><line x1="34.22" y1="15" x2="37.03" y2="15" style="fill:none;stroke:#232f3e;stroke-linejoin:round;stroke-width:2px"/><line x1="34.22" y1="12.19" x2="37.03" y2="12.19" style="fill:none;stroke:#232f3e;stroke-linejoin:round;stroke-width:2px"/><line x1="23.91" y1="17.81" x2="26.72" y2="17.81" style="fill:none;stroke:#232f3e;stroke-linejoin:round;stroke-width:2px"/><line x1="23.91" y1="15" x2="26.72" y2="15" style="fill:none;stroke:#232f3e;stroke-linejoin:round;stroke-width:2px"/><line x1="23.91" y1="12.19" x2="26.72" y2="12.19" style="fill:none;stroke:#232f3e;stroke-linejoin:round;stroke-width:2px"/><rect x="42.66" y="11.25" width="7.5" height="7.5" style="fill:none;stroke:#232f3e;stroke-linejoin:round;stroke-width:2px"/><line x1="43.59" y1="8.44" x2="43.59" y2="11.25" style="fill:none;stroke:#232f3e;stroke-linejoin:round;stroke-width:2px"/><line x1="46.41" y1="8.44" x2="46.41" y2="11.25" style="fill:none;stroke:#232f3e;stroke-linejoin:round;stroke-width:2px"/><line x1="49.22" y1="8.44" x2="49.22" y2="11.25" style="fill:none;stroke:#232f3e;stroke-linejoin:round;stroke-width:2px"/><line x1="43.59" y1="18.75" x2="43.59" y2="21.56" style="fill:none;stroke:#232f3e;stroke-linejoin:round;stroke-width:2px"/><line x1="46.41" y1="18.75" x2="46.41" y2="21.56" style="fill:none;stroke:#232f3e;stroke-linejoin:round;stroke-width:2px"/><line x1="49.22" y1="18.75" x2="49.22" y2="21.56" style="fill:none;stroke:#232f3e;stroke-linejoin:round;stroke-width:2px"/><line x1="50.16" y1="17.81" x2="52.97" y2="17.81" style="fill:none;stroke:#232f3e;stroke-linejoin:round;stroke-width:2px"/><line x1="50.16" y1="15" x2="52.97" y2="15" style="fill:none;stroke:#232f3e;stroke-linejoin:round;stroke-width:2px"/><line x1="50.16" y1="12.19" x2="52.97" y2="12.19" style="fill:none;stroke:#232f3e;stroke-linejoin:round;stroke-width:2px"/><line x1="39.84" y1="17.81" x2="42.66" y2="17.81" style="fill:none;stroke:#232f3e;stroke-linejoin:round;stroke-width:2px"/><line x1="39.84" y1="15" x2="42.66" y2="15" style="fill:none;stroke:#232f3e;stroke-linejoin:round;stroke-width:2px"/><line x1="39.84" y1="12.19" x2="42.66" y2="12.19" style="fill:none;stroke:#232f3e;stroke-linejoin:round;stroke-width:2px"/></g></svg>