<svg xmlns="http://www.w3.org/2000/svg" width="60" height="60" viewBox="0 0 60 60"><title>architecture-resource_general_SAML-token</title><g id="Background"><rect width="60" height="60" style="fill:#fff"/><path d="M59,1V59H1V1H59m1-1H0V60H60V0Z" style="fill:#232f3e"/></g><g id="Art"><polygon points="52.5 25.5 25.5 52.5 7.5 34.5 34.5 7.5 52.5 7.5 52.5 25.5" style="fill:none;stroke:#232f3e;stroke-linejoin:round;stroke-width:2px"/><circle cx="44.41" cy="15.59" r="2.7" style="fill:none;stroke:#232f3e;stroke-linejoin:round;stroke-width:2px"/><path d="M29.53,39a6.52,6.52,0,0,0,1.18-7.62l8.66-8.66-.2-2.61-3,.2L35,21.53H32.54V24l-.8.8H29.33v2.41L27.9,28.59A6.54,6.54,0,1,0,29.53,39ZM24.9,37.21a2,2,0,1,1,0-2.81A2,2,0,0,1,24.9,37.21Z" style="fill:none;stroke:#232f3e;stroke-linejoin:round;stroke-width:2px"/></g></svg>