<svg xmlns="http://www.w3.org/2000/svg" width="60" height="60" viewBox="0 0 60 60"><title>architecture-resource_SNS_Topic</title><g id="Background"><rect width="60" height="60" style="fill:#fff"/><path d="M59,1V59H1V1H59m1-1H0V60H60V0Z" style="fill:#232f3e"/></g><g id="Art"><rect x="7.5" y="10.78" width="45" height="10.31" style="fill:none;stroke:#232f3e;stroke-linejoin:round;stroke-width:2px"/><polyline points="52.5 33.16 52.5 35.16 50.5 35.16" style="fill:none;stroke:#232f3e;stroke-linejoin:round;stroke-width:2px"/><line x1="48.64" y1="35.16" x2="10.43" y2="35.16" style="fill:none;stroke:#232f3e;stroke-linejoin:round;stroke-width:2px;stroke-dasharray:3.7272703647613525,1.8636351823806763"/><polyline points="9.5 35.16 7.5 35.16 7.5 33.16" style="fill:none;stroke:#232f3e;stroke-linejoin:round;stroke-width:2px"/><line x1="7.5" y1="31.58" x2="7.5" y2="27.63" style="fill:none;stroke:#232f3e;stroke-linejoin:round;stroke-width:2px;stroke-dasharray:3.156251907348633,1.5781259536743164"/><polyline points="7.5 26.84 7.5 24.84 9.5 24.84" style="fill:none;stroke:#232f3e;stroke-linejoin:round;stroke-width:2px"/><line x1="11.36" y1="24.84" x2="49.57" y2="24.84" style="fill:none;stroke:#232f3e;stroke-linejoin:round;stroke-width:2px;stroke-dasharray:3.7272703647613525,1.8636351823806763"/><polyline points="50.5 24.84 52.5 24.84 52.5 26.84" style="fill:none;stroke:#232f3e;stroke-linejoin:round;stroke-width:2px"/><line x1="52.5" y1="28.42" x2="52.5" y2="32.37" style="fill:none;stroke:#232f3e;stroke-linejoin:round;stroke-width:2px;stroke-dasharray:3.156251907348633,1.5781259536743164"/><polyline points="52.5 47.22 52.5 49.22 50.5 49.22" style="fill:none;stroke:#232f3e;stroke-linejoin:round;stroke-width:2px"/><line x1="48.64" y1="49.22" x2="10.43" y2="49.22" style="fill:none;stroke:#232f3e;stroke-linejoin:round;stroke-width:2px;stroke-dasharray:3.7272703647613525,1.8636351823806763"/><polyline points="9.5 49.22 7.5 49.22 7.5 47.22" style="fill:none;stroke:#232f3e;stroke-linejoin:round;stroke-width:2px"/><line x1="7.5" y1="45.64" x2="7.5" y2="41.7" style="fill:none;stroke:#232f3e;stroke-linejoin:round;stroke-width:2px;stroke-dasharray:3.1562490463256836,1.5781245231628418"/><polyline points="7.5 40.91 7.5 38.91 9.5 38.91" style="fill:none;stroke:#232f3e;stroke-linejoin:round;stroke-width:2px"/><line x1="11.36" y1="38.91" x2="49.57" y2="38.91" style="fill:none;stroke:#232f3e;stroke-linejoin:round;stroke-width:2px;stroke-dasharray:3.7272703647613525,1.8636351823806763"/><polyline points="50.5 38.91 52.5 38.91 52.5 40.91" style="fill:none;stroke:#232f3e;stroke-linejoin:round;stroke-width:2px"/><line x1="52.5" y1="42.48" x2="52.5" y2="46.43" style="fill:none;stroke:#232f3e;stroke-linejoin:round;stroke-width:2px;stroke-dasharray:3.1562490463256836,1.5781245231628418"/></g></svg>