<svg xmlns="http://www.w3.org/2000/svg" width="60" height="60" viewBox="0 0 60 60"><title>architecture-resource_general_VPC</title><g id="Background"><rect width="60" height="60" style="fill:#fff"/><path d="M59,1V59H1V1H59m1-1H0V60H60V0Z" style="fill:#232f3e"/></g><g id="Art"><text transform="translate(16.88 39.86)" style="font-size:15.9375px;fill:#232f3e;font-family:AmazonEmberCd-Regular, Amazon Ember Cd">VPC</text><path d="M40.8,43.39H15.6c-4.32,0-7.85-2.8-8.08-7,0-.19,0-.38,0-.57,0-4.84,3.27-7,6.18-7.7h0a12.48,12.48,0,0,1-.08-1.38A11.42,11.42,0,0,1,33.2,19.1a13.13,13.13,0,0,1,3.15,5h0C39,20.69,44.81,21.71,45.19,28c2.75.56,7.31,2.25,7.31,7.91,0,6.53-4.92,7.47-8.1,7.47H40.8Z" style="fill:none;stroke:#232f3e;stroke-linejoin:round;stroke-width:2px"/></g></svg>