<svg height="60" viewBox="0 0 60 60" width="60" xmlns="http://www.w3.org/2000/svg"><path d="m0 0h60v60h-60z" fill="#fff"/><path d="m59 1v58h-58v-58zm1-1h-60v60h60z" fill="#232f3e"/><g fill="none" stroke="#232f3e" stroke-linejoin="round" stroke-width="2"><ellipse cx="30.05" cy="11.95" rx="14.02" ry="4.92"/><path d="m16 12v19.64c0 2.72 6.27 4.92 14 4.92s14-2.2 14-4.92v-19.64"/><path d="m16.1 19c0 2.72 6.27 4.92 14 4.92s14-2.2 14-4.92"/><path d="m16.1 25.83c0 2.71 6.27 4.92 14 4.92s14-2.21 14-4.92"/><path d="m15.86 37.08c1.39 2.72 6.28 4.92 14 4.92s13-2.46 14-4.92"/><path d="m15.86 44.27c1.39 2.72 6.28 4.92 14 4.92s13-2.46 14-4.92"/><path d="m16.03 35.16-.02 16.87"/><path d="m44.14 42.66v9.37"/><path d="m25.4 37.03v8.44"/><path d="m34.77 38.91-.01 14.06"/><path d="m44.14 35.16v5.62"/></g></svg>