<svg xmlns="http://www.w3.org/2000/svg" width="60" height="60" viewBox="0 0 60 60"><title>architecture-resource_ELB_Application-Load-Balancer</title><g id="Background"><rect width="60" height="60" style="fill:#fff"/><path d="M59,1V59H1V1H59m1-1H0V60H60V0Z" style="fill:#232f3e"/></g><g id="Art"><circle cx="30" cy="30" r="22.5" style="fill:none;stroke:#232f3e;stroke-linejoin:round;stroke-width:2px"/><rect x="22.5" y="15" width="15" height="8.44" style="fill:none;stroke:#232f3e;stroke-linejoin:round;stroke-width:2px"/><rect x="16.03" y="37.5" width="4.59" height="4.69" style="fill:none;stroke:#232f3e;stroke-linejoin:round;stroke-width:2px"/><rect x="23.44" y="37.5" width="4.69" height="4.69" style="fill:none;stroke:#232f3e;stroke-linejoin:round;stroke-width:2px"/><polyline points="18.75 37.5 18.75 32.81 25.31 32.81 25.31 37.5" style="fill:none;stroke:#232f3e;stroke-linejoin:round;stroke-width:2px"/><rect x="31.88" y="37.5" width="4.69" height="4.69" style="fill:none;stroke:#232f3e;stroke-linejoin:round;stroke-width:2px"/><rect x="39.31" y="37.5" width="4.66" height="4.69" style="fill:none;stroke:#232f3e;stroke-linejoin:round;stroke-width:2px"/><polyline points="34.69 37.5 34.69 32.81 41.25 32.81 41.25 37.5" style="fill:none;stroke:#232f3e;stroke-linejoin:round;stroke-width:2px"/><polyline points="22.5 32.81 22.5 28.13 37.5 28.13 37.5 32.81" style="fill:none;stroke:#232f3e;stroke-linejoin:round;stroke-width:2px"/><line x1="30" y1="23.44" x2="30" y2="28.13" style="fill:none;stroke:#232f3e;stroke-linejoin:round;stroke-width:2px"/></g></svg>