<svg xmlns="http://www.w3.org/2000/svg" width="60" height="60" viewBox="0 0 60 60"><title>architecture-resource_EMR_EMR-engine-MapR-M3</title><g id="Background"><rect width="60" height="60" style="fill:#fff"/><path d="M59,1V59H1V1H59m1-1H0V60H60V0Z" style="fill:#232f3e"/></g><g id="Art"><text transform="translate(15 36.09)" style="font-size:9.375px;fill:#232f3e;font-family:AmazonEmberCd-Bold, Amazon Ember Cd;font-weight:700">MapR M3</text><path d="M52.5,23.68V42a2.07,2.07,0,0,1-2.09,2.06H48A2.07,2.07,0,0,1,45.94,42V40.31H41.25v2.55a4,4,0,0,1-4,4H29.69a4,4,0,0,1-4.07-4v-.67H13.82a1.62,1.62,0,0,1-1.63-1.61v-17a2.07,2.07,0,0,1,2.09-2.06h6.31V19.41a1.61,1.61,0,0,1,1.61-1.6h9.93a1.61,1.61,0,0,1,1.62,1.6v2.08h5.44a2.08,2.08,0,0,1,2.09,2.06v1.84H45.9V23.68A2.08,2.08,0,0,1,48,21.62h2.42A2.07,2.07,0,0,1,52.5,23.68Z" style="fill:none;stroke:#232f3e;stroke-linejoin:round;stroke-width:2px"/><polyline points="7.5 21.56 7.5 32.03 7.5 42.19" style="fill:none;stroke:#232f3e;stroke-linejoin:round;stroke-width:2px"/><line x1="7.5" y1="31.88" x2="12.19" y2="31.88" style="fill:none;stroke:#232f3e;stroke-linejoin:round;stroke-width:2px"/><line x1="20.63" y1="13.13" x2="33.75" y2="13.13" style="fill:none;stroke:#232f3e;stroke-linejoin:round;stroke-width:2px"/><line x1="27.19" y1="13.13" x2="27.19" y2="17.81" style="fill:none;stroke:#232f3e;stroke-linejoin:round;stroke-width:2px"/></g></svg>