<svg xmlns="http://www.w3.org/2000/svg" width="60" height="60" viewBox="0 0 60 60"><title>architecture-resource_Systems-Manager_Inventory</title><g id="Background"><rect width="60" height="60" style="fill:#fff"/><path d="M59,1V59H1V1H59m1-1H0V60H60V0Z" style="fill:#232f3e"/></g><g id="Art"><polygon points="52.5 20.36 52.5 52.5 7.5 52.5 7.5 20.36 30 7.5 52.5 20.36" style="fill:none;stroke:#232f3e;stroke-miterlimit:10;stroke-width:2px"/><rect x="13.13" y="22.5" width="33.75" height="26.25" style="fill:none;stroke:#232f3e;stroke-miterlimit:10;stroke-width:2px"/><rect x="16.88" y="26.25" width="3.75" height="3.75" style="fill:none;stroke:#232f3e;stroke-miterlimit:10;stroke-width:2px"/><rect x="24.38" y="26.25" width="3.75" height="3.75" style="fill:none;stroke:#232f3e;stroke-miterlimit:10;stroke-width:2px"/><rect x="16.88" y="33.75" width="3.75" height="3.75" style="fill:none;stroke:#232f3e;stroke-miterlimit:10;stroke-width:2px"/><rect x="24.38" y="33.75" width="3.75" height="3.75" style="fill:none;stroke:#232f3e;stroke-miterlimit:10;stroke-width:2px"/><rect x="31.88" y="33.75" width="3.75" height="3.75" style="fill:none;stroke:#232f3e;stroke-miterlimit:10;stroke-width:2px"/><rect x="16.88" y="41.25" width="3.75" height="3.75" style="fill:none;stroke:#232f3e;stroke-miterlimit:10;stroke-width:2px"/><rect x="24.38" y="41.25" width="3.75" height="3.75" style="fill:none;stroke:#232f3e;stroke-miterlimit:10;stroke-width:2px"/><rect x="31.88" y="41.25" width="3.75" height="3.75" style="fill:none;stroke:#232f3e;stroke-miterlimit:10;stroke-width:2px"/><rect x="39.38" y="41.25" width="3.75" height="3.75" style="fill:none;stroke:#232f3e;stroke-miterlimit:10;stroke-width:2px"/></g></svg>