<svg xmlns="http://www.w3.org/2000/svg" width="60" height="60" viewBox="0 0 60 60"><title>architecture-resource_ECS_Container-3</title><g id="Background"><rect width="60" height="60" style="fill:#fff"/><path d="M59,1V59H1V1H59m1-1H0V60H60V0Z" style="fill:#232f3e"/></g><g id="Art"><rect x="7.5" y="15.94" width="45" height="28.13" style="fill:none;stroke:#232f3e;stroke-linejoin:round;stroke-width:2px"/><line x1="12.19" y1="19.69" x2="12.19" y2="40.31" style="fill:none;stroke:#232f3e;stroke-linejoin:round;stroke-width:2px"/><line x1="17.81" y1="19.69" x2="17.81" y2="40.31" style="fill:none;stroke:#232f3e;stroke-linejoin:round;stroke-width:2px"/><line x1="42.19" y1="19.69" x2="42.19" y2="40.31" style="fill:none;stroke:#232f3e;stroke-linejoin:round;stroke-width:2px"/><line x1="47.81" y1="19.69" x2="47.81" y2="40.31" style="fill:none;stroke:#232f3e;stroke-linejoin:round;stroke-width:2px"/><polygon points="38.44 30.94 30 30.94 21.56 30.94 21.56 20.63 38.44 20.63 38.44 30.94" style="fill:none;stroke:#232f3e;stroke-linejoin:round;stroke-width:2px"/><rect x="22.5" y="34.69" width="15" height="4.69" style="fill:none;stroke:#232f3e;stroke-linejoin:round;stroke-width:2px"/><rect x="32.81" y="36.56" width="1.87" height="0.94" style="fill:#232f3e"/><line x1="30" y1="34.69" x2="30" y2="30.94" style="fill:none;stroke:#232f3e;stroke-linejoin:round;stroke-width:2px"/></g></svg>