<svg xmlns="http://www.w3.org/2000/svg" width="60" height="60" viewBox="0 0 60 60"><title>architecture-resource_Glacier_Vault</title><g id="Background"><rect width="60" height="60" style="fill:#fff"/><path d="M59,1V59H1V1H59m1-1H0V60H60V0Z" style="fill:#232f3e"/></g><g id="Art"><rect x="12.22" y="19.69" width="35.63" height="32.81" style="fill:none;stroke:#232f3e;stroke-linejoin:round;stroke-width:2px"/><polygon points="47.84 15.94 12.15 15.94 18.5 7.5 41.5 7.5 47.84 15.94" style="fill:none;stroke:#232f3e;stroke-linejoin:round;stroke-width:2px"/><path d="M24.33,28.52a8.11,8.11,0,0,1,11.34,0" style="fill:none;stroke:#232f3e;stroke-linejoin:round;stroke-width:2px"/><path d="M22.23,32a7.91,7.91,0,0,0-.35,2.35A8.12,8.12,0,0,0,28,42.19" style="fill:none;stroke:#232f3e;stroke-linejoin:round;stroke-width:2px"/><path d="M37.77,32a7.91,7.91,0,0,1,.35,2.35A8.12,8.12,0,0,1,32,42.19" style="fill:none;stroke:#232f3e;stroke-linejoin:round;stroke-width:2px"/><line x1="30.03" y1="46.88" x2="30.03" y2="38.44" style="fill:none;stroke:#232f3e;stroke-linejoin:round;stroke-width:2px"/><line x1="41.25" y1="27.63" x2="33.43" y2="32.16" style="fill:none;stroke:#232f3e;stroke-linejoin:round;stroke-width:2px"/><line x1="26.57" y1="32.16" x2="18.75" y2="27.63" style="fill:none;stroke:#232f3e;stroke-linejoin:round;stroke-width:2px"/><circle cx="30" cy="34.33" r="4.06" style="fill:none;stroke:#232f3e;stroke-linejoin:round;stroke-width:2px"/></g></svg>