<svg xmlns="http://www.w3.org/2000/svg" width="60" height="60" viewBox="0 0 60 60"><title>architecture-resource_EC2_Instance-with-CloudWatch</title><g id="Background"><rect width="60" height="60" style="fill:#fff"/><path d="M59,1V59H1V1H59m1-1H0V60H60V0Z" style="fill:#232f3e"/></g><g id="Art"><rect x="7.5" y="7.5" width="45" height="45" rx="5.45" ry="5.45" style="fill:none;stroke:#232f3e;stroke-linejoin:round;stroke-width:2px"/><path d="M26.05,37.45H18.74a3.25,3.25,0,0,1-1.72-.5A6.05,6.05,0,0,1,14.1,31.6,5.46,5.46,0,0,1,18.47,26h0a8.26,8.26,0,0,1-.06-1,8.5,8.5,0,0,1,4.79-7.41,8.05,8.05,0,0,1,9.09,1.8A9.72,9.72,0,0,1,34.54,23a3.31,3.31,0,0,1,2.67-1.4c1.7,0,3.4,1.36,3.6,4.19l0,.07c1.88.32,5.18,1.63,5.18,5.76a5.34,5.34,0,0,1-2.8,5" style="fill:none;stroke:#232f3e;stroke-linejoin:round;stroke-width:2px"/><circle cx="34.75" cy="34.53" r="6.36" style="fill:none;stroke:#232f3e;stroke-linejoin:round;stroke-width:2px"/><path d="M36.18,32a2.9,2.9,0,0,0-3.45,4.67" style="fill:none;stroke:#232f3e;stroke-linejoin:round;stroke-width:2px"/><path d="M40.38,37.5l5,5.06a1.7,1.7,0,0,1,0,2.38h0a1.7,1.7,0,0,1-2.38,0l-5-5" style="fill:none;stroke:#232f3e;stroke-linejoin:round;stroke-width:2px"/></g></svg>