<svg xmlns="http://www.w3.org/2000/svg" width="60" height="60" viewBox="0 0 60 60"><title>architecture-resource_EC2_Rescue</title><g id="Background"><rect width="60" height="60" style="fill:#fff"/><path d="M59,1V59H1V1H59m1-1H0V60H60V0Z" style="fill:#232f3e"/></g><g id="Art"><rect x="7.5" y="7.5" width="45" height="45" rx="5.45" ry="5.45" style="fill:none;stroke:#232f3e;stroke-linejoin:round;stroke-width:2px"/><path d="M15.33,25.76A15.31,15.31,0,0,1,25.76,15.33" style="fill:none;stroke:#232f3e;stroke-miterlimit:10;stroke-width:2px"/><path d="M34.24,44.67A15.31,15.31,0,0,0,44.67,34.24" style="fill:none;stroke:#232f3e;stroke-miterlimit:10;stroke-width:2px"/><path d="M15.33,34.24A15.31,15.31,0,0,0,25.76,44.67" style="fill:none;stroke:#232f3e;stroke-miterlimit:10;stroke-width:2px"/><path d="M34.24,15.33A15.31,15.31,0,0,1,44.67,25.76" style="fill:none;stroke:#232f3e;stroke-miterlimit:10;stroke-width:2px"/><path d="M25.76,22.17a8.86,8.86,0,0,0-3.59,3.59" style="fill:none;stroke:#232f3e;stroke-miterlimit:10;stroke-width:2px"/><path d="M37.83,34.24a8.86,8.86,0,0,1-3.59,3.59" style="fill:none;stroke:#232f3e;stroke-miterlimit:10;stroke-width:2px"/><path d="M25.76,37.83a8.86,8.86,0,0,1-3.59-3.59" style="fill:none;stroke:#232f3e;stroke-miterlimit:10;stroke-width:2px"/><path d="M37.83,25.76a8.86,8.86,0,0,0-3.59-3.59" style="fill:none;stroke:#232f3e;stroke-miterlimit:10;stroke-width:2px"/><rect x="26.25" y="12.19" width="7.5" height="11.25" style="fill:none;stroke:#232f3e;stroke-linejoin:round;stroke-width:2px"/><rect x="26.25" y="36.56" width="7.5" height="11.25" style="fill:none;stroke:#232f3e;stroke-linejoin:round;stroke-width:2px"/><rect x="14.06" y="24.38" width="7.5" height="11.25" transform="translate(-12.19 47.81) rotate(-90)" style="fill:none;stroke:#232f3e;stroke-linejoin:round;stroke-width:2px"/><rect x="38.44" y="24.38" width="7.5" height="11.25" transform="translate(12.19 72.19) rotate(-90)" style="fill:none;stroke:#232f3e;stroke-linejoin:round;stroke-width:2px"/></g></svg>