<svg xmlns="http://www.w3.org/2000/svg" width="60" height="60" viewBox="0 0 60 60"><title>architecture-resource_RDS_SQL-master</title><g id="Background"><rect width="60" height="60" style="fill:#fff"/><path d="M59,1V59H1V1H59m1-1H0V60H60V0Z" style="fill:#232f3e"/></g><g id="Art"><text transform="translate(36.56 47.81)" style="font-size:15px;fill:#232f3e;font-family:AmazonEmber-Medium, Amazon Ember">M</text><path d="M32.81,52.5H12.61A5.11,5.11,0,0,1,7.5,47.39V12.61A5.11,5.11,0,0,1,12.61,7.5H47.39a5.11,5.11,0,0,1,5.11,5.11V26.25" style="fill:none;stroke:#232f3e;stroke-linejoin:round;stroke-width:2px"/><path d="M52.5,30.15v19c0,1.84-4.2,3.33-9.37,3.33S33.75,51,33.75,49.17v-19c0-1.84,4.19-3.33,9.38-3.33S52.5,28.31,52.5,30.15Z" style="fill:none;stroke:#232f3e;stroke-linejoin:round;stroke-width:2px"/><path d="M52.5,29.57c0,1.84-4.2,3.33-9.37,3.33s-9.38-1.49-9.38-3.33" style="fill:none;stroke:#232f3e;stroke-linejoin:round;stroke-width:2px"/></g></svg>