<svg xmlns="http://www.w3.org/2000/svg" width="60" height="60" viewBox="0 0 60 60"><title>architecture-resource_IOT_FireTV-stick</title><g id="Background"><rect width="60" height="60" style="fill:#fff"/><path d="M59,1V59H1V1H59m1-1H0V60H60V0Z" style="fill:#232f3e"/></g><g id="Art"><path d="M7.5,20.63H45.32a1.56,1.56,0,0,1,1.56,1.56V37.82a1.56,1.56,0,0,1-1.56,1.56H7.5a0,0,0,0,1,0,0V20.63A0,0,0,0,1,7.5,20.63Z" style="fill:none;stroke:#232f3e;stroke-linejoin:round;stroke-width:2px"/><rect x="46.88" y="23.44" width="5.63" height="13.13" style="fill:none;stroke:#232f3e;stroke-linejoin:round;stroke-width:2px"/><path d="M37.43,29.19A21.57,21.57,0,0,1,25.28,32.9a22,22,0,0,1-14.83-5.66c-.31-.28,0-.66.33-.44a30,30,0,0,0,14.85,3.93A29.53,29.53,0,0,0,37,28.42C37.51,28.18,38,28.78,37.43,29.19Z" style="fill:#232f3e;fill-rule:evenodd"/><path d="M38.8,27.62c-.42-.53-2.78-.25-3.84-.12-.32,0-.37-.25-.08-.45,1.88-1.32,5-.94,5.32-.5s-.1,3.54-1.86,5c-.27.23-.53.11-.41-.19C38.33,30.38,39.22,28.16,38.8,27.62Z" style="fill:#232f3e;fill-rule:evenodd"/></g></svg>