<svg xmlns="http://www.w3.org/2000/svg" width="60" height="60" viewBox="0 0 60 60"><title>architecture-resource_IOT_Alexa-enabled-device</title><g id="Background"><rect width="60" height="60" style="fill:#fff"/><path d="M59,1V59H1V1H59m1-1H0V60H60V0Z" style="fill:#232f3e"/></g><g id="Art"><line x1="18.75" y1="6.56" x2="18.75" y2="12.19" style="fill:none;stroke:#232f3e;stroke-miterlimit:10;stroke-width:2px"/><line x1="24.38" y1="6.56" x2="24.38" y2="12.19" style="fill:none;stroke:#232f3e;stroke-miterlimit:10;stroke-width:2px"/><line x1="30" y1="6.56" x2="30" y2="12.19" style="fill:none;stroke:#232f3e;stroke-miterlimit:10;stroke-width:2px"/><line x1="35.63" y1="6.56" x2="35.63" y2="12.19" style="fill:none;stroke:#232f3e;stroke-miterlimit:10;stroke-width:2px"/><line x1="41.25" y1="6.56" x2="41.25" y2="12.19" style="fill:none;stroke:#232f3e;stroke-miterlimit:10;stroke-width:2px"/><line x1="18.75" y1="47.81" x2="18.75" y2="53.44" style="fill:none;stroke:#232f3e;stroke-miterlimit:10;stroke-width:2px"/><line x1="24.38" y1="47.81" x2="24.38" y2="53.44" style="fill:none;stroke:#232f3e;stroke-miterlimit:10;stroke-width:2px"/><line x1="12.19" y1="18.75" x2="6.56" y2="18.75" style="fill:none;stroke:#232f3e;stroke-miterlimit:10;stroke-width:2px"/><line x1="12.19" y1="24.38" x2="6.56" y2="24.38" style="fill:none;stroke:#232f3e;stroke-miterlimit:10;stroke-width:2px"/><line x1="12.19" y1="30" x2="6.56" y2="30" style="fill:none;stroke:#232f3e;stroke-miterlimit:10;stroke-width:2px"/><line x1="12.19" y1="35.63" x2="6.56" y2="35.63" style="fill:none;stroke:#232f3e;stroke-miterlimit:10;stroke-width:2px"/><line x1="12.19" y1="41.25" x2="6.56" y2="41.25" style="fill:none;stroke:#232f3e;stroke-miterlimit:10;stroke-width:2px"/><line x1="53.44" y1="18.75" x2="47.81" y2="18.75" style="fill:none;stroke:#232f3e;stroke-miterlimit:10;stroke-width:2px"/><line x1="53.44" y1="24.38" x2="47.81" y2="24.38" style="fill:none;stroke:#232f3e;stroke-miterlimit:10;stroke-width:2px"/><path d="M30,53.44V47.81H14.19a2,2,0,0,1-2-2V14.2a2,2,0,0,1,2-2H45.81a2,2,0,0,1,2,2V30h5.63" style="fill:none;stroke:#232f3e;stroke-miterlimit:10;stroke-width:2px"/><path id="_Path_" data-name="&lt;Path&gt;" d="M40,52.36V50.23a1.91,1.91,0,0,0-1.17-1.74,7.35,7.35,0,1,1,10.21-6.77C49.07,46.48,45.39,51,40,52.36Z" style="fill:none;stroke:#232f3e;stroke-linejoin:round;stroke-width:2px"/><path id="_Compound_Path_" data-name="&lt;Compound Path&gt;" d="M41.72,30.94a10.78,10.78,0,0,0-4.2,20.71,10.78,10.78,0,0,0,9.4-.49,10.78,10.78,0,0,0-5.2-20.22Z" style="fill:none;stroke:#232f3e;stroke-linejoin:round;stroke-width:2px"/></g></svg>