<svg xmlns="http://www.w3.org/2000/svg" width="60" height="60" viewBox="0 0 60 60"><title>architecture-resource_IOT_Servo</title><g id="Background"><rect width="60" height="60" style="fill:#fff"/><path d="M59,1V59H1V1H59m1-1H0V60H60V0Z" style="fill:#232f3e"/></g><g id="Art"><rect x="7.5" y="14.06" width="45" height="31.88" style="fill:none;stroke:#232f3e;stroke-linejoin:round;stroke-width:2px"/><circle cx="17.34" cy="30" r="2.81" style="fill:none;stroke:#232f3e;stroke-linejoin:round;stroke-width:2px"/><polygon points="26.25 32.81 33.75 32.81 30 27.19 26.25 32.81" style="fill:none;stroke:#232f3e;stroke-linejoin:round;stroke-width:2px"/><path d="M46.9,15.41A6.19,6.19,0,0,0,47,14.06H33.59a5.62,5.62,0,0,0,.07.92l-1.72.47,1.17,3.09,1.59-.77a6.55,6.55,0,0,0,1.55,1.65L35.37,21l3,1.37L39,20.65a6.68,6.68,0,0,0,2.27.08l.47,1.7,3.09-1.16L44,19.68a6.47,6.47,0,0,0,1.66-1.56l1.53.88,1.37-3Z" style="fill:none;stroke:#232f3e;stroke-linejoin:round;stroke-width:2px"/><path d="M28.06,44.55l-1.17-3.09-1.59.77a6.55,6.55,0,0,0-1.55-1.65L24.63,39l-3-1.37L21,39.35a6.68,6.68,0,0,0-2.27-.07l-.47-1.71-3.09,1.17L16,40.33a6.55,6.55,0,0,0-1.65,1.55L12.79,41l-1.37,3,1.68.58A6.69,6.69,0,0,0,13,45.94H26.42a5.62,5.62,0,0,0-.07-.92Z" style="fill:none;stroke:#232f3e;stroke-linejoin:round;stroke-width:2px"/></g></svg>