<svg xmlns="http://www.w3.org/2000/svg" width="60" height="60" viewBox="0 0 60 60"><title>architecture-resource_Systems-Manager_State-manager</title><g id="Background"><rect width="60" height="60" style="fill:#fff"/><path d="M59,1V59H1V1H59m1-1H0V60H60V0Z" style="fill:#232f3e"/></g><g id="Art"><rect x="7.5" y="7.5" width="45" height="45" rx="5.45" ry="5.45" style="fill:none;stroke:#232f3e;stroke-linejoin:round;stroke-width:2px"/><circle cx="46.41" cy="14.53" r="2.34" style="fill:none;stroke:#232f3e;stroke-linejoin:round;stroke-width:2px"/><circle cx="37.97" cy="14.53" r="2.34" style="fill:none;stroke:#232f3e;stroke-linejoin:round;stroke-width:2px"/><rect x="12.19" y="13.13" width="19.69" height="3.75" style="fill:none;stroke:#232f3e;stroke-linejoin:round;stroke-width:2px"/><rect x="10.31" y="35.63" width="11.25" height="12.19" style="fill:none;stroke:#232f3e;stroke-linejoin:round;stroke-width:2px"/><rect x="24.38" y="24.38" width="11.25" height="23.44" style="fill:none;stroke:#232f3e;stroke-linejoin:round;stroke-width:2px"/><rect x="38.44" y="28.13" width="11.25" height="19.69" style="fill:none;stroke:#232f3e;stroke-linejoin:round;stroke-width:2px"/><path d="M18.28,41.72a2.35,2.35,0,1,1-2.34-2.34A2.34,2.34,0,0,1,18.28,41.72Z" style="fill:none;stroke:#232f3e;stroke-linejoin:round;stroke-width:2px"/><polygon points="27.19 44.06 32.81 44.06 30 39.38 27.19 44.06" style="fill:none;stroke:#232f3e;stroke-linejoin:round;stroke-width:2px"/><rect x="41.25" y="38.44" width="5.63" height="5.63" style="fill:none;stroke:#232f3e;stroke-linejoin:round;stroke-width:2px"/></g></svg>