<svg xmlns="http://www.w3.org/2000/svg" width="60" height="60" viewBox="0 0 60 60"><title>architecture-resource_Cloudwatch_Rule</title><g id="Background"><rect width="60" height="60" style="fill:#fff"/><path d="M59,1V59H1V1H59m1-1H0V60H60V0Z" style="fill:#232f3e"/></g><g id="Art"><polygon points="21.57 10.77 18.73 7.97 7.57 7.97 7.5 19.21 18.72 19.23 21.58 22.05 52.51 22 52.5 10.77 21.57 10.77" style="fill:none;stroke:#232f3e;stroke-miterlimit:10;stroke-width:2px"/><polygon points="21.55 25.79 18.78 22.95 7.49 22.95 7.49 34.22 18.72 34.22 21.57 37.03 52.5 37.02 52.49 25.8 21.55 25.79" style="fill:none;stroke:#232f3e;stroke-miterlimit:10;stroke-width:2px"/><polygon points="21.57 40.78 18.66 37.95 7.49 37.95 7.49 49.22 18.74 49.21 21.59 51.98 52.5 52.03 52.5 40.78 21.57 40.78" style="fill:none;stroke:#232f3e;stroke-miterlimit:10;stroke-width:2px"/><polyline points="47.81 28.63 42.2 33.32 40.31 31.43" style="fill:none;stroke:#232f3e;stroke-miterlimit:10;stroke-width:2px"/><polyline points="47.56 43.58 41.95 48.27 40.05 46.38" style="fill:none;stroke:#232f3e;stroke-miterlimit:10;stroke-width:2px"/><line x1="42.18" y1="13.61" x2="47.77" y2="19.22" style="fill:none;stroke:#232f3e;stroke-miterlimit:10;stroke-width:2px"/><line x1="47.77" y1="13.61" x2="42.17" y2="19.21" style="fill:none;stroke:#232f3e;stroke-miterlimit:10;stroke-width:2px"/></g></svg>