<svg xmlns="http://www.w3.org/2000/svg" width="60" height="60" viewBox="0 0 60 60"><title>architecture-resource_IOT_Thing-Lightbulb</title><g id="Background"><rect width="60" height="60" style="fill:#fff"/><path d="M59,1V59H1V1H59m1-1H0V60H60V0Z" style="fill:#232f3e"/></g><g id="Art"><rect x="13.3" y="13.32" width="33.4" height="33.38" rx="2.13" ry="2.13" style="fill:none;stroke:#232f3e;stroke-miterlimit:10;stroke-width:2px"/><line x1="19.45" y1="8.03" x2="19.45" y2="13.3" style="fill:none;stroke:#232f3e;stroke-miterlimit:10;stroke-width:2px"/><line x1="24.73" y1="8.03" x2="24.73" y2="13.3" style="fill:none;stroke:#232f3e;stroke-miterlimit:10;stroke-width:2px"/><line x1="30" y1="8.03" x2="30" y2="13.3" style="fill:none;stroke:#232f3e;stroke-miterlimit:10;stroke-width:2px"/><line x1="35.27" y1="8.03" x2="35.27" y2="13.3" style="fill:none;stroke:#232f3e;stroke-miterlimit:10;stroke-width:2px"/><line x1="40.55" y1="8.03" x2="40.55" y2="13.3" style="fill:none;stroke:#232f3e;stroke-miterlimit:10;stroke-width:2px"/><line x1="19.45" y1="46.7" x2="19.45" y2="51.97" style="fill:none;stroke:#232f3e;stroke-miterlimit:10;stroke-width:2px"/><line x1="24.73" y1="46.7" x2="24.73" y2="51.97" style="fill:none;stroke:#232f3e;stroke-miterlimit:10;stroke-width:2px"/><line x1="30" y1="46.7" x2="30" y2="51.97" style="fill:none;stroke:#232f3e;stroke-miterlimit:10;stroke-width:2px"/><line x1="35.27" y1="46.7" x2="35.27" y2="51.97" style="fill:none;stroke:#232f3e;stroke-miterlimit:10;stroke-width:2px"/><line x1="40.55" y1="46.7" x2="40.55" y2="51.97" style="fill:none;stroke:#232f3e;stroke-miterlimit:10;stroke-width:2px"/><line x1="13.3" y1="19.45" x2="8.03" y2="19.45" style="fill:none;stroke:#232f3e;stroke-miterlimit:10;stroke-width:2px"/><line x1="13.3" y1="24.73" x2="8.03" y2="24.73" style="fill:none;stroke:#232f3e;stroke-miterlimit:10;stroke-width:2px"/><line x1="13.3" y1="30" x2="8.03" y2="30" style="fill:none;stroke:#232f3e;stroke-miterlimit:10;stroke-width:2px"/><line x1="13.3" y1="35.27" x2="8.03" y2="35.27" style="fill:none;stroke:#232f3e;stroke-miterlimit:10;stroke-width:2px"/><line x1="13.3" y1="40.55" x2="8.03" y2="40.55" style="fill:none;stroke:#232f3e;stroke-miterlimit:10;stroke-width:2px"/><line x1="51.97" y1="19.45" x2="46.7" y2="19.45" style="fill:none;stroke:#232f3e;stroke-miterlimit:10;stroke-width:2px"/><line x1="51.97" y1="24.73" x2="46.7" y2="24.73" style="fill:none;stroke:#232f3e;stroke-miterlimit:10;stroke-width:2px"/><line x1="51.97" y1="30" x2="46.7" y2="30" style="fill:none;stroke:#232f3e;stroke-miterlimit:10;stroke-width:2px"/><line x1="51.97" y1="35.27" x2="46.7" y2="35.27" style="fill:none;stroke:#232f3e;stroke-miterlimit:10;stroke-width:2px"/><line x1="51.97" y1="40.55" x2="46.7" y2="40.55" style="fill:none;stroke:#232f3e;stroke-miterlimit:10;stroke-width:2px"/><path d="M38.35,26.24a8.35,8.35,0,1,0-11.87,7.52V37h7V33.76A8.28,8.28,0,0,0,38.35,26.24Z" style="fill:none;stroke:#232f3e;stroke-linejoin:round;stroke-width:2px"/><line x1="30" y1="37.03" x2="30" y2="29.12" style="fill:none;stroke:#232f3e;stroke-linejoin:round;stroke-width:2px"/><line x1="28.24" y1="29.12" x2="31.76" y2="29.12" style="fill:none;stroke:#232f3e;stroke-linejoin:round;stroke-width:2px"/><path d="M33,40.77v-.31c0-.44-.17-.79-.37-.79H27.39c-.21,0-.38.35-.38.79v.31a1.2,1.2,0,0,0,.18.66,1.14,1.14,0,0,0-.18.65v.31c0,.44.17.79.38.79h5.19c.2,0,.37-.35.37-.79v-.31a1.15,1.15,0,0,0-.17-.65A1.21,1.21,0,0,0,33,40.77Z" style="fill:none;stroke:#232f3e;stroke-linejoin:round;stroke-width:2px"/></g></svg>