<svg xmlns="http://www.w3.org/2000/svg" width="60" height="60" viewBox="0 0 60 60"><title>architecture-resource_IOT_Thing-Car</title><g id="Background"><rect width="60" height="60" style="fill:#fff"/><path d="M59,1V59H1V1H59m1-1H0V60H60V0Z" style="fill:#232f3e"/></g><g id="Art"><rect x="13.3" y="13.32" width="33.4" height="33.38" rx="2.13" ry="2.13" style="fill:none;stroke:#232f3e;stroke-miterlimit:10;stroke-width:2px"/><line x1="19.45" y1="8.03" x2="19.45" y2="13.3" style="fill:none;stroke:#232f3e;stroke-miterlimit:10;stroke-width:2px"/><line x1="24.73" y1="8.03" x2="24.73" y2="13.3" style="fill:none;stroke:#232f3e;stroke-miterlimit:10;stroke-width:2px"/><line x1="30" y1="8.03" x2="30" y2="13.3" style="fill:none;stroke:#232f3e;stroke-miterlimit:10;stroke-width:2px"/><line x1="35.27" y1="8.03" x2="35.27" y2="13.3" style="fill:none;stroke:#232f3e;stroke-miterlimit:10;stroke-width:2px"/><line x1="40.55" y1="8.03" x2="40.55" y2="13.3" style="fill:none;stroke:#232f3e;stroke-miterlimit:10;stroke-width:2px"/><line x1="19.45" y1="46.7" x2="19.45" y2="51.97" style="fill:none;stroke:#232f3e;stroke-miterlimit:10;stroke-width:2px"/><line x1="24.73" y1="46.7" x2="24.73" y2="51.97" style="fill:none;stroke:#232f3e;stroke-miterlimit:10;stroke-width:2px"/><line x1="30" y1="46.7" x2="30" y2="51.97" style="fill:none;stroke:#232f3e;stroke-miterlimit:10;stroke-width:2px"/><line x1="35.27" y1="46.7" x2="35.27" y2="51.97" style="fill:none;stroke:#232f3e;stroke-miterlimit:10;stroke-width:2px"/><line x1="40.55" y1="46.7" x2="40.55" y2="51.97" style="fill:none;stroke:#232f3e;stroke-miterlimit:10;stroke-width:2px"/><line x1="13.3" y1="19.45" x2="8.03" y2="19.45" style="fill:none;stroke:#232f3e;stroke-miterlimit:10;stroke-width:2px"/><line x1="13.3" y1="24.73" x2="8.03" y2="24.73" style="fill:none;stroke:#232f3e;stroke-miterlimit:10;stroke-width:2px"/><line x1="13.3" y1="30" x2="8.03" y2="30" style="fill:none;stroke:#232f3e;stroke-miterlimit:10;stroke-width:2px"/><line x1="13.3" y1="35.27" x2="8.03" y2="35.27" style="fill:none;stroke:#232f3e;stroke-miterlimit:10;stroke-width:2px"/><line x1="13.3" y1="40.55" x2="8.03" y2="40.55" style="fill:none;stroke:#232f3e;stroke-miterlimit:10;stroke-width:2px"/><line x1="51.97" y1="19.45" x2="46.7" y2="19.45" style="fill:none;stroke:#232f3e;stroke-miterlimit:10;stroke-width:2px"/><line x1="51.97" y1="24.73" x2="46.7" y2="24.73" style="fill:none;stroke:#232f3e;stroke-miterlimit:10;stroke-width:2px"/><line x1="51.97" y1="30" x2="46.7" y2="30" style="fill:none;stroke:#232f3e;stroke-miterlimit:10;stroke-width:2px"/><line x1="51.97" y1="35.27" x2="46.7" y2="35.27" style="fill:none;stroke:#232f3e;stroke-miterlimit:10;stroke-width:2px"/><line x1="51.97" y1="40.55" x2="46.7" y2="40.55" style="fill:none;stroke:#232f3e;stroke-miterlimit:10;stroke-width:2px"/><line x1="35.65" y1="35.27" x2="25.77" y2="35.27" style="fill:none;stroke:#232f3e;stroke-linejoin:round;stroke-width:2px"/><path d="M20.17,35.27h-2a.5.5,0,0,1-.5-.51V31.38a1.25,1.25,0,0,1,1.11-1.27l6.25-2a.69.69,0,0,0,.46-.56l1.27-3.85A1.12,1.12,0,0,1,27.85,23H37.3a1.41,1.41,0,0,1,1.25.75l2.35,5.07c2.16.43,3.16,1.87,3.16,4.08v1.89a.5.5,0,0,1-.49.51H41.35" style="fill:none;stroke:#232f3e;stroke-linejoin:round;stroke-width:2px"/><circle cx="22.97" cy="35.27" r="2.8" style="fill:none;stroke:#232f3e;stroke-linejoin:round;stroke-width:2px"/><circle cx="38.45" cy="35.27" r="2.8" style="fill:none;stroke:#232f3e;stroke-linejoin:round;stroke-width:2px"/><line x1="15.06" y1="34.39" x2="17.7" y2="34.39" style="fill:none;stroke:#232f3e;stroke-linejoin:round;stroke-width:2px"/></g></svg>