<svg xmlns="http://www.w3.org/2000/svg" width="60" height="60" viewBox="0 0 60 60"><title>architecture-resource_IOT_Certificate-manager</title><g id="Background"><rect width="60" height="60" style="fill:#fff"/><path d="M59,1V59H1V1H59m1-1H0V60H60V0Z" style="fill:#232f3e"/></g><g id="Art"><path d="M21.41,30.84a6.5,6.5,0,0,0,6.24-4.68H40l1.71-1.88-2.28-1.87H37.67L36,20.57l-1.71,1.84H33.1l-1.71-1.84-1.71,1.84h-2a6.54,6.54,0,1,0-6.24,8.43Zm-2-4.56a2,2,0,1,1,2-2A2,2,0,0,1,19.41,26.28Z" style="fill:none;stroke:#232f3e;stroke-linejoin:round;stroke-width:2px"/><circle cx="27.97" cy="23.81" r="17.34" style="fill:none;stroke:#232f3e;stroke-linejoin:round;stroke-width:2px"/><polyline points="35.47 41.16 35.47 51.94 27.97 46.78 20.47 51.94 20.47 41.16" style="fill:none;stroke:#232f3e;stroke-linejoin:round;stroke-width:2px"/></g></svg>