<svg xmlns="http://www.w3.org/2000/svg" width="60" height="60" viewBox="0 0 60 60"><title>architecture-resource_general_Tape-storage</title><g id="Background"><rect width="60" height="60" style="fill:#fff"/><path d="M59,1V59H1V1H59m1-1H0V60H60V0Z" style="fill:#232f3e"/></g><g id="Art"><line x1="22.5" y1="39.19" x2="37.5" y2="39.19" style="fill:none;stroke:#232f3e;stroke-linejoin:round;stroke-width:2px"/><circle cx="17.81" cy="30" r="10.31" style="fill:none;stroke:#232f3e;stroke-linejoin:round;stroke-width:2px"/><path d="M19.8,30a2,2,0,1,1-2-2A2,2,0,0,1,19.8,30Z" style="fill:none;stroke:#232f3e;stroke-linejoin:round;stroke-width:2px"/><line x1="13.69" y1="22.38" x2="15.65" y2="25.83" style="fill:none;stroke:#232f3e;stroke-linejoin:round;stroke-width:2px"/><line x1="13.77" y1="36.98" x2="15.78" y2="33.56" style="fill:none;stroke:#232f3e;stroke-linejoin:round;stroke-width:2px"/><line x1="26.34" y1="29.41" x2="22.37" y2="29.41" style="fill:none;stroke:#232f3e;stroke-linejoin:round;stroke-width:2px"/><circle cx="42.19" cy="30" r="10.31" style="fill:none;stroke:#232f3e;stroke-linejoin:round;stroke-width:2px"/><path d="M44.17,30a2,2,0,1,1-2-2A2,2,0,0,1,44.17,30Z" style="fill:none;stroke:#232f3e;stroke-linejoin:round;stroke-width:2px"/><line x1="38.07" y1="22.38" x2="40.03" y2="25.83" style="fill:none;stroke:#232f3e;stroke-linejoin:round;stroke-width:2px"/><line x1="38.15" y1="36.98" x2="40.15" y2="33.56" style="fill:none;stroke:#232f3e;stroke-linejoin:round;stroke-width:2px"/><line x1="50.72" y1="29.41" x2="46.75" y2="29.41" style="fill:none;stroke:#232f3e;stroke-linejoin:round;stroke-width:2px"/></g></svg>