<svg xmlns="http://www.w3.org/2000/svg" width="60" height="60" viewBox="0 0 60 60"><title>architecture-resource_Opsworks_Permissions</title><g id="Background"><rect width="60" height="60" style="fill:#fff"/><path d="M59,1V59H1V1H59m1-1H0V60H60V0Z" style="fill:#232f3e"/></g><g id="Art"><rect x="15" y="28.6" width="29.99" height="23.43" style="fill:none;stroke:#232f3e;stroke-linejoin:round;stroke-width:2px"/><path d="M33.09,36.58A3.09,3.09,0,1,1,30,33.49,3.09,3.09,0,0,1,33.09,36.58Z" style="fill:none;stroke:#232f3e;stroke-linejoin:round;stroke-width:2px"/><line x1="30" y1="39.78" x2="30" y2="45.99" style="fill:#6b6b6b;stroke:#232f3e;stroke-linejoin:round;stroke-width:2px"/><path d="M39.31,28.14V17.28A9.28,9.28,0,0,0,30.05,8h0a9.29,9.29,0,0,0-9.36,9.22l0,10.92" style="fill:none;stroke:#232f3e;stroke-linejoin:round;stroke-width:2px"/></g></svg>