<svg xmlns="http://www.w3.org/2000/svg" width="60" height="60" viewBox="0 0 60 60"><title>architecture-resource_RDS_PostgreSQL-instance</title><g id="Background"><rect width="60" height="60" style="fill:#fff"/><path d="M59,1V59H1V1H59m1-1H0V60H60V0Z" style="fill:#232f3e"/></g><g id="Art"><path d="M10.86,18.1v2.53H10v-6.5h1.9a1.65,1.65,0,0,1,.92.25,1.6,1.6,0,0,1,.61.7,2.44,2.44,0,0,1,.21,1,2.09,2.09,0,0,1-.48,1.44,1.61,1.61,0,0,1-1.26.54Zm0-.72h.92a.79.79,0,0,0,.69-.34,1.48,1.48,0,0,0,.25-.92,1.52,1.52,0,0,0-.25-.94.8.8,0,0,0-.69-.33h-.92Z" style="fill:#232f3e"/><path d="M16.19,20.75a1.58,1.58,0,0,1-1.36-.65,3.08,3.08,0,0,1-.48-1.86,3,3,0,0,1,.48-1.84,1.75,1.75,0,0,1,2.72,0A3,3,0,0,1,18,18.24a3.08,3.08,0,0,1-.48,1.86A1.58,1.58,0,0,1,16.19,20.75Zm0-.72a.75.75,0,0,0,.72-.43,2.92,2.92,0,0,0,.24-1.36,2.9,2.9,0,0,0-.24-1.35.77.77,0,0,0-.72-.43.78.78,0,0,0-.72.43,2.9,2.9,0,0,0-.24,1.35,2.92,2.92,0,0,0,.24,1.36A.76.76,0,0,0,16.19,20Z" style="fill:#232f3e"/><path d="M20.74,19.35c0-.27-.17-.49-.52-.66l-.61-.3a1.35,1.35,0,0,1-.84-1.29,1.28,1.28,0,0,1,.39-1,1.43,1.43,0,0,1,1-.38,2.31,2.31,0,0,1,1.14.3v.64a2.53,2.53,0,0,0-1.06-.25.77.77,0,0,0-.51.17.6.6,0,0,0-.18.46.65.65,0,0,0,.12.4,1.28,1.28,0,0,0,.43.3l.57.29a1.54,1.54,0,0,1,.64.51,1.26,1.26,0,0,1,.2.74,1.38,1.38,0,0,1-.4,1,1.46,1.46,0,0,1-1.08.4,2.54,2.54,0,0,1-1.31-.35v-.64a3.41,3.41,0,0,0,1.27.29.77.77,0,0,0,.54-.18A.72.72,0,0,0,20.74,19.35Z" style="fill:#232f3e"/><path d="M24.51,20.51a2.1,2.1,0,0,1-.86.17,1,1,0,0,1-.85-.32,1.43,1.43,0,0,1-.28-1v-2.8h-.67V16l.71-.11.13-1.35h.71v1.33h1.09v.71H23.4v2.73a.78.78,0,0,0,.12.5.49.49,0,0,0,.41.15,1.9,1.9,0,0,0,.58-.09Z" style="fill:#232f3e"/><path d="M27.76,20.05a1.56,1.56,0,0,1-1.08.48,1.24,1.24,0,0,1-.82-.29,1.81,1.81,0,0,1-.53-.83,3.53,3.53,0,0,1-.19-1.23,3.13,3.13,0,0,1,.43-1.77,1.28,1.28,0,0,1,1.13-.66,1.64,1.64,0,0,1,1.13.51l.07-.39h.73v4.48c0,1.55-.62,2.32-1.86,2.32a2.61,2.61,0,0,1-1.32-.35v-.67a3.38,3.38,0,0,0,1.24.29.94.94,0,0,0,.83-.36,2.19,2.19,0,0,0,.24-1.18Zm-.82-.24a1.31,1.31,0,0,0,.82-.36V16.81a1.39,1.39,0,0,0-.86-.34.7.7,0,0,0-.66.41A2.86,2.86,0,0,0,26,18.15a2.67,2.67,0,0,0,.23,1.25A.74.74,0,0,0,26.94,19.81Z" style="fill:#232f3e"/><path d="M29.89,20.63V15.87h.73l.08.57a1.84,1.84,0,0,1,.53-.46,1.33,1.33,0,0,1,.63-.15,1.63,1.63,0,0,1,.31,0v.82a2.62,2.62,0,0,0-.43,0,1.54,1.54,0,0,0-1,.35v3.64Z" style="fill:#232f3e"/><path d="M33.41,18.44a2.11,2.11,0,0,0,.3,1.22,1.06,1.06,0,0,0,.91.37,2.79,2.79,0,0,0,1.18-.29v.65a2.43,2.43,0,0,1-1.33.36,1.66,1.66,0,0,1-1.42-.62,3.06,3.06,0,0,1-.47-1.89,3.07,3.07,0,0,1,.47-1.85,1.56,1.56,0,0,1,1.34-.65,1.33,1.33,0,0,1,1.12.49,2.3,2.3,0,0,1,.38,1.43,3.81,3.81,0,0,1-.08.78Zm.94-2a.76.76,0,0,0-.67.36,2.08,2.08,0,0,0-.27,1.06H35.1v-.12a.57.57,0,0,0,0-.13,1.61,1.61,0,0,0-.19-.89A.62.62,0,0,0,34.35,16.42Z" style="fill:#232f3e"/><path d="M38,17.53A2.31,2.31,0,0,1,37,16.8a1.93,1.93,0,0,1,.22-2.3,1.75,1.75,0,0,1,1.3-.49,3.67,3.67,0,0,1,1.41.33v.74a3.16,3.16,0,0,0-1.35-.3.94.94,0,0,0-.69.26.92.92,0,0,0-.26.7,1,1,0,0,0,.18.59,1.64,1.64,0,0,0,.59.46l.66.34a2.25,2.25,0,0,1,.9.73,1.76,1.76,0,0,1,.28,1,1.83,1.83,0,0,1-.53,1.38,2,2,0,0,1-1.43.52,3.85,3.85,0,0,1-.83-.1,2.22,2.22,0,0,1-.68-.29v-.72A3.76,3.76,0,0,0,38.3,20a1.09,1.09,0,0,0,.78-.28,1.06,1.06,0,0,0,.29-.78,1.18,1.18,0,0,0-.75-1.06Z" style="fill:#232f3e"/><path d="M41.17,17.38a4.17,4.17,0,0,1,.65-2.49,2.3,2.3,0,0,1,3.62,0,4.17,4.17,0,0,1,.65,2.49,4.61,4.61,0,0,1-.45,2.18,2.11,2.11,0,0,1-1.29,1.1,2.85,2.85,0,0,0,.78.46,3.52,3.52,0,0,0,.89.22v.79a3.7,3.7,0,0,1-1.35-.44,4.79,4.79,0,0,1-1.17-.92,2.27,2.27,0,0,1-1.27-.45,2.56,2.56,0,0,1-.79-1.17A5.23,5.23,0,0,1,41.17,17.38Zm.93,0a3.94,3.94,0,0,0,.39,2,1.31,1.31,0,0,0,2.28,0,3.94,3.94,0,0,0,.39-2,3.9,3.9,0,0,0-.39-1.95,1.31,1.31,0,0,0-2.28,0A3.9,3.9,0,0,0,42.1,17.38Z" style="fill:#232f3e"/><path d="M47.34,20.63v-6.5h.91v5.74h2.37v.76Z" style="fill:#232f3e"/><rect x="7.5" y="7.5" width="45" height="45" rx="5.45" ry="5.45" style="fill:none;stroke:#232f3e;stroke-linejoin:round;stroke-width:2px"/></g></svg>