<svg xmlns="http://www.w3.org/2000/svg" width="60" height="60" viewBox="0 0 60 60"><title>architecture-resource_SWF_Worker</title><g id="Background"><rect width="60" height="60" style="fill:#fff"/><path d="M59,1V59H1V1H59m1-1H0V60H60V0Z" style="fill:#232f3e"/></g><g id="Art"><path d="M44.86,26.63a15.45,15.45,0,0,0-2-4.75l2.21-2-5-5-2,2.22a15.06,15.06,0,0,0-4.74-2l.17-3H26.46l.17,3a15.21,15.21,0,0,0-4.75,2l-2-2.22-5,5,2.22,2a15,15,0,0,0-2,4.75l-3-.17v7.08l3-.17a15.26,15.26,0,0,0,2,4.76l-2.21,2,5,5,2-2.21a15,15,0,0,0,4.75,2l-.17,3h7.08l-.17-2.94a15.4,15.4,0,0,0,4.76-2l2,2.2,5-5-2.21-2a15.21,15.21,0,0,0,2-4.75l3,.17V26.46Z" style="fill:none;stroke:#232f3e;stroke-linejoin:round;stroke-width:2px"/><rect x="7.5" y="7.5" width="45" height="45" style="fill:none;stroke:#232f3e;stroke-linejoin:round;stroke-width:2px"/><circle cx="30" cy="30" r="9.38" style="fill:none;stroke:#232f3e;stroke-linejoin:round;stroke-width:2px"/><circle cx="30" cy="30" r="4.69" style="fill:none;stroke:#232f3e;stroke-linejoin:round;stroke-width:2px"/></g></svg>