<svg xmlns="http://www.w3.org/2000/svg" width="60" height="60" viewBox="0 0 60 60"><title>architecture-resource_SNS_Email-notification</title><g id="Background"><rect width="60" height="60" style="fill:#fff"/><path d="M59,1V59H1V1H59m1-1H0V60H60V0Z" style="fill:#232f3e"/></g><g id="Art"><polyline points="21.56 14.06 52.5 14.06 52.5 24.38 7.5 24.38 7.5 19.69" style="fill:none;stroke:#232f3e;stroke-linejoin:round;stroke-width:2px"/><polyline points="52.5 36.44 52.5 38.44 50.5 38.44" style="fill:none;stroke:#232f3e;stroke-linejoin:round;stroke-width:2px"/><line x1="48.64" y1="38.44" x2="10.43" y2="38.44" style="fill:none;stroke:#232f3e;stroke-linejoin:round;stroke-width:2px;stroke-dasharray:3.7272703647613525,1.8636351823806763"/><polyline points="9.5 38.44 7.5 38.44 7.5 36.44" style="fill:none;stroke:#232f3e;stroke-linejoin:round;stroke-width:2px"/><line x1="7.5" y1="34.86" x2="7.5" y2="30.91" style="fill:none;stroke:#232f3e;stroke-linejoin:round;stroke-width:2px;stroke-dasharray:3.156251907348633,1.5781259536743164"/><polyline points="7.5 30.13 7.5 28.13 9.5 28.13" style="fill:none;stroke:#232f3e;stroke-linejoin:round;stroke-width:2px"/><line x1="11.36" y1="28.13" x2="49.57" y2="28.13" style="fill:none;stroke:#232f3e;stroke-linejoin:round;stroke-width:2px;stroke-dasharray:3.7272703647613525,1.8636351823806763"/><polyline points="50.5 28.13 52.5 28.13 52.5 30.13" style="fill:none;stroke:#232f3e;stroke-linejoin:round;stroke-width:2px"/><line x1="52.5" y1="31.7" x2="52.5" y2="35.65" style="fill:none;stroke:#232f3e;stroke-linejoin:round;stroke-width:2px;stroke-dasharray:3.156251907348633,1.5781259536743164"/><polyline points="52.5 50.5 52.5 52.5 50.5 52.5" style="fill:none;stroke:#232f3e;stroke-linejoin:round;stroke-width:2px"/><line x1="48.64" y1="52.5" x2="10.43" y2="52.5" style="fill:none;stroke:#232f3e;stroke-linejoin:round;stroke-width:2px;stroke-dasharray:3.7272703647613525,1.8636351823806763"/><polyline points="9.5 52.5 7.5 52.5 7.5 50.5" style="fill:none;stroke:#232f3e;stroke-linejoin:round;stroke-width:2px"/><line x1="7.5" y1="48.92" x2="7.5" y2="44.98" style="fill:none;stroke:#232f3e;stroke-linejoin:round;stroke-width:2px;stroke-dasharray:3.1562490463256836,1.5781245231628418"/><polyline points="7.5 44.19 7.5 42.19 9.5 42.19" style="fill:none;stroke:#232f3e;stroke-linejoin:round;stroke-width:2px"/><line x1="11.36" y1="42.19" x2="49.57" y2="42.19" style="fill:none;stroke:#232f3e;stroke-linejoin:round;stroke-width:2px;stroke-dasharray:3.7272703647613525,1.8636351823806763"/><polyline points="50.5 42.19 52.5 42.19 52.5 44.19" style="fill:none;stroke:#232f3e;stroke-linejoin:round;stroke-width:2px"/><line x1="52.5" y1="45.77" x2="52.5" y2="49.71" style="fill:none;stroke:#232f3e;stroke-linejoin:round;stroke-width:2px;stroke-dasharray:3.1562490463256836,1.5781245231628418"/><text transform="translate(22.03 22.59)" style="font-size:9.375px;fill:#232f3e;font-family:AmazonEmber-Regular, Amazon Ember">EMAIL</text><circle cx="13.13" cy="13.13" r="5.63" style="fill:none;stroke:#232f3e;stroke-miterlimit:10;stroke-width:2px"/></g></svg>