<svg xmlns="http://www.w3.org/2000/svg" width="60" height="60" viewBox="0 0 60 60"><title>architecture-resource_IOT_Shadow</title><g id="Background"><rect width="60" height="60" style="fill:#fff"/><path d="M59,1V59H1V1H59m1-1H0V60H60V0Z" style="fill:#232f3e"/></g><g id="Art"><path d="M13.68,20.39A13.37,13.37,0,0,1,13.6,19c0-4.1,2.78-8.81,6.76-10.49A11.33,11.33,0,0,1,33.2,11a13.63,13.63,0,0,1,3.15,5.15h0c2.61-3.51,8.42-2.41,8.85,4v.09c2.65.45,7.31,2.32,7.31,8.16C52.5,36,45,36.56,45,36.56l-29.18,0A8.22,8.22,0,0,1,7.52,29c0-.21,0-.43,0-.66a7.75,7.75,0,0,1,6.18-7.95Z" style="fill:none;stroke:#232f3e;stroke-linejoin:round;stroke-width:2px"/><rect x="14.06" y="23.44" width="30.94" height="9.38" style="fill:none;stroke:#232f3e;stroke-linejoin:round;stroke-width:2px"/><circle cx="18.75" cy="28.13" r="2.01" style="fill:none;stroke:#232f3e;stroke-linejoin:round;stroke-width:2px"/><polygon points="26.25 30 32.5 30 29.38 26.25 26.25 30" style="fill:none;stroke:#232f3e;stroke-linejoin:round;stroke-width:2px"/><rect x="38.43" y="26.31" width="3.76" height="3.76" style="fill:none;stroke:#232f3e;stroke-linejoin:round;stroke-width:2px"/><rect x="9.38" y="40.31" width="41.25" height="12.19" style="fill:none;stroke:#232f3e;stroke-linejoin:round;stroke-width:2px"/><circle cx="16.41" cy="46.41" r="2.53" style="fill:none;stroke:#232f3e;stroke-linejoin:round;stroke-width:2px"/><polygon points="26.25 48.68 33.75 48.68 30 43.6 26.25 48.68" style="fill:none;stroke:#232f3e;stroke-linejoin:round;stroke-width:2px"/><rect x="41.25" y="44.06" width="4.69" height="4.69" style="fill:none;stroke:#232f3e;stroke-linejoin:round;stroke-width:2px"/></g></svg>