<svg xmlns="http://www.w3.org/2000/svg" width="60" height="60" viewBox="0 0 60 60"><title>architecture-resource_VPC_Flow-Logs</title><g id="Background"><rect width="60" height="60" style="fill:#fff"/><path d="M59,1V59H1V1H59m1-1H0V60H60V0Z" style="fill:#232f3e"/></g><g id="Art"><circle cx="30" cy="30" r="22.5" style="fill:none;stroke:#232f3e;stroke-linejoin:round;stroke-width:2px"/><polyline points="19.69 27.19 19.69 15.94 39.38 15.94 39.38 27.19" style="fill:none;stroke:#232f3e;stroke-linejoin:round;stroke-width:2px"/><polyline points="39.38 32.81 39.38 44.06 19.69 44.06 19.69 32.81" style="fill:none;stroke:#232f3e;stroke-linejoin:round;stroke-width:2px"/><line x1="22.5" y1="20.63" x2="36.56" y2="20.63" style="fill:none;stroke:#232f3e;stroke-linejoin:round;stroke-width:2px"/><line x1="22.5" y1="25.31" x2="36.56" y2="25.31" style="fill:none;stroke:#232f3e;stroke-linejoin:round;stroke-width:2px"/><line x1="22.5" y1="34.69" x2="36.56" y2="34.69" style="fill:none;stroke:#232f3e;stroke-linejoin:round;stroke-width:2px"/><line x1="22.5" y1="39.38" x2="36.56" y2="39.38" style="fill:none;stroke:#232f3e;stroke-linejoin:round;stroke-width:2px"/><line x1="12.19" y1="30" x2="48.75" y2="30" style="fill:none;stroke:#232f3e;stroke-linejoin:round;stroke-width:2px"/><polyline points="44.06 25.31 48.75 30 44.06 34.69" style="fill:none;stroke:#232f3e;stroke-linejoin:round;stroke-width:2px"/></g></svg>