<svg xmlns="http://www.w3.org/2000/svg" width="60" height="60" viewBox="0 0 60 60"><title>architecture-resource_Elasticache_Memcached</title><g id="Background"><rect width="60" height="60" style="fill:#fff"/><path d="M59,1V59H1V1H59m1-1H0V60H60V0Z" style="fill:#232f3e"/></g><g id="Art"><path d="M18.32,24.68V46.27c0,2.14,5.24,3.88,11.69,3.88S41.7,48.41,41.7,46.27V24.68" style="fill:none;stroke:#232f3e;stroke-linejoin:round;stroke-width:2.00868940353394px"/><path d="M18.32,31.87c0,1.13,1.45,2.14,3.75,2.85" style="fill:none;stroke:#232f3e;stroke-linejoin:round;stroke-width:2.00868940353394px"/><path d="M41.71,31.87c0,1-1.05,1.84-2.79,2.52" style="fill:none;stroke:#232f3e;stroke-linejoin:round;stroke-width:2.00868940353394px"/><path d="M18.32,39.07c0,1.13,1.45,2.14,3.75,2.85" style="fill:none;stroke:#232f3e;stroke-linejoin:round;stroke-width:2.00868940353394px"/><path d="M41.71,39.07c0,1-1.05,1.84-2.79,2.52" style="fill:none;stroke:#232f3e;stroke-linejoin:round;stroke-width:2.00868940353394px"/><path d="M41.7,24.68c0,2.14-5.23,3.88-11.68,3.88s-11.7-1.74-11.7-3.88S23.56,20.8,30,20.8,41.7,22.54,41.7,24.68Z" style="fill:none;stroke:#232f3e;stroke-linejoin:round;stroke-width:2.00868940353394px"/><polyline points="15.51 31.63 10.83 31.63 10.83 34.47" style="fill:none;stroke:#232f3e;stroke-linejoin:round;stroke-width:2.00868940353394px"/><polyline points="44.54 31.63 50.16 31.63 50.16 34.47 44.54 34.47" style="fill:none;stroke:#232f3e;stroke-linejoin:round;stroke-width:2.00868940353394px"/><path d="M44.54,34.47H53V18a3,3,0,0,1-2.78-3,2.94,2.94,0,0,1,2.78-3V9.85H7v2.07a2.93,2.93,0,0,1,2.82,3A2.93,2.93,0,0,1,7,18V34.47h8.48" style="fill:none;stroke:#232f3e;stroke-linejoin:round;stroke-width:2.00868940353394px"/><polyline points="28.62 18.37 28.62 13.64 22.07 13.64 22.07 19.32" style="fill:none;stroke:#232f3e;stroke-linejoin:round;stroke-width:2.00868940353394px"/><polyline points="37.99 19.32 37.99 13.64 31.43 13.64 31.43 18.37" style="fill:none;stroke:#232f3e;stroke-linejoin:round;stroke-width:2.00868940353394px"/><polyline points="44.54 27.84 47.35 27.84 47.35 13.64 40.8 13.64 40.8 20.27" style="fill:none;stroke:#232f3e;stroke-linejoin:round;stroke-width:2.00868940353394px"/><polyline points="19.26 20.27 19.26 13.64 12.71 13.64 12.71 27.84 15.51 27.84" style="fill:none;stroke:#232f3e;stroke-linejoin:round;stroke-width:2.00868940353394px"/><polygon points="34.68 45.59 34.68 35.77 31.31 42.3 29.25 42.3 25.99 35.8 25.99 45.59 23.89 45.59 23.89 32.47 26.44 32.47 30.34 40.29 34.31 32.47 36.78 32.47 36.78 45.59 34.68 45.59" style="fill:#232f3e"/></g></svg>