<svg xmlns="http://www.w3.org/2000/svg" width="60" height="60" viewBox="0 0 60 60"><title>architecture-resource_IOT_Policy</title><g id="Background"><rect width="60" height="60" style="fill:#fff"/><path d="M59,1V59H1V1H59m1-1H0V60H60V0Z" style="fill:#232f3e"/></g><g id="Art"><path d="M28.81,44.52H8.74A1.23,1.23,0,0,1,7.5,43.29V12a1.24,1.24,0,0,1,1.24-1.24H31.57A1.24,1.24,0,0,1,32.81,12V26.72" style="fill:none;stroke:#232f3e;stroke-miterlimit:10;stroke-width:2px"/><line x1="12.19" y1="14.52" x2="18.75" y2="21.09" style="fill:none;stroke:#232f3e;stroke-linejoin:round;stroke-width:2px"/><line x1="18.75" y1="14.52" x2="12.19" y2="21.09" style="fill:none;stroke:#232f3e;stroke-linejoin:round;stroke-width:2px"/><line x1="12.19" y1="24.84" x2="18.75" y2="31.4" style="fill:none;stroke:#232f3e;stroke-linejoin:round;stroke-width:2px"/><line x1="18.75" y1="24.84" x2="12.19" y2="31.4" style="fill:none;stroke:#232f3e;stroke-linejoin:round;stroke-width:2px"/><polyline points="11.25 38.43 14.38 41.71 20.63 35.15" style="fill:none;stroke:#232f3e;stroke-linejoin:round;stroke-width:2px"/><circle cx="41.25" cy="37.98" r="11.25" style="fill:none;stroke:#232f3e;stroke-linejoin:round;stroke-width:2px"/><path d="M37.17,42.65a4.4,4.4,0,0,0,4.15-2.81h8.17l1.13-1.41L49.11,37H48l-1.13-1L45.7,37h-.76l-1.14-1-1.13,1H41.32a4.4,4.4,0,0,0-4.15-2.81,4.22,4.22,0,1,0,0,8.44Z" style="fill:none;stroke:#232f3e;stroke-linejoin:round;stroke-width:2px"/><circle cx="36.19" cy="38.43" r="1.31" style="fill:#232f3e"/></g></svg>