<svg xmlns="http://www.w3.org/2000/svg" width="60" height="60" viewBox="0 0 60 60"><title>architecture-resource_ECR_Registry</title><g id="Background"><rect width="60" height="60" style="fill:#fff"/><path d="M59,1V59H1V1H59m1-1H0V60H60V0Z" style="fill:#232f3e"/></g><g id="Art"><rect x="7.5" y="7.5" width="45" height="45" rx="5.45" ry="5.45" style="fill:none;stroke:#232f3e;stroke-linejoin:round;stroke-width:2px"/><rect x="13.13" y="12.19" width="15" height="9.38" style="fill:none;stroke:#232f3e;stroke-linejoin:round;stroke-width:2px"/><line x1="16.88" y1="15" x2="16.88" y2="18.75" style="fill:none;stroke:#232f3e;stroke-linejoin:round;stroke-width:2px"/><line x1="20.63" y1="15" x2="20.63" y2="18.75" style="fill:none;stroke:#232f3e;stroke-linejoin:round;stroke-width:2px"/><line x1="24.38" y1="15" x2="24.38" y2="18.75" style="fill:none;stroke:#232f3e;stroke-linejoin:round;stroke-width:2px"/><rect x="13.13" y="25.31" width="15" height="9.38" style="fill:none;stroke:#232f3e;stroke-linejoin:round;stroke-width:2px"/><line x1="16.88" y1="28.12" x2="16.88" y2="31.87" style="fill:none;stroke:#232f3e;stroke-linejoin:round;stroke-width:2px"/><line x1="20.63" y1="28.12" x2="20.63" y2="31.87" style="fill:none;stroke:#232f3e;stroke-linejoin:round;stroke-width:2px"/><line x1="24.38" y1="28.12" x2="24.38" y2="31.87" style="fill:none;stroke:#232f3e;stroke-linejoin:round;stroke-width:2px"/><rect x="13.13" y="38.44" width="15" height="9.38" style="fill:none;stroke:#232f3e;stroke-linejoin:round;stroke-width:2px"/><line x1="16.88" y1="41.25" x2="16.88" y2="45" style="fill:none;stroke:#232f3e;stroke-linejoin:round;stroke-width:2px"/><line x1="20.63" y1="41.25" x2="20.63" y2="45" style="fill:none;stroke:#232f3e;stroke-linejoin:round;stroke-width:2px"/><line x1="24.38" y1="41.25" x2="24.38" y2="45" style="fill:none;stroke:#232f3e;stroke-linejoin:round;stroke-width:2px"/><rect x="31.88" y="12.19" width="15" height="9.38" style="fill:none;stroke:#232f3e;stroke-linejoin:round;stroke-width:2px"/><line x1="35.63" y1="15" x2="35.63" y2="18.75" style="fill:none;stroke:#232f3e;stroke-linejoin:round;stroke-width:2px"/><line x1="39.38" y1="15" x2="39.38" y2="18.75" style="fill:none;stroke:#232f3e;stroke-linejoin:round;stroke-width:2px"/><line x1="43.13" y1="15" x2="43.13" y2="18.75" style="fill:none;stroke:#232f3e;stroke-linejoin:round;stroke-width:2px"/><rect x="31.88" y="25.31" width="15" height="9.38" style="fill:none;stroke:#232f3e;stroke-linejoin:round;stroke-width:2px"/><line x1="35.63" y1="28.12" x2="35.63" y2="31.87" style="fill:none;stroke:#232f3e;stroke-linejoin:round;stroke-width:2px"/><line x1="39.38" y1="28.12" x2="39.38" y2="31.87" style="fill:none;stroke:#232f3e;stroke-linejoin:round;stroke-width:2px"/><line x1="43.13" y1="28.12" x2="43.13" y2="31.87" style="fill:none;stroke:#232f3e;stroke-linejoin:round;stroke-width:2px"/><rect x="31.88" y="38.44" width="15" height="9.38" style="fill:none;stroke:#232f3e;stroke-linejoin:round;stroke-width:2px"/><line x1="35.63" y1="41.25" x2="35.63" y2="45" style="fill:none;stroke:#232f3e;stroke-linejoin:round;stroke-width:2px"/><line x1="39.38" y1="41.25" x2="39.38" y2="45" style="fill:none;stroke:#232f3e;stroke-linejoin:round;stroke-width:2px"/><line x1="43.13" y1="41.25" x2="43.13" y2="45" style="fill:none;stroke:#232f3e;stroke-linejoin:round;stroke-width:2px"/></g></svg>