<svg xmlns="http://www.w3.org/2000/svg" width="60" height="60" viewBox="0 0 60 60"><title>architecture-resource_IOT_Rule</title><g id="Background"><rect width="60" height="60" style="fill:#fff"/><path d="M59,1V59H1V1H59m1-1H0V60H60V0Z" style="fill:#232f3e"/></g><g id="Art"><polyline points="23.44 30.22 23.44 26.14 23.44 23.44 36.56 23.44 36.56 26.14 36.56 30.22" style="fill:none;stroke:#232f3e;stroke-linejoin:round;stroke-width:2px"/><line x1="30.78" y1="33.07" x2="29.22" y2="33.07" style="fill:none;stroke:#232f3e;stroke-linejoin:round;stroke-width:2px"/><polyline points="36.56 23.44 31.15 28.08 30 29.06 28.85 28.08 23.44 23.44" style="fill:none;stroke:#232f3e;stroke-linejoin:round;stroke-width:2px"/><path d="M38.44,27.71c1.54.53,2.56,1.19,2.77,1.93a1,1,0,0,1,0,.29V49.15c0,1.85-5,3.35-11.25,3.35S18.75,51,18.75,49.15V29.93a1,1,0,0,1,0-.29c.21-.74,1.23-1.4,2.77-1.93" style="fill:none;stroke:#232f3e;stroke-linejoin:round;stroke-width:2px"/><path d="M41.25,29.61c0,1.92-5,3.47-11.25,3.47s-11.25-1.55-11.25-3.47" style="fill:none;stroke:#232f3e;stroke-linejoin:round;stroke-width:2px"/><rect x="16.88" y="7.5" width="6.56" height="6.56" style="fill:none;stroke:#232f3e;stroke-linejoin:round;stroke-width:2px"/><circle cx="39.38" cy="11.25" r="3.75" style="fill:none;stroke:#232f3e;stroke-linejoin:round;stroke-width:2px"/><polyline points="23.44 14.06 30 18.19 30 21.56" style="fill:none;stroke:#232f3e;stroke-linejoin:round;stroke-width:2px"/><polyline points="30 21.56 30 18.19 36.56 14.06" style="fill:none;stroke:#232f3e;stroke-linejoin:round;stroke-width:2px"/></g></svg>