<svg xmlns="http://www.w3.org/2000/svg" width="60" height="60" viewBox="0 0 60 60"><title>architecture-resource_IOT_Simulator</title><g id="Background"><rect width="60" height="60" style="fill:#fff"/><path d="M59,1V59H1V1H59m1-1H0V60H60V0Z" style="fill:#232f3e"/></g><g id="Art"><path d="M39.38,13.33c2,.21,3.84,1.9,4.06,5.18v.07c2.34.41,6.46,2,6.46,7.16,0,6.61-6.64,7.14-6.64,7.14l-25.79,0a7.25,7.25,0,0,1-7.34-6.6c0-.19,0-.38,0-.58a6.79,6.79,0,0,1,5.46-7,10.08,10.08,0,0,1-.07-1.24,10.52,10.52,0,0,1,6-9.18,10.12,10.12,0,0,1,11.35,2.24,10.36,10.36,0,0,1,1.42,1.75" style="fill:none;stroke:#232f3e;stroke-linejoin:round;stroke-width:2px"/><rect x="21.56" y="36.63" width="15.94" height="15.94" style="fill:none;stroke:#232f3e;stroke-linejoin:round;stroke-width:2px"/><circle cx="26.72" cy="41.32" r="2.11" style="fill:none;stroke:#232f3e;stroke-linejoin:round;stroke-width:2px"/><line x1="37.46" y1="41.36" x2="28.96" y2="41.36" style="fill:none;stroke:#232f3e;stroke-linejoin:round;stroke-width:2px"/><circle cx="32.34" cy="47.88" r="2.11" style="fill:none;stroke:#232f3e;stroke-linejoin:round;stroke-width:2px"/><line x1="21.6" y1="47.84" x2="30.16" y2="47.84" style="fill:none;stroke:#232f3e;stroke-linejoin:round;stroke-width:2px"/><rect x="22.5" y="15.15" width="14.06" height="14.06" style="fill:none;stroke:#232f3e;stroke-linejoin:round;stroke-width:2px"/><circle cx="27.65" cy="19.76" r="1.64" style="fill:none;stroke:#232f3e;stroke-linejoin:round;stroke-width:2px"/><line x1="36.61" y1="19.76" x2="29.11" y2="19.76" style="fill:none;stroke:#232f3e;stroke-linejoin:round;stroke-width:2px"/><circle cx="31.43" cy="24.46" r="1.64" style="fill:none;stroke:#232f3e;stroke-linejoin:round;stroke-width:2px"/><line x1="22.51" y1="24.46" x2="29.62" y2="24.46" style="fill:none;stroke:#232f3e;stroke-linejoin:round;stroke-width:2px"/></g></svg>