<svg xmlns="http://www.w3.org/2000/svg" width="60" height="60" viewBox="0 0 60 60"><title>architecture-resource_VPC_NAT-Gateway</title><g id="Background"><rect width="60" height="60" style="fill:#fff"/><path d="M59,1V59H1V1H59m1-1H0V60H60V0Z" style="fill:#232f3e"/></g><g id="Art"><circle cx="30" cy="30" r="22.5" style="fill:none;stroke:#232f3e;stroke-linejoin:round;stroke-width:2px"/><polyline points="24.57 19.69 32.81 19.69 32.81 42.19 24.57 42.19" style="fill:none;stroke:#232f3e;stroke-linejoin:round;stroke-width:2px"/><line x1="24.38" y1="30.94" x2="42.19" y2="30.94" style="fill:#fff;stroke:#232f3e;stroke-linejoin:round;stroke-width:2px"/><polygon points="17.81 15.94 17.81 16.21 17.81 23.44 22.5 19.69 17.81 15.94" style="fill:none;stroke:#232f3e;stroke-linejoin:round;stroke-width:2px"/><polygon points="17.81 27.19 17.81 27.46 17.81 34.69 22.5 30.94 17.81 27.19" style="fill:none;stroke:#232f3e;stroke-linejoin:round;stroke-width:2px"/><polygon points="43.13 26.25 43.13 26.59 43.13 35.63 47.81 30.94 43.13 26.25" style="fill:none;stroke:#232f3e;stroke-linejoin:round;stroke-width:2px"/><polygon points="17.81 37.5 17.81 37.78 17.81 45 22.5 41.25 17.81 37.5" style="fill:none;stroke:#232f3e;stroke-linejoin:round;stroke-width:2px"/></g></svg>