<svg xmlns="http://www.w3.org/2000/svg" width="60" height="60" viewBox="0 0 60 60"><title>architecture-resource_Redshift_Dense-storage-node_1</title><g id="Background"><rect width="60" height="60" style="fill:#fff"/><path d="M59,1V59H1V1H59m1-1H0V60H60V0Z" style="fill:#232f3e"/></g><g id="Art"><line x1="30.94" y1="14.88" x2="21.56" y2="22.5" style="fill:none;stroke:#232f3e;stroke-linejoin:round;stroke-width:2px"/><line x1="30.94" y1="45.12" x2="21.56" y2="37.5" style="fill:none;stroke:#232f3e;stroke-linejoin:round;stroke-width:2px"/><polyline points="29.06 33.43 38.8 36.68 39.35 36.86 44.06 38.44" style="fill:none;stroke:#232f3e;stroke-linejoin:round;stroke-width:2px"/><polyline points="44.06 21.56 39.35 23.14 38.8 23.32 29.06 26.57" style="fill:none;stroke:#232f3e;stroke-linejoin:round;stroke-width:2px"/><line x1="33.75" y1="15.94" x2="45.94" y2="33.75" style="fill:none;stroke:#232f3e;stroke-linejoin:round;stroke-width:2px"/><path d="M39.38,11.25s5.32,3.88,8.73,6.56" style="fill:none;stroke:#232f3e;stroke-linejoin:round;stroke-width:2px"/><rect x="30.94" y="7.5" width="8.44" height="8.44" style="fill:none;stroke:#232f3e;stroke-linejoin:round;stroke-width:2px"/><line x1="33.75" y1="44.06" x2="45.94" y2="26.25" style="fill:none;stroke:#232f3e;stroke-linejoin:round;stroke-width:2px"/><path d="M39.38,48.75s5.32-3.88,8.73-6.56" style="fill:none;stroke:#232f3e;stroke-linejoin:round;stroke-width:2px"/><rect x="30.94" y="44.06" width="8.44" height="8.44" style="fill:none;stroke:#232f3e;stroke-linejoin:round;stroke-width:2px"/><rect x="44.06" y="33.75" width="8.44" height="8.44" style="fill:none;stroke:#232f3e;stroke-linejoin:round;stroke-width:2px"/><rect x="44.06" y="17.81" width="8.44" height="8.44" style="fill:none;stroke:#232f3e;stroke-linejoin:round;stroke-width:2px"/><rect x="7.5" y="22.5" width="21.56" height="15" style="fill:none;stroke:#232f3e;stroke-linejoin:round;stroke-width:2px"/><text transform="translate(11.56 34.06)" style="font-size:12.1875px;fill:#232f3e;font-family:AmazonEmberCd-Bold, Amazon Ember Cd;font-weight:700;letter-spacing:-0.010016025641025642em">D<tspan x="7.07" y="0" style="letter-spacing:0.00008012820512820514em">S</tspan></text></g></svg>