<svg xmlns="http://www.w3.org/2000/svg" width="60" height="60" viewBox="0 0 60 60"><title>architecture-resource_IAM_AWS-STS</title><g id="Background"><rect width="60" height="60" style="fill:#fff"/><path d="M59,1V59H1V1H59m1-1H0V60H60V0Z" style="fill:#232f3e"/></g><g id="Art"><path d="M20.19,39.43a9.38,9.38,0,0,0,9-6.54H46.77L49.22,30,46,27.17H43.49L41,24.71l-2.45,2.46H37L34.5,24.71,32,27.17h-2.9a9.4,9.4,0,1,0-8.95,12.26Zm-2.87-6.54A2.86,2.86,0,1,1,20.19,30,2.86,2.86,0,0,1,17.32,32.89Z" style="fill:none;stroke:#232f3e;stroke-linejoin:round;stroke-width:2px"/><rect x="7.5" y="15.94" width="45" height="28.13" style="fill:none;stroke:#232f3e;stroke-linejoin:round;stroke-width:2px"/></g></svg>