<svg xmlns="http://www.w3.org/2000/svg" width="60" height="60" viewBox="0 0 60 60"><title>architecture-resource_Cloudsearch_Search-documents</title><g id="Background"><rect width="60" height="60" style="fill:#fff"/><path d="M59,1V59H1V1H59m1-1H0V60H60V0Z" style="fill:#232f3e"/></g><g id="Art"><polyline points="14.06 16.88 14.06 7.5 45.94 7.5 45.94 16.88" style="fill:none;stroke:#232f3e;stroke-miterlimit:10;stroke-width:2px"/><polyline points="45.94 27.19 45.94 52.5 14.06 52.5 14.06 27.19" style="fill:none;stroke:#232f3e;stroke-miterlimit:10;stroke-width:2px"/><line x1="17.81" y1="13.13" x2="42.19" y2="13.13" style="fill:none;stroke:#232f3e;stroke-miterlimit:10;stroke-width:2px"/><line x1="17.93" y1="18.75" x2="42.19" y2="18.75" style="fill:none;stroke:#232f3e;stroke-miterlimit:10;stroke-width:2px"/><line x1="17.81" y1="24.38" x2="42.19" y2="24.38" style="fill:none;stroke:#232f3e;stroke-miterlimit:10;stroke-width:2px"/><line x1="17.81" y1="30" x2="42.19" y2="30" style="fill:none;stroke:#232f3e;stroke-miterlimit:10;stroke-width:2px"/><line x1="17.81" y1="35.63" x2="42.19" y2="35.63" style="fill:none;stroke:#232f3e;stroke-miterlimit:10;stroke-width:2px"/><line x1="17.81" y1="41.25" x2="42.19" y2="41.25" style="fill:none;stroke:#232f3e;stroke-miterlimit:10;stroke-width:2px"/><line x1="17.81" y1="46.88" x2="42.19" y2="46.88" style="fill:none;stroke:#232f3e;stroke-miterlimit:10;stroke-width:2px"/><polygon points="10.31 17.81 15.94 22.03 10.31 26.25 10.31 17.81" style="fill:none;stroke:#232f3e;stroke-linejoin:round;stroke-width:2px"/><polygon points="49.69 26.25 44.06 22.03 49.69 17.81 49.69 26.25" style="fill:none;stroke:#232f3e;stroke-linejoin:round;stroke-width:2px"/></g></svg>