<svg xmlns="http://www.w3.org/2000/svg" width="60" height="60" viewBox="0 0 60 60"><title>architecture-resource_IAM_Role</title><g id="Background"><rect width="60" height="60" style="fill:#fff"/><path d="M59,1V59H1V1H59m1-1H0V60H60V0Z" style="fill:#232f3e"/></g><g id="Art"><path d="M13.94,37.08c0-.26,0-.53,0-.79A18.8,18.8,0,0,1,51.48,35" style="fill:none;stroke:#232f3e;stroke-miterlimit:10;stroke-width:2px"/><path d="M14.73,37.7c0-.33,0-1.09,0-1.29a15.45,15.45,0,0,1,6.16-12.27,17.18,17.18,0,0,1,8.79-2.38,16.59,16.59,0,0,1,16.12,11.7" style="fill:none;stroke:#232f3e;stroke-miterlimit:10;stroke-width:2px"/><path d="M48.05,35.33c.46,0,.92-.08,1.35-.12L51.47,35l.22,0a.73.73,0,0,1,.81.73v4.09a.73.73,0,0,1-.68.73l-.8.07c-.54,0-1.12.09-1.71.16a30.83,30.83,0,0,1-5.48.29c-1.95-.28-6.42-3.08-10.06-3.36s-10.34.56-13.42,2.79a12.6,12.6,0,0,1-5.43,1.85" style="fill:none;stroke:#232f3e;stroke-miterlimit:10;stroke-width:2px"/><path d="M23.43,34.06c1.95-.56,4.47-.83,9.22-1.11,4.3-.26,7.9,1.77,10,2.36" style="fill:none;stroke:#232f3e;stroke-miterlimit:10;stroke-width:2px"/><path d="M13.94,37.08c-3.09,1.69-7.59,2.82-6.17,4.24,1.14,1.14,4.19,1.42,7.14,1" style="fill:none;stroke:#232f3e;stroke-miterlimit:10;stroke-width:2px"/><rect x="42.65" y="33.46" width="5.41" height="3.6" rx="0.7" ry="0.7" style="fill:none;stroke:#232f3e;stroke-miterlimit:10;stroke-width:2px"/><path d="M13.94,37.08a11.94,11.94,0,0,0,7.58,2.7" style="fill:none;stroke:#232f3e;stroke-miterlimit:10;stroke-width:2px"/></g></svg>