<svg xmlns="http://www.w3.org/2000/svg" width="60" height="60" viewBox="0 0 60 60"><title>architecture-resource_Systems-Manager_Documents</title><g id="Background"><rect width="60" height="60" style="fill:#fff"/><path d="M59,1V59H1V1H59m1-1H0V60H60V0Z" style="fill:#232f3e"/></g><g id="Art"><polygon points="48.28 24.38 48.28 52.5 22.97 52.5 22.97 15 38.91 15 48.28 24.38" style="fill:none;stroke:#232f3e;stroke-linejoin:round;stroke-width:2px"/><polyline points="20.16 48.75 17.34 48.75 17.34 11.25 34.22 11.25" style="fill:none;stroke:#232f3e;stroke-linejoin:round;stroke-width:2px"/><polyline points="13.59 45 11.72 45 11.72 7.5 29.53 7.5" style="fill:none;stroke:#232f3e;stroke-linejoin:round;stroke-width:2px"/><polyline points="38.91 15 38.91 24.38 48.28 24.38" style="fill:none;stroke:#232f3e;stroke-linejoin:round;stroke-width:2px"/><line x1="25.78" y1="23.44" x2="34.22" y2="23.44" style="fill:none;stroke:#232f3e;stroke-linejoin:round;stroke-width:2px"/><line x1="25.78" y1="30" x2="45.47" y2="30" style="fill:none;stroke:#232f3e;stroke-linejoin:round;stroke-width:2px"/><line x1="25.78" y1="36.56" x2="41.72" y2="36.56" style="fill:none;stroke:#232f3e;stroke-linejoin:round;stroke-width:2px"/></g></svg>