<svg xmlns="http://www.w3.org/2000/svg" width="60" height="60" viewBox="0 0 60 60"><title>architecture-resource_On-Demand-Workforce_Requester</title><g id="Background"><rect width="60" height="60" style="fill:#fff"/><path d="M59,1V59H1V1H59m1-1H0V60H60V0Z" style="fill:#232f3e"/></g><g id="Art"><path d="M19.69,30H7.5v-1.5a10.93,10.93,0,0,1,8.33-10.6,6.16,6.16,0,0,0,5.89,0,11,11,0,0,1,3.49,1.54" style="fill:none;stroke:#232f3e;stroke-linejoin:round;stroke-width:2px"/><path d="M21.47,17.94a5.67,5.67,0,1,0-2.71.69,5.65,5.65,0,0,0,2.71-.69" style="fill:none;stroke:#232f3e;stroke-linejoin:round;stroke-width:2px"/><path d="M34.73,19.49a10.62,10.62,0,0,1,3.53-1.58,6.2,6.2,0,0,0,5.91,0,10.93,10.93,0,0,1,8.33,10.6V30H40.31" style="fill:none;stroke:#232f3e;stroke-linejoin:round;stroke-width:2px"/><path d="M43.91,17.94a5.67,5.67,0,1,0-2.71.69,5.65,5.65,0,0,0,2.71-.69" style="fill:none;stroke:#232f3e;stroke-linejoin:round;stroke-width:2px"/><path d="M45.94,50.37v2.12H14V50.37a15.47,15.47,0,0,1,11.78-15,8.77,8.77,0,0,0,8.36,0A15.46,15.46,0,0,1,45.94,50.37Z" style="fill:none;stroke:#232f3e;stroke-linejoin:round;stroke-width:2px"/><path d="M33.77,35.41a7.82,7.82,0,0,0,4.12-6.88A7.95,7.95,0,1,0,26.1,35.41a8,8,0,0,0,7.67,0" style="fill:none;stroke:#232f3e;stroke-linejoin:round;stroke-width:2px"/></g></svg>