<svg xmlns="http://www.w3.org/2000/svg" width="60" height="60" viewBox="0 0 60 60"><title>architecture-resource_ELB_Network-Load-Balancer</title><g id="Background"><rect width="60" height="60" style="fill:#fff"/><path d="M59,1V59H1V1H59m1-1H0V60H60V0Z" style="fill:#232f3e"/></g><g id="Art"><circle cx="30" cy="30" r="22.5" style="fill:none;stroke:#232f3e;stroke-miterlimit:10;stroke-width:2px"/><rect x="12.16" y="25.34" width="9.31" height="9.31" style="fill:none;stroke:#232f3e;stroke-linejoin:round;stroke-width:2px"/><rect x="37.5" y="16.88" width="5.63" height="5.63" style="fill:none;stroke:#232f3e;stroke-linejoin:round;stroke-width:2px"/><rect x="37.5" y="27.19" width="5.63" height="5.63" style="fill:none;stroke:#232f3e;stroke-linejoin:round;stroke-width:2px"/><rect x="37.5" y="37.5" width="5.63" height="5.63" style="fill:none;stroke:#232f3e;stroke-linejoin:round;stroke-width:2px"/><line x1="33.9" y1="30" x2="24.38" y2="30" style="fill:none;stroke:#232f3e;stroke-linejoin:round;stroke-width:2px"/><polyline points="31.53 26.84 34.69 30 31.53 33.16" style="fill:none;stroke:#232f3e;stroke-linejoin:round;stroke-width:2px"/><line x1="33.94" y1="19.91" x2="23.71" y2="25.31" style="fill:none;stroke:#232f3e;stroke-linejoin:round;stroke-width:2px"/><polyline points="29.63 18.75 33.94 19.92 32.77 24.23" style="fill:none;stroke:#232f3e;stroke-linejoin:round;stroke-width:2px"/><line x1="33.94" y1="40.09" x2="23.71" y2="34.69" style="fill:none;stroke:#232f3e;stroke-linejoin:round;stroke-width:2px"/><polyline points="29.63 41.25 33.94 40.08 32.77 35.77" style="fill:none;stroke:#232f3e;stroke-linejoin:round;stroke-width:2px"/></g></svg>