<svg xmlns="http://www.w3.org/2000/svg" width="60" height="60" viewBox="0 0 60 60"><title>architecture-resource_general_Mobile-client</title><g id="Background"><rect width="60" height="60" style="fill:#fff"/><path d="M59,1V59H1V1H59m1-1H0V60H60V0Z" style="fill:#232f3e"/></g><g id="Art"><path d="M40.78,15V11.38A3.85,3.85,0,0,0,37,7.5H22.12a3.85,3.85,0,0,0-3.83,3.88V49.51c0,2.14,1.71,3,3.83,3H37c2.12,0,3.83-.85,3.83-3V47.16" style="fill:none;stroke:#232f3e;stroke-linejoin:round;stroke-width:2px"/><line x1="34.22" y1="11.25" x2="28.59" y2="11.25" style="fill:none;stroke:#232f3e;stroke-linejoin:round;stroke-width:2px"/><ellipse cx="24.84" cy="11.25" rx="0.68" ry="0.7" style="fill:none;stroke:#232f3e;stroke-linejoin:round;stroke-width:2px"/><polyline points="18.28 15 40.78 15 40.78 43.13" style="fill:none;stroke:#232f3e;stroke-linejoin:round;stroke-width:2px"/><polyline points="18.28 46.88 40.78 46.88 40.78 41.25" style="fill:none;stroke:#232f3e;stroke-linejoin:round;stroke-width:2px"/></g></svg>