<svg xmlns="http://www.w3.org/2000/svg" width="60" height="60" viewBox="0 0 60 60"><title>architecture-resource_IOT_Alexa-voice-service</title><g id="Background"><rect width="60" height="60" style="fill:#fff"/><path d="M59,1V59H1V1H59m1-1H0V60H60V0Z" style="fill:#232f3e"/></g><g id="Art"><rect x="7.5" y="7.5" width="45" height="45" rx="5.45" ry="5.45" style="fill:none;stroke:#232f3e;stroke-linejoin:round;stroke-width:2px"/><path id="_Path_" data-name="&lt;Path&gt;" d="M27.65,44.81v-3A2.64,2.64,0,0,0,26,39.42,10.23,10.23,0,1,1,40.23,30C40.23,36.62,35.1,42.89,27.65,44.81Z" style="fill:none;stroke:#232f3e;stroke-linejoin:round;stroke-width:2px"/><path id="_Compound_Path_" data-name="&lt;Compound Path&gt;" d="M30,15a15,15,0,0,0-5.84,28.81A14.76,14.76,0,0,0,30,45a15,15,0,0,0,0-30Z" style="fill:none;stroke:#232f3e;stroke-linejoin:round;stroke-width:2px"/></g></svg>