<svg xmlns="http://www.w3.org/2000/svg" width="60" height="60" viewBox="0 0 60 60"><title>architecture-resource_Snowball_Import-export</title><g id="Background"><rect width="60" height="60" style="fill:#fff"/><path d="M59,1V59H1V1H59m1-1H0V60H60V0Z" style="fill:#232f3e"/></g><g id="Art"><path d="M11.72,28.59V18.45a2,2,0,0,1,2-2H23l1.28,3.75H36.68L38,16.41h9.21a2,2,0,0,1,2,2v5.46" style="fill:none;stroke:#232f3e;stroke-linejoin:round;stroke-width:2px"/><path d="M49.22,38.91v2.64a2,2,0,0,1-2,2H13.75a2,2,0,0,1-2-2V34.22" style="fill:none;stroke:#232f3e;stroke-linejoin:round;stroke-width:2px"/><path d="M53,35.36v7.73a4.19,4.19,0,0,1-4.11,4.25H12.08A4.19,4.19,0,0,1,8,43.09V34.22m0-5.63V16.91a4.19,4.19,0,0,1,4.11-4.25H48.86A4.19,4.19,0,0,1,53,16.91V27.45" style="fill:none;stroke:#232f3e;stroke-linejoin:round;stroke-width:2px"/><polyline points="30.47 24.84 43.59 24.84 43.59 28.59" style="fill:none;stroke:#232f3e;stroke-linejoin:round;stroke-width:2px"/><polyline points="18.28 28.59 18.28 24.84 23.91 24.84" style="fill:none;stroke:#232f3e;stroke-linejoin:round;stroke-width:2px"/><polyline points="18.28 34.22 18.28 37.03 23.91 37.03" style="fill:none;stroke:#232f3e;stroke-linejoin:round;stroke-width:2px"/><polyline points="43.59 34.22 43.59 37.03 30.47 37.03" style="fill:none;stroke:#232f3e;stroke-linejoin:round;stroke-width:2px"/><line x1="26.72" y1="16.41" x2="34.22" y2="16.41" style="fill:none;stroke:#232f3e;stroke-linejoin:round;stroke-width:2px"/><polyline points="47.34 25.78 52.93 31.41 47.34 37.03" style="fill:none;stroke:#232f3e;stroke-linejoin:round;stroke-width:2px"/><line x1="52.93" y1="31.41" x2="34.22" y2="31.41" style="fill:none;stroke:#232f3e;stroke-linejoin:round;stroke-width:2px"/><polyline points="25.81 25.78 31.41 31.41 25.81 37.03" style="fill:none;stroke:#232f3e;stroke-linejoin:round;stroke-width:2px"/><line x1="31.37" y1="31.41" x2="7.03" y2="31.41" style="fill:none;stroke:#232f3e;stroke-linejoin:round;stroke-width:2px"/></g></svg>