<svg xmlns="http://www.w3.org/2000/svg" width="60" height="60" viewBox="0 0 60 60"><title>architecture-resource_Route-53_Route-table</title><g id="Background"><rect width="60" height="60" style="fill:#fff"/><path d="M59,1V59H1V1H59m1-1H0V60H60V0Z" style="fill:#232f3e"/></g><g id="Art"><path d="M11.8,17.57V12l-1.49.7V12l1.57-.89h.86v6.5Z" style="fill:#232f3e"/><path d="M15.47,17.57l2.11-5.72H14.72v-.78h3.81v.7l-2.08,5.8Z" style="fill:#232f3e"/><path d="M19.85,11.56a3.34,3.34,0,0,1,.87-.46,2.51,2.51,0,0,1,.86-.15,1.52,1.52,0,0,1,1.19.46,1.75,1.75,0,0,1,.43,1.27,2.48,2.48,0,0,1-.18.89,6.13,6.13,0,0,1-.66,1.14c-.32.45-.86,1.15-1.63,2.08h2.71v.78H19.7v-.7c.67-.83,1.18-1.49,1.54-2A7.79,7.79,0,0,0,22,13.66a2.06,2.06,0,0,0,.23-.93c0-.65-.27-1-.8-1a3.14,3.14,0,0,0-1.57.6Z" style="fill:#232f3e"/><path d="M25.07,17.66a.57.57,0,0,1-.43-.16.59.59,0,0,1-.17-.44.58.58,0,0,1,.6-.6.56.56,0,0,1,.43.17.58.58,0,0,1,.17.43.59.59,0,0,1-.17.44A.56.56,0,0,1,25.07,17.66Z" style="fill:#232f3e"/><path d="M28.57,17.57V12l-1.49.7V12l1.57-.89h.86v6.5Z" style="fill:#232f3e"/><path d="M33.91,11.69a1.16,1.16,0,0,0-1,.56,3.73,3.73,0,0,0-.4,1.78,2.54,2.54,0,0,1,1.31-.38,1.51,1.51,0,0,1,1.21.53,2,2,0,0,1,.46,1.39,2.25,2.25,0,0,1-.52,1.55,1.8,1.8,0,0,1-1.4.57A1.67,1.67,0,0,1,32,16.92a4.53,4.53,0,0,1-.5-2.39,4.86,4.86,0,0,1,.6-2.65A1.87,1.87,0,0,1,33.79,11a2.72,2.72,0,0,1,.69.09,2.34,2.34,0,0,1,.6.22V12a2.93,2.93,0,0,0-.57-.19A3.26,3.26,0,0,0,33.91,11.69Zm-.4,2.68a2.35,2.35,0,0,0-1.06.27v.07a4.18,4.18,0,0,0,.26,1.7.89.89,0,0,0,.84.54c.63,0,.94-.44.94-1.32a1.45,1.45,0,0,0-.25-.93A.85.85,0,0,0,33.51,14.37Z" style="fill:#232f3e"/><path d="M37,17.66a.57.57,0,0,1-.43-.16.59.59,0,0,1-.17-.44.6.6,0,1,1,1.2,0,.59.59,0,0,1-.17.44A.57.57,0,0,1,37,17.66Z" style="fill:#232f3e"/><path d="M40.55,17.69A1.67,1.67,0,0,1,39,16.83a4.86,4.86,0,0,1-.53-2.51A4.86,4.86,0,0,1,39,11.81,1.69,1.69,0,0,1,40.55,11a1.67,1.67,0,0,1,1.52.86,4.86,4.86,0,0,1,.53,2.51,4.86,4.86,0,0,1-.53,2.51A1.65,1.65,0,0,1,40.55,17.69Zm0-.76a.86.86,0,0,0,.82-.62,5.36,5.36,0,0,0,.26-2,5.4,5.4,0,0,0-.26-2,.86.86,0,0,0-1.65,0,5.62,5.62,0,0,0-.26,2,5.58,5.58,0,0,0,.26,2A.86.86,0,0,0,40.55,16.93Z" style="fill:#232f3e"/><path d="M44.09,17.66a.57.57,0,0,1-.43-.16.59.59,0,0,1-.17-.44.6.6,0,1,1,1.2,0,.59.59,0,0,1-.17.44A.57.57,0,0,1,44.09,17.66Z" style="fill:#232f3e"/><path d="M47.64,17.69a1.67,1.67,0,0,1-1.53-.86,4.86,4.86,0,0,1-.53-2.51,4.86,4.86,0,0,1,.53-2.51A1.69,1.69,0,0,1,47.64,11a1.67,1.67,0,0,1,1.52.86,4.86,4.86,0,0,1,.53,2.51,4.86,4.86,0,0,1-.53,2.51A1.65,1.65,0,0,1,47.64,17.69Zm0-.76a.86.86,0,0,0,.82-.62,5.36,5.36,0,0,0,.26-2,5.4,5.4,0,0,0-.26-2,.86.86,0,0,0-1.65,0,5.62,5.62,0,0,0-.26,2,5.58,5.58,0,0,0,.26,2A.86.86,0,0,0,47.64,16.93Z" style="fill:#232f3e"/><path d="M11.8,32.93V27.39l-1.49.71v-.77l1.57-.89h.86v6.49Z" style="fill:#232f3e"/><path d="M15.47,32.93l2.11-5.71H14.72v-.78h3.81v.69l-2.08,5.8Z" style="fill:#232f3e"/><path d="M19.85,26.92a3.68,3.68,0,0,1,.87-.46,2.5,2.5,0,0,1,.86-.14,1.55,1.55,0,0,1,1.19.45A1.76,1.76,0,0,1,23.2,28a2.44,2.44,0,0,1-.18.89,5.55,5.55,0,0,1-.66,1.14c-.32.45-.86,1.15-1.63,2.09h2.71v.77H19.7v-.7c.67-.83,1.18-1.49,1.54-2A7.8,7.8,0,0,0,22,29a2,2,0,0,0,.23-.92c0-.65-.27-1-.8-1a3.14,3.14,0,0,0-1.57.6Z" style="fill:#232f3e"/><path d="M25.07,33a.58.58,0,0,1-.6-.6.6.6,0,0,1,.17-.44.57.57,0,0,1,.43-.16.56.56,0,0,1,.43.16.6.6,0,0,1,.17.44.58.58,0,0,1-.17.43A.56.56,0,0,1,25.07,33Z" style="fill:#232f3e"/><path d="M28.57,32.93V27.39l-1.49.71v-.77l1.57-.89h.86v6.49Z" style="fill:#232f3e"/><path d="M33.91,27.06a1.15,1.15,0,0,0-1,.55,3.8,3.8,0,0,0-.4,1.78A2.53,2.53,0,0,1,33.77,29a1.5,1.5,0,0,1,1.21.52,2,2,0,0,1,.46,1.4,2.22,2.22,0,0,1-.52,1.54,1.78,1.78,0,0,1-1.4.58A1.66,1.66,0,0,1,32,32.28a4.49,4.49,0,0,1-.5-2.38,4.87,4.87,0,0,1,.6-2.66,1.86,1.86,0,0,1,1.68-.92,2.71,2.71,0,0,1,.69.08,2.79,2.79,0,0,1,.6.22v.69a2.38,2.38,0,0,0-.57-.18A2.58,2.58,0,0,0,33.91,27.06Zm-.4,2.68a2.47,2.47,0,0,0-1.06.26v.08a4.21,4.21,0,0,0,.26,1.7.89.89,0,0,0,.84.54c.63,0,.94-.44.94-1.33a1.49,1.49,0,0,0-.25-.93A.87.87,0,0,0,33.51,29.74Z" style="fill:#232f3e"/><path d="M37,33a.58.58,0,0,1-.6-.6.6.6,0,0,1,.17-.44.66.66,0,0,1,.86,0,.6.6,0,0,1,.17.44.58.58,0,0,1-.6.6Z" style="fill:#232f3e"/><path d="M40.5,32.93V27.39L39,28.1v-.77l1.57-.89h.86v6.49Z" style="fill:#232f3e"/><path d="M44.09,33a.58.58,0,0,1-.6-.6.6.6,0,0,1,.17-.44.66.66,0,0,1,.86,0,.6.6,0,0,1,.17.44.58.58,0,0,1-.6.6Z" style="fill:#232f3e"/><path d="M47.64,33.06a1.68,1.68,0,0,1-1.53-.87,4.86,4.86,0,0,1-.53-2.51,4.88,4.88,0,0,1,.53-2.51,1.68,1.68,0,0,1,1.53-.85,1.66,1.66,0,0,1,1.52.85,4.88,4.88,0,0,1,.53,2.51,4.87,4.87,0,0,1-.53,2.52A1.67,1.67,0,0,1,47.64,33.06Zm0-.76a.87.87,0,0,0,.82-.62,5.42,5.42,0,0,0,.26-2,5.43,5.43,0,0,0-.26-2,.86.86,0,0,0-1.65,0,5.66,5.66,0,0,0-.26,2,5.65,5.65,0,0,0,.26,2A.87.87,0,0,0,47.64,32.3Z" style="fill:#232f3e"/><path d="M11.8,49.22V43.68l-1.49.7v-.77l1.57-.89h.86v6.5Z" style="fill:#232f3e"/><path d="M15.47,49.22l2.11-5.72H14.72v-.78h3.81v.7l-2.08,5.8Z" style="fill:#232f3e"/><path d="M19.85,43.21a3.34,3.34,0,0,1,.87-.46,2.51,2.51,0,0,1,.86-.15,1.55,1.55,0,0,1,1.19.45,1.78,1.78,0,0,1,.43,1.27,2.49,2.49,0,0,1-.18.9,5.8,5.8,0,0,1-.66,1.13c-.32.46-.86,1.15-1.63,2.09h2.71v.78H19.7v-.7c.67-.84,1.18-1.5,1.54-2A8.28,8.28,0,0,0,22,45.31a2.12,2.12,0,0,0,.23-.93c0-.65-.27-1-.8-1a3.14,3.14,0,0,0-1.57.6Z" style="fill:#232f3e"/><path d="M25.07,49.31a.57.57,0,0,1-.43-.16.6.6,0,0,1-.17-.44.58.58,0,0,1,.6-.6.56.56,0,0,1,.43.17.58.58,0,0,1,.17.43.6.6,0,0,1-.17.44A.56.56,0,0,1,25.07,49.31Z" style="fill:#232f3e"/><path d="M28.57,49.22V43.68l-1.49.7v-.77l1.57-.89h.86v6.5Z" style="fill:#232f3e"/><path d="M33.91,43.34a1.16,1.16,0,0,0-1,.56,3.73,3.73,0,0,0-.4,1.78,2.54,2.54,0,0,1,1.31-.38,1.54,1.54,0,0,1,1.21.52,2.06,2.06,0,0,1,.46,1.4,2.25,2.25,0,0,1-.52,1.55,1.8,1.8,0,0,1-1.4.57A1.67,1.67,0,0,1,32,48.57a4.53,4.53,0,0,1-.5-2.39,4.92,4.92,0,0,1,.6-2.66,1.88,1.88,0,0,1,1.68-.92,3.25,3.25,0,0,1,.69.08,2.78,2.78,0,0,1,.6.23v.68a3.83,3.83,0,0,0-.57-.18A2.58,2.58,0,0,0,33.91,43.34ZM33.51,46a2.47,2.47,0,0,0-1.06.26v.08a4.21,4.21,0,0,0,.26,1.7.89.89,0,0,0,.84.54c.63,0,.94-.44.94-1.32a1.45,1.45,0,0,0-.25-.93A.85.85,0,0,0,33.51,46Z" style="fill:#232f3e"/><path d="M37,49.31a.57.57,0,0,1-.43-.16.6.6,0,0,1-.17-.44.6.6,0,1,1,1.2,0,.6.6,0,0,1-.17.44A.57.57,0,0,1,37,49.31Z" style="fill:#232f3e"/><path d="M38.87,43.21a3.34,3.34,0,0,1,.87-.46,2.51,2.51,0,0,1,.86-.15,1.55,1.55,0,0,1,1.19.45,1.78,1.78,0,0,1,.43,1.27,2.49,2.49,0,0,1-.18.9,5.8,5.8,0,0,1-.66,1.13c-.32.46-.86,1.15-1.63,2.09h2.71v.78H38.72v-.7c.67-.84,1.18-1.5,1.54-2A8.28,8.28,0,0,0,41,45.31a2.12,2.12,0,0,0,.23-.93c0-.65-.27-1-.8-1a3.14,3.14,0,0,0-1.57.6Z" style="fill:#232f3e"/><path d="M44.09,49.31a.57.57,0,0,1-.43-.16.6.6,0,0,1-.17-.44.6.6,0,1,1,1.2,0,.6.6,0,0,1-.17.44A.57.57,0,0,1,44.09,49.31Z" style="fill:#232f3e"/><path d="M47.64,49.34a1.69,1.69,0,0,1-1.53-.86A4.88,4.88,0,0,1,45.58,46a4.86,4.86,0,0,1,.53-2.51,1.69,1.69,0,0,1,1.53-.86,1.67,1.67,0,0,1,1.52.86A4.86,4.86,0,0,1,49.69,46a4.86,4.86,0,0,1-.53,2.51A1.67,1.67,0,0,1,47.64,49.34Zm0-.76a.86.86,0,0,0,.82-.62,5.4,5.4,0,0,0,.26-2,5.36,5.36,0,0,0-.26-2,.86.86,0,0,0-1.65,0,5.58,5.58,0,0,0-.26,2,5.62,5.62,0,0,0,.26,2A.86.86,0,0,0,47.64,48.58Z" style="fill:#232f3e"/><rect x="7.5" y="7.97" width="45" height="12.19" style="fill:none;stroke:#232f3e;stroke-linejoin:round;stroke-width:2px"/><rect x="7.5" y="23.91" width="45" height="12.19" style="fill:none;stroke:#232f3e;stroke-linejoin:round;stroke-width:2px"/><rect x="7.5" y="39.84" width="45" height="12.19" style="fill:none;stroke:#232f3e;stroke-linejoin:round;stroke-width:2px"/></g></svg>