<svg xmlns="http://www.w3.org/2000/svg" width="60" height="60" viewBox="0 0 60 60"><title>architecture-resource_IOT_FireTV</title><g id="Background"><rect width="60" height="60" style="fill:#fff"/><path d="M59,1V59H1V1H59m1-1H0V60H60V0Z" style="fill:#232f3e"/></g><g id="Art"><rect x="7.5" y="14.53" width="45" height="25.31" style="fill:none;stroke:#232f3e;stroke-linejoin:round;stroke-width:2px"/><line x1="30" y1="39.84" x2="30" y2="45.47" style="fill:none;stroke:#232f3e;stroke-linejoin:round;stroke-width:2px"/><line x1="23.44" y1="45.47" x2="36.56" y2="45.47" style="fill:none;stroke:#232f3e;stroke-linejoin:round;stroke-width:2px"/><path d="M44.39,27.08A25.55,25.55,0,0,1,30,31.49a26.08,26.08,0,0,1-17.61-6.72c-.37-.33,0-.78.39-.52a35.59,35.59,0,0,0,17.63,4.67,35,35,0,0,0,13.45-2.75C44.48,25.89,45,26.61,44.39,27.08Z" style="fill:#232f3e;fill-rule:evenodd"/><path d="M46,25.23c-.5-.64-3.3-.3-4.55-.15-.38,0-.44-.29-.1-.53,2.23-1.57,5.89-1.12,6.32-.59s-.12,4.2-2.21,5.95c-.32.27-.63.12-.48-.23C45.46,28.5,46.51,25.87,46,25.23Z" style="fill:#232f3e;fill-rule:evenodd"/></g></svg>