<svg xmlns="http://www.w3.org/2000/svg" width="60" height="60" viewBox="0 0 60 60"><title>architecture-resource_general_Corporate-data-center</title><g id="Background"><rect width="60" height="60" style="fill:#fff"/><path d="M59,1V59H1V1H59m1-1H0V60H60V0Z" style="fill:#232f3e"/></g><g id="Art"><path d="M17.37,7.5H42.63A2.37,2.37,0,0,1,45,9.87V52.5a0,0,0,0,1,0,0H15a0,0,0,0,1,0,0V9.87A2.37,2.37,0,0,1,17.37,7.5Z" style="fill:none;stroke:#232f3e;stroke-linejoin:round;stroke-width:2px"/><rect x="20.63" y="11.25" width="3.75" height="6.56" style="fill:none;stroke:#232f3e;stroke-linejoin:round;stroke-width:2px"/><rect x="28.13" y="11.25" width="3.75" height="6.56" style="fill:none;stroke:#232f3e;stroke-linejoin:round;stroke-width:2px"/><rect x="35.63" y="11.25" width="3.75" height="6.56" style="fill:none;stroke:#232f3e;stroke-linejoin:round;stroke-width:2px"/><rect x="20.63" y="21.56" width="3.75" height="6.56" style="fill:none;stroke:#232f3e;stroke-linejoin:round;stroke-width:2px"/><rect x="28.13" y="21.56" width="3.75" height="6.56" style="fill:none;stroke:#232f3e;stroke-linejoin:round;stroke-width:2px"/><rect x="35.63" y="21.56" width="3.75" height="6.56" style="fill:none;stroke:#232f3e;stroke-linejoin:round;stroke-width:2px"/><rect x="20.63" y="31.88" width="3.75" height="6.56" style="fill:none;stroke:#232f3e;stroke-linejoin:round;stroke-width:2px"/><rect x="28.13" y="31.88" width="3.75" height="6.56" style="fill:none;stroke:#232f3e;stroke-linejoin:round;stroke-width:2px"/><rect x="35.63" y="31.88" width="3.75" height="6.56" style="fill:none;stroke:#232f3e;stroke-linejoin:round;stroke-width:2px"/></g></svg>