<svg xmlns="http://www.w3.org/2000/svg" width="60" height="60" viewBox="0 0 60 60"><title>architecture-resource_IOT_Thing-Travel</title><g id="Background"><rect width="60" height="60" style="fill:#fff"/><path d="M59,1V59H1V1H59m1-1H0V60H60V0Z" style="fill:#232f3e"/></g><g id="Art"><rect x="13.16" y="10.17" width="35.62" height="35.61" rx="2.13" ry="2.13" style="fill:none;stroke:#232f3e;stroke-miterlimit:10;stroke-width:2px"/><line x1="19.72" y1="4.53" x2="19.72" y2="10.16" style="fill:none;stroke:#232f3e;stroke-miterlimit:10;stroke-width:2px"/><line x1="25.34" y1="4.53" x2="25.34" y2="10.16" style="fill:none;stroke:#232f3e;stroke-miterlimit:10;stroke-width:2px"/><line x1="30.97" y1="4.53" x2="30.97" y2="10.16" style="fill:none;stroke:#232f3e;stroke-miterlimit:10;stroke-width:2px"/><line x1="36.59" y1="4.53" x2="36.59" y2="10.16" style="fill:none;stroke:#232f3e;stroke-miterlimit:10;stroke-width:2px"/><line x1="42.22" y1="4.53" x2="42.22" y2="10.16" style="fill:none;stroke:#232f3e;stroke-miterlimit:10;stroke-width:2px"/><line x1="19.72" y1="45.78" x2="19.72" y2="51.41" style="fill:none;stroke:#232f3e;stroke-miterlimit:10;stroke-width:2px"/><line x1="25.34" y1="45.78" x2="25.34" y2="51.41" style="fill:none;stroke:#232f3e;stroke-miterlimit:10;stroke-width:2px"/><line x1="30.97" y1="45.78" x2="30.97" y2="51.41" style="fill:none;stroke:#232f3e;stroke-miterlimit:10;stroke-width:2px"/><line x1="36.59" y1="45.78" x2="36.59" y2="51.41" style="fill:none;stroke:#232f3e;stroke-miterlimit:10;stroke-width:2px"/><line x1="42.22" y1="45.78" x2="42.22" y2="51.41" style="fill:none;stroke:#232f3e;stroke-miterlimit:10;stroke-width:2px"/><line x1="13.16" y1="16.72" x2="7.53" y2="16.72" style="fill:none;stroke:#232f3e;stroke-miterlimit:10;stroke-width:2px"/><line x1="13.16" y1="22.34" x2="7.53" y2="22.34" style="fill:none;stroke:#232f3e;stroke-miterlimit:10;stroke-width:2px"/><line x1="13.16" y1="27.97" x2="7.53" y2="27.97" style="fill:none;stroke:#232f3e;stroke-miterlimit:10;stroke-width:2px"/><line x1="13.16" y1="33.59" x2="7.53" y2="33.59" style="fill:none;stroke:#232f3e;stroke-miterlimit:10;stroke-width:2px"/><line x1="13.16" y1="39.22" x2="7.53" y2="39.22" style="fill:none;stroke:#232f3e;stroke-miterlimit:10;stroke-width:2px"/><line x1="54.41" y1="16.72" x2="48.78" y2="16.72" style="fill:none;stroke:#232f3e;stroke-miterlimit:10;stroke-width:2px"/><line x1="54.41" y1="22.34" x2="48.78" y2="22.34" style="fill:none;stroke:#232f3e;stroke-miterlimit:10;stroke-width:2px"/><line x1="54.41" y1="27.97" x2="48.78" y2="27.97" style="fill:none;stroke:#232f3e;stroke-miterlimit:10;stroke-width:2px"/><line x1="54.41" y1="33.59" x2="48.78" y2="33.59" style="fill:none;stroke:#232f3e;stroke-miterlimit:10;stroke-width:2px"/><line x1="54.41" y1="39.22" x2="48.78" y2="39.22" style="fill:none;stroke:#232f3e;stroke-miterlimit:10;stroke-width:2px"/><path d="M43.6,15.27a2.54,2.54,0,0,1,.24,2.45,5.92,5.92,0,0,1-1.33,2.44l-4.19,3.92L41.54,38,38.82,40.7l-5.43-12-5.23,4.84v6.57L26.27,42l-2.12-7.31-7.24-2.06,1.87-1.88h6.57l4.77-5.29L18.17,20.05l2.72-2.71,13.9,3.21,3.92-4.19C39.76,15.31,42.55,14.22,43.6,15.27Z" style="fill:none;stroke:#232f3e;stroke-linejoin:round;stroke-width:2px"/><path d="M26.38,18.6l3.12-3.11a1.41,1.41,0,0,1,2,0h0a1.39,1.39,0,0,1,0,2l-1.88,1.88" style="fill:none;stroke:#232f3e;stroke-linejoin:round;stroke-width:2px"/><path d="M40.28,32.51l3.12-3.12a1.41,1.41,0,0,0,0-2h0a1.41,1.41,0,0,0-2,0l-1.87,1.88" style="fill:none;stroke:#232f3e;stroke-linejoin:round;stroke-width:2px"/></g></svg>