<svg xmlns="http://www.w3.org/2000/svg" width="60" height="60" viewBox="0 0 60 60"><title>architecture-resource_VPC_Elastic-Network-Interface</title><g id="Background"><rect width="60" height="60" style="fill:#fff"/><path d="M59,1V59H1V1H59m1-1H0V60H60V0Z" style="fill:#232f3e"/></g><g id="Art"><circle cx="30" cy="30" r="22.5" style="fill:none;stroke:#232f3e;stroke-linejoin:round;stroke-width:2px"/><polyline points="15.38 20.63 18.75 20.63 18.75 41.25 15.38 41.25" style="fill:none;stroke:#232f3e;stroke-linejoin:round;stroke-width:2px"/><polygon points="45.94 22.5 45.94 36.56 42.19 36.56 42.19 39.38 37.5 39.38 37.5 36.56 33.75 36.56 33.75 39.38 24.38 39.38 24.38 36.56 22.5 36.56 22.5 22.5 45.94 22.5" style="fill:none;stroke:#232f3e;stroke-linejoin:round;stroke-width:2px"/><rect x="27.19" y="26.25" width="13.13" height="6.56" style="fill:none;stroke:#232f3e;stroke-linejoin:round;stroke-width:2px"/><line x1="33.75" y1="26.25" x2="33.75" y2="32.81" style="fill:none;stroke:#232f3e;stroke-linejoin:round;stroke-width:2px"/></g></svg>