<svg xmlns="http://www.w3.org/2000/svg" width="60" height="60" viewBox="0 0 60 60"><title>architecture-resource_Kinesis_Analytics</title><g id="Background"><rect width="60" height="60" style="fill:#fff"/><path d="M59,1V59H1V1H59m1-1H0V60H60V0Z" style="fill:#232f3e"/></g><g id="Art"><path d="M53.4,26.25H45.15C24.38,26.25,7.53,18.07,7.53,8a9.57,9.57,0,0,1,.11-1.41" style="fill:none;stroke:#232f3e;stroke-miterlimit:10;stroke-width:2px"/><path d="M6.6,21.56c2.85,4,10.33,6.26,18.85,7.42" style="fill:none;stroke:#232f3e;stroke-miterlimit:10;stroke-width:2px"/><path d="M6.6,38.44c2.85-4,10.33-6.26,18.85-7.41" style="fill:none;stroke:#232f3e;stroke-miterlimit:10;stroke-width:2px"/><path d="M18.8,6.56c0,.22,0,1.77,0,2,0,8.44,13.8,14,30.83,14h3.8" style="fill:none;stroke:#232f3e;stroke-miterlimit:10;stroke-width:2px"/><path d="M7.64,53.44A9.57,9.57,0,0,1,7.53,52c0-6.59,7.17-12.36,17.92-15.57" style="fill:none;stroke:#232f3e;stroke-miterlimit:10;stroke-width:2px"/><path d="M25.45,42.47c-4.18,2.32-6.69,5.39-6.69,9,0,.22,0,1.77,0,2" style="fill:none;stroke:#232f3e;stroke-miterlimit:10;stroke-width:2px"/><rect x="38.64" y="40.29" width="3.68" height="12.21" transform="translate(80.96 92.79) rotate(-180)" style="fill:none;stroke:#232f3e;stroke-linejoin:round;stroke-width:2px"/><rect x="31.07" y="43.08" width="3.75" height="9.42" transform="translate(65.9 95.58) rotate(-180)" style="fill:none;stroke:#232f3e;stroke-linejoin:round;stroke-width:2px"/><rect x="46.07" y="36.56" width="3.75" height="15.94" transform="translate(95.9 89.06) rotate(-180)" style="fill:none;stroke:#232f3e;stroke-linejoin:round;stroke-width:2px"/><rect x="28.26" y="31.88" width="24.38" height="20.63" style="fill:none;stroke:#232f3e;stroke-linejoin:round;stroke-width:2px"/></g></svg>