<svg xmlns="http://www.w3.org/2000/svg" width="60" height="60" viewBox="0 0 60 60"><title>architecture-resource_EC2_Instances</title><g id="Background"><rect width="60" height="60" style="fill:#fff"/><path d="M59,1V59H1V1H59m1-1H0V60H60V0Z" style="fill:#232f3e"/></g><g id="Art"><path d="M52.5,31.21V51.35a1.14,1.14,0,0,1-1.15,1.15H31.15A1.14,1.14,0,0,1,30,51.35V31.21A1.21,1.21,0,0,1,31.21,30H51.29A1.21,1.21,0,0,1,52.5,31.21Z" style="fill:none;stroke:#232f3e;stroke-linejoin:round;stroke-width:2px"/><path d="M40.31,27.19V20a1.21,1.21,0,0,0-1.21-1.21H19A1.22,1.22,0,0,0,17.81,20V40A1.22,1.22,0,0,0,19,41.25h8.09" style="fill:none;stroke:#232f3e;stroke-linejoin:round;stroke-width:2px"/><path d="M15,30H8.71A1.21,1.21,0,0,1,7.5,28.79V8.71A1.21,1.21,0,0,1,8.71,7.5H28.79A1.21,1.21,0,0,1,30,8.71v7.23" style="fill:none;stroke:#232f3e;stroke-linejoin:round;stroke-width:2px"/></g></svg>