<svg xmlns="http://www.w3.org/2000/svg" width="60" height="60" viewBox="0 0 60 60"><title>architecture-resource_IOT_Thing-Medical-emergency</title><g id="Background"><rect width="60" height="60" style="fill:#fff"/><path d="M59,1V59H1V1H59m1-1H0V60H60V0Z" style="fill:#232f3e"/></g><g id="Art"><rect x="12.19" y="12.2" width="35.62" height="35.61" rx="2.13" ry="2.13" style="fill:none;stroke:#232f3e;stroke-miterlimit:10;stroke-width:2px"/><line x1="18.75" y1="6.56" x2="18.75" y2="12.19" style="fill:none;stroke:#232f3e;stroke-miterlimit:10;stroke-width:2px"/><line x1="24.38" y1="6.56" x2="24.38" y2="12.19" style="fill:none;stroke:#232f3e;stroke-miterlimit:10;stroke-width:2px"/><line x1="30" y1="6.56" x2="30" y2="12.19" style="fill:none;stroke:#232f3e;stroke-miterlimit:10;stroke-width:2px"/><line x1="35.63" y1="6.56" x2="35.63" y2="12.19" style="fill:none;stroke:#232f3e;stroke-miterlimit:10;stroke-width:2px"/><line x1="41.25" y1="6.56" x2="41.25" y2="12.19" style="fill:none;stroke:#232f3e;stroke-miterlimit:10;stroke-width:2px"/><line x1="18.75" y1="47.81" x2="18.75" y2="53.44" style="fill:none;stroke:#232f3e;stroke-miterlimit:10;stroke-width:2px"/><line x1="24.38" y1="47.81" x2="24.38" y2="53.44" style="fill:none;stroke:#232f3e;stroke-miterlimit:10;stroke-width:2px"/><line x1="30" y1="47.81" x2="30" y2="53.44" style="fill:none;stroke:#232f3e;stroke-miterlimit:10;stroke-width:2px"/><line x1="35.63" y1="47.81" x2="35.63" y2="53.44" style="fill:none;stroke:#232f3e;stroke-miterlimit:10;stroke-width:2px"/><line x1="41.25" y1="47.81" x2="41.25" y2="53.44" style="fill:none;stroke:#232f3e;stroke-miterlimit:10;stroke-width:2px"/><line x1="12.19" y1="18.75" x2="6.56" y2="18.75" style="fill:none;stroke:#232f3e;stroke-miterlimit:10;stroke-width:2px"/><line x1="12.19" y1="24.38" x2="6.56" y2="24.38" style="fill:none;stroke:#232f3e;stroke-miterlimit:10;stroke-width:2px"/><line x1="12.19" y1="30" x2="6.56" y2="30" style="fill:none;stroke:#232f3e;stroke-miterlimit:10;stroke-width:2px"/><line x1="12.19" y1="35.63" x2="6.56" y2="35.63" style="fill:none;stroke:#232f3e;stroke-miterlimit:10;stroke-width:2px"/><line x1="12.19" y1="41.25" x2="6.56" y2="41.25" style="fill:none;stroke:#232f3e;stroke-miterlimit:10;stroke-width:2px"/><line x1="53.44" y1="18.75" x2="47.81" y2="18.75" style="fill:none;stroke:#232f3e;stroke-miterlimit:10;stroke-width:2px"/><line x1="53.44" y1="24.38" x2="47.81" y2="24.38" style="fill:none;stroke:#232f3e;stroke-miterlimit:10;stroke-width:2px"/><line x1="53.44" y1="30" x2="47.81" y2="30" style="fill:none;stroke:#232f3e;stroke-miterlimit:10;stroke-width:2px"/><line x1="53.44" y1="35.63" x2="47.81" y2="35.63" style="fill:none;stroke:#232f3e;stroke-miterlimit:10;stroke-width:2px"/><line x1="53.44" y1="41.25" x2="47.81" y2="41.25" style="fill:none;stroke:#232f3e;stroke-miterlimit:10;stroke-width:2px"/><rect x="19.69" y="19.69" width="20.63" height="20.63" style="fill:none;stroke:#232f3e;stroke-linejoin:round;stroke-width:2px"/><polygon points="36.56 28.13 36.56 31.88 31.88 31.88 31.88 36.56 28.13 36.56 28.13 31.88 23.44 31.88 23.44 28.13 28.13 28.13 28.13 23.44 31.88 23.44 31.88 28.13 36.56 28.13" style="fill:none;stroke:#232f3e;stroke-linejoin:round;stroke-width:2px"/></g></svg>