<svg xmlns="http://www.w3.org/2000/svg" width="60" height="60" viewBox="0 0 60 60"><title>architecture-resource_general_Internet-alt2</title><g id="Background"><rect width="60" height="60" style="fill:#fff"/><path d="M59,1V59H1V1H59m1-1H0V60H60V0Z" style="fill:#232f3e"/></g><g id="Art"><path d="M12.75,26.75h0M39.38,43.86h5c3.18,0,8.1-1,8.1-7.47,0-5.67-4.56-7.35-7.31-7.92-.24-3.95-2.64-5.83-5-5.83a4.76,4.76,0,0,0-3.79,1.93,13.32,13.32,0,0,0-3.16-5,11.6,11.6,0,0,0-12.84-2.48A11.63,11.63,0,0,0,13.6,27.25a10.28,10.28,0,0,0,.09,1.37c-2.92.72-6.19,2.85-6.19,7.69,0,.2,0,.39,0,.57.23,4.18,3.76,7,8.08,7H39.38Z" style="fill:none;stroke:#232f3e;stroke-linejoin:round;stroke-width:2px"/><path d="M24,39.41a8.2,8.2,0,0,1,11-.24" style="fill:none;stroke:#232f3e;stroke-linejoin:round;stroke-width:2px"/><path d="M21.29,36.58a12.1,12.1,0,0,1,16.3-.36" style="fill:none;stroke:#232f3e;stroke-linejoin:round;stroke-width:2px"/><path d="M18.59,33.74a16,16,0,0,1,21.56-.47" style="fill:none;stroke:#232f3e;stroke-linejoin:round;stroke-width:2px"/></g></svg>