<svg xmlns="http://www.w3.org/2000/svg" width="60" height="60" viewBox="0 0 60 60"><title>architecture-resource_DynamoDB_Global-secondary-index</title><g id="Background"><rect width="60" height="60" style="fill:#fff"/><path d="M59,1V59H1V1H59m1-1H0V60H60V0Z" style="fill:#232f3e"/></g><g id="Art"><rect x="7.5" y="7.5" width="7.5" height="8.44" style="fill:none;stroke:#232f3e;stroke-miterlimit:10;stroke-width:2px"/><rect x="7.5" y="19.69" width="7.5" height="8.44" style="fill:none;stroke:#232f3e;stroke-miterlimit:10;stroke-width:2px"/><rect x="7.5" y="31.88" width="7.5" height="8.44" style="fill:none;stroke:#232f3e;stroke-miterlimit:10;stroke-width:2px"/><rect x="7.5" y="44.06" width="7.5" height="8.44" style="fill:none;stroke:#232f3e;stroke-miterlimit:10;stroke-width:2px"/><rect x="18.75" y="7.5" width="7.5" height="8.44" style="fill:none;stroke:#232f3e;stroke-miterlimit:10;stroke-width:2px"/><rect x="18.75" y="19.69" width="7.5" height="8.44" style="fill:none;stroke:#232f3e;stroke-miterlimit:10;stroke-width:2px"/><rect x="18.75" y="31.88" width="7.5" height="8.44" style="fill:none;stroke:#232f3e;stroke-miterlimit:10;stroke-width:2px"/><rect x="18.75" y="44.06" width="7.5" height="8.44" style="fill:none;stroke:#232f3e;stroke-miterlimit:10;stroke-width:2px"/><rect x="30" y="7.5" width="22.5" height="8.44" style="fill:none;stroke:#232f3e;stroke-miterlimit:10;stroke-width:2px"/><rect x="30" y="19.69" width="22.5" height="8.44" style="fill:none;stroke:#232f3e;stroke-miterlimit:10;stroke-width:2px"/><rect x="30" y="31.88" width="22.5" height="8.44" style="fill:none;stroke:#232f3e;stroke-miterlimit:10;stroke-width:2px"/><rect x="30" y="44.06" width="22.5" height="8.44" style="fill:none;stroke:#232f3e;stroke-miterlimit:10;stroke-width:2px"/></g></svg>