<svg xmlns="http://www.w3.org/2000/svg" width="60" height="60" viewBox="0 0 60 60"><title>architecture-resource_Cloud-Formation_Change-set</title><g id="Background"><rect width="60" height="60" style="fill:#fff"/><path d="M59,1V59H1V1H59m1-1H0V60H60V0Z" style="fill:#232f3e"/></g><g id="Art"><rect x="11.25" y="7.5" width="37.5" height="45" style="fill:none;stroke:#232f3e;stroke-linejoin:round;stroke-width:2px"/><rect x="15" y="13.13" width="6.56" height="6.56" style="fill:none;stroke:#232f3e;stroke-linejoin:round;stroke-width:2px"/><circle cx="18.28" cy="30.47" r="3.28" style="fill:none;stroke:#232f3e;stroke-linejoin:round;stroke-width:2px"/><ellipse cx="18.28" cy="45" rx="3.28" ry="4.69" style="fill:none;stroke:#232f3e;stroke-linejoin:round;stroke-width:2px"/><ellipse cx="41.72" cy="30.47" rx="4.22" ry="2.34" style="fill:none;stroke:#232f3e;stroke-linejoin:round;stroke-width:2px"/><polygon points="36.56 19.69 45 19.69 40.78 12.19 36.56 19.69" style="fill:none;stroke:#232f3e;stroke-linejoin:round;stroke-width:2px"/><line x1="38.44" y1="42.19" x2="45" y2="48.75" style="fill:none;stroke:#232f3e;stroke-linejoin:round;stroke-width:2px"/><line x1="45" y1="42.19" x2="38.44" y2="48.75" style="fill:none;stroke:#232f3e;stroke-linejoin:round;stroke-width:2px"/><polyline points="30.94 13.13 33.75 15.94 30.94 18.75" style="fill:none;stroke:#232f3e;stroke-linejoin:round;stroke-width:2px"/><line x1="32.81" y1="15.94" x2="24.38" y2="15.94" style="fill:none;stroke:#232f3e;stroke-linejoin:round;stroke-width:2px"/><polyline points="30.94 28.13 33.75 30.94 30.94 33.75" style="fill:none;stroke:#232f3e;stroke-linejoin:round;stroke-width:2px"/><line x1="32.81" y1="30.94" x2="24.38" y2="30.94" style="fill:none;stroke:#232f3e;stroke-linejoin:round;stroke-width:2px"/><polyline points="30.94 43.13 33.75 45.94 30.94 48.75" style="fill:none;stroke:#232f3e;stroke-linejoin:round;stroke-width:2px"/><line x1="32.81" y1="45.94" x2="24.38" y2="45.94" style="fill:none;stroke:#232f3e;stroke-linejoin:round;stroke-width:2px"/></g></svg>