<svg xmlns="http://www.w3.org/2000/svg" width="60" height="60" viewBox="0 0 60 60"><title>architecture-resource_IOT_Thing-Police-emergency</title><g id="Background"><rect width="60" height="60" style="fill:#fff"/><path d="M59,1V59H1V1H59m1-1H0V60H60V0Z" style="fill:#232f3e"/></g><g id="Art"><rect x="13.16" y="10.17" width="35.62" height="35.61" rx="2.13" ry="2.13" style="fill:none;stroke:#232f3e;stroke-miterlimit:10;stroke-width:2px"/><line x1="19.72" y1="4.53" x2="19.72" y2="10.16" style="fill:none;stroke:#232f3e;stroke-miterlimit:10;stroke-width:2px"/><line x1="25.34" y1="4.53" x2="25.34" y2="10.16" style="fill:none;stroke:#232f3e;stroke-miterlimit:10;stroke-width:2px"/><line x1="30.97" y1="4.53" x2="30.97" y2="10.16" style="fill:none;stroke:#232f3e;stroke-miterlimit:10;stroke-width:2px"/><line x1="36.59" y1="4.53" x2="36.59" y2="10.16" style="fill:none;stroke:#232f3e;stroke-miterlimit:10;stroke-width:2px"/><line x1="42.22" y1="4.53" x2="42.22" y2="10.16" style="fill:none;stroke:#232f3e;stroke-miterlimit:10;stroke-width:2px"/><line x1="19.72" y1="45.78" x2="19.72" y2="51.41" style="fill:none;stroke:#232f3e;stroke-miterlimit:10;stroke-width:2px"/><line x1="25.34" y1="45.78" x2="25.34" y2="51.41" style="fill:none;stroke:#232f3e;stroke-miterlimit:10;stroke-width:2px"/><line x1="30.97" y1="45.78" x2="30.97" y2="51.41" style="fill:none;stroke:#232f3e;stroke-miterlimit:10;stroke-width:2px"/><line x1="36.59" y1="45.78" x2="36.59" y2="51.41" style="fill:none;stroke:#232f3e;stroke-miterlimit:10;stroke-width:2px"/><line x1="42.22" y1="45.78" x2="42.22" y2="51.41" style="fill:none;stroke:#232f3e;stroke-miterlimit:10;stroke-width:2px"/><line x1="13.16" y1="16.72" x2="7.53" y2="16.72" style="fill:none;stroke:#232f3e;stroke-miterlimit:10;stroke-width:2px"/><line x1="13.16" y1="22.34" x2="7.53" y2="22.34" style="fill:none;stroke:#232f3e;stroke-miterlimit:10;stroke-width:2px"/><line x1="13.16" y1="27.97" x2="7.53" y2="27.97" style="fill:none;stroke:#232f3e;stroke-miterlimit:10;stroke-width:2px"/><line x1="13.16" y1="33.59" x2="7.53" y2="33.59" style="fill:none;stroke:#232f3e;stroke-miterlimit:10;stroke-width:2px"/><line x1="13.16" y1="39.22" x2="7.53" y2="39.22" style="fill:none;stroke:#232f3e;stroke-miterlimit:10;stroke-width:2px"/><line x1="54.41" y1="16.72" x2="48.78" y2="16.72" style="fill:none;stroke:#232f3e;stroke-miterlimit:10;stroke-width:2px"/><line x1="54.41" y1="22.34" x2="48.78" y2="22.34" style="fill:none;stroke:#232f3e;stroke-miterlimit:10;stroke-width:2px"/><line x1="54.41" y1="27.97" x2="48.78" y2="27.97" style="fill:none;stroke:#232f3e;stroke-miterlimit:10;stroke-width:2px"/><line x1="54.41" y1="33.59" x2="48.78" y2="33.59" style="fill:none;stroke:#232f3e;stroke-miterlimit:10;stroke-width:2px"/><line x1="54.41" y1="39.22" x2="48.78" y2="39.22" style="fill:none;stroke:#232f3e;stroke-miterlimit:10;stroke-width:2px"/><path d="M31,40.16a13.79,13.79,0,0,0-5.26-2.34c-2.89-.52-5.52-2.08-5.52-4.94s2.1-3.89,2.1-6.23a5.29,5.29,0,0,0-1.81-3.8s2.65-3.21,3.26-4.05a5.11,5.11,0,0,0,3.65,1.8,4.3,4.3,0,0,0,3.58-2,4.3,4.3,0,0,0,3.58,2,5.11,5.11,0,0,0,3.65-1.8c.61.84,3.25,4.05,3.25,4.05a5.29,5.29,0,0,0-1.8,3.8c0,2.34,2.1,3.37,2.1,6.23s-2.63,4.42-5.52,4.94A13.79,13.79,0,0,0,31,40.16Z" style="fill:none;stroke:#232f3e;stroke-miterlimit:10;stroke-width:2px"/></g></svg>