<svg xmlns="http://www.w3.org/2000/svg" width="60" height="60" viewBox="0 0 60 60"><title>architecture-resource_Systems-Manager_Automation</title><g id="Background"><rect width="60" height="60" style="fill:#fff"/><path d="M59,1V59H1V1H59m1-1H0V60H60V0Z" style="fill:#232f3e"/></g><g id="Art"><path d="M48.76,25.74a19.13,19.13,0,0,0-2.48-6l2.79-2.49-6.32-6.32-2.5,2.8a18.94,18.94,0,0,0-6-2.48l.21-3.75H25.53l.21,3.74a19.21,19.21,0,0,0-6,2.48l-2.5-2.79-6.32,6.32,2.8,2.5a19.19,19.19,0,0,0-2.49,6L7.5,25.53v8.94l3.73-.21a19.27,19.27,0,0,0,2.48,6l-2.78,2.49,6.32,6.32,2.49-2.78a19.39,19.39,0,0,0,6,2.49l-.21,3.72h8.94l-.21-3.72a19.2,19.2,0,0,0,6-2.49l2.48,2.78,6.32-6.32-2.79-2.49a19.15,19.15,0,0,0,2.49-6l3.73.21V25.53Z" style="fill:none;stroke:#232f3e;stroke-linejoin:round;stroke-width:2px"/><path d="M19.58,32.51a10.78,10.78,0,0,0,21.05-.35" style="fill:none;stroke:#232f3e;stroke-linejoin:round;stroke-width:2px"/><path d="M19.5,27.84A10.79,10.79,0,0,1,40.42,27" style="fill:none;stroke:#232f3e;stroke-linejoin:round;stroke-width:2px"/><polygon points="36.23 25.62 36.6 24.89 40.21 26.71 41.77 22.98 42.53 23.3 40.63 27.84 36.23 25.62" style="fill:#232f3e"/><polyline points="17.85 39.34 19.28 32.47 26.47 33.59" style="fill:none;stroke:#232f3e;stroke-linejoin:round;stroke-width:2px"/><polyline points="44.03 21.58 40.84 27.84 34.2 24.88" style="fill:none;stroke:#232f3e;stroke-linejoin:round;stroke-width:2px"/></g></svg>