<svg xmlns="http://www.w3.org/2000/svg" width="60" height="60" viewBox="0 0 60 60"><title>architecture-resource_EC2_Spot-fleet</title><g id="Background"><rect width="60" height="60" style="fill:#fff"/><path d="M59,1V59H1V1H59m1-1H0V60H60V0Z" style="fill:#232f3e"/></g><g id="Art"><line x1="31.87" y1="11.25" x2="33.87" y2="11.25" style="fill:none;stroke:#232f3e;stroke-linejoin:round;stroke-width:2px"/><path d="M37.93,11.25h8a4.68,4.68,0,0,1,4.67,4.68V47.82A4.68,4.68,0,0,1,46,52.5H14.05a4.68,4.68,0,0,1-4.67-4.68V15.93A4.66,4.66,0,0,1,10,13.67" style="fill:none;stroke:#232f3e;stroke-linejoin:round;stroke-width:2px;stroke-dasharray:4.06553316116333,4.06553316116333"/><path d="M11.3,12.15a4.69,4.69,0,0,1,1.82-.81" style="fill:none;stroke:#232f3e;stroke-linejoin:round;stroke-width:2px"/><rect x="13.12" y="7.5" width="18.75" height="18.75" style="fill:none;stroke:#232f3e;stroke-linejoin:round;stroke-width:2px"/><text transform="translate(17.82 21.56)" style="font-size:15.9375px;fill:#232f3e;font-family:AmazonEmber-Medium, Amazon Ember">¢</text></g></svg>