<svg xmlns="http://www.w3.org/2000/svg" width="60" height="60" viewBox="0 0 60 60"><title>architecture-resource_IOT_HTTP-2-protocol</title><g id="Background"><rect width="60" height="60" style="fill:#fff"/><path d="M59,1V59H1V1H59m1-1H0V60H60V0Z" style="fill:#232f3e"/></g><g id="Art"><text transform="translate(18.35 49.52)" style="font-size:11.25px;fill:#232f3e;font-family:AmazonEmberCd-Regular, Amazon Ember Cd">H<tspan x="6.71" y="0" style="letter-spacing:0.029991319444444445em">T</tspan><tspan x="12.33" y="0" style="letter-spacing:0.00004340277777777778em">T</tspan><tspan x="17.62" y="0" style="letter-spacing:-0.05499131944444444em">P</tspan><tspan x="22.71" y="0">/2</tspan></text><path d="M14.06,52.33H12.61A5.11,5.11,0,0,1,7.5,47.22V12.44a5.11,5.11,0,0,1,5.11-5.11H47.39a5.11,5.11,0,0,1,5.11,5.11v23" style="fill:none;stroke:#232f3e;stroke-linejoin:round;stroke-width:2px"/><rect x="16.88" y="38.27" width="35.63" height="14.06" style="fill:none;stroke:#232f3e;stroke-miterlimit:10;stroke-width:2px"/><polyline points="52.5 47.22 52.5 52.33 47.39 52.33" style="fill:none;stroke:#232f3e;stroke-miterlimit:10;stroke-width:2px"/></g></svg>