<svg xmlns="http://www.w3.org/2000/svg" width="60" height="60" viewBox="0 0 60 60"><title>architecture-resource_IOT_Hardware-board</title><g id="Background"><rect width="60" height="60" style="fill:#fff"/><path d="M59,1V59H1V1H59m1-1H0V60H60V0Z" style="fill:#232f3e"/></g><g id="Art"><rect x="7.5" y="18.75" width="45" height="22.5" style="fill:none;stroke:#232f3e;stroke-linejoin:round;stroke-width:2px"/><path d="M24.84,15.28a5.34,5.34,0,0,1,10.32,0" style="fill:none;stroke:#232f3e;stroke-linejoin:round;stroke-width:2px"/><path d="M21.56,13.08a9.17,9.17,0,0,1,16.88,0" style="fill:none;stroke:#232f3e;stroke-linejoin:round;stroke-width:2px"/><path d="M35.16,44.72a5.34,5.34,0,0,1-10.32,0" style="fill:none;stroke:#232f3e;stroke-linejoin:round;stroke-width:2px"/><path d="M38.44,46.92a9.17,9.17,0,0,1-16.88,0" style="fill:none;stroke:#232f3e;stroke-linejoin:round;stroke-width:2px"/><circle cx="13.13" cy="33.28" r="2.34" style="fill:#232f3e"/><line x1="13.13" y1="41.25" x2="13.13" y2="34.69" style="fill:none;stroke:#232f3e;stroke-miterlimit:10;stroke-width:2px"/><circle cx="14.55" cy="24.87" r="2.34" style="fill:#232f3e"/><polyline points="20.63 41.25 20.63 30.94 15 25.31" style="fill:none;stroke:#232f3e;stroke-miterlimit:10;stroke-width:2px"/><rect x="43.13" y="24.38" width="5.63" height="5.63" style="fill:none;stroke:#232f3e;stroke-miterlimit:10;stroke-width:2px"/><circle cx="36.09" cy="27.19" r="2.34" style="fill:#232f3e"/><line x1="43.13" y1="27.19" x2="36.56" y2="27.19" style="fill:none;stroke:#232f3e;stroke-miterlimit:10;stroke-width:2px"/><circle cx="32.81" cy="35.63" r="2.34" style="fill:#232f3e"/><line x1="52.5" y1="35.63" x2="34.69" y2="35.63" style="fill:none;stroke:#232f3e;stroke-miterlimit:10;stroke-width:2px"/><circle cx="27.66" cy="29.53" r="2.34" style="fill:#232f3e"/><polyline points="21.56 18.75 21.59 23.46 27.21 29.09" style="fill:none;stroke:#232f3e;stroke-miterlimit:10;stroke-width:2px"/></g></svg>