<svg xmlns="http://www.w3.org/2000/svg" width="60" height="60" viewBox="0 0 60 60"><title>architecture-resource_Route-53_Hosted-zone</title><g id="Background"><rect width="60" height="60" style="fill:#fff"/><path d="M59,1V59H1V1H59m1-1H0V60H60V0Z" style="fill:#232f3e"/></g><g id="Art"><path d="M30,52.5a28.65,28.65,0,0,0-11-4.88C13,46.54,7.5,43.28,7.5,37.32s4.39-8.13,4.39-13a11,11,0,0,0-3.77-7.93s5.52-6.69,6.8-8.44a10.62,10.62,0,0,0,7.61,3.74c2.74,0,5.12-1.11,7.47-4.18,2.35,3.07,4.73,4.18,7.47,4.18a10.62,10.62,0,0,0,7.61-3.74c1.28,1.75,6.8,8.44,6.8,8.44a11,11,0,0,0-3.77,7.93c0,4.88,4.39,7.05,4.39,13S47,46.54,41,47.62A28.65,28.65,0,0,0,30,52.5Z" style="fill:none;stroke:#232f3e;stroke-miterlimit:10;stroke-width:2px"/></g></svg>