<svg xmlns="http://www.w3.org/2000/svg" width="60" height="60" viewBox="0 0 60 60"><title>architecture-resource_VPC_VPN-Connection</title><g id="Background"><rect width="60" height="60" style="fill:#fff"/><path d="M59,1V59H1V1H59m1-1H0V60H60V0Z" style="fill:#232f3e"/></g><g id="Art"><rect x="15.29" y="29.07" width="29.99" height="23.43" style="fill:none;stroke:#232f3e;stroke-linejoin:round;stroke-width:2px"/><path d="M33.43,36.61a3.14,3.14,0,1,1-3.14-3.14A3.14,3.14,0,0,1,33.43,36.61Z" style="fill:none;stroke:#232f3e;stroke-linejoin:round;stroke-width:2px"/><line x1="30.29" y1="39.87" x2="30.29" y2="46.18" style="fill:#6b6b6b;stroke:#232f3e;stroke-linejoin:round;stroke-width:2px"/><line x1="20.98" y1="23.44" x2="20.98" y2="29.06" style="fill:none;stroke:#232f3e;stroke-linejoin:round;stroke-width:2px"/><line x1="39.7" y1="29.06" x2="39.7" y2="23.44" style="fill:none;stroke:#232f3e;stroke-linejoin:round;stroke-width:2px"/><path d="M21,17.77v-.42A9.64,9.64,0,0,1,30.36,7.5h0c5.18,0,9.31,4.49,9.3,10v.32" style="fill:none;stroke:#232f3e;stroke-linejoin:round;stroke-width:2px"/><polyline points="45.23 15.97 50.03 20.58 45.35 25.31" style="fill:none;stroke:#232f3e;stroke-linejoin:round;stroke-width:2px"/><line x1="50.23" y1="20.65" x2="9.94" y2="20.65" style="fill:none;stroke:#232f3e;stroke-linejoin:round;stroke-width:2px"/><polyline points="14.5 25.29 9.77 20.61 14.5 15.94" style="fill:none;stroke:#232f3e;stroke-linejoin:round;stroke-width:2px"/></g></svg>