<svg xmlns="http://www.w3.org/2000/svg" width="60" height="60" viewBox="0 0 60 60"><title>architecture-resource_IAM_Encrypted-data</title><g id="Background"><rect width="60" height="60" style="fill:#fff"/><path d="M59,1V59H1V1H59m1-1H0V60H60V0Z" style="fill:#232f3e"/></g><g id="Art"><path d="M47.81,17.81v33a1.7,1.7,0,0,1-1.69,1.7H13.88a1.7,1.7,0,0,1-1.69-1.7V9.2a1.7,1.7,0,0,1,1.69-1.7H37.5Z" style="fill:none;stroke:#232f3e;stroke-miterlimit:10;stroke-width:2px"/><rect x="19.73" y="29.07" width="20.58" height="16.87" style="fill:none;stroke:#232f3e;stroke-linejoin:round;stroke-width:2px"/><path d="M35.61,29.06V24.59A5.72,5.72,0,0,0,30,18.75h0a5.72,5.72,0,0,0-5.64,5.78l0,4.51" style="fill:none;stroke:#232f3e;stroke-linejoin:round;stroke-width:2px"/><line x1="47.81" y1="31.32" x2="47.81" y2="18.44" style="fill:none;stroke:#232f3e;stroke-linejoin:round;stroke-width:2px"/><polyline points="37.5 7.5 37.5 17.81 47.81 17.81" style="fill:none;stroke:#232f3e;stroke-linejoin:round;stroke-width:2px"/><path d="M32.21,35.31A2.21,2.21,0,1,1,30,33.1,2.21,2.21,0,0,1,32.21,35.31Z" style="fill:none;stroke:#232f3e;stroke-linejoin:round;stroke-width:2px"/><line x1="30" y1="37.5" x2="30" y2="42.19" style="fill:#6b6b6b;stroke:#232f3e;stroke-linejoin:round;stroke-width:2px"/></g></svg>