<svg xmlns="http://www.w3.org/2000/svg" width="60" height="60" viewBox="0 0 60 60"><title>architecture-resource_VPC_Elastic-Network-Adapter</title><g id="Background"><rect width="60" height="60" style="fill:#fff"/><path d="M59,1V59H1V1H59m1-1H0V60H60V0Z" style="fill:#232f3e"/></g><g id="Art"><path d="M35.67,52.5V44.06H9.05a1.57,1.57,0,0,1-1.6-1.57l.1-25a1.57,1.57,0,0,1,1.59-1.57H35.77l-.1-8.44L52.55,30Z" style="fill:none;stroke:#232f3e;stroke-linejoin:round;stroke-width:2px"/><polyline points="9.8 19.69 13.17 19.69 13.17 40.31 9.8 40.31" style="fill:none;stroke:#232f3e;stroke-linejoin:round;stroke-width:2px"/><polygon points="40.36 21.56 40.36 35.63 36.61 35.63 36.61 38.44 31.92 38.44 31.92 35.63 28.17 35.63 28.17 38.44 18.8 38.44 18.8 35.63 16.92 35.63 16.92 21.56 40.36 21.56" style="fill:none;stroke:#232f3e;stroke-linejoin:round;stroke-width:2px"/><rect x="21.61" y="25.31" width="13.13" height="6.56" style="fill:none;stroke:#232f3e;stroke-linejoin:round;stroke-width:2px"/><line x1="28.17" y1="25.31" x2="28.17" y2="31.88" style="fill:none;stroke:#232f3e;stroke-linejoin:round;stroke-width:2px"/></g></svg>