<svg xmlns="http://www.w3.org/2000/svg" width="60" height="60" viewBox="0 0 60 60"><title>architecture-resource_IOT_Echo</title><g id="Background"><rect width="60" height="60" style="fill:#fff"/><path d="M59,1V59H1V1H59m1-1H0V60H60V0Z" style="fill:#232f3e"/></g><g id="Art"><path d="M41.23,25.74c0,1.93-4.74,3.49-11.24,3.49s-11.23-1.56-11.23-3.49" style="fill:none;stroke:#232f3e;stroke-linejoin:round;stroke-width:2px"/><ellipse cx="24.32" cy="11.02" rx="1.83" ry="0.89" style="fill:#232f3e"/><path d="M41.23,30c0,1.93-4.74,3.49-11.24,3.49S18.76,31.89,18.76,30" style="fill:none;stroke:#232f3e;stroke-linejoin:round;stroke-width:2px"/><path d="M41.11,11.53C41.11,13.46,36.41,15,30,15s-11.15-1.56-11.15-3.49" style="fill:none;stroke:#232f3e;stroke-linejoin:round;stroke-width:2px"/><path d="M41.23,48.67c-1.18,1.73-4.74,3.8-11.24,3.8s-10-2.06-11.23-3.8V11.77s0-4.24,11.16-4.24c0,0,11.27-.06,11.27,4.66l.05,36.48Z" style="fill:none;stroke:#232f3e;stroke-linejoin:round;stroke-width:2px"/></g></svg>