<svg xmlns="http://www.w3.org/2000/svg" width="60" height="60" viewBox="0 0 60 60"><title>architecture-resource_IAM_Temporary-security-credential</title><g id="Background"><rect width="60" height="60" style="fill:#fff"/><path d="M59,1V59H1V1H59m1-1H0V60H60V0Z" style="fill:#232f3e"/></g><g id="Art"><path d="M13.53,35.44a2.64,2.64,0,1,1,2.64-2.64A2.64,2.64,0,0,1,13.53,35.44Zm27.25-4.52-.87-.76H37.65L35.38,27.9l-2.26,2.26H31.61L29.35,27.9l-2.26,2.26H24.42a8.67,8.67,0,1,0,0,5.28h9.06" style="fill:none;stroke:#232f3e;stroke-linejoin:round;stroke-width:2px"/><path d="M43.83,7.74a8.66,8.66,0,0,0-8.25,6H19.34l-2.26,2.64,3,2.63h2.26l2.27,2.26L26.88,19h1.5l2.26,2.26L32.91,19h2.67a8.67,8.67,0,1,0,8.25-11.3Zm2.64,6a2.64,2.64,0,1,1-2.64,2.64A2.64,2.64,0,0,1,46.47,13.77Z" style="fill:none;stroke:#232f3e;stroke-linejoin:round;stroke-width:2px"/><polyline points="30.94 46.64 7.5 46.64 7.5 41.95" style="fill:none;stroke:#232f3e;stroke-linejoin:round;stroke-width:2px"/><circle cx="43.13" cy="42.89" r="9.38" style="fill:none;stroke:#232f3e;stroke-miterlimit:10;stroke-width:2px"/><polyline points="43.13 36.32 43.13 43.82 37.5 43.82" style="fill:none;stroke:#232f3e;stroke-miterlimit:10;stroke-width:2px"/></g></svg>