<svg xmlns="http://www.w3.org/2000/svg" width="60" height="60" viewBox="0 0 60 60"><title>architecture-resource_Systems-Manager_Parameter-Store</title><g id="Background"><rect width="60" height="60" style="fill:#fff"/><path d="M59,1V59H1V1H59m1-1H0V60H60V0Z" style="fill:#232f3e"/></g><g id="Art"><polyline points="30.95 47.81 8.48 47.81 8.48 18.75 38.49 18.75 38.49 28.13" style="fill:none;stroke:#232f3e;stroke-linejoin:round;stroke-width:2px"/><polygon points="38.49 15 8.43 15 13.77 7.5 33.15 7.5 38.49 15" style="fill:none;stroke:#232f3e;stroke-linejoin:round;stroke-width:2px"/><rect x="16.93" y="24.38" width="13.13" height="16.88" style="fill:none;stroke:#232f3e;stroke-linejoin:round;stroke-width:2px"/><line x1="19.7" y1="29.06" x2="27.2" y2="29.06" style="fill:none;stroke:#232f3e;stroke-linejoin:round;stroke-width:2px"/><line x1="19.7" y1="32.81" x2="27.2" y2="32.81" style="fill:none;stroke:#232f3e;stroke-linejoin:round;stroke-width:2px"/><line x1="19.7" y1="36.56" x2="27.2" y2="36.56" style="fill:none;stroke:#232f3e;stroke-linejoin:round;stroke-width:2px"/><rect x="34.7" y="38.44" width="16.87" height="14.06" style="fill:none;stroke:#232f3e;stroke-linejoin:round;stroke-width:2px"/><path d="M47.81,38.56V34.71a4.86,4.86,0,0,0-4.66-5h0a4.85,4.85,0,0,0-4.7,5l0,3.89" style="fill:none;stroke:#232f3e;stroke-linejoin:round;stroke-width:2px"/><path d="M44.94,43.8A1.81,1.81,0,1,1,43.13,42,1.81,1.81,0,0,1,44.94,43.8Z" style="fill:none;stroke:#232f3e;stroke-linejoin:round;stroke-width:2px"/><line x1="43.13" y1="45.61" x2="43.13" y2="49.49" style="fill:#6b6b6b;stroke:#232f3e;stroke-linejoin:round;stroke-width:2px"/></g></svg>