<svg xmlns="http://www.w3.org/2000/svg" width="60" height="60" viewBox="0 0 60 60"><title>architecture-resource_IOT_Thing-Cart</title><g id="Background"><rect width="60" height="60" style="fill:#fff"/><path d="M59,1V59H1V1H59m1-1H0V60H60V0Z" style="fill:#232f3e"/></g><g id="Art"><rect x="13.3" y="13.32" width="33.4" height="33.38" rx="2.13" ry="2.13" style="fill:none;stroke:#232f3e;stroke-miterlimit:10;stroke-width:2px"/><line x1="19.45" y1="8.03" x2="19.45" y2="13.3" style="fill:none;stroke:#232f3e;stroke-miterlimit:10;stroke-width:2px"/><line x1="24.73" y1="8.03" x2="24.73" y2="13.3" style="fill:none;stroke:#232f3e;stroke-miterlimit:10;stroke-width:2px"/><line x1="30" y1="8.03" x2="30" y2="13.3" style="fill:none;stroke:#232f3e;stroke-miterlimit:10;stroke-width:2px"/><line x1="35.27" y1="8.03" x2="35.27" y2="13.3" style="fill:none;stroke:#232f3e;stroke-miterlimit:10;stroke-width:2px"/><line x1="40.55" y1="8.03" x2="40.55" y2="13.3" style="fill:none;stroke:#232f3e;stroke-miterlimit:10;stroke-width:2px"/><line x1="19.45" y1="46.7" x2="19.45" y2="51.97" style="fill:none;stroke:#232f3e;stroke-miterlimit:10;stroke-width:2px"/><line x1="24.73" y1="46.7" x2="24.73" y2="51.97" style="fill:none;stroke:#232f3e;stroke-miterlimit:10;stroke-width:2px"/><line x1="30" y1="46.7" x2="30" y2="51.97" style="fill:none;stroke:#232f3e;stroke-miterlimit:10;stroke-width:2px"/><line x1="35.27" y1="46.7" x2="35.27" y2="51.97" style="fill:none;stroke:#232f3e;stroke-miterlimit:10;stroke-width:2px"/><line x1="40.55" y1="46.7" x2="40.55" y2="51.97" style="fill:none;stroke:#232f3e;stroke-miterlimit:10;stroke-width:2px"/><line x1="13.3" y1="19.45" x2="8.03" y2="19.45" style="fill:none;stroke:#232f3e;stroke-miterlimit:10;stroke-width:2px"/><line x1="13.3" y1="24.73" x2="8.03" y2="24.73" style="fill:none;stroke:#232f3e;stroke-miterlimit:10;stroke-width:2px"/><line x1="13.3" y1="30" x2="8.03" y2="30" style="fill:none;stroke:#232f3e;stroke-miterlimit:10;stroke-width:2px"/><line x1="13.3" y1="35.27" x2="8.03" y2="35.27" style="fill:none;stroke:#232f3e;stroke-miterlimit:10;stroke-width:2px"/><line x1="13.3" y1="40.55" x2="8.03" y2="40.55" style="fill:none;stroke:#232f3e;stroke-miterlimit:10;stroke-width:2px"/><line x1="51.97" y1="19.45" x2="46.7" y2="19.45" style="fill:none;stroke:#232f3e;stroke-miterlimit:10;stroke-width:2px"/><line x1="51.97" y1="24.73" x2="46.7" y2="24.73" style="fill:none;stroke:#232f3e;stroke-miterlimit:10;stroke-width:2px"/><line x1="51.97" y1="30" x2="46.7" y2="30" style="fill:none;stroke:#232f3e;stroke-miterlimit:10;stroke-width:2px"/><line x1="51.97" y1="35.27" x2="46.7" y2="35.27" style="fill:none;stroke:#232f3e;stroke-miterlimit:10;stroke-width:2px"/><line x1="51.97" y1="40.55" x2="46.7" y2="40.55" style="fill:none;stroke:#232f3e;stroke-miterlimit:10;stroke-width:2px"/><path d="M37.57,34.39H24.79a.59.59,0,0,1-.58-.38L21,23.63a.54.54,0,0,1,.58-.66h19.3a.54.54,0,0,1,.57.66L38.14,34A.58.58,0,0,1,37.57,34.39Z" style="fill:none;stroke:#232f3e;stroke-linejoin:round;stroke-width:2px"/><path d="M16.82,18.57l3.05.88a.65.65,0,0,1,.57.49l.77,3" style="fill:none;stroke:#232f3e;stroke-linejoin:round;stroke-width:2px"/><circle cx="25.17" cy="39.67" r="2.2" style="fill:none;stroke:#232f3e;stroke-linejoin:round;stroke-width:2px"/><line x1="27.36" y1="39.67" x2="35.33" y2="39.67" style="fill:none;stroke:#232f3e;stroke-linejoin:round;stroke-width:2px"/><circle cx="37.47" cy="39.67" r="2.2" style="fill:none;stroke:#232f3e;stroke-linejoin:round;stroke-width:2px"/><line x1="25.84" y1="37.5" x2="27.38" y2="34.32" style="fill:none;stroke:#232f3e;stroke-linejoin:round;stroke-width:2px"/></g></svg>