<svg xmlns="http://www.w3.org/2000/svg" width="60" height="60" viewBox="0 0 60 60"><title>architecture-resource_Kinesis_Firehose</title><g id="Background"><rect width="60" height="60" style="fill:#fff"/><path d="M59,1V59H1V1H59m1-1H0V60H60V0Z" style="fill:#232f3e"/></g><g id="Art"><path d="M30,20.57H25.31a.94.94,0,0,0-.93.94V38.39a.93.93,0,0,0,.93.93H30a.94.94,0,0,0,.94-.93V21.51A1,1,0,0,0,30,20.57Zm-.94,16.88H26.25v-15h2.81Z" style="fill:#232f3e"/><path d="M41.46,25.29,30.94,23l-.73-.15a.92.92,0,0,0-1.15.9V36.21a1,1,0,0,0,.35.73,1,1,0,0,0,.59.21.76.76,0,0,0,.21,0l.73-.16,10.52-2.33a1,1,0,0,0,.73-.92v-7.5A1,1,0,0,0,41.46,25.29ZM40.31,33,30.94,35V24.88L40.31,27Z" style="fill:#232f3e"/><path d="M53.44,24.86v2a33.81,33.81,0,0,1-9.35,1.25V26.22A31.39,31.39,0,0,0,53.44,24.86Z" style="fill:#232f3e"/><path d="M53.44,28.5v1.89a75.09,75.09,0,0,1-9.35.49V29A74.33,74.33,0,0,0,53.44,28.5Z" style="fill:#232f3e"/><path d="M53.44,29.68v1.88a62.51,62.51,0,0,0-9.35-.68V29A64,64,0,0,1,53.44,29.68Z" style="fill:#232f3e"/><path d="M53.44,33.15v2a30.39,30.39,0,0,0-9.35-1.43V31.84A32.31,32.31,0,0,1,53.44,33.15Z" style="fill:#232f3e"/><path d="M22.5,25.27v1.88A37.64,37.64,0,0,1,6.56,22.62V20.41C10.7,23.11,16.2,24.74,22.5,25.27Z" style="fill:#232f3e"/><path d="M22.5,29v1.89c-2.72-.13-5.81-.37-8.93-.83a53.08,53.08,0,0,1-7-1.45V26.66A68.2,68.2,0,0,0,22.5,29Z" style="fill:#232f3e"/><path d="M22.5,29.24v1.88A69.27,69.27,0,0,0,6.56,33.46V31.51a53.08,53.08,0,0,1,7-1.45A88.7,88.7,0,0,1,22.5,29.24Z" style="fill:#232f3e"/><path d="M22.5,22.19v1.9C9.57,22.59,6.65,16,6.65,10.32c0-.21,0-3.79,0-3.79l1.87,0h0c0,.22,0,3.59,0,3.8C8.52,15.15,11.11,20.79,22.5,22.19Z" style="fill:#232f3e"/><path d="M22.5,32.89v1.88A34.78,34.78,0,0,0,6.56,39.65V37.46A37.79,37.79,0,0,1,22.5,32.89Z" style="fill:#232f3e"/><path d="M22.5,36v1.91c-7.28.89-14,3.85-14,11.72,0,.05,0,.34,0,.74,0,.81,0,2.71,0,2.94l-.76.07-1.1.09a.26.26,0,0,1,0-.09c0-.22,0-.84,0-3,0-.39,0-.66,0-.71C6.65,44.05,9.57,37.5,22.5,36Z" style="fill:#232f3e"/></g></svg>