<svg xmlns="http://www.w3.org/2000/svg" width="60" height="60" viewBox="0 0 60 60"><title>architecture-resource_IOT_Thing-Bicycle</title><g id="Background"><rect width="60" height="60" style="fill:#fff"/><path d="M59,1V59H1V1H59m1-1H0V60H60V0Z" style="fill:#232f3e"/></g><g id="Art"><rect x="13.3" y="13.32" width="33.4" height="33.38" rx="2.13" ry="2.13" style="fill:none;stroke:#232f3e;stroke-miterlimit:10;stroke-width:2px"/><line x1="19.45" y1="8.03" x2="19.45" y2="13.3" style="fill:none;stroke:#232f3e;stroke-miterlimit:10;stroke-width:2px"/><line x1="24.73" y1="8.03" x2="24.73" y2="13.3" style="fill:none;stroke:#232f3e;stroke-miterlimit:10;stroke-width:2px"/><line x1="30" y1="8.03" x2="30" y2="13.3" style="fill:none;stroke:#232f3e;stroke-miterlimit:10;stroke-width:2px"/><line x1="35.27" y1="8.03" x2="35.27" y2="13.3" style="fill:none;stroke:#232f3e;stroke-miterlimit:10;stroke-width:2px"/><line x1="40.55" y1="8.03" x2="40.55" y2="13.3" style="fill:none;stroke:#232f3e;stroke-miterlimit:10;stroke-width:2px"/><line x1="19.45" y1="46.7" x2="19.45" y2="51.97" style="fill:none;stroke:#232f3e;stroke-miterlimit:10;stroke-width:2px"/><line x1="24.73" y1="46.7" x2="24.73" y2="51.97" style="fill:none;stroke:#232f3e;stroke-miterlimit:10;stroke-width:2px"/><line x1="30" y1="46.7" x2="30" y2="51.97" style="fill:none;stroke:#232f3e;stroke-miterlimit:10;stroke-width:2px"/><line x1="35.27" y1="46.7" x2="35.27" y2="51.97" style="fill:none;stroke:#232f3e;stroke-miterlimit:10;stroke-width:2px"/><line x1="40.55" y1="46.7" x2="40.55" y2="51.97" style="fill:none;stroke:#232f3e;stroke-miterlimit:10;stroke-width:2px"/><line x1="13.3" y1="19.45" x2="8.03" y2="19.45" style="fill:none;stroke:#232f3e;stroke-miterlimit:10;stroke-width:2px"/><line x1="13.3" y1="24.73" x2="8.03" y2="24.73" style="fill:none;stroke:#232f3e;stroke-miterlimit:10;stroke-width:2px"/><line x1="13.3" y1="30" x2="8.03" y2="30" style="fill:none;stroke:#232f3e;stroke-miterlimit:10;stroke-width:2px"/><line x1="13.3" y1="35.27" x2="8.03" y2="35.27" style="fill:none;stroke:#232f3e;stroke-miterlimit:10;stroke-width:2px"/><line x1="13.3" y1="40.55" x2="8.03" y2="40.55" style="fill:none;stroke:#232f3e;stroke-miterlimit:10;stroke-width:2px"/><line x1="51.97" y1="19.45" x2="46.7" y2="19.45" style="fill:none;stroke:#232f3e;stroke-miterlimit:10;stroke-width:2px"/><line x1="51.97" y1="24.73" x2="46.7" y2="24.73" style="fill:none;stroke:#232f3e;stroke-miterlimit:10;stroke-width:2px"/><line x1="51.97" y1="30" x2="46.7" y2="30" style="fill:none;stroke:#232f3e;stroke-miterlimit:10;stroke-width:2px"/><line x1="51.97" y1="35.27" x2="46.7" y2="35.27" style="fill:none;stroke:#232f3e;stroke-miterlimit:10;stroke-width:2px"/><line x1="51.97" y1="40.55" x2="46.7" y2="40.55" style="fill:none;stroke:#232f3e;stroke-miterlimit:10;stroke-width:2px"/><circle cx="22.09" cy="35.27" r="5.27" style="fill:none;stroke:#232f3e;stroke-linejoin:round;stroke-width:2px"/><circle cx="37.91" cy="35.27" r="5.27" style="fill:none;stroke:#232f3e;stroke-linejoin:round;stroke-width:2px"/><path d="M24,25.74l-.75-3.46c-.3-.62-.11-1,.19-1.06h3.07" style="fill:none;stroke:#232f3e;stroke-linejoin:round;stroke-width:2px"/><polyline points="37.91 35.27 33.52 25.61 34.19 22.97" style="fill:none;stroke:#232f3e;stroke-linejoin:round;stroke-width:2px"/><line x1="32.33" y1="22.97" x2="35.86" y2="22.97" style="fill:none;stroke:#232f3e;stroke-linejoin:round;stroke-width:2px"/><polyline points="23.95 25.61 30.88 33.52 33.52 25.61 23.95 25.61 22.09 35.27" style="fill:none;stroke:#232f3e;stroke-linejoin:round;stroke-width:2px"/></g></svg>