<svg xmlns="http://www.w3.org/2000/svg" width="60" height="60" viewBox="0 0 60 60"><title>architecture-resource_S3_Bucket</title><g id="Background"><rect width="60" height="60" style="fill:#fff"/><path d="M59,1V59H1V1H59m1-1H0V60H60V0Z" style="fill:#232f3e"/></g><g id="Art"><path d="M48.83,14.41,44.3,48.09c0,.92-1.09,1.79-2.89,2.5a20.75,20.75,0,0,1-3,.89,44.59,44.59,0,0,1-9.78,1c-8.14,0-15.62-2-15.62-4.41L8.5,14.41c.79,3,10,5.38,20.16,5.38S48.05,17.42,48.83,14.41Z" style="fill:none;stroke:#232f3e;stroke-linejoin:round;stroke-width:2px"/><path d="M48.89,14l-.06.41c-.78,3-9.95,5.38-20.17,5.38S9.29,17.42,8.5,14.41L8.45,14c0-3.2,9.54-6.5,20.21-6.5S48.89,10.8,48.89,14Z" style="fill:none;stroke:#232f3e;stroke-linejoin:round;stroke-width:2px"/><path d="M28.67,25.81s20.5,10.06,22.68,7.47c1.23-1.47-3.61-4-4.45-4.51" style="fill:none;stroke:#232f3e;stroke-linejoin:round;stroke-width:2px"/><circle cx="28.67" cy="25.81" r="1.17" style="fill:none;stroke:#232f3e;stroke-linejoin:round;stroke-width:2px"/></g></svg>