<svg xmlns="http://www.w3.org/2000/svg" width="60" height="60" viewBox="0 0 60 60"><title>architecture-resource_IOT_Topic</title><g id="Background"><rect width="60" height="60" style="fill:#fff"/><path d="M59,1V59H1V1H59m1-1H0V60H60V0Z" style="fill:#232f3e"/></g><g id="Art"><polyline points="21.56 17.76 21.56 11.29 21.56 7.54 38.44 7.54 38.44 11.29 38.44 17.76" style="fill:none;stroke:#232f3e;stroke-linejoin:round;stroke-width:2px"/><line x1="31.15" y1="21.08" x2="28.85" y2="21.08" style="fill:none;stroke:#232f3e;stroke-linejoin:round;stroke-width:2px"/><polyline points="38.44 7.54 31.48 14.06 30 15.44 28.52 14.06 21.56 7.54" style="fill:none;stroke:#232f3e;stroke-linejoin:round;stroke-width:2px"/><path d="M41.25,13.18c2.06.83,3.41,1.88,3.69,3.05a1.82,1.82,0,0,1,.06.46V47.14c0,2.94-6.72,5.32-15,5.32s-15-2.38-15-5.32V16.69a1.82,1.82,0,0,1,.06-.46c.28-1.17,1.63-2.22,3.69-3.05" style="fill:none;stroke:#232f3e;stroke-linejoin:round;stroke-width:2px"/><path d="M45,16c0,2.82-6.73,5.12-15,5.12S15,18.8,15,16" style="fill:none;stroke:#232f3e;stroke-linejoin:round;stroke-width:2px"/></g></svg>