<svg xmlns="http://www.w3.org/2000/svg" width="60" height="60" viewBox="0 0 60 60"><title>architecture-resource_Trusted-Advisor_Checklist-fault-tolerant</title><g id="Background"><rect width="60" height="60" style="fill:#fff"/><path d="M59,1V59H1V1H59m1-1H0V60H60V0Z" style="fill:#232f3e"/></g><g id="Art"><polyline points="30.94 41.52 7.5 41.52 7.5 6.83 35.63 6.83 35.63 34.02" style="fill:none;stroke:#232f3e;stroke-linejoin:round;stroke-width:2px"/><line x1="20.63" y1="14.33" x2="32.81" y2="14.33" style="fill:none;stroke:#232f3e;stroke-linejoin:round;stroke-width:2px"/><line x1="20.63" y1="24.65" x2="32.81" y2="24.65" style="fill:none;stroke:#232f3e;stroke-linejoin:round;stroke-width:2px"/><line x1="20.63" y1="34.02" x2="32.81" y2="34.02" style="fill:none;stroke:#232f3e;stroke-linejoin:round;stroke-width:2px"/><polyline points="10.31 12.97 13.31 15.94 17.81 10" style="fill:none;stroke:#232f3e;stroke-linejoin:round;stroke-width:2px"/><polyline points="10.31 22.97 13.31 25.93 17.81 20" style="fill:none;stroke:#232f3e;stroke-linejoin:round;stroke-width:2px"/><polyline points="10.31 32.97 13.31 35.94 17.81 30" style="fill:none;stroke:#232f3e;stroke-linejoin:round;stroke-width:2px"/><polygon points="28.13 51.83 52.5 51.83 40.31 31.21 28.13 51.83" style="fill:none;stroke:#232f3e;stroke-linejoin:round;stroke-width:2px"/><text transform="translate(38.23 49.1)" style="font-size:14.0625px;fill:#232f3e;font-family:AmazonEmber-Bold, Amazon Ember;font-weight:700">!</text></g></svg>