<svg xmlns="http://www.w3.org/2000/svg" width="60" height="60" viewBox="0 0 60 60"><title>architecture-resource_IAM_Add-on</title><g id="Background"><rect width="60" height="60" style="fill:#fff"/><path d="M59,1V59H1V1H59m1-1H0V60H60V0Z" style="fill:#232f3e"/></g><g id="Art"><path d="M18.51,41A11,11,0,0,0,29,33.35H49.63L52.5,30l-3.83-3.35H45.8l-2.87-2.87-2.88,2.87H38.14l-2.87-2.87-2.88,2.87H29A11,11,0,1,0,18.51,41Zm-3.35-7.66A3.35,3.35,0,1,1,18.51,30,3.35,3.35,0,0,1,15.16,33.35Z" style="fill:none;stroke:#232f3e;stroke-linejoin:round;stroke-width:2px"/></g></svg>