<svg xmlns="http://www.w3.org/2000/svg" width="60" height="60" viewBox="0 0 60 60"><title>architecture-resource_Trusted-Advisor_Checklist-security</title><g id="Background"><rect width="60" height="60" style="fill:#fff"/><path d="M59,1V59H1V1H59m1-1H0V60H60V0Z" style="fill:#232f3e"/></g><g id="Art"><polyline points="30.93 42.19 7.49 42.19 7.49 7.5 35.62 7.5 35.62 30" style="fill:none;stroke:#232f3e;stroke-linejoin:round;stroke-width:2px"/><line x1="20.62" y1="15" x2="32.8" y2="15" style="fill:none;stroke:#232f3e;stroke-linejoin:round;stroke-width:2px"/><line x1="20.62" y1="25.31" x2="32.8" y2="25.31" style="fill:none;stroke:#232f3e;stroke-linejoin:round;stroke-width:2px"/><line x1="20.62" y1="34.69" x2="32.8" y2="34.69" style="fill:none;stroke:#232f3e;stroke-linejoin:round;stroke-width:2px"/><polyline points="10.3 13.63 13.3 16.6 17.8 10.66" style="fill:none;stroke:#232f3e;stroke-linejoin:round;stroke-width:2px"/><polyline points="10.3 23.63 13.3 26.6 17.8 20.66" style="fill:none;stroke:#232f3e;stroke-linejoin:round;stroke-width:2px"/><polyline points="10.3 33.63 13.3 36.6 17.8 30.66" style="fill:none;stroke:#232f3e;stroke-linejoin:round;stroke-width:2px"/><rect x="33.74" y="37.48" width="18.76" height="15.02" style="fill:none;stroke:#232f3e;stroke-linejoin:round;stroke-width:2px"/><path d="M48.73,37.63V33.51a5.48,5.48,0,0,0-5.58-5.37h0a5.47,5.47,0,0,0-5.64,5.31l0,4.16" style="fill:none;stroke:#232f3e;stroke-linejoin:round;stroke-width:2px"/></g></svg>