<svg xmlns="http://www.w3.org/2000/svg" width="60" height="60" viewBox="0 0 60 60"><title>architecture-resource_IOT_Sensor</title><g id="Background"><rect width="60" height="60" style="fill:#fff"/><path d="M59,1V59H1V1H59m1-1H0V60H60V0Z" style="fill:#232f3e"/></g><g id="Art"><path d="M32.81,32.87H43.25s6.64-.54,6.64-7.15c0-5.12-4.12-6.75-6.46-7.14v-.08c-.24-3.51-2.36-5.2-4.48-5.2a4.16,4.16,0,0,0-3.34,1.74,11.91,11.91,0,0,0-2.79-4.52A10.08,10.08,0,0,0,21.48,8.3a10.51,10.51,0,0,0-6,9.17,10,10,0,0,0,.07,1.24,6.79,6.79,0,0,0-5.46,7c0,.2,0,.39,0,.58a7.25,7.25,0,0,0,7.34,6.6h9.73" style="fill:none;stroke:#232f3e;stroke-linejoin:round;stroke-width:2px"/><rect x="9.38" y="40.38" width="41.25" height="12.19" style="fill:none;stroke:#232f3e;stroke-linejoin:round;stroke-width:2px"/><circle cx="16.41" cy="46.47" r="2.53" style="fill:none;stroke:#232f3e;stroke-linejoin:round;stroke-width:2px"/><polygon points="26.25 48.75 33.75 48.75 30 43.66 26.25 48.75" style="fill:none;stroke:#232f3e;stroke-linejoin:round;stroke-width:2px"/><polyline points="26.25 28.19 30 24.44 33.75 28.19" style="fill:none;stroke:#232f3e;stroke-linejoin:round;stroke-width:2px"/><line x1="30" y1="24.89" x2="30" y2="39.37" style="fill:none;stroke:#232f3e;stroke-linejoin:round;stroke-width:2px"/></g></svg>