<svg xmlns="http://www.w3.org/2000/svg" width="60" height="60" viewBox="0 0 60 60"><title>architecture-resource_IAM_Long-term-security-credential</title><g id="Background"><rect width="60" height="60" style="fill:#fff"/><path d="M59,1V59H1V1H59m1-1H0V60H60V0Z" style="fill:#232f3e"/></g><g id="Art"><path d="M16.17,44.75a8.66,8.66,0,0,0,8.25-6H40.66l2.26-2.64-3-2.63H37.65l-2.27-2.26-2.26,2.26h-1.5l-2.26-2.26-2.27,2.26H24.42a8.67,8.67,0,1,0-8.25,11.3Zm-2.64-6a2.64,2.64,0,1,1,2.64-2.64A2.64,2.64,0,0,1,13.53,38.72Z" style="fill:none;stroke:#232f3e;stroke-linejoin:round;stroke-width:2px"/><path d="M43.83,10.08a8.67,8.67,0,0,0-8.25,6H19.34l-2.26,2.64,3,2.64h2.26l2.27,2.26,2.26-2.26h1.5l2.26,2.26,2.27-2.26h2.67a8.67,8.67,0,1,0,8.25-11.31Zm2.64,6a2.64,2.64,0,1,1-2.64,2.64A2.64,2.64,0,0,1,46.47,16.11Z" style="fill:none;stroke:#232f3e;stroke-linejoin:round;stroke-width:2px"/><polyline points="7.5 45.23 7.5 49.92 52.5 49.92 52.5 45.23" style="fill:none;stroke:#232f3e;stroke-linejoin:round;stroke-width:2px"/></g></svg>