<svg xmlns="http://www.w3.org/2000/svg" width="60" height="60" viewBox="0 0 60 60"><title>architecture-resource_ELB_Classic-Load-Balancer</title><g id="Background"><rect width="60" height="60" style="fill:#fff"/><path d="M59,1V59H1V1H59m1-1H0V60H60V0Z" style="fill:#232f3e"/></g><g id="Art"><polyline points="36.56 14.06 18.75 14.07 18.75 45 42.19 45 42.19 19.69" style="fill:none;stroke:#232f3e;stroke-linejoin:round;stroke-width:2px"/><polygon points="36.56 14.06 36.56 19.69 42.19 19.69 36.56 14.06" style="fill:none;stroke:#232f3e;stroke-linejoin:round;stroke-width:2px"/><ellipse cx="30.47" cy="30.56" rx="8.91" ry="8.82" style="fill:none;stroke:#232f3e;stroke-linejoin:round;stroke-width:2px"/><ellipse cx="25.78" cy="30.47" rx="1.84" ry="1.82" style="fill:none;stroke:#232f3e;stroke-linejoin:round;stroke-width:2px"/><circle cx="33.28" cy="26.72" r="1.78" style="fill:none;stroke:#232f3e;stroke-linejoin:round;stroke-width:2px"/><ellipse cx="33.28" cy="34.22" rx="1.84" ry="1.82" style="fill:none;stroke:#232f3e;stroke-linejoin:round;stroke-width:2px"/><polyline points="31.68 33.32 27.54 31.02 27.53 31.02" style="fill:none;stroke:#232f3e;stroke-linejoin:round;stroke-width:2px"/><polyline points="31.7 27.52 27.43 29.65 27.42 29.66" style="fill:none;stroke:#232f3e;stroke-linejoin:round;stroke-width:2px"/><circle cx="30" cy="30" r="22.5" style="fill:none;stroke:#232f3e;stroke-linejoin:round;stroke-width:2px"/></g></svg>