<svg xmlns="http://www.w3.org/2000/svg" width="60" height="60" viewBox="0 0 60 60"><title>architecture-resource_VPC_Endpoints</title><g id="Background"><rect width="60" height="60" style="fill:#fff"/><path d="M59,1V59H1V1H59m1-1H0V60H60V0Z" style="fill:#232f3e"/></g><g id="Art"><path d="M18.78,32.81A20.15,20.15,0,0,0,20.16,39c1.4,3.46,4.22,6.92,9.84,6.92,11.25,0,11.25-13,11.25-13V18.59L30,14.06,18.75,18.59v8.6" style="fill:none;stroke:#232f3e;stroke-linejoin:round;stroke-width:2px"/><path d="M22.5,32.81v.49S24,41.62,30,41.62s7.5-8.32,7.5-8.32V22L30,19l-7.5,3v5.22" style="fill:none;stroke:#232f3e;stroke-linejoin:round;stroke-width:2px"/><circle cx="30" cy="30" r="22.5" style="fill:none;stroke:#232f3e;stroke-linejoin:round;stroke-width:2px"/><polyline points="27.19 25.31 31.88 30 27.19 34.69" style="fill:none;stroke:#232f3e;stroke-linejoin:round;stroke-width:2px"/><line x1="11.25" y1="30" x2="31.88" y2="30" style="fill:none;stroke:#232f3e;stroke-linejoin:round;stroke-width:2px"/></g></svg>