<svg xmlns="http://www.w3.org/2000/svg" width="60" height="60" viewBox="0 0 60 60"><title>architecture-resource_IOT_Thing-Utility</title><g id="Background"><rect width="60" height="60" style="fill:#fff"/><path d="M59,1V59H1V1H59m1-1H0V60H60V0Z" style="fill:#232f3e"/></g><g id="Art"><rect x="12.16" y="12.23" width="35.62" height="35.61" rx="2.13" ry="2.13" style="fill:none;stroke:#232f3e;stroke-miterlimit:10;stroke-width:2px"/><line x1="18.72" y1="6.59" x2="18.72" y2="12.22" style="fill:none;stroke:#232f3e;stroke-miterlimit:10;stroke-width:2px"/><line x1="24.34" y1="6.59" x2="24.34" y2="12.22" style="fill:none;stroke:#232f3e;stroke-miterlimit:10;stroke-width:2px"/><line x1="29.97" y1="6.59" x2="29.97" y2="12.22" style="fill:none;stroke:#232f3e;stroke-miterlimit:10;stroke-width:2px"/><line x1="35.59" y1="6.59" x2="35.59" y2="12.22" style="fill:none;stroke:#232f3e;stroke-miterlimit:10;stroke-width:2px"/><line x1="41.22" y1="6.59" x2="41.22" y2="12.22" style="fill:none;stroke:#232f3e;stroke-miterlimit:10;stroke-width:2px"/><line x1="18.72" y1="47.84" x2="18.72" y2="53.47" style="fill:none;stroke:#232f3e;stroke-miterlimit:10;stroke-width:2px"/><line x1="24.34" y1="47.84" x2="24.34" y2="53.47" style="fill:none;stroke:#232f3e;stroke-miterlimit:10;stroke-width:2px"/><line x1="29.97" y1="47.84" x2="29.97" y2="53.47" style="fill:none;stroke:#232f3e;stroke-miterlimit:10;stroke-width:2px"/><line x1="35.59" y1="47.84" x2="35.59" y2="53.47" style="fill:none;stroke:#232f3e;stroke-miterlimit:10;stroke-width:2px"/><line x1="41.22" y1="47.84" x2="41.22" y2="53.47" style="fill:none;stroke:#232f3e;stroke-miterlimit:10;stroke-width:2px"/><line x1="12.16" y1="18.78" x2="6.53" y2="18.78" style="fill:none;stroke:#232f3e;stroke-miterlimit:10;stroke-width:2px"/><line x1="12.16" y1="24.41" x2="6.53" y2="24.41" style="fill:none;stroke:#232f3e;stroke-miterlimit:10;stroke-width:2px"/><line x1="12.16" y1="30.03" x2="6.53" y2="30.03" style="fill:none;stroke:#232f3e;stroke-miterlimit:10;stroke-width:2px"/><line x1="12.16" y1="35.66" x2="6.53" y2="35.66" style="fill:none;stroke:#232f3e;stroke-miterlimit:10;stroke-width:2px"/><line x1="12.16" y1="41.28" x2="6.53" y2="41.28" style="fill:none;stroke:#232f3e;stroke-miterlimit:10;stroke-width:2px"/><line x1="53.41" y1="18.78" x2="47.78" y2="18.78" style="fill:none;stroke:#232f3e;stroke-miterlimit:10;stroke-width:2px"/><line x1="53.41" y1="24.41" x2="47.78" y2="24.41" style="fill:none;stroke:#232f3e;stroke-miterlimit:10;stroke-width:2px"/><line x1="53.41" y1="30.03" x2="47.78" y2="30.03" style="fill:none;stroke:#232f3e;stroke-miterlimit:10;stroke-width:2px"/><line x1="53.41" y1="35.66" x2="47.78" y2="35.66" style="fill:none;stroke:#232f3e;stroke-miterlimit:10;stroke-width:2px"/><line x1="53.41" y1="41.28" x2="47.78" y2="41.28" style="fill:none;stroke:#232f3e;stroke-miterlimit:10;stroke-width:2px"/><path d="M41.22,33.78H35.51V31a.88.88,0,0,0-.89-.88H16.84V24.41H35.21a6,6,0,0,1,6,6Z" style="fill:none;stroke:#232f3e;stroke-linejoin:round;stroke-width:2px"/><path d="M41.22,41.75a2.35,2.35,0,0,1-4.69,0c0-1.29,1.88-4.22,2.35-5.16C39.34,37.53,41.22,40.46,41.22,41.75Z" style="fill:none;stroke:#232f3e;stroke-linejoin:round;stroke-width:2px"/><rect x="22.47" y="16.91" width="13.13" height="2.81" style="fill:none;stroke:#232f3e;stroke-linejoin:round;stroke-width:2px"/><line x1="29.03" y1="23.47" x2="29.03" y2="18.98" style="fill:none;stroke:#232f3e;stroke-linejoin:round;stroke-width:2px"/></g></svg>