<svg xmlns="http://www.w3.org/2000/svg" width="60" height="60" viewBox="0 0 60 60"><title>architecture-resource_general_Office-building</title><g id="Background"><rect width="60" height="60" style="fill:#fff"/><path d="M59,1V59H1V1H59m1-1H0V60H60V0Z" style="fill:#232f3e"/></g><g id="Art"><polygon points="44.06 18.75 44.06 52.5 15.94 52.5 15.94 18.75 23.44 18.75 23.44 7.5 36.56 7.5 36.56 18.75 44.06 18.75" style="fill:none;stroke:#232f3e;stroke-linejoin:round;stroke-width:2px"/><line x1="28.13" y1="10.31" x2="28.13" y2="18.75" style="fill:none;stroke:#232f3e;stroke-linejoin:round;stroke-width:2px"/><line x1="31.88" y1="10.31" x2="31.88" y2="18.75" style="fill:none;stroke:#232f3e;stroke-linejoin:round;stroke-width:2px"/><line x1="23.44" y1="21.56" x2="23.44" y2="26.25" style="fill:none;stroke:#232f3e;stroke-linejoin:round;stroke-width:2px"/><line x1="23.44" y1="29.06" x2="23.44" y2="33.75" style="fill:none;stroke:#232f3e;stroke-linejoin:round;stroke-width:2px"/><line x1="23.44" y1="36.56" x2="23.44" y2="41.25" style="fill:none;stroke:#232f3e;stroke-linejoin:round;stroke-width:2px"/><line x1="23.44" y1="44.06" x2="23.44" y2="49.69" style="fill:none;stroke:#232f3e;stroke-linejoin:round;stroke-width:2px"/><line x1="19.69" y1="21.56" x2="19.69" y2="26.25" style="fill:none;stroke:#232f3e;stroke-linejoin:round;stroke-width:2px"/><line x1="19.69" y1="29.06" x2="19.69" y2="33.75" style="fill:none;stroke:#232f3e;stroke-linejoin:round;stroke-width:2px"/><line x1="19.69" y1="36.56" x2="19.69" y2="41.25" style="fill:none;stroke:#232f3e;stroke-linejoin:round;stroke-width:2px"/><line x1="19.69" y1="44.06" x2="19.69" y2="49.69" style="fill:none;stroke:#232f3e;stroke-linejoin:round;stroke-width:2px"/><line x1="28.13" y1="21.56" x2="28.13" y2="26.25" style="fill:none;stroke:#232f3e;stroke-linejoin:round;stroke-width:2px"/><line x1="28.13" y1="29.06" x2="28.13" y2="33.75" style="fill:none;stroke:#232f3e;stroke-linejoin:round;stroke-width:2px"/><line x1="28.13" y1="36.56" x2="28.13" y2="41.25" style="fill:none;stroke:#232f3e;stroke-linejoin:round;stroke-width:2px"/><line x1="28.13" y1="44.06" x2="28.13" y2="49.69" style="fill:none;stroke:#232f3e;stroke-linejoin:round;stroke-width:2px"/><line x1="31.88" y1="21.56" x2="31.88" y2="26.25" style="fill:none;stroke:#232f3e;stroke-linejoin:round;stroke-width:2px"/><line x1="31.88" y1="29.06" x2="31.88" y2="33.75" style="fill:none;stroke:#232f3e;stroke-linejoin:round;stroke-width:2px"/><line x1="31.88" y1="36.56" x2="31.88" y2="41.25" style="fill:none;stroke:#232f3e;stroke-linejoin:round;stroke-width:2px"/><line x1="31.88" y1="44.06" x2="31.88" y2="49.69" style="fill:none;stroke:#232f3e;stroke-linejoin:round;stroke-width:2px"/><line x1="36.56" y1="21.56" x2="36.56" y2="26.25" style="fill:none;stroke:#232f3e;stroke-linejoin:round;stroke-width:2px"/><line x1="36.56" y1="29.06" x2="36.56" y2="33.75" style="fill:none;stroke:#232f3e;stroke-linejoin:round;stroke-width:2px"/><line x1="36.56" y1="36.56" x2="36.56" y2="41.25" style="fill:none;stroke:#232f3e;stroke-linejoin:round;stroke-width:2px"/><line x1="36.56" y1="44.06" x2="36.56" y2="49.69" style="fill:none;stroke:#232f3e;stroke-linejoin:round;stroke-width:2px"/><line x1="40.31" y1="21.56" x2="40.31" y2="26.25" style="fill:none;stroke:#232f3e;stroke-linejoin:round;stroke-width:2px"/><line x1="40.31" y1="29.06" x2="40.31" y2="33.75" style="fill:none;stroke:#232f3e;stroke-linejoin:round;stroke-width:2px"/><line x1="40.31" y1="36.56" x2="40.31" y2="41.25" style="fill:none;stroke:#232f3e;stroke-linejoin:round;stroke-width:2px"/><line x1="40.31" y1="44.06" x2="40.31" y2="49.69" style="fill:none;stroke:#232f3e;stroke-linejoin:round;stroke-width:2px"/></g></svg>