<svg xmlns="http://www.w3.org/2000/svg" width="60" height="60" viewBox="0 0 60 60"><title>architecture-resource_Elastic-Beanstalk_Deployment</title><g id="Background"><rect width="60" height="60" style="fill:#fff"/><path d="M59,1V59H1V1H59m1-1H0V60H60V0Z" style="fill:#232f3e"/></g><g id="Art"><path d="M25.45,28c0,.17,0,.35-.05.52s0,.51,0,.75A37.6,37.6,0,0,0,25.43,35l.19,0c1.66.16,14,1.13,21-6C54,21.48,52.38,7.48,52.38,7.48S38.67,5.8,31.23,13.41c-.16.16-.32.33-.47.5l-.24.28" style="fill:none;stroke:#232f3e;stroke-linejoin:round;stroke-width:2px"/><path d="M30.52,14.19a10.41,10.41,0,0,1,.71-.78C38.67,5.8,52.38,7.48,52.38,7.48A108.64,108.64,0,0,1,39.86,22.7,110.14,110.14,0,0,1,25.62,35l-.19,0a37.41,37.41,0,0,1,0-7" style="fill:none;stroke:#232f3e;stroke-linejoin:round;stroke-width:2px"/><line x1="25.28" y1="52.97" x2="25.28" y2="33.28" style="fill:none;stroke:#232f3e;stroke-linejoin:round;stroke-width:2px"/><circle cx="17.78" cy="17.34" r="10.31" style="fill:none;stroke:#232f3e;stroke-linejoin:round;stroke-width:2px"/><line x1="17.78" y1="24.65" x2="17.78" y2="11.33" style="fill:none;stroke:#232f3e;stroke-linejoin:round;stroke-width:2px"/><polyline points="13.91 14.77 17.78 10.9 21.64 14.77" style="fill:none;stroke:#232f3e;stroke-linejoin:round;stroke-width:2px"/></g></svg>