<svg xmlns="http://www.w3.org/2000/svg" width="60" height="60" viewBox="0 0 60 60"><title>architecture-resource_IOT_Alexa-skill</title><g id="Background"><rect width="60" height="60" style="fill:#fff"/><path d="M59,1V59H1V1H59m1-1H0V60H60V0Z" style="fill:#232f3e"/></g><g id="Art"><rect x="7.5" y="7.5" width="45" height="45" rx="5.45" ry="5.45" style="fill:none;stroke:#232f3e;stroke-linejoin:round;stroke-width:2px"/><path id="_Path_" data-name="&lt;Path&gt;" d="M27.29,44.81v-3a2.64,2.64,0,0,0-1.63-2.42A10.23,10.23,0,1,1,39.87,30C39.87,36.62,34.74,42.89,27.29,44.81Z" style="fill:none;stroke:#232f3e;stroke-linejoin:round;stroke-width:2px"/><path id="_Compound_Path_" data-name="&lt;Compound Path&gt;" d="M29.64,15a15,15,0,0,0-5.85,28.81,15,15,0,0,0,13.08-.67A15,15,0,0,0,29.64,15Z" style="fill:none;stroke:#232f3e;stroke-linejoin:round;stroke-width:2px"/></g></svg>