<svg xmlns="http://www.w3.org/2000/svg" width="60" height="60" viewBox="0 0 60 60"><title>architecture-resource_Trusted-Advisor_Checklist-performance</title><g id="Background"><rect width="60" height="60" style="fill:#fff"/><path d="M59,1V59H1V1H59m1-1H0V60H60V0Z" style="fill:#232f3e"/></g><g id="Art"><polyline points="28.13 42.19 7.5 42.19 7.5 7.5 35.63 7.5 35.63 28.13" style="fill:none;stroke:#232f3e;stroke-linejoin:round;stroke-width:2px"/><line x1="20.63" y1="15" x2="32.81" y2="15" style="fill:none;stroke:#232f3e;stroke-linejoin:round;stroke-width:2px"/><line x1="20.63" y1="25.31" x2="32.81" y2="25.31" style="fill:none;stroke:#232f3e;stroke-linejoin:round;stroke-width:2px"/><line x1="20.63" y1="34.69" x2="28.13" y2="34.69" style="fill:none;stroke:#232f3e;stroke-linejoin:round;stroke-width:2px"/><polyline points="10.31 13.63 13.31 16.6 17.81 10.66" style="fill:none;stroke:#232f3e;stroke-linejoin:round;stroke-width:2px"/><polyline points="10.31 23.63 13.31 26.6 17.81 20.66" style="fill:none;stroke:#232f3e;stroke-linejoin:round;stroke-width:2px"/><polyline points="10.31 33.63 13.31 36.6 17.81 30.66" style="fill:none;stroke:#232f3e;stroke-linejoin:round;stroke-width:2px"/><rect x="30.94" y="30.94" width="21.56" height="21.56" style="fill:none;stroke:#232f3e;stroke-linejoin:round;stroke-width:2px"/><polyline points="33.75 44.06 39.38 40.31 44.06 43.13 48.75 34.69" style="fill:none;stroke:#232f3e;stroke-linejoin:round;stroke-width:2px"/><line x1="34.69" y1="49.69" x2="34.69" y2="45.94" style="fill:none;stroke:#232f3e;stroke-linejoin:round;stroke-width:2px"/><line x1="39.38" y1="49.69" x2="39.38" y2="44.06" style="fill:none;stroke:#232f3e;stroke-linejoin:round;stroke-width:2px"/><line x1="44.06" y1="49.69" x2="44.06" y2="45.94" style="fill:none;stroke:#232f3e;stroke-linejoin:round;stroke-width:2px"/><line x1="48.75" y1="49.69" x2="48.75" y2="41.25" style="fill:none;stroke:#232f3e;stroke-linejoin:round;stroke-width:2px"/><polyline points="45.6 34.55 49.27 33.79 50.03 37.46" style="fill:none;stroke:#232f3e;stroke-linejoin:round;stroke-width:2px"/></g></svg>