<svg xmlns="http://www.w3.org/2000/svg" width="60" height="60" viewBox="0 0 60 60"><title>architecture-resource_Elasticache_Redis</title><g id="Background"><rect width="60" height="60" style="fill:#fff"/><path d="M59,1V59H1V1H59m1-1H0V60H60V0Z" style="fill:#232f3e"/></g><g id="Art"><path d="M18.32,24.68V46.27c0,2.14,5.24,3.88,11.69,3.88S41.7,48.41,41.7,46.27V24.68" style="fill:none;stroke:#232f3e;stroke-linejoin:round;stroke-width:2.00868940353394px"/><path d="M18.32,31.88c0,1.41,2.28,2.65,5.68,3.32" style="fill:none;stroke:#232f3e;stroke-linejoin:round;stroke-width:2.00868940353394px"/><path d="M37.11,35c2.79-.7,4.59-1.83,4.59-3.08" style="fill:none;stroke:#232f3e;stroke-linejoin:round;stroke-width:2.00868940353394px"/><path d="M41.7,24.68c0,2.14-5.23,3.88-11.68,3.88s-11.7-1.74-11.7-3.88S23.56,20.8,30,20.8,41.7,22.54,41.7,24.68Z" style="fill:none;stroke:#232f3e;stroke-linejoin:round;stroke-width:2.00868940353394px"/><path d="M37.11,42.15c2.79-.7,4.59-1.83,4.59-3.08v7.2c0,2.14-5.23,3.88-11.68,3.88s-11.7-1.74-11.7-3.88v-7.2c0,1.41,2.28,2.65,5.68,3.33" style="fill:none;stroke:#232f3e;stroke-linejoin:round;stroke-width:2.00868940353394px"/><polyline points="15.51 31.41 10.83 31.41 10.83 34.22" style="fill:none;stroke:#232f3e;stroke-linejoin:round;stroke-width:2.00868940353394px"/><polyline points="44.54 31.41 50.16 31.41 50.16 34.22 44.54 34.22" style="fill:none;stroke:#232f3e;stroke-linejoin:round;stroke-width:2.00868940353394px"/><path d="M44.54,34.22H53V17.92a2.93,2.93,0,0,1-2.78-3,2.92,2.92,0,0,1,2.78-3V9.85H7V11.9a2.92,2.92,0,0,1,2.82,3,2.92,2.92,0,0,1-2.82,3v16.3h8.48" style="fill:none;stroke:#232f3e;stroke-linejoin:round;stroke-width:2.00868940353394px"/><polyline points="28.62 18.37 28.62 13.64 22.07 13.64 22.07 19.32" style="fill:none;stroke:#232f3e;stroke-linejoin:round;stroke-width:2.00868940353394px"/><polyline points="37.99 19.32 37.99 13.64 31.43 13.64 31.43 18.37" style="fill:none;stroke:#232f3e;stroke-linejoin:round;stroke-width:2.00868940353394px"/><polyline points="44.54 27.66 47.35 27.66 47.35 13.64 40.8 13.64 40.8 20.18" style="fill:none;stroke:#232f3e;stroke-linejoin:round;stroke-width:2.00868940353394px"/><polyline points="19.26 20.18 19.26 13.64 12.71 13.64 12.71 27.66 15.51 27.66" style="fill:none;stroke:#232f3e;stroke-linejoin:round;stroke-width:2.00868940353394px"/><path d="M25.78,45.59V32.47h4.85a4.38,4.38,0,0,1,3.07,1.05,3.68,3.68,0,0,1,1.15,2.83,3.8,3.8,0,0,1-.65,2.22A4,4,0,0,1,32.32,40l3.35,5.6H33.39l-3-5.2H28.07v5.2Zm2.29-7h2.27a1.93,1.93,0,0,0,2.18-2.18,1.9,1.9,0,0,0-2.12-2.18H28.07Z" style="fill:#232f3e"/></g></svg>