<svg xmlns="http://www.w3.org/2000/svg" width="60" height="60" viewBox="0 0 60 60"><title>architecture-resource_general_AWS-Cloud</title><g id="Background"><rect width="60" height="60" style="fill:#fff"/><path d="M59,1V59H1V1H59m1-1H0V60H60V0Z" style="fill:#232f3e"/></g><g id="Art"><rect x="7.5" y="7.5" width="45" height="45" style="fill:none;stroke:#232f3e;stroke-miterlimit:10;stroke-width:2px"/><path d="M21.29,26.69a3.49,3.49,0,0,0,.15,1.14,5.46,5.46,0,0,0,.41.92.57.57,0,0,1,.09.29.49.49,0,0,1-.25.38l-.8.53a.61.61,0,0,1-.34.12.54.54,0,0,1-.38-.18,2.94,2.94,0,0,1-.45-.6c-.13-.21-.26-.46-.4-.74a4.74,4.74,0,0,1-3.75,1.76A3.48,3.48,0,0,1,13,29.4a3.3,3.3,0,0,1-.94-2.47,3.26,3.26,0,0,1,1.16-2.62,4.63,4.63,0,0,1,3.13-1,10.61,10.61,0,0,1,1.35.1c.47.07,1,.16,1.47.28v-.94a2.79,2.79,0,0,0-.6-2,2.92,2.92,0,0,0-2.08-.6,6.06,6.06,0,0,0-1.38.17,9.62,9.62,0,0,0-1.38.44,2.49,2.49,0,0,1-.44.16.68.68,0,0,1-.2,0c-.18,0-.27-.14-.27-.4v-.63a.84.84,0,0,1,.09-.45,1,1,0,0,1,.35-.27,9.14,9.14,0,0,1,1.62-.58,8,8,0,0,1,2-.24,4.6,4.6,0,0,1,3.34,1,4.2,4.2,0,0,1,1.06,3.14ZM16.1,28.63a4,4,0,0,0,1.32-.23,2.81,2.81,0,0,0,1.21-.82,2.07,2.07,0,0,0,.44-.81,4.49,4.49,0,0,0,.12-1.11v-.54A10.15,10.15,0,0,0,18,24.91a9.94,9.94,0,0,0-1.2-.08,2.91,2.91,0,0,0-1.9.52,1.78,1.78,0,0,0-.63,1.47,1.62,1.62,0,0,0,1.81,1.81ZM26.37,30a.8.8,0,0,1-.49-.12.92.92,0,0,1-.27-.5l-3-9.89A2.51,2.51,0,0,1,22.5,19a.28.28,0,0,1,.31-.31h1.26a.82.82,0,0,1,.5.12,1.13,1.13,0,0,1,.26.51L27,27.76l2-8.45a1,1,0,0,1,.25-.51.85.85,0,0,1,.51-.12h1a.89.89,0,0,1,.52.12,1,1,0,0,1,.24.51l2,8.56,2.21-8.56A1.13,1.13,0,0,1,36,18.8a.8.8,0,0,1,.5-.12h1.19A.28.28,0,0,1,38,19a1.83,1.83,0,0,1,0,.21l-.09.31L34.8,29.4a.92.92,0,0,1-.27.5A.78.78,0,0,1,34,30H33a.81.81,0,0,1-.52-.13.93.93,0,0,1-.24-.52l-2-8.23-2,8.23a1,1,0,0,1-.25.52.78.78,0,0,1-.51.13Zm16.42.34a8.63,8.63,0,0,1-2-.23,6.1,6.1,0,0,1-1.48-.51.86.86,0,0,1-.39-.36.94.94,0,0,1-.08-.36v-.65c0-.26.1-.4.29-.4a.69.69,0,0,1,.24,0l.32.13a7.5,7.5,0,0,0,1.41.45,7.91,7.91,0,0,0,1.52.15,3.48,3.48,0,0,0,1.87-.42A1.36,1.36,0,0,0,45.18,27a1.23,1.23,0,0,0-.35-.89,3.3,3.3,0,0,0-1.28-.67l-1.86-.59a4,4,0,0,1-2-1.29A3.07,3.07,0,0,1,39,21.7a2.84,2.84,0,0,1,.34-1.42,3.56,3.56,0,0,1,.92-1.05,4,4,0,0,1,1.33-.66,5.69,5.69,0,0,1,1.61-.22,6.2,6.2,0,0,1,.86,0c.29,0,.57.09.83.15a7,7,0,0,1,.73.2,3.15,3.15,0,0,1,.53.22,1.33,1.33,0,0,1,.39.32.72.72,0,0,1,.11.42v.6c0,.27-.1.41-.29.41a1.51,1.51,0,0,1-.5-.16,5.91,5.91,0,0,0-2.46-.49,3.36,3.36,0,0,0-1.7.36,1.33,1.33,0,0,0-.22,2,3.77,3.77,0,0,0,1.41.71l1.81.58a3.88,3.88,0,0,1,2,1.23,2.85,2.85,0,0,1,.59,1.79A3.3,3.3,0,0,1,47,28.27,3.61,3.61,0,0,1,46,29.4a4.21,4.21,0,0,1-1.42.71A6.14,6.14,0,0,1,42.79,30.36Z" style="fill:#232f3e"/><path d="M45.2,36.57c-4.2,3.11-10.3,4.76-15.56,4.76a28.17,28.17,0,0,1-19-7.25c-.39-.36,0-.84.43-.57a38.29,38.29,0,0,0,19,5.05,37.82,37.82,0,0,0,14.51-3C45.3,35.29,45.9,36.06,45.2,36.57Z" style="fill:#232f3e;fill-rule:evenodd"/><path d="M47,34.57c-.54-.69-3.56-.32-4.92-.16-.41.05-.47-.31-.1-.57,2.41-1.69,6.35-1.2,6.81-.64s-.12,4.53-2.38,6.42c-.34.29-.67.14-.52-.25C46.36,38.1,47.49,35.26,47,34.57Z" style="fill:#232f3e;fill-rule:evenodd"/></g></svg>