<svg xmlns="http://www.w3.org/2000/svg" width="60" height="60" viewBox="0 0 60 60"><title>architecture-resource_VPC_Peering</title><g id="Background"><rect width="60" height="60" style="fill:#fff"/><path d="M59,1V59H1V1H59m1-1H0V60H60V0Z" style="fill:#232f3e"/></g><g id="Art"><polyline points="25.34 16.04 30 11.38 34.66 16.04" style="fill:none;stroke:#232f3e;stroke-linejoin:round;stroke-width:2px"/><line x1="30" y1="47.88" x2="30" y2="37.47" style="fill:none;stroke:#232f3e;stroke-linejoin:round;stroke-width:2px"/><line x1="30" y1="21.72" x2="30" y2="12.12" style="fill:none;stroke:#232f3e;stroke-linejoin:round;stroke-width:2px"/><polyline points="34.66 43.97 30 48.62 25.34 43.97" style="fill:none;stroke:#232f3e;stroke-linejoin:round;stroke-width:2px"/><polyline points="43.97 25.34 48.62 30 43.97 34.66" style="fill:none;stroke:#232f3e;stroke-linejoin:round;stroke-width:2px"/><line x1="19.28" y1="30" x2="12.12" y2="30" style="fill:none;stroke:#232f3e;stroke-linejoin:round;stroke-width:2px"/><line x1="47.88" y1="30" x2="40.7" y2="30" style="fill:none;stroke:#232f3e;stroke-linejoin:round;stroke-width:2px"/><polyline points="16.04 34.66 11.38 30 16.04 25.34" style="fill:none;stroke:#232f3e;stroke-linejoin:round;stroke-width:2px"/><circle cx="30" cy="30" r="22.5" style="fill:none;stroke:#232f3e;stroke-linejoin:round;stroke-width:2px"/><path d="M34.89,34.66h.32a2.69,2.69,0,0,0,2.94-2.91,2.91,2.91,0,0,0-2.65-2.91c-.08-1.47-1-2.16-1.82-2.16a1.74,1.74,0,0,0-1.38.71,5,5,0,0,0-1.14-1.84,4.14,4.14,0,0,0-4.65-.91,4.29,4.29,0,0,0-2.45,3.74,4.36,4.36,0,0,0,0,.51,2.77,2.77,0,0,0-2.24,2.84c0,.07,0,.14,0,.2a3.21,3.21,0,0,0,3.25,2.73Z" style="fill:none;stroke:#232f3e;stroke-linejoin:round;stroke-width:2px"/></g></svg>