<svg xmlns="http://www.w3.org/2000/svg" width="60" height="60" viewBox="0 0 60 60"><title>architecture-resource_Elastic-Beanstalk_Application</title><g id="Background"><rect width="60" height="60" style="fill:#fff"/><path d="M59,1V59H1V1H59m1-1H0V60H60V0Z" style="fill:#232f3e"/></g><g id="Art"><path d="M43.48,7.33s1.64,14-5.8,21.6c-6.93,7.07-19.3,6.11-21,5.94l-.19,0s-1.64-14,5.8-21.59S43.48,7.33,43.48,7.33Z" style="fill:none;stroke:#232f3e;stroke-linejoin:round;stroke-width:2px"/><path d="M43.48,7.33A108.17,108.17,0,0,1,30.94,22.55,107.28,107.28,0,0,1,16.71,34.87l-.19,0s-1.64-14,5.8-21.59S43.48,7.33,43.48,7.33Z" style="fill:none;stroke:#232f3e;stroke-linejoin:round;stroke-width:2px"/><line x1="16.37" y1="52.82" x2="16.37" y2="33.13" style="fill:none;stroke:#232f3e;stroke-linejoin:round;stroke-width:2px"/></g></svg>