<svg xmlns="http://www.w3.org/2000/svg" width="60" height="60" viewBox="0 0 60 60"><title>architecture-resource_IOT_Actuator</title><g id="Background"><rect width="60" height="60" style="fill:#fff"/><path d="M59,1V59H1V1H59m1-1H0V60H60V0Z" style="fill:#232f3e"/></g><g id="Art"><path d="M36.58,10.94c2.31-3.07,7.45-2.11,7.83,3.47v.07c2.34.41,6.46,2,6.46,7.16,0,6.61-6.64,7.14-6.64,7.14H37.53" style="fill:none;stroke:#232f3e;stroke-linejoin:round;stroke-width:2px"/><path d="M36.58,11h0A11.72,11.72,0,0,0,33.8,6.43,10.12,10.12,0,0,0,22.45,4.19a10.52,10.52,0,0,0-6,9.18,10.36,10.36,0,0,0,.07,1.25,6.78,6.78,0,0,0-5.47,7c0,.2,0,.4,0,.58a7.25,7.25,0,0,0,7.33,6.6h6" style="fill:none;stroke:#232f3e;stroke-linejoin:round;stroke-width:2px"/><polyline points="34.72 29.72 30.97 33.47 27.22 29.72" style="fill:none;stroke:#232f3e;stroke-linejoin:round;stroke-width:2px"/><line x1="30.97" y1="33.02" x2="30.97" y2="22.22" style="fill:none;stroke:#232f3e;stroke-linejoin:round;stroke-width:2px"/><circle cx="30.97" cy="19.41" r="3.28" transform="translate(6.85 46.87) rotate(-80.78)" style="fill:none;stroke:#232f3e;stroke-linejoin:round;stroke-width:2px"/><rect x="10.34" y="36.35" width="41.25" height="12.19" style="fill:none;stroke:#232f3e;stroke-linejoin:round;stroke-width:2px"/><circle cx="17.38" cy="42.38" r="2.58" style="fill:none;stroke:#232f3e;stroke-linejoin:round;stroke-width:2px"/><polygon points="27.22 44.72 34.72 44.72 30.97 39.63 27.22 44.72" style="fill:none;stroke:#232f3e;stroke-linejoin:round;stroke-width:2px"/><rect x="42.22" y="40.1" width="4.69" height="4.69" style="fill:none;stroke:#232f3e;stroke-linejoin:round;stroke-width:2px"/></g></svg>