<svg xmlns="http://www.w3.org/2000/svg" width="60" height="60" viewBox="0 0 60 60"><title>architecture-resource_IAM_Data-encryption-key</title><g id="Background"><rect width="60" height="60" style="fill:#fff"/><path d="M59,1V59H1V1H59m1-1H0V60H60V0Z" style="fill:#232f3e"/></g><g id="Art"><rect x="12.19" y="7.5" width="35.63" height="45" rx="1.81" ry="1.81" style="fill:none;stroke:#232f3e;stroke-miterlimit:10;stroke-width:2px"/><path d="M15.51,16.88a6.06,6.06,0,0,0,4.23,5.78V34l1.84,1.58,1.85-2.11V31.93L25,30.35l-1.59-1.59V27.71L25,26.12l-1.59-1.58V22.66a6.07,6.07,0,1,0-7.92-5.78ZM19.74,15a1.85,1.85,0,1,1,1.84,1.85A1.84,1.84,0,0,1,19.74,15Z" style="fill:none;stroke:#232f3e;stroke-linejoin:round;stroke-width:2px"/><rect x="27.19" y="34.69" width="16.87" height="14.06" style="fill:none;stroke:#232f3e;stroke-linejoin:round;stroke-width:2px"/><path d="M40.3,34.81V31a4.85,4.85,0,0,0-4.65-5h0a4.86,4.86,0,0,0-4.71,5l0,3.89" style="fill:none;stroke:#232f3e;stroke-linejoin:round;stroke-width:2px"/><path d="M37.43,40.05a1.81,1.81,0,1,1-1.8-1.8A1.81,1.81,0,0,1,37.43,40.05Z" style="fill:none;stroke:#232f3e;stroke-linejoin:round;stroke-width:2px"/><line x1="35.63" y1="41.52" x2="35.63" y2="45.74" style="fill:#6b6b6b;stroke:#232f3e;stroke-linejoin:round;stroke-width:2px"/></g></svg>