<svg xmlns="http://www.w3.org/2000/svg" width="60" height="60" viewBox="0 0 60 60"><title>architecture-resource_ECS_Container-2</title><g id="Background"><rect width="60" height="60" style="fill:#fff"/><path d="M59,1V59H1V1H59m1-1H0V60H60V0Z" style="fill:#232f3e"/></g><g id="Art"><rect x="7.5" y="15.94" width="45" height="28.13" style="fill:none;stroke:#232f3e;stroke-linejoin:round;stroke-width:2px"/><line x1="12.19" y1="19.69" x2="12.19" y2="40.31" style="fill:none;stroke:#232f3e;stroke-linejoin:round;stroke-width:2px"/><line x1="17.81" y1="19.69" x2="17.81" y2="40.31" style="fill:none;stroke:#232f3e;stroke-linejoin:round;stroke-width:2px"/><line x1="42.19" y1="19.69" x2="42.19" y2="40.31" style="fill:none;stroke:#232f3e;stroke-linejoin:round;stroke-width:2px"/><line x1="47.81" y1="19.69" x2="47.81" y2="40.31" style="fill:none;stroke:#232f3e;stroke-linejoin:round;stroke-width:2px"/><rect x="23.44" y="23.44" width="13.12" height="13.13" rx="0.69" ry="0.69" transform="translate(60 60) rotate(180)" style="fill:none;stroke:#232f3e;stroke-linejoin:round;stroke-width:2px"/><line x1="24.38" y1="20.63" x2="24.38" y2="23.44" style="fill:none;stroke:#232f3e;stroke-linejoin:round;stroke-width:2px"/><line x1="28.13" y1="20.63" x2="28.13" y2="23.44" style="fill:none;stroke:#232f3e;stroke-linejoin:round;stroke-width:2px"/><line x1="31.88" y1="20.63" x2="31.88" y2="23.44" style="fill:none;stroke:#232f3e;stroke-linejoin:round;stroke-width:2px"/><line x1="35.63" y1="20.63" x2="35.63" y2="23.44" style="fill:none;stroke:#232f3e;stroke-linejoin:round;stroke-width:2px"/><line x1="24.38" y1="36.56" x2="24.38" y2="39.38" style="fill:none;stroke:#232f3e;stroke-linejoin:round;stroke-width:2px"/><line x1="28.13" y1="36.56" x2="28.13" y2="39.38" style="fill:none;stroke:#232f3e;stroke-linejoin:round;stroke-width:2px"/><line x1="31.88" y1="36.56" x2="31.88" y2="39.38" style="fill:none;stroke:#232f3e;stroke-linejoin:round;stroke-width:2px"/><line x1="35.63" y1="36.56" x2="35.63" y2="39.38" style="fill:none;stroke:#232f3e;stroke-linejoin:round;stroke-width:2px"/><line x1="23.44" y1="24.38" x2="20.63" y2="24.38" style="fill:none;stroke:#232f3e;stroke-linejoin:round;stroke-width:2px"/><line x1="23.44" y1="28.13" x2="20.63" y2="28.13" style="fill:none;stroke:#232f3e;stroke-linejoin:round;stroke-width:2px"/><line x1="23.44" y1="31.88" x2="20.63" y2="31.88" style="fill:none;stroke:#232f3e;stroke-linejoin:round;stroke-width:2px"/><line x1="23.44" y1="35.63" x2="20.63" y2="35.63" style="fill:none;stroke:#232f3e;stroke-linejoin:round;stroke-width:2px"/><line x1="39.38" y1="24.38" x2="36.56" y2="24.38" style="fill:none;stroke:#232f3e;stroke-linejoin:round;stroke-width:2px"/><line x1="39.38" y1="28.13" x2="36.56" y2="28.13" style="fill:none;stroke:#232f3e;stroke-linejoin:round;stroke-width:2px"/><line x1="39.38" y1="31.88" x2="36.56" y2="31.88" style="fill:none;stroke:#232f3e;stroke-linejoin:round;stroke-width:2px"/><line x1="39.38" y1="35.63" x2="36.56" y2="35.63" style="fill:none;stroke:#232f3e;stroke-linejoin:round;stroke-width:2px"/></g></svg>