<svg xmlns="http://www.w3.org/2000/svg" width="60" height="60" viewBox="0 0 60 60"><title>architecture-resource_SQS_Message</title><g id="Background"><rect width="60" height="60" style="fill:#fff"/><path d="M59,1V59H1V1H59m1-1H0V60H60V0Z" style="fill:#232f3e"/></g><g id="Art"><rect x="-8.44" y="23.91" width="45" height="12.19" transform="translate(-15.94 44.06) rotate(-90)" style="fill:none;stroke:#232f3e;stroke-linejoin:round;stroke-width:2px"/><polyline points="34.09 7.5 36.09 7.5 36.09 9.5" style="fill:none;stroke:#232f3e;stroke-linejoin:round;stroke-width:2px"/><line x1="36.09" y1="11.36" x2="36.09" y2="49.57" style="fill:none;stroke:#232f3e;stroke-linejoin:round;stroke-width:2px;stroke-dasharray:3.7272703647613525,1.8636351823806763"/><polyline points="36.09 50.5 36.09 52.5 34.09 52.5" style="fill:none;stroke:#232f3e;stroke-linejoin:round;stroke-width:2px"/><line x1="32.05" y1="52.5" x2="26.93" y2="52.5" style="fill:none;stroke:#232f3e;stroke-linejoin:round;stroke-width:2px;stroke-dasharray:4.093748092651367,2.0468740463256836"/><polyline points="25.91 52.5 23.91 52.5 23.91 50.5" style="fill:none;stroke:#232f3e;stroke-linejoin:round;stroke-width:2px"/><line x1="23.91" y1="48.64" x2="23.91" y2="10.43" style="fill:none;stroke:#232f3e;stroke-linejoin:round;stroke-width:2px;stroke-dasharray:3.7272703647613525,1.8636351823806763"/><polyline points="23.91 9.5 23.91 7.5 25.91 7.5" style="fill:none;stroke:#232f3e;stroke-linejoin:round;stroke-width:2px"/><line x1="27.95" y1="7.5" x2="33.07" y2="7.5" style="fill:none;stroke:#232f3e;stroke-linejoin:round;stroke-width:2px;stroke-dasharray:4.093748092651367,2.0468740463256836"/><polyline points="50.03 7.5 52.03 7.5 52.03 9.5" style="fill:none;stroke:#232f3e;stroke-linejoin:round;stroke-width:2px"/><line x1="52.03" y1="11.36" x2="52.03" y2="49.57" style="fill:none;stroke:#232f3e;stroke-linejoin:round;stroke-width:2px;stroke-dasharray:3.7272703647613525,1.8636351823806763"/><polyline points="52.03 50.5 52.03 52.5 50.03 52.5" style="fill:none;stroke:#232f3e;stroke-linejoin:round;stroke-width:2px"/><line x1="47.98" y1="52.5" x2="42.87" y2="52.5" style="fill:none;stroke:#232f3e;stroke-linejoin:round;stroke-width:2px;stroke-dasharray:4.093748092651367,2.0468740463256836"/><polyline points="41.84 52.5 39.84 52.5 39.84 50.5" style="fill:none;stroke:#232f3e;stroke-linejoin:round;stroke-width:2px"/><line x1="39.84" y1="48.64" x2="39.84" y2="10.43" style="fill:none;stroke:#232f3e;stroke-linejoin:round;stroke-width:2px;stroke-dasharray:3.7272703647613525,1.8636351823806763"/><polyline points="39.84 9.5 39.84 7.5 41.84 7.5" style="fill:none;stroke:#232f3e;stroke-linejoin:round;stroke-width:2px"/><line x1="43.89" y1="7.5" x2="49.01" y2="7.5" style="fill:none;stroke:#232f3e;stroke-linejoin:round;stroke-width:2px;stroke-dasharray:4.093748092651367,2.0468740463256836"/></g></svg>