<svg xmlns="http://www.w3.org/2000/svg" width="60" height="60" viewBox="0 0 60 60"><title>architecture-resource_VPC_Network-access-control-list</title><g id="Background"><rect width="60" height="60" style="fill:#fff"/><path d="M59,1V59H1V1H59m1-1H0V60H60V0Z" style="fill:#232f3e"/></g><g id="Art"><rect x="24.38" y="27.19" width="11.25" height="9.37" style="fill:none;stroke:#232f3e;stroke-linejoin:round;stroke-width:2px"/><path d="M32.81,27.19V24.72A3,3,0,0,0,30,21.51h0a3,3,0,0,0-2.83,3.18v2.49" style="fill:none;stroke:#232f3e;stroke-linejoin:round;stroke-width:2px"/><circle cx="30" cy="30" r="22.5" style="fill:none;stroke:#232f3e;stroke-miterlimit:10;stroke-width:2px"/><polygon points="12.19 26.12 16.84 30 12.19 33.88 12.19 26.12" style="fill:none;stroke:#232f3e;stroke-linejoin:round;stroke-width:2px"/><polygon points="47.81 33.88 43.16 30 47.81 26.12 47.81 33.88" style="fill:none;stroke:#232f3e;stroke-linejoin:round;stroke-width:2px"/><line x1="19.69" y1="17.81" x2="19.69" y2="42.19" style="fill:none;stroke:#232f3e;stroke-linejoin:round;stroke-width:2px"/><line x1="40.31" y1="17.81" x2="40.31" y2="42.19" style="fill:none;stroke:#232f3e;stroke-linejoin:round;stroke-width:2px"/></g></svg>