<svg xmlns="http://www.w3.org/2000/svg" width="60" height="60" viewBox="0 0 60 60"><title>architecture-resource_IOT_Thing-Windfarm</title><g id="Background"><rect width="60" height="60" style="fill:#fff"/><path d="M59,1V59H1V1H59m1-1H0V60H60V0Z" style="fill:#232f3e"/></g><g id="Art"><rect x="11.16" y="14.23" width="35.62" height="35.61" rx="2.13" ry="2.13" style="fill:none;stroke:#232f3e;stroke-miterlimit:10;stroke-width:2px"/><line x1="17.72" y1="8.59" x2="17.72" y2="14.22" style="fill:none;stroke:#232f3e;stroke-miterlimit:10;stroke-width:2px"/><line x1="23.34" y1="8.59" x2="23.34" y2="14.22" style="fill:none;stroke:#232f3e;stroke-miterlimit:10;stroke-width:2px"/><line x1="28.97" y1="8.59" x2="28.97" y2="14.22" style="fill:none;stroke:#232f3e;stroke-miterlimit:10;stroke-width:2px"/><line x1="34.59" y1="8.59" x2="34.59" y2="14.22" style="fill:none;stroke:#232f3e;stroke-miterlimit:10;stroke-width:2px"/><line x1="40.22" y1="8.59" x2="40.22" y2="14.22" style="fill:none;stroke:#232f3e;stroke-miterlimit:10;stroke-width:2px"/><line x1="17.72" y1="49.84" x2="17.72" y2="55.47" style="fill:none;stroke:#232f3e;stroke-miterlimit:10;stroke-width:2px"/><line x1="23.34" y1="49.84" x2="23.34" y2="55.47" style="fill:none;stroke:#232f3e;stroke-miterlimit:10;stroke-width:2px"/><line x1="28.97" y1="49.84" x2="28.97" y2="55.47" style="fill:none;stroke:#232f3e;stroke-miterlimit:10;stroke-width:2px"/><line x1="34.59" y1="49.84" x2="34.59" y2="55.47" style="fill:none;stroke:#232f3e;stroke-miterlimit:10;stroke-width:2px"/><line x1="40.22" y1="49.84" x2="40.22" y2="55.47" style="fill:none;stroke:#232f3e;stroke-miterlimit:10;stroke-width:2px"/><line x1="11.16" y1="20.78" x2="5.53" y2="20.78" style="fill:none;stroke:#232f3e;stroke-miterlimit:10;stroke-width:2px"/><line x1="11.16" y1="26.41" x2="5.53" y2="26.41" style="fill:none;stroke:#232f3e;stroke-miterlimit:10;stroke-width:2px"/><line x1="11.16" y1="32.03" x2="5.53" y2="32.03" style="fill:none;stroke:#232f3e;stroke-miterlimit:10;stroke-width:2px"/><line x1="11.16" y1="37.66" x2="5.53" y2="37.66" style="fill:none;stroke:#232f3e;stroke-miterlimit:10;stroke-width:2px"/><line x1="11.16" y1="43.28" x2="5.53" y2="43.28" style="fill:none;stroke:#232f3e;stroke-miterlimit:10;stroke-width:2px"/><line x1="52.41" y1="20.78" x2="46.78" y2="20.78" style="fill:none;stroke:#232f3e;stroke-miterlimit:10;stroke-width:2px"/><line x1="52.41" y1="26.41" x2="46.78" y2="26.41" style="fill:none;stroke:#232f3e;stroke-miterlimit:10;stroke-width:2px"/><line x1="52.41" y1="32.03" x2="46.78" y2="32.03" style="fill:none;stroke:#232f3e;stroke-miterlimit:10;stroke-width:2px"/><line x1="52.41" y1="37.66" x2="46.78" y2="37.66" style="fill:none;stroke:#232f3e;stroke-miterlimit:10;stroke-width:2px"/><line x1="52.41" y1="43.28" x2="46.78" y2="43.28" style="fill:none;stroke:#232f3e;stroke-miterlimit:10;stroke-width:2px"/><line x1="30.84" y1="47.03" x2="30.83" y2="34.85" style="fill:none;stroke:#232f3e;stroke-linejoin:round;stroke-width:2px"/><line x1="28.5" y1="30.16" x2="15.84" y2="30.16" style="fill:none;stroke:#232f3e;stroke-linejoin:round;stroke-width:2px"/><line x1="40.35" y1="40.6" x2="31.96" y2="32.21" style="fill:none;stroke:#232f3e;stroke-linejoin:round;stroke-width:2px"/><line x1="37.41" y1="17.03" x2="31.89" y2="28.07" style="fill:none;stroke:#232f3e;stroke-linejoin:round;stroke-width:2px"/><circle cx="30.84" cy="30.16" r="2.34" style="fill:none;stroke:#232f3e;stroke-linejoin:round;stroke-width:2px"/></g></svg>