<svg xmlns="http://www.w3.org/2000/svg" width="80" height="115" viewBox="0 0 80 115"><title>architecture-product-card_Classic_Load_Balancer</title><g id="CARDS"><rect x="1" y="1" width="78" height="78" style="fill:#232f3e"/><path d="M0,0V80H0v35H80V80h0V0ZM1,1H79V79H1Z" style="fill:#fff"/></g><g id="TEXT_-_EDIT" data-name="TEXT - EDIT"><path d="M16.92,92.13a4.59,4.59,0,0,1-1.78.34q-3.37,0-3.37-3.9a4.4,4.4,0,0,1,.88-2.95,3.15,3.15,0,0,1,2.53-1,4.72,4.72,0,0,1,1.65.3v1.21a5.74,5.74,0,0,0-1.45-.23,1.62,1.62,0,0,0-1.4.61,3.37,3.37,0,0,0-.44,1.93v.25a3.27,3.27,0,0,0,.43,1.9,1.57,1.57,0,0,0,1.38.61,7.14,7.14,0,0,0,1.57-.26Z" style="fill:#232f3e"/><path d="M20.32,92.25a2.69,2.69,0,0,1-1,.16A1.41,1.41,0,0,1,18.28,92a1.54,1.54,0,0,1-.36-1.12V84.21h1.65v6.54a.75.75,0,0,0,.08.4.36.36,0,0,0,.32.12,2.14,2.14,0,0,0,.35,0Z" style="fill:#232f3e"/><path d="M24.24,92.35l-.15-.51a1.49,1.49,0,0,1-.59.47,1.85,1.85,0,0,1-.78.18A1.56,1.56,0,0,1,21.54,92a1.66,1.66,0,0,1-.44-1.22,1.69,1.69,0,0,1,.53-1.31A2.08,2.08,0,0,1,23.07,89a3.88,3.88,0,0,1,.92.13v-.51a1.33,1.33,0,0,0-.16-.78.77.77,0,0,0-.61-.2,5.9,5.9,0,0,0-1.77.35V87a3.07,3.07,0,0,1,.92-.33,5.54,5.54,0,0,1,1.15-.12A2.19,2.19,0,0,1,25,87a1.78,1.78,0,0,1,.47,1.39v3.94Zm-1-.92a1.17,1.17,0,0,0,.79-.35V90a2.25,2.25,0,0,0-.62-.07.69.69,0,0,0-.54.2.85.85,0,0,0-.18.59.82.82,0,0,0,.15.52A.47.47,0,0,0,23.2,91.43Z" style="fill:#232f3e"/><path d="M28.91,90.77c0-.25-.17-.46-.52-.62l-.72-.35a1.68,1.68,0,0,1-1.13-1.59A1.42,1.42,0,0,1,27.09,87a2.26,2.26,0,0,1,1.47-.45,3.57,3.57,0,0,1,1.53.35v1a5.13,5.13,0,0,0-.7-.19,3,3,0,0,0-.6-.07c-.51,0-.77.18-.77.54s.21.45.64.66l.72.34a1.9,1.9,0,0,1,.77.62,1.69,1.69,0,0,1,.24.93A1.56,1.56,0,0,1,29.84,92a2.28,2.28,0,0,1-1.48.46,3.8,3.8,0,0,1-1.82-.44v-1a5.45,5.45,0,0,0,1.61.35.86.86,0,0,0,.57-.17A.56.56,0,0,0,28.91,90.77Z" style="fill:#232f3e"/><path d="M33.32,90.77c0-.25-.17-.46-.52-.62l-.72-.35A1.68,1.68,0,0,1,31,88.21,1.42,1.42,0,0,1,31.5,87,2.26,2.26,0,0,1,33,86.58a3.57,3.57,0,0,1,1.53.35v1a5.56,5.56,0,0,0-.7-.19,3,3,0,0,0-.6-.07c-.51,0-.77.18-.77.54s.21.45.64.66l.72.34a1.9,1.9,0,0,1,.77.62,1.69,1.69,0,0,1,.24.93A1.56,1.56,0,0,1,34.25,92a2.3,2.3,0,0,1-1.48.46A3.8,3.8,0,0,1,31,92.05v-1a5.45,5.45,0,0,0,1.61.35.86.86,0,0,0,.57-.17A.56.56,0,0,0,33.32,90.77Z" style="fill:#232f3e"/><path d="M36.6,85.81a1,1,0,0,1-.71-.22.76.76,0,0,1-.27-.61.75.75,0,0,1,.27-.61,1.2,1.2,0,0,1,1.41,0,.77.77,0,0,1,.26.61.79.79,0,0,1-.26.61A1,1,0,0,1,36.6,85.81Zm-.83,6.54V86.72h1.65v5.63Z" style="fill:#232f3e"/><path d="M42.51,92.09a2,2,0,0,1-.64.26,3.44,3.44,0,0,1-.8.09,2.29,2.29,0,0,1-1.85-.73,3.29,3.29,0,0,1-.62-2.16,3.16,3.16,0,0,1,.67-2.16,2.34,2.34,0,0,1,1.87-.76,2.93,2.93,0,0,1,1.35.33v1a3.09,3.09,0,0,0-1-.19,1.05,1.05,0,0,0-.93.4,2.29,2.29,0,0,0-.28,1.29v.16a2.32,2.32,0,0,0,.27,1.28,1,1,0,0,0,.91.4,3.22,3.22,0,0,0,1.08-.21Z" style="fill:#232f3e"/><path d="M46.21,92.35V84.72H47.9v6.4h2.84v1.23Z" style="fill:#232f3e"/><path d="M53.74,92.49a2.27,2.27,0,0,1-1.84-.77,4,4,0,0,1,0-4.37,2.58,2.58,0,0,1,3.68,0,4,4,0,0,1,0,4.37A2.29,2.29,0,0,1,53.74,92.49Zm0-1.15a.65.65,0,0,0,.64-.43,4.79,4.79,0,0,0,0-2.74.69.69,0,0,0-1.28,0,4.79,4.79,0,0,0,0,2.74A.65.65,0,0,0,53.74,91.34Z" style="fill:#232f3e"/><path d="M60.29,92.35l-.14-.51a1.49,1.49,0,0,1-.59.47,1.85,1.85,0,0,1-.78.18A1.54,1.54,0,0,1,57.6,92a1.66,1.66,0,0,1-.44-1.22,1.69,1.69,0,0,1,.53-1.31A2,2,0,0,1,59.12,89a4,4,0,0,1,.93.13v-.51a1.33,1.33,0,0,0-.16-.78.77.77,0,0,0-.61-.2,5.9,5.9,0,0,0-1.77.35V87a3,3,0,0,1,.92-.33,5.47,5.47,0,0,1,1.15-.12A2.19,2.19,0,0,1,61.1,87a1.82,1.82,0,0,1,.47,1.39v3.94Zm-1-.92a1.17,1.17,0,0,0,.79-.35V90a2.25,2.25,0,0,0-.62-.07.67.67,0,0,0-.54.2.85.85,0,0,0-.19.59.82.82,0,0,0,.15.52A.49.49,0,0,0,59.26,91.43Z" style="fill:#232f3e"/><path d="M66.22,92.35l-.13-.49a2.2,2.2,0,0,1-.63.43,1.86,1.86,0,0,1-.72.15,1.74,1.74,0,0,1-1.51-.75,3.65,3.65,0,0,1-.54-2.13,3.73,3.73,0,0,1,.56-2.19,1.73,1.73,0,0,1,1.52-.79,2.08,2.08,0,0,1,.64.13A2.35,2.35,0,0,1,66,87V84.21h1.65v8.14Zm-.93-1A1.4,1.4,0,0,0,66,91.1V88a1.54,1.54,0,0,0-.8-.26.69.69,0,0,0-.67.44,3.39,3.39,0,0,0-.21,1.39,3.05,3.05,0,0,0,.23,1.36A.75.75,0,0,0,65.29,91.32Z" style="fill:#232f3e"/><path d="M20,106.35V98.72h2.51a2.4,2.4,0,0,1,1.64.56,1.87,1.87,0,0,1,.64,1.47,1.83,1.83,0,0,1-.25,1,1.6,1.6,0,0,1-.74.61,1.92,1.92,0,0,1,1,.68,2,2,0,0,1,.34,1.18,1.92,1.92,0,0,1-.7,1.56,2.78,2.78,0,0,1-1.86.59Zm1.59-6.53v2.11h.67a.84.84,0,0,0,.66-.27,1.13,1.13,0,0,0,.24-.77,1.3,1.3,0,0,0-.21-.79.7.7,0,0,0-.58-.28Zm0,3.16v2.27h1a.9.9,0,0,0,.71-.29,1.28,1.28,0,0,0,.24-.84,1.19,1.19,0,0,0-.27-.84,1,1,0,0,0-.78-.3Z" style="fill:#232f3e"/><path d="M29.13,106.35l-.15-.51a1.42,1.42,0,0,1-.59.47,1.85,1.85,0,0,1-.78.18,1.56,1.56,0,0,1-1.18-.45,1.66,1.66,0,0,1-.44-1.22,1.69,1.69,0,0,1,.53-1.31A2.08,2.08,0,0,1,28,103a4,4,0,0,1,.93.13v-.51a1.32,1.32,0,0,0-.17-.78.77.77,0,0,0-.61-.2,5.9,5.9,0,0,0-1.77.35v-1a3.07,3.07,0,0,1,.92-.33,5.57,5.57,0,0,1,1.16-.12,2.18,2.18,0,0,1,1.51.44,1.78,1.78,0,0,1,.47,1.39v3.94Zm-1-.92a1.21,1.21,0,0,0,.8-.35V104a2.38,2.38,0,0,0-.63-.07.69.69,0,0,0-.54.2.85.85,0,0,0-.18.59.82.82,0,0,0,.15.52A.47.47,0,0,0,28.09,105.43Z" style="fill:#232f3e"/><path d="M34.2,106.25a2.7,2.7,0,0,1-1,.16,1.39,1.39,0,0,1-1.07-.37,1.54,1.54,0,0,1-.36-1.12V98.21h1.65v6.54a.75.75,0,0,0,.08.4.36.36,0,0,0,.32.12,2.26,2.26,0,0,0,.35,0Z" style="fill:#232f3e"/><path d="M38.11,106.35l-.14-.51a1.49,1.49,0,0,1-.59.47,1.85,1.85,0,0,1-.78.18,1.54,1.54,0,0,1-1.18-.45,1.66,1.66,0,0,1-.44-1.22,1.69,1.69,0,0,1,.53-1.31,2,2,0,0,1,1.43-.47,4,4,0,0,1,.93.13v-.51a1.33,1.33,0,0,0-.16-.78.77.77,0,0,0-.61-.2,5.9,5.9,0,0,0-1.77.35v-1a3,3,0,0,1,.92-.33,5.47,5.47,0,0,1,1.15-.12,2.19,2.19,0,0,1,1.52.44,1.82,1.82,0,0,1,.47,1.39v3.94Zm-1-.92a1.17,1.17,0,0,0,.79-.35V104a2.25,2.25,0,0,0-.62-.07.67.67,0,0,0-.54.2.85.85,0,0,0-.19.59.82.82,0,0,0,.15.52A.49.49,0,0,0,37.08,105.43Z" style="fill:#232f3e"/><path d="M43.9,106.35v-3.7a1.25,1.25,0,0,0-.15-.7.53.53,0,0,0-.49-.22,1.59,1.59,0,0,0-.82.26v4.36H40.79v-5.63h1.35l.13.51a3.35,3.35,0,0,1,1.84-.65,1.34,1.34,0,0,1,1.07.42,1.83,1.83,0,0,1,.37,1.22v4.13Z" style="fill:#232f3e"/><path d="M50.58,106.09a2,2,0,0,1-.64.26,3.44,3.44,0,0,1-.8.09,2.3,2.3,0,0,1-1.85-.73,3.29,3.29,0,0,1-.62-2.16,3.16,3.16,0,0,1,.67-2.16,2.34,2.34,0,0,1,1.87-.76,2.93,2.93,0,0,1,1.35.33v1a3.09,3.09,0,0,0-1-.19,1.05,1.05,0,0,0-.93.4,2.29,2.29,0,0,0-.28,1.29v.16a2.23,2.23,0,0,0,.28,1.28,1,1,0,0,0,.9.4,3.22,3.22,0,0,0,1.08-.21Z" style="fill:#232f3e"/><path d="M52.85,103.92a1.66,1.66,0,0,0,.36,1.12,1.45,1.45,0,0,0,1.06.33,3.26,3.26,0,0,0,.68-.09,5.54,5.54,0,0,0,.8-.21v1a2.77,2.77,0,0,1-.83.31,4.77,4.77,0,0,1-1,.11c-1.72,0-2.58-1-2.58-2.95a3.32,3.32,0,0,1,.64-2.2,2.22,2.22,0,0,1,1.82-.76c1.37,0,2,.76,2,2.29a4.32,4.32,0,0,1-.12,1Zm.91-2.32c-.57,0-.88.46-.91,1.37h1.61v-.25a1.59,1.59,0,0,0-.17-.86A.59.59,0,0,0,53.76,101.6Z" style="fill:#232f3e"/><path d="M57,106.35v-5.63h1.35l.18.73a2.5,2.5,0,0,1,.72-.59,1.55,1.55,0,0,1,.75-.19,2.56,2.56,0,0,1,.39,0V102a5,5,0,0,0-.64,0,2.47,2.47,0,0,0-1.1.26v4.11Z" style="fill:#232f3e"/></g><g id="ICONS_-_EDIT" data-name="ICONS - EDIT"><path d="M53,57H28a1,1,0,0,1-1-1V23a1,1,0,0,1,1-1H47v2H29V55H52V29h2V56A1,1,0,0,1,53,57Z" style="fill:#fff"/><path d="M53,30H47a1,1,0,0,1-1-1V23a1,1,0,0,1,.62-.92,1,1,0,0,1,1.09.21l6,6a1,1,0,0,1,.21,1.09A1,1,0,0,1,53,30Zm-5-2h2.59L48,25.41Z" style="fill:#fff"/><path d="M40.5,51A10.41,10.41,0,1,1,51,40.59,10.47,10.47,0,0,1,40.5,51Zm0-18.81a8.41,8.41,0,1,0,8.5,8.4A8.46,8.46,0,0,0,40.5,32.19Z" style="fill:#fff"/><path d="M35.5,43.45a3,3,0,1,1,3-3A3,3,0,0,1,35.5,43.45Zm0-3.9a1,1,0,1,0,1,1A1,1,0,0,0,35.5,39.55Z" style="fill:#fff"/><path d="M43.5,39.4a2.9,2.9,0,1,1,2.9-2.9A2.9,2.9,0,0,1,43.5,39.4Zm0-3.8a.9.9,0,1,0,.9.9A.9.9,0,0,0,43.5,35.6Z" style="fill:#fff"/><path d="M43.5,47.45a3,3,0,1,1,3-3A3,3,0,0,1,43.5,47.45Zm0-3.9a1,1,0,1,0,1,1A1,1,0,0,0,43.5,43.55Z" style="fill:#fff"/><path d="M41.3,44.41,36.89,42l.49-.86v-1a1,1,0,0,1,.5.13l4.41,2.45Z" style="fill:#fff"/><path d="M37.71,40.52l-.44-.87-.71-.73a.88.88,0,0,1,.25-.18l4.55-2.28.9,1.78Z" style="fill:#fff"/><path d="M40,65A25,25,0,1,1,65,40,25,25,0,0,1,40,65Zm0-48A23,23,0,1,0,63,40,23,23,0,0,0,40,17Z" style="fill:#fff"/></g></svg>