<svg xmlns="http://www.w3.org/2000/svg" width="80" height="115" viewBox="0 0 80 115"><title>Artboard 71</title><g id="CARDS"><rect x="1" y="1" width="78" height="78" style="fill:#232f3e"/><path d="M0,0V80H0v35H80V80h0V0ZM1,1H79V79H1Z" style="fill:#fff"/></g><g id="TEXT_-_EDIT" data-name="TEXT - EDIT"><path d="M33.69,92.35l-.44-1.82h-2l-.42,1.82H29.06l2.31-7.63h1.87l2.3,7.63Zm-2.18-2.92H33l-.76-3.16Z" style="fill:#232f3e"/><path d="M40.89,92.35,40,86.72l-.89,5.63H37.19l-1.78-7.63h1.7l1.06,6.06L39.08,85h1.84l.94,5.65,1-6h1.66l-1.78,7.63Z" style="fill:#232f3e"/><path d="M46.84,89a3.55,3.55,0,0,1-1.27-1,2,2,0,0,1-.39-1.23,2,2,0,0,1,.34-1.17,2.11,2.11,0,0,1,.92-.77,3.18,3.18,0,0,1,1.34-.27,4.85,4.85,0,0,1,1.89.39v1.17A5.44,5.44,0,0,0,48,85.79a1.24,1.24,0,0,0-.79.23.75.75,0,0,0-.29.64.86.86,0,0,0,.18.56,2.32,2.32,0,0,0,.72.48l.65.32a5.12,5.12,0,0,1,1,.62,2,2,0,0,1,.54.69,2.29,2.29,0,0,1,.17.92,2,2,0,0,1-.74,1.65,3.09,3.09,0,0,1-2,.61,5.35,5.35,0,0,1-1.13-.12,3.76,3.76,0,0,1-.95-.32V90.92a7.29,7.29,0,0,0,1,.25,5.33,5.33,0,0,0,1,.11,1.34,1.34,0,0,0,.88-.25.86.86,0,0,0,.3-.71.84.84,0,0,0-.21-.58,2.47,2.47,0,0,0-.71-.47Z" style="fill:#232f3e"/><path d="M17.25,106.13a4.63,4.63,0,0,1-1.78.34q-3.37,0-3.38-3.9A4.46,4.46,0,0,1,13,99.62a3.16,3.16,0,0,1,2.53-1,4.72,4.72,0,0,1,1.65.3v1.21a5.61,5.61,0,0,0-1.44-.23,1.61,1.61,0,0,0-1.4.61,3.29,3.29,0,0,0-.45,1.93v.25a3.26,3.26,0,0,0,.44,1.9,1.55,1.55,0,0,0,1.37.61,7.12,7.12,0,0,0,1.58-.26Z" style="fill:#232f3e"/><path d="M20.48,106.49a2.31,2.31,0,0,1-1.85-.77,4,4,0,0,1,0-4.37,2.31,2.31,0,0,1,1.85-.77,2.29,2.29,0,0,1,1.84.77,4,4,0,0,1,0,4.37A2.29,2.29,0,0,1,20.48,106.49Zm0-1.15a.66.66,0,0,0,.64-.43,4.79,4.79,0,0,0,0-2.74.66.66,0,0,0-.64-.44.67.67,0,0,0-.65.44,4.79,4.79,0,0,0,0,2.74A.67.67,0,0,0,20.48,105.34Z" style="fill:#232f3e"/><path d="M27.38,106.35l-.13-.49a2.12,2.12,0,0,1-.64.43,1.78,1.78,0,0,1-.71.15,1.74,1.74,0,0,1-1.51-.75,3.65,3.65,0,0,1-.54-2.13,3.73,3.73,0,0,1,.55-2.19,1.76,1.76,0,0,1,1.53-.79,2.08,2.08,0,0,1,.64.13,2.52,2.52,0,0,1,.61.33V98.21h1.65v8.14Zm-.93-1a1.4,1.4,0,0,0,.73-.22V102a1.54,1.54,0,0,0-.8-.26.69.69,0,0,0-.67.44,3.39,3.39,0,0,0-.21,1.39,3.05,3.05,0,0,0,.23,1.36A.75.75,0,0,0,26.45,105.32Z" style="fill:#232f3e"/><path d="M31.46,103.92a1.71,1.71,0,0,0,.37,1.12,1.43,1.43,0,0,0,1.06.33,3.26,3.26,0,0,0,.68-.09,5.9,5.9,0,0,0,.8-.21v1a2.88,2.88,0,0,1-.83.31,4.77,4.77,0,0,1-1,.11c-1.72,0-2.58-1-2.58-2.95a3.37,3.37,0,0,1,.63-2.2,2.23,2.23,0,0,1,1.83-.76c1.36,0,2,.76,2,2.29a4.32,4.32,0,0,1-.12,1Zm.92-2.32c-.58,0-.88.46-.92,1.37h1.62v-.25a1.68,1.68,0,0,0-.17-.86A.59.59,0,0,0,32.38,101.6Z" style="fill:#232f3e"/><path d="M35.72,106.35V98.72h2.51a2.93,2.93,0,0,1,2.37,1,5.49,5.49,0,0,1,0,5.69,2.83,2.83,0,0,1-2.31,1ZM37.4,99.9v5.27h.71a1.28,1.28,0,0,0,1.17-.62,3.68,3.68,0,0,0,.39-1.91v-.22a3.75,3.75,0,0,0-.38-1.91,1.29,1.29,0,0,0-1.19-.61Z" style="fill:#232f3e"/><path d="M43.93,103.92A1.71,1.71,0,0,0,44.3,105a1.43,1.43,0,0,0,1.06.33,3.26,3.26,0,0,0,.68-.09,5.9,5.9,0,0,0,.8-.21v1a2.88,2.88,0,0,1-.83.31,4.77,4.77,0,0,1-1,.11c-1.72,0-2.58-1-2.58-2.95a3.37,3.37,0,0,1,.63-2.2,2.23,2.23,0,0,1,1.83-.76c1.36,0,2.05.76,2.05,2.29a4.32,4.32,0,0,1-.12,1Zm.92-2.32c-.58,0-.88.46-.92,1.37h1.62v-.25a1.68,1.68,0,0,0-.17-.86A.59.59,0,0,0,44.85,101.6Z" style="fill:#232f3e"/><path d="M48.08,108.61v-7.89h1.35l.12.48a2.46,2.46,0,0,1,.71-.45,2.07,2.07,0,0,1,.78-.17,1.74,1.74,0,0,1,1.51.74,3.67,3.67,0,0,1,.53,2.14,3.79,3.79,0,0,1-.55,2.2,1.75,1.75,0,0,1-1.51.78,2.09,2.09,0,0,1-.69-.12,2,2,0,0,1-.6-.35v2.64Zm2.42-6.91a1.27,1.27,0,0,0-.77.25v3.11a1.42,1.42,0,0,0,.78.26.73.73,0,0,0,.71-.42,3.22,3.22,0,0,0,.21-1.37,3.34,3.34,0,0,0-.21-1.41A.74.74,0,0,0,50.5,101.7Z" style="fill:#232f3e"/><path d="M56.62,106.25a2.69,2.69,0,0,1-1,.16,1.4,1.4,0,0,1-1.08-.37,1.54,1.54,0,0,1-.36-1.12V98.21h1.65v6.54a.75.75,0,0,0,.08.4.36.36,0,0,0,.32.12,2.14,2.14,0,0,0,.35,0Z" style="fill:#232f3e"/><path d="M59.74,106.49a2.29,2.29,0,0,1-1.84-.77,4,4,0,0,1,0-4.37,2.58,2.58,0,0,1,3.68,0,4,4,0,0,1,0,4.37A2.27,2.27,0,0,1,59.74,106.49Zm0-1.15a.67.67,0,0,0,.65-.43,5,5,0,0,0,0-2.74.67.67,0,0,0-.65-.44.65.65,0,0,0-.64.44,4.79,4.79,0,0,0,0,2.74A.65.65,0,0,0,59.74,105.34Z" style="fill:#232f3e"/><path d="M64.72,106.46l-2-5.74h1.75l.92,4.14.91-4.14H68l-2,6.48a2.41,2.41,0,0,1-.68,1.18,1.64,1.64,0,0,1-1.1.36,3.59,3.59,0,0,1-1.06-.16v-1a4.1,4.1,0,0,0,.57,0,.94.94,0,0,0,.69-.22,1.27,1.27,0,0,0,.3-.74Z" style="fill:#232f3e"/></g><g id="ICONS_-_EDIT" data-name="ICONS - EDIT"><path d="M32,40.69h0a1,1,0,0,1-1-.94c-.1-1.47-.69-2-1.87-3.18L29,36.41a7.14,7.14,0,0,0-5-2c-3.8,0-6.53,1.92-7,4.91a1.06,1.06,0,0,1-1.1.87A1,1,0,0,1,15,39.15,24.7,24.7,0,0,1,40,15c14,0,24.74,10.38,25,24.16v.11a1,1,0,0,1-1,1,1,1,0,0,1-1-1v-.06c0-.83-.82-1.65-2-2.81a7.09,7.09,0,0,0-5-2c-3.07,0-6.74,1.39-7,5.33a1,1,0,0,1-1,.93,1,1,0,0,1-1-.91v-.19c-.15-1.4-.67-1.89-1.69-2.87L45,36.41a7.14,7.14,0,0,0-5-2c-3.11,0-6.58,1.33-7,5.07l0,.28A1,1,0,0,1,32,40.69Zm-8-8.26A9.1,9.1,0,0,1,30.37,35l.15.15a12.66,12.66,0,0,1,1.35,1.42c1.4-2.57,4.34-4.12,8.14-4.12A9.08,9.08,0,0,1,46.38,35l.31.3a13,13,0,0,1,1.21,1.26C49.31,34,52.27,32.43,56,32.43A9.07,9.07,0,0,1,62.38,35l.21.2C60.58,24.57,51.5,17,40,17A22.64,22.64,0,0,0,17.66,34.43,9.94,9.94,0,0,1,24,32.43Z" style="fill:#fff"/><rect x="19.52" y="36.8" width="2" height="10.67" transform="translate(-25.99 36.34) rotate(-56.94)" style="fill:#fff"/><rect x="55.16" y="41.04" width="9.72" height="2" transform="translate(-13.26 41.84) rotate(-34.85)" style="fill:#fff"/><path d="M47.79,44.26l-1.93-.52L47,39.53c0-.18,0-.29,0-.38s0-.19,0-.58C47,25.86,43.34,17,40,17s-7,8.86-7,21.57V39c0,.14,0,.18,0,.49l1.14,4.22-1.93.52L31,40a2.17,2.17,0,0,1,0-.25c0-.48,0-.51,0-.69v-.44C31,23.26,35.64,15,40,15s9,8.26,9,23.57c0,.46,0,.53,0,.68s0,.21,0,.46a.34.34,0,0,0,0,.1L49,40Z" style="fill:#fff"/><path d="M35.67,58.76,32,55.15a1,1,0,0,1-.3-.78,1,1,0,0,1,.4-.74l4.14-3.1,1.2,1.61-3.21,2.39,2.87,2.79Z" style="fill:#fff"/><path d="M44.81,59.35l-1.2-1.6,3.21-2.4L44,52.56l1.4-1.43,3.7,3.6a1,1,0,0,1,.3.78,1,1,0,0,1-.4.74Z" style="fill:#fff"/><rect x="33.91" y="54.5" width="13.11" height="2" transform="translate(-26.64 70.15) rotate(-66.21)" style="fill:#fff"/><path d="M53,65H28a1,1,0,0,1-1-1V47a1,1,0,0,1,1-1H53a1,1,0,0,1,1,1V64A1,1,0,0,1,53,65ZM29,63H52V48H29Z" style="fill:#fff"/></g></svg>