<svg xmlns="http://www.w3.org/2000/svg" width="80" height="100" viewBox="0 0 80 100"><title>architecture-product-card_Amazon_SQS</title><g id="CARDS"><rect x="1" y="1" width="78" height="78" style="fill:#232f3e"/><path d="M0,0V80H0v20H80V80h0V0ZM1,1H79V79H1Z" style="fill:#fff"/></g><g id="TEXT_-_EDIT" data-name="TEXT - EDIT"><path d="M14.33,92.35l-.43-1.82h-2l-.42,1.82H9.71L12,84.72h1.87l2.3,7.63Zm-2.18-2.92h1.5l-.76-3.16Z" style="fill:#232f3e"/><path d="M23,92.35V88.64A1.23,1.23,0,0,0,22.9,88a.49.49,0,0,0-.46-.22,1.53,1.53,0,0,0-.79.26s0,.08,0,.12v4.24H20V88.64a1.32,1.32,0,0,0-.14-.69.5.5,0,0,0-.47-.22,1.55,1.55,0,0,0-.78.26v4.36H17V86.72h1.35l.13.51a3.34,3.34,0,0,1,1.81-.65,1.25,1.25,0,0,1,1.2.67,3.39,3.39,0,0,1,1.84-.67,1.28,1.28,0,0,1,1,.42,1.85,1.85,0,0,1,.36,1.22v4.13Z" style="fill:#232f3e"/><path d="M29,92.35l-.14-.51a1.49,1.49,0,0,1-.59.47,1.85,1.85,0,0,1-.78.18A1.56,1.56,0,0,1,26.3,92a1.66,1.66,0,0,1-.44-1.22,1.69,1.69,0,0,1,.53-1.31A2.07,2.07,0,0,1,27.83,89a4,4,0,0,1,.92.13v-.51a1.33,1.33,0,0,0-.16-.78.77.77,0,0,0-.61-.2,5.9,5.9,0,0,0-1.77.35V87a3,3,0,0,1,.92-.33,5.47,5.47,0,0,1,1.15-.12A2.19,2.19,0,0,1,29.8,87a1.82,1.82,0,0,1,.47,1.39v3.94Zm-1-.92a1.17,1.17,0,0,0,.79-.35V90a2.25,2.25,0,0,0-.62-.07.68.68,0,0,0-.54.2.85.85,0,0,0-.19.59.77.77,0,0,0,.16.52A.47.47,0,0,0,28,91.43Z" style="fill:#232f3e"/><path d="M31.26,92.35V91.28l2.49-3.4H31.36V86.72h4.13v1.07L33,91.19h2.55v1.16Z" style="fill:#232f3e"/><path d="M38.78,92.49a2.31,2.31,0,0,1-1.85-.77,4,4,0,0,1,0-4.37,2.6,2.6,0,0,1,3.69,0,4,4,0,0,1,0,4.37A2.29,2.29,0,0,1,38.78,92.49Zm0-1.15a.66.66,0,0,0,.64-.43,4.79,4.79,0,0,0,0-2.74.66.66,0,0,0-.64-.44.67.67,0,0,0-.65.44,4.79,4.79,0,0,0,0,2.74A.67.67,0,0,0,38.78,91.34Z" style="fill:#232f3e"/><path d="M45.54,92.35v-3.7a1.25,1.25,0,0,0-.15-.7.54.54,0,0,0-.49-.22,1.57,1.57,0,0,0-.82.26v4.36H42.43V86.72h1.35l.13.51a3.35,3.35,0,0,1,1.84-.65,1.35,1.35,0,0,1,1.07.42,1.83,1.83,0,0,1,.37,1.22v4.13Z" style="fill:#232f3e"/><path d="M52.56,89a3.6,3.6,0,0,1-1.28-1,2,2,0,0,1-.38-1.23,2.06,2.06,0,0,1,.33-1.17,2.2,2.2,0,0,1,.93-.77,3.11,3.11,0,0,1,1.34-.27,4.92,4.92,0,0,1,1.89.39v1.17a5.44,5.44,0,0,0-1.72-.33,1.27,1.27,0,0,0-.8.23.78.78,0,0,0-.29.64.86.86,0,0,0,.19.56,2.09,2.09,0,0,0,.72.48l.65.32a4.73,4.73,0,0,1,1,.62,1.76,1.76,0,0,1,.54.69,2.13,2.13,0,0,1,.18.92,2,2,0,0,1-.74,1.65,3.13,3.13,0,0,1-2,.61,5.5,5.5,0,0,1-1.13-.12,4.06,4.06,0,0,1-1-.32V90.92a7.45,7.45,0,0,0,1,.25,5.33,5.33,0,0,0,.95.11,1.32,1.32,0,0,0,.88-.25.87.87,0,0,0,.31-.71.81.81,0,0,0-.22-.58,2.4,2.4,0,0,0-.7-.47Z" style="fill:#232f3e"/><path d="M56.87,88.53a4.44,4.44,0,0,1,.88-2.93,3.45,3.45,0,0,1,4.94,0,4.38,4.38,0,0,1,.88,2.93A4.91,4.91,0,0,1,63,91a2.82,2.82,0,0,1-1.58,1.34,2.73,2.73,0,0,0,.83.43,4.53,4.53,0,0,0,1.12.22v1.26a5.85,5.85,0,0,1-1.83-.59,5.38,5.38,0,0,1-1.51-1.13,3,3,0,0,1-2.35-1.09A4.56,4.56,0,0,1,56.87,88.53Zm1.74,0a4,4,0,0,0,.41,2,1.3,1.3,0,0,0,1.2.7,1.32,1.32,0,0,0,1.21-.7,4.1,4.1,0,0,0,.41-2,4.21,4.21,0,0,0-.4-2.06,1.45,1.45,0,0,0-2.44,0A4.22,4.22,0,0,0,58.61,88.53Z" style="fill:#232f3e"/><path d="M66.2,89a3.6,3.6,0,0,1-1.28-1,2,2,0,0,1-.39-1.23,2.07,2.07,0,0,1,.34-1.17,2.17,2.17,0,0,1,.92-.77,3.19,3.19,0,0,1,1.35-.27A4.92,4.92,0,0,1,69,85v1.17a5.5,5.5,0,0,0-1.72-.33,1.27,1.27,0,0,0-.8.23.78.78,0,0,0-.29.64.81.81,0,0,0,.19.56,2.09,2.09,0,0,0,.72.48l.65.32a5.33,5.33,0,0,1,1,.62,1.76,1.76,0,0,1,.54.69,2.13,2.13,0,0,1,.18.92,2,2,0,0,1-.74,1.65,3.13,3.13,0,0,1-2,.61,5.5,5.5,0,0,1-1.13-.12,3.9,3.9,0,0,1-.95-.32V90.92a7.45,7.45,0,0,0,1,.25,5.33,5.33,0,0,0,1,.11,1.32,1.32,0,0,0,.88-.25.86.86,0,0,0,.3-.71.84.84,0,0,0-.21-.58,2.4,2.4,0,0,0-.7-.47Z" style="fill:#232f3e"/></g><g id="ICONS_-_EDIT" data-name="ICONS - EDIT"><path d="M22.23,33.84l-1.88-.66a20.73,20.73,0,0,1,39.14,0l-1.89.65a18.74,18.74,0,0,0-35.37,0Z" style="fill:#fff"/><path d="M39.92,60.72A20.73,20.73,0,0,1,20.33,46.78l1.89-.65a18.74,18.74,0,0,0,35.42-.05l1.89.64a20.73,20.73,0,0,1-19.61,14Z" style="fill:#fff"/><path d="M20,45a5,5,0,1,1,3.54-1.46h0A5,5,0,0,1,20,45Zm0-8a3,3,0,1,0,2.12.87A3,3,0,0,0,20,37Z" style="fill:#fff"/><path d="M60,45a5,5,0,1,1,3.54-1.46h0A5,5,0,0,1,60,45Zm0-8a3,3,0,1,0,2.12.87A3,3,0,0,0,60,37Z" style="fill:#fff"/><path d="M32.36,48.66a1,1,0,0,1-.71-.29,1,1,0,0,1,0-1.42A9.8,9.8,0,0,0,34.2,40a9.8,9.8,0,0,0-2.55-6.94,1,1,0,0,1-.29-.71,1,1,0,0,1,.29-.7,1,1,0,0,1,1.41,0c3.37,3.37,10.51,3.37,13.88,0a1,1,0,0,1,1.41,0,1,1,0,0,1,.29.7,1,1,0,0,1-.29.71C45,36.45,45,43.58,48.35,47a1,1,0,0,1,0,1.42,1,1,0,0,1-1.41,0c-3.37-3.38-10.5-3.37-13.88,0A1,1,0,0,1,32.36,48.66Zm3.06-13.22a13.81,13.81,0,0,1,0,9.15,13.56,13.56,0,0,1,9.15,0,13.56,13.56,0,0,1,0-9.15A13.5,13.5,0,0,1,35.42,35.44Z" style="fill:#fff"/><path d="M50.47,43.61l-1.42-1.42L51.25,40l-2.18-2.18,1.41-1.41,2.89,2.88a1,1,0,0,1,0,1.42Z" style="fill:#fff"/><rect x="47" y="39.02" width="6" height="2" style="fill:#fff"/><path d="M29.89,43.62l-1.41-1.41L30.68,40l-2.2-2.2,1.41-1.41,2.91,2.9a1,1,0,0,1,.29.71,1,1,0,0,1-.29.7Z" style="fill:#fff"/><rect x="26" y="39.02" width="6" height="2" style="fill:#fff"/></g></svg>