<svg xmlns="http://www.w3.org/2000/svg" width="80" height="130" viewBox="0 0 80 130"><title>architecture-product-card_Amazon_ElastiCache_for_Redis</title><g id="CARDS"><rect x="1" y="1" width="78" height="78" style="fill:#232f3e"/><path d="M0,0V80H0v50H80V80h0V0ZM1,1H79V79H1Z" style="fill:#fff"/></g><g id="TEXT_-_EDIT" data-name="TEXT - EDIT"><path d="M25.35,92.35l-.43-1.82h-2l-.42,1.82H20.72L23,84.72H24.9l2.31,7.63Zm-2.18-2.92h1.49l-.76-3.16Z" style="fill:#232f3e"/><path d="M34.06,92.35V88.64a1.32,1.32,0,0,0-.14-.69.5.5,0,0,0-.46-.22,1.56,1.56,0,0,0-.8.26.49.49,0,0,1,0,.12v4.24H31V88.64a1.33,1.33,0,0,0-.13-.69.51.51,0,0,0-.47-.22,1.55,1.55,0,0,0-.78.26v4.36H28V86.72h1.35l.13.51a3.29,3.29,0,0,1,1.81-.65,1.25,1.25,0,0,1,1.2.67,3.38,3.38,0,0,1,1.83-.67,1.3,1.3,0,0,1,1,.42,1.85,1.85,0,0,1,.36,1.22v4.13Z" style="fill:#232f3e"/><path d="M40,92.35l-.14-.51a1.56,1.56,0,0,1-.59.47,1.86,1.86,0,0,1-.79.18A1.57,1.57,0,0,1,37.31,92a1.65,1.65,0,0,1-.43-1.22,1.69,1.69,0,0,1,.53-1.31A2,2,0,0,1,38.84,89a4,4,0,0,1,.93.13v-.51a1.33,1.33,0,0,0-.16-.78.77.77,0,0,0-.61-.2,5.9,5.9,0,0,0-1.77.35V87a3,3,0,0,1,.91-.33,5.64,5.64,0,0,1,1.16-.12,2.19,2.19,0,0,1,1.52.44,1.82,1.82,0,0,1,.47,1.39v3.94Zm-1-.92a1.17,1.17,0,0,0,.79-.35V90a2.33,2.33,0,0,0-.63-.07.66.66,0,0,0-.53.2.81.81,0,0,0-.19.59.82.82,0,0,0,.15.52A.49.49,0,0,0,39,91.43Z" style="fill:#232f3e"/><path d="M42.28,92.35V91.28l2.49-3.4h-2.4V86.72h4.14v1.07L44,91.19h2.54v1.16Z" style="fill:#232f3e"/><path d="M49.79,92.49A2.29,2.29,0,0,1,48,91.72a4,4,0,0,1,0-4.37,2.6,2.6,0,0,1,3.69,0,4,4,0,0,1,0,4.37A2.31,2.31,0,0,1,49.79,92.49Zm0-1.15a.67.67,0,0,0,.65-.43,4.79,4.79,0,0,0,0-2.74.69.69,0,0,0-1.29,0,4.79,4.79,0,0,0,0,2.74A.66.66,0,0,0,49.79,91.34Z" style="fill:#232f3e"/><path d="M56.55,92.35v-3.7a1.36,1.36,0,0,0-.14-.7.55.55,0,0,0-.5-.22,1.62,1.62,0,0,0-.82.26v4.36H53.44V86.72h1.35l.14.51a3.32,3.32,0,0,1,1.84-.65,1.35,1.35,0,0,1,1.07.42,1.83,1.83,0,0,1,.36,1.22v4.13Z" style="fill:#232f3e"/><path d="M13.56,106.35V98.72H18.1V99.9H15.25v1.95h2.29V103H15.25v2.15H18.1v1.18Z" style="fill:#232f3e"/><path d="M21.62,106.25a2.69,2.69,0,0,1-1,.16,1.41,1.41,0,0,1-1.08-.37,1.54,1.54,0,0,1-.36-1.12V98.21h1.65v6.54a.75.75,0,0,0,.08.4.36.36,0,0,0,.32.12,2.14,2.14,0,0,0,.35,0Z" style="fill:#232f3e"/><path d="M25.54,106.35l-.15-.51a1.49,1.49,0,0,1-.59.47,1.85,1.85,0,0,1-.78.18,1.56,1.56,0,0,1-1.18-.45,1.66,1.66,0,0,1-.44-1.22,1.69,1.69,0,0,1,.53-1.31,2.08,2.08,0,0,1,1.44-.47,3.88,3.88,0,0,1,.92.13v-.51a1.33,1.33,0,0,0-.16-.78.77.77,0,0,0-.61-.2,5.9,5.9,0,0,0-1.77.35v-1a3.07,3.07,0,0,1,.92-.33,5.57,5.57,0,0,1,1.16-.12,2.18,2.18,0,0,1,1.51.44,1.78,1.78,0,0,1,.47,1.39v3.94Zm-1-.92a1.17,1.17,0,0,0,.79-.35V104a2.25,2.25,0,0,0-.62-.07.69.69,0,0,0-.54.2.85.85,0,0,0-.18.59.82.82,0,0,0,.15.52A.47.47,0,0,0,24.5,105.43Z" style="fill:#232f3e"/><path d="M30.21,104.77c0-.25-.17-.46-.52-.62L29,103.8a1.68,1.68,0,0,1-1.13-1.59,1.42,1.42,0,0,1,.55-1.18,2.26,2.26,0,0,1,1.47-.45,3.57,3.57,0,0,1,1.53.35v1a5.13,5.13,0,0,0-.7-.19,3,3,0,0,0-.6-.07c-.51,0-.77.18-.77.54s.21.45.64.66l.72.34a1.9,1.9,0,0,1,.77.62,1.69,1.69,0,0,1,.24.93,1.56,1.56,0,0,1-.55,1.27,2.28,2.28,0,0,1-1.48.46,3.8,3.8,0,0,1-1.82-.44v-1a5.45,5.45,0,0,0,1.61.35.86.86,0,0,0,.57-.17A.56.56,0,0,0,30.21,104.77Z" style="fill:#232f3e"/><path d="M35.66,106.2a3.55,3.55,0,0,1-1.23.22,1.85,1.85,0,0,1-1.32-.4,1.81,1.81,0,0,1-.41-1.3v-2.9H32v-.92l.78-.15L33,99.21h1.36v1.51h1.28v1.1H34.35v2.77a.73.73,0,0,0,.15.52.69.69,0,0,0,.53.16,3,3,0,0,0,.63-.08Z" style="fill:#232f3e"/><path d="M37.4,99.81a1.08,1.08,0,0,1-.71-.22.75.75,0,0,1-.26-.61.74.74,0,0,1,.26-.61,1,1,0,0,1,.71-.23,1,1,0,0,1,.7.23.75.75,0,0,1,.27.61.76.76,0,0,1-.27.61A1,1,0,0,1,37.4,99.81Zm-.83,6.54v-5.63h1.65v5.63Z" style="fill:#232f3e"/><path d="M44.73,106.13a4.64,4.64,0,0,1-1.79.34c-2.24,0-3.37-1.3-3.37-3.9a4.4,4.4,0,0,1,.88-2.95,3.16,3.16,0,0,1,2.53-1,4.72,4.72,0,0,1,1.65.3v1.21a5.67,5.67,0,0,0-1.44-.23,1.6,1.6,0,0,0-1.4.61,3.29,3.29,0,0,0-.45,1.93v.25a3.26,3.26,0,0,0,.44,1.9,1.55,1.55,0,0,0,1.37.61,7.21,7.21,0,0,0,1.58-.26Z" style="fill:#232f3e"/><path d="M48.63,106.35l-.14-.51a1.56,1.56,0,0,1-.59.47,1.86,1.86,0,0,1-.79.18,1.57,1.57,0,0,1-1.18-.45,1.91,1.91,0,0,1,.1-2.53,2,2,0,0,1,1.43-.47,4,4,0,0,1,.93.13v-.51a1.33,1.33,0,0,0-.16-.78.77.77,0,0,0-.61-.2,5.9,5.9,0,0,0-1.77.35v-1a3,3,0,0,1,.91-.33,5.64,5.64,0,0,1,1.16-.12,2.21,2.21,0,0,1,1.52.44,1.82,1.82,0,0,1,.47,1.39v3.94Zm-1-.92a1.19,1.19,0,0,0,.8-.35V104a2.38,2.38,0,0,0-.63-.07.66.66,0,0,0-.53.2.81.81,0,0,0-.19.59.82.82,0,0,0,.15.52A.48.48,0,0,0,47.59,105.43Z" style="fill:#232f3e"/><path d="M54.94,106.09a1.93,1.93,0,0,1-.63.26,3.59,3.59,0,0,1-.81.09,2.27,2.27,0,0,1-1.84-.73,3.24,3.24,0,0,1-.63-2.16,3.16,3.16,0,0,1,.67-2.16,2.34,2.34,0,0,1,1.87-.76,2.93,2.93,0,0,1,1.35.33v1a3.08,3.08,0,0,0-1-.19,1.06,1.06,0,0,0-.94.4,2.29,2.29,0,0,0-.28,1.29v.16A2.23,2.23,0,0,0,53,104.9a1,1,0,0,0,.9.4,3.22,3.22,0,0,0,1.08-.21Z" style="fill:#232f3e"/><path d="M59.1,106.35v-3.7A1.36,1.36,0,0,0,59,102a.56.56,0,0,0-.5-.22,1.59,1.59,0,0,0-.82.26v4.36H56V98.21h1.65v2.91a3.25,3.25,0,0,1,1.68-.54,1.33,1.33,0,0,1,1.06.42,1.78,1.78,0,0,1,.37,1.22v4.13Z" style="fill:#232f3e"/><path d="M63.37,103.92a1.66,1.66,0,0,0,.36,1.12,1.43,1.43,0,0,0,1.06.33,3.26,3.26,0,0,0,.68-.09,5.9,5.9,0,0,0,.8-.21v1a2.88,2.88,0,0,1-.83.31,4.77,4.77,0,0,1-1,.11c-1.72,0-2.58-1-2.58-2.95a3.37,3.37,0,0,1,.63-2.2,2.24,2.24,0,0,1,1.83-.76c1.36,0,2,.76,2,2.29a4.32,4.32,0,0,1-.12,1Zm.91-2.32c-.58,0-.88.46-.91,1.37H65v-.25a1.68,1.68,0,0,0-.17-.86A.59.59,0,0,0,64.28,101.6Z" style="fill:#232f3e"/><path d="M19.72,120.35v-4.53h-.79v-.92l.79-.15v-.66a2.17,2.17,0,0,1,.48-1.54,2,2,0,0,1,1.48-.5,2.9,2.9,0,0,1,1.09.21v1a3.1,3.1,0,0,0-.63-.07.86.86,0,0,0-.61.16.89.89,0,0,0-.16.62v.74h1.34v1.1H21.37v4.53Z" style="fill:#232f3e"/><path d="M25.67,120.49a2.27,2.27,0,0,1-1.84-.77,3.95,3.95,0,0,1,0-4.37,2.27,2.27,0,0,1,1.84-.77,2.29,2.29,0,0,1,1.84.77,4,4,0,0,1,0,4.37A2.29,2.29,0,0,1,25.67,120.49Zm0-1.15a.65.65,0,0,0,.64-.43,4.79,4.79,0,0,0,0-2.74.65.65,0,0,0-.64-.44.67.67,0,0,0-.65.44,5,5,0,0,0,0,2.74A.67.67,0,0,0,25.67,119.34Z" style="fill:#232f3e"/><path d="M29.32,120.35v-5.63h1.35l.18.73a2.5,2.5,0,0,1,.72-.59,1.49,1.49,0,0,1,.75-.19,2.56,2.56,0,0,1,.39,0V116a5,5,0,0,0-.64,0,2.47,2.47,0,0,0-1.1.26v4.11Z" style="fill:#232f3e"/><path d="M39.86,120.35l-1.46-2.83h-.65v2.83H36.1v-7.63h2.64a2.39,2.39,0,0,1,1.76.65,2.31,2.31,0,0,1,.66,1.75,2.67,2.67,0,0,1-.32,1.33,2,2,0,0,1-.93.84l1.68,3.06Zm-2.11-4h.79a.84.84,0,0,0,.71-.31,1.5,1.5,0,0,0,.25-.94,1.45,1.45,0,0,0-.25-.93.82.82,0,0,0-.71-.32h-.79Z" style="fill:#232f3e"/><path d="M43.63,117.92A1.77,1.77,0,0,0,44,119a1.45,1.45,0,0,0,1.06.33,3.18,3.18,0,0,0,.68-.09,5.54,5.54,0,0,0,.8-.21v1a2.77,2.77,0,0,1-.83.31,4.77,4.77,0,0,1-1,.11c-1.71,0-2.57-1-2.57-2.95a3.37,3.37,0,0,1,.63-2.2,2.22,2.22,0,0,1,1.82-.76c1.37,0,2,.76,2,2.29a4.32,4.32,0,0,1-.12,1Zm.92-2.32c-.58,0-.89.46-.92,1.37h1.62v-.25a1.68,1.68,0,0,0-.17-.86A.6.6,0,0,0,44.55,115.6Z" style="fill:#232f3e"/><path d="M51,120.35l-.13-.49a2.12,2.12,0,0,1-.64.43,1.87,1.87,0,0,1-2.23-.6,4.59,4.59,0,0,1,0-4.32,1.76,1.76,0,0,1,1.53-.79,2,2,0,0,1,.63.13,2.35,2.35,0,0,1,.61.33v-2.83h1.65v8.14Zm-.93-1a1.34,1.34,0,0,0,.72-.22V116a1.48,1.48,0,0,0-.79-.26.7.7,0,0,0-.68.44,3.6,3.6,0,0,0-.2,1.39,2.92,2.92,0,0,0,.23,1.36A.75.75,0,0,0,50.1,119.32Z" style="fill:#232f3e"/><path d="M54.76,113.81a1.08,1.08,0,0,1-.71-.22.79.79,0,0,1-.26-.61.77.77,0,0,1,.26-.61,1,1,0,0,1,.71-.23,1,1,0,0,1,.7.23.75.75,0,0,1,.27.61.76.76,0,0,1-.27.61A1,1,0,0,1,54.76,113.81Zm-.83,6.54v-5.63h1.65v5.63Z" style="fill:#232f3e"/><path d="M59,118.77c0-.25-.17-.46-.52-.62l-.72-.35a1.68,1.68,0,0,1-1.13-1.59,1.42,1.42,0,0,1,.55-1.18,2.26,2.26,0,0,1,1.47-.45,3.57,3.57,0,0,1,1.53.35v1a5.13,5.13,0,0,0-.7-.19,3,3,0,0,0-.6-.07c-.51,0-.77.18-.77.54s.21.45.64.66l.72.34a1.9,1.9,0,0,1,.77.62,1.69,1.69,0,0,1,.24.93A1.56,1.56,0,0,1,60,120a2.3,2.3,0,0,1-1.48.46,3.8,3.8,0,0,1-1.82-.44v-1a5.45,5.45,0,0,0,1.61.35.86.86,0,0,0,.57-.17A.56.56,0,0,0,59,118.77Z" style="fill:#232f3e"/></g><g id="ICONS_-_EDIT" data-name="ICONS - EDIT"><path d="M40,39.48c-6.71,0-13.49-1.75-13.49-5.1s6.78-5.1,13.49-5.1S53.5,31,53.5,34.38,46.71,39.48,40,39.48Zm0-8.2c-7.44,0-11.49,2-11.49,3.1s4,3.1,11.49,3.1,11.48-2,11.48-3.1S47.44,31.28,40,31.28Z" style="fill:#fff"/><path d="M40,62.28c-6.71,0-13.49-1.75-13.49-5.1V34.38h2v22.8c0,1,4,3.1,11.49,3.1s11.48-2.05,11.48-3.1V34.38h2v22.8C53.5,60.53,46.71,62.28,40,62.28Z" style="fill:#fff"/><path d="M40,39.48c-6.71,0-13.49-1.75-13.49-5.1s6.78-5.1,13.49-5.1S53.5,31,53.5,34.38,46.71,39.48,40,39.48Zm0-8.2c-7.44,0-11.49,2-11.49,3.1s4,3.1,11.49,3.1,11.48-2,11.48-3.1S47.44,31.28,40,31.28Z" style="fill:#fff"/><path d="M47.83,53.81l-.48-1.94c3-.77,4.15-1.79,4.15-2.29V44.79a13.38,13.38,0,0,1-3.67,1.42l-.48-1.94c3-.77,4.15-1.79,4.15-2.29a1,1,0,1,1,2,0v7.6C53.5,51.39,51.49,52.89,47.83,53.81Z" style="fill:#fff"/><path d="M33.4,54.08c-4.43-.88-6.87-2.47-6.87-4.5V42a1,1,0,1,1,2,0c0,.58,1.43,1.78,5.25,2.54l-.38,2a15.32,15.32,0,0,1-4.87-1.68v4.78c0,.58,1.43,1.78,5.25,2.54Z" style="fill:#fff"/><path d="M20.53,44.72h-2v-3a1,1,0,0,1,1-1h5v2h-4Z" style="fill:#fff"/><path d="M61.53,45.72h-6v-2h5v-1h-5v-2h6a1,1,0,0,1,1,1v3A1,1,0,0,1,61.53,45.72Z" style="fill:#fff"/><path d="M64.53,45.72h-9v-2h8V28.18a4.27,4.27,0,0,1,0-8.13v-.33H16.47V20a4.26,4.26,0,0,1,0,8.15V43.72h8.06v2H15.47a1,1,0,0,1-1-1V27.33a1,1,0,0,1,1-1,2.23,2.23,0,0,0,0-4.43,1,1,0,0,1-1-1V18.72a1,1,0,0,1,1-1H64.53a1,1,0,0,1,1,1v2.19a1,1,0,0,1-1,1,2.22,2.22,0,0,0,0,4.41,1,1,0,0,1,1,1v17.4A1,1,0,0,1,64.53,45.72Z" style="fill:#fff"/><path d="M32.53,28.72h-2v-6a1,1,0,0,1,1-1h7a1,1,0,0,1,1,1v5h-2v-4h-5Z" style="fill:#fff"/><path d="M49.53,28.72h-2v-5h-5v4h-2v-5a1,1,0,0,1,1-1h7a1,1,0,0,1,1,1Z" style="fill:#fff"/><path d="M58.53,38.72h-3v-2h2v-13h-5v6h-2v-7a1,1,0,0,1,1-1h7a1,1,0,0,1,1,1v15A1,1,0,0,1,58.53,38.72Z" style="fill:#fff"/><path d="M24.53,38.72h-3a1,1,0,0,1-1-1v-15a1,1,0,0,1,1-1h7a1,1,0,0,1,1,1v7h-2v-6h-5v13h2Z" style="fill:#fff"/></g></svg>