<svg xmlns="http://www.w3.org/2000/svg" width="80" height="100" viewBox="0 0 80 100"><title>Artboard 73</title><g id="CARDS"><rect x="1" y="1" width="78" height="78" style="fill:#232f3e"/><path d="M0,0V80H0v20H80V80h0V0ZM1,1H79V79H1Z" style="fill:#fff"/></g><g id="TEXT_-_EDIT" data-name="TEXT - EDIT"><path d="M14.45,92.35,14,90.53H12l-.42,1.82H9.82l2.31-7.63H14l2.3,7.63Zm-2.18-2.92h1.49L13,86.27Z" style="fill:#232f3e"/><path d="M23.16,92.35V88.64A1.32,1.32,0,0,0,23,88a.5.5,0,0,0-.46-.22,1.56,1.56,0,0,0-.8.26.49.49,0,0,1,0,.12v4.24H20.12V88.64A1.32,1.32,0,0,0,20,88a.49.49,0,0,0-.46-.22,1.5,1.5,0,0,0-.78.26v4.36H17.09V86.72h1.35l.13.51a3.28,3.28,0,0,1,1.8-.65,1.26,1.26,0,0,1,1.21.67,3.38,3.38,0,0,1,1.83-.67,1.3,1.3,0,0,1,1,.42,1.85,1.85,0,0,1,.36,1.22v4.13Z" style="fill:#232f3e"/><path d="M29.11,92.35,29,91.84a1.42,1.42,0,0,1-.59.47,1.78,1.78,0,0,1-.78.18A1.56,1.56,0,0,1,26.41,92a1.91,1.91,0,0,1,.1-2.53A2,2,0,0,1,27.94,89a4,4,0,0,1,.93.13v-.51a1.42,1.42,0,0,0-.16-.78.78.78,0,0,0-.61-.2,5.79,5.79,0,0,0-1.77.35V87a2.9,2.9,0,0,1,.91-.33,5.57,5.57,0,0,1,1.16-.12,2.21,2.21,0,0,1,1.52.44,1.82,1.82,0,0,1,.47,1.39v3.94Zm-1-.92a1.19,1.19,0,0,0,.8-.35V90a2.38,2.38,0,0,0-.63-.07.66.66,0,0,0-.53.2.81.81,0,0,0-.19.59.82.82,0,0,0,.15.52A.47.47,0,0,0,28.07,91.43Z" style="fill:#232f3e"/><path d="M31.37,92.35V91.28l2.5-3.4h-2.4V86.72H35.6v1.07l-2.49,3.4h2.54v1.16Z" style="fill:#232f3e"/><path d="M38.89,92.49a2.29,2.29,0,0,1-1.84-.77,4,4,0,0,1,0-4.37,2.58,2.58,0,0,1,3.68,0,3.95,3.95,0,0,1,0,4.37A2.27,2.27,0,0,1,38.89,92.49Zm0-1.15a.67.67,0,0,0,.65-.43,5,5,0,0,0,0-2.74.67.67,0,0,0-.65-.44.65.65,0,0,0-.64.44,4.79,4.79,0,0,0,0,2.74A.65.65,0,0,0,38.89,91.34Z" style="fill:#232f3e"/><path d="M45.65,92.35v-3.7a1.36,1.36,0,0,0-.14-.7.56.56,0,0,0-.5-.22,1.59,1.59,0,0,0-.82.26v4.36H42.54V86.72h1.35l.13.51a3.38,3.38,0,0,1,1.85-.65,1.33,1.33,0,0,1,1.06.42,1.78,1.78,0,0,1,.37,1.22v4.13Z" style="fill:#232f3e"/><path d="M55.11,92.35l-1.46-2.83H53v2.83H51.35V84.72H54a2.4,2.4,0,0,1,1.76.65,2.31,2.31,0,0,1,.66,1.75,2.57,2.57,0,0,1-.33,1.33,2,2,0,0,1-.93.84l1.69,3.06Zm-2.11-4h.78a.86.86,0,0,0,.72-.31,1.57,1.57,0,0,0,.25-.94,1.52,1.52,0,0,0-.25-.93.84.84,0,0,0-.72-.32H53Z" style="fill:#232f3e"/><path d="M57.77,92.35V84.72h2.52a2.92,2.92,0,0,1,2.36,1,4.33,4.33,0,0,1,.81,2.84,4.42,4.42,0,0,1-.8,2.85,2.83,2.83,0,0,1-2.31,1Zm1.69-6.45v5.27h.71a1.3,1.3,0,0,0,1.17-.62,3.8,3.8,0,0,0,.38-1.91v-.22a3.75,3.75,0,0,0-.38-1.91,1.29,1.29,0,0,0-1.19-.61Z" style="fill:#232f3e"/><path d="M66.08,89a3.55,3.55,0,0,1-1.27-1,2,2,0,0,1-.39-1.23,2,2,0,0,1,.34-1.17,2.11,2.11,0,0,1,.92-.77A3.18,3.18,0,0,1,67,84.56a4.85,4.85,0,0,1,1.89.39v1.17a5.44,5.44,0,0,0-1.72-.33,1.24,1.24,0,0,0-.79.23.75.75,0,0,0-.29.64.86.86,0,0,0,.18.56,2.32,2.32,0,0,0,.72.48l.65.32a4.73,4.73,0,0,1,1,.62,1.89,1.89,0,0,1,.55.69,2.29,2.29,0,0,1,.17.92,2,2,0,0,1-.74,1.65,3.09,3.09,0,0,1-2,.61,5.35,5.35,0,0,1-1.13-.12,4,4,0,0,1-1-.32V90.92a7.85,7.85,0,0,0,1,.25,5.33,5.33,0,0,0,1,.11,1.34,1.34,0,0,0,.88-.25.86.86,0,0,0,.3-.71.84.84,0,0,0-.21-.58,2.47,2.47,0,0,0-.71-.47Z" style="fill:#232f3e"/></g><g id="ICONS_-_EDIT" data-name="ICONS - EDIT"><path d="M40,35c-5.3,0-11-1.25-11-4s5.7-4,11-4,11,1.25,11,4S45.3,35,40,35Zm0-6c-5.85,0-8.85,1.46-9,2,.15.53,3.15,2,9,2s8.8-1.43,9-2C48.8,30.43,45.8,29,40,29Z" style="fill:#fff"/><path d="M40,53.53c-5.3,0-11-1.33-11-4.25V31h2V49.28c0,.65,3.15,2.25,9,2.25s9-1.6,9-2.25V31h2V49.28C51,52.2,45.3,53.53,40,53.53Z" style="fill:#fff"/><path d="M40,41.45c-5.28,0-11-1.32-11-4.23h2c0,.65,3.14,2.23,9,2.23s9-1.58,9-2.23h2C51,40.13,45.31,41.45,40,41.45Z" style="fill:#fff"/><path d="M40,47.82c-5.28,0-11-1.33-11-4.24h2c0,.65,3.14,2.24,9,2.24s9-1.59,9-2.24h2C51,46.49,45.31,47.82,40,47.82Z" style="fill:#fff"/><path d="M25,65H16a1,1,0,0,1-1-1V55h2v8h8Z" style="fill:#fff"/><rect x="14.1" y="58.4" width="13" height="2" transform="translate(-35.97 31.96) rotate(-45)" style="fill:#fff"/><path d="M64,65H55V63h8V55h2v9A1,1,0,0,1,64,65Z" style="fill:#fff"/><rect x="58.45" y="53.02" width="2" height="12.86" transform="translate(-24.63 59.45) rotate(-45)" style="fill:#fff"/><path d="M65,25H63V17H55V15h9a1,1,0,0,1,1,1Z" style="fill:#fff"/><rect x="53.02" y="19.55" width="12.86" height="2" transform="translate(2.88 48.06) rotate(-45)" style="fill:#fff"/><path d="M17,25H15V16a1,1,0,0,1,1-1h9v2H17Z" style="fill:#fff"/><rect x="19.6" y="14.1" width="2" height="13" transform="translate(-8.53 20.6) rotate(-45)" style="fill:#fff"/><path d="M24.66,49c-6.11-2.2-9.61-5.56-9.61-9.21s3.5-7,9.61-9.21l.68,1.88c-5.19,1.87-8.29,4.61-8.29,7.33s3.1,5.46,8.29,7.33Z" style="fill:#fff"/><path d="M54.78,49.18l-.64-1.9C59.69,45.41,63,42.59,63,39.75s-3.31-5.66-8.86-7.53l.64-1.9C61.28,32.52,65,36,65,39.75S61.28,47,54.78,49.18Z" style="fill:#fff"/></g></svg>