<svg xmlns="http://www.w3.org/2000/svg" width="80" height="115" viewBox="0 0 80 115"><title>architecture-product-card_Amazon_Athena</title><g id="CARDS"><rect x="1" y="1" width="78" height="78" style="fill:#232f3e"/><path d="M0,0V80H0v35H80V80h0V0ZM1,1H79V79H1Z" style="fill:#fff"/></g><g id="TEXT_-_EDIT" data-name="TEXT - EDIT"><path d="M25.35,92.35l-.43-1.82h-2l-.42,1.82H20.72L23,84.72H24.9l2.31,7.63Zm-2.18-2.92h1.49l-.76-3.16Z" style="fill:#232f3e"/><path d="M34.06,92.35V88.64a1.32,1.32,0,0,0-.14-.69.49.49,0,0,0-.46-.22,1.59,1.59,0,0,0-.8.26.5.5,0,0,1,0,.12v4.24H31V88.64a1.33,1.33,0,0,0-.13-.69.51.51,0,0,0-.47-.22,1.55,1.55,0,0,0-.78.26v4.36H28V86.72h1.35l.13.51a3.31,3.31,0,0,1,1.81-.65,1.25,1.25,0,0,1,1.2.67,3.38,3.38,0,0,1,1.83-.67,1.3,1.3,0,0,1,1,.42,1.85,1.85,0,0,1,.36,1.22v4.13Z" style="fill:#232f3e"/><path d="M40,92.35l-.14-.51a1.56,1.56,0,0,1-.59.47,1.86,1.86,0,0,1-.79.18A1.57,1.57,0,0,1,37.31,92a1.65,1.65,0,0,1-.43-1.22,1.69,1.69,0,0,1,.53-1.31A2,2,0,0,1,38.84,89a4,4,0,0,1,.93.13v-.51a1.33,1.33,0,0,0-.16-.78.77.77,0,0,0-.61-.2,5.9,5.9,0,0,0-1.77.35V87a3,3,0,0,1,.92-.33,5.47,5.47,0,0,1,1.15-.12,2.19,2.19,0,0,1,1.52.44,1.82,1.82,0,0,1,.47,1.39v3.94Zm-1-.92a1.17,1.17,0,0,0,.79-.35V90a2.3,2.3,0,0,0-.62-.07.67.67,0,0,0-.54.2.81.81,0,0,0-.19.59.82.82,0,0,0,.15.52A.49.49,0,0,0,39,91.43Z" style="fill:#232f3e"/><path d="M42.28,92.35V91.28l2.49-3.4h-2.4V86.72h4.14v1.07L44,91.19h2.54v1.16Z" style="fill:#232f3e"/><path d="M49.79,92.49A2.3,2.3,0,0,1,48,91.72a4,4,0,0,1,0-4.37,2.6,2.6,0,0,1,3.69,0,4,4,0,0,1,0,4.37A2.31,2.31,0,0,1,49.79,92.49Zm0-1.15a.67.67,0,0,0,.65-.43,4.79,4.79,0,0,0,0-2.74.69.69,0,0,0-1.29,0,4.79,4.79,0,0,0,0,2.74A.66.66,0,0,0,49.79,91.34Z" style="fill:#232f3e"/><path d="M56.55,92.35v-3.7a1.36,1.36,0,0,0-.14-.7.55.55,0,0,0-.5-.22,1.56,1.56,0,0,0-.81.26v4.36H53.44V86.72h1.35l.14.51a3.32,3.32,0,0,1,1.84-.65,1.35,1.35,0,0,1,1.07.42,1.83,1.83,0,0,1,.36,1.22v4.13Z" style="fill:#232f3e"/><path d="M27.57,106.35l-.43-1.82h-2l-.42,1.82H23l2.31-7.63h1.87l2.3,7.63Zm-2.18-2.92h1.5l-.76-3.16Z" style="fill:#232f3e"/><path d="M33.25,106.2a3.47,3.47,0,0,1-1.23.22,1.8,1.8,0,0,1-1.31-.4,1.77,1.77,0,0,1-.41-1.3v-2.9h-.74v-.92l.78-.15.24-1.54H32v1.51h1.27v1.1H32v2.77a.74.74,0,0,0,.14.52.69.69,0,0,0,.53.16,3,3,0,0,0,.63-.08Z" style="fill:#232f3e"/><path d="M37.23,106.35v-3.7a1.27,1.27,0,0,0-.14-.7.54.54,0,0,0-.49-.22,1.57,1.57,0,0,0-.82.26v4.36H34.13V98.21h1.65v2.91a3.19,3.19,0,0,1,1.67-.54,1.35,1.35,0,0,1,1.07.42,1.83,1.83,0,0,1,.37,1.22v4.13Z" style="fill:#232f3e"/><path d="M41.5,103.92a1.66,1.66,0,0,0,.36,1.12,1.45,1.45,0,0,0,1.06.33,3.18,3.18,0,0,0,.68-.09,5.54,5.54,0,0,0,.8-.21v1a2.77,2.77,0,0,1-.83.31,4.77,4.77,0,0,1-1,.11c-1.72,0-2.57-1-2.57-2.95a3.37,3.37,0,0,1,.63-2.2,2.22,2.22,0,0,1,1.82-.76c1.37,0,2,.76,2,2.29a4.32,4.32,0,0,1-.12,1Zm.91-2.32c-.57,0-.88.46-.91,1.37h1.61v-.25a1.59,1.59,0,0,0-.17-.86A.58.58,0,0,0,42.41,101.6Z" style="fill:#232f3e"/><path d="M48.75,106.35v-3.7a1.36,1.36,0,0,0-.14-.7.55.55,0,0,0-.5-.22,1.59,1.59,0,0,0-.82.26v4.36H45.64v-5.63H47l.14.51a3.32,3.32,0,0,1,1.84-.65A1.35,1.35,0,0,1,50,101a1.83,1.83,0,0,1,.36,1.22v4.13Z" style="fill:#232f3e"/><path d="M54.7,106.35l-.14-.51a1.49,1.49,0,0,1-.59.47,1.85,1.85,0,0,1-.78.18A1.54,1.54,0,0,1,52,106a1.66,1.66,0,0,1-.44-1.22,1.69,1.69,0,0,1,.53-1.31,2,2,0,0,1,1.43-.47,4,4,0,0,1,.93.13v-.51a1.33,1.33,0,0,0-.16-.78.77.77,0,0,0-.61-.2,5.9,5.9,0,0,0-1.77.35v-1a3,3,0,0,1,.92-.33,5.47,5.47,0,0,1,1.15-.12,2.19,2.19,0,0,1,1.52.44,1.82,1.82,0,0,1,.47,1.39v3.94Zm-1-.92a1.17,1.17,0,0,0,.79-.35V104a2.25,2.25,0,0,0-.62-.07.67.67,0,0,0-.54.2.85.85,0,0,0-.19.59.82.82,0,0,0,.15.52A.49.49,0,0,0,53.67,105.43Z" style="fill:#232f3e"/></g><g id="ICONS_-_EDIT" data-name="ICONS - EDIT"><path d="M39.16,56A16.49,16.49,0,1,1,55.65,39.49,16.51,16.51,0,0,1,39.16,56Zm0-31A14.49,14.49,0,1,0,53.65,39.49,14.51,14.51,0,0,0,39.16,25Z" style="fill:#fff"/><rect x="15" y="39" width="9.32" height="2" style="fill:#fff"/><rect x="17.11" y="44" width="8.19" height="2" style="fill:#fff"/><rect x="17" y="34" width="7.96" height="2" style="fill:#fff"/><path d="M58.62,52.92,57,51.75A21.77,21.77,0,0,0,61.08,39a22,22,0,0,0-41.83-9.5l-1.8-.86A24,24,0,0,1,63.08,39,23.8,23.8,0,0,1,58.62,52.92Z" style="fill:#fff"/><path d="M39.09,63a24,24,0,0,1-20-10.71l1.66-1.11A22,22,0,0,0,51.84,56.9L53,58.53A23.82,23.82,0,0,1,39.09,63Z" style="fill:#fff"/><path d="M60.25,65a4.71,4.71,0,0,1-3.34-1.38l-10-10,1.42-1.42,10,10a2.78,2.78,0,0,0,3.86,0,2.72,2.72,0,0,0,0-3.86L52.12,48.2l1.42-1.41L63.62,56.92A4.75,4.75,0,0,1,60.25,65Z" style="fill:#fff"/><path d="M38.66,48.84c-.69,0-6.67-.07-6.8-2.55L30.19,33.84l2-.27L33.84,46a10.43,10.43,0,0,0,4.82.87,15.45,15.45,0,0,0,3.4-.35,7.12,7.12,0,0,0,1-.29,2.3,2.3,0,0,0,.46-.23l1.67-12.4,2,.27L45.46,46.29c0,.74-.61,1.34-1.7,1.77a9.36,9.36,0,0,1-1.25.38A17.65,17.65,0,0,1,38.66,48.84Z" style="fill:#fff"/><path d="M38.66,36.39c-.79,0-7.74-.07-8.45-2.59a.51.51,0,0,1,0-.13l0-.14a.71.71,0,0,1,0-.14c0-2.37,5.21-3.25,8.5-3.25s8.51.88,8.51,3.25c0,0,0,.09,0,.14l0,.14,0,.13C46.4,36.32,39.45,36.39,38.66,36.39Zm-6.3-3a15.53,15.53,0,0,0,6.3,1,15.49,15.49,0,0,0,6.3-1,13.79,13.79,0,0,0-6.3-1.23A13.79,13.79,0,0,0,32.36,33.37Zm12.87-.2Z" style="fill:#fff"/><path d="M47,42.51c-1.21,0-3.62-.68-8.73-3.23l.89-1.79A55.58,55.58,0,0,0,44.91,40l1-1.73c.15.08,2.22,1.6,2.48,2.67a1.18,1.18,0,0,1-.15.94A1.27,1.27,0,0,1,47,42.51Z" style="fill:#fff"/><path d="M38.66,39.82a1.44,1.44,0,1,1,1.44-1.44A1.44,1.44,0,0,1,38.66,39.82Zm0-2a.56.56,0,0,0-.56.56.57.57,0,0,0,.56.57.58.58,0,0,0,.57-.57A.57.57,0,0,0,38.66,37.82Z" style="fill:#fff"/></g></svg>