<svg xmlns="http://www.w3.org/2000/svg" width="80" height="130" viewBox="0 0 80 130"><title>architecture-product-card_ElastiCache_for_Memcached</title><g id="CARDS"><rect x="1" y="1" width="78" height="78" style="fill:#232f3e"/><path d="M0,0V80H0v50H80V80h0V0ZM1,1H79V79H1Z" style="fill:#fff"/></g><g id="TEXT_-_EDIT" data-name="TEXT - EDIT"><path d="M26,92.35l-.43-1.82h-2l-.42,1.82H21.33l2.31-7.63h1.87l2.3,7.63Zm-2.18-2.92h1.5l-.76-3.16Z" style="fill:#232f3e"/><path d="M34.42,92.35V88.64a1.23,1.23,0,0,0-.14-.69.49.49,0,0,0-.46-.22A1.59,1.59,0,0,0,33,88a.5.5,0,0,1,0,.12v4.24H31.39V88.64a1.32,1.32,0,0,0-.14-.69.51.51,0,0,0-.47-.22A1.55,1.55,0,0,0,30,88v4.36H28.35V86.72H29.7l.13.51a3.31,3.31,0,0,1,1.81-.65,1.25,1.25,0,0,1,1.2.67,3.38,3.38,0,0,1,1.83-.67,1.3,1.3,0,0,1,1,.42,1.85,1.85,0,0,1,.36,1.22v4.13Z" style="fill:#232f3e"/><path d="M40.13,92.35,40,91.84a1.49,1.49,0,0,1-.59.47,1.85,1.85,0,0,1-.78.18A1.58,1.58,0,0,1,37.43,92a1.91,1.91,0,0,1,.1-2.53A2,2,0,0,1,39,89a4,4,0,0,1,.93.13v-.51a1.33,1.33,0,0,0-.16-.78.77.77,0,0,0-.61-.2,5.9,5.9,0,0,0-1.77.35V87a3,3,0,0,1,.92-.33,5.47,5.47,0,0,1,1.15-.12,2.19,2.19,0,0,1,1.52.44,1.82,1.82,0,0,1,.47,1.39v3.94Zm-1-.92a1.17,1.17,0,0,0,.79-.35V90a2.3,2.3,0,0,0-.62-.07.67.67,0,0,0-.54.2.81.81,0,0,0-.19.59.82.82,0,0,0,.15.52A.49.49,0,0,0,39.1,91.43Z" style="fill:#232f3e"/><path d="M42.16,92.35V91.28l2.49-3.4h-2.4V86.72h4.14v1.07l-2.5,3.4h2.54v1.16Z" style="fill:#232f3e"/><path d="M49.43,92.49a2.29,2.29,0,0,1-1.84-.77,4,4,0,0,1,0-4.37,2.6,2.6,0,0,1,3.69,0,4,4,0,0,1,0,4.37A2.31,2.31,0,0,1,49.43,92.49Zm0-1.15a.67.67,0,0,0,.65-.43,4.79,4.79,0,0,0,0-2.74.67.67,0,0,0-.65-.44.66.66,0,0,0-.64.44,4.79,4.79,0,0,0,0,2.74A.66.66,0,0,0,49.43,91.34Z" style="fill:#232f3e"/><path d="M56,92.35v-3.7a1.36,1.36,0,0,0-.14-.7.56.56,0,0,0-.5-.22,1.59,1.59,0,0,0-.82.26v4.36H52.84V86.72h1.35l.13.51a3.38,3.38,0,0,1,1.85-.65,1.33,1.33,0,0,1,1.06.42,1.78,1.78,0,0,1,.37,1.22v4.13Z" style="fill:#232f3e"/><path d="M7,106.35V98.72h4.54V99.9H8.69v1.95H11V103H8.69v2.15h2.86v1.18Z" style="fill:#232f3e"/><path d="M14.83,106.25a2.7,2.7,0,0,1-1,.16,1.43,1.43,0,0,1-1.08-.37,1.58,1.58,0,0,1-.35-1.12V98.21h1.65v6.54a.75.75,0,0,0,.08.4.36.36,0,0,0,.32.12,2.26,2.26,0,0,0,.35,0Z" style="fill:#232f3e"/><path d="M18.5,106.35l-.14-.51a1.56,1.56,0,0,1-.59.47,1.86,1.86,0,0,1-.79.18A1.57,1.57,0,0,1,15.8,106a1.91,1.91,0,0,1,.1-2.53,2,2,0,0,1,1.43-.47,4,4,0,0,1,.93.13v-.51a1.33,1.33,0,0,0-.16-.78.77.77,0,0,0-.61-.2,5.9,5.9,0,0,0-1.77.35v-1a3,3,0,0,1,.91-.33,5.64,5.64,0,0,1,1.16-.12,2.19,2.19,0,0,1,1.52.44,1.82,1.82,0,0,1,.47,1.39v3.94Zm-1-.92a1.17,1.17,0,0,0,.8-.35V104a2.33,2.33,0,0,0-.63-.07.66.66,0,0,0-.53.2.81.81,0,0,0-.19.59.82.82,0,0,0,.15.52A.48.48,0,0,0,17.46,105.43Z" style="fill:#232f3e"/><path d="M22.93,104.77c0-.25-.17-.46-.51-.62l-.73-.35a1.7,1.7,0,0,1-1.13-1.59,1.43,1.43,0,0,1,.56-1.18,2.22,2.22,0,0,1,1.46-.45,3.61,3.61,0,0,1,1.54.35v1a5.56,5.56,0,0,0-.7-.19,3.07,3.07,0,0,0-.61-.07c-.51,0-.77.18-.77.54s.22.45.64.66l.72.34a1.83,1.83,0,0,1,.77.62,1.61,1.61,0,0,1,.25.93,1.57,1.57,0,0,1-.56,1.27,2.28,2.28,0,0,1-1.48.46,3.83,3.83,0,0,1-1.82-.44v-1a5.44,5.44,0,0,0,1.62.35.85.85,0,0,0,.56-.17A.56.56,0,0,0,22.93,104.77Z" style="fill:#232f3e"/><path d="M28.14,106.2a3.47,3.47,0,0,1-1.23.22,1.8,1.8,0,0,1-1.31-.4,1.77,1.77,0,0,1-.41-1.3v-2.9h-.74v-.92l.79-.15.24-1.54h1.36v1.51h1.27v1.1H26.84v2.77a.79.79,0,0,0,.14.52.69.69,0,0,0,.53.16,2.94,2.94,0,0,0,.63-.08Z" style="fill:#232f3e"/><path d="M29.64,99.81a1.08,1.08,0,0,1-.71-.22.79.79,0,0,1-.26-.61.77.77,0,0,1,.26-.61,1,1,0,0,1,.71-.23,1,1,0,0,1,.7.23.75.75,0,0,1,.27.61.76.76,0,0,1-.27.61A1,1,0,0,1,29.64,99.81Zm-.83,6.54v-5.63h1.65v5.63Z" style="fill:#232f3e"/><path d="M36.73,106.13a4.63,4.63,0,0,1-1.78.34q-3.37,0-3.38-3.9a4.46,4.46,0,0,1,.88-2.95,3.16,3.16,0,0,1,2.53-1,4.72,4.72,0,0,1,1.65.3v1.21a5.61,5.61,0,0,0-1.44-.23,1.61,1.61,0,0,0-1.4.61,3.29,3.29,0,0,0-.45,1.93v.25a3.26,3.26,0,0,0,.44,1.9,1.55,1.55,0,0,0,1.37.61,7.12,7.12,0,0,0,1.58-.26Z" style="fill:#232f3e"/><path d="M40.39,106.35l-.14-.51a1.56,1.56,0,0,1-.59.47,1.86,1.86,0,0,1-.79.18,1.57,1.57,0,0,1-1.18-.45,1.91,1.91,0,0,1,.1-2.53,2,2,0,0,1,1.43-.47,4,4,0,0,1,.93.13v-.51a1.33,1.33,0,0,0-.16-.78.77.77,0,0,0-.61-.2,5.9,5.9,0,0,0-1.77.35v-1a3,3,0,0,1,.91-.33,5.64,5.64,0,0,1,1.16-.12,2.21,2.21,0,0,1,1.52.44,1.82,1.82,0,0,1,.47,1.39v3.94Zm-1-.92a1.19,1.19,0,0,0,.8-.35V104a2.38,2.38,0,0,0-.63-.07.66.66,0,0,0-.53.2.81.81,0,0,0-.19.59.82.82,0,0,0,.15.52A.48.48,0,0,0,39.35,105.43Z" style="fill:#232f3e"/><path d="M46.46,106.09a2,2,0,0,1-.64.26,3.44,3.44,0,0,1-.8.09,2.3,2.3,0,0,1-1.85-.73,3.29,3.29,0,0,1-.62-2.16,3.16,3.16,0,0,1,.67-2.16,2.34,2.34,0,0,1,1.87-.76,2.93,2.93,0,0,1,1.35.33v1a3.09,3.09,0,0,0-1-.19,1.05,1.05,0,0,0-.93.4,2.29,2.29,0,0,0-.28,1.29v.16a2.32,2.32,0,0,0,.27,1.28,1,1,0,0,0,.91.4,3.22,3.22,0,0,0,1.08-.21Z" style="fill:#232f3e"/><path d="M50.38,106.35v-3.7a1.25,1.25,0,0,0-.15-.7.53.53,0,0,0-.49-.22,1.59,1.59,0,0,0-.82.26v4.36H47.27V98.21h1.65v2.91a3.21,3.21,0,0,1,1.67-.54,1.34,1.34,0,0,1,1.07.42,1.78,1.78,0,0,1,.37,1.22v4.13Z" style="fill:#232f3e"/><path d="M54.4,103.92a1.77,1.77,0,0,0,.36,1.12,1.45,1.45,0,0,0,1.06.33,3.11,3.11,0,0,0,.68-.09,6,6,0,0,0,.81-.21v1a3,3,0,0,1-.84.31,4.67,4.67,0,0,1-1,.11c-1.72,0-2.58-1-2.58-2.95a3.37,3.37,0,0,1,.63-2.2,2.23,2.23,0,0,1,1.83-.76c1.36,0,2,.76,2,2.29a4.32,4.32,0,0,1-.12,1Zm.92-2.32c-.58,0-.89.46-.92,1.37H56v-.25a1.68,1.68,0,0,0-.17-.86A.59.59,0,0,0,55.32,101.6Z" style="fill:#232f3e"/><path d="M60.81,106.35v-4.53H60v-.92l.78-.15v-.66a2.17,2.17,0,0,1,.48-1.54,2,2,0,0,1,1.48-.5,2.9,2.9,0,0,1,1.09.21v1a3,3,0,0,0-.63-.07.88.88,0,0,0-.61.16.94.94,0,0,0-.16.62v.74H63.8v1.1H62.46v4.53Z" style="fill:#232f3e"/><path d="M66.52,106.49a2.29,2.29,0,0,1-1.84-.77,4,4,0,0,1,0-4.37,2.6,2.6,0,0,1,3.69,0,4,4,0,0,1,0,4.37A2.31,2.31,0,0,1,66.52,106.49Zm0-1.15a.67.67,0,0,0,.65-.43,4.79,4.79,0,0,0,0-2.74.67.67,0,0,0-.65-.44.65.65,0,0,0-.64.44,4.79,4.79,0,0,0,0,2.74A.65.65,0,0,0,66.52,105.34Z" style="fill:#232f3e"/><path d="M69.93,106.35v-5.63h1.35l.18.73a2.5,2.5,0,0,1,.72-.59,1.55,1.55,0,0,1,.75-.19,2.56,2.56,0,0,1,.39,0V102a5,5,0,0,0-.64,0,2.47,2.47,0,0,0-1.1.26v4.11Z" style="fill:#232f3e"/><path d="M19.32,120.35V115l-1.41,3.46H16.48L15.08,115v5.32H13.57v-7.63H15.5L17.22,117,19,112.72h1.88v7.63Z" style="fill:#232f3e"/><path d="M23.33,117.92a1.77,1.77,0,0,0,.36,1.12,1.45,1.45,0,0,0,1.06.33,3.18,3.18,0,0,0,.68-.09,5.54,5.54,0,0,0,.8-.21v1a2.77,2.77,0,0,1-.83.31,4.75,4.75,0,0,1-1,.11c-1.72,0-2.58-1-2.58-2.95a3.37,3.37,0,0,1,.63-2.2,2.22,2.22,0,0,1,1.82-.76c1.37,0,2.05.76,2.05,2.29a4.32,4.32,0,0,1-.12,1Zm.92-2.32c-.58,0-.89.46-.92,1.37H25v-.25a1.68,1.68,0,0,0-.17-.86A.6.6,0,0,0,24.25,115.6Z" style="fill:#232f3e"/><path d="M33.31,120.35v-3.71a1.32,1.32,0,0,0-.14-.69.5.5,0,0,0-.46-.22,1.56,1.56,0,0,0-.8.26.49.49,0,0,1,0,.12v4.24H30.27v-3.71a1.32,1.32,0,0,0-.14-.69.49.49,0,0,0-.46-.22,1.5,1.5,0,0,0-.78.26v4.36H27.24v-5.63h1.34l.14.51a3.28,3.28,0,0,1,1.8-.65,1.26,1.26,0,0,1,1.21.67,3.38,3.38,0,0,1,1.83-.67,1.3,1.3,0,0,1,1,.42,1.85,1.85,0,0,1,.36,1.22v4.13Z" style="fill:#232f3e"/><path d="M39.75,120.09a2,2,0,0,1-.64.26,3.44,3.44,0,0,1-.8.09,2.3,2.3,0,0,1-1.85-.73,3.29,3.29,0,0,1-.62-2.16,3.16,3.16,0,0,1,.67-2.16,2.34,2.34,0,0,1,1.87-.76,2.93,2.93,0,0,1,1.35.33v1a3.09,3.09,0,0,0-1-.19,1.05,1.05,0,0,0-.93.4,2.29,2.29,0,0,0-.28,1.29v.16a2.32,2.32,0,0,0,.27,1.28,1,1,0,0,0,.91.4,3.22,3.22,0,0,0,1.08-.21Z" style="fill:#232f3e"/><path d="M43.46,120.35l-.14-.51a1.49,1.49,0,0,1-.59.47,1.85,1.85,0,0,1-.78.18,1.58,1.58,0,0,1-1.19-.45,1.91,1.91,0,0,1,.1-2.53,2,2,0,0,1,1.43-.47,4,4,0,0,1,.93.13v-.51a1.33,1.33,0,0,0-.16-.78.77.77,0,0,0-.61-.2,5.9,5.9,0,0,0-1.77.35v-1a3,3,0,0,1,.92-.33,5.47,5.47,0,0,1,1.15-.12,2.19,2.19,0,0,1,1.52.44,1.82,1.82,0,0,1,.47,1.39v3.94Zm-1-.92a1.17,1.17,0,0,0,.79-.35V118a2.3,2.3,0,0,0-.62-.07.67.67,0,0,0-.54.2.81.81,0,0,0-.19.59.82.82,0,0,0,.15.52A.49.49,0,0,0,42.43,119.43Z" style="fill:#232f3e"/><path d="M49.54,120.09a2.09,2.09,0,0,1-.64.26,3.59,3.59,0,0,1-.81.09,2.27,2.27,0,0,1-1.84-.73,3.24,3.24,0,0,1-.63-2.16,3.16,3.16,0,0,1,.67-2.16,2.34,2.34,0,0,1,1.87-.76,2.93,2.93,0,0,1,1.35.33v1a3.08,3.08,0,0,0-1-.19,1.06,1.06,0,0,0-.94.4,2.29,2.29,0,0,0-.28,1.29v.16a2.23,2.23,0,0,0,.28,1.28,1,1,0,0,0,.9.4,3.32,3.32,0,0,0,1.09-.21Z" style="fill:#232f3e"/><path d="M53.45,120.35v-3.7a1.36,1.36,0,0,0-.14-.7.56.56,0,0,0-.5-.22A1.59,1.59,0,0,0,52,116v4.36H50.34v-8.14H52v2.91a3.25,3.25,0,0,1,1.68-.54,1.33,1.33,0,0,1,1.06.42,1.78,1.78,0,0,1,.37,1.22v4.13Z" style="fill:#232f3e"/><path d="M57.47,117.92a1.71,1.71,0,0,0,.37,1.12,1.43,1.43,0,0,0,1.06.33,3.26,3.26,0,0,0,.68-.09,5.9,5.9,0,0,0,.8-.21v1a2.88,2.88,0,0,1-.83.31,4.77,4.77,0,0,1-1,.11c-1.72,0-2.58-1-2.58-2.95a3.37,3.37,0,0,1,.63-2.2,2.24,2.24,0,0,1,1.83-.76c1.36,0,2.05.76,2.05,2.29a4.32,4.32,0,0,1-.12,1Zm.92-2.32c-.58,0-.88.46-.92,1.37h1.62v-.25a1.68,1.68,0,0,0-.17-.86A.59.59,0,0,0,58.39,115.6Z" style="fill:#232f3e"/><path d="M64.63,120.35l-.13-.49a2.2,2.2,0,0,1-.63.43,1.86,1.86,0,0,1-.72.15,1.74,1.74,0,0,1-1.51-.75,3.65,3.65,0,0,1-.54-2.13,3.73,3.73,0,0,1,.56-2.19,1.73,1.73,0,0,1,1.52-.79,2.08,2.08,0,0,1,.64.13,2.52,2.52,0,0,1,.61.33v-2.83h1.65v8.14Zm-.93-1a1.4,1.4,0,0,0,.73-.22V116a1.54,1.54,0,0,0-.8-.26.69.69,0,0,0-.67.44,3.39,3.39,0,0,0-.21,1.39,3.05,3.05,0,0,0,.23,1.36A.75.75,0,0,0,63.7,119.32Z" style="fill:#232f3e"/></g><g id="ICONS_-_EDIT" data-name="ICONS - EDIT"><path d="M40,39.7c-6.71,0-13.49-1.75-13.49-5.1S33.31,29.5,40,29.5,53.5,31.25,53.5,34.6,46.71,39.7,40,39.7Zm0-8.2c-7.44,0-11.49,2-11.49,3.1s4,3.1,11.49,3.1S51.5,35.65,51.5,34.6,47.44,31.5,40,31.5Z" style="fill:#fff"/><path d="M40,62.5c-6.71,0-13.49-1.75-13.49-5.1V34.6h2V57.4c0,1.05,4,3.1,11.49,3.1s11.48-2,11.48-3.1V34.6h2V57.4C53.5,60.75,46.71,62.5,40,62.5Z" style="fill:#fff"/><path d="M31.24,46.17c-3.89-1.19-4.71-2.82-4.71-4h2c0,.36.69,1.26,3.29,2Z" style="fill:#fff"/><path d="M48.82,46.16l-.58-1.92c2.58-.79,3.26-1.68,3.26-2h2C53.5,43.35,52.69,45,48.82,46.16Z" style="fill:#fff"/><path d="M31.24,53.77c-3.89-1.19-4.71-2.82-4.71-4h2c0,.36.69,1.26,3.29,2.05Z" style="fill:#fff"/><path d="M48.82,53.76l-.58-1.92c2.58-.79,3.26-1.68,3.26-2h2C53.5,51,52.69,52.57,48.82,53.76Z" style="fill:#fff"/><path d="M40,39.7c-6.71,0-13.49-1.75-13.49-5.1S33.31,29.5,40,29.5,53.5,31.25,53.5,34.6,46.71,39.7,40,39.7Zm0-8.2c-7.44,0-11.49,2-11.49,3.1s4,3.1,11.49,3.1S51.5,35.65,51.5,34.6,47.44,31.5,40,31.5Z" style="fill:#fff"/><path d="M20.53,44.5h-2v-3a1,1,0,0,1,1-1h5v2h-4Z" style="fill:#fff"/><path d="M61.53,45.5h-6v-2h5v-1h-5v-2h6a1,1,0,0,1,1,1v3A1,1,0,0,1,61.53,45.5Z" style="fill:#fff"/><path d="M64.53,45.5h-9v-2h8V28a4.27,4.27,0,0,1,0-8.13V19.5H16.47v.32a4.26,4.26,0,0,1,0,8.15V43.5h8.06v2H15.47a1,1,0,0,1-1-1V27.1a1,1,0,0,1,1-1,2.22,2.22,0,0,0,0-4.42,1,1,0,0,1-1-1V18.5a1,1,0,0,1,1-1H64.53a1,1,0,0,1,1,1v2.19a1,1,0,0,1-1,1,2.22,2.22,0,0,0,0,4.41,1,1,0,0,1,1,1V44.5A1,1,0,0,1,64.53,45.5Z" style="fill:#fff"/><path d="M32.53,28.5h-2v-6a1,1,0,0,1,1-1h7a1,1,0,0,1,1,1v5h-2v-4h-5Z" style="fill:#fff"/><path d="M49.53,28.5h-2v-5h-5v4h-2v-5a1,1,0,0,1,1-1h7a1,1,0,0,1,1,1Z" style="fill:#fff"/><path d="M58.53,38.5h-3v-2h2v-13h-5v6h-2v-7a1,1,0,0,1,1-1h7a1,1,0,0,1,1,1v15A1,1,0,0,1,58.53,38.5Z" style="fill:#fff"/><path d="M24.53,38.5h-3a1,1,0,0,1-1-1v-15a1,1,0,0,1,1-1h7a1,1,0,0,1,1,1v7h-2v-6h-5v13h2Z" style="fill:#fff"/><path d="M44.69,56.25V45.87l-3.6,6.9h-2.2l-3.48-6.86V56.25H33.17V42.39h2.72l4.16,8.26,4.24-8.26h2.64V56.25Z" style="fill:#fff"/></g></svg>