<svg xmlns="http://www.w3.org/2000/svg" width="80" height="115" viewBox="0 0 80 115"><title>architecture-product-card_AWS_IoT_Analytics</title><g id="CARDS"><rect x="1" y="1" width="78" height="78" style="fill:#232f3e"/><path d="M0,0V80H0v35H80V80h0V0ZM1,1H79V79H1Z" style="fill:#fff"/></g><g id="TEXT_-_EDIT" data-name="TEXT - EDIT"><path d="M24.79,92.35l-.43-1.82h-2l-.42,1.82H20.16l2.32-7.63h1.86l2.31,7.63Zm-2.18-2.92H24.1l-.76-3.16Z" style="fill:#232f3e"/><path d="M32,92.35l-.94-5.63-.89,5.63H28.3l-1.79-7.63h1.7l1.06,6.06L30.19,85H32L33,90.68l1-6h1.67l-1.79,7.63Z" style="fill:#232f3e"/><path d="M38,89a3.6,3.6,0,0,1-1.28-1,2,2,0,0,1-.39-1.23,2.07,2.07,0,0,1,.34-1.17,2.17,2.17,0,0,1,.92-.77,3.19,3.19,0,0,1,1.35-.27,4.92,4.92,0,0,1,1.89.39v1.17a5.5,5.5,0,0,0-1.73-.33,1.26,1.26,0,0,0-.79.23.78.78,0,0,0-.29.64.81.81,0,0,0,.19.56,2.14,2.14,0,0,0,.71.48l.65.32a5.12,5.12,0,0,1,1,.62,2,2,0,0,1,.54.69,2.13,2.13,0,0,1,.17.92,2,2,0,0,1-.74,1.65,3.09,3.09,0,0,1-2,.61,5.43,5.43,0,0,1-1.13-.12,3.76,3.76,0,0,1-1-.32V90.92a7.29,7.29,0,0,0,1,.25,5.53,5.53,0,0,0,1,.11,1.32,1.32,0,0,0,.88-.25.86.86,0,0,0,.3-.71.84.84,0,0,0-.21-.58,2.4,2.4,0,0,0-.7-.47Z" style="fill:#232f3e"/><path d="M45.07,92.35V84.72h1.68v7.63Z" style="fill:#232f3e"/><path d="M50.56,92.49a2.29,2.29,0,0,1-1.84-.77,4,4,0,0,1,0-4.37,2.58,2.58,0,0,1,3.68,0,4,4,0,0,1,0,4.37A2.29,2.29,0,0,1,50.56,92.49Zm0-1.15a.65.65,0,0,0,.64-.43,4.79,4.79,0,0,0,0-2.74.69.69,0,0,0-1.28,0,4.79,4.79,0,0,0,0,2.74A.65.65,0,0,0,50.56,91.34Z" style="fill:#232f3e"/><path d="M55.63,92.35V85.94h-2V84.72h5.69v1.22h-2v6.41Z" style="fill:#232f3e"/><path d="M22.64,106.35l-.43-1.82h-2l-.43,1.82H18l2.32-7.63h1.86l2.3,7.63Zm-2.18-2.92H22l-.76-3.16Z" style="fill:#232f3e"/><path d="M28.39,106.35v-3.7a1.25,1.25,0,0,0-.15-.7.53.53,0,0,0-.49-.22,1.59,1.59,0,0,0-.82.26v4.36H25.28v-5.63h1.35l.13.51a3.35,3.35,0,0,1,1.84-.65,1.35,1.35,0,0,1,1.07.42,1.83,1.83,0,0,1,.37,1.22v4.13Z" style="fill:#232f3e"/><path d="M34.34,106.35l-.15-.51a1.42,1.42,0,0,1-.59.47,1.81,1.81,0,0,1-.78.18,1.56,1.56,0,0,1-1.18-.45,1.66,1.66,0,0,1-.44-1.22,1.69,1.69,0,0,1,.53-1.31,2.08,2.08,0,0,1,1.44-.47,4,4,0,0,1,.93.13v-.51a1.32,1.32,0,0,0-.17-.78.74.74,0,0,0-.6-.2,5.9,5.9,0,0,0-1.78.35v-1a3.07,3.07,0,0,1,.92-.33,5.57,5.57,0,0,1,1.16-.12,2.21,2.21,0,0,1,1.52.44,1.82,1.82,0,0,1,.46,1.39v3.94Zm-1-.92a1.19,1.19,0,0,0,.8-.35V104a2.38,2.38,0,0,0-.63-.07.69.69,0,0,0-.54.2.85.85,0,0,0-.18.59.82.82,0,0,0,.15.52A.47.47,0,0,0,33.3,105.43Z" style="fill:#232f3e"/><path d="M39.41,106.25a2.69,2.69,0,0,1-1,.16,1.4,1.4,0,0,1-1.08-.37,1.54,1.54,0,0,1-.36-1.12V98.21h1.65v6.54a.75.75,0,0,0,.08.4.36.36,0,0,0,.32.12,2.26,2.26,0,0,0,.35,0Z" style="fill:#232f3e"/><path d="M41.75,106.46l-2-5.74h1.75l.92,4.14.91-4.14H45l-2,6.48a2.41,2.41,0,0,1-.68,1.18,1.64,1.64,0,0,1-1.1.36,3.59,3.59,0,0,1-1.06-.16v-1a4.1,4.1,0,0,0,.57,0,.94.94,0,0,0,.69-.22,1.27,1.27,0,0,0,.3-.74Z" style="fill:#232f3e"/><path d="M49.19,106.2a3.47,3.47,0,0,1-1.23.22,1.47,1.47,0,0,1-1.72-1.7v-2.9h-.73v-.92l.78-.15.24-1.54h1.36v1.51h1.28v1.1H47.89v2.77a.79.79,0,0,0,.14.52.7.7,0,0,0,.53.16,2.86,2.86,0,0,0,.63-.08Z" style="fill:#232f3e"/><path d="M50.94,99.81a1,1,0,0,1-.71-.22A.76.76,0,0,1,50,99a.75.75,0,0,1,.27-.61,1.2,1.2,0,0,1,1.41,0,.77.77,0,0,1,.26.61.79.79,0,0,1-.26.61A1,1,0,0,1,50.94,99.81Zm-.83,6.54v-5.63h1.65v5.63Z" style="fill:#232f3e"/><path d="M56.85,106.09a1.93,1.93,0,0,1-.63.26,3.59,3.59,0,0,1-.81.09,2.3,2.3,0,0,1-1.85-.73,3.29,3.29,0,0,1-.62-2.16,3.16,3.16,0,0,1,.67-2.16,2.34,2.34,0,0,1,1.87-.76,2.93,2.93,0,0,1,1.35.33v1a3.08,3.08,0,0,0-1-.19,1.06,1.06,0,0,0-.94.4,2.29,2.29,0,0,0-.28,1.29v.16a2.23,2.23,0,0,0,.28,1.28,1,1,0,0,0,.9.4,3.22,3.22,0,0,0,1.08-.21Z" style="fill:#232f3e"/><path d="M59.9,104.77c0-.25-.17-.46-.52-.62l-.72-.35a1.7,1.7,0,0,1-1.13-1.59,1.42,1.42,0,0,1,.55-1.18,2.26,2.26,0,0,1,1.47-.45,3.57,3.57,0,0,1,1.53.35v1a5.13,5.13,0,0,0-.7-.19,3,3,0,0,0-.6-.07c-.51,0-.77.18-.77.54s.21.45.64.66l.72.34a1.83,1.83,0,0,1,.77.62,1.69,1.69,0,0,1,.24.93,1.56,1.56,0,0,1-.55,1.27,2.28,2.28,0,0,1-1.48.46,3.8,3.8,0,0,1-1.82-.44v-1a5.45,5.45,0,0,0,1.61.35.86.86,0,0,0,.57-.17A.56.56,0,0,0,59.9,104.77Z" style="fill:#232f3e"/></g><g id="ICONS_-_EDIT" data-name="ICONS - EDIT"><path d="M18.42,54.54A22,22,0,0,1,34.8,20.89l.2,2A20.08,20.08,0,0,0,17,42.82a19.79,19.79,0,0,0,3.08,10.65Z" style="fill:#fff"/><path d="M37.1,64.88A21.83,21.83,0,0,1,24.92,61.2L26,59.54a20.07,20.07,0,0,0,31-14.65l2,.2A22,22,0,0,1,37.1,64.88Z" style="fill:#fff"/><path d="M56.31,37.08A20.11,20.11,0,0,0,42.93,23.64l.58-1.92A22.1,22.1,0,0,1,58.23,36.5Z" style="fill:#fff"/><rect x="14.1" y="38.01" width="32.05" height="2" transform="translate(-18.33 48.02) rotate(-62.86)" style="fill:#fff"/><rect x="18.69" y="60.08" width="0.21" height="2" transform="translate(-43.99 49.19) rotate(-62.17)" style="fill:#fff"/><rect x="18.72" y="60.1" width="0.2" height="2" transform="translate(-37.65 31.13) rotate(-44.92)" style="fill:#fff"/><rect x="19.37" y="39.51" width="40.06" height="2" transform="translate(-17.11 39.73) rotate(-45)" style="fill:#fff"/><rect x="24.57" y="48.84" width="32.51" height="2" transform="translate(-18.25 24.14) rotate(-27.17)" style="fill:#fff"/><rect x="18.74" y="60.12" width="0.21" height="2" transform="translate(-26.22 15.74) rotate(-27.67)" style="fill:#fff"/><path d="M21.88,63.17a5.5,5.5,0,1,1,5.5-5.5A5.5,5.5,0,0,1,21.88,63.17Zm0-9a3.5,3.5,0,1,0,3.5,3.5A3.5,3.5,0,0,0,21.88,54.17Z" style="fill:#fff"/><path d="M56.75,28.67a5.5,5.5,0,1,1,5.5-5.5A5.51,5.51,0,0,1,56.75,28.67Zm0-9a3.5,3.5,0,1,0,3.5,3.5A3.5,3.5,0,0,0,56.75,19.67Z" style="fill:#fff"/><path d="M59.46,46.22a5.5,5.5,0,1,1,5.5-5.5A5.51,5.51,0,0,1,59.46,46.22Zm0-9a3.5,3.5,0,1,0,3.5,3.5A3.5,3.5,0,0,0,59.46,37.22Z" style="fill:#fff"/><path d="M39.22,26.12a5.5,5.5,0,1,1,5.5-5.5A5.51,5.51,0,0,1,39.22,26.12Zm0-9a3.5,3.5,0,1,0,3.5,3.5A3.5,3.5,0,0,0,39.22,17.12Z" style="fill:#fff"/></g></svg>