<svg xmlns="http://www.w3.org/2000/svg" width="80" height="115" viewBox="0 0 80 115"><title>Amazon_Route_53</title><g id="CARDS"><rect x="1" y="1" width="78" height="78" style="fill:#232f3e"/><path d="M0,0V80H0v35H80V80h0V0ZM1,1H79V79H1Z" style="fill:#fff"/></g><g id="TEXT_-_EDIT" data-name="TEXT - EDIT"><path d="M25.35,92.35l-.43-1.82h-2l-.42,1.82H20.72L23,84.72H24.9l2.31,7.63Zm-2.18-2.92h1.49l-.76-3.16Z" style="fill:#232f3e"/><path d="M34.06,92.35V88.64a1.32,1.32,0,0,0-.14-.69.49.49,0,0,0-.46-.22,1.59,1.59,0,0,0-.8.26.5.5,0,0,1,0,.12v4.24H31V88.64a1.33,1.33,0,0,0-.13-.69.51.51,0,0,0-.47-.22,1.55,1.55,0,0,0-.78.26v4.36H28V86.72h1.35l.13.51a3.31,3.31,0,0,1,1.81-.65,1.25,1.25,0,0,1,1.2.67,3.38,3.38,0,0,1,1.83-.67,1.3,1.3,0,0,1,1,.42,1.85,1.85,0,0,1,.36,1.22v4.13Z" style="fill:#232f3e"/><path d="M40,92.35l-.14-.51a1.56,1.56,0,0,1-.59.47,1.86,1.86,0,0,1-.79.18A1.57,1.57,0,0,1,37.31,92a1.65,1.65,0,0,1-.43-1.22,1.69,1.69,0,0,1,.53-1.31A2,2,0,0,1,38.84,89a4,4,0,0,1,.93.13v-.51a1.33,1.33,0,0,0-.16-.78.77.77,0,0,0-.61-.2,5.9,5.9,0,0,0-1.77.35V87a3,3,0,0,1,.92-.33,5.47,5.47,0,0,1,1.15-.12,2.19,2.19,0,0,1,1.52.44,1.82,1.82,0,0,1,.47,1.39v3.94Zm-1-.92a1.17,1.17,0,0,0,.79-.35V90a2.3,2.3,0,0,0-.62-.07.67.67,0,0,0-.54.2.81.81,0,0,0-.19.59.82.82,0,0,0,.15.52A.49.49,0,0,0,39,91.43Z" style="fill:#232f3e"/><path d="M42.28,92.35V91.28l2.49-3.4h-2.4V86.72h4.14v1.07L44,91.19h2.54v1.16Z" style="fill:#232f3e"/><path d="M49.79,92.49A2.3,2.3,0,0,1,48,91.72a4,4,0,0,1,0-4.37,2.6,2.6,0,0,1,3.69,0,4,4,0,0,1,0,4.37A2.31,2.31,0,0,1,49.79,92.49Zm0-1.15a.67.67,0,0,0,.65-.43,4.79,4.79,0,0,0,0-2.74.69.69,0,0,0-1.29,0,4.79,4.79,0,0,0,0,2.74A.66.66,0,0,0,49.79,91.34Z" style="fill:#232f3e"/><path d="M56.55,92.35v-3.7a1.36,1.36,0,0,0-.14-.7.55.55,0,0,0-.5-.22,1.56,1.56,0,0,0-.81.26v4.36H53.44V86.72h1.35l.14.51a3.32,3.32,0,0,1,1.84-.65,1.35,1.35,0,0,1,1.07.42,1.83,1.83,0,0,1,.36,1.22v4.13Z" style="fill:#232f3e"/><path d="M23.42,106.35,22,103.52h-.65v2.83H19.66V98.72H22.3a2.42,2.42,0,0,1,1.76.65,2.31,2.31,0,0,1,.66,1.75,2.57,2.57,0,0,1-.33,1.33,2,2,0,0,1-.93.84l1.69,3.06Zm-2.11-4h.78a.87.87,0,0,0,.72-.31,1.57,1.57,0,0,0,.25-.94,1.52,1.52,0,0,0-.25-.93.85.85,0,0,0-.72-.32h-.78Z" style="fill:#232f3e"/><path d="M28.2,106.49a2.27,2.27,0,0,1-1.84-.77,3.95,3.95,0,0,1,0-4.37,2.58,2.58,0,0,1,3.68,0,4,4,0,0,1,0,4.37A2.29,2.29,0,0,1,28.2,106.49Zm0-1.15a.65.65,0,0,0,.64-.43,4.79,4.79,0,0,0,0-2.74.65.65,0,0,0-.64-.44.67.67,0,0,0-.65.44,5,5,0,0,0,0,2.74A.67.67,0,0,0,28.2,105.34Z" style="fill:#232f3e"/><path d="M35.11,106.35l-.13-.51a3.15,3.15,0,0,1-1.78.65,1.25,1.25,0,0,1-1-.43,2,2,0,0,1-.35-1.24v-4.1h1.66v3.62a1.61,1.61,0,0,0,.13.77.46.46,0,0,0,.44.23,1.4,1.4,0,0,0,.76-.25v-4.37h1.65v5.63Z" style="fill:#232f3e"/><path d="M40.92,106.2a3.47,3.47,0,0,1-1.23.22,1.47,1.47,0,0,1-1.72-1.7v-2.9h-.74v-.92l.79-.15.24-1.54h1.36v1.51H40.9v1.1H39.62v2.77a.79.79,0,0,0,.14.52.7.7,0,0,0,.53.16,2.86,2.86,0,0,0,.63-.08Z" style="fill:#232f3e"/><path d="M43,103.92a1.66,1.66,0,0,0,.36,1.12,1.45,1.45,0,0,0,1.06.33,3.26,3.26,0,0,0,.68-.09,5.54,5.54,0,0,0,.8-.21v1a2.77,2.77,0,0,1-.83.31,4.77,4.77,0,0,1-1,.11c-1.72,0-2.58-1-2.58-2.95a3.32,3.32,0,0,1,.64-2.2,2.22,2.22,0,0,1,1.82-.76c1.37,0,2.05.76,2.05,2.29a4.32,4.32,0,0,1-.12,1Zm.91-2.32c-.58,0-.88.46-.91,1.37h1.61v-.25a1.68,1.68,0,0,0-.17-.86A.59.59,0,0,0,43.93,101.6Z" style="fill:#232f3e"/><path d="M49.58,105a5.42,5.42,0,0,0,1.81.34,1.25,1.25,0,0,0,.92-.32,1.35,1.35,0,0,0,.31-.94,1.19,1.19,0,0,0-.35-1,1.66,1.66,0,0,0-1.1-.3,9.74,9.74,0,0,0-1.31.11V102l.19-3.26H54v1.22H51.39l-.11,1.82a4.17,4.17,0,0,1,.8-.08,2.21,2.21,0,0,1,1.17.3,2.07,2.07,0,0,1,.75.83,2.6,2.6,0,0,1,.27,1.19,2.5,2.5,0,0,1-.35,1.32,2.31,2.31,0,0,1-1,.87,3.09,3.09,0,0,1-1.39.3,5.6,5.6,0,0,1-1-.09,5,5,0,0,1-1-.31Z" style="fill:#232f3e"/><path d="M57.25,106.49a4.49,4.49,0,0,1-1.79-.39V105a5.4,5.4,0,0,0,.86.25,3.47,3.47,0,0,0,.78.1,1.12,1.12,0,0,0,1.28-1.25Q58.38,103,57,103a3.44,3.44,0,0,0-.65.07v-.94l1.73-2.16H55.55V98.72h4.17v1.12L58,101.93a2.21,2.21,0,0,1,1.45.65A2,2,0,0,1,60,104a2.26,2.26,0,0,1-.74,1.79A2.93,2.93,0,0,1,57.25,106.49Z" style="fill:#232f3e"/></g><g id="ICONS_-_EDIT" data-name="ICONS - EDIT"><path d="M31.61,44.48a10.3,10.3,0,0,0,3.1.58,2.86,2.86,0,0,0,1.89-.56,2,2,0,0,0,.66-1.62,2.09,2.09,0,0,0-.61-1.68,3.15,3.15,0,0,0-2-.52,23.85,23.85,0,0,0-2.52.16V39.76l.31-4.87h6v1.34H33.78l-.22,3.31a9.11,9.11,0,0,1,1.62-.17,3.86,3.86,0,0,1,2.75.93,3.32,3.32,0,0,1,1,2.56,3.25,3.25,0,0,1-1.16,2.59,4.58,4.58,0,0,1-3.05,1,7.57,7.57,0,0,1-3.11-.65Z" style="fill:#fff"/><path d="M44.52,39.73h.32a3.63,3.63,0,0,1,2.56.87,3,3,0,0,1,1,2.34,3.15,3.15,0,0,1-1.15,2.55,4.73,4.73,0,0,1-3.09,1,7.62,7.62,0,0,1-3-.65v-1.3a9.9,9.9,0,0,0,3,.58A2.92,2.92,0,0,0,46,44.51a2,2,0,0,0,.67-1.58c0-1.32-.83-2-2.5-2a13.3,13.3,0,0,0-1.55.08V40l3.43-3.73H41.24V34.89h6.64v1.29Z" style="fill:#fff"/><path d="M40,58.19l-.5-.29a31.29,31.29,0,0,0-10-3.82c-2-.36-8.49-1.9-8.49-6.6,0-2,.71-3.35,1.87-5.35s2.62-4.5,2.62-8a14.14,14.14,0,0,0-2.23-7.58L22.88,26l2.31-2.85.74.41a13.26,13.26,0,0,0,6.43,1.73,12,12,0,0,0,7.07-2.18l.57-.39.57.39a12,12,0,0,0,7.07,2.18,13.26,13.26,0,0,0,6.43-1.73l.74-.41L57.12,26l-.38.61a14.14,14.14,0,0,0-2.23,7.58c0,3.45,1.39,5.84,2.62,8S59,45.46,59,47.48c0,4.7-6.5,6.24-8.49,6.6a31.29,31.29,0,0,0-10,3.82Zm-14.68-32a15.94,15.94,0,0,1,2.17,8,16.85,16.85,0,0,1-2.89,9C23.55,45,23,46,23,47.48c0,3.23,5.7,4.42,6.84,4.63A33.09,33.09,0,0,1,40,55.88a33.09,33.09,0,0,1,10.16-3.77C51.3,51.9,57,50.71,57,47.48c0-1.51-.55-2.53-1.6-4.34a16.85,16.85,0,0,1-2.89-9,15.94,15.94,0,0,1,2.17-8l-.38-.47a15.09,15.09,0,0,1-6.66,1.59A14.15,14.15,0,0,1,40,25.12a14.15,14.15,0,0,1-7.64,2.16,15.09,15.09,0,0,1-6.66-1.59Z" style="fill:#fff"/><path d="M40,64a1,1,0,0,1-.61-.21A28.73,28.73,0,0,0,28.6,59C20.71,57.58,16,53.27,16,47.48a14.63,14.63,0,0,1,2.55-7.86c1-1.79,1.94-3.34,1.94-5.44A10.26,10.26,0,0,0,17,26.85a1,1,0,0,1-.36-.67,1,1,0,0,1,.22-.74c.06-.07,5.64-6.83,6.91-8.58a1,1,0,0,1,.75-.41,1,1,0,0,1,.79.31,9.9,9.9,0,0,0,7.05,3.52c2.68,0,4.79-1.2,6.85-3.89a1,1,0,0,1,1.58,0c2.06,2.69,4.17,3.89,6.85,3.89a9.9,9.9,0,0,0,7-3.52,1,1,0,0,1,.79-.31,1,1,0,0,1,.75.41c1.27,1.75,6.85,8.51,6.91,8.58a1,1,0,0,1,.22.74.94.94,0,0,1-.36.67,10.34,10.34,0,0,0-3.49,7.33c0,2.1.9,3.65,1.94,5.44A14.63,14.63,0,0,1,64,47.48c0,5.79-4.71,10.1-12.6,11.52a28.54,28.54,0,0,0-10.79,4.79A1,1,0,0,1,40,64ZM19,26a12,12,0,0,1,3.49,8.19c0,2.64-1.13,4.57-2.21,6.45S18,44.55,18,47.48c0,7,8.39,9.09,11,9.55a29.84,29.84,0,0,1,11,4.74A29.84,29.84,0,0,1,51,57c2.57-.46,11-2.52,11-9.55,0-2.93-1.11-4.84-2.28-6.85s-2.21-3.81-2.21-6.45A12,12,0,0,1,61,26c-1.25-1.53-4.16-5.07-5.69-7a11.42,11.42,0,0,1-7.67,3.32A9.79,9.79,0,0,1,40,18.58a9.79,9.79,0,0,1-7.64,3.7A11.42,11.42,0,0,1,24.69,19C23.16,20.92,20.25,24.46,19,26Z" style="fill:#fff"/></g></svg>