<svg xmlns="http://www.w3.org/2000/svg" width="80" height="115" viewBox="0 0 80 115"><title>architecture-product-card_Elastic_Load_Balancing</title><g id="CARDS"><rect x="1" y="1" width="78" height="78" style="fill:#232f3e"/><path d="M0,0V80H0v35H80V80h0V0ZM1,1H79V79H1Z" style="fill:#fff"/></g><g id="TEXT_-_EDIT" data-name="TEXT - EDIT"><path d="M12.37,92.35V84.72h4.54V85.9H14.06v1.95h2.29V89H14.06v2.15h2.85v1.18Z" style="fill:#232f3e"/><path d="M20.43,92.25a2.69,2.69,0,0,1-1,.16A1.4,1.4,0,0,1,18.39,92,1.54,1.54,0,0,1,18,90.92V84.21h1.65v6.54a.75.75,0,0,0,.08.4.36.36,0,0,0,.32.12,2.26,2.26,0,0,0,.35,0Z" style="fill:#232f3e"/><path d="M24.34,92.35l-.14-.51a1.49,1.49,0,0,1-.59.47,1.85,1.85,0,0,1-.78.18A1.56,1.56,0,0,1,21.65,92a1.66,1.66,0,0,1-.44-1.22,1.69,1.69,0,0,1,.53-1.31A2.07,2.07,0,0,1,23.18,89a4,4,0,0,1,.92.13v-.51a1.33,1.33,0,0,0-.16-.78.77.77,0,0,0-.61-.2,5.9,5.9,0,0,0-1.77.35V87a3,3,0,0,1,.92-.33,5.47,5.47,0,0,1,1.15-.12,2.19,2.19,0,0,1,1.52.44,1.82,1.82,0,0,1,.47,1.39v3.94Zm-1-.92a1.17,1.17,0,0,0,.79-.35V90a2.25,2.25,0,0,0-.62-.07.67.67,0,0,0-.54.2.85.85,0,0,0-.19.59.82.82,0,0,0,.15.52A.5.5,0,0,0,23.31,91.43Z" style="fill:#232f3e"/><path d="M29,90.77c0-.25-.17-.46-.52-.62l-.72-.35a1.68,1.68,0,0,1-1.13-1.59A1.42,1.42,0,0,1,27.2,87a2.26,2.26,0,0,1,1.47-.45,3.57,3.57,0,0,1,1.53.35v1a5.56,5.56,0,0,0-.7-.19,3,3,0,0,0-.6-.07c-.52,0-.77.18-.77.54s.21.45.64.66l.72.34a1.9,1.9,0,0,1,.77.62,1.69,1.69,0,0,1,.24.93A1.56,1.56,0,0,1,30,92a2.31,2.31,0,0,1-1.49.46,3.79,3.79,0,0,1-1.81-.44v-1a5.45,5.45,0,0,0,1.61.35.86.86,0,0,0,.57-.17A.59.59,0,0,0,29,90.77Z" style="fill:#232f3e"/><path d="M34.46,92.2a3.47,3.47,0,0,1-1.23.22,1.47,1.47,0,0,1-1.72-1.7v-2.9h-.73V86.9l.78-.15.24-1.54h1.36v1.51h1.28v1.1H33.16v2.77a.73.73,0,0,0,.15.52.67.67,0,0,0,.53.16,2.85,2.85,0,0,0,.62-.08Z" style="fill:#232f3e"/><path d="M36.21,85.81a1.06,1.06,0,0,1-.71-.22.76.76,0,0,1-.27-.61.75.75,0,0,1,.27-.61,1.2,1.2,0,0,1,1.41,0,.74.74,0,0,1,.26.61.75.75,0,0,1-.26.61A1,1,0,0,1,36.21,85.81Zm-.83,6.54V86.72H37v5.63Z" style="fill:#232f3e"/><path d="M42.13,92.09a2.09,2.09,0,0,1-.64.26,3.59,3.59,0,0,1-.81.09,2.27,2.27,0,0,1-1.84-.73,3.24,3.24,0,0,1-.63-2.16,3.16,3.16,0,0,1,.67-2.16,2.34,2.34,0,0,1,1.87-.76A2.87,2.87,0,0,1,42.1,87v1a3.08,3.08,0,0,0-1-.19,1.06,1.06,0,0,0-.94.4,2.37,2.37,0,0,0-.28,1.29v.16a2.23,2.23,0,0,0,.28,1.28,1,1,0,0,0,.9.4,3.32,3.32,0,0,0,1.09-.21Z" style="fill:#232f3e"/><path d="M45.82,92.35V84.72h1.69v6.4h2.84v1.23Z" style="fill:#232f3e"/><path d="M53.35,92.49a2.29,2.29,0,0,1-1.84-.77,4,4,0,0,1,0-4.37,2.6,2.6,0,0,1,3.69,0,4,4,0,0,1,0,4.37A2.31,2.31,0,0,1,53.35,92.49Zm0-1.15a.67.67,0,0,0,.65-.43,4.79,4.79,0,0,0,0-2.74.69.69,0,0,0-1.29,0,4.79,4.79,0,0,0,0,2.74A.66.66,0,0,0,53.35,91.34Z" style="fill:#232f3e"/><path d="M59.91,92.35l-.15-.51a1.42,1.42,0,0,1-.59.47,1.81,1.81,0,0,1-.78.18A1.56,1.56,0,0,1,57.21,92a1.88,1.88,0,0,1,.1-2.53A2,2,0,0,1,58.74,89a4,4,0,0,1,.93.13v-.51a1.32,1.32,0,0,0-.17-.78.74.74,0,0,0-.6-.2,5.9,5.9,0,0,0-1.78.35V87A3.07,3.07,0,0,1,58,86.7a5.57,5.57,0,0,1,1.16-.12,2.21,2.21,0,0,1,1.52.44,1.82,1.82,0,0,1,.47,1.39v3.94Zm-1-.92a1.19,1.19,0,0,0,.8-.35V90a2.38,2.38,0,0,0-.63-.07.69.69,0,0,0-.54.2.85.85,0,0,0-.18.59.82.82,0,0,0,.15.52A.47.47,0,0,0,58.87,91.43Z" style="fill:#232f3e"/><path d="M65.84,92.35l-.14-.49a2,2,0,0,1-.63.43,1.86,1.86,0,0,1-.72.15,1.75,1.75,0,0,1-1.51-.75,3.65,3.65,0,0,1-.53-2.13,3.73,3.73,0,0,1,.55-2.19,1.76,1.76,0,0,1,1.53-.79,2.08,2.08,0,0,1,.63.13,2.35,2.35,0,0,1,.61.33V84.21h1.65v8.14Zm-.93-1a1.34,1.34,0,0,0,.72-.22V88a1.51,1.51,0,0,0-.79-.26.7.7,0,0,0-.68.44,3.42,3.42,0,0,0-.2,1.39,2.92,2.92,0,0,0,.23,1.36A.75.75,0,0,0,64.91,91.32Z" style="fill:#232f3e"/><path d="M17.07,106.35V98.72h2.52a2.39,2.39,0,0,1,1.63.56,1.87,1.87,0,0,1,.64,1.47,1.83,1.83,0,0,1-.25,1,1.55,1.55,0,0,1-.74.61,1.92,1.92,0,0,1,1,.68,2.15,2.15,0,0,1-.35,2.74,2.83,2.83,0,0,1-1.87.59Zm1.59-6.53v2.11h.67a.87.87,0,0,0,.67-.27,1.13,1.13,0,0,0,.24-.77,1.3,1.3,0,0,0-.21-.79.72.72,0,0,0-.59-.28Zm0,3.16v2.27h1a.9.9,0,0,0,.71-.29,1.28,1.28,0,0,0,.24-.84,1.19,1.19,0,0,0-.27-.84,1,1,0,0,0-.77-.3Z" style="fill:#232f3e"/><path d="M26.25,106.35l-.15-.51a1.42,1.42,0,0,1-.59.47,1.81,1.81,0,0,1-.78.18,1.56,1.56,0,0,1-1.18-.45,1.88,1.88,0,0,1,.1-2.53,2,2,0,0,1,1.43-.47,4,4,0,0,1,.93.13v-.51a1.32,1.32,0,0,0-.17-.78.74.74,0,0,0-.6-.2,5.9,5.9,0,0,0-1.78.35v-1a3.07,3.07,0,0,1,.92-.33,5.57,5.57,0,0,1,1.16-.12,2.21,2.21,0,0,1,1.52.44,1.82,1.82,0,0,1,.46,1.39v3.94Zm-1-.92a1.19,1.19,0,0,0,.8-.35V104a2.38,2.38,0,0,0-.63-.07.69.69,0,0,0-.54.2.85.85,0,0,0-.18.59.82.82,0,0,0,.15.52A.47.47,0,0,0,25.21,105.43Z" style="fill:#232f3e"/><path d="M31.32,106.25a2.69,2.69,0,0,1-1,.16,1.4,1.4,0,0,1-1.08-.37,1.54,1.54,0,0,1-.36-1.12V98.21h1.65v6.54a.75.75,0,0,0,.08.4.36.36,0,0,0,.32.12,2.26,2.26,0,0,0,.35,0Z" style="fill:#232f3e"/><path d="M35.23,106.35l-.14-.51a1.49,1.49,0,0,1-.59.47,1.85,1.85,0,0,1-.78.18,1.56,1.56,0,0,1-1.18-.45,1.66,1.66,0,0,1-.44-1.22,1.69,1.69,0,0,1,.53-1.31,2.07,2.07,0,0,1,1.44-.47,4,4,0,0,1,.92.13v-.51a1.33,1.33,0,0,0-.16-.78.77.77,0,0,0-.61-.2,5.9,5.9,0,0,0-1.77.35v-1a3.07,3.07,0,0,1,.92-.33,5.47,5.47,0,0,1,1.15-.12A2.19,2.19,0,0,1,36,101a1.82,1.82,0,0,1,.47,1.39v3.94Zm-1-.92a1.17,1.17,0,0,0,.79-.35V104a2.25,2.25,0,0,0-.62-.07.68.68,0,0,0-.54.2.85.85,0,0,0-.18.59.77.77,0,0,0,.15.52A.47.47,0,0,0,34.2,105.43Z" style="fill:#232f3e"/><path d="M41,106.35v-3.7a1.25,1.25,0,0,0-.15-.7.53.53,0,0,0-.49-.22,1.59,1.59,0,0,0-.82.26v4.36H37.91v-5.63h1.35l.13.51a3.35,3.35,0,0,1,1.84-.65,1.34,1.34,0,0,1,1.07.42,1.78,1.78,0,0,1,.37,1.22v4.13Z" style="fill:#232f3e"/><path d="M47.7,106.09a1.93,1.93,0,0,1-.63.26,3.59,3.59,0,0,1-.81.09,2.27,2.27,0,0,1-1.84-.73,3.24,3.24,0,0,1-.63-2.16,3.16,3.16,0,0,1,.67-2.16,2.34,2.34,0,0,1,1.87-.76,2.93,2.93,0,0,1,1.35.33v1a3.08,3.08,0,0,0-1-.19,1.06,1.06,0,0,0-.94.4,2.29,2.29,0,0,0-.28,1.29v.16a2.23,2.23,0,0,0,.28,1.28,1,1,0,0,0,.9.4,3.22,3.22,0,0,0,1.08-.21Z" style="fill:#232f3e"/><path d="M49.62,99.81a1.06,1.06,0,0,1-.71-.22.76.76,0,0,1-.27-.61.75.75,0,0,1,.27-.61,1.2,1.2,0,0,1,1.41,0,.77.77,0,0,1,.26.61.79.79,0,0,1-.26.61A1,1,0,0,1,49.62,99.81Zm-.83,6.54v-5.63h1.65v5.63Z" style="fill:#232f3e"/><path d="M55,106.35v-3.7a1.25,1.25,0,0,0-.15-.7.54.54,0,0,0-.49-.22,1.57,1.57,0,0,0-.82.26v4.36H51.9v-5.63h1.35l.13.51a3.35,3.35,0,0,1,1.84-.65,1.35,1.35,0,0,1,1.07.42,1.83,1.83,0,0,1,.37,1.22v4.13Z" style="fill:#232f3e"/><path d="M61,105.71a1.72,1.72,0,0,1-2.66-.21,3.46,3.46,0,0,1-.52-2,3.6,3.6,0,0,1,.53-2.11,1.71,1.71,0,0,1,1.47-.77,1.79,1.79,0,0,1,.7.17,2,2,0,0,1,.63.45l.12-.48h1.35V106c0,1.86-.85,2.79-2.56,2.79a3.86,3.86,0,0,1-1.83-.44v-1a5.45,5.45,0,0,0,1.61.35,1.48,1.48,0,0,0,.7-.13.72.72,0,0,0,.35-.44,3.19,3.19,0,0,0,.11-1Zm-.67-.6a1.29,1.29,0,0,0,.67-.22V102a1.35,1.35,0,0,0-.74-.27.63.63,0,0,0-.6.42,3.23,3.23,0,0,0-.19,1.3,3,3,0,0,0,.21,1.28A.7.7,0,0,0,60.29,105.11Z" style="fill:#232f3e"/></g><g id="ICONS_-_EDIT" data-name="ICONS - EDIT"><rect x="43.97" y="39" width="9.33" height="2" style="fill:#fff"/><rect x="40.69" y="28.11" width="13.51" height="2" transform="translate(-7.6 37.41) rotate(-40.11)" style="fill:#fff"/><rect x="46.45" y="44.14" width="2" height="13.51" transform="translate(-22.04 54.4) rotate(-49.9)" style="fill:#fff"/><path d="M30.27,55a15,15,0,1,1,15-15A15,15,0,0,1,30.27,55Zm0-28a13,13,0,1,0,13,13A13,13,0,0,0,30.27,27Z" style="fill:#fff"/><path d="M56.43,27.43a6.22,6.22,0,1,1,6.21-6.21A6.22,6.22,0,0,1,56.43,27.43Zm0-10.43a4.22,4.22,0,1,0,4.21,4.22A4.22,4.22,0,0,0,56.43,17Z" style="fill:#fff"/><path d="M56.43,65a6.22,6.22,0,1,1,6.21-6.22A6.23,6.23,0,0,1,56.43,65Zm0-10.43a4.22,4.22,0,1,0,4.21,4.21A4.22,4.22,0,0,0,56.43,54.57Z" style="fill:#fff"/><path d="M58.51,46.22A6.22,6.22,0,1,1,64.73,40,6.22,6.22,0,0,1,58.51,46.22Zm0-10.44A4.22,4.22,0,1,0,62.73,40,4.22,4.22,0,0,0,58.51,35.78Z" style="fill:#fff"/></g></svg>