<svg xmlns="http://www.w3.org/2000/svg" width="80" height="115" viewBox="0 0 80 115"><title>architecture-product-card_Amazon_GameSparks</title><g id="CARDS"><rect x="1" y="1" width="78" height="78" style="fill:#232f3e"/><path d="M0,0V80H0v35H80V80h0V0ZM1,1H79V79H1Z" style="fill:#fff"/></g><g id="TEXT_-_EDIT" data-name="TEXT - EDIT"><path d="M25.35,92.35l-.43-1.82h-2l-.42,1.82H20.72L23,84.72H24.9l2.31,7.63Zm-2.18-2.92h1.49l-.76-3.16Z" style="fill:#232f3e"/><path d="M34.06,92.35V88.64a1.32,1.32,0,0,0-.14-.69.5.5,0,0,0-.46-.22,1.56,1.56,0,0,0-.8.26.49.49,0,0,1,0,.12v4.24H31V88.64a1.33,1.33,0,0,0-.13-.69.51.51,0,0,0-.47-.22,1.55,1.55,0,0,0-.78.26v4.36H28V86.72h1.35l.13.51a3.29,3.29,0,0,1,1.81-.65,1.25,1.25,0,0,1,1.2.67,3.38,3.38,0,0,1,1.83-.67,1.3,1.3,0,0,1,1,.42,1.85,1.85,0,0,1,.36,1.22v4.13Z" style="fill:#232f3e"/><path d="M40,92.35l-.14-.51a1.56,1.56,0,0,1-.59.47,1.86,1.86,0,0,1-.79.18A1.57,1.57,0,0,1,37.31,92a1.65,1.65,0,0,1-.43-1.22,1.69,1.69,0,0,1,.53-1.31A2,2,0,0,1,38.84,89a4,4,0,0,1,.93.13v-.51a1.33,1.33,0,0,0-.16-.78.77.77,0,0,0-.61-.2,5.9,5.9,0,0,0-1.77.35V87a3,3,0,0,1,.91-.33,5.64,5.64,0,0,1,1.16-.12,2.19,2.19,0,0,1,1.52.44,1.82,1.82,0,0,1,.47,1.39v3.94Zm-1-.92a1.17,1.17,0,0,0,.79-.35V90a2.33,2.33,0,0,0-.63-.07.66.66,0,0,0-.53.2.81.81,0,0,0-.19.59.82.82,0,0,0,.15.52A.49.49,0,0,0,39,91.43Z" style="fill:#232f3e"/><path d="M42.28,92.35V91.28l2.49-3.4h-2.4V86.72h4.14v1.07L44,91.19h2.54v1.16Z" style="fill:#232f3e"/><path d="M49.79,92.49A2.29,2.29,0,0,1,48,91.72a4,4,0,0,1,0-4.37,2.6,2.6,0,0,1,3.69,0,4,4,0,0,1,0,4.37A2.31,2.31,0,0,1,49.79,92.49Zm0-1.15a.67.67,0,0,0,.65-.43,4.79,4.79,0,0,0,0-2.74.69.69,0,0,0-1.29,0,4.79,4.79,0,0,0,0,2.74A.66.66,0,0,0,49.79,91.34Z" style="fill:#232f3e"/><path d="M56.55,92.35v-3.7a1.36,1.36,0,0,0-.14-.7.55.55,0,0,0-.5-.22,1.62,1.62,0,0,0-.82.26v4.36H53.44V86.72h1.35l.14.51a3.32,3.32,0,0,1,1.84-.65,1.35,1.35,0,0,1,1.07.42,1.83,1.83,0,0,1,.36,1.22v4.13Z" style="fill:#232f3e"/><path d="M14.41,105.25a3.77,3.77,0,0,0,.57,0v-2H13.82v-1.11h2.7v3.77a4,4,0,0,1-1.13.42,6,6,0,0,1-1.35.15,3,3,0,0,1-2.44-1,4.32,4.32,0,0,1-.84-2.86,4.43,4.43,0,0,1,.89-3,3.29,3.29,0,0,1,2.6-1,4.11,4.11,0,0,1,2,.45v1.17a4.47,4.47,0,0,0-.94-.27,4.32,4.32,0,0,0-.89-.1,1.74,1.74,0,0,0-1.49.61,3.44,3.44,0,0,0-.45,2v.21a3.37,3.37,0,0,0,.44,2A1.72,1.72,0,0,0,14.41,105.25Z" style="fill:#232f3e"/><path d="M20.82,106.35l-.14-.51a1.52,1.52,0,0,1-.6.47,1.78,1.78,0,0,1-.78.18,1.56,1.56,0,0,1-1.18-.45,1.91,1.91,0,0,1,.1-2.53,2,2,0,0,1,1.43-.47,4,4,0,0,1,.93.13v-.51a1.33,1.33,0,0,0-.16-.78.77.77,0,0,0-.61-.2A5.9,5.9,0,0,0,18,102v-1a3,3,0,0,1,.91-.33,5.64,5.64,0,0,1,1.16-.12,2.21,2.21,0,0,1,1.52.44,1.82,1.82,0,0,1,.47,1.39v3.94Zm-1-.92a1.19,1.19,0,0,0,.8-.35V104a2.38,2.38,0,0,0-.63-.07.66.66,0,0,0-.53.2.81.81,0,0,0-.19.59.82.82,0,0,0,.15.52A.48.48,0,0,0,19.78,105.43Z" style="fill:#232f3e"/><path d="M29.57,106.35v-3.71a1.32,1.32,0,0,0-.14-.69.5.5,0,0,0-.47-.22,1.56,1.56,0,0,0-.79.26.49.49,0,0,1,0,.12v4.24H26.53v-3.71a1.32,1.32,0,0,0-.14-.69.49.49,0,0,0-.46-.22,1.5,1.5,0,0,0-.78.26v4.36H23.5v-5.63h1.34l.14.51a3.28,3.28,0,0,1,1.8-.65,1.26,1.26,0,0,1,1.21.67,3.38,3.38,0,0,1,1.83-.67,1.3,1.3,0,0,1,1,.42,1.85,1.85,0,0,1,.36,1.22v4.13Z" style="fill:#232f3e"/><path d="M33.83,103.92a1.77,1.77,0,0,0,.36,1.12,1.45,1.45,0,0,0,1.06.33,3.11,3.11,0,0,0,.68-.09,6,6,0,0,0,.81-.21v1a3,3,0,0,1-.84.31,4.67,4.67,0,0,1-1,.11c-1.72,0-2.58-1-2.58-2.95a3.37,3.37,0,0,1,.63-2.2,2.23,2.23,0,0,1,1.83-.76c1.36,0,2,.76,2,2.29a4.32,4.32,0,0,1-.12,1Zm.92-2.32c-.58,0-.89.46-.92,1.37h1.62v-.25a1.68,1.68,0,0,0-.17-.86A.59.59,0,0,0,34.75,101.6Z" style="fill:#232f3e"/><path d="M39.41,103a3.7,3.7,0,0,1-1.28-1,2,2,0,0,1-.38-1.23,2.06,2.06,0,0,1,.33-1.17,2.2,2.2,0,0,1,.93-.77,3.14,3.14,0,0,1,1.34-.27,4.88,4.88,0,0,1,1.89.39v1.17a5.44,5.44,0,0,0-1.72-.33,1.29,1.29,0,0,0-.8.23.78.78,0,0,0-.29.64.86.86,0,0,0,.19.56,2.2,2.2,0,0,0,.72.48L41,102a4.73,4.73,0,0,1,1,.62,1.76,1.76,0,0,1,.54.69,2.13,2.13,0,0,1,.18.92A2,2,0,0,1,42,105.9a3.12,3.12,0,0,1-2,.61,5.52,5.52,0,0,1-1.14-.12,4.06,4.06,0,0,1-1-.32v-1.15a7.45,7.45,0,0,0,1,.25,5.33,5.33,0,0,0,1,.11,1.31,1.31,0,0,0,.87-.25.94.94,0,0,0,.1-1.29,2.62,2.62,0,0,0-.71-.47Z" style="fill:#232f3e"/><path d="M43.83,108.61v-7.89h1.35l.12.48a2.46,2.46,0,0,1,.71-.45,2.16,2.16,0,0,1,.79-.17,1.75,1.75,0,0,1,1.51.74,3.68,3.68,0,0,1,.52,2.14,3.79,3.79,0,0,1-.55,2.2,1.74,1.74,0,0,1-1.51.78,2.18,2.18,0,0,1-.69-.12,2,2,0,0,1-.6-.35v2.64Zm2.42-6.91a1.27,1.27,0,0,0-.77.25v3.11a1.43,1.43,0,0,0,.79.26.73.73,0,0,0,.7-.42,3.22,3.22,0,0,0,.21-1.37,3.34,3.34,0,0,0-.21-1.41A.74.74,0,0,0,46.25,101.7Z" style="fill:#232f3e"/><path d="M52.88,106.35l-.14-.51a1.52,1.52,0,0,1-.6.47,1.78,1.78,0,0,1-.78.18,1.56,1.56,0,0,1-1.18-.45,1.91,1.91,0,0,1,.1-2.53,2,2,0,0,1,1.43-.47,4,4,0,0,1,.93.13v-.51a1.42,1.42,0,0,0-.16-.78.77.77,0,0,0-.61-.2,5.9,5.9,0,0,0-1.77.35v-1a2.9,2.9,0,0,1,.91-.33,5.64,5.64,0,0,1,1.16-.12,2.21,2.21,0,0,1,1.52.44,1.82,1.82,0,0,1,.47,1.39v3.94Zm-1-.92a1.19,1.19,0,0,0,.8-.35V104a2.38,2.38,0,0,0-.63-.07.66.66,0,0,0-.53.2.81.81,0,0,0-.19.59.82.82,0,0,0,.15.52A.47.47,0,0,0,51.84,105.43Z" style="fill:#232f3e"/><path d="M55.55,106.35v-5.63H56.9l.18.73a2.64,2.64,0,0,1,.72-.59,1.55,1.55,0,0,1,.75-.19,2.56,2.56,0,0,1,.39,0V102a5,5,0,0,0-.64,0,2.43,2.43,0,0,0-1.09.26v4.11Z" style="fill:#232f3e"/><path d="M59.69,106.35V98.21h1.62v5L63,100.72h1.83l-2,2.69L65,106.35H63.07l-1.76-2.6v2.6Z" style="fill:#232f3e"/><path d="M67.69,104.77c0-.25-.18-.46-.52-.62l-.72-.35a1.69,1.69,0,0,1-1.14-1.59,1.43,1.43,0,0,1,.56-1.18,2.26,2.26,0,0,1,1.47-.45,3.57,3.57,0,0,1,1.53.35v1a5.56,5.56,0,0,0-.7-.19,3,3,0,0,0-.6-.07q-.78,0-.78.54c0,.23.22.45.64.66l.73.34a1.9,1.9,0,0,1,.77.62,1.69,1.69,0,0,1,.24.93,1.57,1.57,0,0,1-.56,1.27,2.28,2.28,0,0,1-1.48.46,3.85,3.85,0,0,1-1.82-.44v-1a5.5,5.5,0,0,0,1.62.35.81.81,0,0,0,.56-.17A.57.57,0,0,0,67.69,104.77Z" style="fill:#232f3e"/></g><g id="ICONS_-_EDIT" data-name="ICONS - EDIT"><path d="M40,59.92a23.66,23.66,0,0,1-6-.85A18.38,18.38,0,0,1,31.08,58a20.79,20.79,0,0,1,2.08-38.7l.63,1.89a18.8,18.8,0,0,0-1.86,35,16.11,16.11,0,0,0,2.57,1,21.64,21.64,0,0,0,5.47.79c10.56,0,18.43-7.79,19.13-19,0,0,.06-.79,0-1.75h-5.4l-1.57,3h1.91a1,1,0,0,1,.75.34,1,1,0,0,1,.24.78c-.85,7-7.63,12.75-15.11,12.75h-.21a4.87,4.87,0,0,1-.85,0A19.1,19.1,0,0,1,34,52.89a15,15,0,0,1-3.06-26l1.18,1.62A13,13,0,0,0,34.75,51a17.45,17.45,0,0,0,4.39,1,3.92,3.92,0,0,0,.58,0H40c6.09,0,11.65-4.33,12.93-9.87H50.53a1,1,0,0,1-.89-1.46l2.62-5a1,1,0,0,1,.89-.53h7a1,1,0,0,1,1,.94,23.84,23.84,0,0,1,0,2.94C60.34,51.16,51.45,59.92,40,59.92Z" style="fill:#fff"/><path d="M43.84,50,42,49.18l5.44-12H39.27a1,1,0,0,1-.92-1.39l7.72-18.61H39l-6,23h8.84a1,1,0,0,1,.79.39,1,1,0,0,1,.17.87c0,.06-1.54,5.61-2.24,8.47l-1.94-.48c.49-2,1.41-5.43,1.91-7.25H31.72a1,1,0,0,1-1-1.26l6.54-25a1,1,0,0,1,1-.74h9.31a1,1,0,0,1,.83.44,1,1,0,0,1,.09.94L40.77,35.22H49a1,1,0,0,1,.89,1.45l-.08.15Z" style="fill:#fff"/><path d="M35.42,61.3a18.65,18.65,0,0,0,2.62.12l-2.95,3.74Z" style="fill:#232f3e"/><path d="M34.45,66.78l.52-6.1.56.13a19.51,19.51,0,0,0,2.49.11l1.09-.05Zm1.43-4.93-.15,1.69L37,61.91C36.63,61.9,36.21,61.88,35.88,61.85Z" style="fill:#fff"/></g></svg>