<svg xmlns="http://www.w3.org/2000/svg" width="80" height="115" viewBox="0 0 80 115"><title>architecture-product-card_AWS_Data_Pipeline</title><g id="CARDS"><rect x="1" y="1" width="78" height="78" style="fill:#232f3e"/><path d="M0,0V80H0v35H80V80h0V0ZM1,1H79V79H1Z" style="fill:#fff"/></g><g id="TEXT_-_EDIT" data-name="TEXT - EDIT"><path d="M21.33,92.35l-.44-1.82h-2l-.42,1.82H16.7L19,84.72h1.87l2.3,7.63Zm-2.18-2.92h1.49l-.76-3.16Z" style="fill:#232f3e"/><path d="M28.53,92.35l-.94-5.63-.89,5.63H24.83l-1.78-7.63h1.7l1.06,6.06L26.72,85h1.83l.94,5.65,1-6h1.66L30.4,92.35Z" style="fill:#232f3e"/><path d="M34.48,89a3.7,3.7,0,0,1-1.28-1,2,2,0,0,1-.38-1.23,2,2,0,0,1,.34-1.17,2.11,2.11,0,0,1,.92-.77,3.18,3.18,0,0,1,1.34-.27,4.85,4.85,0,0,1,1.89.39v1.17a5.44,5.44,0,0,0-1.72-.33,1.24,1.24,0,0,0-.79.23.75.75,0,0,0-.29.64.86.86,0,0,0,.18.56,2.32,2.32,0,0,0,.72.48l.65.32a4.73,4.73,0,0,1,1,.62,1.89,1.89,0,0,1,.55.69,2.29,2.29,0,0,1,.17.92A2,2,0,0,1,37,91.9a3.1,3.1,0,0,1-2,.61,5.52,5.52,0,0,1-1.14-.12,4.06,4.06,0,0,1-1-.32V90.92a7.85,7.85,0,0,0,1,.25,5.33,5.33,0,0,0,1,.11,1.34,1.34,0,0,0,.88-.25.86.86,0,0,0,.3-.71.84.84,0,0,0-.21-.58,2.47,2.47,0,0,0-.71-.47Z" style="fill:#232f3e"/><path d="M41.55,92.35V84.72h2.52a2.9,2.9,0,0,1,2.36,1,4.33,4.33,0,0,1,.81,2.84,4.42,4.42,0,0,1-.79,2.85,2.85,2.85,0,0,1-2.32,1Zm1.69-6.45v5.27H44a1.3,1.3,0,0,0,1.17-.62,3.68,3.68,0,0,0,.39-1.91v-.22a3.75,3.75,0,0,0-.38-1.91,1.3,1.3,0,0,0-1.19-.61Z" style="fill:#232f3e"/><path d="M51.46,92.35l-.15-.51a1.42,1.42,0,0,1-.59.47,1.81,1.81,0,0,1-.78.18A1.56,1.56,0,0,1,48.76,92a1.66,1.66,0,0,1-.44-1.22,1.69,1.69,0,0,1,.53-1.31A2.08,2.08,0,0,1,50.29,89a4,4,0,0,1,.93.13v-.51a1.32,1.32,0,0,0-.17-.78.74.74,0,0,0-.6-.2,5.9,5.9,0,0,0-1.78.35V87a3.07,3.07,0,0,1,.92-.33,5.57,5.57,0,0,1,1.16-.12,2.21,2.21,0,0,1,1.52.44,1.82,1.82,0,0,1,.46,1.39v3.94Zm-1-.92a1.19,1.19,0,0,0,.8-.35V90a2.38,2.38,0,0,0-.63-.07.69.69,0,0,0-.54.2.85.85,0,0,0-.18.59.82.82,0,0,0,.15.52A.47.47,0,0,0,50.42,91.43Z" style="fill:#232f3e"/><path d="M57.17,92.2a3.47,3.47,0,0,1-1.23.22,1.8,1.8,0,0,1-1.31-.4,1.77,1.77,0,0,1-.41-1.3v-2.9h-.74V86.9l.79-.15.24-1.54h1.36v1.51h1.27v1.1H55.87v2.77a.79.79,0,0,0,.14.52.69.69,0,0,0,.53.16,3,3,0,0,0,.63-.08Z" style="fill:#232f3e"/><path d="M61,92.35l-.14-.51a1.56,1.56,0,0,1-.59.47,1.86,1.86,0,0,1-.79.18A1.57,1.57,0,0,1,58.25,92a1.91,1.91,0,0,1,.1-2.53A2,2,0,0,1,59.78,89a4,4,0,0,1,.93.13v-.51a1.33,1.33,0,0,0-.16-.78.77.77,0,0,0-.61-.2,5.9,5.9,0,0,0-1.77.35V87a3,3,0,0,1,.91-.33,5.64,5.64,0,0,1,1.16-.12,2.21,2.21,0,0,1,1.52.44,1.82,1.82,0,0,1,.47,1.39v3.94Zm-1-.92a1.19,1.19,0,0,0,.8-.35V90a2.38,2.38,0,0,0-.63-.07.66.66,0,0,0-.53.2.81.81,0,0,0-.19.59.82.82,0,0,0,.15.52A.48.48,0,0,0,59.91,91.43Z" style="fill:#232f3e"/><path d="M22.69,103.52v2.83H21V98.72h2.64a2.42,2.42,0,0,1,1.76.65,2.65,2.65,0,0,1,0,3.5,2.42,2.42,0,0,1-1.76.65Zm0-1.15h.78a.87.87,0,0,0,.72-.31,1.57,1.57,0,0,0,.25-.94,1.52,1.52,0,0,0-.25-.93.85.85,0,0,0-.72-.32h-.78Z" style="fill:#232f3e"/><path d="M28.18,99.81a1.06,1.06,0,0,1-.71-.22.75.75,0,0,1-.26-.61.74.74,0,0,1,.26-.61,1.2,1.2,0,0,1,1.41,0,.75.75,0,0,1,.27.61.76.76,0,0,1-.27.61A1,1,0,0,1,28.18,99.81Zm-.83,6.54v-5.63H29v5.63Z" style="fill:#232f3e"/><path d="M30.46,108.61v-7.89h1.35l.12.48a2.46,2.46,0,0,1,.71-.45,2.07,2.07,0,0,1,.78-.17,1.74,1.74,0,0,1,1.51.74,3.67,3.67,0,0,1,.53,2.14,3.87,3.87,0,0,1-.55,2.2,1.75,1.75,0,0,1-1.51.78,2.09,2.09,0,0,1-.69-.12,2,2,0,0,1-.6-.35v2.64Zm2.42-6.91a1.27,1.27,0,0,0-.77.25v3.11a1.42,1.42,0,0,0,.78.26.73.73,0,0,0,.71-.42,3.22,3.22,0,0,0,.21-1.37,3.34,3.34,0,0,0-.21-1.41A.74.74,0,0,0,32.88,101.7Z" style="fill:#232f3e"/><path d="M37.82,103.92a1.66,1.66,0,0,0,.36,1.12,1.45,1.45,0,0,0,1.06.33,3.18,3.18,0,0,0,.68-.09,5.54,5.54,0,0,0,.8-.21v1a2.77,2.77,0,0,1-.83.31,4.77,4.77,0,0,1-1,.11c-1.71,0-2.57-1-2.57-2.95a3.37,3.37,0,0,1,.63-2.2,2.22,2.22,0,0,1,1.82-.76c1.37,0,2,.76,2,2.29a4.32,4.32,0,0,1-.12,1Zm.91-2.32c-.57,0-.88.46-.91,1.37h1.61v-.25a1.7,1.7,0,0,0-.16-.86A.61.61,0,0,0,38.73,101.6Z" style="fill:#232f3e"/><path d="M44.36,106.25a2.69,2.69,0,0,1-1,.16,1.43,1.43,0,0,1-1.08-.37,1.54,1.54,0,0,1-.36-1.12V98.21h1.65v6.54a.75.75,0,0,0,.08.4.37.37,0,0,0,.32.12,2.14,2.14,0,0,0,.35,0Z" style="fill:#232f3e"/><path d="M46.24,99.81a1.06,1.06,0,0,1-.71-.22.75.75,0,0,1-.26-.61.74.74,0,0,1,.26-.61,1.2,1.2,0,0,1,1.41,0,.74.74,0,0,1,.26.61.75.75,0,0,1-.26.61A1,1,0,0,1,46.24,99.81Zm-.83,6.54v-5.63h1.65v5.63Z" style="fill:#232f3e"/><path d="M51.63,106.35v-3.7a1.25,1.25,0,0,0-.15-.7.53.53,0,0,0-.49-.22,1.59,1.59,0,0,0-.82.26v4.36H48.52v-5.63h1.35l.13.51a3.35,3.35,0,0,1,1.84-.65,1.35,1.35,0,0,1,1.07.42,1.83,1.83,0,0,1,.37,1.22v4.13Z" style="fill:#232f3e"/><path d="M55.89,103.92a1.77,1.77,0,0,0,.36,1.12,1.45,1.45,0,0,0,1.06.33,3.18,3.18,0,0,0,.68-.09,5.54,5.54,0,0,0,.8-.21v1a2.77,2.77,0,0,1-.83.31,4.75,4.75,0,0,1-1,.11c-1.72,0-2.58-1-2.58-2.95a3.37,3.37,0,0,1,.63-2.2,2.22,2.22,0,0,1,1.82-.76c1.37,0,2,.76,2,2.29a4.32,4.32,0,0,1-.12,1Zm.92-2.32c-.58,0-.89.46-.92,1.37h1.62v-.25a1.68,1.68,0,0,0-.17-.86A.6.6,0,0,0,56.81,101.6Z" style="fill:#232f3e"/></g><g id="ICONS_-_EDIT" data-name="ICONS - EDIT"><path d="M44,23H42v-.7c0-1.46-.9-2.64-2-2.64s-2,1.18-2,2.64V23H36v-.7c0-2.56,1.8-4.64,4-4.64s4,2.08,4,4.64Z" style="fill:#fff"/><path d="M43,36H37a1,1,0,0,1-1-1V27h2v7h4V27h2v8A1,1,0,0,1,43,36Z" style="fill:#fff"/><rect x="22.96" y="57" width="34" height="2" style="fill:#fff"/><rect x="22.96" y="34" width="34" height="2" style="fill:#fff"/><rect x="22.96" y="52" width="33.97" height="2" style="fill:#fff"/><rect x="22.96" y="38" width="34" height="2" style="fill:#fff"/><path d="M20.61,62.36H18.39A3.35,3.35,0,0,1,15,59V33.67a3.35,3.35,0,0,1,3.35-3.34h2.22A3.35,3.35,0,0,1,24,33.67V59A3.35,3.35,0,0,1,20.61,62.36Zm-2.22-30A1.34,1.34,0,0,0,17,33.67V59a1.34,1.34,0,0,0,1.35,1.35h2.22A1.34,1.34,0,0,0,22,59V33.67a1.34,1.34,0,0,0-1.35-1.34Z" style="fill:#fff"/><path d="M61.6,62.36H59.32A3.37,3.37,0,0,1,56,59V33.69a3.37,3.37,0,0,1,3.36-3.36H61.6A3.37,3.37,0,0,1,65,33.69V59A3.37,3.37,0,0,1,61.6,62.36Zm-2.28-30A1.36,1.36,0,0,0,58,33.69V59a1.36,1.36,0,0,0,1.36,1.36H61.6A1.36,1.36,0,0,0,63,59V33.69a1.36,1.36,0,0,0-1.36-1.36Z" style="fill:#fff"/><path d="M48,29A3.51,3.51,0,0,1,45.57,28H34.5A3.47,3.47,0,0,1,32,29a3.85,3.85,0,0,1-3.67-4A3.85,3.85,0,0,1,32,21a3.5,3.5,0,0,1,2.4,1h11.2A3.5,3.5,0,0,1,48,21a3.85,3.85,0,0,1,3.67,4A3.85,3.85,0,0,1,48,29ZM34.05,26H46a1,1,0,0,1,.79.39A1.57,1.57,0,0,0,48,27a1.86,1.86,0,0,0,1.67-2A1.86,1.86,0,0,0,48,23a1.54,1.54,0,0,0-1.19.61,1,1,0,0,1-.78.37H34a1,1,0,0,1-.77-.37A1.54,1.54,0,0,0,32,23a1.86,1.86,0,0,0-1.67,2A1.86,1.86,0,0,0,32,27a1.56,1.56,0,0,0,1.22-.66A1,1,0,0,1,34.05,26Z" style="fill:#fff"/><rect x="16.04" y="36" width="6.92" height="2" style="fill:#fff"/><rect x="16.04" y="55" width="6.92" height="2" style="fill:#fff"/><rect x="56.96" y="36" width="7" height="2" style="fill:#fff"/><rect x="56.96" y="55" width="7" height="2" style="fill:#fff"/></g></svg>