<svg xmlns="http://www.w3.org/2000/svg" xmlns:xlink="http://www.w3.org/1999/xlink" width="80" height="130" viewBox="0 0 80 130"><defs><clipPath id="clip-path"><rect x="15" y="15" width="50" height="50" style="fill:none"/></clipPath><clipPath id="clip-path-2"><rect x="15" y="15" width="17" height="50" style="fill:none"/></clipPath></defs><title>Amazon_Kinesis_Data_Firehose</title><g id="CARDS"><rect x="1" y="1" width="78" height="78" style="fill:#232f3e"/><path d="M0,0V80H0v50H80V80h0V0ZM1,1H79V79H1Z" style="fill:#fff"/></g><g id="TEXT_-_EDIT" data-name="TEXT - EDIT"><path d="M25.35,92.35l-.43-1.82h-2l-.42,1.82H20.72L23,84.72H24.9l2.31,7.63Zm-2.18-2.92h1.49l-.76-3.16Z" style="fill:#232f3e"/><path d="M34.06,92.35V88.64a1.32,1.32,0,0,0-.14-.69.5.5,0,0,0-.46-.22,1.56,1.56,0,0,0-.8.26.49.49,0,0,1,0,.12v4.24H31V88.64a1.33,1.33,0,0,0-.13-.69.51.51,0,0,0-.47-.22,1.55,1.55,0,0,0-.78.26v4.36H28V86.72h1.35l.13.51a3.29,3.29,0,0,1,1.81-.65,1.25,1.25,0,0,1,1.2.67,3.38,3.38,0,0,1,1.83-.67,1.3,1.3,0,0,1,1,.42,1.85,1.85,0,0,1,.36,1.22v4.13Z" style="fill:#232f3e"/><path d="M40,92.35l-.14-.51a1.56,1.56,0,0,1-.59.47,1.86,1.86,0,0,1-.79.18A1.57,1.57,0,0,1,37.31,92a1.65,1.65,0,0,1-.43-1.22,1.69,1.69,0,0,1,.53-1.31A2,2,0,0,1,38.84,89a4,4,0,0,1,.93.13v-.51a1.33,1.33,0,0,0-.16-.78.77.77,0,0,0-.61-.2,5.9,5.9,0,0,0-1.77.35V87a3,3,0,0,1,.91-.33,5.64,5.64,0,0,1,1.16-.12,2.19,2.19,0,0,1,1.52.44,1.82,1.82,0,0,1,.47,1.39v3.94Zm-1-.92a1.17,1.17,0,0,0,.79-.35V90a2.33,2.33,0,0,0-.63-.07.66.66,0,0,0-.53.2.81.81,0,0,0-.19.59.82.82,0,0,0,.15.52A.49.49,0,0,0,39,91.43Z" style="fill:#232f3e"/><path d="M42.28,92.35V91.28l2.49-3.4h-2.4V86.72h4.14v1.07L44,91.19h2.54v1.16Z" style="fill:#232f3e"/><path d="M49.79,92.49A2.29,2.29,0,0,1,48,91.72a4,4,0,0,1,0-4.37,2.6,2.6,0,0,1,3.69,0,4,4,0,0,1,0,4.37A2.31,2.31,0,0,1,49.79,92.49Zm0-1.15a.67.67,0,0,0,.65-.43,4.79,4.79,0,0,0,0-2.74.69.69,0,0,0-1.29,0,4.79,4.79,0,0,0,0,2.74A.66.66,0,0,0,49.79,91.34Z" style="fill:#232f3e"/><path d="M56.55,92.35v-3.7a1.36,1.36,0,0,0-.14-.7.55.55,0,0,0-.5-.22,1.62,1.62,0,0,0-.82.26v4.36H53.44V86.72h1.35l.14.51a3.32,3.32,0,0,1,1.84-.65,1.35,1.35,0,0,1,1.07.42,1.83,1.83,0,0,1,.36,1.22v4.13Z" style="fill:#232f3e"/><path d="M11.5,106.35V98.72h1.68v3.39l2.28-3.39h1.87l-2.64,3.57,2.85,4.06h-2l-2.36-3.69v3.69Z" style="fill:#232f3e"/><path d="M19.1,99.81a1,1,0,0,1-.71-.22.76.76,0,0,1-.27-.61.75.75,0,0,1,.27-.61,1.2,1.2,0,0,1,1.41,0,.77.77,0,0,1,.26.61.79.79,0,0,1-.26.61A1,1,0,0,1,19.1,99.81Zm-.83,6.54v-5.63h1.65v5.63Z" style="fill:#232f3e"/><path d="M24.48,106.35v-3.7a1.36,1.36,0,0,0-.14-.7.55.55,0,0,0-.5-.22A1.59,1.59,0,0,0,23,102v4.36H21.37v-5.63h1.35l.14.51a3.32,3.32,0,0,1,1.84-.65,1.35,1.35,0,0,1,1.07.42,1.83,1.83,0,0,1,.36,1.22v4.13Z" style="fill:#232f3e"/><path d="M28.75,103.92a1.66,1.66,0,0,0,.36,1.12,1.45,1.45,0,0,0,1.06.33,3.26,3.26,0,0,0,.68-.09,5.54,5.54,0,0,0,.8-.21v1a2.77,2.77,0,0,1-.83.31,4.77,4.77,0,0,1-1,.11c-1.72,0-2.58-1-2.58-2.95a3.32,3.32,0,0,1,.64-2.2,2.22,2.22,0,0,1,1.82-.76c1.37,0,2.05.76,2.05,2.29a4.32,4.32,0,0,1-.12,1Zm.91-2.32c-.58,0-.88.46-.91,1.37h1.61v-.25a1.68,1.68,0,0,0-.17-.86A.59.59,0,0,0,29.66,101.6Z" style="fill:#232f3e"/><path d="M34.89,104.77c0-.25-.17-.46-.52-.62l-.72-.35a1.7,1.7,0,0,1-1.13-1.59,1.42,1.42,0,0,1,.55-1.18,2.26,2.26,0,0,1,1.47-.45,3.57,3.57,0,0,1,1.53.35v1a5.13,5.13,0,0,0-.7-.19,3,3,0,0,0-.6-.07c-.51,0-.77.18-.77.54s.21.45.64.66l.72.34a1.9,1.9,0,0,1,.77.62,1.69,1.69,0,0,1,.24.93,1.56,1.56,0,0,1-.55,1.27,2.28,2.28,0,0,1-1.48.46,3.8,3.8,0,0,1-1.82-.44v-1a5.45,5.45,0,0,0,1.61.35.86.86,0,0,0,.57-.17A.56.56,0,0,0,34.89,104.77Z" style="fill:#232f3e"/><path d="M38.17,99.81a1,1,0,0,1-.71-.22.76.76,0,0,1-.27-.61.75.75,0,0,1,.27-.61,1.2,1.2,0,0,1,1.41,0,.77.77,0,0,1,.26.61.79.79,0,0,1-.26.61A1,1,0,0,1,38.17,99.81Zm-.83,6.54v-5.63H39v5.63Z" style="fill:#232f3e"/><path d="M42.45,104.77c0-.25-.18-.46-.52-.62l-.73-.35a1.7,1.7,0,0,1-1.13-1.59,1.43,1.43,0,0,1,.56-1.18,2.26,2.26,0,0,1,1.47-.45,3.57,3.57,0,0,1,1.53.35v1a5.56,5.56,0,0,0-.7-.19,3,3,0,0,0-.61-.07c-.51,0-.77.18-.77.54s.22.45.64.66l.73.34a1.9,1.9,0,0,1,.77.62,1.69,1.69,0,0,1,.24.93,1.57,1.57,0,0,1-.56,1.27,2.28,2.28,0,0,1-1.48.46,3.83,3.83,0,0,1-1.82-.44v-1a5.44,5.44,0,0,0,1.62.35.85.85,0,0,0,.56-.17A.57.57,0,0,0,42.45,104.77Z" style="fill:#232f3e"/><path d="M47.5,106.35V98.72H50a2.9,2.9,0,0,1,2.36,1,4.33,4.33,0,0,1,.81,2.84,4.42,4.42,0,0,1-.79,2.85,2.85,2.85,0,0,1-2.32,1Zm1.69-6.45v5.27h.71a1.3,1.3,0,0,0,1.17-.62,3.68,3.68,0,0,0,.39-1.91v-.22a3.75,3.75,0,0,0-.38-1.91,1.3,1.3,0,0,0-1.19-.61Z" style="fill:#232f3e"/><path d="M57.41,106.35l-.15-.51a1.42,1.42,0,0,1-.59.47,1.78,1.78,0,0,1-.78.18,1.56,1.56,0,0,1-1.18-.45,1.91,1.91,0,0,1,.1-2.53,2,2,0,0,1,1.43-.47,4,4,0,0,1,.93.13v-.51a1.32,1.32,0,0,0-.17-.78.74.74,0,0,0-.6-.2,5.9,5.9,0,0,0-1.78.35v-1a3.07,3.07,0,0,1,.92-.33,5.57,5.57,0,0,1,1.16-.12,2.21,2.21,0,0,1,1.52.44,1.82,1.82,0,0,1,.47,1.39v3.94Zm-1-.92a1.19,1.19,0,0,0,.8-.35V104a2.38,2.38,0,0,0-.63-.07.69.69,0,0,0-.54.2.85.85,0,0,0-.18.59.82.82,0,0,0,.15.52A.47.47,0,0,0,56.37,105.43Z" style="fill:#232f3e"/><path d="M63.12,106.2a3.47,3.47,0,0,1-1.23.22,1.8,1.8,0,0,1-1.31-.4,1.77,1.77,0,0,1-.41-1.3v-2.9h-.74v-.92l.79-.15.24-1.54h1.36v1.51h1.27v1.1H61.82v2.77a.79.79,0,0,0,.14.52.7.7,0,0,0,.53.16,2.94,2.94,0,0,0,.63-.08Z" style="fill:#232f3e"/><path d="M66.9,106.35l-.14-.51a1.56,1.56,0,0,1-.59.47,1.86,1.86,0,0,1-.79.18A1.57,1.57,0,0,1,64.2,106a1.65,1.65,0,0,1-.43-1.22,1.69,1.69,0,0,1,.53-1.31,2,2,0,0,1,1.43-.47,4,4,0,0,1,.93.13v-.51a1.33,1.33,0,0,0-.16-.78.77.77,0,0,0-.61-.2,5.9,5.9,0,0,0-1.77.35v-1a3,3,0,0,1,.91-.33,5.64,5.64,0,0,1,1.16-.12,2.19,2.19,0,0,1,1.52.44,1.82,1.82,0,0,1,.47,1.39v3.94Zm-1-.92a1.17,1.17,0,0,0,.79-.35V104a2.33,2.33,0,0,0-.63-.07.66.66,0,0,0-.53.2.81.81,0,0,0-.19.59.82.82,0,0,0,.15.52A.49.49,0,0,0,65.87,105.43Z" style="fill:#232f3e"/><path d="M20.68,120.35v-7.63H25v1.18H22.37V116h2.08v1.17H22.37v3.22Z" style="fill:#232f3e"/><path d="M26.81,113.81a1.08,1.08,0,0,1-.71-.22.79.79,0,0,1-.26-.61.77.77,0,0,1,.26-.61,1,1,0,0,1,.71-.23,1,1,0,0,1,.7.23.75.75,0,0,1,.27.61.76.76,0,0,1-.27.61A1,1,0,0,1,26.81,113.81ZM26,120.35v-5.63h1.65v5.63Z" style="fill:#232f3e"/><path d="M29.09,120.35v-5.63h1.35l.18.73a2.5,2.5,0,0,1,.72-.59,1.52,1.52,0,0,1,.75-.19,2.56,2.56,0,0,1,.39,0V116a5,5,0,0,0-.64,0,2.47,2.47,0,0,0-1.1.26v4.11Z" style="fill:#232f3e"/><path d="M34.44,117.92A1.66,1.66,0,0,0,34.8,119a1.45,1.45,0,0,0,1.06.33,3.18,3.18,0,0,0,.68-.09,5.54,5.54,0,0,0,.8-.21v1a2.77,2.77,0,0,1-.83.31,4.77,4.77,0,0,1-1,.11c-1.72,0-2.57-1-2.57-2.95a3.37,3.37,0,0,1,.63-2.2,2.22,2.22,0,0,1,1.82-.76c1.37,0,2.05.76,2.05,2.29a4.32,4.32,0,0,1-.12,1Zm.91-2.32c-.57,0-.88.46-.91,1.37h1.61v-.25a1.59,1.59,0,0,0-.17-.86A.58.58,0,0,0,35.35,115.6Z" style="fill:#232f3e"/><path d="M41.69,120.35v-3.7a1.36,1.36,0,0,0-.14-.7.55.55,0,0,0-.5-.22,1.59,1.59,0,0,0-.82.26v4.36H38.58v-8.14h1.65v2.91a3.25,3.25,0,0,1,1.68-.54A1.35,1.35,0,0,1,43,115a1.83,1.83,0,0,1,.36,1.22v4.13Z" style="fill:#232f3e"/><path d="M47,120.49a2.27,2.27,0,0,1-1.84-.77,3.95,3.95,0,0,1,0-4.37,2.58,2.58,0,0,1,3.68,0,4,4,0,0,1,0,4.37A2.29,2.29,0,0,1,47,120.49Zm0-1.15a.65.65,0,0,0,.64-.43,4.79,4.79,0,0,0,0-2.74.65.65,0,0,0-.64-.44.67.67,0,0,0-.65.44,5,5,0,0,0,0,2.74A.67.67,0,0,0,47,119.34Z" style="fill:#232f3e"/><path d="M52.62,118.77c0-.25-.17-.46-.52-.62l-.72-.35a1.68,1.68,0,0,1-1.13-1.59A1.42,1.42,0,0,1,50.8,115a2.26,2.26,0,0,1,1.47-.45,3.57,3.57,0,0,1,1.53.35v1a5.56,5.56,0,0,0-.7-.19,3,3,0,0,0-.6-.07c-.52,0-.77.18-.77.54s.21.45.64.66l.72.34a1.9,1.9,0,0,1,.77.62,1.69,1.69,0,0,1,.24.93,1.56,1.56,0,0,1-.55,1.27,2.31,2.31,0,0,1-1.49.46,3.79,3.79,0,0,1-1.81-.44v-1a5.45,5.45,0,0,0,1.61.35.86.86,0,0,0,.57-.17A.59.59,0,0,0,52.62,118.77Z" style="fill:#232f3e"/><path d="M56.25,117.92a1.66,1.66,0,0,0,.36,1.12,1.43,1.43,0,0,0,1.06.33,3.26,3.26,0,0,0,.68-.09,5.9,5.9,0,0,0,.8-.21v1a2.88,2.88,0,0,1-.83.31,4.77,4.77,0,0,1-1,.11c-1.72,0-2.58-1-2.58-2.95a3.37,3.37,0,0,1,.63-2.2,2.24,2.24,0,0,1,1.83-.76c1.36,0,2,.76,2,2.29a4.32,4.32,0,0,1-.12,1Zm.91-2.32c-.58,0-.88.46-.91,1.37h1.61v-.25a1.68,1.68,0,0,0-.17-.86A.59.59,0,0,0,57.16,115.6Z" style="fill:#232f3e"/></g><g id="ICONS_-_EDIT" data-name="ICONS - EDIT"><g style="clip-path:url(#clip-path)"><path d="M40,50H35a1,1,0,0,1-1-1V31a1,1,0,0,1,1-1h5a1,1,0,0,1,1,1V49A1,1,0,0,1,40,50Zm-4-2h3V32H36Z" style="fill:#fff"/><path d="M40,47.67a1,1,0,0,1-1-1V33.33a1,1,0,0,1,.37-.78,1,1,0,0,1,.85-.19l12,2.66A1,1,0,0,1,53,36v8a1,1,0,0,1-.78,1l-12,2.66A.83.83,0,0,1,40,47.67Zm1-13.09V45.42L51,43.2V36.8Z" style="fill:#fff"/><path d="M55.05,38V36a30,30,0,0,0,15.44-3.86l1,1.72A32,32,0,0,1,55.05,38Z" style="fill:#fff"/><path d="M55.05,41V39a62.78,62.78,0,0,0,15.7-1.64l.5,1.94A64.93,64.93,0,0,1,55.05,41Z" style="fill:#fff"/><path d="M70.75,42.86A63.26,63.26,0,0,0,55.05,41V39a65.45,65.45,0,0,1,16.2,1.92Z" style="fill:#fff"/><path d="M70.47,48a28.85,28.85,0,0,0-15.42-4V42a30.93,30.93,0,0,1,16.48,4.33Z" style="fill:#fff"/></g><g style="clip-path:url(#clip-path-2)"><path d="M36.72,37.28c-10,0-18.74-2.49-24.55-7l1.23-1.58c5.46,4.25,13.74,6.59,23.32,6.59Z" style="fill:#fff"/><path d="M37.43,41.11c-5.87,0-16.93-.44-25-3.36l.68-1.88c7.78,2.82,18.57,3.24,24.31,3.24Z" style="fill:#fff"/><path d="M13.12,44.35l-.68-1.88c8.06-2.92,19.12-3.36,25-3.36v2C31.69,41.11,20.9,41.53,13.12,44.35Z" style="fill:#fff"/><path d="M38.22,34.07c-19.11,0-23.13-8.17-23.13-15,0-.22,0-4,0-4l2,0s0,3.83,0,4.06c0,5.94,3.67,13,21.13,13Z" style="fill:#fff"/><path d="M13.39,51.46l-1.22-1.58c5.82-4.48,14.54-7,24.55-7v2C27.15,44.93,18.86,47.25,13.39,51.46Z" style="fill:#fff"/><path d="M15.06,65.1c0-.14,0-.52,0-3.34,0-.41,0-.7,0-.76,0-6.78,4-14.86,23.13-14.86v2c-9.64,0-21.13,2.23-21.13,12.86,0,.06,0,.37,0,.79,0,.87,0,2.89,0,3.14Z" style="fill:#fff"/></g></g></svg>