<svg xmlns="http://www.w3.org/2000/svg" width="80" height="115" viewBox="0 0 80 115"><title>architecture-product-card_AWS_Trusted_Advisor</title><g id="CARDS"><rect x="1" y="1" width="78" height="78" style="fill:#232f3e"/><path d="M0,0V80H0v35H80V80h0V0ZM1,1H79V79H1Z" style="fill:#fff"/></g><g id="TEXT_-_EDIT" data-name="TEXT - EDIT"><path d="M14.69,92.35l-.43-1.82h-2l-.42,1.82H10.07l2.31-7.63h1.87l2.3,7.63Zm-2.18-2.92H14l-.76-3.16Z" style="fill:#232f3e"/><path d="M21.9,92.35,21,86.72l-.89,5.63H18.2l-1.78-7.63h1.7l1.06,6.06L20.09,85h1.83l.94,5.65,1-6h1.66l-1.78,7.63Z" style="fill:#232f3e"/><path d="M27.85,89a3.7,3.7,0,0,1-1.28-1,2,2,0,0,1-.38-1.23,2.06,2.06,0,0,1,.33-1.17,2.2,2.2,0,0,1,.93-.77,3.14,3.14,0,0,1,1.34-.27,4.88,4.88,0,0,1,1.89.39v1.17A5.44,5.44,0,0,0,29,85.79a1.29,1.29,0,0,0-.8.23.78.78,0,0,0-.29.64.86.86,0,0,0,.19.56,2.2,2.2,0,0,0,.72.48l.65.32a4.73,4.73,0,0,1,1,.62,1.76,1.76,0,0,1,.54.69,2.13,2.13,0,0,1,.18.92,2,2,0,0,1-.74,1.65,3.12,3.12,0,0,1-2,.61,5.52,5.52,0,0,1-1.14-.12,4.06,4.06,0,0,1-.95-.32V90.92a7.45,7.45,0,0,0,1,.25,5.33,5.33,0,0,0,1,.11,1.31,1.31,0,0,0,.87-.25.94.94,0,0,0,.1-1.29,2.62,2.62,0,0,0-.71-.47Z" style="fill:#232f3e"/><path d="M36.24,92.35V85.94h-2V84.72h5.68v1.22h-2v6.41Z" style="fill:#232f3e"/><path d="M40.28,92.35V86.72h1.35l.18.73a2.5,2.5,0,0,1,.72-.59,1.55,1.55,0,0,1,.75-.19,2.56,2.56,0,0,1,.39,0V88A5,5,0,0,0,43,88a2.5,2.5,0,0,0-1.1.26v4.11Z" style="fill:#232f3e"/><path d="M47.68,92.35l-.13-.51a3.18,3.18,0,0,1-1.78.65,1.23,1.23,0,0,1-1-.43,2,2,0,0,1-.35-1.24v-4.1H46v3.62a1.75,1.75,0,0,0,.13.77.47.47,0,0,0,.45.23,1.42,1.42,0,0,0,.76-.25V86.72H49v5.63Z" style="fill:#232f3e"/><path d="M52.45,90.77c0-.25-.17-.46-.52-.62l-.72-.35a1.7,1.7,0,0,1-1.13-1.59A1.42,1.42,0,0,1,50.63,87a2.26,2.26,0,0,1,1.47-.45,3.57,3.57,0,0,1,1.53.35v1a5.13,5.13,0,0,0-.7-.19,3,3,0,0,0-.6-.07c-.51,0-.77.18-.77.54s.21.45.64.66l.72.34a1.9,1.9,0,0,1,.77.62,1.69,1.69,0,0,1,.24.93A1.56,1.56,0,0,1,53.38,92a2.28,2.28,0,0,1-1.48.46,3.8,3.8,0,0,1-1.82-.44v-1a5.45,5.45,0,0,0,1.61.35.86.86,0,0,0,.57-.17A.56.56,0,0,0,52.45,90.77Z" style="fill:#232f3e"/><path d="M57.9,92.2a3.51,3.51,0,0,1-1.23.22,1.85,1.85,0,0,1-1.32-.4,1.81,1.81,0,0,1-.41-1.3v-2.9h-.73V86.9l.78-.15.24-1.54H56.6v1.51h1.27v1.1H56.6v2.77a.74.74,0,0,0,.14.52.69.69,0,0,0,.53.16,3,3,0,0,0,.63-.08Z" style="fill:#232f3e"/><path d="M60,89.92A1.77,1.77,0,0,0,60.35,91a1.45,1.45,0,0,0,1.06.33,3.26,3.26,0,0,0,.69-.09,6.31,6.31,0,0,0,.8-.21v1a3,3,0,0,1-.84.31,4.67,4.67,0,0,1-1,.11c-1.72,0-2.58-1-2.58-2.95a3.37,3.37,0,0,1,.63-2.2A2.23,2.23,0,0,1,61,86.58c1.36,0,2,.76,2,2.29a4.32,4.32,0,0,1-.12,1Zm.92-2.32c-.58,0-.89.46-.92,1.37h1.62v-.25a1.68,1.68,0,0,0-.17-.86A.59.59,0,0,0,60.91,87.6Z" style="fill:#232f3e"/><path d="M67.39,92.35l-.13-.49a2.12,2.12,0,0,1-.64.43,1.78,1.78,0,0,1-.71.15,1.74,1.74,0,0,1-1.51-.75,3.65,3.65,0,0,1-.54-2.13,3.73,3.73,0,0,1,.55-2.19,1.76,1.76,0,0,1,1.53-.79,2.08,2.08,0,0,1,.64.13,2.52,2.52,0,0,1,.61.33V84.21h1.65v8.14Zm-.93-1a1.4,1.4,0,0,0,.73-.22V88a1.54,1.54,0,0,0-.8-.26.69.69,0,0,0-.67.44,3.39,3.39,0,0,0-.21,1.39,3.05,3.05,0,0,0,.23,1.36A.75.75,0,0,0,66.46,91.32Z" style="fill:#232f3e"/><path d="M26.64,106.35l-.43-1.82h-2l-.43,1.82H22l2.32-7.63h1.86l2.3,7.63Zm-2.18-2.92H26l-.76-3.16Z" style="fill:#232f3e"/><path d="M32.53,106.35l-.13-.49a2.2,2.2,0,0,1-.63.43,1.86,1.86,0,0,1-.72.15,1.74,1.74,0,0,1-1.51-.75,3.65,3.65,0,0,1-.54-2.13,3.73,3.73,0,0,1,.56-2.19,1.73,1.73,0,0,1,1.52-.79,2.08,2.08,0,0,1,.64.13,2.52,2.52,0,0,1,.61.33V98.21H34v8.14Zm-.93-1a1.4,1.4,0,0,0,.73-.22V102a1.54,1.54,0,0,0-.8-.26.69.69,0,0,0-.67.44,3.39,3.39,0,0,0-.21,1.39,3.05,3.05,0,0,0,.23,1.36A.75.75,0,0,0,31.6,105.32Z" style="fill:#232f3e"/><path d="M36.59,106.35l-1.86-5.63h1.75l.89,4,.92-4H40l-1.84,5.63Z" style="fill:#232f3e"/><path d="M41.61,99.81a1.08,1.08,0,0,1-.71-.22.79.79,0,0,1-.26-.61.77.77,0,0,1,.26-.61,1,1,0,0,1,.71-.23,1,1,0,0,1,.7.23.75.75,0,0,1,.27.61.76.76,0,0,1-.27.61A1,1,0,0,1,41.61,99.81Zm-.83,6.54v-5.63h1.65v5.63Z" style="fill:#232f3e"/><path d="M45.89,104.77c0-.25-.17-.46-.52-.62l-.72-.35a1.7,1.7,0,0,1-1.13-1.59,1.42,1.42,0,0,1,.55-1.18,2.26,2.26,0,0,1,1.47-.45,3.57,3.57,0,0,1,1.53.35v1a5.13,5.13,0,0,0-.7-.19,3,3,0,0,0-.6-.07c-.51,0-.77.18-.77.54s.21.45.64.66l.72.34a1.9,1.9,0,0,1,.77.62,1.69,1.69,0,0,1,.24.93,1.56,1.56,0,0,1-.55,1.27,2.28,2.28,0,0,1-1.48.46,3.8,3.8,0,0,1-1.82-.44v-1a5.45,5.45,0,0,0,1.61.35.86.86,0,0,0,.57-.17A.56.56,0,0,0,45.89,104.77Z" style="fill:#232f3e"/><path d="M50.53,106.49a2.27,2.27,0,0,1-1.84-.77,3.95,3.95,0,0,1,0-4.37,2.58,2.58,0,0,1,3.68,0,4,4,0,0,1,0,4.37A2.29,2.29,0,0,1,50.53,106.49Zm0-1.15a.65.65,0,0,0,.64-.43,4.79,4.79,0,0,0,0-2.74.65.65,0,0,0-.64-.44.67.67,0,0,0-.65.44,5,5,0,0,0,0,2.74A.67.67,0,0,0,50.53,105.34Z" style="fill:#232f3e"/><path d="M54.18,106.35v-5.63h1.35l.18.73a2.5,2.5,0,0,1,.72-.59,1.49,1.49,0,0,1,.75-.19,2.34,2.34,0,0,1,.38,0V102a4.7,4.7,0,0,0-.63,0,2.47,2.47,0,0,0-1.1.26v4.11Z" style="fill:#232f3e"/></g><g id="ICONS_-_EDIT" data-name="ICONS - EDIT"><path d="M39.65,52.32A23.39,23.39,0,0,1,18.5,39.14l1.8-.88a21.55,21.55,0,0,0,38.7,0l1.79.88A23.38,23.38,0,0,1,39.65,52.32Z" style="fill:#fff"/><rect x="39" y="52.05" width="2" height="5" style="fill:#fff"/><rect x="21.37" y="48.58" width="6.34" height="2" transform="translate(-29.29 36.8) rotate(-50.31)" style="fill:#fff"/><rect x="53.57" y="46.54" width="2" height="6.38" transform="translate(-19.18 46.36) rotate(-39.72)" style="fill:#fff"/><path d="M40,64.05a4,4,0,1,1,4-4A4,4,0,0,1,40,64.05Zm0-6a2,2,0,1,0,2,2A2,2,0,0,0,40,58.05Z" style="fill:#fff"/><path d="M59,58.05a4,4,0,1,1,4-4A4,4,0,0,1,59,58.05Zm0-6a2,2,0,1,0,2,2A2,2,0,0,0,59,52.05Z" style="fill:#fff"/><path d="M21,58.05a4,4,0,1,1,4-4A4,4,0,0,1,21,58.05Zm0-6a2,2,0,1,0,2,2A2,2,0,0,0,21,52.05Z" style="fill:#fff"/><path d="M40,49.27c-12.85,0-13-14.45-13-14.6V21.4a1,1,0,0,1,.65-.94l12-4.45a1.05,1.05,0,0,1,.7,0l12,4.45a1,1,0,0,1,.65.94V35.49C53,35.63,52.85,49.27,40,49.27ZM29,22.09V34.67c0,.51.16,12.6,11,12.6,4.56,0,7.78-2,9.59-5.81a15.86,15.86,0,0,0,1.41-6V22.09L40,18Z" style="fill:#fff"/><path d="M40,45.52c-7.15,0-8.91-9-9-9.42a1.1,1.1,0,0,1,0-.18V24.18a1,1,0,0,1,.64-.93l8-3.13a1,1,0,0,1,.72,0l8,3.13a1,1,0,0,1,.64.93V35.92a1.1,1.1,0,0,1,0,.18C48.91,36.48,47.15,45.52,40,45.52Zm-7-9.71c.18.84,1.82,7.71,7,7.71s6.82-6.87,7-7.71V24.87l-7-2.74-7,2.74Z" style="fill:#fff"/><rect x="39" y="21.05" width="2" height="24" style="fill:#fff"/></g></svg>