<svg xmlns="http://www.w3.org/2000/svg" width="80" height="115" viewBox="0 0 80 115"><title>architecture-product-card_Amazon_AppStream_2.0</title><g id="CARDS"><rect x="1" y="1" width="78" height="78" style="fill:#232f3e"/><path d="M0,0V80H0v35H80V80h0V0ZM1,1H79V79H1Z" style="fill:#fff"/></g><g id="TEXT_-_EDIT" data-name="TEXT - EDIT"><path d="M25.35,92.35l-.43-1.82h-2l-.42,1.82H20.72L23,84.72H24.9l2.31,7.63Zm-2.18-2.92h1.49l-.76-3.16Z" style="fill:#232f3e"/><path d="M34.06,92.35V88.64a1.32,1.32,0,0,0-.14-.69.49.49,0,0,0-.46-.22,1.59,1.59,0,0,0-.8.26.5.5,0,0,1,0,.12v4.24H31V88.64a1.33,1.33,0,0,0-.13-.69.51.51,0,0,0-.47-.22,1.55,1.55,0,0,0-.78.26v4.36H28V86.72h1.35l.13.51a3.31,3.31,0,0,1,1.81-.65,1.25,1.25,0,0,1,1.2.67,3.38,3.38,0,0,1,1.83-.67,1.3,1.3,0,0,1,1,.42,1.85,1.85,0,0,1,.36,1.22v4.13Z" style="fill:#232f3e"/><path d="M40,92.35l-.14-.51a1.56,1.56,0,0,1-.59.47,1.86,1.86,0,0,1-.79.18A1.57,1.57,0,0,1,37.31,92a1.65,1.65,0,0,1-.43-1.22,1.69,1.69,0,0,1,.53-1.31A2,2,0,0,1,38.84,89a4,4,0,0,1,.93.13v-.51a1.33,1.33,0,0,0-.16-.78.77.77,0,0,0-.61-.2,5.9,5.9,0,0,0-1.77.35V87a3,3,0,0,1,.92-.33,5.47,5.47,0,0,1,1.15-.12,2.19,2.19,0,0,1,1.52.44,1.82,1.82,0,0,1,.47,1.39v3.94Zm-1-.92a1.17,1.17,0,0,0,.79-.35V90a2.3,2.3,0,0,0-.62-.07.67.67,0,0,0-.54.2.81.81,0,0,0-.19.59.82.82,0,0,0,.15.52A.49.49,0,0,0,39,91.43Z" style="fill:#232f3e"/><path d="M42.28,92.35V91.28l2.49-3.4h-2.4V86.72h4.14v1.07L44,91.19h2.54v1.16Z" style="fill:#232f3e"/><path d="M49.79,92.49A2.3,2.3,0,0,1,48,91.72a4,4,0,0,1,0-4.37,2.6,2.6,0,0,1,3.69,0,4,4,0,0,1,0,4.37A2.31,2.31,0,0,1,49.79,92.49Zm0-1.15a.67.67,0,0,0,.65-.43,4.79,4.79,0,0,0,0-2.74.69.69,0,0,0-1.29,0,4.79,4.79,0,0,0,0,2.74A.66.66,0,0,0,49.79,91.34Z" style="fill:#232f3e"/><path d="M56.55,92.35v-3.7a1.36,1.36,0,0,0-.14-.7.55.55,0,0,0-.5-.22,1.56,1.56,0,0,0-.81.26v4.36H53.44V86.72h1.35l.14.51a3.32,3.32,0,0,1,1.84-.65,1.35,1.35,0,0,1,1.07.42,1.83,1.83,0,0,1,.36,1.22v4.13Z" style="fill:#232f3e"/><path d="M9.41,106.35,9,104.53H7l-.42,1.82H4.79L7.1,98.72H9l2.3,7.63Zm-2.18-2.92h1.5L8,100.27Z" style="fill:#232f3e"/><path d="M12.05,108.61v-7.89H13.4l.12.48a2.46,2.46,0,0,1,.71-.45,2.12,2.12,0,0,1,.78-.17,1.76,1.76,0,0,1,1.52.74,3.68,3.68,0,0,1,.52,2.14,3.79,3.79,0,0,1-.55,2.2,1.74,1.74,0,0,1-1.51.78,2.18,2.18,0,0,1-.69-.12,2,2,0,0,1-.6-.35v2.64Zm2.42-6.91a1.27,1.27,0,0,0-.77.25v3.11a1.42,1.42,0,0,0,.78.26.73.73,0,0,0,.71-.42,3.22,3.22,0,0,0,.21-1.37,3.34,3.34,0,0,0-.21-1.41A.74.74,0,0,0,14.47,101.7Z" style="fill:#232f3e"/><path d="M18.19,108.61v-7.89h1.35l.12.48a2.38,2.38,0,0,1,.72-.45,2.07,2.07,0,0,1,.78-.17,1.74,1.74,0,0,1,1.51.74,3.68,3.68,0,0,1,.52,2.14,3.87,3.87,0,0,1-.54,2.2,1.76,1.76,0,0,1-1.52.78,2.08,2.08,0,0,1-.68-.12,1.76,1.76,0,0,1-.6-.35v2.64Zm2.43-6.91a1.27,1.27,0,0,0-.77.25v3.11a1.37,1.37,0,0,0,.78.26.72.72,0,0,0,.7-.42,3.22,3.22,0,0,0,.21-1.37,3.34,3.34,0,0,0-.21-1.41A.73.73,0,0,0,20.62,101.7Z" style="fill:#232f3e"/><path d="M25.77,103a3.55,3.55,0,0,1-1.27-1,2,2,0,0,1-.39-1.23,2,2,0,0,1,.34-1.17,2.11,2.11,0,0,1,.92-.77,3.18,3.18,0,0,1,1.34-.27A4.85,4.85,0,0,1,28.6,99v1.17a5.44,5.44,0,0,0-1.72-.33,1.24,1.24,0,0,0-.79.23.75.75,0,0,0-.29.64.86.86,0,0,0,.18.56,2.32,2.32,0,0,0,.72.48l.65.32a5.12,5.12,0,0,1,1,.62,2,2,0,0,1,.54.69,2.29,2.29,0,0,1,.17.92,2,2,0,0,1-.74,1.65,3.09,3.09,0,0,1-2,.61,5.35,5.35,0,0,1-1.13-.12,4,4,0,0,1-1-.32v-1.15a7.85,7.85,0,0,0,1,.25,5.33,5.33,0,0,0,1,.11A1.34,1.34,0,0,0,27,105a.86.86,0,0,0,.3-.71.84.84,0,0,0-.21-.58,2.47,2.47,0,0,0-.71-.47Z" style="fill:#232f3e"/><path d="M33.23,106.2a3.47,3.47,0,0,1-1.23.22,1.47,1.47,0,0,1-1.72-1.7v-2.9h-.74v-.92l.79-.15.24-1.54h1.36v1.51h1.28v1.1H31.93v2.77a.79.79,0,0,0,.14.52.7.7,0,0,0,.53.16,2.86,2.86,0,0,0,.63-.08Z" style="fill:#232f3e"/><path d="M34.11,106.35v-5.63h1.35l.18.73a2.5,2.5,0,0,1,.72-.59,1.49,1.49,0,0,1,.75-.19,2.56,2.56,0,0,1,.39,0V102a5,5,0,0,0-.64,0,2.47,2.47,0,0,0-1.1.26v4.11Z" style="fill:#232f3e"/><path d="M39.46,103.92a1.66,1.66,0,0,0,.36,1.12,1.45,1.45,0,0,0,1.06.33,3.26,3.26,0,0,0,.68-.09,5.54,5.54,0,0,0,.8-.21v1a2.77,2.77,0,0,1-.83.31,4.77,4.77,0,0,1-1,.11c-1.72,0-2.58-1-2.58-2.95a3.37,3.37,0,0,1,.64-2.2,2.22,2.22,0,0,1,1.82-.76c1.37,0,2,.76,2,2.29a4.32,4.32,0,0,1-.12,1Zm.91-2.32c-.57,0-.88.46-.91,1.37h1.61v-.25a1.59,1.59,0,0,0-.17-.86A.59.59,0,0,0,40.37,101.6Z" style="fill:#232f3e"/><path d="M46.51,106.35l-.15-.51a1.42,1.42,0,0,1-.59.47,1.85,1.85,0,0,1-.78.18,1.56,1.56,0,0,1-1.18-.45,1.66,1.66,0,0,1-.44-1.22,1.69,1.69,0,0,1,.53-1.31,2.08,2.08,0,0,1,1.44-.47,4,4,0,0,1,.93.13v-.51a1.32,1.32,0,0,0-.17-.78.77.77,0,0,0-.61-.2,5.9,5.9,0,0,0-1.77.35v-1a3.07,3.07,0,0,1,.92-.33,5.57,5.57,0,0,1,1.16-.12,2.18,2.18,0,0,1,1.51.44,1.78,1.78,0,0,1,.47,1.39v3.94Zm-1-.92a1.21,1.21,0,0,0,.8-.35V104a2.38,2.38,0,0,0-.63-.07.69.69,0,0,0-.54.2.85.85,0,0,0-.18.59.82.82,0,0,0,.15.52A.47.47,0,0,0,45.47,105.43Z" style="fill:#232f3e"/><path d="M55.25,106.35v-3.71a1.23,1.23,0,0,0-.14-.69.49.49,0,0,0-.46-.22,1.53,1.53,0,0,0-.79.26s0,.08,0,.12v4.24H52.22v-3.71a1.32,1.32,0,0,0-.14-.69.5.5,0,0,0-.47-.22,1.55,1.55,0,0,0-.78.26v4.36H49.18v-5.63h1.35l.13.51a3.34,3.34,0,0,1,1.81-.65,1.25,1.25,0,0,1,1.2.67,3.39,3.39,0,0,1,1.84-.67,1.28,1.28,0,0,1,1,.42,1.85,1.85,0,0,1,.36,1.22v4.13Z" style="fill:#232f3e"/><path d="M60.88,99.28a5.54,5.54,0,0,1,1.17-.55,3.92,3.92,0,0,1,1.13-.17,1.91,1.91,0,0,1,2.07,2.08,2.83,2.83,0,0,1-.21,1,6.71,6.71,0,0,1-.79,1.3q-.59.78-1.74,2.13h3v1.25h-4.8v-1.1c.76-.9,1.33-1.61,1.73-2.15a8,8,0,0,0,.85-1.34,2.44,2.44,0,0,0,.25-1.05.91.91,0,0,0-.19-.63.69.69,0,0,0-.56-.22,3.94,3.94,0,0,0-1.91.69Z" style="fill:#232f3e"/><path d="M67.48,106.49a1,1,0,0,1-.72-.25,1,1,0,0,1,0-1.35,1.16,1.16,0,0,1,1.44,0,1,1,0,0,1,0,1.35A1,1,0,0,1,67.48,106.49Z" style="fill:#232f3e"/><path d="M71.9,106.49a2.16,2.16,0,0,1-1.92-1,6.87,6.87,0,0,1,0-5.92,2.35,2.35,0,0,1,3.85,0,7,7,0,0,1,0,5.92A2.16,2.16,0,0,1,71.9,106.49Zm0-1.22a.62.62,0,0,0,.53-.25,1.8,1.8,0,0,0,.29-.84,11.6,11.6,0,0,0,.09-1.66,11.3,11.3,0,0,0-.09-1.61,1.92,1.92,0,0,0-.28-.86.61.61,0,0,0-.54-.27.63.63,0,0,0-.53.25,1.81,1.81,0,0,0-.28.83,11.7,11.7,0,0,0-.09,1.66,13.24,13.24,0,0,0,.08,1.61,2.05,2.05,0,0,0,.28.87A.63.63,0,0,0,71.9,105.27Z" style="fill:#232f3e"/></g><g id="ICONS_-_EDIT" data-name="ICONS - EDIT"><path d="M63,64a1,1,0,0,1-.68-.28L45.08,46.44l1.36-1.36L62.08,60.72V17.92H19.28L34.92,33.56l-1.36,1.36L16.28,17.64a1,1,0,0,1-.21-1.05A1,1,0,0,1,17,16H63a1,1,0,0,1,1,1V63a1,1,0,0,1-.59.89A1,1,0,0,1,63,64Z" style="fill:#fff"/><path d="M41,64a1,1,0,0,1-.68-.28l-24-24a1,1,0,0,1-.21-1,1,1,0,0,1,.89-.59H41a1,1,0,0,1,1,1V63a1,1,0,0,1-.59.89A1,1,0,0,1,41,64ZM19.28,40,40,60.72V40Z" style="fill:#fff"/></g></svg>