<svg xmlns="http://www.w3.org/2000/svg" width="80" height="115" viewBox="0 0 80 115"><title>architecture-product-card_VMware_Cloud_on_AWS</title><g id="CARDS"><rect x="1" y="1" width="78" height="78" style="fill:#232f3e"/><path d="M0,0V80H0v35H80V80h0V0ZM1,1H79V79H1Z" style="fill:#fff"/></g><g id="TEXT_-_EDIT" data-name="TEXT - EDIT"><path d="M8,92.35,5.63,84.72H7.46l1.42,6.07,1.41-6.07H12.1L9.76,92.35Z" style="fill:#232f3e"/><path d="M18.74,92.35V87l-1.41,3.46H15.89L14.5,87v5.32H13V84.72h1.93L16.64,89l1.72-4.27h1.88v7.63Z" style="fill:#232f3e"/><path d="M25.81,92.35l-.8-4-.77,4H22.69l-1.56-5.63h1.71l.72,4,.77-4H25.8L26.61,91l.66-4.23h1.66l-1.57,5.63Z" style="fill:#232f3e"/><path d="M32.61,92.35l-.14-.51a1.49,1.49,0,0,1-.59.47,1.85,1.85,0,0,1-.78.18A1.56,1.56,0,0,1,29.92,92a1.66,1.66,0,0,1-.44-1.22A1.69,1.69,0,0,1,30,89.51,2.07,2.07,0,0,1,31.45,89a4,4,0,0,1,.92.13v-.51a1.33,1.33,0,0,0-.16-.78.77.77,0,0,0-.61-.2,5.9,5.9,0,0,0-1.77.35V87a3,3,0,0,1,.92-.33,5.47,5.47,0,0,1,1.15-.12,2.19,2.19,0,0,1,1.52.44,1.82,1.82,0,0,1,.47,1.39v3.94Zm-1-.92a1.17,1.17,0,0,0,.79-.35V90a2.25,2.25,0,0,0-.62-.07.68.68,0,0,0-.54.2.85.85,0,0,0-.19.59.77.77,0,0,0,.16.52A.47.47,0,0,0,31.58,91.43Z" style="fill:#232f3e"/><path d="M35.29,92.35V86.72h1.35l.18.73a2.5,2.5,0,0,1,.72-.59,1.49,1.49,0,0,1,.75-.19,2.56,2.56,0,0,1,.39,0V88A5,5,0,0,0,38,88a2.47,2.47,0,0,0-1.1.26v4.11Z" style="fill:#232f3e"/><path d="M40.64,89.92A1.66,1.66,0,0,0,41,91a1.45,1.45,0,0,0,1.06.33,3.26,3.26,0,0,0,.68-.09,5.54,5.54,0,0,0,.8-.21v1a2.77,2.77,0,0,1-.83.31,4.77,4.77,0,0,1-1,.11c-1.72,0-2.58-1-2.58-2.95a3.32,3.32,0,0,1,.64-2.2,2.22,2.22,0,0,1,1.82-.76c1.37,0,2,.76,2,2.29a4.32,4.32,0,0,1-.12,1Zm.91-2.32c-.57,0-.88.46-.91,1.37h1.61v-.25a1.59,1.59,0,0,0-.17-.86A.59.59,0,0,0,41.55,87.6Z" style="fill:#232f3e"/><path d="M52.37,92.13a4.59,4.59,0,0,1-1.78.34q-3.37,0-3.37-3.9a4.4,4.4,0,0,1,.88-2.95,3.14,3.14,0,0,1,2.53-1,4.72,4.72,0,0,1,1.65.3v1.21a5.74,5.74,0,0,0-1.45-.23,1.62,1.62,0,0,0-1.4.61A3.37,3.37,0,0,0,49,88.42v.25a3.27,3.27,0,0,0,.43,1.9,1.56,1.56,0,0,0,1.37.61,7.12,7.12,0,0,0,1.58-.26Z" style="fill:#232f3e"/><path d="M55.77,92.25a2.69,2.69,0,0,1-1,.16A1.4,1.4,0,0,1,53.73,92a1.54,1.54,0,0,1-.36-1.12V84.21H55v6.54a.75.75,0,0,0,.08.4.36.36,0,0,0,.32.12,2.26,2.26,0,0,0,.35,0Z" style="fill:#232f3e"/><path d="M58.89,92.49a2.29,2.29,0,0,1-1.84-.77,4,4,0,0,1,0-4.37,2.58,2.58,0,0,1,3.68,0,4,4,0,0,1,0,4.37A2.27,2.27,0,0,1,58.89,92.49Zm0-1.15a.65.65,0,0,0,.64-.43,4.79,4.79,0,0,0,0-2.74.69.69,0,0,0-1.28,0,4.79,4.79,0,0,0,0,2.74A.65.65,0,0,0,58.89,91.34Z" style="fill:#232f3e"/><path d="M65.81,92.35l-.14-.51a3.15,3.15,0,0,1-1.78.65,1.22,1.22,0,0,1-1-.43,1.89,1.89,0,0,1-.35-1.24v-4.1h1.65v3.62a1.61,1.61,0,0,0,.13.77.47.47,0,0,0,.45.23,1.37,1.37,0,0,0,.75-.25V86.72h1.65v5.63Z" style="fill:#232f3e"/><path d="M71.83,92.35l-.13-.49a2.12,2.12,0,0,1-.64.43,1.78,1.78,0,0,1-.71.15,1.74,1.74,0,0,1-1.51-.75,3.65,3.65,0,0,1-.54-2.13,3.73,3.73,0,0,1,.55-2.19,1.76,1.76,0,0,1,1.53-.79,2.08,2.08,0,0,1,.64.13,2.28,2.28,0,0,1,.6.33V84.21h1.65v8.14Zm-.93-1a1.34,1.34,0,0,0,.72-.22V88a1.48,1.48,0,0,0-.79-.26.71.71,0,0,0-.68.44,3.6,3.6,0,0,0-.2,1.39,3.05,3.05,0,0,0,.23,1.36A.75.75,0,0,0,70.9,91.32Z" style="fill:#232f3e"/><path d="M24.64,106.49a2.27,2.27,0,0,1-1.84-.77,4,4,0,0,1,0-4.37,2.27,2.27,0,0,1,1.84-.77,2.29,2.29,0,0,1,1.84.77,4,4,0,0,1,0,4.37A2.29,2.29,0,0,1,24.64,106.49Zm0-1.15a.65.65,0,0,0,.64-.43,4.79,4.79,0,0,0,0-2.74.65.65,0,0,0-.64-.44.67.67,0,0,0-.65.44,5,5,0,0,0,0,2.74A.67.67,0,0,0,24.64,105.34Z" style="fill:#232f3e"/><path d="M31.4,106.35v-3.7a1.25,1.25,0,0,0-.15-.7.53.53,0,0,0-.49-.22,1.59,1.59,0,0,0-.82.26v4.36H28.29v-5.63h1.35l.13.51a3.35,3.35,0,0,1,1.84-.65,1.34,1.34,0,0,1,1.07.42,1.78,1.78,0,0,1,.37,1.22v4.13Z" style="fill:#232f3e"/><path d="M41,106.35l-.44-1.82h-2l-.42,1.82H36.35l2.31-7.63h1.87l2.3,7.63Zm-2.19-2.92h1.5l-.76-3.16Z" style="fill:#232f3e"/><path d="M48.18,106.35l-.94-5.63-.89,5.63H44.48L42.7,98.72h1.7l1.06,6.06L46.37,99H48.2l.94,5.65,1-6h1.66l-1.78,7.63Z" style="fill:#232f3e"/><path d="M54.13,103a3.7,3.7,0,0,1-1.28-1,2,2,0,0,1-.38-1.23,2,2,0,0,1,.34-1.17,2.11,2.11,0,0,1,.92-.77,3.14,3.14,0,0,1,1.34-.27A4.85,4.85,0,0,1,57,99v1.17a5.44,5.44,0,0,0-1.72-.33,1.29,1.29,0,0,0-.8.23.77.77,0,0,0-.28.64.86.86,0,0,0,.18.56,2.32,2.32,0,0,0,.72.48l.65.32a4.73,4.73,0,0,1,1,.62,1.89,1.89,0,0,1,.55.69,2.29,2.29,0,0,1,.17.92,2,2,0,0,1-.74,1.65,3.1,3.1,0,0,1-2,.61,5.52,5.52,0,0,1-1.14-.12,4.06,4.06,0,0,1-1-.32v-1.15a7.85,7.85,0,0,0,1,.25,5.33,5.33,0,0,0,1,.11,1.34,1.34,0,0,0,.88-.25.86.86,0,0,0,.3-.71.84.84,0,0,0-.21-.58,2.47,2.47,0,0,0-.71-.47Z" style="fill:#232f3e"/></g><g id="ICONS_-_EDIT" data-name="ICONS - EDIT"><path d="M55.31,54H54.5V52h.81c2.46,0,8.19-.74,8.19-7.58,0-4.11-2.41-6.67-7.16-7.63a1,1,0,0,1-.8-.91c-.14-2.33-1-4.07-2.53-4.92l1-1.74A7.4,7.4,0,0,1,57.47,35c5.19,1.27,8,4.59,8,9.42C65.5,51.52,60.24,54,55.31,54ZM46.5,54h-22a9.8,9.8,0,0,1-10-9c0-.24,0-.45,0-.67a9.07,9.07,0,0,1,6.66-9.11c0-.25,0-.51,0-.77a13.43,13.43,0,0,1,23-9.07,15,15,0,0,1,3.08,4.39,5.33,5.33,0,0,1,.74-.5l1,1.75a4.22,4.22,0,0,0-1.28,1.12,1,1,0,0,1-.94.38,1,1,0,0,1-.79-.64,13.51,13.51,0,0,0-3.19-5.07A11.43,11.43,0,0,0,23.14,34.5a12.34,12.34,0,0,0,.08,1.38,1,1,0,0,1-.75,1.1c-2.23.55-6,2.24-6,7.4,0,.19,0,.37,0,.54a7.8,7.8,0,0,0,8,7.12h22Z" style="fill:#fff"/><path d="M39.5,50h-10a1,1,0,0,1-1-1V28a1,1,0,0,1,1-1h10a1,1,0,0,1,1,1V49A1,1,0,0,1,39.5,50Zm-9-2h8V29h-8Z" style="fill:#fff"/><rect x="31.5" y="31.04" width="6" height="2" style="fill:#fff"/><rect x="31.5" y="35.04" width="6" height="2" style="fill:#fff"/><path d="M43,59.42a4,4,0,0,1-1.6-.33A4.7,4.7,0,0,1,39,56.41l1.86-.75a2.76,2.76,0,0,0,1.35,1.6c1.72.74,4.68-1.11,7.71-4.85.25-.31.51-.63.76-1A46,46,0,0,0,55.58,43l1.82.83a47.68,47.68,0,0,1-5.12,8.79l-.8,1C48.45,57.41,45.46,59.42,43,59.42Z" style="fill:#fff"/><path d="M48.32,42.74,46.46,42a40.1,40.1,0,0,0,3.18-13v-.33c.08-3.19-.63-5.35-2-5.93-1.1-.47-2.48.17-3.45.79l-1.08-1.68c2.49-1.6,4.27-1.4,5.33-.94,2.13.94,3.24,3.69,3.15,7.76a1.31,1.31,0,0,1,0,.28v.12A42.2,42.2,0,0,1,48.32,42.74Z" style="fill:#fff"/><path d="M47.4,43.39a1,1,0,0,1-.93-.62l-1.88-4.62,1.85-.76L48,41.09l3.8-1.55.76,1.86-4.74,1.92A1,1,0,0,1,47.4,43.39Z" style="fill:#fff"/><path d="M57.3,48.46l-1.37-3.75-3.86,1.41-.69-1.88,4.8-1.75a1,1,0,0,1,1.29.59l1.71,4.7Z" style="fill:#fff"/></g></svg>