<svg xmlns="http://www.w3.org/2000/svg" width="80" height="100" viewBox="0 0 80 100"><title>architecture-product-card_AWS_SNS</title><g id="CARDS"><rect x="1" y="1" width="78" height="78" style="fill:#232f3e"/><path d="M0,0V80H0v20H80V80h0V0ZM1,1H79V79H1Z" style="fill:#fff"/></g><g id="TEXT_-_EDIT" data-name="TEXT - EDIT"><path d="M22.84,92.35l-.43-1.82h-2L20,92.35H18.22l2.31-7.63H22.4l2.3,7.63Zm-2.18-2.92h1.5l-.76-3.16Z" style="fill:#232f3e"/><path d="M30.05,92.35l-.94-5.63-.89,5.63H26.35l-1.78-7.63h1.7l1.06,6.06L28.24,85h1.83L31,90.68l1-6H33.7l-1.78,7.63Z" style="fill:#232f3e"/><path d="M36,89a3.7,3.7,0,0,1-1.28-1,2,2,0,0,1-.38-1.23,2,2,0,0,1,.34-1.17,2.11,2.11,0,0,1,.92-.77,3.14,3.14,0,0,1,1.34-.27,4.88,4.88,0,0,1,1.89.39v1.17a5.44,5.44,0,0,0-1.72-.33,1.29,1.29,0,0,0-.8.23.78.78,0,0,0-.29.64.86.86,0,0,0,.19.56,2.2,2.2,0,0,0,.72.48l.65.32a4.73,4.73,0,0,1,1,.62,1.76,1.76,0,0,1,.54.69,2.13,2.13,0,0,1,.18.92,2,2,0,0,1-.74,1.65,3.12,3.12,0,0,1-2,.61,5.52,5.52,0,0,1-1.14-.12,4.06,4.06,0,0,1-.95-.32V90.92a7.85,7.85,0,0,0,1,.25,5.33,5.33,0,0,0,1,.11,1.36,1.36,0,0,0,.88-.25.86.86,0,0,0,.3-.71.84.84,0,0,0-.21-.58,2.47,2.47,0,0,0-.71-.47Z" style="fill:#232f3e"/><path d="M44.4,89a3.6,3.6,0,0,1-1.28-1,2,2,0,0,1-.39-1.23,2.07,2.07,0,0,1,.34-1.17,2.17,2.17,0,0,1,.92-.77,3.19,3.19,0,0,1,1.35-.27,4.92,4.92,0,0,1,1.89.39v1.17a5.5,5.5,0,0,0-1.72-.33,1.27,1.27,0,0,0-.8.23.78.78,0,0,0-.29.64.81.81,0,0,0,.19.56,2.09,2.09,0,0,0,.72.48L46,88a5,5,0,0,1,1,.62,1.76,1.76,0,0,1,.54.69,2.13,2.13,0,0,1,.18.92A2,2,0,0,1,47,91.9a3.13,3.13,0,0,1-2.05.61,5.5,5.5,0,0,1-1.13-.12,3.9,3.9,0,0,1-1-.32V90.92a7.45,7.45,0,0,0,1,.25,5.33,5.33,0,0,0,1,.11,1.32,1.32,0,0,0,.88-.25.86.86,0,0,0,.3-.71.84.84,0,0,0-.21-.58,2.4,2.4,0,0,0-.7-.47Z" style="fill:#232f3e"/><path d="M50.33,87v5.37h-1.4V84.72h1.88l2.52,5.35V84.72h1.39v7.63H52.87Z" style="fill:#232f3e"/><path d="M57.69,89a3.6,3.6,0,0,1-1.28-1A2,2,0,0,1,56,86.77a2.07,2.07,0,0,1,.34-1.17,2.17,2.17,0,0,1,.92-.77,3.19,3.19,0,0,1,1.35-.27,4.92,4.92,0,0,1,1.89.39v1.17a5.5,5.5,0,0,0-1.72-.33A1.27,1.27,0,0,0,58,86a.78.78,0,0,0-.29.64.81.81,0,0,0,.19.56,2.14,2.14,0,0,0,.71.48l.66.32a5.33,5.33,0,0,1,1,.62,1.86,1.86,0,0,1,.54.69,2.13,2.13,0,0,1,.18.92,2,2,0,0,1-.75,1.65,3.09,3.09,0,0,1-2,.61,5.43,5.43,0,0,1-1.13-.12,3.9,3.9,0,0,1-1-.32V90.92a7.68,7.68,0,0,0,1,.25,5.53,5.53,0,0,0,1,.11A1.32,1.32,0,0,0,59,91a.86.86,0,0,0,.3-.71.84.84,0,0,0-.21-.58,2.4,2.4,0,0,0-.7-.47Z" style="fill:#232f3e"/></g><g id="ICONS_-_EDIT" data-name="ICONS - EDIT"><path d="M56,54H51a1,1,0,0,1-1-1V27a1,1,0,0,1,1-1h5v2H52V52h4Z" style="fill:#fff"/><rect x="43" y="39" width="15" height="2" style="fill:#fff"/><path d="M33.61,52H33a1,1,0,0,1-1-1V45.3L27.58,34.06l1.86-.73,4.49,11.42a.89.89,0,0,1,.07.36v4.73a12.88,12.88,0,0,0,1.76-1.12l.24-.17V45.08a1,1,0,0,1,.11-.45l5.75-11.42,1.78.9L38,45.32v3.76a1,1,0,0,1-.46.85c-.17.1-.38.25-.62.42A8.07,8.07,0,0,1,33.74,52Z" style="fill:#fff"/><path d="M35.57,37c-.82,0-8.06-.08-8.06-3s7.24-3,8.06-3,8.07.09,8.07,3S36.4,37,35.57,37Zm-5.9-3c.67.42,2.71,1,5.9,1s5.24-.6,5.91-1c-.67-.42-2.72-1-5.91-1S30.34,33.56,29.67,34Z" style="fill:#fff"/><rect x="22" y="39" width="6" height="2" style="fill:#fff"/><path d="M40,63A23.05,23.05,0,0,1,17.22,43.11l2-.26A21,21,0,0,0,40,61a20.83,20.83,0,0,0,12.26-4l1.17,1.63A22.86,22.86,0,0,1,40,63Z" style="fill:#fff"/><path d="M19.2,37.15l-2-.26A23,23,0,0,1,53.1,21.1L52,22.74A21,21,0,0,0,19.2,37.15Z" style="fill:#fff"/><path d="M19,44a4,4,0,1,1,4-4A4,4,0,0,1,19,44Zm0-6a2,2,0,1,0,2,2A2,2,0,0,0,19,38Z" style="fill:#fff"/><path d="M61,44a4,4,0,1,1,4-4A4,4,0,0,1,61,44Zm0-6a2,2,0,1,0,2,2A2,2,0,0,0,61,38Z" style="fill:#fff"/><path d="M58,31a4,4,0,1,1,4-4A4,4,0,0,1,58,31Zm0-6a2,2,0,1,0,2,2A2,2,0,0,0,58,25Z" style="fill:#fff"/><path d="M58,57a4,4,0,1,1,4-4A4,4,0,0,1,58,57Zm0-6a2,2,0,1,0,2,2A2,2,0,0,0,58,51Z" style="fill:#fff"/></g></svg>