<svg xmlns="http://www.w3.org/2000/svg" width="80" height="115" viewBox="0 0 80 115"><title>architecture-product-card_AWS_Greengrass</title><g id="CARDS"><rect x="1" y="1" width="78" height="78" style="fill:#232f3e"/><path d="M0,0V80H0v35H80V80h0V0ZM1,1H79V79H1Z" style="fill:#fff"/></g><g id="TEXT_-_EDIT" data-name="TEXT - EDIT"><path d="M33.69,92.35l-.44-1.82h-2l-.42,1.82H29.06l2.31-7.63h1.87l2.3,7.63Zm-2.18-2.92H33l-.76-3.16Z" style="fill:#232f3e"/><path d="M40.89,92.35,40,86.72l-.89,5.63H37.19l-1.78-7.63h1.7l1.06,6.06L39.08,85h1.84l.94,5.65,1-6h1.66l-1.78,7.63Z" style="fill:#232f3e"/><path d="M46.84,89a3.55,3.55,0,0,1-1.27-1,2,2,0,0,1-.39-1.23,2,2,0,0,1,.34-1.17,2.11,2.11,0,0,1,.92-.77,3.18,3.18,0,0,1,1.34-.27,4.85,4.85,0,0,1,1.89.39v1.17A5.44,5.44,0,0,0,48,85.79a1.24,1.24,0,0,0-.79.23.75.75,0,0,0-.29.64.86.86,0,0,0,.18.56,2.32,2.32,0,0,0,.72.48l.65.32a5.12,5.12,0,0,1,1,.62,2,2,0,0,1,.54.69,2.29,2.29,0,0,1,.17.92,2,2,0,0,1-.74,1.65,3.09,3.09,0,0,1-2,.61,5.35,5.35,0,0,1-1.13-.12,3.76,3.76,0,0,1-.95-.32V90.92a7.29,7.29,0,0,0,1,.25,5.33,5.33,0,0,0,1,.11,1.34,1.34,0,0,0,.88-.25.86.86,0,0,0,.3-.71.84.84,0,0,0-.21-.58,2.47,2.47,0,0,0-.71-.47Z" style="fill:#232f3e"/><path d="M17.75,105.25a3.66,3.66,0,0,0,.57,0v-2H17.16v-1.11h2.7v3.77a4.09,4.09,0,0,1-1.12.42,6.1,6.1,0,0,1-1.36.15,3,3,0,0,1-2.43-1,4.32,4.32,0,0,1-.85-2.86,4.43,4.43,0,0,1,.89-3,3.3,3.3,0,0,1,2.61-1,4.09,4.09,0,0,1,2,.45v1.17a4.56,4.56,0,0,0-.93-.27,4.49,4.49,0,0,0-.9-.1,1.72,1.72,0,0,0-1.48.61,3.36,3.36,0,0,0-.46,2v.21a3.45,3.45,0,0,0,.44,2A1.72,1.72,0,0,0,17.75,105.25Z" style="fill:#232f3e"/><path d="M21.26,106.35v-5.63h1.35l.18.73a2.5,2.5,0,0,1,.72-.59,1.49,1.49,0,0,1,.75-.19,2.56,2.56,0,0,1,.39,0V102a5,5,0,0,0-.64,0,2.47,2.47,0,0,0-1.1.26v4.11Z" style="fill:#232f3e"/><path d="M26.61,103.92A1.66,1.66,0,0,0,27,105a1.45,1.45,0,0,0,1.06.33,3.18,3.18,0,0,0,.68-.09,5.54,5.54,0,0,0,.8-.21v1a2.77,2.77,0,0,1-.83.31,4.77,4.77,0,0,1-1,.11c-1.72,0-2.58-1-2.58-2.95a3.37,3.37,0,0,1,.64-2.2,2.22,2.22,0,0,1,1.82-.76c1.37,0,2.05.76,2.05,2.29a4.32,4.32,0,0,1-.12,1Zm.91-2.32c-.57,0-.88.46-.91,1.37h1.61v-.25a1.59,1.59,0,0,0-.17-.86A.58.58,0,0,0,27.52,101.6Z" style="fill:#232f3e"/><path d="M32,103.92a1.66,1.66,0,0,0,.36,1.12,1.45,1.45,0,0,0,1.06.33,3.18,3.18,0,0,0,.68-.09,5.54,5.54,0,0,0,.8-.21v1a2.77,2.77,0,0,1-.83.31,4.77,4.77,0,0,1-1,.11c-1.71,0-2.57-1-2.57-2.95a3.37,3.37,0,0,1,.63-2.2,2.22,2.22,0,0,1,1.82-.76c1.37,0,2,.76,2,2.29a4.32,4.32,0,0,1-.12,1Zm.92-2.32c-.58,0-.89.46-.92,1.37h1.61v-.25a1.7,1.7,0,0,0-.16-.86A.6.6,0,0,0,32.89,101.6Z" style="fill:#232f3e"/><path d="M39.22,106.35v-3.7a1.36,1.36,0,0,0-.14-.7.55.55,0,0,0-.5-.22,1.56,1.56,0,0,0-.81.26v4.36H36.11v-5.63h1.35l.14.51a3.32,3.32,0,0,1,1.84-.65,1.35,1.35,0,0,1,1.07.42,1.83,1.83,0,0,1,.36,1.22v4.13Z" style="fill:#232f3e"/><path d="M45.17,105.71a1.65,1.65,0,0,1-1.21.53,1.68,1.68,0,0,1-1.44-.74,3.46,3.46,0,0,1-.53-2,3.6,3.6,0,0,1,.54-2.11,1.71,1.71,0,0,1,1.46-.77,1.79,1.79,0,0,1,.71.17,2,2,0,0,1,.63.45l.12-.48H46.8V106c0,1.86-.85,2.79-2.57,2.79a3.92,3.92,0,0,1-1.83-.44v-1a5.5,5.5,0,0,0,1.62.35,1.48,1.48,0,0,0,.7-.13.76.76,0,0,0,.35-.44,3.26,3.26,0,0,0,.1-1Zm-.66-.6a1.26,1.26,0,0,0,.66-.22V102a1.32,1.32,0,0,0-.73-.27.63.63,0,0,0-.6.42,3.2,3.2,0,0,0-.2,1.3,3,3,0,0,0,.21,1.28A.71.71,0,0,0,44.51,105.11Z" style="fill:#232f3e"/><path d="M48.22,106.35v-5.63h1.35l.18.73a2.5,2.5,0,0,1,.72-.59,1.55,1.55,0,0,1,.75-.19,2.56,2.56,0,0,1,.39,0V102a5,5,0,0,0-.64,0,2.47,2.47,0,0,0-1.1.26v4.11Z" style="fill:#232f3e"/><path d="M55.26,106.35l-.15-.51a1.42,1.42,0,0,1-.59.47,1.81,1.81,0,0,1-.78.18,1.56,1.56,0,0,1-1.18-.45,1.66,1.66,0,0,1-.44-1.22,1.69,1.69,0,0,1,.53-1.31,2.08,2.08,0,0,1,1.44-.47,4,4,0,0,1,.93.13v-.51a1.32,1.32,0,0,0-.17-.78.74.74,0,0,0-.6-.2,5.9,5.9,0,0,0-1.78.35v-1a3.07,3.07,0,0,1,.92-.33,5.57,5.57,0,0,1,1.16-.12,2.16,2.16,0,0,1,1.51.44,1.78,1.78,0,0,1,.47,1.39v3.94Zm-1-.92a1.19,1.19,0,0,0,.8-.35V104a2.38,2.38,0,0,0-.63-.07.69.69,0,0,0-.54.2.85.85,0,0,0-.18.59.82.82,0,0,0,.15.52A.47.47,0,0,0,54.22,105.43Z" style="fill:#232f3e"/><path d="M59.93,104.77c0-.25-.17-.46-.52-.62l-.72-.35a1.7,1.7,0,0,1-1.13-1.59,1.42,1.42,0,0,1,.55-1.18,2.26,2.26,0,0,1,1.47-.45,3.57,3.57,0,0,1,1.53.35v1a5.13,5.13,0,0,0-.7-.19,3,3,0,0,0-.6-.07c-.51,0-.77.18-.77.54s.21.45.64.66l.72.34a1.83,1.83,0,0,1,.77.62,1.69,1.69,0,0,1,.24.93,1.56,1.56,0,0,1-.55,1.27,2.28,2.28,0,0,1-1.48.46,3.8,3.8,0,0,1-1.82-.44v-1a5.45,5.45,0,0,0,1.61.35.86.86,0,0,0,.57-.17A.56.56,0,0,0,59.93,104.77Z" style="fill:#232f3e"/><path d="M64.34,104.77c0-.25-.17-.46-.52-.62l-.72-.35A1.7,1.7,0,0,1,62,102.21a1.42,1.42,0,0,1,.55-1.18,2.26,2.26,0,0,1,1.47-.45,3.57,3.57,0,0,1,1.53.35v1a5.13,5.13,0,0,0-.7-.19,3,3,0,0,0-.6-.07c-.51,0-.77.18-.77.54s.21.45.64.66l.72.34a1.9,1.9,0,0,1,.77.62,1.69,1.69,0,0,1,.24.93,1.56,1.56,0,0,1-.55,1.27,2.28,2.28,0,0,1-1.48.46,3.8,3.8,0,0,1-1.82-.44v-1a5.45,5.45,0,0,0,1.61.35.86.86,0,0,0,.57-.17A.56.56,0,0,0,64.34,104.77Z" style="fill:#232f3e"/></g><g id="ICONS_-_EDIT" data-name="ICONS - EDIT"><path d="M40.43,65a24.47,24.47,0,0,1-19.36-9.39l1.58-1.23A22.6,22.6,0,0,0,63,40.58a22.16,22.16,0,0,0-9.19-18L55,20.92A24.38,24.38,0,0,1,40.43,65Z" style="fill:#fff"/><path d="M51.78,24.51a4.76,4.76,0,1,1,4.77-4.76A4.78,4.78,0,0,1,51.78,24.51Zm0-7.51a2.76,2.76,0,1,0,2.77,2.75A2.77,2.77,0,0,0,51.78,17Z" style="fill:#fff"/><path d="M19.78,56.62a4.75,4.75,0,1,1,4.77-4.75A4.77,4.77,0,0,1,19.78,56.62Zm0-7.5a2.75,2.75,0,1,0,2.77,2.75A2.77,2.77,0,0,0,19.78,49.12Z" style="fill:#fff"/><rect x="38.7" y="22.31" width="2" height="34.78" transform="translate(-16.45 39.7) rotate(-45)" style="fill:#fff"/><path d="M24.78,29.47a4.76,4.76,0,1,1,4.77-4.76A4.78,4.78,0,0,1,24.78,29.47Zm0-7.51a2.76,2.76,0,1,0,2.77,2.75A2.77,2.77,0,0,0,24.78,22Z" style="fill:#fff"/><rect x="31" y="51" width="5" height="2" style="fill:#fff"/><rect x="24" y="51" width="4" height="2" style="fill:#fff"/><rect x="39" y="51" width="5" height="2" style="fill:#fff"/><path d="M52,53H47V51h4V47h2v5A1,1,0,0,1,52,53Z" style="fill:#fff"/><rect x="51" y="31" width="2" height="5" style="fill:#fff"/><rect x="51" y="24" width="2" height="4" style="fill:#fff"/><rect x="51" y="39" width="2" height="5" style="fill:#fff"/></g></svg>