<svg xmlns="http://www.w3.org/2000/svg" width="80" height="115" viewBox="0 0 80 115"><title>architecture-product-card_AWS_OpsWorks</title><g id="CARDS"><rect x="1" y="1" width="78" height="78" style="fill:#232f3e"/><path d="M0,0V80H0v35H80V80h0V0ZM1,1H79V79H1Z" style="fill:#fff"/></g><g id="TEXT_-_EDIT" data-name="TEXT - EDIT"><path d="M33.69,92.35l-.44-1.82h-2l-.42,1.82H29.06l2.31-7.63h1.87l2.3,7.63Zm-2.18-2.92H33l-.76-3.16Z" style="fill:#232f3e"/><path d="M40.89,92.35,40,86.72l-.89,5.63H37.19l-1.78-7.63h1.7l1.06,6.06L39.08,85h1.84l.94,5.65,1-6h1.66l-1.78,7.63Z" style="fill:#232f3e"/><path d="M46.84,89a3.55,3.55,0,0,1-1.27-1,2,2,0,0,1-.39-1.23,2,2,0,0,1,.34-1.17,2.11,2.11,0,0,1,.92-.77,3.18,3.18,0,0,1,1.34-.27,4.85,4.85,0,0,1,1.89.39v1.17A5.44,5.44,0,0,0,48,85.79a1.24,1.24,0,0,0-.79.23.75.75,0,0,0-.29.64.86.86,0,0,0,.18.56,2.32,2.32,0,0,0,.72.48l.65.32a5.12,5.12,0,0,1,1,.62,2,2,0,0,1,.54.69,2.29,2.29,0,0,1,.17.92,2,2,0,0,1-.74,1.65,3.09,3.09,0,0,1-2,.61,5.35,5.35,0,0,1-1.13-.12,3.76,3.76,0,0,1-.95-.32V90.92a7.29,7.29,0,0,0,1,.25,5.33,5.33,0,0,0,1,.11,1.34,1.34,0,0,0,.88-.25.86.86,0,0,0,.3-.71.84.84,0,0,0-.21-.58,2.47,2.47,0,0,0-.71-.47Z" style="fill:#232f3e"/><path d="M16.27,102.53a4.44,4.44,0,0,1,.88-2.93,3,3,0,0,1,2.47-1,3,3,0,0,1,2.47,1,4.38,4.38,0,0,1,.88,2.93,4.43,4.43,0,0,1-.88,2.94,3.06,3.06,0,0,1-2.47,1,3.07,3.07,0,0,1-2.47-1A4.48,4.48,0,0,1,16.27,102.53Zm1.74,0a4,4,0,0,0,.41,2,1.3,1.3,0,0,0,1.2.7,1.32,1.32,0,0,0,1.21-.7,4.1,4.1,0,0,0,.41-2,4.21,4.21,0,0,0-.4-2.06,1.45,1.45,0,0,0-2.44,0A4.22,4.22,0,0,0,18,102.53Z" style="fill:#232f3e"/><path d="M24.28,108.61v-7.89h1.35l.12.48a2.38,2.38,0,0,1,.72-.45,2.07,2.07,0,0,1,.78-.17,1.74,1.74,0,0,1,1.51.74,3.68,3.68,0,0,1,.52,2.14,3.87,3.87,0,0,1-.54,2.2,1.76,1.76,0,0,1-1.52.78,2.08,2.08,0,0,1-.68-.12,1.76,1.76,0,0,1-.6-.35v2.64Zm2.43-6.91a1.27,1.27,0,0,0-.77.25v3.11a1.37,1.37,0,0,0,.78.26.72.72,0,0,0,.7-.42,3.22,3.22,0,0,0,.21-1.37,3.34,3.34,0,0,0-.21-1.41A.73.73,0,0,0,26.71,101.7Z" style="fill:#232f3e"/><path d="M32.43,104.77c0-.25-.17-.46-.52-.62l-.72-.35a1.68,1.68,0,0,1-1.13-1.59,1.42,1.42,0,0,1,.55-1.18,2.26,2.26,0,0,1,1.47-.45,3.57,3.57,0,0,1,1.53.35v1a5.56,5.56,0,0,0-.7-.19,3,3,0,0,0-.6-.07c-.52,0-.77.18-.77.54s.21.45.64.66l.72.34a1.9,1.9,0,0,1,.77.62,1.69,1.69,0,0,1,.24.93,1.56,1.56,0,0,1-.55,1.27,2.31,2.31,0,0,1-1.49.46,3.79,3.79,0,0,1-1.81-.44v-1a5.45,5.45,0,0,0,1.61.35.86.86,0,0,0,.57-.17A.59.59,0,0,0,32.43,104.77Z" style="fill:#232f3e"/><path d="M39.77,106.35l-.94-5.63-.9,5.63H36.07l-1.79-7.63H36L37,104.78,38,99h1.83l.94,5.65,1-6h1.67l-1.79,7.63Z" style="fill:#232f3e"/><path d="M46.39,106.49a2.29,2.29,0,0,1-1.84-.77,4,4,0,0,1,0-4.37,2.6,2.6,0,0,1,3.69,0,4,4,0,0,1,0,4.37A2.31,2.31,0,0,1,46.39,106.49Zm0-1.15a.67.67,0,0,0,.65-.43,4.79,4.79,0,0,0,0-2.74.67.67,0,0,0-.65-.44.66.66,0,0,0-.64.44,4.79,4.79,0,0,0,0,2.74A.66.66,0,0,0,46.39,105.34Z" style="fill:#232f3e"/><path d="M50,106.35v-5.63h1.35l.18.73a2.5,2.5,0,0,1,.72-.59,1.55,1.55,0,0,1,.75-.19,2.56,2.56,0,0,1,.39,0V102a5,5,0,0,0-.64,0,2.47,2.47,0,0,0-1.1.26v4.11Z" style="fill:#232f3e"/><path d="M54.17,106.35V98.21H55.8v5l1.64-2.44h1.83l-2,2.69,2.17,2.94h-1.9l-1.76-2.6v2.6Z" style="fill:#232f3e"/><path d="M62.17,104.77c0-.25-.17-.46-.51-.62l-.73-.35a1.7,1.7,0,0,1-1.13-1.59,1.45,1.45,0,0,1,.55-1.18,2.26,2.26,0,0,1,1.47-.45,3.57,3.57,0,0,1,1.53.35v1a5,5,0,0,0-.69-.19,3.07,3.07,0,0,0-.61-.07c-.51,0-.77.18-.77.54s.22.45.64.66l.72.34a1.83,1.83,0,0,1,.77.62,1.61,1.61,0,0,1,.25.93A1.57,1.57,0,0,1,63.1,106a2.28,2.28,0,0,1-1.48.46,3.83,3.83,0,0,1-1.82-.44v-1a5.44,5.44,0,0,0,1.62.35.85.85,0,0,0,.56-.17A.56.56,0,0,0,62.17,104.77Z" style="fill:#232f3e"/></g><g id="ICONS_-_EDIT" data-name="ICONS - EDIT"><path d="M42.58,43H37.42a1,1,0,0,1-.73-.31,1,1,0,0,1-.27-.75l.07-1.33a12,12,0,0,1-2.22-.93l-.89,1a1,1,0,0,1-.72.33,1.07,1.07,0,0,1-.73-.29l-3.66-3.66a1,1,0,0,1,.05-1.45l1-.89a12,12,0,0,1-.92-2.22l-1.34.07a1,1,0,0,1-1.06-1V26.42a1,1,0,0,1,.31-.73,1,1,0,0,1,.75-.27l1.34.07a12.14,12.14,0,0,1,.92-2.21l-1-.9a1,1,0,0,1-.05-1.45l3.66-3.66a1,1,0,0,1,1.45,0l.9,1a12.14,12.14,0,0,1,2.21-.92l-.07-1.34a1,1,0,0,1,.27-.75,1,1,0,0,1,.73-.31h5.16a1,1,0,0,1,.73.31,1,1,0,0,1,.27.75l-.07,1.35a12.1,12.1,0,0,1,2.21.91l.9-1a1,1,0,0,1,.72-.33,1.05,1.05,0,0,1,.73.29l3.66,3.66a1,1,0,0,1,.29.73,1,1,0,0,1-.33.72l-1,.9a11.86,11.86,0,0,1,.92,2.21l1.34-.07a1,1,0,0,1,.75.27,1,1,0,0,1,.31.73v5.16a1,1,0,0,1-.31.73,1,1,0,0,1-.75.27l-1.34-.07a11.86,11.86,0,0,1-.92,2.21l1,.9a1,1,0,0,1,.33.72,1,1,0,0,1-.29.73l-3.66,3.66a1.13,1.13,0,0,1-.73.29,1,1,0,0,1-.72-.33l-.89-1a12,12,0,0,1-2.22.92l.07,1.33a1,1,0,0,1-.27.75A1,1,0,0,1,42.58,43Zm-4.1-2h3l-.06-1.09a1,1,0,0,1,.78-1,10.15,10.15,0,0,0,3.16-1.3,1,1,0,0,1,1.28.18l.73.81,2.15-2.15-.82-.74a1,1,0,0,1-.18-1.28,9.79,9.79,0,0,0,1.31-3.15,1,1,0,0,1,1-.78l1.1.07V27.47l-1.1.07a1,1,0,0,1-1-.78,10.26,10.26,0,0,0-1.31-3.15,1,1,0,0,1,.18-1.28l.82-.74-2.15-2.15-.74.82a1,1,0,0,1-1.28.18,10,10,0,0,0-3.15-1.3,1,1,0,0,1-.78-1L41.53,17H38.48l.06,1.11a1,1,0,0,1-.78,1,10,10,0,0,0-3.15,1.3,1,1,0,0,1-1.28-.18l-.74-.82-2.15,2.15.82.74a1,1,0,0,1,.18,1.28,10.26,10.26,0,0,0-1.31,3.15,1,1,0,0,1-1,.78L28,27.47v3.06l1.1-.07a1,1,0,0,1,1,.78,9.94,9.94,0,0,0,1.31,3.16,1,1,0,0,1-.18,1.28l-.82.73,2.15,2.15.73-.82a1,1,0,0,1,1.29-.18,9.79,9.79,0,0,0,3.15,1.31,1,1,0,0,1,.78,1Z" style="fill:#fff"/><path d="M40,35.2A6.2,6.2,0,1,1,46.2,29,6.21,6.21,0,0,1,40,35.2Zm0-10.4A4.2,4.2,0,1,0,44.2,29,4.2,4.2,0,0,0,40,24.8Z" style="fill:#fff"/><rect x="39" y="45" width="2" height="9" style="fill:#fff"/><path d="M58,54H56V51H24v3H22V50a1,1,0,0,1,1-1H57a1,1,0,0,1,1,1Z" style="fill:#fff"/><path d="M26,65H20a1,1,0,0,1-1-1V54a1,1,0,0,1,1-1h6a1,1,0,0,1,1,1V64A1,1,0,0,1,26,65Zm-5-2h4V55H21Z" style="fill:#fff"/><path d="M43,65H37a1,1,0,0,1-1-1V54a1,1,0,0,1,1-1h6a1,1,0,0,1,1,1V64A1,1,0,0,1,43,65Zm-5-2h4V55H38Z" style="fill:#fff"/><path d="M60,65H54a1,1,0,0,1-1-1V54a1,1,0,0,1,1-1h6a1,1,0,0,1,1,1V64A1,1,0,0,1,60,65Zm-5-2h4V55H55Z" style="fill:#fff"/></g></svg>