<svg xmlns="http://www.w3.org/2000/svg" width="80" height="130" viewBox="0 0 80 130"><title>architecture-product-card_AWS_Elemental_MediaTailor</title><g id="CARDS"><rect x="1" y="1" width="78" height="78" style="fill:#232f3e"/><path d="M0,0V80H0v50H80V80h0V0ZM1,1H79V79H1Z" style="fill:#fff"/></g><g id="TEXT_-_AWS_Elemental_MediaTailor" data-name="TEXT - AWS_Elemental_MediaTailor"><path d="M33.69,92.35l-.44-1.82h-2l-.42,1.82H29.06l2.31-7.63h1.87l2.3,7.63Zm-2.18-2.92H33l-.76-3.16Z" style="fill:#232f3e"/><path d="M40.89,92.35,40,86.72l-.89,5.63H37.19l-1.78-7.63h1.7l1.06,6.06L39.08,85h1.84l.94,5.65,1-6h1.66l-1.78,7.63Z" style="fill:#232f3e"/><path d="M46.84,89a3.55,3.55,0,0,1-1.27-1,2,2,0,0,1-.39-1.23,2,2,0,0,1,.34-1.17,2.11,2.11,0,0,1,.92-.77,3.18,3.18,0,0,1,1.34-.27,4.85,4.85,0,0,1,1.89.39v1.17A5.44,5.44,0,0,0,48,85.79a1.24,1.24,0,0,0-.79.23.75.75,0,0,0-.29.64.86.86,0,0,0,.18.56,2.32,2.32,0,0,0,.72.48l.65.32a5.12,5.12,0,0,1,1,.62,2,2,0,0,1,.54.69,2.29,2.29,0,0,1,.17.92,2,2,0,0,1-.74,1.65,3.09,3.09,0,0,1-2,.61,5.35,5.35,0,0,1-1.13-.12,4,4,0,0,1-1-.32V90.92a7.85,7.85,0,0,0,1,.25,5.33,5.33,0,0,0,1,.11,1.34,1.34,0,0,0,.88-.25.86.86,0,0,0,.3-.71.84.84,0,0,0-.21-.58,2.47,2.47,0,0,0-.71-.47Z" style="fill:#232f3e"/><path d="M16.61,106.35V98.72h4.54V99.9H18.3v1.95h2.28V103H18.3v2.15h2.85v1.18Z" style="fill:#232f3e"/><path d="M24.67,106.25a2.69,2.69,0,0,1-1,.16,1.4,1.4,0,0,1-1.08-.37,1.54,1.54,0,0,1-.36-1.12V98.21h1.65v6.54a.75.75,0,0,0,.08.4.36.36,0,0,0,.32.12,2.26,2.26,0,0,0,.35,0Z" style="fill:#232f3e"/><path d="M26.78,103.92a1.66,1.66,0,0,0,.36,1.12,1.45,1.45,0,0,0,1.06.33,3.26,3.26,0,0,0,.68-.09,5.54,5.54,0,0,0,.8-.21v1a2.77,2.77,0,0,1-.83.31,4.77,4.77,0,0,1-1,.11c-1.72,0-2.58-1-2.58-2.95a3.32,3.32,0,0,1,.64-2.2,2.22,2.22,0,0,1,1.82-.76c1.37,0,2.05.76,2.05,2.29a4.32,4.32,0,0,1-.12,1Zm.91-2.32c-.58,0-.88.46-.91,1.37h1.61v-.25a1.68,1.68,0,0,0-.17-.86A.59.59,0,0,0,27.69,101.6Z" style="fill:#232f3e"/><path d="M37,106.35v-3.71a1.33,1.33,0,0,0-.13-.69.51.51,0,0,0-.47-.22,1.53,1.53,0,0,0-.79.26s0,.08,0,.12v4.24H34v-3.71a1.32,1.32,0,0,0-.14-.69.5.5,0,0,0-.46-.22,1.56,1.56,0,0,0-.79.26v4.36H30.92v-5.63h1.35l.13.51a3.34,3.34,0,0,1,1.81-.65,1.27,1.27,0,0,1,1.21.67,3.33,3.33,0,0,1,1.83-.67,1.28,1.28,0,0,1,1,.42,1.85,1.85,0,0,1,.36,1.22v4.13Z" style="fill:#232f3e"/><path d="M41.26,103.92a1.66,1.66,0,0,0,.36,1.12,1.45,1.45,0,0,0,1.06.33,3.18,3.18,0,0,0,.68-.09,5.54,5.54,0,0,0,.8-.21v1a2.77,2.77,0,0,1-.83.31,4.77,4.77,0,0,1-1,.11c-1.72,0-2.58-1-2.58-2.95a3.37,3.37,0,0,1,.64-2.2,2.22,2.22,0,0,1,1.82-.76c1.37,0,2.05.76,2.05,2.29a4.32,4.32,0,0,1-.12,1Zm.91-2.32c-.57,0-.88.46-.91,1.37h1.61v-.25a1.59,1.59,0,0,0-.17-.86A.58.58,0,0,0,42.17,101.6Z" style="fill:#232f3e"/><path d="M48.51,106.35v-3.7a1.36,1.36,0,0,0-.14-.7.55.55,0,0,0-.5-.22,1.59,1.59,0,0,0-.82.26v4.36H45.4v-5.63h1.35l.13.51a3.38,3.38,0,0,1,1.85-.65,1.33,1.33,0,0,1,1.06.42,1.78,1.78,0,0,1,.37,1.22v4.13Z" style="fill:#232f3e"/><path d="M54.6,106.2a3.55,3.55,0,0,1-1.23.22,1.83,1.83,0,0,1-1.32-.4,1.81,1.81,0,0,1-.41-1.3v-2.9h-.73v-.92l.78-.15.24-1.54h1.36v1.51h1.28v1.1H53.29v2.77a.73.73,0,0,0,.15.52.69.69,0,0,0,.53.16,3,3,0,0,0,.63-.08Z" style="fill:#232f3e"/><path d="M58.38,106.35l-.15-.51a1.42,1.42,0,0,1-.59.47,1.81,1.81,0,0,1-.78.18,1.56,1.56,0,0,1-1.18-.45,1.91,1.91,0,0,1,.1-2.53,2,2,0,0,1,1.43-.47,4,4,0,0,1,.93.13v-.51a1.32,1.32,0,0,0-.17-.78.74.74,0,0,0-.6-.2,5.9,5.9,0,0,0-1.78.35v-1a3.07,3.07,0,0,1,.92-.33,5.57,5.57,0,0,1,1.16-.12,2.21,2.21,0,0,1,1.52.44,1.82,1.82,0,0,1,.47,1.39v3.94Zm-1-.92a1.19,1.19,0,0,0,.8-.35V104a2.38,2.38,0,0,0-.63-.07.69.69,0,0,0-.54.2.85.85,0,0,0-.18.59.82.82,0,0,0,.15.52A.47.47,0,0,0,57.34,105.43Z" style="fill:#232f3e"/><path d="M63.45,106.25a2.69,2.69,0,0,1-1,.16,1.4,1.4,0,0,1-1.08-.37,1.54,1.54,0,0,1-.36-1.12V98.21H62.7v6.54a.75.75,0,0,0,.08.4.36.36,0,0,0,.32.12,2.14,2.14,0,0,0,.35,0Z" style="fill:#232f3e"/><path d="M18,120.35V115l-1.41,3.46H15.2L13.8,115v5.32H12.3v-7.63h1.92L16,117l1.72-4.27h1.88v7.63Z" style="fill:#232f3e"/><path d="M22.3,117.92a1.66,1.66,0,0,0,.36,1.12,1.43,1.43,0,0,0,1.06.33,3.26,3.26,0,0,0,.68-.09,5.9,5.9,0,0,0,.8-.21v1a2.88,2.88,0,0,1-.83.31,4.77,4.77,0,0,1-1,.11c-1.72,0-2.58-1-2.58-2.95a3.37,3.37,0,0,1,.63-2.2,2.24,2.24,0,0,1,1.83-.76c1.36,0,2,.76,2,2.29a4.32,4.32,0,0,1-.12,1Zm.91-2.32c-.58,0-.88.46-.91,1.37h1.61v-.25a1.68,1.68,0,0,0-.17-.86A.59.59,0,0,0,23.21,115.6Z" style="fill:#232f3e"/><path d="M29.69,120.35l-.13-.49a2,2,0,0,1-.63.43,1.86,1.86,0,0,1-.72.15,1.75,1.75,0,0,1-1.51-.75,3.65,3.65,0,0,1-.54-2.13,3.73,3.73,0,0,1,.56-2.19,1.76,1.76,0,0,1,1.53-.79,2.08,2.08,0,0,1,.63.13,2.35,2.35,0,0,1,.61.33v-2.83h1.65v8.14Zm-.92-1a1.34,1.34,0,0,0,.72-.22V116a1.54,1.54,0,0,0-.8-.26.7.7,0,0,0-.67.44,3.39,3.39,0,0,0-.21,1.39,3.05,3.05,0,0,0,.23,1.36A.77.77,0,0,0,28.77,119.32Z" style="fill:#232f3e"/><path d="M33.43,113.81a1,1,0,0,1-.71-.22.76.76,0,0,1-.27-.61.75.75,0,0,1,.27-.61,1.2,1.2,0,0,1,1.41,0,.77.77,0,0,1,.26.61.79.79,0,0,1-.26.61A1,1,0,0,1,33.43,113.81Zm-.83,6.54v-5.63h1.65v5.63Z" style="fill:#232f3e"/><path d="M38.61,120.35l-.15-.51a1.42,1.42,0,0,1-.59.47,1.78,1.78,0,0,1-.78.18,1.56,1.56,0,0,1-1.18-.45,1.91,1.91,0,0,1,.1-2.53,2,2,0,0,1,1.43-.47,4,4,0,0,1,.93.13v-.51a1.42,1.42,0,0,0-.16-.78.78.78,0,0,0-.61-.2,5.79,5.79,0,0,0-1.77.35v-1a2.9,2.9,0,0,1,.91-.33,5.57,5.57,0,0,1,1.16-.12,2.21,2.21,0,0,1,1.52.44,1.82,1.82,0,0,1,.47,1.39v3.94Zm-1-.92a1.19,1.19,0,0,0,.8-.35V118a2.38,2.38,0,0,0-.63-.07.66.66,0,0,0-.53.2.81.81,0,0,0-.19.59.82.82,0,0,0,.15.52A.47.47,0,0,0,37.57,119.43Z" style="fill:#232f3e"/><path d="M42.71,120.35v-6.41h-2v-1.22h5.68v1.22h-2v6.41Z" style="fill:#232f3e"/><path d="M49.66,120.35l-.15-.51a1.42,1.42,0,0,1-.59.47,1.85,1.85,0,0,1-.78.18A1.56,1.56,0,0,1,47,120a1.66,1.66,0,0,1-.44-1.22,1.69,1.69,0,0,1,.53-1.31,2.08,2.08,0,0,1,1.44-.47,4,4,0,0,1,.93.13v-.51a1.32,1.32,0,0,0-.17-.78.77.77,0,0,0-.61-.2,5.9,5.9,0,0,0-1.77.35v-1a3.07,3.07,0,0,1,.92-.33,5.57,5.57,0,0,1,1.16-.12,2.18,2.18,0,0,1,1.51.44,1.78,1.78,0,0,1,.47,1.39v3.94Zm-1-.92a1.21,1.21,0,0,0,.8-.35V118a2.38,2.38,0,0,0-.63-.07.69.69,0,0,0-.54.2.85.85,0,0,0-.18.59.82.82,0,0,0,.15.52A.47.47,0,0,0,48.62,119.43Z" style="fill:#232f3e"/><path d="M53.2,113.81a1,1,0,0,1-.71-.22.76.76,0,0,1-.27-.61.75.75,0,0,1,.27-.61,1.2,1.2,0,0,1,1.41,0,.77.77,0,0,1,.26.61.79.79,0,0,1-.26.61A1,1,0,0,1,53.2,113.81Zm-.83,6.54v-5.63H54v5.63Z" style="fill:#232f3e"/><path d="M57.87,120.25a2.69,2.69,0,0,1-1,.16,1.43,1.43,0,0,1-1.08-.37,1.54,1.54,0,0,1-.35-1.12v-6.71h1.65v6.54a.77.77,0,0,0,.07.4.37.37,0,0,0,.32.12,2.14,2.14,0,0,0,.35,0Z" style="fill:#232f3e"/><path d="M61,120.49a2.29,2.29,0,0,1-1.84-.77,4,4,0,0,1,0-4.37,2.6,2.6,0,0,1,3.69,0,4,4,0,0,1,0,4.37A2.31,2.31,0,0,1,61,120.49Zm0-1.15a.67.67,0,0,0,.65-.43,4.79,4.79,0,0,0,0-2.74.67.67,0,0,0-.65-.44.66.66,0,0,0-.64.44,4.79,4.79,0,0,0,0,2.74A.66.66,0,0,0,61,119.34Z" style="fill:#232f3e"/><path d="M64.64,120.35v-5.63H66l.18.73a2.5,2.5,0,0,1,.72-.59,1.55,1.55,0,0,1,.75-.19,2.56,2.56,0,0,1,.39,0V116a5,5,0,0,0-.64,0,2.47,2.47,0,0,0-1.1.26v4.11Z" style="fill:#232f3e"/></g><g id="ICONS_-_EDIT" data-name="ICONS - EDIT"><g id="MARK_-_AWS_Elemental_MediaTailor" data-name="MARK - AWS_Elemental_MediaTailor"><path d="M39,63V54L24.55,45.67a1,1,0,0,1,0-1.74l6.85-4-6.85-4a1,1,0,0,1-.5-.86,1,1,0,0,1,.5-.87l9.68-5.59-.73-.42a1,1,0,0,1-.5-.87V20.48a1,1,0,0,1,.5-.86l6-3.47a1,1,0,0,1,1,0l6,3.47a1,1,0,0,1,.5.86v6.93a1,1,0,0,1-.5.87l-.73.42,9.68,5.59a1,1,0,0,1,.5.87,1,1,0,0,1-.5.86L48.6,40l6.85,4a1,1,0,0,1,0,1.74L41,54v9ZM27.05,44.8l13,7.48L53,44.8,46.6,41.13,41,44.37V46H39V44.37l-5.6-3.24Zm0-9.64,13,7.47,13-7.47-9.18-5.31L41,31.45v4.49H39V31.45l-2.77-1.6Zm8-8.33,5,2.89,5-2.89V21.06l-5-2.89-5,2.89Zm11.24,33.8-1-1.74L59,51V43.08h2v8.45a1,1,0,0,1-.5.86Zm-12.48,0L19.5,52.39a1,1,0,0,1-.5-.86V43.08h2V51l13.76,7.94ZM61,36.87H59V29L50.24,24l1-1.73,9.26,5.35a1,1,0,0,1,.5.86Zm-40,0H19V28.43a1,1,0,0,1,.5-.86l9.26-5.35,1,1.73L21,29Z" style="fill:#fff"/></g></g></svg>