<svg xmlns="http://www.w3.org/2000/svg" width="80" height="100" viewBox="0 0 80 100"><title>Artboard 71</title><g id="CARDS"><rect x="1" y="1" width="78" height="78" style="fill:#232f3e"/><path d="M0,0V80H0v20H80V80h0V0ZM1,1H79V79H1Z" style="fill:#fff"/></g><g id="TEXT_-_EDIT" data-name="TEXT - EDIT"><path d="M15.3,92.35l-.43-1.82h-2l-.42,1.82H10.68L13,84.72h1.87l2.3,7.63Zm-2.18-2.92h1.5l-.76-3.16Z" style="fill:#232f3e"/><path d="M24,92.35V88.64a1.23,1.23,0,0,0-.14-.69.49.49,0,0,0-.46-.22,1.53,1.53,0,0,0-.79.26s0,.08,0,.12v4.24H21V88.64a1.32,1.32,0,0,0-.14-.69.5.5,0,0,0-.47-.22,1.55,1.55,0,0,0-.78.26v4.36H17.94V86.72h1.35l.13.51a3.31,3.31,0,0,1,1.81-.65,1.25,1.25,0,0,1,1.2.67,3.39,3.39,0,0,1,1.84-.67,1.28,1.28,0,0,1,1,.42,1.85,1.85,0,0,1,.36,1.22v4.13Z" style="fill:#232f3e"/><path d="M30,92.35l-.14-.51a1.49,1.49,0,0,1-.59.47,1.85,1.85,0,0,1-.78.18A1.56,1.56,0,0,1,27.27,92a1.66,1.66,0,0,1-.44-1.22,1.69,1.69,0,0,1,.53-1.31A2.07,2.07,0,0,1,28.8,89a4,4,0,0,1,.92.13v-.51a1.33,1.33,0,0,0-.16-.78.77.77,0,0,0-.61-.2,5.9,5.9,0,0,0-1.77.35V87a3,3,0,0,1,.92-.33,5.47,5.47,0,0,1,1.15-.12,2.19,2.19,0,0,1,1.52.44,1.82,1.82,0,0,1,.47,1.39v3.94Zm-1-.92a1.17,1.17,0,0,0,.79-.35V90a2.25,2.25,0,0,0-.62-.07.68.68,0,0,0-.54.2.85.85,0,0,0-.19.59.82.82,0,0,0,.15.52A.5.5,0,0,0,28.93,91.43Z" style="fill:#232f3e"/><path d="M32.23,92.35V91.28l2.49-3.4H32.33V86.72h4.13v1.07L34,91.19h2.55v1.16Z" style="fill:#232f3e"/><path d="M39.75,92.49a2.31,2.31,0,0,1-1.85-.77,4,4,0,0,1,0-4.37,2.6,2.6,0,0,1,3.69,0,4,4,0,0,1,0,4.37A2.29,2.29,0,0,1,39.75,92.49Zm0-1.15a.66.66,0,0,0,.64-.43,4.79,4.79,0,0,0,0-2.74.69.69,0,0,0-1.29,0,4.79,4.79,0,0,0,0,2.74A.67.67,0,0,0,39.75,91.34Z" style="fill:#232f3e"/><path d="M46.51,92.35v-3.7a1.25,1.25,0,0,0-.15-.7.54.54,0,0,0-.49-.22,1.57,1.57,0,0,0-.82.26v4.36H43.4V86.72h1.35l.13.51a3.35,3.35,0,0,1,1.84-.65,1.35,1.35,0,0,1,1.07.42,1.83,1.83,0,0,1,.37,1.22v4.13Z" style="fill:#232f3e"/><path d="M52.2,92.35V84.72h4.55V85.9H53.89v1.95h2.29V89H53.89v2.15h2.86v1.18Z" style="fill:#232f3e"/><path d="M62.79,92.13a4.59,4.59,0,0,1-1.78.34q-3.37,0-3.37-3.9a4.4,4.4,0,0,1,.88-2.95,3.15,3.15,0,0,1,2.53-1,4.72,4.72,0,0,1,1.65.3v1.21a5.74,5.74,0,0,0-1.45-.23,1.62,1.62,0,0,0-1.4.61,3.37,3.37,0,0,0-.44,1.93v.25a3.27,3.27,0,0,0,.43,1.9,1.57,1.57,0,0,0,1.38.61,7.14,7.14,0,0,0,1.57-.26Z" style="fill:#232f3e"/><path d="M65.23,89A3.6,3.6,0,0,1,64,88a2,2,0,0,1-.39-1.23,2.07,2.07,0,0,1,.34-1.17,2.17,2.17,0,0,1,.92-.77,3.19,3.19,0,0,1,1.35-.27,4.92,4.92,0,0,1,1.89.39v1.17a5.5,5.5,0,0,0-1.72-.33,1.27,1.27,0,0,0-.8.23.78.78,0,0,0-.29.64.81.81,0,0,0,.19.56,2.14,2.14,0,0,0,.71.48l.66.32a5.33,5.33,0,0,1,1,.62,1.86,1.86,0,0,1,.54.69,2.13,2.13,0,0,1,.18.92,2,2,0,0,1-.75,1.65,3.09,3.09,0,0,1-2,.61,5.43,5.43,0,0,1-1.13-.12,3.9,3.9,0,0,1-.95-.32V90.92a7.68,7.68,0,0,0,1,.25,5.53,5.53,0,0,0,1,.11,1.32,1.32,0,0,0,.88-.25.86.86,0,0,0,.3-.71.84.84,0,0,0-.21-.58,2.4,2.4,0,0,0-.7-.47Z" style="fill:#232f3e"/></g><g id="ICONS_-_EDIT" data-name="ICONS - EDIT"><path d="M40,65.81a1,1,0,0,1-.5-.14l-21-12.15a1,1,0,0,1-.5-.87V28.34a1,1,0,0,1,.5-.86L37.76,16.33a1,1,0,0,1,1.5.86V27.77a1,1,0,0,1-.5.86L29.1,34.2V46.78L40,53.08l9.54-5.51a1,1,0,0,1,1,0l9.18,5.29a1,1,0,0,1,.5.86,1,1,0,0,1-.5.87L40.5,65.67A1,1,0,0,1,40,65.81ZM20,52.07,40,63.65l17.22-9.94L50,49.59,40.5,55.1a1,1,0,0,1-1,0L27.6,48.23a1,1,0,0,1-.5-.87V33.62a1,1,0,0,1,.5-.86l9.66-5.57V18.93L20,28.92Z" style="fill:#fff"/><path d="M61.05,51.55a1,1,0,0,1-.5-.14L51.4,46.15a1,1,0,0,1-.5-.87V34.2l-9.48-5.47a1,1,0,0,1-.5-.86V17.29a1,1,0,0,1,1.5-.86L61.55,27.48a1,1,0,0,1,.5.86V50.55a1,1,0,0,1-1,1ZM52.9,44.71l7.15,4.11V28.92L42.92,19v8.26l9.48,5.47a1,1,0,0,1,.5.86Z" style="fill:#fff"/></g></svg>