<svg xmlns="http://www.w3.org/2000/svg" width="80" height="115" viewBox="0 0 80 115"><title>architecture-product-card_AWS_Direct_Connect</title><g id="CARDS"><rect x="1" y="1" width="78" height="78" style="fill:#232f3e"/><path d="M0,0V80H0v35H80V80h0V0ZM1,1H79V79H1Z" style="fill:#fff"/></g><g id="TEXT_-_EDIT" data-name="TEXT - EDIT"><path d="M18.12,92.35l-.43-1.82h-2l-.42,1.82H13.5l2.31-7.63h1.87L20,92.35Zm-2.18-2.92h1.5l-.76-3.16Z" style="fill:#232f3e"/><path d="M25.33,92.35l-.94-5.63-.9,5.63H21.63l-1.79-7.63h1.7l1.06,6.06L23.52,85h1.83l.94,5.65,1-6H29l-1.79,7.63Z" style="fill:#232f3e"/><path d="M31.28,89A3.6,3.6,0,0,1,30,88a2,2,0,0,1-.39-1.23A2.07,2.07,0,0,1,30,85.6a2.17,2.17,0,0,1,.92-.77,3.19,3.19,0,0,1,1.35-.27,4.92,4.92,0,0,1,1.89.39v1.17a5.5,5.5,0,0,0-1.72-.33,1.27,1.27,0,0,0-.8.23.78.78,0,0,0-.29.64.81.81,0,0,0,.19.56,2.09,2.09,0,0,0,.72.48l.65.32a5.33,5.33,0,0,1,1,.62,1.76,1.76,0,0,1,.54.69,2.13,2.13,0,0,1,.18.92,2,2,0,0,1-.74,1.65,3.13,3.13,0,0,1-2,.61,5.5,5.5,0,0,1-1.13-.12,3.9,3.9,0,0,1-.95-.32V90.92a7.45,7.45,0,0,0,1,.25,5.33,5.33,0,0,0,.95.11,1.32,1.32,0,0,0,.88-.25.86.86,0,0,0,.3-.71.84.84,0,0,0-.21-.58,2.4,2.4,0,0,0-.7-.47Z" style="fill:#232f3e"/><path d="M38.35,92.35V84.72h2.52a2.92,2.92,0,0,1,2.36,1A4.33,4.33,0,0,1,44,88.53a4.42,4.42,0,0,1-.8,2.85,2.83,2.83,0,0,1-2.31,1ZM40,85.9v5.27h.71a1.3,1.3,0,0,0,1.17-.62,3.8,3.8,0,0,0,.38-1.91v-.22a3.65,3.65,0,0,0-.38-1.91,1.28,1.28,0,0,0-1.18-.61Z" style="fill:#232f3e"/><path d="M46.22,85.81a1,1,0,0,1-.71-.22.76.76,0,0,1-.27-.61.75.75,0,0,1,.27-.61,1.2,1.2,0,0,1,1.41,0,.77.77,0,0,1,.26.61.79.79,0,0,1-.26.61A1,1,0,0,1,46.22,85.81Zm-.83,6.54V86.72H47v5.63Z" style="fill:#232f3e"/><path d="M48.49,92.35V86.72h1.35l.18.73a2.64,2.64,0,0,1,.72-.59,1.55,1.55,0,0,1,.75-.19,2.56,2.56,0,0,1,.39,0V88a5,5,0,0,0-.64,0,2.43,2.43,0,0,0-1.09.26v4.11Z" style="fill:#232f3e"/><path d="M53.84,89.92A1.77,1.77,0,0,0,54.2,91a1.46,1.46,0,0,0,1.07.33,3.26,3.26,0,0,0,.68-.09,6.31,6.31,0,0,0,.8-.21v1a3,3,0,0,1-.83.31,4.77,4.77,0,0,1-1,.11c-1.72,0-2.58-1-2.58-2.95a3.37,3.37,0,0,1,.63-2.2,2.23,2.23,0,0,1,1.83-.76c1.36,0,2,.76,2,2.29a4.32,4.32,0,0,1-.12,1Zm.92-2.32c-.58,0-.88.46-.92,1.37h1.62v-.25a1.68,1.68,0,0,0-.17-.86A.59.59,0,0,0,54.76,87.6Z" style="fill:#232f3e"/><path d="M61.63,92.09a2.09,2.09,0,0,1-.64.26,3.59,3.59,0,0,1-.81.09,2.27,2.27,0,0,1-1.84-.73,3.24,3.24,0,0,1-.63-2.16,3.16,3.16,0,0,1,.67-2.16,2.34,2.34,0,0,1,1.87-.76A2.87,2.87,0,0,1,61.6,87v1a3.08,3.08,0,0,0-1-.19,1.06,1.06,0,0,0-.94.4,2.37,2.37,0,0,0-.28,1.29v.16a2.23,2.23,0,0,0,.28,1.28,1,1,0,0,0,.9.4,3.32,3.32,0,0,0,1.09-.21Z" style="fill:#232f3e"/><path d="M66,92.2a3.47,3.47,0,0,1-1.23.22A1.47,1.47,0,0,1,63,90.72v-2.9h-.73V86.9l.78-.15.24-1.54h1.36v1.51h1.28v1.1H64.65v2.77a.79.79,0,0,0,.14.52.7.7,0,0,0,.53.16,2.86,2.86,0,0,0,.63-.08Z" style="fill:#232f3e"/><path d="M26.31,106.13a4.64,4.64,0,0,1-1.79.34c-2.24,0-3.37-1.3-3.37-3.9A4.4,4.4,0,0,1,22,99.62a3.16,3.16,0,0,1,2.53-1,4.72,4.72,0,0,1,1.65.3v1.21a5.61,5.61,0,0,0-1.44-.23,1.61,1.61,0,0,0-1.4.61,3.29,3.29,0,0,0-.45,1.93v.25a3.26,3.26,0,0,0,.44,1.9,1.55,1.55,0,0,0,1.37.61,7.12,7.12,0,0,0,1.58-.26Z" style="fill:#232f3e"/><path d="M29.54,106.49a2.31,2.31,0,0,1-1.85-.77,4,4,0,0,1,0-4.37,2.6,2.6,0,0,1,3.69,0,4,4,0,0,1,0,4.37A2.29,2.29,0,0,1,29.54,106.49Zm0-1.15a.66.66,0,0,0,.64-.43,4.79,4.79,0,0,0,0-2.74.69.69,0,0,0-1.29,0,4.79,4.79,0,0,0,0,2.74A.67.67,0,0,0,29.54,105.34Z" style="fill:#232f3e"/><path d="M36.3,106.35v-3.7a1.25,1.25,0,0,0-.15-.7.54.54,0,0,0-.49-.22,1.57,1.57,0,0,0-.82.26v4.36H33.19v-5.63h1.35l.13.51a3.35,3.35,0,0,1,1.84-.65,1.35,1.35,0,0,1,1.07.42,1.83,1.83,0,0,1,.37,1.22v4.13Z" style="fill:#232f3e"/><path d="M42.45,106.35v-3.7a1.36,1.36,0,0,0-.14-.7.55.55,0,0,0-.5-.22A1.59,1.59,0,0,0,41,102v4.36H39.34v-5.63h1.35l.13.51a3.38,3.38,0,0,1,1.85-.65,1.33,1.33,0,0,1,1.06.42,1.78,1.78,0,0,1,.37,1.22v4.13Z" style="fill:#232f3e"/><path d="M46.72,103.92a1.66,1.66,0,0,0,.36,1.12,1.43,1.43,0,0,0,1.06.33,3.26,3.26,0,0,0,.68-.09,5.9,5.9,0,0,0,.8-.21v1a2.77,2.77,0,0,1-.83.31,4.77,4.77,0,0,1-1,.11c-1.72,0-2.58-1-2.58-2.95a3.37,3.37,0,0,1,.63-2.2,2.26,2.26,0,0,1,1.83-.76c1.37,0,2,.76,2,2.29a4.32,4.32,0,0,1-.12,1Zm.91-2.32c-.58,0-.88.46-.91,1.37h1.61v-.25a1.68,1.68,0,0,0-.17-.86A.59.59,0,0,0,47.63,101.6Z" style="fill:#232f3e"/><path d="M54.5,106.09a2,2,0,0,1-.64.26,3.59,3.59,0,0,1-.81.09,2.28,2.28,0,0,1-1.84-.73,3.91,3.91,0,0,1,0-4.32,2.36,2.36,0,0,1,1.88-.76,2.93,2.93,0,0,1,1.35.33v1a3.14,3.14,0,0,0-1-.19,1.05,1.05,0,0,0-.93.4,2.28,2.28,0,0,0-.29,1.29v.16a2.31,2.31,0,0,0,.28,1.28,1,1,0,0,0,.9.4,3.27,3.27,0,0,0,1.09-.21Z" style="fill:#232f3e"/><path d="M58.82,106.2a3.46,3.46,0,0,1-1.22.22,1.83,1.83,0,0,1-1.32-.4,1.81,1.81,0,0,1-.41-1.3v-2.9h-.73v-.92l.78-.15.24-1.54h1.36v1.51H58.8v1.1H57.52v2.77a.73.73,0,0,0,.15.52.67.67,0,0,0,.53.16,2.85,2.85,0,0,0,.62-.08Z" style="fill:#232f3e"/></g><g id="ICONS_-_EDIT" data-name="ICONS - EDIT"><path d="M55,46.5H48v-2h7c2.41,0,8-.72,8-7.4,0-4-2.35-6.52-7-7.45a1,1,0,0,1-.8-.92c-.23-3.91-2.5-5.29-4.37-5.29a4.07,4.07,0,0,0-3.25,1.65,1,1,0,0,1-.95.39,1,1,0,0,1-.79-.65,12.88,12.88,0,0,0-3.13-4.95,11.16,11.16,0,0,0-19.2,7.47,11.63,11.63,0,0,0,.08,1.34,1,1,0,0,1-.75,1.1C20.66,30.32,17,32,17,37c0,.17,0,.34,0,.52a7.62,7.62,0,0,0,7.83,7H30v2H24.85A9.63,9.63,0,0,1,15,37.68c0-.24,0-.44,0-.65a8.89,8.89,0,0,1,6.53-9c0-.24,0-.49,0-.73a13.17,13.17,0,0,1,22.6-8.91,14.67,14.67,0,0,1,3,4.28,5.93,5.93,0,0,1,3.7-1.28c2.8,0,5.75,2,6.3,6.41C62.21,29.1,65,32.37,65,37.1,65,44,59.83,46.5,55,46.5Z" style="fill:#fff"/><path d="M49,59.5H47V53.27c0-.42-.47-.77-1-.77H32c-.56,0-1,.35-1,.77V59.5H29V53.27a2.91,2.91,0,0,1,3-2.77H46a2.91,2.91,0,0,1,3,2.77Z" style="fill:#fff"/><path d="M33,40.5a4,4,0,1,1,4-4A4,4,0,0,1,33,40.5Zm0-6a2,2,0,1,0,2,2A2,2,0,0,0,33,34.5Z" style="fill:#fff"/><path d="M45,40.5a4,4,0,1,1,4-4A4,4,0,0,1,45,40.5Zm0-6a2,2,0,1,0,2,2A2,2,0,0,0,45,34.5Z" style="fill:#fff"/><path d="M38.94,33.5a4,4,0,1,1,4-4A4,4,0,0,1,38.94,33.5Zm0-6a2,2,0,1,0,2,2A2,2,0,0,0,38.94,27.5Z" style="fill:#fff"/><rect x="32" y="39.5" width="2" height="10" style="fill:#fff"/><rect x="38" y="32.5" width="2" height="17" style="fill:#fff"/><rect x="44" y="39.5" width="2" height="10" style="fill:#fff"/><path d="M52,64.5H50V61.61c0-.63-.37-1.11-.69-1.11H28.69c-.32,0-.69.48-.69,1.11V64.5H26V61.61a2.93,2.93,0,0,1,2.69-3.11H49.31A2.93,2.93,0,0,1,52,61.61Z" style="fill:#fff"/></g></svg>