<svg xmlns="http://www.w3.org/2000/svg" width="80" height="115" viewBox="0 0 80 115"><title>architecture-product-card_Amazon_Aurora</title><g id="CARDS"><rect x="1" y="1" width="78" height="78" style="fill:#232f3e"/><path d="M0,0V80H0v35H80V80h0V0ZM1,1H79V79H1Z" style="fill:#fff"/></g><g id="TEXT_-_EDIT" data-name="TEXT - EDIT"><path d="M25.35,92.35l-.43-1.82h-2l-.42,1.82H20.72L23,84.72H24.9l2.31,7.63Zm-2.18-2.92h1.49l-.76-3.16Z" style="fill:#232f3e"/><path d="M34.06,92.35V88.64a1.32,1.32,0,0,0-.14-.69.49.49,0,0,0-.46-.22,1.59,1.59,0,0,0-.8.26.5.5,0,0,1,0,.12v4.24H31V88.64a1.33,1.33,0,0,0-.13-.69.51.51,0,0,0-.47-.22,1.55,1.55,0,0,0-.78.26v4.36H28V86.72h1.35l.13.51a3.31,3.31,0,0,1,1.81-.65,1.25,1.25,0,0,1,1.2.67,3.38,3.38,0,0,1,1.83-.67,1.3,1.3,0,0,1,1,.42,1.85,1.85,0,0,1,.36,1.22v4.13Z" style="fill:#232f3e"/><path d="M40,92.35l-.14-.51a1.56,1.56,0,0,1-.59.47,1.86,1.86,0,0,1-.79.18A1.57,1.57,0,0,1,37.31,92a1.65,1.65,0,0,1-.43-1.22,1.69,1.69,0,0,1,.53-1.31A2,2,0,0,1,38.84,89a4,4,0,0,1,.93.13v-.51a1.33,1.33,0,0,0-.16-.78.77.77,0,0,0-.61-.2,5.9,5.9,0,0,0-1.77.35V87a3,3,0,0,1,.92-.33,5.47,5.47,0,0,1,1.15-.12,2.19,2.19,0,0,1,1.52.44,1.82,1.82,0,0,1,.47,1.39v3.94Zm-1-.92a1.17,1.17,0,0,0,.79-.35V90a2.3,2.3,0,0,0-.62-.07.67.67,0,0,0-.54.2.81.81,0,0,0-.19.59.82.82,0,0,0,.15.52A.49.49,0,0,0,39,91.43Z" style="fill:#232f3e"/><path d="M42.28,92.35V91.28l2.49-3.4h-2.4V86.72h4.14v1.07L44,91.19h2.54v1.16Z" style="fill:#232f3e"/><path d="M49.79,92.49A2.3,2.3,0,0,1,48,91.72a4,4,0,0,1,0-4.37,2.6,2.6,0,0,1,3.69,0,4,4,0,0,1,0,4.37A2.31,2.31,0,0,1,49.79,92.49Zm0-1.15a.67.67,0,0,0,.65-.43,4.79,4.79,0,0,0,0-2.74.69.69,0,0,0-1.29,0,4.79,4.79,0,0,0,0,2.74A.66.66,0,0,0,49.79,91.34Z" style="fill:#232f3e"/><path d="M56.55,92.35v-3.7a1.36,1.36,0,0,0-.14-.7.55.55,0,0,0-.5-.22,1.56,1.56,0,0,0-.81.26v4.36H53.44V86.72h1.35l.14.51a3.32,3.32,0,0,1,1.84-.65,1.35,1.35,0,0,1,1.07.42,1.83,1.83,0,0,1,.36,1.22v4.13Z" style="fill:#232f3e"/><path d="M28.28,106.35l-.44-1.82h-2l-.42,1.82H23.65L26,98.72h1.86l2.3,7.63Zm-2.18-2.92h1.49l-.76-3.16Z" style="fill:#232f3e"/><path d="M34.18,106.35l-.13-.51a3.15,3.15,0,0,1-1.78.65,1.24,1.24,0,0,1-1-.43,2,2,0,0,1-.35-1.24v-4.1h1.65v3.62a1.59,1.59,0,0,0,.14.77.44.44,0,0,0,.44.23,1.42,1.42,0,0,0,.76-.25v-4.37h1.65v5.63Z" style="fill:#232f3e"/><path d="M37,106.35v-5.63H38.3l.18.73a2.5,2.5,0,0,1,.72-.59,1.55,1.55,0,0,1,.75-.19,2.56,2.56,0,0,1,.39,0V102a5,5,0,0,0-.64,0,2.47,2.47,0,0,0-1.1.26v4.11Z" style="fill:#232f3e"/><path d="M43.31,106.49a2.29,2.29,0,0,1-1.84-.77,4,4,0,0,1,0-4.37,2.6,2.6,0,0,1,3.69,0,4,4,0,0,1,0,4.37A2.31,2.31,0,0,1,43.31,106.49Zm0-1.15a.67.67,0,0,0,.65-.43,4.79,4.79,0,0,0,0-2.74.67.67,0,0,0-.65-.44.66.66,0,0,0-.64.44,4.79,4.79,0,0,0,0,2.74A.66.66,0,0,0,43.31,105.34Z" style="fill:#232f3e"/><path d="M47,106.35v-5.63h1.35l.18.73a2.5,2.5,0,0,1,.72-.59,1.55,1.55,0,0,1,.75-.19,2.56,2.56,0,0,1,.39,0V102a5,5,0,0,0-.64,0,2.47,2.47,0,0,0-1.1.26v4.11Z" style="fill:#232f3e"/><path d="M54,106.35l-.15-.51a1.42,1.42,0,0,1-.59.47,1.78,1.78,0,0,1-.78.18A1.56,1.56,0,0,1,51.3,106a1.91,1.91,0,0,1,.1-2.53,2,2,0,0,1,1.43-.47,4,4,0,0,1,.93.13v-.51a1.42,1.42,0,0,0-.16-.78.78.78,0,0,0-.61-.2,5.79,5.79,0,0,0-1.77.35v-1a2.9,2.9,0,0,1,.91-.33,5.57,5.57,0,0,1,1.16-.12,2.21,2.21,0,0,1,1.52.44,1.82,1.82,0,0,1,.47,1.39v3.94Zm-1-.92a1.19,1.19,0,0,0,.8-.35V104a2.38,2.38,0,0,0-.63-.07.66.66,0,0,0-.53.2.81.81,0,0,0-.19.59.82.82,0,0,0,.15.52A.47.47,0,0,0,53,105.43Z" style="fill:#232f3e"/></g><g id="ICONS_-_EDIT" data-name="ICONS - EDIT"><path d="M30,33.55c-6.79,0-14-2.1-14-6s7.21-6,14-6,14,2.1,14,6S36.79,33.55,30,33.55Zm0-10c-7.43,0-12,2.33-12,4s4.57,4,12,4,12-2.33,12-4S37.43,23.55,30,23.55Z" style="fill:#fff"/><rect x="42" y="27.55" width="2" height="16" style="fill:#fff"/><path d="M30,62.52c-6.79,0-14-2.14-14-6.1V27.55h2V56.42c0,1.71,4.56,4.1,12,4.1s12-2.39,12-4.1V53.55h2v2.87C44,60.38,36.78,62.52,30,62.52Z" style="fill:#fff"/><path d="M30,44.08c-6.79,0-14-2.11-14-6h2c0,1.69,4.57,4,12,4s12-2.34,12-4h2C44,42,36.79,44.08,30,44.08Z" style="fill:#fff"/><path d="M30.06,54c-6.79,0-14-2.12-14-6h2c0,1.68,4.56,4,12,4a26.43,26.43,0,0,0,8.33-1.23L39,52.63A28.42,28.42,0,0,1,30.06,54Z" style="fill:#fff"/><path d="M51.1,63.45a1,1,0,0,1-1-1c0-6-6.87-12.9-12.89-12.9a1,1,0,1,1,0-2c6,0,12.89-6.87,12.89-12.89a1,1,0,0,1,2,0c0,6,6.87,12.89,12.9,12.89a1,1,0,0,1,0,2c-6,0-12.9,6.87-12.9,12.9A1,1,0,0,1,51.1,63.45Zm-9.29-14.9a18.32,18.32,0,0,1,9.29,9.3,18.34,18.34,0,0,1,9.3-9.3,18.28,18.28,0,0,1-9.3-9.29A18.26,18.26,0,0,1,41.81,48.55Z" style="fill:#fff"/><rect x="55" y="26.55" width="2" height="6" style="fill:#fff"/><rect x="53" y="28.55" width="6" height="2" style="fill:#fff"/><rect x="45" y="17.55" width="2" height="6" style="fill:#fff"/><rect x="43" y="19.55" width="6" height="2" style="fill:#fff"/></g></svg>