<svg xmlns="http://www.w3.org/2000/svg" width="80" height="100" viewBox="0 0 80 100"><title>architecture-product-card_AWS_IoT_Core</title><g id="CARDS"><rect x="1" y="1" width="78" height="78" style="fill:#232f3e"/><path d="M0,0V80H0v20H80V80h0V0ZM1,1H79V79H1Z" style="fill:#fff"/></g><g id="TEXT_-_EDIT" data-name="TEXT - EDIT"><path d="M12.81,92.35l-.44-1.82h-2L10,92.35H8.18l2.32-7.63h1.86l2.3,7.63Zm-2.18-2.92h1.49l-.76-3.16Z" style="fill:#232f3e"/><path d="M20,92.35l-.94-5.63-.89,5.63H16.31l-1.78-7.63h1.7l1.06,6.06L18.21,85H20L21,90.68l1-6h1.66l-1.78,7.63Z" style="fill:#232f3e"/><path d="M26,89a3.55,3.55,0,0,1-1.27-1,2,2,0,0,1-.39-1.23,2,2,0,0,1,.34-1.17,2.11,2.11,0,0,1,.92-.77,3.18,3.18,0,0,1,1.34-.27,4.93,4.93,0,0,1,1.9.39v1.17a5.5,5.5,0,0,0-1.73-.33,1.26,1.26,0,0,0-.79.23.75.75,0,0,0-.29.64.81.81,0,0,0,.19.56,2.14,2.14,0,0,0,.71.48l.65.32a5.12,5.12,0,0,1,1,.62,2,2,0,0,1,.54.69,2.29,2.29,0,0,1,.17.92,2,2,0,0,1-.74,1.65,3.09,3.09,0,0,1-2,.61,5.43,5.43,0,0,1-1.13-.12,3.76,3.76,0,0,1-.95-.32V90.92a7.29,7.29,0,0,0,1,.25,5.42,5.42,0,0,0,1,.11,1.32,1.32,0,0,0,.88-.25.86.86,0,0,0,.3-.71.84.84,0,0,0-.21-.58,2.47,2.47,0,0,0-.71-.47Z" style="fill:#232f3e"/><path d="M33.08,92.35V84.72h1.69v7.63Z" style="fill:#232f3e"/><path d="M38.58,92.49a2.27,2.27,0,0,1-1.84-.77,3.95,3.95,0,0,1,0-4.37,2.58,2.58,0,0,1,3.68,0,4,4,0,0,1,0,4.37A2.29,2.29,0,0,1,38.58,92.49Zm0-1.15a.65.65,0,0,0,.64-.43,4.79,4.79,0,0,0,0-2.74.65.65,0,0,0-.64-.44.67.67,0,0,0-.65.44,5,5,0,0,0,0,2.74A.67.67,0,0,0,38.58,91.34Z" style="fill:#232f3e"/><path d="M43.65,92.35V85.94h-2V84.72h5.69v1.22h-2v6.41Z" style="fill:#232f3e"/><path d="M55.77,92.13a4.59,4.59,0,0,1-1.78.34q-3.37,0-3.38-3.9a4.46,4.46,0,0,1,.88-2.95,3.16,3.16,0,0,1,2.53-1,4.64,4.64,0,0,1,1.65.3v1.21a5.61,5.61,0,0,0-1.44-.23,1.61,1.61,0,0,0-1.4.61,3.29,3.29,0,0,0-.45,1.93v.25a3.26,3.26,0,0,0,.44,1.9,1.55,1.55,0,0,0,1.37.61,7.12,7.12,0,0,0,1.58-.26Z" style="fill:#232f3e"/><path d="M59,92.49a2.27,2.27,0,0,1-1.84-.77,3.95,3.95,0,0,1,0-4.37,2.58,2.58,0,0,1,3.68,0,4,4,0,0,1,0,4.37A2.29,2.29,0,0,1,59,92.49Zm0-1.15a.65.65,0,0,0,.64-.43,4.79,4.79,0,0,0,0-2.74.65.65,0,0,0-.64-.44.67.67,0,0,0-.65.44,5,5,0,0,0,0,2.74A.67.67,0,0,0,59,91.34Z" style="fill:#232f3e"/><path d="M62.65,92.35V86.72H64l.18.73a2.5,2.5,0,0,1,.72-.59,1.49,1.49,0,0,1,.75-.19,2.34,2.34,0,0,1,.38,0V88a4.7,4.7,0,0,0-.63,0,2.47,2.47,0,0,0-1.1.26v4.11Z" style="fill:#232f3e"/><path d="M68,89.92A1.66,1.66,0,0,0,68.36,91a1.45,1.45,0,0,0,1.06.33,3.26,3.26,0,0,0,.68-.09,5.54,5.54,0,0,0,.8-.21v1a2.77,2.77,0,0,1-.83.31,4.77,4.77,0,0,1-1,.11c-1.72,0-2.58-1-2.58-2.95a3.32,3.32,0,0,1,.64-2.2A2.22,2.22,0,0,1,69,86.58c1.37,0,2.05.76,2.05,2.29a4.32,4.32,0,0,1-.12,1Zm.91-2.32c-.58,0-.88.46-.91,1.37h1.61v-.25a1.59,1.59,0,0,0-.17-.86A.59.59,0,0,0,68.91,87.6Z" style="fill:#232f3e"/></g><g id="ICONS_-_EDIT" data-name="ICONS - EDIT"><path d="M25.44,49.86h-.13a10.36,10.36,0,0,1-3.87-19.95,13.38,13.38,0,0,1,25.39-5.26,6.67,6.67,0,0,1,3.55-1,6.76,6.76,0,0,1,6.72,6.28A9.69,9.69,0,0,1,65,39.48a8.94,8.94,0,0,1-3,6.79l-1.37-1.46A7,7,0,0,0,63,39.56v-.1a7.7,7.7,0,0,0-7-7.69,1,1,0,0,1-.91-1.05V30.6a1.48,1.48,0,0,0,0-.21,4.72,4.72,0,0,0-8-3.44,1,1,0,0,1-1.63-.37,11.38,11.38,0,0,0-22.06,4,1,1,0,0,1-.69.95,8.36,8.36,0,0,0,2.58,16.3h.13Z" style="fill:#fff"/><rect x="43.04" y="40.73" width="2" height="24.13" style="fill:#fff"/><path d="M41,64.86H39v-15H36.09v-2H40a1,1,0,0,1,1,1Z" style="fill:#fff"/><path d="M49,64.86H47v-16a1,1,0,0,1,1-1h4v2H49Z" style="fill:#fff"/><path d="M44,41.73a4.25,4.25,0,1,1,4.25-4.25A4.25,4.25,0,0,1,44,41.73Zm0-6.5a2.25,2.25,0,1,0,2.25,2.25A2.25,2.25,0,0,0,44,35.23Z" style="fill:#fff"/><path d="M32.84,53.11a4.25,4.25,0,1,1,4.25-4.25A4.26,4.26,0,0,1,32.84,53.11Zm0-6.5a2.25,2.25,0,1,0,2.25,2.25A2.25,2.25,0,0,0,32.84,46.61Z" style="fill:#fff"/><path d="M55.24,53.11a4.25,4.25,0,1,1,4.25-4.25A4.26,4.26,0,0,1,55.24,53.11Zm0-6.5a2.25,2.25,0,1,0,2.25,2.25A2.26,2.26,0,0,0,55.24,46.61Z" style="fill:#fff"/><path d="M44,60.86a11.92,11.92,0,0,1-4.36-.81,12.29,12.29,0,0,1-7.28-7.69l1.9-.6a10.23,10.23,0,0,0,19.48,0l1.9.6a12.28,12.28,0,0,1-7.29,7.69A11.83,11.83,0,0,1,44,60.86Zm-9.8-15.17-1.92-.58a12.22,12.22,0,0,1,8.16-8.19l.59,1.91A10.23,10.23,0,0,0,34.24,45.69Zm19.6,0A10.2,10.2,0,0,0,47,38.82l.57-1.92a12.21,12.21,0,0,1,8.23,8.21Z" style="fill:#fff"/></g></svg>