<svg xmlns="http://www.w3.org/2000/svg" width="80" height="100" viewBox="0 0 80 100"><title>architecture-product-card_AWS_Config</title><g id="CARDS"><rect x="1" y="1" width="78" height="78" style="fill:#232f3e"/><path d="M0,0V80H0v20H80V80h0V0ZM1,1H79V79H1Z" style="fill:#fff"/></g><g id="TEXT_-_EDIT" data-name="TEXT - EDIT"><path d="M17.06,92.35l-.44-1.82h-2l-.42,1.82H12.43l2.31-7.63h1.87l2.3,7.63Zm-2.19-2.92h1.5l-.76-3.16Z" style="fill:#232f3e"/><path d="M24.26,92.35l-.94-5.63-.89,5.63H20.56l-1.78-7.63h1.7l1.06,6.06L22.45,85h1.83l.94,5.65,1-6h1.66l-1.78,7.63Z" style="fill:#232f3e"/><path d="M30.21,89a3.7,3.7,0,0,1-1.28-1,2,2,0,0,1-.38-1.23,2,2,0,0,1,.34-1.17,2.11,2.11,0,0,1,.92-.77,3.18,3.18,0,0,1,1.34-.27A4.85,4.85,0,0,1,33,85v1.17a5.44,5.44,0,0,0-1.72-.33,1.29,1.29,0,0,0-.8.23.77.77,0,0,0-.28.64.86.86,0,0,0,.18.56,2.32,2.32,0,0,0,.72.48l.65.32a4.73,4.73,0,0,1,1,.62,1.89,1.89,0,0,1,.55.69,2.29,2.29,0,0,1,.17.92,2,2,0,0,1-.74,1.65,3.1,3.1,0,0,1-2,.61,5.52,5.52,0,0,1-1.14-.12,4.06,4.06,0,0,1-.95-.32V90.92a7.85,7.85,0,0,0,1,.25,5.33,5.33,0,0,0,1,.11,1.34,1.34,0,0,0,.88-.25.86.86,0,0,0,.3-.71.84.84,0,0,0-.21-.58,2.47,2.47,0,0,0-.71-.47Z" style="fill:#232f3e"/><path d="M42.22,92.13a4.59,4.59,0,0,1-1.78.34q-3.37,0-3.37-3.9A4.4,4.4,0,0,1,38,85.62a3.15,3.15,0,0,1,2.53-1,4.72,4.72,0,0,1,1.65.3v1.21a5.74,5.74,0,0,0-1.45-.23,1.62,1.62,0,0,0-1.4.61,3.37,3.37,0,0,0-.44,1.93v.25a3.27,3.27,0,0,0,.43,1.9,1.57,1.57,0,0,0,1.38.61,7.14,7.14,0,0,0,1.57-.26Z" style="fill:#232f3e"/><path d="M45.45,92.49a2.29,2.29,0,0,1-1.84-.77,4,4,0,0,1,0-4.37,2.6,2.6,0,0,1,3.69,0,4,4,0,0,1,0,4.37A2.31,2.31,0,0,1,45.45,92.49Zm0-1.15a.67.67,0,0,0,.65-.43,4.79,4.79,0,0,0,0-2.74.67.67,0,0,0-.65-.44.65.65,0,0,0-.64.44,4.79,4.79,0,0,0,0,2.74A.65.65,0,0,0,45.45,91.34Z" style="fill:#232f3e"/><path d="M52.21,92.35v-3.7a1.36,1.36,0,0,0-.14-.7.56.56,0,0,0-.5-.22,1.59,1.59,0,0,0-.82.26v4.36H49.1V86.72h1.35l.13.51a3.38,3.38,0,0,1,1.85-.65,1.33,1.33,0,0,1,1.06.42,1.78,1.78,0,0,1,.37,1.22v4.13Z" style="fill:#232f3e"/><path d="M55.46,92.35V87.82h-.78V86.9l.78-.15v-.66a2.24,2.24,0,0,1,.45-1.52,1.69,1.69,0,0,1,1.35-.52,2.31,2.31,0,0,1,1,.2v1a1.63,1.63,0,0,0-.43,0,.66.66,0,0,0-.52.16,1,1,0,0,0-.15.62v.74h3.38v5.63H58.84V87.82H57.11v4.53Zm4.21-6.54a1,1,0,0,1-.71-.22.76.76,0,0,1-.27-.61.75.75,0,0,1,.27-.61,1.2,1.2,0,0,1,1.41,0,.77.77,0,0,1,.26.61.79.79,0,0,1-.26.61A1,1,0,0,1,59.67,85.81Z" style="fill:#232f3e"/><path d="M64.85,91.71a1.72,1.72,0,0,1-2.66-.21,3.46,3.46,0,0,1-.52-2,3.68,3.68,0,0,1,.53-2.11,1.71,1.71,0,0,1,1.47-.77,1.79,1.79,0,0,1,.7.17,1.76,1.76,0,0,1,.63.45l.13-.48h1.35V92c0,1.86-.86,2.79-2.57,2.79a3.92,3.92,0,0,1-1.83-.44v-1a5.45,5.45,0,0,0,1.61.35,1.45,1.45,0,0,0,.7-.13.72.72,0,0,0,.35-.44,3.19,3.19,0,0,0,.11-1Zm-.66-.6a1.26,1.26,0,0,0,.66-.22V88a1.35,1.35,0,0,0-.74-.27.63.63,0,0,0-.6.42,3.23,3.23,0,0,0-.19,1.3,3,3,0,0,0,.21,1.28A.7.7,0,0,0,64.19,91.11Z" style="fill:#232f3e"/></g><g id="ICONS_-_EDIT" data-name="ICONS - EDIT"><path d="M26.06,29.05h-4a1,1,0,0,1-1-1v-8a1,1,0,0,1,1-1h4a1,1,0,0,1,1,1v8A1,1,0,0,1,26.06,29.05Zm-3-2h2v-6h-2Z" style="fill:#fff"/><path d="M26.06,51.05h-4a1,1,0,0,1-1-1v-18a1,1,0,0,1,1-1h4a1,1,0,0,1,1,1v18A1,1,0,0,1,26.06,51.05Zm-3-2h2v-16h-2Z" style="fill:#fff"/><path d="M39.06,37.05H35a1,1,0,0,1-1-1v-16a1,1,0,0,1,1-1h4a1,1,0,0,1,1,1v16A1,1,0,0,1,39.06,37.05Zm-3-2h2v-14H36Z" style="fill:#fff"/><path d="M36.06,51.05H35a1,1,0,0,1-1-1v-10a1,1,0,0,1,1-1h4a1,1,0,0,1,1,1v2h-2v-1H36Z" style="fill:#fff"/><path d="M52.06,26.05h-4a1,1,0,0,1-1-1v-5a1,1,0,0,1,1-1h4a1,1,0,0,1,1,1v5A1,1,0,0,1,52.06,26.05Zm-3-2h2v-3h-2Z" style="fill:#fff"/><path d="M53.06,36.05h-2v-6h-2v6h-2v-7a1,1,0,0,1,1-1h4a1,1,0,0,1,1,1Z" style="fill:#fff"/><path d="M28.06,33.05h-8a1,1,0,0,1-1-1v-4a1,1,0,0,1,1-1h8a1,1,0,0,1,1,1v4A1,1,0,0,1,28.06,33.05Zm-7-2h6v-2h-6Z" style="fill:#fff"/><path d="M41.06,41.05h-8a1,1,0,0,1-1-1v-4a1,1,0,0,1,1-1h8a1,1,0,0,1,1,1v4A1,1,0,0,1,41.06,41.05Zm-7-2h6v-2h-6Z" style="fill:#fff"/><path d="M54.06,30.05h-8a1,1,0,0,1-1-1v-4a1,1,0,0,1,1-1h8a1,1,0,0,1,1,1v4A1,1,0,0,1,54.06,30.05Zm-7-2h6v-2h-6Z" style="fill:#fff"/><path d="M36.06,55.05h-20a1,1,0,0,1-1-1v-38a1,1,0,0,1,1-1h42a1,1,0,0,1,1,1v21h-2v-20h-40v36h19Z" style="fill:#fff"/><path d="M53.93,65H49a1,1,0,0,1-.73-.31A1,1,0,0,1,48,63.9L48,62.64a12.25,12.25,0,0,1-2.09-.86l-.83.93a1,1,0,0,1-.72.34,1,1,0,0,1-.74-.29l-3.51-3.52a1,1,0,0,1-.29-.73,1,1,0,0,1,.33-.72l.94-.84a11.12,11.12,0,0,1-.86-2.08L39,54.94a1.06,1.06,0,0,1-.74-.27,1,1,0,0,1-.32-.73V49A1,1,0,0,1,39,48l1.26.07A11.44,11.44,0,0,1,41.13,46l-1-.84a1,1,0,0,1-.33-.72,1,1,0,0,1,.29-.73l3.51-3.52a1.11,1.11,0,0,1,.74-.29,1.05,1.05,0,0,1,.72.33l.84,1A11.12,11.12,0,0,1,48,40.28L48,39a1,1,0,0,1,.27-.74A1,1,0,0,1,49,38h5a1,1,0,0,1,.72.32,1,1,0,0,1,.28.74l-.08,1.27a11.83,11.83,0,0,1,2.08.86l.85-1a1,1,0,0,1,.72-.33,1.1,1.1,0,0,1,.73.29l3.51,3.52a1,1,0,0,1,0,1.45l-.94.84A11.12,11.12,0,0,1,62.62,48L63.89,48a1,1,0,0,1,.74.27,1,1,0,0,1,.31.73v5a1,1,0,0,1-.31.73,1.06,1.06,0,0,1-.74.27l-1.26-.07A11.44,11.44,0,0,1,61.76,57l.94.84a1,1,0,0,1,.34.72,1,1,0,0,1-.3.73l-3.51,3.52a1.05,1.05,0,0,1-.73.29,1,1,0,0,1-.72-.33l-.84-.94a11.62,11.62,0,0,1-2.09.86l.08,1.26a1,1,0,0,1-.28.74A1,1,0,0,1,53.93,65ZM50,63h2.85l-.06-1a1,1,0,0,1,.78-1,9.52,9.52,0,0,0,3-1.25,1,1,0,0,1,1.28.18l.68.75,2-2-.76-.68a1,1,0,0,1-.18-1.28,9.52,9.52,0,0,0,1.25-3,1,1,0,0,1,1-.78l1,.06V50l-1,.06a1,1,0,0,1-1-.78,9.52,9.52,0,0,0-1.25-3A1,1,0,0,1,59.82,45l.76-.68-2-2-.69.77a1,1,0,0,1-1.28.18,9.46,9.46,0,0,0-3-1.25,1,1,0,0,1-.78-1l.06-1H50l0,1a1,1,0,0,1-.77,1,9.42,9.42,0,0,0-3,1.25A1,1,0,0,1,45,43.08l-.68-.77-2,2,.77.68a1,1,0,0,1,.18,1.28,9.78,9.78,0,0,0-1.26,3,1,1,0,0,1-1,.78l-1-.06v2.85l1-.06a1,1,0,0,1,1,.78,9.52,9.52,0,0,0,1.25,3,1,1,0,0,1-.18,1.28l-.76.68,2,2,.67-.75a1,1,0,0,1,1.29-.18,9.42,9.42,0,0,0,3,1.25,1,1,0,0,1,.77,1Z" style="fill:#fff"/><path d="M51.48,58a6.51,6.51,0,0,1-6.36-5.19l2-.4a4.49,4.49,0,0,0,8.8,0l2,.4A6.52,6.52,0,0,1,51.48,58Z" style="fill:#fff"/><path d="M55.88,50.58a4.49,4.49,0,0,0-8.8,0l-2-.4a6.49,6.49,0,0,1,12.72,0Z" style="fill:#fff"/><path d="M46.31,56.45l-2-.43.73-3.28A1,1,0,0,1,46.21,52l3.34.49-.3,2-2.41-.36Z" style="fill:#fff"/><path d="M56.94,51h-.1l-3.54-.38.21-2,2.75.3.83-2.36,1.89.67-1.09,3.1A1,1,0,0,1,56.94,51Z" style="fill:#fff"/></g></svg>