<svg xmlns="http://www.w3.org/2000/svg" width="80" height="115" viewBox="0 0 80 115"><title>architecture-product-card_ELB_Network_Load_Balancer</title><g id="CARDS"><rect x="1" y="1" width="78" height="78" style="fill:#232f3e"/><path d="M0,0V80H0v35H80V80h0V0ZM1,1H79V79H1Z" style="fill:#fff"/></g><g id="TEXT_-_EDIT" data-name="TEXT - EDIT"><path d="M8.71,87v5.37H7.31V84.72H9.19l2.52,5.35V84.72h1.4v7.63H11.25Z" style="fill:#232f3e"/><path d="M15.86,89.92A1.66,1.66,0,0,0,16.22,91a1.45,1.45,0,0,0,1.06.33,3.26,3.26,0,0,0,.68-.09,5.54,5.54,0,0,0,.8-.21v1a2.77,2.77,0,0,1-.83.31,4.77,4.77,0,0,1-1,.11c-1.72,0-2.58-1-2.58-2.95a3.32,3.32,0,0,1,.64-2.2,2.22,2.22,0,0,1,1.82-.76c1.37,0,2.05.76,2.05,2.29a4.32,4.32,0,0,1-.12,1Zm.91-2.32c-.58,0-.88.46-.91,1.37h1.61v-.25a1.68,1.68,0,0,0-.17-.86A.59.59,0,0,0,16.77,87.6Z" style="fill:#232f3e"/><path d="M23,92.2a3.47,3.47,0,0,1-1.23.22A1.8,1.8,0,0,1,20.5,92a1.77,1.77,0,0,1-.41-1.3v-2.9h-.74V86.9l.78-.15.24-1.54h1.37v1.51H23v1.1H21.74v2.77a.74.74,0,0,0,.14.52.69.69,0,0,0,.53.16,3,3,0,0,0,.63-.08Z" style="fill:#232f3e"/><path d="M28.31,92.35l-.79-4-.77,4H25.19l-1.55-5.63h1.71l.71,4,.77-4H28.3L29.12,91l.65-4.23h1.66l-1.56,5.63Z" style="fill:#232f3e"/><path d="M34.45,92.49a2.31,2.31,0,0,1-1.85-.77,4,4,0,0,1,0-4.37,2.6,2.6,0,0,1,3.69,0,4,4,0,0,1,0,4.37A2.29,2.29,0,0,1,34.45,92.49Zm0-1.15a.66.66,0,0,0,.64-.43,4.79,4.79,0,0,0,0-2.74.69.69,0,0,0-1.29,0,4.79,4.79,0,0,0,0,2.74A.67.67,0,0,0,34.45,91.34Z" style="fill:#232f3e"/><path d="M38.1,92.35V86.72h1.35l.18.73a2.61,2.61,0,0,1,.71-.59,1.56,1.56,0,0,1,.76-.19l.38,0V88a4.85,4.85,0,0,0-.64,0,2.43,2.43,0,0,0-1.09.26v4.11Z" style="fill:#232f3e"/><path d="M42.23,92.35V84.21h1.62v5l1.64-2.44h1.83l-2,2.69,2.17,2.94H45.61l-1.76-2.6v2.6Z" style="fill:#232f3e"/><path d="M50.88,92.35V84.72h1.68v6.4h2.85v1.23Z" style="fill:#232f3e"/><path d="M58.41,92.49a2.31,2.31,0,0,1-1.85-.77,4,4,0,0,1,0-4.37,2.6,2.6,0,0,1,3.69,0,4,4,0,0,1,0,4.37A2.29,2.29,0,0,1,58.41,92.49Zm0-1.15a.66.66,0,0,0,.64-.43,4.79,4.79,0,0,0,0-2.74.66.66,0,0,0-.64-.44.67.67,0,0,0-.65.44,4.79,4.79,0,0,0,0,2.74A.67.67,0,0,0,58.41,91.34Z" style="fill:#232f3e"/><path d="M65,92.35l-.14-.51a1.56,1.56,0,0,1-.59.47,1.86,1.86,0,0,1-.79.18A1.57,1.57,0,0,1,62.26,92a1.65,1.65,0,0,1-.43-1.22,1.69,1.69,0,0,1,.53-1.31A2,2,0,0,1,63.79,89a4,4,0,0,1,.93.13v-.51a1.33,1.33,0,0,0-.16-.78.77.77,0,0,0-.61-.2,5.9,5.9,0,0,0-1.77.35V87a3,3,0,0,1,.91-.33,5.64,5.64,0,0,1,1.16-.12,2.19,2.19,0,0,1,1.52.44,1.82,1.82,0,0,1,.47,1.39v3.94Zm-1-.92a1.17,1.17,0,0,0,.79-.35V90a2.33,2.33,0,0,0-.63-.07.66.66,0,0,0-.53.2.81.81,0,0,0-.19.59.82.82,0,0,0,.15.52A.49.49,0,0,0,63.93,91.43Z" style="fill:#232f3e"/><path d="M70.89,92.35l-.13-.49a2.12,2.12,0,0,1-.64.43,1.78,1.78,0,0,1-.71.15,1.74,1.74,0,0,1-1.51-.75,3.65,3.65,0,0,1-.54-2.13,3.73,3.73,0,0,1,.55-2.19,1.76,1.76,0,0,1,1.53-.79,2.08,2.08,0,0,1,.64.13,2.28,2.28,0,0,1,.6.33V84.21h1.65v8.14Zm-.93-1a1.34,1.34,0,0,0,.72-.22V88a1.48,1.48,0,0,0-.79-.26.71.71,0,0,0-.68.44,3.6,3.6,0,0,0-.2,1.39,3.05,3.05,0,0,0,.23,1.36A.75.75,0,0,0,70,91.32Z" style="fill:#232f3e"/><path d="M20,106.35V98.72h2.51a2.4,2.4,0,0,1,1.64.56,1.87,1.87,0,0,1,.64,1.47,1.83,1.83,0,0,1-.25,1,1.6,1.6,0,0,1-.74.61,1.92,1.92,0,0,1,1,.68,2,2,0,0,1,.34,1.18,1.92,1.92,0,0,1-.7,1.56,2.78,2.78,0,0,1-1.86.59Zm1.59-6.53v2.11h.67a.84.84,0,0,0,.66-.27,1.13,1.13,0,0,0,.24-.77,1.3,1.3,0,0,0-.21-.79.7.7,0,0,0-.58-.28Zm0,3.16v2.27h1a.9.9,0,0,0,.71-.29,1.28,1.28,0,0,0,.24-.84,1.19,1.19,0,0,0-.27-.84,1,1,0,0,0-.78-.3Z" style="fill:#232f3e"/><path d="M29.13,106.35l-.15-.51a1.42,1.42,0,0,1-.59.47,1.85,1.85,0,0,1-.78.18,1.56,1.56,0,0,1-1.18-.45,1.66,1.66,0,0,1-.44-1.22,1.69,1.69,0,0,1,.53-1.31A2.08,2.08,0,0,1,28,103a4,4,0,0,1,.93.13v-.51a1.32,1.32,0,0,0-.17-.78.77.77,0,0,0-.61-.2,5.9,5.9,0,0,0-1.77.35v-1a3.07,3.07,0,0,1,.92-.33,5.57,5.57,0,0,1,1.16-.12,2.18,2.18,0,0,1,1.51.44,1.78,1.78,0,0,1,.47,1.39v3.94Zm-1-.92a1.21,1.21,0,0,0,.8-.35V104a2.38,2.38,0,0,0-.63-.07.69.69,0,0,0-.54.2.85.85,0,0,0-.18.59.82.82,0,0,0,.15.52A.47.47,0,0,0,28.09,105.43Z" style="fill:#232f3e"/><path d="M34.2,106.25a2.7,2.7,0,0,1-1,.16,1.39,1.39,0,0,1-1.07-.37,1.54,1.54,0,0,1-.36-1.12V98.21h1.65v6.54a.75.75,0,0,0,.08.4.36.36,0,0,0,.32.12,2.26,2.26,0,0,0,.35,0Z" style="fill:#232f3e"/><path d="M38.11,106.35l-.14-.51a1.49,1.49,0,0,1-.59.47,1.85,1.85,0,0,1-.78.18,1.54,1.54,0,0,1-1.18-.45,1.66,1.66,0,0,1-.44-1.22,1.69,1.69,0,0,1,.53-1.31,2,2,0,0,1,1.43-.47,4,4,0,0,1,.93.13v-.51a1.33,1.33,0,0,0-.16-.78.77.77,0,0,0-.61-.2,5.9,5.9,0,0,0-1.77.35v-1a3,3,0,0,1,.92-.33,5.47,5.47,0,0,1,1.15-.12,2.19,2.19,0,0,1,1.52.44,1.82,1.82,0,0,1,.47,1.39v3.94Zm-1-.92a1.17,1.17,0,0,0,.79-.35V104a2.25,2.25,0,0,0-.62-.07.67.67,0,0,0-.54.2.85.85,0,0,0-.19.59.82.82,0,0,0,.15.52A.49.49,0,0,0,37.08,105.43Z" style="fill:#232f3e"/><path d="M43.9,106.35v-3.7a1.25,1.25,0,0,0-.15-.7.53.53,0,0,0-.49-.22,1.59,1.59,0,0,0-.82.26v4.36H40.79v-5.63h1.35l.13.51a3.35,3.35,0,0,1,1.84-.65,1.34,1.34,0,0,1,1.07.42,1.83,1.83,0,0,1,.37,1.22v4.13Z" style="fill:#232f3e"/><path d="M50.58,106.09a2,2,0,0,1-.64.26,3.44,3.44,0,0,1-.8.09,2.3,2.3,0,0,1-1.85-.73,3.29,3.29,0,0,1-.62-2.16,3.16,3.16,0,0,1,.67-2.16,2.34,2.34,0,0,1,1.87-.76,2.93,2.93,0,0,1,1.35.33v1a3.09,3.09,0,0,0-1-.19,1.05,1.05,0,0,0-.93.4,2.29,2.29,0,0,0-.28,1.29v.16a2.23,2.23,0,0,0,.28,1.28,1,1,0,0,0,.9.4,3.22,3.22,0,0,0,1.08-.21Z" style="fill:#232f3e"/><path d="M52.85,103.92a1.66,1.66,0,0,0,.36,1.12,1.45,1.45,0,0,0,1.06.33,3.26,3.26,0,0,0,.68-.09,5.54,5.54,0,0,0,.8-.21v1a2.77,2.77,0,0,1-.83.31,4.77,4.77,0,0,1-1,.11c-1.72,0-2.58-1-2.58-2.95a3.32,3.32,0,0,1,.64-2.2,2.22,2.22,0,0,1,1.82-.76c1.37,0,2,.76,2,2.29a4.32,4.32,0,0,1-.12,1Zm.91-2.32c-.57,0-.88.46-.91,1.37h1.61v-.25a1.59,1.59,0,0,0-.17-.86A.59.59,0,0,0,53.76,101.6Z" style="fill:#232f3e"/><path d="M57,106.35v-5.63h1.35l.18.73a2.5,2.5,0,0,1,.72-.59,1.55,1.55,0,0,1,.75-.19,2.56,2.56,0,0,1,.39,0V102a5,5,0,0,0-.64,0,2.47,2.47,0,0,0-1.1.26v4.11Z" style="fill:#232f3e"/></g><g id="ICONS_-_EDIT" data-name="ICONS - EDIT"><path d="M40,65A25,25,0,1,1,65,40,25,25,0,0,1,40,65Zm0-48A23,23,0,1,0,63,40,23,23,0,0,0,40,17Z" style="fill:#fff"/><path d="M30.9,46H21a1,1,0,0,1-1-1V35a1,1,0,0,1,1-1H30.9a1,1,0,0,1,1,1V45A1,1,0,0,1,30.9,46ZM22,44H29.9V36H22Z" style="fill:#fff"/><path d="M54,33H48a1,1,0,0,1-1-1V26a1,1,0,0,1,1-1h6a1,1,0,0,1,1,1v6A1,1,0,0,1,54,33Zm-5-2h4V27H49Z" style="fill:#fff"/><path d="M54,44H48a1,1,0,0,1-1-1V37a1,1,0,0,1,1-1h6a1,1,0,0,1,1,1v6A1,1,0,0,1,54,44Zm-5-2h4V38H49Z" style="fill:#fff"/><path d="M54,55H48a1,1,0,0,1-1-1V48a1,1,0,0,1,1-1h6a1,1,0,0,1,1,1v6A1,1,0,0,1,54,55Zm-5-2h4V49H49Z" style="fill:#fff"/><rect x="34" y="39" width="10.16" height="2" style="fill:#fff"/><path d="M42.34,44.07l-1.41-1.41L43.59,40l-2.66-2.66,1.41-1.41,3.37,3.36a1,1,0,0,1,0,1.42Z" style="fill:#fff"/><rect x="32.58" y="31.12" width="12.33" height="2" transform="translate(-10.51 21.79) rotate(-27.82)" style="fill:#fff"/><path d="M43.92,34.1,42,33.58,43,30l-3.63-1L39.87,27l4.59,1.24a1,1,0,0,1,.7,1.23Z" style="fill:#fff"/><rect x="37.75" y="41.71" width="2" height="12.33" transform="translate(-21.68 59.79) rotate(-62.17)" style="fill:#fff"/><path d="M39.87,53,39.34,51l3.63-1-1-3.63,1.93-.52,1.24,4.59a1,1,0,0,1-.7,1.23Z" style="fill:#fff"/></g></svg>