<svg xmlns="http://www.w3.org/2000/svg" width="80" height="115" viewBox="0 0 80 115"><title>architecture-product-card_Amazon_Comprehend</title><g id="CARDS"><rect x="1" y="1" width="78" height="78" style="fill:#232f3e"/><path d="M0,0V80H0v35H80V80h0V0ZM1,1H79V79H1Z" style="fill:#fff"/></g><g id="TEXT_-_EDIT" data-name="TEXT - EDIT"><path d="M25.35,92.35l-.43-1.82h-2l-.42,1.82H20.72L23,84.72H24.9l2.31,7.63Zm-2.18-2.92h1.49l-.76-3.16Z" style="fill:#232f3e"/><path d="M34.06,92.35V88.64a1.32,1.32,0,0,0-.14-.69.49.49,0,0,0-.46-.22,1.59,1.59,0,0,0-.8.26.5.5,0,0,1,0,.12v4.24H31V88.64a1.33,1.33,0,0,0-.13-.69.51.51,0,0,0-.47-.22,1.55,1.55,0,0,0-.78.26v4.36H28V86.72h1.35l.13.51a3.31,3.31,0,0,1,1.81-.65,1.25,1.25,0,0,1,1.2.67,3.38,3.38,0,0,1,1.83-.67,1.3,1.3,0,0,1,1,.42,1.85,1.85,0,0,1,.36,1.22v4.13Z" style="fill:#232f3e"/><path d="M40,92.35l-.14-.51a1.56,1.56,0,0,1-.59.47,1.86,1.86,0,0,1-.79.18A1.57,1.57,0,0,1,37.31,92a1.65,1.65,0,0,1-.43-1.22,1.69,1.69,0,0,1,.53-1.31A2,2,0,0,1,38.84,89a4,4,0,0,1,.93.13v-.51a1.33,1.33,0,0,0-.16-.78.77.77,0,0,0-.61-.2,5.9,5.9,0,0,0-1.77.35V87a3,3,0,0,1,.92-.33,5.47,5.47,0,0,1,1.15-.12,2.19,2.19,0,0,1,1.52.44,1.82,1.82,0,0,1,.47,1.39v3.94Zm-1-.92a1.17,1.17,0,0,0,.79-.35V90a2.3,2.3,0,0,0-.62-.07.67.67,0,0,0-.54.2.81.81,0,0,0-.19.59.82.82,0,0,0,.15.52A.49.49,0,0,0,39,91.43Z" style="fill:#232f3e"/><path d="M42.28,92.35V91.28l2.49-3.4h-2.4V86.72h4.14v1.07L44,91.19h2.54v1.16Z" style="fill:#232f3e"/><path d="M49.79,92.49A2.3,2.3,0,0,1,48,91.72a4,4,0,0,1,0-4.37,2.6,2.6,0,0,1,3.69,0,4,4,0,0,1,0,4.37A2.31,2.31,0,0,1,49.79,92.49Zm0-1.15a.67.67,0,0,0,.65-.43,4.79,4.79,0,0,0,0-2.74.69.69,0,0,0-1.29,0,4.79,4.79,0,0,0,0,2.74A.66.66,0,0,0,49.79,91.34Z" style="fill:#232f3e"/><path d="M56.55,92.35v-3.7a1.36,1.36,0,0,0-.14-.7.55.55,0,0,0-.5-.22,1.56,1.56,0,0,0-.81.26v4.36H53.44V86.72h1.35l.14.51a3.32,3.32,0,0,1,1.84-.65,1.35,1.35,0,0,1,1.07.42,1.83,1.83,0,0,1,.36,1.22v4.13Z" style="fill:#232f3e"/><path d="M15.29,106.13a4.59,4.59,0,0,1-1.78.34q-3.37,0-3.38-3.9A4.46,4.46,0,0,1,11,99.62a3.16,3.16,0,0,1,2.53-1,4.64,4.64,0,0,1,1.65.3v1.21a5.61,5.61,0,0,0-1.44-.23,1.61,1.61,0,0,0-1.4.61,3.29,3.29,0,0,0-.45,1.93v.25a3.26,3.26,0,0,0,.44,1.9,1.56,1.56,0,0,0,1.37.61,7.12,7.12,0,0,0,1.58-.26Z" style="fill:#232f3e"/><path d="M18.52,106.49a2.27,2.27,0,0,1-1.84-.77,3.95,3.95,0,0,1,0-4.37,2.27,2.27,0,0,1,1.84-.77,2.29,2.29,0,0,1,1.84.77,4,4,0,0,1,0,4.37A2.29,2.29,0,0,1,18.52,106.49Zm0-1.15a.65.65,0,0,0,.64-.43,4.79,4.79,0,0,0,0-2.74.65.65,0,0,0-.64-.44.67.67,0,0,0-.65.44,5,5,0,0,0,0,2.74A.67.67,0,0,0,18.52,105.34Z" style="fill:#232f3e"/><path d="M28.24,106.35v-3.71a1.32,1.32,0,0,0-.14-.69.49.49,0,0,0-.46-.22,1.59,1.59,0,0,0-.8.26.5.5,0,0,1,0,.12v4.24H25.21v-3.71a1.32,1.32,0,0,0-.14-.69.51.51,0,0,0-.47-.22,1.55,1.55,0,0,0-.78.26v4.36H22.17v-5.63h1.35l.13.51a3.31,3.31,0,0,1,1.81-.65,1.25,1.25,0,0,1,1.2.67,3.38,3.38,0,0,1,1.83-.67,1.3,1.3,0,0,1,1,.42,1.85,1.85,0,0,1,.36,1.22v4.13Z" style="fill:#232f3e"/><path d="M31.29,108.61v-7.89h1.35l.12.48a2.46,2.46,0,0,1,.71-.45,2.07,2.07,0,0,1,.78-.17,1.76,1.76,0,0,1,1.52.74,4.67,4.67,0,0,1,0,4.34,1.74,1.74,0,0,1-1.51.78,2.09,2.09,0,0,1-.69-.12,2,2,0,0,1-.6-.35v2.64Zm2.42-6.91a1.27,1.27,0,0,0-.77.25v3.11a1.42,1.42,0,0,0,.78.26.73.73,0,0,0,.71-.42,3.22,3.22,0,0,0,.21-1.37,3.34,3.34,0,0,0-.21-1.41A.74.74,0,0,0,33.71,101.7Z" style="fill:#232f3e"/><path d="M37.43,106.35v-5.63h1.35l.18.73a2.5,2.5,0,0,1,.72-.59,1.55,1.55,0,0,1,.75-.19,2.56,2.56,0,0,1,.39,0V102a5,5,0,0,0-.64,0,2.5,2.5,0,0,0-1.1.26v4.11Z" style="fill:#232f3e"/><path d="M42.78,103.92a1.77,1.77,0,0,0,.36,1.12,1.45,1.45,0,0,0,1.06.33,3.26,3.26,0,0,0,.69-.09,6.31,6.31,0,0,0,.8-.21v1a3,3,0,0,1-.84.31,4.67,4.67,0,0,1-1,.11c-1.72,0-2.58-1-2.58-2.95a3.37,3.37,0,0,1,.63-2.2,2.23,2.23,0,0,1,1.83-.76c1.36,0,2,.76,2,2.29a4.32,4.32,0,0,1-.12,1Zm.92-2.32c-.58,0-.89.46-.92,1.37H44.4v-.25a1.68,1.68,0,0,0-.17-.86A.59.59,0,0,0,43.7,101.6Z" style="fill:#232f3e"/><path d="M50,106.35v-3.7a1.25,1.25,0,0,0-.15-.7.54.54,0,0,0-.49-.22,1.57,1.57,0,0,0-.82.26v4.36H46.93V98.21h1.65v2.91a3.19,3.19,0,0,1,1.67-.54,1.35,1.35,0,0,1,1.07.42,1.83,1.83,0,0,1,.37,1.22v4.13Z" style="fill:#232f3e"/><path d="M54.3,103.92a1.66,1.66,0,0,0,.36,1.12,1.45,1.45,0,0,0,1.06.33,3.18,3.18,0,0,0,.68-.09,5.54,5.54,0,0,0,.8-.21v1a2.77,2.77,0,0,1-.83.31,4.77,4.77,0,0,1-1,.11c-1.71,0-2.57-1-2.57-2.95a3.37,3.37,0,0,1,.63-2.2,2.22,2.22,0,0,1,1.82-.76c1.37,0,2.05.76,2.05,2.29a4.32,4.32,0,0,1-.12,1Zm.92-2.32c-.58,0-.89.46-.92,1.37h1.61v-.25a1.7,1.7,0,0,0-.16-.86A.6.6,0,0,0,55.22,101.6Z" style="fill:#232f3e"/><path d="M61.55,106.35v-3.7a1.36,1.36,0,0,0-.14-.7.55.55,0,0,0-.5-.22,1.56,1.56,0,0,0-.81.26v4.36H58.44v-5.63h1.35l.14.51a3.32,3.32,0,0,1,1.84-.65,1.35,1.35,0,0,1,1.07.42,1.83,1.83,0,0,1,.36,1.22v4.13Z" style="fill:#232f3e"/><path d="M67.85,106.35l-.13-.49a2,2,0,0,1-.63.43,1.86,1.86,0,0,1-.72.15,1.75,1.75,0,0,1-1.51-.75,3.65,3.65,0,0,1-.54-2.13,3.73,3.73,0,0,1,.56-2.19,1.76,1.76,0,0,1,1.53-.79,2.08,2.08,0,0,1,.63.13,2.35,2.35,0,0,1,.61.33V98.21H69.3v8.14Zm-.92-1a1.34,1.34,0,0,0,.72-.22V102a1.51,1.51,0,0,0-.8-.26.7.7,0,0,0-.67.44,3.39,3.39,0,0,0-.21,1.39,3.05,3.05,0,0,0,.23,1.36A.77.77,0,0,0,66.93,105.32Z" style="fill:#232f3e"/></g><g id="ICONS_-_EDIT" data-name="ICONS - EDIT"><rect x="45" y="28" width="2" height="11" style="fill:#fff"/><path d="M46,61H16a1,1,0,0,1-1-1V49h2V59H45V55h2v5A1,1,0,0,1,46,61Z" style="fill:#fff"/><path d="M17,49H15V17a1,1,0,0,1,1-1H35v2H17Z" style="fill:#fff"/><path d="M46,29H35a1,1,0,0,1-1-1V17a1,1,0,0,1,.62-.92,1,1,0,0,1,1.09.21l11,11a1,1,0,0,1,.21,1.09A1,1,0,0,1,46,29ZM36,27h7.59L36,19.41Z" style="fill:#fff"/><rect x="20" y="33" width="6" height="2" style="fill:#fff"/><rect x="28" y="33" width="14" height="2" style="fill:#fff"/><rect x="20" y="39" width="22" height="2" style="fill:#fff"/><rect x="54" y="50" width="2" height="8.66" style="fill:#fff"/><rect x="52" y="49" width="6" height="2" style="fill:#fff"/><path d="M57.44,66H52.56a1,1,0,0,1-.93-.62l-1.21-3a1,1,0,0,1,.09-.94,1,1,0,0,1,.83-.44h7.32a1,1,0,0,1,.83.44,1,1,0,0,1,.09.94l-1.21,3A1,1,0,0,1,57.44,66Zm-4.21-2h3.54l.4-1H52.83Z" style="fill:#fff"/><path d="M59,60H51a1,1,0,0,1-1-1V55.41a3.88,3.88,0,0,0-.72-.59,10,10,0,0,1,6.81-18.14A10.1,10.1,0,0,1,64.87,45h0a10,10,0,0,1-4.16,9.85,4.33,4.33,0,0,0-.71.57V59A1,1,0,0,1,59,60Zm-7-2h6V55.3c0-1,1-1.7,1.55-2.1a8,8,0,0,0,3.34-7.91h0a8,8,0,0,0-7-6.62,8,8,0,0,0-5.46,14.51C51,53.59,52,54.27,52,55.32Z" style="fill:#fff"/><rect x="20" y="27" width="11" height="2" style="fill:#fff"/><rect x="20" y="45" width="12" height="2" style="fill:#fff"/><rect x="34" y="45" width="8" height="2" style="fill:#fff"/><rect x="20" y="51" width="13" height="2" style="fill:#fff"/></g></svg>