<svg xmlns="http://www.w3.org/2000/svg" width="80" height="115" viewBox="0 0 80 115"><title>architecture-product-card_Amazon_Redshift</title><g id="CARDS"><rect x="1" y="1" width="78" height="78" style="fill:#232f3e"/><path d="M0,0V80H0v35H80V80h0V0ZM1,1H79V79H1Z" style="fill:#fff"/></g><g id="TEXT_-_EDIT" data-name="TEXT - EDIT"><path d="M25.35,92.35l-.43-1.82h-2l-.42,1.82H20.72L23,84.72H24.9l2.31,7.63Zm-2.18-2.92h1.49l-.76-3.16Z" style="fill:#232f3e"/><path d="M34.06,92.35V88.64a1.32,1.32,0,0,0-.14-.69.5.5,0,0,0-.46-.22,1.56,1.56,0,0,0-.8.26.49.49,0,0,1,0,.12v4.24H31V88.64a1.33,1.33,0,0,0-.13-.69.51.51,0,0,0-.47-.22,1.55,1.55,0,0,0-.78.26v4.36H28V86.72h1.35l.13.51a3.29,3.29,0,0,1,1.81-.65,1.25,1.25,0,0,1,1.2.67,3.38,3.38,0,0,1,1.83-.67,1.3,1.3,0,0,1,1,.42,1.85,1.85,0,0,1,.36,1.22v4.13Z" style="fill:#232f3e"/><path d="M40,92.35l-.14-.51a1.56,1.56,0,0,1-.59.47,1.86,1.86,0,0,1-.79.18A1.57,1.57,0,0,1,37.31,92a1.65,1.65,0,0,1-.43-1.22,1.69,1.69,0,0,1,.53-1.31A2,2,0,0,1,38.84,89a4,4,0,0,1,.93.13v-.51a1.33,1.33,0,0,0-.16-.78.77.77,0,0,0-.61-.2,5.9,5.9,0,0,0-1.77.35V87a3,3,0,0,1,.91-.33,5.64,5.64,0,0,1,1.16-.12,2.19,2.19,0,0,1,1.52.44,1.82,1.82,0,0,1,.47,1.39v3.94Zm-1-.92a1.17,1.17,0,0,0,.79-.35V90a2.33,2.33,0,0,0-.63-.07.66.66,0,0,0-.53.2.81.81,0,0,0-.19.59.82.82,0,0,0,.15.52A.49.49,0,0,0,39,91.43Z" style="fill:#232f3e"/><path d="M42.28,92.35V91.28l2.49-3.4h-2.4V86.72h4.14v1.07L44,91.19h2.54v1.16Z" style="fill:#232f3e"/><path d="M49.79,92.49A2.29,2.29,0,0,1,48,91.72a4,4,0,0,1,0-4.37,2.6,2.6,0,0,1,3.69,0,4,4,0,0,1,0,4.37A2.31,2.31,0,0,1,49.79,92.49Zm0-1.15a.67.67,0,0,0,.65-.43,4.79,4.79,0,0,0,0-2.74.69.69,0,0,0-1.29,0,4.79,4.79,0,0,0,0,2.74A.66.66,0,0,0,49.79,91.34Z" style="fill:#232f3e"/><path d="M56.55,92.35v-3.7a1.36,1.36,0,0,0-.14-.7.55.55,0,0,0-.5-.22,1.62,1.62,0,0,0-.82.26v4.36H53.44V86.72h1.35l.14.51a3.32,3.32,0,0,1,1.84-.65,1.35,1.35,0,0,1,1.07.42,1.83,1.83,0,0,1,.36,1.22v4.13Z" style="fill:#232f3e"/><path d="M24.44,106.35,23,103.52h-.65v2.83H20.68V98.72h2.64a2.39,2.39,0,0,1,1.76.65,2.31,2.31,0,0,1,.66,1.75,2.67,2.67,0,0,1-.32,1.33,2,2,0,0,1-.93.84l1.68,3.06Zm-2.11-4h.79a.84.84,0,0,0,.71-.31,1.5,1.5,0,0,0,.25-.94,1.45,1.45,0,0,0-.25-.93.82.82,0,0,0-.71-.32h-.79Z" style="fill:#232f3e"/><path d="M28.21,103.92a1.77,1.77,0,0,0,.36,1.12,1.45,1.45,0,0,0,1.06.33,3.18,3.18,0,0,0,.68-.09,5.54,5.54,0,0,0,.8-.21v1a2.77,2.77,0,0,1-.83.31,4.77,4.77,0,0,1-1,.11c-1.71,0-2.57-1-2.57-2.95a3.37,3.37,0,0,1,.63-2.2,2.22,2.22,0,0,1,1.82-.76c1.37,0,2,.76,2,2.29a4.32,4.32,0,0,1-.12,1Zm.92-2.32c-.58,0-.89.46-.92,1.37h1.62v-.25a1.68,1.68,0,0,0-.17-.86A.6.6,0,0,0,29.13,101.6Z" style="fill:#232f3e"/><path d="M35.61,106.35l-.13-.49a2.12,2.12,0,0,1-.64.43,1.87,1.87,0,0,1-2.23-.6,4.59,4.59,0,0,1,0-4.32,1.76,1.76,0,0,1,1.53-.79,2,2,0,0,1,.63.13,2.35,2.35,0,0,1,.61.33V98.21h1.65v8.14Zm-.93-1a1.34,1.34,0,0,0,.72-.22V102a1.48,1.48,0,0,0-.79-.26.7.7,0,0,0-.68.44,3.6,3.6,0,0,0-.2,1.39,2.92,2.92,0,0,0,.23,1.36A.75.75,0,0,0,34.68,105.32Z" style="fill:#232f3e"/><path d="M40.48,104.77c0-.25-.18-.46-.52-.62l-.73-.35a1.7,1.7,0,0,1-1.13-1.59,1.43,1.43,0,0,1,.56-1.18,2.26,2.26,0,0,1,1.47-.45,3.57,3.57,0,0,1,1.53.35v1a5.56,5.56,0,0,0-.7-.19,3,3,0,0,0-.61-.07c-.51,0-.77.18-.77.54s.22.45.64.66l.73.34a1.9,1.9,0,0,1,.77.62,1.69,1.69,0,0,1,.24.93A1.57,1.57,0,0,1,41.4,106a2.28,2.28,0,0,1-1.48.46,3.83,3.83,0,0,1-1.82-.44v-1a5.44,5.44,0,0,0,1.62.35.85.85,0,0,0,.56-.17A.57.57,0,0,0,40.48,104.77Z" style="fill:#232f3e"/><path d="M46,106.35v-3.7a1.36,1.36,0,0,0-.14-.7.55.55,0,0,0-.5-.22,1.56,1.56,0,0,0-.81.26v4.36H42.88V98.21h1.66v2.91a3.19,3.19,0,0,1,1.67-.54,1.35,1.35,0,0,1,1.07.42,1.83,1.83,0,0,1,.36,1.22v4.13Z" style="fill:#232f3e"/><path d="M49.91,99.81a1,1,0,0,1-.71-.22.76.76,0,0,1-.27-.61.75.75,0,0,1,.27-.61,1.2,1.2,0,0,1,1.41,0,.77.77,0,0,1,.26.61.79.79,0,0,1-.26.61A1,1,0,0,1,49.91,99.81Zm-.83,6.54v-5.63h1.65v5.63Z" style="fill:#232f3e"/><path d="M52.39,106.35v-4.53h-.78v-.92l.78-.15v-.66a2.17,2.17,0,0,1,.48-1.54,2,2,0,0,1,1.48-.5,2.9,2.9,0,0,1,1.09.21v1a3,3,0,0,0-.63-.07.86.86,0,0,0-.61.16A.89.89,0,0,0,54,100v.74h1.34v1.1H54v4.53Z" style="fill:#232f3e"/><path d="M59.51,106.2a3.47,3.47,0,0,1-1.23.22,1.47,1.47,0,0,1-1.72-1.7v-2.9h-.74v-.92l.79-.15.24-1.54h1.36v1.51h1.28v1.1H58.21v2.77a.79.79,0,0,0,.14.52.7.7,0,0,0,.53.16,2.86,2.86,0,0,0,.63-.08Z" style="fill:#232f3e"/></g><g id="ICONS_-_EDIT" data-name="ICONS - EDIT"><path d="M40,65c-8.24,0-17-2.39-17-6.82V21.82h2V58.18c0,2,5.71,4.82,15,4.82s15-2.8,15-4.82V21.82h2V58.18C57,62.61,48.24,65,40,65Z" style="fill:#fff"/><path d="M40,65c-8.24,0-17-2.39-17-6.82V21.82h2V58.18c0,2,5.71,4.82,15,4.82s15-2.8,15-4.82V21.82h2V58.18C57,62.61,48.24,65,40,65Z" style="fill:#fff"/><path d="M40,28.63c-8.24,0-17-2.39-17-6.81S31.76,15,40,15s17,2.39,17,6.82S48.24,28.63,40,28.63ZM40,17c-9.29,0-15,2.8-15,4.82s5.71,4.81,15,4.81,15-2.8,15-4.81S49.29,17,40,17Z" style="fill:#fff"/><rect x="38.97" y="40.52" width="2" height="6.23" transform="translate(-11.43 72.94) rotate(-77.19)" style="fill:#fff"/><rect x="44.56" y="38.29" width="6.3" height="2" transform="translate(-6.36 69.24) rotate(-68.46)" style="fill:#fff"/><rect x="29.9" y="46.08" width="5.2" height="2" transform="translate(-23.56 58.49) rotate(-66.89)" style="fill:#fff"/><path d="M30.5,55.27a3.5,3.5,0,1,1,3.5-3.5A3.5,3.5,0,0,1,30.5,55.27Zm0-5a1.5,1.5,0,1,0,1.5,1.5A1.5,1.5,0,0,0,30.5,50.27Z" style="fill:#fff"/><path d="M34.5,45.89a3.5,3.5,0,1,1,3.5-3.5A3.5,3.5,0,0,1,34.5,45.89Zm0-5a1.5,1.5,0,1,0,1.5,1.5A1.5,1.5,0,0,0,34.5,40.89Z" style="fill:#fff"/><path d="M45.5,48a3.5,3.5,0,1,1,3.5-3.5A3.5,3.5,0,0,1,45.5,48Zm0-5a1.5,1.5,0,1,0,1.5,1.5A1.5,1.5,0,0,0,45.5,43Z" style="fill:#fff"/><path d="M49.5,37.45A3.5,3.5,0,1,1,53,34,3.5,3.5,0,0,1,49.5,37.45Zm0-5A1.5,1.5,0,1,0,51,34,1.5,1.5,0,0,0,49.5,32.45Z" style="fill:#fff"/></g></svg>