<svg xmlns="http://www.w3.org/2000/svg" width="80" height="115" viewBox="0 0 80 115"><title>architecture-product-card_AWS_Secrets_Manager</title><g id="CARDS"><rect x="1" y="1" width="78" height="78" style="fill:#232f3e"/><path d="M0,0V80H0v35H80V80h0V0ZM1,1H79V79H1Z" style="fill:#fff"/></g><g id="TEXT_-_EDIT" data-name="TEXT - EDIT"><path d="M15.56,92.35l-.44-1.82h-2l-.42,1.82H10.93l2.31-7.63h1.87l2.3,7.63Zm-2.19-2.92h1.5l-.76-3.16Z" style="fill:#232f3e"/><path d="M22.76,92.35l-.94-5.63-.89,5.63H19.06l-1.78-7.63H19L20,90.78,21,85h1.83l.94,5.65,1-6h1.66l-1.78,7.63Z" style="fill:#232f3e"/><path d="M28.71,89a3.7,3.7,0,0,1-1.28-1,2,2,0,0,1-.38-1.23,2,2,0,0,1,.34-1.17,2.11,2.11,0,0,1,.92-.77,3.18,3.18,0,0,1,1.34-.27,4.85,4.85,0,0,1,1.89.39v1.17a5.44,5.44,0,0,0-1.72-.33A1.29,1.29,0,0,0,29,86a.77.77,0,0,0-.28.64.86.86,0,0,0,.18.56,2.32,2.32,0,0,0,.72.48l.65.32a4.73,4.73,0,0,1,1,.62,1.89,1.89,0,0,1,.55.69,2.29,2.29,0,0,1,.17.92,2,2,0,0,1-.74,1.65,3.1,3.1,0,0,1-2,.61,5.52,5.52,0,0,1-1.14-.12,4.06,4.06,0,0,1-.95-.32V90.92a7.85,7.85,0,0,0,1,.25,5.33,5.33,0,0,0,1,.11A1.34,1.34,0,0,0,30,91a.86.86,0,0,0,.3-.71.84.84,0,0,0-.21-.58,2.47,2.47,0,0,0-.71-.47Z" style="fill:#232f3e"/><path d="M37.11,89a3.6,3.6,0,0,1-1.28-1,2,2,0,0,1-.38-1.23,2.06,2.06,0,0,1,.33-1.17,2.2,2.2,0,0,1,.93-.77,3.11,3.11,0,0,1,1.34-.27,4.92,4.92,0,0,1,1.89.39v1.17a5.44,5.44,0,0,0-1.72-.33,1.27,1.27,0,0,0-.8.23.78.78,0,0,0-.29.64.81.81,0,0,0,.19.56,2.09,2.09,0,0,0,.72.48l.65.32a5,5,0,0,1,1,.62,1.76,1.76,0,0,1,.54.69,2.13,2.13,0,0,1,.18.92,2,2,0,0,1-.74,1.65,3.13,3.13,0,0,1-2,.61,5.5,5.5,0,0,1-1.13-.12,3.9,3.9,0,0,1-.95-.32V90.92a7.45,7.45,0,0,0,1,.25,5.33,5.33,0,0,0,1,.11,1.32,1.32,0,0,0,.88-.25.87.87,0,0,0,.31-.71.85.85,0,0,0-.22-.58,2.4,2.4,0,0,0-.7-.47Z" style="fill:#232f3e"/><path d="M42.75,89.92A1.66,1.66,0,0,0,43.11,91a1.45,1.45,0,0,0,1.06.33,3.26,3.26,0,0,0,.68-.09,5.54,5.54,0,0,0,.8-.21v1a2.77,2.77,0,0,1-.83.31,4.77,4.77,0,0,1-1,.11c-1.72,0-2.58-1-2.58-2.95a3.32,3.32,0,0,1,.64-2.2,2.22,2.22,0,0,1,1.82-.76c1.37,0,2,.76,2,2.29a4.32,4.32,0,0,1-.12,1Zm.91-2.32c-.58,0-.88.46-.91,1.37h1.61v-.25a1.59,1.59,0,0,0-.17-.86A.59.59,0,0,0,43.66,87.6Z" style="fill:#232f3e"/><path d="M50.53,92.09a2,2,0,0,1-.64.26,3.53,3.53,0,0,1-.81.09,2.28,2.28,0,0,1-1.84-.73,3.91,3.91,0,0,1,0-4.32,2.36,2.36,0,0,1,1.88-.76,2.93,2.93,0,0,1,1.35.33v1a3.09,3.09,0,0,0-1-.19,1.05,1.05,0,0,0-.93.4,2.29,2.29,0,0,0-.28,1.29v.16a2.32,2.32,0,0,0,.27,1.28,1,1,0,0,0,.91.4,3.26,3.26,0,0,0,1.08-.21Z" style="fill:#232f3e"/><path d="M51.58,92.35V86.72h1.35l.18.73a2.5,2.5,0,0,1,.72-.59,1.49,1.49,0,0,1,.75-.19,2.34,2.34,0,0,1,.38,0V88a4.7,4.7,0,0,0-.63,0,2.44,2.44,0,0,0-1.1.26v4.11Z" style="fill:#232f3e"/><path d="M56.93,89.92A1.66,1.66,0,0,0,57.29,91a1.45,1.45,0,0,0,1.06.33,3.26,3.26,0,0,0,.68-.09,5.54,5.54,0,0,0,.8-.21v1a2.77,2.77,0,0,1-.83.31,4.77,4.77,0,0,1-1,.11c-1.72,0-2.58-1-2.58-2.95a3.32,3.32,0,0,1,.64-2.2,2.22,2.22,0,0,1,1.82-.76c1.37,0,2,.76,2,2.29a4.32,4.32,0,0,1-.12,1Zm.91-2.32c-.58,0-.88.46-.91,1.37h1.61v-.25a1.68,1.68,0,0,0-.17-.86A.59.59,0,0,0,57.84,87.6Z" style="fill:#232f3e"/><path d="M64.11,92.2a3.47,3.47,0,0,1-1.23.22,1.8,1.8,0,0,1-1.31-.4,1.77,1.77,0,0,1-.41-1.3v-2.9h-.74V86.9l.78-.15.24-1.54h1.37v1.51h1.27v1.1H62.81v2.77a.74.74,0,0,0,.14.52.69.69,0,0,0,.53.16,3,3,0,0,0,.63-.08Z" style="fill:#232f3e"/><path d="M67,90.77c0-.25-.18-.46-.52-.62l-.72-.35a1.69,1.69,0,0,1-1.14-1.59A1.43,1.43,0,0,1,65.17,87a2.26,2.26,0,0,1,1.47-.45,3.57,3.57,0,0,1,1.53.35v1a5.56,5.56,0,0,0-.7-.19,3,3,0,0,0-.6-.07c-.52,0-.77.18-.77.54s.21.45.63.66l.73.34a1.9,1.9,0,0,1,.77.62,1.69,1.69,0,0,1,.24.93A1.57,1.57,0,0,1,67.91,92a2.28,2.28,0,0,1-1.48.46,3.85,3.85,0,0,1-1.82-.44v-1a5.5,5.5,0,0,0,1.62.35.81.81,0,0,0,.56-.17A.57.57,0,0,0,67,90.77Z" style="fill:#232f3e"/><path d="M25.51,106.35V101l-1.41,3.46H22.67L21.27,101v5.32h-1.5V98.72h1.92L23.42,103l1.72-4.27H27v7.63Z" style="fill:#232f3e"/><path d="M31.45,106.35l-.14-.51a1.56,1.56,0,0,1-.59.47,1.86,1.86,0,0,1-.79.18,1.57,1.57,0,0,1-1.18-.45,1.65,1.65,0,0,1-.43-1.22,1.69,1.69,0,0,1,.53-1.31,2,2,0,0,1,1.43-.47,4,4,0,0,1,.93.13v-.51a1.33,1.33,0,0,0-.16-.78.77.77,0,0,0-.61-.2,5.9,5.9,0,0,0-1.77.35v-1a3,3,0,0,1,.91-.33,5.64,5.64,0,0,1,1.16-.12,2.19,2.19,0,0,1,1.52.44,1.82,1.82,0,0,1,.47,1.39v3.94Zm-1-.92a1.17,1.17,0,0,0,.79-.35V104a2.33,2.33,0,0,0-.63-.07.66.66,0,0,0-.53.2.81.81,0,0,0-.19.59.82.82,0,0,0,.15.52A.49.49,0,0,0,30.42,105.43Z" style="fill:#232f3e"/><path d="M37.23,106.35v-3.7a1.27,1.27,0,0,0-.14-.7.54.54,0,0,0-.49-.22,1.57,1.57,0,0,0-.82.26v4.36H34.13v-5.63h1.35l.13.51a3.32,3.32,0,0,1,1.84-.65,1.35,1.35,0,0,1,1.07.42,1.83,1.83,0,0,1,.37,1.22v4.13Z" style="fill:#232f3e"/><path d="M43.19,106.35l-.15-.51a1.49,1.49,0,0,1-.59.47,1.85,1.85,0,0,1-.78.18,1.56,1.56,0,0,1-1.18-.45,1.66,1.66,0,0,1-.44-1.22,1.69,1.69,0,0,1,.53-1.31A2.08,2.08,0,0,1,42,103a3.88,3.88,0,0,1,.92.13v-.51a1.33,1.33,0,0,0-.16-.78.77.77,0,0,0-.61-.2,5.9,5.9,0,0,0-1.77.35v-1a3.07,3.07,0,0,1,.92-.33,5.57,5.57,0,0,1,1.16-.12A2.18,2.18,0,0,1,44,101a1.78,1.78,0,0,1,.47,1.39v3.94Zm-1-.92a1.17,1.17,0,0,0,.79-.35V104a2.25,2.25,0,0,0-.62-.07.69.69,0,0,0-.54.2.85.85,0,0,0-.18.59.82.82,0,0,0,.15.52A.47.47,0,0,0,42.15,105.43Z" style="fill:#232f3e"/><path d="M48.76,105.71a1.65,1.65,0,0,1-1.21.53,1.68,1.68,0,0,1-1.44-.74,3.46,3.46,0,0,1-.53-2,3.6,3.6,0,0,1,.54-2.11,1.71,1.71,0,0,1,1.46-.77,1.79,1.79,0,0,1,.71.17,2,2,0,0,1,.63.45l.12-.48h1.35V106c0,1.86-.85,2.79-2.57,2.79A3.92,3.92,0,0,1,46,108.3v-1a5.5,5.5,0,0,0,1.62.35,1.48,1.48,0,0,0,.7-.13.76.76,0,0,0,.35-.44,3.26,3.26,0,0,0,.1-1Zm-.66-.6a1.26,1.26,0,0,0,.66-.22V102a1.32,1.32,0,0,0-.73-.27.63.63,0,0,0-.6.42,3.2,3.2,0,0,0-.2,1.3,3,3,0,0,0,.21,1.28A.71.71,0,0,0,48.1,105.11Z" style="fill:#232f3e"/><path d="M53,103.92a1.66,1.66,0,0,0,.36,1.12,1.45,1.45,0,0,0,1.06.33,3.18,3.18,0,0,0,.68-.09,5.54,5.54,0,0,0,.8-.21v1a2.77,2.77,0,0,1-.83.31,4.77,4.77,0,0,1-1,.11c-1.72,0-2.58-1-2.58-2.95a3.37,3.37,0,0,1,.64-2.2,2.22,2.22,0,0,1,1.82-.76c1.37,0,2,.76,2,2.29a4.32,4.32,0,0,1-.12,1Zm.91-2.32c-.57,0-.88.46-.91,1.37h1.61v-.25a1.59,1.59,0,0,0-.17-.86A.58.58,0,0,0,53.94,101.6Z" style="fill:#232f3e"/><path d="M57.17,106.35v-5.63h1.35l.18.73a2.5,2.5,0,0,1,.72-.59,1.55,1.55,0,0,1,.75-.19,2.56,2.56,0,0,1,.39,0V102a5,5,0,0,0-.64,0,2.47,2.47,0,0,0-1.1.26v4.11Z" style="fill:#232f3e"/></g><g id="ICONS_-_EDIT" data-name="ICONS - EDIT"><rect x="57.02" y="49.57" width="2" height="16.91" transform="translate(-24.03 58.02) rotate(-45)" style="fill:#fff"/><rect x="21.62" y="13.26" width="2" height="18.74" transform="translate(-9.37 22.62) rotate(-45)" style="fill:#fff"/><rect x="22.79" y="14.19" width="2" height="19.27" transform="translate(-9.88 23.8) rotate(-45)" style="fill:#fff"/><rect x="53.19" y="44.59" width="2" height="19.27" transform="translate(-22.47 54.2) rotate(-45)" style="fill:#fff"/><rect x="17.55" y="56.53" width="9.9" height="2" transform="translate(-34.09 32.76) rotate(-45)" style="fill:#fff"/><rect x="52.55" y="21.53" width="9.9" height="2" transform="translate(0.91 47.26) rotate(-45)" style="fill:#fff"/><rect x="15" y="39" width="6" height="2" style="fill:#fff"/><rect x="59" y="39" width="6" height="2" style="fill:#fff"/><rect x="39" y="59" width="2" height="6" style="fill:#fff"/><rect x="39" y="15" width="2" height="6" style="fill:#fff"/><path d="M58.65,53.5,57,52.33a21,21,0,0,0,0-24.59l1.62-1.17a23,23,0,0,1,0,26.93Z" style="fill:#fff"/><path d="M52.29,23a21,21,0,0,0-24.58,0l-1.18-1.62a23,23,0,0,1,26.94,0Z" style="fill:#fff"/><path d="M40,63a22.8,22.8,0,0,1-13.47-4.35l1.18-1.62a21,21,0,0,0,24.58,0l1.18,1.62A22.82,22.82,0,0,1,40,63Z" style="fill:#fff"/><path d="M21.35,53.5a23,23,0,0,1,0-26.93L23,27.74a21,21,0,0,0,0,24.59Z" style="fill:#fff"/><path d="M49,52H31a1,1,0,0,1-1-1V37a1,1,0,0,1,1-1H49a1,1,0,0,1,1,1V51A1,1,0,0,1,49,52ZM32,50H48V38H32Z" style="fill:#fff"/><path d="M35,37H33V31.1c0-3.36,3.14-6.1,7-6.1h0a7.56,7.56,0,0,1,4.89,1.73A5.71,5.71,0,0,1,47,31.1V37H45V31.1a3.74,3.74,0,0,0-1.4-2.84A5.55,5.55,0,0,0,40,27h0c-2.75,0-5,1.84-5,4.1Z" style="fill:#fff"/><rect x="39" y="45" width="2" height="3" style="fill:#fff"/><rect x="45" y="41" width="4" height="2" style="fill:#fff"/><rect x="45" y="45" width="4" height="2" style="fill:#fff"/><path d="M40,45.93A2.93,2.93,0,1,1,42.93,43,2.94,2.94,0,0,1,40,45.93Zm0-4A1.07,1.07,0,1,0,41.07,43,1.07,1.07,0,0,0,40,41.93Z" style="fill:#fff"/></g></svg>