<svg xmlns="http://www.w3.org/2000/svg" width="80" height="115" viewBox="0 0 80 115"><title>architecture-product-card_Amazon-EC2-Spot-Instances</title><g id="CARDS"><rect x="1" y="1" width="78" height="78" style="fill:#232f3e"/><path d="M0,0V80H0v35H80V80h0V0ZM1,1H79V79H1Z" style="fill:#fff"/></g><g id="TEXT_-_EDIT" data-name="TEXT - EDIT"><path d="M15.3,92.35l-.43-1.82h-2l-.42,1.82H10.68L13,84.72h1.87l2.3,7.63Zm-2.18-2.92h1.5l-.76-3.16Z" style="fill:#232f3e"/><path d="M24,92.35V88.64a1.23,1.23,0,0,0-.14-.69.49.49,0,0,0-.46-.22,1.53,1.53,0,0,0-.79.26s0,.08,0,.12v4.24H21V88.64a1.32,1.32,0,0,0-.14-.69.5.5,0,0,0-.47-.22,1.55,1.55,0,0,0-.78.26v4.36H17.94V86.72h1.35l.13.51a3.31,3.31,0,0,1,1.81-.65,1.25,1.25,0,0,1,1.2.67,3.39,3.39,0,0,1,1.84-.67,1.28,1.28,0,0,1,1,.42,1.85,1.85,0,0,1,.36,1.22v4.13Z" style="fill:#232f3e"/><path d="M30,92.35l-.14-.51a1.49,1.49,0,0,1-.59.47,1.85,1.85,0,0,1-.78.18A1.56,1.56,0,0,1,27.27,92a1.66,1.66,0,0,1-.44-1.22,1.69,1.69,0,0,1,.53-1.31A2.07,2.07,0,0,1,28.8,89a4,4,0,0,1,.92.13v-.51a1.33,1.33,0,0,0-.16-.78.77.77,0,0,0-.61-.2,5.9,5.9,0,0,0-1.77.35V87a3,3,0,0,1,.92-.33,5.47,5.47,0,0,1,1.15-.12,2.19,2.19,0,0,1,1.52.44,1.82,1.82,0,0,1,.47,1.39v3.94Zm-1-.92a1.17,1.17,0,0,0,.79-.35V90a2.25,2.25,0,0,0-.62-.07.68.68,0,0,0-.54.2.85.85,0,0,0-.19.59.82.82,0,0,0,.15.52A.5.5,0,0,0,28.93,91.43Z" style="fill:#232f3e"/><path d="M32.23,92.35V91.28l2.49-3.4H32.33V86.72h4.13v1.07L34,91.19h2.55v1.16Z" style="fill:#232f3e"/><path d="M39.75,92.49a2.31,2.31,0,0,1-1.85-.77,4,4,0,0,1,0-4.37,2.6,2.6,0,0,1,3.69,0,4,4,0,0,1,0,4.37A2.29,2.29,0,0,1,39.75,92.49Zm0-1.15a.66.66,0,0,0,.64-.43,4.79,4.79,0,0,0,0-2.74.69.69,0,0,0-1.29,0,4.79,4.79,0,0,0,0,2.74A.67.67,0,0,0,39.75,91.34Z" style="fill:#232f3e"/><path d="M46.51,92.35v-3.7a1.25,1.25,0,0,0-.15-.7.54.54,0,0,0-.49-.22,1.57,1.57,0,0,0-.82.26v4.36H43.4V86.72h1.35l.13.51a3.35,3.35,0,0,1,1.84-.65,1.35,1.35,0,0,1,1.07.42,1.83,1.83,0,0,1,.37,1.22v4.13Z" style="fill:#232f3e"/><path d="M52.2,92.35V84.72h4.55V85.9H53.89v1.95h2.29V89H53.89v2.15h2.86v1.18Z" style="fill:#232f3e"/><path d="M62.79,92.13a4.59,4.59,0,0,1-1.78.34q-3.37,0-3.37-3.9a4.4,4.4,0,0,1,.88-2.95,3.15,3.15,0,0,1,2.53-1,4.72,4.72,0,0,1,1.65.3v1.21a5.74,5.74,0,0,0-1.45-.23,1.62,1.62,0,0,0-1.4.61,3.37,3.37,0,0,0-.44,1.93v.25a3.27,3.27,0,0,0,.43,1.9,1.57,1.57,0,0,0,1.38.61,7.14,7.14,0,0,0,1.57-.26Z" style="fill:#232f3e"/><path d="M63.83,85.28A5.54,5.54,0,0,1,65,84.73a3.92,3.92,0,0,1,1.13-.17,1.91,1.91,0,0,1,2.07,2.08,2.83,2.83,0,0,1-.21,1A6.71,6.71,0,0,1,67.2,89q-.58.78-1.74,2.13h3v1.25h-4.8v-1.1c.76-.9,1.33-1.61,1.73-2.15a8,8,0,0,0,.85-1.34,2.44,2.44,0,0,0,.25-1.05.91.91,0,0,0-.19-.63.69.69,0,0,0-.56-.22,3.94,3.94,0,0,0-1.91.69Z" style="fill:#232f3e"/><path d="M7.7,103a3.7,3.7,0,0,1-1.28-1A2,2,0,0,1,6,100.77a2,2,0,0,1,.34-1.17,2.11,2.11,0,0,1,.92-.77,3.14,3.14,0,0,1,1.34-.27,4.88,4.88,0,0,1,1.89.39v1.17a5.44,5.44,0,0,0-1.72-.33A1.29,1.29,0,0,0,8,100a.77.77,0,0,0-.28.64.86.86,0,0,0,.18.56,2.2,2.2,0,0,0,.72.48l.65.32a4.73,4.73,0,0,1,1,.62,1.76,1.76,0,0,1,.54.69,2.13,2.13,0,0,1,.18.92,2,2,0,0,1-.74,1.65,3.12,3.12,0,0,1-2,.61,5.52,5.52,0,0,1-1.14-.12,4.06,4.06,0,0,1-1-.32v-1.15a7.85,7.85,0,0,0,1,.25,5.33,5.33,0,0,0,1,.11A1.34,1.34,0,0,0,9,105a.86.86,0,0,0,.3-.71.84.84,0,0,0-.21-.58,2.47,2.47,0,0,0-.71-.47Z" style="fill:#232f3e"/><path d="M12.12,108.61v-7.89h1.35l.12.48a2.46,2.46,0,0,1,.71-.45,2.16,2.16,0,0,1,.79-.17,1.75,1.75,0,0,1,1.51.74,3.68,3.68,0,0,1,.52,2.14,3.79,3.79,0,0,1-.55,2.2,1.74,1.74,0,0,1-1.51.78,2.08,2.08,0,0,1-.68-.12,1.91,1.91,0,0,1-.61-.35v2.64Zm2.42-6.91a1.29,1.29,0,0,0-.77.25v3.11a1.43,1.43,0,0,0,.79.26.72.72,0,0,0,.7-.42,3.22,3.22,0,0,0,.21-1.37,3.34,3.34,0,0,0-.21-1.41A.74.74,0,0,0,14.54,101.7Z" style="fill:#232f3e"/><path d="M20.5,106.49a2.31,2.31,0,0,1-1.85-.77,4,4,0,0,1,0-4.37,2.31,2.31,0,0,1,1.85-.77,2.29,2.29,0,0,1,1.84.77,4,4,0,0,1,0,4.37A2.29,2.29,0,0,1,20.5,106.49Zm0-1.15a.66.66,0,0,0,.64-.43,4.79,4.79,0,0,0,0-2.74.69.69,0,0,0-1.29,0,4.79,4.79,0,0,0,0,2.74A.67.67,0,0,0,20.5,105.34Z" style="fill:#232f3e"/><path d="M27.18,106.2a3.47,3.47,0,0,1-1.23.22,1.47,1.47,0,0,1-1.72-1.7v-2.9H23.5v-.92l.78-.15.24-1.54h1.36v1.51h1.28v1.1H25.88v2.77a.79.79,0,0,0,.14.52.71.71,0,0,0,.54.16,2.85,2.85,0,0,0,.62-.08Z" style="fill:#232f3e"/><path d="M30.76,106.35V98.72h1.69v7.63Z" style="fill:#232f3e"/><path d="M37.13,106.35v-3.7A1.36,1.36,0,0,0,37,102a.55.55,0,0,0-.5-.22,1.56,1.56,0,0,0-.81.26v4.36H34v-5.63h1.35l.14.51a3.32,3.32,0,0,1,1.84-.65,1.35,1.35,0,0,1,1.07.42,1.83,1.83,0,0,1,.36,1.22v4.13Z" style="fill:#232f3e"/><path d="M42.18,104.77c0-.25-.17-.46-.52-.62l-.72-.35a1.7,1.7,0,0,1-1.13-1.59,1.42,1.42,0,0,1,.55-1.18,2.26,2.26,0,0,1,1.47-.45,3.57,3.57,0,0,1,1.53.35v1a5.13,5.13,0,0,0-.7-.19,3,3,0,0,0-.6-.07c-.51,0-.77.18-.77.54s.21.45.64.66l.72.34a1.9,1.9,0,0,1,.77.62,1.69,1.69,0,0,1,.24.93,1.56,1.56,0,0,1-.55,1.27,2.28,2.28,0,0,1-1.48.46,3.8,3.8,0,0,1-1.82-.44v-1a5.45,5.45,0,0,0,1.61.35.86.86,0,0,0,.57-.17A.56.56,0,0,0,42.18,104.77Z" style="fill:#232f3e"/><path d="M47.63,106.2a3.55,3.55,0,0,1-1.23.22,1.85,1.85,0,0,1-1.32-.4,1.81,1.81,0,0,1-.41-1.3v-2.9h-.73v-.92l.78-.15L45,99.21h1.36v1.51H47.6v1.1H46.32v2.77a.73.73,0,0,0,.15.52.69.69,0,0,0,.53.16,3,3,0,0,0,.63-.08Z" style="fill:#232f3e"/><path d="M51.41,106.35l-.15-.51a1.42,1.42,0,0,1-.59.47,1.78,1.78,0,0,1-.78.18,1.56,1.56,0,0,1-1.18-.45,1.91,1.91,0,0,1,.1-2.53,2,2,0,0,1,1.43-.47,4,4,0,0,1,.93.13v-.51a1.42,1.42,0,0,0-.16-.78.78.78,0,0,0-.61-.2,5.79,5.79,0,0,0-1.77.35v-1a2.9,2.9,0,0,1,.91-.33,5.57,5.57,0,0,1,1.16-.12,2.21,2.21,0,0,1,1.52.44,1.82,1.82,0,0,1,.47,1.39v3.94Zm-1-.92a1.19,1.19,0,0,0,.8-.35V104a2.38,2.38,0,0,0-.63-.07.66.66,0,0,0-.53.2.81.81,0,0,0-.19.59.82.82,0,0,0,.15.52A.47.47,0,0,0,50.37,105.43Z" style="fill:#232f3e"/><path d="M57.19,106.35v-3.7a1.36,1.36,0,0,0-.14-.7.55.55,0,0,0-.5-.22,1.59,1.59,0,0,0-.82.26v4.36H54.08v-5.63h1.35l.13.51a3.38,3.38,0,0,1,1.85-.65,1.36,1.36,0,0,1,1.07.42,1.83,1.83,0,0,1,.36,1.22v4.13Z" style="fill:#232f3e"/><path d="M63.88,106.09a2,2,0,0,1-.64.26,3.59,3.59,0,0,1-.81.09,2.28,2.28,0,0,1-1.84-.73,3.91,3.91,0,0,1,0-4.32,2.36,2.36,0,0,1,1.87-.76,2.87,2.87,0,0,1,1.35.33v1a3.08,3.08,0,0,0-1-.19,1,1,0,0,0-.93.4,2.28,2.28,0,0,0-.29,1.29v.16a2.31,2.31,0,0,0,.28,1.28,1,1,0,0,0,.9.4,3.32,3.32,0,0,0,1.09-.21Z" style="fill:#232f3e"/><path d="M66.14,103.92A1.77,1.77,0,0,0,66.5,105a1.45,1.45,0,0,0,1.06.33,3.26,3.26,0,0,0,.69-.09,6.31,6.31,0,0,0,.8-.21v1a3,3,0,0,1-.83.31,4.77,4.77,0,0,1-1,.11c-1.72,0-2.58-1-2.58-2.95a3.37,3.37,0,0,1,.63-2.2,2.23,2.23,0,0,1,1.83-.76c1.36,0,2,.76,2,2.29a4.32,4.32,0,0,1-.12,1Zm.92-2.32c-.58,0-.88.46-.92,1.37h1.62v-.25a1.68,1.68,0,0,0-.17-.86A.59.59,0,0,0,67.06,101.6Z" style="fill:#232f3e"/><path d="M72.29,104.77c0-.25-.18-.46-.52-.62l-.72-.35a1.69,1.69,0,0,1-1.14-1.59,1.43,1.43,0,0,1,.56-1.18,2.26,2.26,0,0,1,1.47-.45,3.57,3.57,0,0,1,1.53.35v1a5.56,5.56,0,0,0-.7-.19,3,3,0,0,0-.6-.07c-.52,0-.77.18-.77.54s.21.45.63.66l.73.34a1.9,1.9,0,0,1,.77.62,1.69,1.69,0,0,1,.24.93,1.59,1.59,0,0,1-.55,1.27,2.31,2.31,0,0,1-1.49.46,3.85,3.85,0,0,1-1.82-.44v-1a5.5,5.5,0,0,0,1.62.35.81.81,0,0,0,.56-.17A.57.57,0,0,0,72.29,104.77Z" style="fill:#232f3e"/></g><g id="ICONS_-_EDIT" data-name="ICONS - EDIT"><path d="M45.35,47H34.65A1.65,1.65,0,0,1,33,45.38V34.68A1.65,1.65,0,0,1,34.65,33h10.7A1.65,1.65,0,0,1,47,34.68v10.7A1.65,1.65,0,0,1,45.35,47ZM35,45H45V35H35Z" style="fill:#fff"/><path d="M39.54,53H28.46A1.46,1.46,0,0,1,27,51.57V40.5A1.47,1.47,0,0,1,28.46,39H32v2H29V51H39V48h2v3.54A1.46,1.46,0,0,1,39.54,53Z" style="fill:#fff"/><path d="M51.54,41H48V39h3V29H41v3H39V28.5A1.47,1.47,0,0,1,40.46,27H51.54A1.47,1.47,0,0,1,53,28.5V39.57A1.46,1.46,0,0,1,51.54,41Z" style="fill:#fff"/><rect x="24.5" y="16.34" width="2" height="18.38" transform="translate(-10.59 25.51) rotate(-45)" style="fill:#fff"/><rect x="53.5" y="45.34" width="2" height="18.38" transform="translate(-22.6 54.51) rotate(-45)" style="fill:#fff"/><rect x="17.55" y="56.53" width="9.9" height="2" transform="translate(-34.09 32.76) rotate(-45)" style="fill:#fff"/><rect x="52.55" y="21.53" width="9.9" height="2" transform="translate(0.91 47.26) rotate(-45)" style="fill:#fff"/><rect x="15" y="39.03" width="6" height="2" style="fill:#fff"/><rect x="59" y="39.03" width="6" height="2" style="fill:#fff"/><rect x="39" y="59.03" width="2" height="5.93" style="fill:#fff"/><rect x="39" y="15.03" width="2" height="6" style="fill:#fff"/><path d="M58.65,53.5,57,52.33a21,21,0,0,0,0-24.59l1.62-1.17a23,23,0,0,1,0,26.93Z" style="fill:#fff"/><path d="M52.29,23a21,21,0,0,0-24.58,0l-1.18-1.62a23,23,0,0,1,26.94,0Z" style="fill:#fff"/><path d="M40,63a22.82,22.82,0,0,1-13.47-4.35l1.18-1.62a21,21,0,0,0,24.58,0l1.18,1.62A22.82,22.82,0,0,1,40,63Z" style="fill:#fff"/><path d="M21.35,53.5a23,23,0,0,1,0-26.93L23,27.74a21,21,0,0,0,0,24.59Z" style="fill:#fff"/></g></svg>