<svg xmlns="http://www.w3.org/2000/svg" width="80" height="115" viewBox="0 0 80 115"><title>architecture-product-card_AWS_CodeCommit</title><g id="CARDS"><rect x="1" y="1" width="78" height="78" style="fill:#232f3e"/><path d="M0,0V80H0v35H80V80h0V0ZM1,1H79V79H1Z" style="fill:#fff"/></g><g id="TEXT_-_EDIT" data-name="TEXT - EDIT"><path d="M33.69,92.35l-.44-1.82h-2l-.42,1.82H29.06l2.31-7.63h1.87l2.3,7.63Zm-2.18-2.92H33l-.76-3.16Z" style="fill:#232f3e"/><path d="M40.89,92.35,40,86.72l-.89,5.63H37.19l-1.78-7.63h1.7l1.06,6.06L39.08,85h1.84l.94,5.65,1-6h1.66l-1.78,7.63Z" style="fill:#232f3e"/><path d="M46.84,89a3.55,3.55,0,0,1-1.27-1,2,2,0,0,1-.39-1.23,2,2,0,0,1,.34-1.17,2.11,2.11,0,0,1,.92-.77,3.18,3.18,0,0,1,1.34-.27,4.85,4.85,0,0,1,1.89.39v1.17A5.44,5.44,0,0,0,48,85.79a1.24,1.24,0,0,0-.79.23.75.75,0,0,0-.29.64.86.86,0,0,0,.18.56,2.32,2.32,0,0,0,.72.48l.65.32a5.12,5.12,0,0,1,1,.62,2,2,0,0,1,.54.69,2.29,2.29,0,0,1,.17.92,2,2,0,0,1-.74,1.65,3.09,3.09,0,0,1-2,.61,5.35,5.35,0,0,1-1.13-.12,3.76,3.76,0,0,1-.95-.32V90.92a7.29,7.29,0,0,0,1,.25,5.33,5.33,0,0,0,1,.11,1.34,1.34,0,0,0,.88-.25.86.86,0,0,0,.3-.71.84.84,0,0,0-.21-.58,2.47,2.47,0,0,0-.71-.47Z" style="fill:#232f3e"/><path d="M15.21,106.13a4.59,4.59,0,0,1-1.78.34q-3.37,0-3.37-3.9a4.4,4.4,0,0,1,.88-2.95,3.14,3.14,0,0,1,2.53-1,4.72,4.72,0,0,1,1.65.3v1.21a5.74,5.74,0,0,0-1.45-.23,1.62,1.62,0,0,0-1.4.61,3.37,3.37,0,0,0-.44,1.93v.25a3.27,3.27,0,0,0,.43,1.9,1.56,1.56,0,0,0,1.37.61,7.12,7.12,0,0,0,1.58-.26Z" style="fill:#232f3e"/><path d="M18.44,106.49a2.29,2.29,0,0,1-1.84-.77,4,4,0,0,1,0-4.37,2.29,2.29,0,0,1,1.84-.77,2.27,2.27,0,0,1,1.84.77,3.95,3.95,0,0,1,0,4.37A2.27,2.27,0,0,1,18.44,106.49Zm0-1.15a.67.67,0,0,0,.65-.43,5,5,0,0,0,0-2.74.67.67,0,0,0-.65-.44.65.65,0,0,0-.64.44,4.79,4.79,0,0,0,0,2.74A.65.65,0,0,0,18.44,105.34Z" style="fill:#232f3e"/><path d="M25.34,106.35l-.13-.49a2,2,0,0,1-.63.43,1.86,1.86,0,0,1-.72.15,1.75,1.75,0,0,1-1.51-.75,3.65,3.65,0,0,1-.54-2.13,3.73,3.73,0,0,1,.56-2.19,1.76,1.76,0,0,1,1.53-.79,2.08,2.08,0,0,1,.63.13,2.35,2.35,0,0,1,.61.33V98.21h1.65v8.14Zm-.92-1a1.34,1.34,0,0,0,.72-.22V102a1.51,1.51,0,0,0-.8-.26.7.7,0,0,0-.67.44,3.39,3.39,0,0,0-.21,1.39,3.05,3.05,0,0,0,.23,1.36A.77.77,0,0,0,24.42,105.32Z" style="fill:#232f3e"/><path d="M29.43,103.92a1.66,1.66,0,0,0,.36,1.12,1.45,1.45,0,0,0,1.06.33,3.26,3.26,0,0,0,.68-.09,5.54,5.54,0,0,0,.8-.21v1a2.77,2.77,0,0,1-.83.31,4.77,4.77,0,0,1-1,.11c-1.72,0-2.58-1-2.58-2.95a3.37,3.37,0,0,1,.64-2.2,2.22,2.22,0,0,1,1.82-.76c1.37,0,2,.76,2,2.29a4.32,4.32,0,0,1-.12,1Zm.91-2.32c-.57,0-.88.46-.91,1.37H31v-.25a1.59,1.59,0,0,0-.17-.86A.59.59,0,0,0,30.34,101.6Z" style="fill:#232f3e"/><path d="M38.62,106.13a4.59,4.59,0,0,1-1.78.34q-3.37,0-3.38-3.9a4.46,4.46,0,0,1,.88-2.95,3.16,3.16,0,0,1,2.53-1,4.64,4.64,0,0,1,1.65.3v1.21a5.61,5.61,0,0,0-1.44-.23,1.61,1.61,0,0,0-1.4.61,3.29,3.29,0,0,0-.45,1.93v.25a3.26,3.26,0,0,0,.44,1.9,1.56,1.56,0,0,0,1.37.61,7.12,7.12,0,0,0,1.58-.26Z" style="fill:#232f3e"/><path d="M41.85,106.49a2.27,2.27,0,0,1-1.84-.77,3.95,3.95,0,0,1,0-4.37,2.58,2.58,0,0,1,3.68,0,4,4,0,0,1,0,4.37A2.29,2.29,0,0,1,41.85,106.49Zm0-1.15a.65.65,0,0,0,.64-.43,4.79,4.79,0,0,0,0-2.74.65.65,0,0,0-.64-.44.67.67,0,0,0-.65.44,5,5,0,0,0,0,2.74A.67.67,0,0,0,41.85,105.34Z" style="fill:#232f3e"/><path d="M51.57,106.35v-3.71a1.32,1.32,0,0,0-.14-.69.49.49,0,0,0-.46-.22,1.59,1.59,0,0,0-.8.26.5.5,0,0,1,0,.12v4.24H48.54v-3.71a1.32,1.32,0,0,0-.14-.69.51.51,0,0,0-.47-.22,1.55,1.55,0,0,0-.78.26v4.36H45.5v-5.63h1.35l.13.51a3.31,3.31,0,0,1,1.81-.65,1.25,1.25,0,0,1,1.2.67,3.38,3.38,0,0,1,1.83-.67,1.3,1.3,0,0,1,1,.42,1.85,1.85,0,0,1,.36,1.22v4.13Z" style="fill:#232f3e"/><path d="M60.69,106.35v-3.71a1.23,1.23,0,0,0-.14-.69.49.49,0,0,0-.46-.22,1.59,1.59,0,0,0-.8.26.5.5,0,0,1,0,.12v4.24H57.66v-3.71a1.32,1.32,0,0,0-.14-.69.51.51,0,0,0-.47-.22,1.55,1.55,0,0,0-.78.26v4.36H54.62v-5.63H56l.13.51a3.31,3.31,0,0,1,1.81-.65,1.25,1.25,0,0,1,1.2.67,3.38,3.38,0,0,1,1.83-.67,1.3,1.3,0,0,1,1,.42,1.85,1.85,0,0,1,.36,1.22v4.13Z" style="fill:#232f3e"/><path d="M64.61,99.81a1,1,0,0,1-.71-.22.76.76,0,0,1-.27-.61.75.75,0,0,1,.27-.61,1.2,1.2,0,0,1,1.41,0,.77.77,0,0,1,.26.61.79.79,0,0,1-.26.61A1,1,0,0,1,64.61,99.81Zm-.83,6.54v-5.63h1.65v5.63Z" style="fill:#232f3e"/><path d="M69.92,106.2a3.47,3.47,0,0,1-1.23.22,1.8,1.8,0,0,1-1.31-.4,1.77,1.77,0,0,1-.41-1.3v-2.9h-.74v-.92l.79-.15.24-1.54h1.36v1.51H69.9v1.1H68.62v2.77a.79.79,0,0,0,.14.52.7.7,0,0,0,.53.16,2.94,2.94,0,0,0,.63-.08Z" style="fill:#232f3e"/></g><g id="ICONS_-_EDIT" data-name="ICONS - EDIT"><path d="M20,25.06a5,5,0,1,1,5-5A5,5,0,0,1,20,25.06Zm0-8a3,3,0,1,0,3,3A3,3,0,0,0,20,17.06Z" style="fill:#fff"/><path d="M20,47.13a5,5,0,1,1,5-5A5,5,0,0,1,20,47.13Zm0-8a3,3,0,1,0,3,3A3,3,0,0,0,20,39.13Z" style="fill:#fff"/><path d="M20,64.71a5,5,0,1,1,5-5A5,5,0,0,1,20,64.71Zm0-8a3,3,0,1,0,3,3A3,3,0,0,0,20,56.71Z" style="fill:#fff"/><rect x="19" y="23.94" width="2" height="14" style="fill:#fff"/><rect x="19" y="46.94" width="2" height="9" style="fill:#fff"/><path d="M22,56.94a5.07,5.07,0,0,1,3.3-4.73l9.07-3.56A2.45,2.45,0,0,0,36,46.43V38.94h2v7.49a4.44,4.44,0,0,1-2.9,4.08L26,54.07a3,3,0,0,0-2,2.78Z" style="fill:#fff"/><path d="M64,64.94H37a1,1,0,0,1-1-1v-11h2v10H63v-36H38v-2H64a1,1,0,0,1,1,1v38A1,1,0,0,1,64,64.94Z" style="fill:#fff"/><path d="M45.82,49.41l-4-3.91A1,1,0,0,1,41.9,44l4.49-3.36,1.2,1.6L44,44.88,47.21,48Z" style="fill:#fff"/><path d="M55.61,50l-1.2-1.6L58,45.78l-3.17-3.09,1.39-1.44,4,3.92a1,1,0,0,1,.3.78,1,1,0,0,1-.4.73Z" style="fill:#fff"/><rect x="43.85" y="44.94" width="14.22" height="2" transform="translate(-11.6 74.11) rotate(-66.28)" style="fill:#fff"/><path d="M37,39.94a5,5,0,1,1,5-5A5,5,0,0,1,37,39.94Zm0-8a3,3,0,1,0,3,3A3,3,0,0,0,37,31.94Z" style="fill:#fff"/><polyline points="27 28.94 27 22.94 33 22.94" style="fill:#fff"/><path d="M28,28.94H26v-6a1,1,0,0,1,1-1h6v2H28Z" style="fill:#fff"/><line x1="33" y1="28.94" x2="27" y2="22.94" style="fill:#fff"/><rect x="29" y="21.69" width="2" height="8.49" transform="translate(-9.55 28.81) rotate(-45)" style="fill:#fff"/></g></svg>