<svg xmlns="http://www.w3.org/2000/svg" width="80" height="100" viewBox="0 0 80 100"><title>architecture-product-card_AWS_Shield</title><g id="CARDS"><rect x="1" y="1" width="78" height="78" style="fill:#232f3e"/><path d="M0,0V80H0v20H80V80h0V0ZM1,1H79V79H1Z" style="fill:#fff"/></g><g id="TEXT_-_EDIT" data-name="TEXT - EDIT"><path d="M17.45,92.35,17,90.53H15l-.42,1.82H12.83l2.31-7.63H17l2.3,7.63Zm-2.18-2.92h1.5L16,86.27Z" style="fill:#232f3e"/><path d="M24.66,92.35l-.94-5.63-.89,5.63H21l-1.78-7.63h1.69l1.07,6.06L22.85,85h1.83l.94,5.65,1-6h1.66l-1.79,7.63Z" style="fill:#232f3e"/><path d="M30.61,89a3.6,3.6,0,0,1-1.28-1A2,2,0,0,1,29,86.77a2.06,2.06,0,0,1,.33-1.17,2.2,2.2,0,0,1,.93-.77,3.11,3.11,0,0,1,1.34-.27,4.92,4.92,0,0,1,1.89.39v1.17a5.44,5.44,0,0,0-1.72-.33,1.27,1.27,0,0,0-.8.23.78.78,0,0,0-.29.64.81.81,0,0,0,.19.56,2.09,2.09,0,0,0,.72.48l.65.32a5,5,0,0,1,1,.62,1.76,1.76,0,0,1,.54.69,2.13,2.13,0,0,1,.18.92,2,2,0,0,1-.74,1.65,3.13,3.13,0,0,1-2,.61A5.5,5.5,0,0,1,30,92.39a3.9,3.9,0,0,1-.95-.32V90.92a7.45,7.45,0,0,0,1,.25,5.33,5.33,0,0,0,.95.11,1.32,1.32,0,0,0,.88-.25.87.87,0,0,0,.31-.71.85.85,0,0,0-.22-.58,2.4,2.4,0,0,0-.7-.47Z" style="fill:#232f3e"/><path d="M39,89a3.6,3.6,0,0,1-1.28-1,2,2,0,0,1-.39-1.23,2.07,2.07,0,0,1,.34-1.17,2.17,2.17,0,0,1,.92-.77A3.19,3.19,0,0,1,40,84.56a4.92,4.92,0,0,1,1.89.39v1.17a5.5,5.5,0,0,0-1.73-.33,1.26,1.26,0,0,0-.79.23.78.78,0,0,0-.29.64.81.81,0,0,0,.19.56,2.14,2.14,0,0,0,.71.48l.65.32a5.12,5.12,0,0,1,1,.62,2,2,0,0,1,.54.69,2.13,2.13,0,0,1,.18.92,2,2,0,0,1-.75,1.65,3.09,3.09,0,0,1-2,.61,5.43,5.43,0,0,1-1.13-.12,3.9,3.9,0,0,1-1-.32V90.92a7.68,7.68,0,0,0,1,.25,5.53,5.53,0,0,0,1,.11,1.32,1.32,0,0,0,.88-.25.86.86,0,0,0,.3-.71.84.84,0,0,0-.21-.58,2.4,2.4,0,0,0-.7-.47Z" style="fill:#232f3e"/><path d="M46.54,92.35v-3.7a1.25,1.25,0,0,0-.15-.7.53.53,0,0,0-.49-.22,1.59,1.59,0,0,0-.82.26v4.36H43.43V84.21h1.65v2.91a3.19,3.19,0,0,1,1.67-.54,1.35,1.35,0,0,1,1.07.42,1.83,1.83,0,0,1,.37,1.22v4.13Z" style="fill:#232f3e"/><path d="M50.45,85.81a1.06,1.06,0,0,1-.71-.22.75.75,0,0,1-.26-.61.74.74,0,0,1,.26-.61,1.2,1.2,0,0,1,1.41,0,.75.75,0,0,1,.27.61.76.76,0,0,1-.27.61A1,1,0,0,1,50.45,85.81Zm-.83,6.54V86.72h1.65v5.63Z" style="fill:#232f3e"/><path d="M54,89.92A1.66,1.66,0,0,0,54.31,91a1.43,1.43,0,0,0,1.06.33,3.26,3.26,0,0,0,.68-.09,5.9,5.9,0,0,0,.8-.21v1a2.88,2.88,0,0,1-.83.31,4.77,4.77,0,0,1-1,.11c-1.72,0-2.58-1-2.58-2.95a3.37,3.37,0,0,1,.63-2.2,2.24,2.24,0,0,1,1.83-.76c1.36,0,2.05.76,2.05,2.29a4.32,4.32,0,0,1-.12,1Zm.91-2.32c-.58,0-.88.46-.91,1.37h1.61v-.25a1.68,1.68,0,0,0-.17-.86A.59.59,0,0,0,54.86,87.6Z" style="fill:#232f3e"/><path d="M60.49,92.25a2.7,2.7,0,0,1-1,.16A1.39,1.39,0,0,1,58.45,92a1.54,1.54,0,0,1-.36-1.12V84.21h1.65v6.54a.75.75,0,0,0,.08.4.36.36,0,0,0,.32.12,2.26,2.26,0,0,0,.35,0Z" style="fill:#232f3e"/><path d="M64.63,92.35l-.13-.49a2.2,2.2,0,0,1-.63.43,1.86,1.86,0,0,1-.72.15,1.75,1.75,0,0,1-1.51-.75,3.65,3.65,0,0,1-.54-2.13,3.73,3.73,0,0,1,.56-2.19,1.76,1.76,0,0,1,1.53-.79,2.08,2.08,0,0,1,.63.13,2.35,2.35,0,0,1,.61.33V84.21h1.65v8.14Zm-.93-1a1.35,1.35,0,0,0,.73-.22V88a1.54,1.54,0,0,0-.8-.26.69.69,0,0,0-.67.44,3.39,3.39,0,0,0-.21,1.39A3.05,3.05,0,0,0,63,90.89.76.76,0,0,0,63.7,91.32Z" style="fill:#232f3e"/></g><g id="ICONS_-_EDIT" data-name="ICONS - EDIT"><path d="M36,66c-10.36,0-15.25-6.23-17.54-11.46A31.08,31.08,0,0,1,16,43.29V22.1a1,1,0,0,1,.65-.94l19-7.1a1.06,1.06,0,0,1,.66,0l19,6.11a1,1,0,0,1,.69.95V41H54V21.84L36,16.06,18,22.79v20.5a29.37,29.37,0,0,0,2.3,10.45C23.27,60.55,28.55,64,36,64a18.24,18.24,0,0,0,9.14-2.19l1,1.74A20.17,20.17,0,0,1,36,66Z" style="fill:#fff"/><path d="M36,60.74c-5,0-9.13-2.68-12.06-7.74A26.81,26.81,0,0,1,21,45.45a1.23,1.23,0,0,1,0-.19V25.52a1,1,0,0,1,.65-.94l14-5.26a1.05,1.05,0,0,1,.7,0l14,5.26a1,1,0,0,1,.65.94V42H49V26.21L36,21.33,23,26.21V45.16c.25,1.17,3.2,13.58,13,13.58a10.36,10.36,0,0,0,6-1.87l1.14,1.64A12.31,12.31,0,0,1,36,60.74Z" style="fill:#fff"/><rect x="35" y="20.26" width="2" height="39.48" style="fill:#fff"/><rect x="50" y="53" width="10" height="2" style="fill:#fff"/><rect x="54" y="49" width="2" height="10" style="fill:#fff"/><path d="M55,65A11,11,0,1,1,66,54,11,11,0,0,1,55,65Zm0-20a9,9,0,1,0,9,9A9,9,0,0,0,55,45Z" style="fill:#fff"/></g></svg>