<svg xmlns="http://www.w3.org/2000/svg" width="80" height="115" viewBox="0 0 80 115"><title>Artboard 71</title><g id="CARDS"><rect x="1" y="1" width="78" height="78" style="fill:#232f3e"/><path d="M0,0V80H0v35H80V80h0V0ZM1,1H79V79H1Z" style="fill:#fff"/></g><g id="TEXT_-_EDIT" data-name="TEXT - EDIT"><path d="M33.69,92.35l-.44-1.82h-2l-.42,1.82H29.06l2.31-7.63h1.87l2.3,7.63Zm-2.18-2.92H33l-.76-3.16Z" style="fill:#232f3e"/><path d="M40.89,92.35,40,86.72l-.89,5.63H37.19l-1.78-7.63h1.7l1.06,6.06L39.08,85h1.84l.94,5.65,1-6h1.66l-1.78,7.63Z" style="fill:#232f3e"/><path d="M46.84,89a3.55,3.55,0,0,1-1.27-1,2,2,0,0,1-.39-1.23,2,2,0,0,1,.34-1.17,2.11,2.11,0,0,1,.92-.77,3.18,3.18,0,0,1,1.34-.27,4.85,4.85,0,0,1,1.89.39v1.17A5.44,5.44,0,0,0,48,85.79a1.24,1.24,0,0,0-.79.23.75.75,0,0,0-.29.64.86.86,0,0,0,.18.56,2.32,2.32,0,0,0,.72.48l.65.32a5.12,5.12,0,0,1,1,.62,2,2,0,0,1,.54.69,2.29,2.29,0,0,1,.17.92,2,2,0,0,1-.74,1.65,3.09,3.09,0,0,1-2,.61,5.35,5.35,0,0,1-1.13-.12,3.76,3.76,0,0,1-.95-.32V90.92a7.29,7.29,0,0,0,1,.25,5.33,5.33,0,0,0,1,.11,1.34,1.34,0,0,0,.88-.25.86.86,0,0,0,.3-.71.84.84,0,0,0-.21-.58,2.47,2.47,0,0,0-.71-.47Z" style="fill:#232f3e"/><path d="M21.34,106.13a4.63,4.63,0,0,1-1.78.34q-3.37,0-3.38-3.9a4.46,4.46,0,0,1,.88-2.95,3.16,3.16,0,0,1,2.53-1,4.72,4.72,0,0,1,1.65.3v1.21a5.61,5.61,0,0,0-1.44-.23,1.61,1.61,0,0,0-1.4.61,3.29,3.29,0,0,0-.45,1.93v.25a3.26,3.26,0,0,0,.44,1.9,1.55,1.55,0,0,0,1.37.61,7.12,7.12,0,0,0,1.58-.26Z" style="fill:#232f3e"/><path d="M24.57,106.49a2.31,2.31,0,0,1-1.85-.77,4,4,0,0,1,0-4.37,2.31,2.31,0,0,1,1.85-.77,2.29,2.29,0,0,1,1.84.77,4,4,0,0,1,0,4.37A2.29,2.29,0,0,1,24.57,106.49Zm0-1.15a.66.66,0,0,0,.64-.43,4.79,4.79,0,0,0,0-2.74.66.66,0,0,0-.64-.44.67.67,0,0,0-.65.44,4.79,4.79,0,0,0,0,2.74A.67.67,0,0,0,24.57,105.34Z" style="fill:#232f3e"/><path d="M31.47,106.35l-.13-.49a2.12,2.12,0,0,1-.64.43,1.78,1.78,0,0,1-.71.15,1.74,1.74,0,0,1-1.51-.75,3.65,3.65,0,0,1-.54-2.13,3.73,3.73,0,0,1,.55-2.19,1.76,1.76,0,0,1,1.53-.79,2.08,2.08,0,0,1,.64.13,2.52,2.52,0,0,1,.61.33V98.21h1.65v8.14Zm-.93-1a1.4,1.4,0,0,0,.73-.22V102a1.54,1.54,0,0,0-.8-.26.69.69,0,0,0-.67.44,3.39,3.39,0,0,0-.21,1.39,3.05,3.05,0,0,0,.23,1.36A.75.75,0,0,0,30.54,105.32Z" style="fill:#232f3e"/><path d="M35.55,103.92a1.71,1.71,0,0,0,.37,1.12,1.43,1.43,0,0,0,1.06.33,3.26,3.26,0,0,0,.68-.09,5.9,5.9,0,0,0,.8-.21v1a2.88,2.88,0,0,1-.83.31,4.77,4.77,0,0,1-1,.11c-1.72,0-2.58-1-2.58-2.95a3.37,3.37,0,0,1,.63-2.2,2.23,2.23,0,0,1,1.83-.76c1.36,0,2,.76,2,2.29a4.32,4.32,0,0,1-.12,1Zm.92-2.32c-.58,0-.88.46-.92,1.37h1.62v-.25a1.68,1.68,0,0,0-.17-.86A.59.59,0,0,0,36.47,101.6Z" style="fill:#232f3e"/><path d="M39.81,106.35V98.72h2.51a2.4,2.4,0,0,1,1.64.56,1.87,1.87,0,0,1,.64,1.47,1.83,1.83,0,0,1-.25,1,1.55,1.55,0,0,1-.74.61,1.92,1.92,0,0,1,1,.68,2.15,2.15,0,0,1-.35,2.74,2.83,2.83,0,0,1-1.87.59Zm1.59-6.53v2.11h.67a.84.84,0,0,0,.66-.27,1.08,1.08,0,0,0,.25-.77,1.37,1.37,0,0,0-.21-.79.73.73,0,0,0-.59-.28Zm0,3.16v2.27h1a.9.9,0,0,0,.71-.29,1.28,1.28,0,0,0,.24-.84,1.19,1.19,0,0,0-.27-.84,1,1,0,0,0-.77-.3Z" style="fill:#232f3e"/><path d="M49.35,106.35l-.13-.51a3.18,3.18,0,0,1-1.79.65,1.22,1.22,0,0,1-1-.43,2,2,0,0,1-.35-1.24v-4.1h1.65v3.62a1.61,1.61,0,0,0,.13.77.47.47,0,0,0,.45.23,1.42,1.42,0,0,0,.76-.25v-4.37H50.7v5.63Z" style="fill:#232f3e"/><path d="M53,99.81a1,1,0,0,1-.71-.22A.76.76,0,0,1,52,99a.75.75,0,0,1,.27-.61,1.2,1.2,0,0,1,1.41,0A.77.77,0,0,1,54,99a.79.79,0,0,1-.26.61A1,1,0,0,1,53,99.81Zm-.83,6.54v-5.63h1.65v5.63Z" style="fill:#232f3e"/><path d="M57.66,106.25a2.69,2.69,0,0,1-1,.16,1.43,1.43,0,0,1-1.08-.37,1.54,1.54,0,0,1-.36-1.12V98.21h1.65v6.54a.75.75,0,0,0,.08.4.37.37,0,0,0,.32.12,2.14,2.14,0,0,0,.35,0Z" style="fill:#232f3e"/><path d="M61.81,106.35l-.14-.49a2,2,0,0,1-.63.43,1.86,1.86,0,0,1-.72.15,1.75,1.75,0,0,1-1.51-.75,3.65,3.65,0,0,1-.53-2.13,3.73,3.73,0,0,1,.55-2.19,1.76,1.76,0,0,1,1.53-.79,2,2,0,0,1,.63.13,2.35,2.35,0,0,1,.61.33V98.21h1.65v8.14Zm-.93-1a1.34,1.34,0,0,0,.72-.22V102a1.51,1.51,0,0,0-.79-.26.7.7,0,0,0-.68.44,3.42,3.42,0,0,0-.2,1.39,2.92,2.92,0,0,0,.23,1.36A.75.75,0,0,0,60.88,105.32Z" style="fill:#232f3e"/></g><g id="ICONS_-_EDIT" data-name="ICONS - EDIT"><path d="M45.42,50.75l-3.71-3.6a1,1,0,0,1,.1-1.52L46,42.53l1.2,1.61L44,46.53l2.86,2.79Z" style="fill:#fff"/><path d="M54.55,51.35l-1.2-1.6,3.2-2.4-2.86-2.79,1.39-1.43,3.71,3.6a1,1,0,0,1,.3.78,1,1,0,0,1-.4.74Z" style="fill:#fff"/><rect x="43.66" y="46.5" width="13.11" height="2" transform="translate(-13.47 74.36) rotate(-66.28)" style="fill:#fff"/><path d="M63.75,57h-26a1,1,0,0,1-1-1V38a1,1,0,0,1,1-1h26a1,1,0,0,1,1,1V56A1,1,0,0,1,63.75,57Zm-25-2h24V39h-24Z" style="fill:#fff"/><path d="M30.75,65h-11a1,1,0,0,1-1-1V24a1,1,0,0,1,1-1h11a1,1,0,0,1,1,1V64A1,1,0,0,1,30.75,65Zm-10-2h9V25h-9Z" style="fill:#fff"/><path d="M20.41,63.75l-1.32-1.5,10.15-9-10.15-9a1,1,0,0,1,0-1.5l10.15-9-10.15-9,1.32-1.5,11,9.75a1,1,0,0,1,0,1.5l-10.15,9,10.15,9a1,1,0,0,1,0,1.5Z" style="fill:#fff"/><path d="M65.25,25H18.75a1,1,0,0,1-1-1V17a1,1,0,0,1,1-1h0l38.08,0a1,1,0,0,1,.64.23l8.42,7a1,1,0,0,1,.3,1.11A1,1,0,0,1,65.25,25Zm-45.5-2H62.48l-6-5L19.75,18Z" style="fill:#fff"/><path d="M51.4,25a1,1,0,0,1-.6-.2l-7.31-5.55L36.18,24.8a1,1,0,0,1-1.21,0l-7.31-5.55L20.35,24.8l-1.2-1.6,7.91-6a1,1,0,0,1,1.21,0l7.31,5.55,7.31-5.55a1,1,0,0,1,1.2,0l7.25,5.5,6-5.44a1,1,0,0,1,1.31,0l7.24,6-1.28,1.54L58,19.32l-6,5.42A1,1,0,0,1,51.4,25Z" style="fill:#fff"/><rect x="49.85" y="24" width="2" height="9" style="fill:#fff"/><path d="M18.75,27h-4a1,1,0,0,1-1-1V16a1,1,0,0,1,1-1h4a1,1,0,0,1,1,1V26A1,1,0,0,1,18.75,27Zm-3-2h2V17h-2Z" style="fill:#fff"/><path d="M62.37,38.92,50.75,34.08,39.13,38.92l-.76-1.84,12-5a.92.92,0,0,1,.76,0l12,5Z" style="fill:#fff"/></g></svg>