<svg xmlns="http://www.w3.org/2000/svg" width="80" height="130" viewBox="0 0 80 130"><title>architecture-product-card_AWS_Personal_Health_Dashboard</title><g id="CARDS"><rect x="1" y="1" width="78" height="78" style="fill:#232f3e"/><path d="M0,0V80H0v50H80V80h0V0ZM1,1H79V79H1Z" style="fill:#fff"/></g><g id="TEXT_-_EDIT" data-name="TEXT - EDIT"><path d="M11.85,92.35l-.43-1.82h-2L9,92.35H7.22l2.32-7.63h1.87l2.3,7.63ZM9.67,89.43h1.49l-.75-3.16Z" style="fill:#232f3e"/><path d="M19.06,92.35l-.94-5.63-.9,5.63H15.36l-1.79-7.63h1.7l1.06,6.06L17.25,85h1.83L20,90.68l1-6h1.67l-1.79,7.63Z" style="fill:#232f3e"/><path d="M25,89a3.6,3.6,0,0,1-1.28-1,2,2,0,0,1-.39-1.23,2.07,2.07,0,0,1,.34-1.17,2.17,2.17,0,0,1,.92-.77A3.19,3.19,0,0,1,26,84.56a4.92,4.92,0,0,1,1.89.39v1.17a5.5,5.5,0,0,0-1.72-.33,1.27,1.27,0,0,0-.8.23.78.78,0,0,0-.29.64.81.81,0,0,0,.19.56,2.14,2.14,0,0,0,.71.48l.65.32a5.12,5.12,0,0,1,1,.62,2,2,0,0,1,.54.69,2.13,2.13,0,0,1,.18.92,2,2,0,0,1-.75,1.65,3.09,3.09,0,0,1-2,.61,5.43,5.43,0,0,1-1.13-.12,3.9,3.9,0,0,1-.95-.32V90.92a7.68,7.68,0,0,0,1,.25,5.53,5.53,0,0,0,1,.11,1.32,1.32,0,0,0,.88-.25.86.86,0,0,0,.3-.71.84.84,0,0,0-.21-.58,2.4,2.4,0,0,0-.7-.47Z" style="fill:#232f3e"/><path d="M33.73,89.52v2.83H32.08V84.72h2.64a2.4,2.4,0,0,1,1.76.65,2.65,2.65,0,0,1,0,3.5,2.4,2.4,0,0,1-1.76.65Zm0-1.15h.78a.86.86,0,0,0,.72-.31,1.57,1.57,0,0,0,.25-.94,1.52,1.52,0,0,0-.25-.93.84.84,0,0,0-.72-.32h-.78Z" style="fill:#232f3e"/><path d="M39.39,89.92A1.77,1.77,0,0,0,39.75,91a1.45,1.45,0,0,0,1.06.33,3.18,3.18,0,0,0,.68-.09,5.54,5.54,0,0,0,.8-.21v1a2.77,2.77,0,0,1-.83.31,4.75,4.75,0,0,1-1,.11c-1.72,0-2.58-1-2.58-2.95a3.37,3.37,0,0,1,.63-2.2,2.23,2.23,0,0,1,1.83-.76c1.36,0,2,.76,2,2.29a4.32,4.32,0,0,1-.12,1Zm.92-2.32c-.58,0-.89.46-.92,1.37H41v-.25a1.68,1.68,0,0,0-.17-.86A.6.6,0,0,0,40.31,87.6Z" style="fill:#232f3e"/><path d="M43.54,92.35V86.72h1.35l.18.73a2.61,2.61,0,0,1,.71-.59,1.56,1.56,0,0,1,.76-.19l.38,0V88a4.85,4.85,0,0,0-.64,0,2.43,2.43,0,0,0-1.09.26v4.11Z" style="fill:#232f3e"/><path d="M49.67,90.77c0-.25-.17-.46-.52-.62l-.72-.35a1.69,1.69,0,0,1-1.14-1.59A1.43,1.43,0,0,1,47.85,87a2.26,2.26,0,0,1,1.47-.45,3.57,3.57,0,0,1,1.53.35v1a5.56,5.56,0,0,0-.7-.19,3,3,0,0,0-.6-.07c-.52,0-.77.18-.77.54s.21.45.64.66l.72.34a1.9,1.9,0,0,1,.77.62,1.69,1.69,0,0,1,.24.93A1.59,1.59,0,0,1,50.6,92a2.31,2.31,0,0,1-1.49.46,3.85,3.85,0,0,1-1.82-.44v-1a5.5,5.5,0,0,0,1.62.35.81.81,0,0,0,.56-.17A.57.57,0,0,0,49.67,90.77Z" style="fill:#232f3e"/><path d="M54.31,92.49a2.31,2.31,0,0,1-1.85-.77,4,4,0,0,1,0-4.37,2.6,2.6,0,0,1,3.69,0,4,4,0,0,1,0,4.37A2.29,2.29,0,0,1,54.31,92.49Zm0-1.15a.66.66,0,0,0,.64-.43,4.79,4.79,0,0,0,0-2.74.69.69,0,0,0-1.29,0,4.79,4.79,0,0,0,0,2.74A.67.67,0,0,0,54.31,91.34Z" style="fill:#232f3e"/><path d="M61.06,92.35v-3.7a1.27,1.27,0,0,0-.14-.7.54.54,0,0,0-.49-.22,1.57,1.57,0,0,0-.82.26v4.36H58V86.72h1.35l.13.51a3.32,3.32,0,0,1,1.84-.65,1.35,1.35,0,0,1,1.07.42,1.83,1.83,0,0,1,.36,1.22v4.13Z" style="fill:#232f3e"/><path d="M67,92.35l-.15-.51a1.49,1.49,0,0,1-.59.47,1.85,1.85,0,0,1-.78.18A1.56,1.56,0,0,1,64.32,92a1.66,1.66,0,0,1-.44-1.22,1.69,1.69,0,0,1,.53-1.31A2.08,2.08,0,0,1,65.85,89a3.88,3.88,0,0,1,.92.13v-.51a1.33,1.33,0,0,0-.16-.78.77.77,0,0,0-.61-.2,5.9,5.9,0,0,0-1.77.35V87a3.07,3.07,0,0,1,.92-.33,5.54,5.54,0,0,1,1.15-.12,2.19,2.19,0,0,1,1.52.44,1.78,1.78,0,0,1,.47,1.39v3.94Zm-1-.92a1.17,1.17,0,0,0,.79-.35V90a2.25,2.25,0,0,0-.62-.07.69.69,0,0,0-.54.2.85.85,0,0,0-.18.59.82.82,0,0,0,.15.52A.47.47,0,0,0,66,91.43Z" style="fill:#232f3e"/><path d="M72.09,92.25a2.7,2.7,0,0,1-1,.16A1.39,1.39,0,0,1,70.05,92a1.54,1.54,0,0,1-.36-1.12V84.21h1.65v6.54a.75.75,0,0,0,.08.4.36.36,0,0,0,.32.12,2.26,2.26,0,0,0,.35,0Z" style="fill:#232f3e"/><path d="M28.73,106.35v-3.3H26.39v3.3H24.71V98.72h1.68v3.15h2.34V98.72h1.69v7.63Z" style="fill:#232f3e"/><path d="M33.16,103.92a1.77,1.77,0,0,0,.36,1.12,1.45,1.45,0,0,0,1.06.33,3.11,3.11,0,0,0,.68-.09,6,6,0,0,0,.81-.21v1a3,3,0,0,1-.84.31,4.67,4.67,0,0,1-1,.11c-1.72,0-2.58-1-2.58-2.95a3.37,3.37,0,0,1,.63-2.2,2.23,2.23,0,0,1,1.83-.76c1.36,0,2,.76,2,2.29a4.32,4.32,0,0,1-.12,1Zm.92-2.32c-.58,0-.89.46-.92,1.37h1.62v-.25a1.68,1.68,0,0,0-.17-.86A.59.59,0,0,0,34.08,101.6Z" style="fill:#232f3e"/><path d="M40.21,106.35l-.14-.51a1.52,1.52,0,0,1-.6.47,1.78,1.78,0,0,1-.78.18,1.56,1.56,0,0,1-1.18-.45,1.91,1.91,0,0,1,.1-2.53A2,2,0,0,1,39,103a4,4,0,0,1,.93.13v-.51a1.33,1.33,0,0,0-.16-.78.77.77,0,0,0-.61-.2,5.9,5.9,0,0,0-1.77.35v-1a2.9,2.9,0,0,1,.91-.33,5.64,5.64,0,0,1,1.16-.12A2.21,2.21,0,0,1,41,101a1.82,1.82,0,0,1,.47,1.39v3.94Zm-1-.92a1.19,1.19,0,0,0,.8-.35V104a2.38,2.38,0,0,0-.63-.07.66.66,0,0,0-.53.2.81.81,0,0,0-.19.59.82.82,0,0,0,.15.52A.47.47,0,0,0,39.17,105.43Z" style="fill:#232f3e"/><path d="M45.28,106.25a2.69,2.69,0,0,1-1,.16,1.43,1.43,0,0,1-1.08-.37,1.54,1.54,0,0,1-.36-1.12V98.21h1.66v6.54a.77.77,0,0,0,.07.4.37.37,0,0,0,.32.12,2.14,2.14,0,0,0,.35,0Z" style="fill:#232f3e"/><path d="M49.33,106.2a3.47,3.47,0,0,1-1.23.22,1.8,1.8,0,0,1-1.31-.4,1.77,1.77,0,0,1-.41-1.3v-2.9h-.74v-.92l.79-.15.24-1.54H48v1.51h1.28v1.1H48v2.77a.79.79,0,0,0,.14.52.7.7,0,0,0,.53.16,2.94,2.94,0,0,0,.63-.08Z" style="fill:#232f3e"/><path d="M53.32,106.35v-3.7a1.25,1.25,0,0,0-.15-.7.53.53,0,0,0-.49-.22,1.59,1.59,0,0,0-.82.26v4.36H50.21V98.21h1.65v2.91a3.21,3.21,0,0,1,1.67-.54,1.34,1.34,0,0,1,1.07.42,1.83,1.83,0,0,1,.37,1.22v4.13Z" style="fill:#232f3e"/><path d="M15,120.35v-7.63h2.51a2.93,2.93,0,0,1,2.37,1,5.49,5.49,0,0,1,0,5.69,2.83,2.83,0,0,1-2.31,1Zm1.68-6.45v5.27h.71a1.28,1.28,0,0,0,1.17-.62,3.68,3.68,0,0,0,.39-1.91v-.22a3.75,3.75,0,0,0-.38-1.91,1.29,1.29,0,0,0-1.19-.61Z" style="fill:#232f3e"/><path d="M24.94,120.35l-.14-.51a1.56,1.56,0,0,1-.59.47,1.86,1.86,0,0,1-.79.18,1.56,1.56,0,0,1-1.18-.45,1.91,1.91,0,0,1,.1-2.53,2,2,0,0,1,1.43-.47,4,4,0,0,1,.93.13v-.51a1.33,1.33,0,0,0-.16-.78.77.77,0,0,0-.61-.2,5.9,5.9,0,0,0-1.77.35v-1a3,3,0,0,1,.91-.33,5.64,5.64,0,0,1,1.16-.12,2.21,2.21,0,0,1,1.52.44,1.82,1.82,0,0,1,.47,1.39v3.94Zm-1-.92a1.19,1.19,0,0,0,.8-.35V118a2.38,2.38,0,0,0-.63-.07.66.66,0,0,0-.53.2.81.81,0,0,0-.19.59.82.82,0,0,0,.15.52A.48.48,0,0,0,23.9,119.43Z" style="fill:#232f3e"/><path d="M29.62,118.77c0-.25-.18-.46-.52-.62l-.73-.35a1.7,1.7,0,0,1-1.13-1.59A1.43,1.43,0,0,1,27.8,115a2.26,2.26,0,0,1,1.47-.45,3.57,3.57,0,0,1,1.53.35v1a5.56,5.56,0,0,0-.7-.19,3,3,0,0,0-.61-.07c-.51,0-.77.18-.77.54s.22.45.64.66l.72.34a1.87,1.87,0,0,1,.78.62,1.69,1.69,0,0,1,.24.93,1.57,1.57,0,0,1-.56,1.27,2.28,2.28,0,0,1-1.48.46,3.83,3.83,0,0,1-1.82-.44v-1a5.44,5.44,0,0,0,1.62.35.85.85,0,0,0,.56-.17A.57.57,0,0,0,29.62,118.77Z" style="fill:#232f3e"/><path d="M35.13,120.35v-3.7A1.36,1.36,0,0,0,35,116a.55.55,0,0,0-.5-.22,1.62,1.62,0,0,0-.82.26v4.36H32v-8.14h1.65v2.91a3.25,3.25,0,0,1,1.68-.54,1.35,1.35,0,0,1,1.07.42,1.83,1.83,0,0,1,.36,1.22v4.13Z" style="fill:#232f3e"/><path d="M38.18,120.35v-8.14h1.65v2.9a1.81,1.81,0,0,1,.62-.39,1.89,1.89,0,0,1,.69-.14,1.73,1.73,0,0,1,1.52.73,3.65,3.65,0,0,1,.52,2.15,3.82,3.82,0,0,1-.54,2.2,1.72,1.72,0,0,1-1.52.78,2,2,0,0,1-.77-.16,1.86,1.86,0,0,1-.66-.44l-.15.51Zm2.42-4.65a1.27,1.27,0,0,0-.77.25v3.11a1.42,1.42,0,0,0,.78.26.73.73,0,0,0,.71-.42,3.22,3.22,0,0,0,.21-1.37,3.34,3.34,0,0,0-.21-1.41A.74.74,0,0,0,40.6,115.7Z" style="fill:#232f3e"/><path d="M46.55,120.49a2.29,2.29,0,0,1-1.84-.77,4,4,0,0,1,0-4.37,2.6,2.6,0,0,1,3.69,0,4,4,0,0,1,0,4.37A2.31,2.31,0,0,1,46.55,120.49Zm0-1.15a.67.67,0,0,0,.65-.43,4.79,4.79,0,0,0,0-2.74.69.69,0,0,0-1.29,0,4.79,4.79,0,0,0,0,2.74A.66.66,0,0,0,46.55,119.34Z" style="fill:#232f3e"/><path d="M53.11,120.35l-.15-.51a1.42,1.42,0,0,1-.59.47,1.81,1.81,0,0,1-.78.18,1.56,1.56,0,0,1-1.18-.45,1.66,1.66,0,0,1-.44-1.22,1.69,1.69,0,0,1,.53-1.31,2.08,2.08,0,0,1,1.44-.47,4,4,0,0,1,.93.13v-.51a1.32,1.32,0,0,0-.17-.78.74.74,0,0,0-.6-.2,5.9,5.9,0,0,0-1.78.35v-1a3.07,3.07,0,0,1,.92-.33,5.57,5.57,0,0,1,1.16-.12,2.21,2.21,0,0,1,1.52.44,1.82,1.82,0,0,1,.46,1.39v3.94Zm-1-.92a1.19,1.19,0,0,0,.8-.35V118a2.38,2.38,0,0,0-.63-.07.69.69,0,0,0-.54.2.85.85,0,0,0-.18.59.82.82,0,0,0,.15.52A.47.47,0,0,0,52.07,119.43Z" style="fill:#232f3e"/><path d="M55.78,120.35v-5.63h1.35l.18.73a2.5,2.5,0,0,1,.72-.59,1.55,1.55,0,0,1,.75-.19,2.56,2.56,0,0,1,.39,0V116a5,5,0,0,0-.64,0,2.47,2.47,0,0,0-1.1.26v4.11Z" style="fill:#232f3e"/><path d="M63.17,120.35l-.14-.49a2,2,0,0,1-.63.43,1.79,1.79,0,0,1-.72.15,1.75,1.75,0,0,1-1.51-.75,4.59,4.59,0,0,1,0-4.32,1.76,1.76,0,0,1,1.53-.79,2,2,0,0,1,.63.13A2.35,2.35,0,0,1,63,115v-2.83h1.65v8.14Zm-.93-1a1.34,1.34,0,0,0,.72-.22V116a1.51,1.51,0,0,0-.79-.26.7.7,0,0,0-.68.44,3.6,3.6,0,0,0-.2,1.39,2.92,2.92,0,0,0,.23,1.36A.75.75,0,0,0,62.24,119.32Z" style="fill:#232f3e"/></g><g id="ICONS_-_EDIT" data-name="ICONS - EDIT"><path d="M59.66,40.62l-1.58-1.24,2.82-3.5a11.74,11.74,0,0,0,.89-1.4A10.29,10.29,0,0,0,63,29.62,10.82,10.82,0,0,0,52,19c-5.48,0-11,2.83-11,9.17a1,1,0,0,1-2,0C39,21.83,33.48,19,28,19A10.82,10.82,0,0,0,17,29.62a10.23,10.23,0,0,0,1.21,4.85l3.84,4.91-1.58,1.24-3.89-5-.09-.13A12.17,12.17,0,0,1,15,29.62,12.83,12.83,0,0,1,28,17c5.69,0,10.11,2.54,12,6.55,1.89-4,6.31-6.55,12-6.55A12.83,12.83,0,0,1,65,29.62a12.25,12.25,0,0,1-1.45,5.8,12.42,12.42,0,0,1-1.09,1.71l-.82,1Z" style="fill:#fff"/><path d="M40,65h0a1,1,0,0,1-.79-.38l-14.06-18,1.58-1.24L40,62.38l13.37-17L55,46.62l-14.16,18A1,1,0,0,1,40,65Z" style="fill:#fff"/><path d="M40,50a1,1,0,0,1-.91-.58L33.91,38.18l-3,5.32A1,1,0,0,1,30,44H19V42H29.42l3.71-6.5A1,1,0,0,1,34,35a1,1,0,0,1,.87.58l4.94,10.71,6.2-18.61a1,1,0,0,1,1.92.06L51.77,42H65v2H51a1,1,0,0,1-1-.74L46.89,31.48,41,49.32a1,1,0,0,1-.89.68Z" style="fill:#fff"/><rect x="15" y="42" width="2" height="2" style="fill:#fff"/></g></svg>