<svg xmlns="http://www.w3.org/2000/svg" width="80" height="115" viewBox="0 0 80 115"><title>architecture-product-card_Amazon_CloudWatch</title><g id="CARDS"><rect x="1" y="1" width="78" height="78" style="fill:#232f3e"/><path d="M0,0V80H0v35H80V80h0V0ZM1,1H79V79H1Z" style="fill:#fff"/></g><g id="TEXT_-_EDIT" data-name="TEXT - EDIT"><path d="M25.35,92.35l-.43-1.82h-2l-.42,1.82H20.72L23,84.72H24.9l2.31,7.63Zm-2.18-2.92h1.49l-.76-3.16Z" style="fill:#232f3e"/><path d="M34.06,92.35V88.64a1.32,1.32,0,0,0-.14-.69.49.49,0,0,0-.46-.22,1.59,1.59,0,0,0-.8.26.5.5,0,0,1,0,.12v4.24H31V88.64a1.33,1.33,0,0,0-.13-.69.51.51,0,0,0-.47-.22,1.55,1.55,0,0,0-.78.26v4.36H28V86.72h1.35l.13.51a3.31,3.31,0,0,1,1.81-.65,1.25,1.25,0,0,1,1.2.67,3.38,3.38,0,0,1,1.83-.67,1.3,1.3,0,0,1,1,.42,1.85,1.85,0,0,1,.36,1.22v4.13Z" style="fill:#232f3e"/><path d="M40,92.35l-.14-.51a1.56,1.56,0,0,1-.59.47,1.86,1.86,0,0,1-.79.18A1.57,1.57,0,0,1,37.31,92a1.65,1.65,0,0,1-.43-1.22,1.69,1.69,0,0,1,.53-1.31A2,2,0,0,1,38.84,89a4,4,0,0,1,.93.13v-.51a1.33,1.33,0,0,0-.16-.78.77.77,0,0,0-.61-.2,5.9,5.9,0,0,0-1.77.35V87a3,3,0,0,1,.92-.33,5.47,5.47,0,0,1,1.15-.12,2.19,2.19,0,0,1,1.52.44,1.82,1.82,0,0,1,.47,1.39v3.94Zm-1-.92a1.17,1.17,0,0,0,.79-.35V90a2.3,2.3,0,0,0-.62-.07.67.67,0,0,0-.54.2.81.81,0,0,0-.19.59.82.82,0,0,0,.15.52A.49.49,0,0,0,39,91.43Z" style="fill:#232f3e"/><path d="M42.28,92.35V91.28l2.49-3.4h-2.4V86.72h4.14v1.07L44,91.19h2.54v1.16Z" style="fill:#232f3e"/><path d="M49.79,92.49A2.3,2.3,0,0,1,48,91.72a4,4,0,0,1,0-4.37,2.6,2.6,0,0,1,3.69,0,4,4,0,0,1,0,4.37A2.31,2.31,0,0,1,49.79,92.49Zm0-1.15a.67.67,0,0,0,.65-.43,4.79,4.79,0,0,0,0-2.74.69.69,0,0,0-1.29,0,4.79,4.79,0,0,0,0,2.74A.66.66,0,0,0,49.79,91.34Z" style="fill:#232f3e"/><path d="M56.55,92.35v-3.7a1.36,1.36,0,0,0-.14-.7.55.55,0,0,0-.5-.22,1.56,1.56,0,0,0-.81.26v4.36H53.44V86.72h1.35l.14.51a3.32,3.32,0,0,1,1.84-.65,1.35,1.35,0,0,1,1.07.42,1.83,1.83,0,0,1,.36,1.22v4.13Z" style="fill:#232f3e"/><path d="M17,106.13a4.59,4.59,0,0,1-1.78.34q-3.37,0-3.37-3.9a4.4,4.4,0,0,1,.88-2.95,3.15,3.15,0,0,1,2.53-1,4.72,4.72,0,0,1,1.65.3v1.21a5.74,5.74,0,0,0-1.45-.23,1.62,1.62,0,0,0-1.4.61,3.37,3.37,0,0,0-.44,1.93v.25a3.27,3.27,0,0,0,.43,1.9,1.57,1.57,0,0,0,1.38.61,7.14,7.14,0,0,0,1.57-.26Z" style="fill:#232f3e"/><path d="M20.44,106.25a2.69,2.69,0,0,1-1,.16A1.41,1.41,0,0,1,18.4,106a1.54,1.54,0,0,1-.36-1.12V98.21h1.65v6.54a.75.75,0,0,0,.08.4.36.36,0,0,0,.32.12,2.14,2.14,0,0,0,.35,0Z" style="fill:#232f3e"/><path d="M23.56,106.49a2.29,2.29,0,0,1-1.84-.77,4,4,0,0,1,0-4.37,2.29,2.29,0,0,1,1.84-.77,2.27,2.27,0,0,1,1.84.77,3.95,3.95,0,0,1,0,4.37A2.27,2.27,0,0,1,23.56,106.49Zm0-1.15a.67.67,0,0,0,.65-.43,5,5,0,0,0,0-2.74.67.67,0,0,0-.65-.44.65.65,0,0,0-.64.44,4.79,4.79,0,0,0,0,2.74A.65.65,0,0,0,23.56,105.34Z" style="fill:#232f3e"/><path d="M30.48,106.35l-.14-.51a3.13,3.13,0,0,1-1.78.65,1.22,1.22,0,0,1-1-.43,1.89,1.89,0,0,1-.35-1.24v-4.1h1.65v3.62a1.61,1.61,0,0,0,.13.77.47.47,0,0,0,.45.23,1.42,1.42,0,0,0,.76-.25v-4.37h1.65v5.63Z" style="fill:#232f3e"/><path d="M36.5,106.35l-.13-.49a2.12,2.12,0,0,1-.64.43,1.78,1.78,0,0,1-.71.15,1.74,1.74,0,0,1-1.51-.75,3.65,3.65,0,0,1-.54-2.13,3.73,3.73,0,0,1,.55-2.19,1.76,1.76,0,0,1,1.53-.79,2.08,2.08,0,0,1,.64.13,2.52,2.52,0,0,1,.61.33V98.21H38v8.14Zm-.93-1a1.4,1.4,0,0,0,.73-.22V102a1.54,1.54,0,0,0-.8-.26.69.69,0,0,0-.67.44,3.39,3.39,0,0,0-.21,1.39,3.05,3.05,0,0,0,.23,1.36A.75.75,0,0,0,35.57,105.32Z" style="fill:#232f3e"/><path d="M44.3,106.35l-.95-5.63-.89,5.63H40.6l-1.79-7.63h1.7l1.06,6.06L42.49,99h1.83l.94,5.65,1-6H48l-1.79,7.63Z" style="fill:#232f3e"/><path d="M51.54,106.35l-.15-.51a1.49,1.49,0,0,1-.59.47,1.85,1.85,0,0,1-.78.18,1.56,1.56,0,0,1-1.18-.45,1.66,1.66,0,0,1-.44-1.22,1.69,1.69,0,0,1,.53-1.31,2.08,2.08,0,0,1,1.44-.47,3.88,3.88,0,0,1,.92.13v-.51a1.33,1.33,0,0,0-.16-.78.77.77,0,0,0-.61-.2,5.9,5.9,0,0,0-1.77.35v-1a3.07,3.07,0,0,1,.92-.33,5.54,5.54,0,0,1,1.15-.12,2.19,2.19,0,0,1,1.52.44,1.78,1.78,0,0,1,.47,1.39v3.94Zm-1-.92a1.17,1.17,0,0,0,.79-.35V104a2.25,2.25,0,0,0-.62-.07.69.69,0,0,0-.54.2.85.85,0,0,0-.18.59.82.82,0,0,0,.15.52A.47.47,0,0,0,50.5,105.43Z" style="fill:#232f3e"/><path d="M57.25,106.2a3.51,3.51,0,0,1-1.23.22,1.85,1.85,0,0,1-1.32-.4,1.81,1.81,0,0,1-.41-1.3v-2.9h-.73v-.92l.78-.15.24-1.54h1.36v1.51h1.28v1.1H55.94v2.77a.73.73,0,0,0,.15.52.69.69,0,0,0,.53.16,3,3,0,0,0,.63-.08Z" style="fill:#232f3e"/><path d="M61.76,106.09a1.93,1.93,0,0,1-.63.26,3.59,3.59,0,0,1-.81.09,2.27,2.27,0,0,1-1.84-.73,3.24,3.24,0,0,1-.63-2.16,3.16,3.16,0,0,1,.67-2.16,2.34,2.34,0,0,1,1.87-.76,2.93,2.93,0,0,1,1.35.33v1a3.08,3.08,0,0,0-1-.19,1.06,1.06,0,0,0-.94.4,2.29,2.29,0,0,0-.28,1.29v.16a2.23,2.23,0,0,0,.28,1.28,1,1,0,0,0,.9.4,3.22,3.22,0,0,0,1.08-.21Z" style="fill:#232f3e"/><path d="M65.92,106.35v-3.7a1.36,1.36,0,0,0-.14-.7.56.56,0,0,0-.5-.22,1.59,1.59,0,0,0-.82.26v4.36H62.81V98.21h1.65v2.91a3.25,3.25,0,0,1,1.68-.54,1.33,1.33,0,0,1,1.06.42,1.78,1.78,0,0,1,.37,1.22v4.13Z" style="fill:#232f3e"/></g><g id="ICONS_-_EDIT" data-name="ICONS - EDIT"><path d="M33.86,50.25H23.11a5.81,5.81,0,0,1-3.09-.9,10,10,0,0,1-4.79-8.76,9,9,0,0,1,6.43-9.06c0-.25,0-.51,0-.76a13.49,13.49,0,0,1,7.71-11.9,12.94,12.94,0,0,1,14.57,2.88,15,15,0,0,1,3,4.32,5.78,5.78,0,0,1,3.62-1.27c2.68,0,5.69,2,6.26,6.49,2.53.6,7.72,2.67,7.72,9.36a8.93,8.93,0,0,1-4.66,8.28l-1-1.75a7,7,0,0,0,3.64-6.53c0-5.77-4.79-7.21-6.85-7.55a1,1,0,0,1-.65-.43,1,1,0,0,1-.17-.72c-.28-3.56-2.36-5.15-4.31-5.15a4,4,0,0,0-3.17,1.66,1,1,0,0,1-1.74-.26,13.42,13.42,0,0,0-3.09-5,11,11,0,0,0-12.37-2.45,11.54,11.54,0,0,0-6.49,10.05,12.16,12.16,0,0,0,.08,1.37,1,1,0,0,1-.24.78,1,1,0,0,1-.57.32,7.11,7.11,0,0,0-5.68,7.35,8,8,0,0,0,3.86,7.07,3.82,3.82,0,0,0,2,.59H33.86Z" style="fill:#fff"/><path d="M47.36,55.25a10.5,10.5,0,1,1,10.5-10.5A10.51,10.51,0,0,1,47.36,55.25Zm0-19a8.5,8.5,0,1,0,8.5,8.5A8.51,8.51,0,0,0,47.36,36.25Z" style="fill:#fff"/><path d="M43.31,48.81a5.37,5.37,0,1,1,6.39-8.63l-1.19,1.61a3.37,3.37,0,0,0-4.71.7,3.38,3.38,0,0,0,.7,4.71Z" style="fill:#fff"/><path d="M61.24,62.24a3.53,3.53,0,0,1-2.49-1l-7.5-7.5,1.42-1.41,7.49,7.49a1.56,1.56,0,0,0,2.16,0,1.52,1.52,0,0,0,0-2.15L54.73,50l1.42-1.41,7.59,7.63a3.52,3.52,0,0,1-2.5,6Z" style="fill:#fff"/></g></svg>