<svg xmlns="http://www.w3.org/2000/svg" width="80" height="115" viewBox="0 0 80 115"><title>architecture-product-card_Amazon_API_Gateway</title><g id="CARDS"><rect x="1" y="1" width="78" height="78" style="fill:#232f3e"/><path d="M0,0V80H0v35H80V80h0V0ZM1,1H79V79H1Z" style="fill:#fff"/></g><g id="TEXT_-_EDIT" data-name="TEXT - EDIT"><path d="M15.86,92.35l-.43-1.82h-2L13,92.35H11.24l2.31-7.63h1.87l2.3,7.63Zm-2.18-2.92h1.5l-.76-3.16Z" style="fill:#232f3e"/><path d="M24.57,92.35V88.64a1.33,1.33,0,0,0-.13-.69.51.51,0,0,0-.47-.22,1.53,1.53,0,0,0-.79.26s0,.08,0,.12v4.24H21.54V88.64A1.32,1.32,0,0,0,21.4,88a.5.5,0,0,0-.46-.22,1.56,1.56,0,0,0-.79.26v4.36H18.5V86.72h1.35l.13.51a3.34,3.34,0,0,1,1.81-.65,1.25,1.25,0,0,1,1.2.67,3.39,3.39,0,0,1,1.84-.67,1.28,1.28,0,0,1,1,.42,1.85,1.85,0,0,1,.36,1.22v4.13Z" style="fill:#232f3e"/><path d="M30.52,92.35l-.14-.51a1.49,1.49,0,0,1-.59.47,1.85,1.85,0,0,1-.78.18A1.56,1.56,0,0,1,27.83,92a1.66,1.66,0,0,1-.44-1.22,1.69,1.69,0,0,1,.53-1.31A2.07,2.07,0,0,1,29.36,89a4,4,0,0,1,.92.13v-.51a1.33,1.33,0,0,0-.16-.78.77.77,0,0,0-.61-.2,5.9,5.9,0,0,0-1.77.35V87a3.07,3.07,0,0,1,.92-.33,5.47,5.47,0,0,1,1.15-.12,2.19,2.19,0,0,1,1.52.44,1.78,1.78,0,0,1,.47,1.39v3.94Zm-1-.92a1.17,1.17,0,0,0,.79-.35V90a2.25,2.25,0,0,0-.62-.07.68.68,0,0,0-.54.2.85.85,0,0,0-.18.59.77.77,0,0,0,.15.52A.47.47,0,0,0,29.49,91.43Z" style="fill:#232f3e"/><path d="M32.79,92.35V91.28l2.49-3.4H32.89V86.72H37v1.07l-2.5,3.4h2.55v1.16Z" style="fill:#232f3e"/><path d="M40.31,92.49a2.31,2.31,0,0,1-1.85-.77,4,4,0,0,1,0-4.37,2.6,2.6,0,0,1,3.69,0,4,4,0,0,1,0,4.37A2.29,2.29,0,0,1,40.31,92.49Zm0-1.15a.66.66,0,0,0,.64-.43,4.79,4.79,0,0,0,0-2.74.66.66,0,0,0-.64-.44.67.67,0,0,0-.65.44,4.79,4.79,0,0,0,0,2.74A.67.67,0,0,0,40.31,91.34Z" style="fill:#232f3e"/><path d="M47.07,92.35v-3.7a1.25,1.25,0,0,0-.15-.7.54.54,0,0,0-.49-.22,1.57,1.57,0,0,0-.82.26v4.36H44V86.72h1.35l.13.51a3.35,3.35,0,0,1,1.84-.65,1.35,1.35,0,0,1,1.07.42,1.83,1.83,0,0,1,.37,1.22v4.13Z" style="fill:#232f3e"/><path d="M56.64,92.35l-.43-1.82h-2l-.42,1.82H52l2.31-7.63H56.2l2.3,7.63Zm-2.18-2.92H56l-.76-3.16Z" style="fill:#232f3e"/><path d="M61,89.52v2.83H59.39V84.72H62a2.39,2.39,0,0,1,1.76.65,2.65,2.65,0,0,1,0,3.5,2.39,2.39,0,0,1-1.76.65Zm0-1.15h.78a.85.85,0,0,0,.72-.31,1.57,1.57,0,0,0,.25-.94,1.52,1.52,0,0,0-.25-.93.83.83,0,0,0-.72-.32H61Z" style="fill:#232f3e"/><path d="M65.82,92.35V84.72h1.69v7.63Z" style="fill:#232f3e"/><path d="M23.69,105.25a3.64,3.64,0,0,0,.56,0v-2H23.1v-1.11h2.7v3.77a4.16,4.16,0,0,1-1.13.42,6.1,6.1,0,0,1-1.36.15,3,3,0,0,1-2.43-1,4.32,4.32,0,0,1-.84-2.86,4.43,4.43,0,0,1,.88-3,3.3,3.3,0,0,1,2.61-1,4.07,4.07,0,0,1,2,.45v1.17a4.56,4.56,0,0,0-.93-.27,4.34,4.34,0,0,0-.9-.1,1.73,1.73,0,0,0-1.48.61,3.36,3.36,0,0,0-.46,2v.21a3.36,3.36,0,0,0,.45,2A1.72,1.72,0,0,0,23.69,105.25Z" style="fill:#232f3e"/><path d="M30.1,106.35l-.15-.51a1.42,1.42,0,0,1-.59.47,1.85,1.85,0,0,1-.78.18A1.56,1.56,0,0,1,27.4,106a1.66,1.66,0,0,1-.44-1.22,1.69,1.69,0,0,1,.53-1.31,2.08,2.08,0,0,1,1.44-.47,4,4,0,0,1,.93.13v-.51a1.32,1.32,0,0,0-.17-.78.74.74,0,0,0-.6-.2,5.9,5.9,0,0,0-1.78.35v-1a3.07,3.07,0,0,1,.92-.33,5.57,5.57,0,0,1,1.16-.12,2.16,2.16,0,0,1,1.51.44,1.78,1.78,0,0,1,.47,1.39v3.94Zm-1-.92a1.19,1.19,0,0,0,.8-.35V104a2.38,2.38,0,0,0-.63-.07.69.69,0,0,0-.54.2.85.85,0,0,0-.18.59.82.82,0,0,0,.15.52A.47.47,0,0,0,29.06,105.43Z" style="fill:#232f3e"/><path d="M35.81,106.2a3.47,3.47,0,0,1-1.23.22,1.8,1.8,0,0,1-1.31-.4,1.77,1.77,0,0,1-.41-1.3v-2.9h-.74v-.92l.78-.15.25-1.54h1.36v1.51h1.27v1.1H34.51v2.77a.79.79,0,0,0,.14.52.69.69,0,0,0,.53.16,3,3,0,0,0,.63-.08Z" style="fill:#232f3e"/><path d="M37.9,103.92a1.71,1.71,0,0,0,.37,1.12,1.43,1.43,0,0,0,1.06.33,3.26,3.26,0,0,0,.68-.09,6.31,6.31,0,0,0,.8-.21v1a2.88,2.88,0,0,1-.83.31,4.77,4.77,0,0,1-1,.11c-1.72,0-2.58-1-2.58-2.95a3.37,3.37,0,0,1,.63-2.2,2.23,2.23,0,0,1,1.83-.76c1.36,0,2.05.76,2.05,2.29a4.32,4.32,0,0,1-.12,1Zm.92-2.32c-.58,0-.88.46-.92,1.37h1.62v-.25a1.68,1.68,0,0,0-.17-.86A.59.59,0,0,0,38.82,101.6Z" style="fill:#232f3e"/><path d="M46.08,106.35l-.79-4-.77,4H43l-1.55-5.63h1.71l.71,4,.77-4h1.47l.82,4.23.65-4.23H49.2l-1.56,5.63Z" style="fill:#232f3e"/><path d="M52.89,106.35l-.14-.51a1.56,1.56,0,0,1-.59.47,1.86,1.86,0,0,1-.79.18,1.57,1.57,0,0,1-1.18-.45,1.65,1.65,0,0,1-.43-1.22,1.69,1.69,0,0,1,.53-1.31,2,2,0,0,1,1.43-.47,4,4,0,0,1,.93.13v-.51a1.33,1.33,0,0,0-.16-.78.77.77,0,0,0-.61-.2,5.9,5.9,0,0,0-1.77.35v-1a3,3,0,0,1,.91-.33,5.64,5.64,0,0,1,1.16-.12,2.19,2.19,0,0,1,1.52.44,1.82,1.82,0,0,1,.47,1.39v3.94Zm-1-.92a1.17,1.17,0,0,0,.8-.35V104a2.33,2.33,0,0,0-.63-.07.66.66,0,0,0-.53.2.81.81,0,0,0-.19.59.82.82,0,0,0,.15.52A.48.48,0,0,0,51.85,105.43Z" style="fill:#232f3e"/><path d="M56.77,106.46l-2-5.74h1.75l.93,4.14.9-4.14h1.7l-2,6.48a2.48,2.48,0,0,1-.67,1.18,1.65,1.65,0,0,1-1.11.36,3.64,3.64,0,0,1-1.06-.16v-1a4.24,4.24,0,0,0,.58,0,1,1,0,0,0,.69-.22,1.27,1.27,0,0,0,.3-.74Z" style="fill:#232f3e"/></g><g id="ICONS_-_EDIT" data-name="ICONS - EDIT"><path d="M51.05,64a1,1,0,0,1-.58-.19,1,1,0,0,1-.42-.81V17a1,1,0,0,1,.48-.85,1,1,0,0,1,1,0l12.89,6.35a1,1,0,0,1,.56.89V58.68a1,1,0,0,1-.69,1L51.37,64A1.13,1.13,0,0,1,51.05,64Zm1-45.39v43L63,58V24Z" style="fill:#fff"/><path d="M29.05,64a1.12,1.12,0,0,1-.31,0l-13-4.32a1,1,0,0,1-.69-1V23.34a1,1,0,0,1,.57-.89l13-6.35a1,1,0,0,1,1.43.9V63a1,1,0,0,1-.41.81A1,1,0,0,1,29.05,64Zm-12-6,11,3.65v-43L17.05,24Z" style="fill:#fff"/><path d="M50.05,30h-3V28h3Zm-6,0h-3V28h3Zm-6,0h-3V28h3Zm-6,0h-3V28h3Z" style="fill:#fff"/><path d="M50.05,52h-3V50h3Zm-6,0h-3V50h3Zm-6,0h-3V50h3Zm-6,0h-3V50h3Z" style="fill:#fff"/><path d="M35.66,43.44,31.9,40.23a1,1,0,0,1,0-1.52l3.76-3.21L37,37l-2.87,2.45L37,41.92Z" style="fill:#fff"/><path d="M44.45,43.44l-1.3-1.52L46,39.46,43.15,37l1.3-1.52,3.76,3.2a1,1,0,0,1,0,1.52Z" style="fill:#fff"/><rect x="33.84" y="39" width="12.41" height="2" transform="translate(-10.67 65.12) rotate(-71.32)" style="fill:#fff"/></g></svg>