<svg xmlns="http://www.w3.org/2000/svg" width="80" height="100" viewBox="0 0 80 100"><title>architecture-product-card_AWS_Glue</title><g id="CARDS"><rect x="1" y="1" width="78" height="78" style="fill:#232f3e"/><path d="M0,0V80H0v20H80V80h0V0ZM1,1H79V79H1Z" style="fill:#fff"/></g><g id="TEXT_-_EDIT" data-name="TEXT - EDIT"><path d="M21.49,92.35l-.43-1.82h-2l-.43,1.82H16.86l2.32-7.63H21l2.3,7.63Zm-2.18-2.92H20.8L20,86.27Z" style="fill:#232f3e"/><path d="M28.69,92.35l-.94-5.63-.89,5.63H25l-1.78-7.63h1.7L26,90.78,26.89,85h1.83l.94,5.65,1-6h1.66l-1.78,7.63Z" style="fill:#232f3e"/><path d="M34.65,89a3.51,3.51,0,0,1-1.28-1A2,2,0,0,1,33,86.77a2.07,2.07,0,0,1,.34-1.17,2.11,2.11,0,0,1,.92-.77,3.18,3.18,0,0,1,1.34-.27,4.93,4.93,0,0,1,1.9.39v1.17a5.5,5.5,0,0,0-1.73-.33A1.26,1.26,0,0,0,35,86a.78.78,0,0,0-.29.64.81.81,0,0,0,.19.56,2.14,2.14,0,0,0,.71.48l.65.32a5.12,5.12,0,0,1,1,.62,2,2,0,0,1,.54.69,2.13,2.13,0,0,1,.17.92,2,2,0,0,1-.74,1.65,3.09,3.09,0,0,1-2,.61A5.43,5.43,0,0,1,34,92.39a3.76,3.76,0,0,1-1-.32V90.92a7.29,7.29,0,0,0,1,.25,5.53,5.53,0,0,0,1,.11,1.32,1.32,0,0,0,.88-.25.86.86,0,0,0,.3-.71.84.84,0,0,0-.21-.58,2.54,2.54,0,0,0-.7-.47Z" style="fill:#232f3e"/><path d="M45.15,91.25a3.77,3.77,0,0,0,.57,0v-2H44.56V88.12h2.7v3.77a4,4,0,0,1-1.13.42,6.07,6.07,0,0,1-1.35.15,3,3,0,0,1-2.44-1,4.32,4.32,0,0,1-.84-2.86,4.43,4.43,0,0,1,.89-3,3.29,3.29,0,0,1,2.6-1,4.11,4.11,0,0,1,2,.45v1.17a4.47,4.47,0,0,0-.94-.27,4.32,4.32,0,0,0-.89-.1,1.74,1.74,0,0,0-1.49.61,3.43,3.43,0,0,0-.46,2v.21a3.36,3.36,0,0,0,.45,2A1.72,1.72,0,0,0,45.15,91.25Z" style="fill:#232f3e"/><path d="M51.05,92.25a2.65,2.65,0,0,1-1,.16A1.43,1.43,0,0,1,49,92a1.54,1.54,0,0,1-.35-1.12V84.21h1.65v6.54a.66.66,0,0,0,.08.4.34.34,0,0,0,.31.12,2,2,0,0,0,.35,0Z" style="fill:#232f3e"/><path d="M55.33,92.35l-.13-.51a3.18,3.18,0,0,1-1.78.65,1.24,1.24,0,0,1-1-.43A2,2,0,0,1,52,90.82v-4.1h1.65v3.62a1.75,1.75,0,0,0,.13.77.47.47,0,0,0,.45.23,1.42,1.42,0,0,0,.76-.25V86.72h1.65v5.63Z" style="fill:#232f3e"/><path d="M59.32,89.92A1.66,1.66,0,0,0,59.68,91a1.45,1.45,0,0,0,1.06.33,3.18,3.18,0,0,0,.68-.09,5.54,5.54,0,0,0,.8-.21v1a2.77,2.77,0,0,1-.83.31,4.77,4.77,0,0,1-1,.11c-1.72,0-2.58-1-2.58-2.95a3.37,3.37,0,0,1,.64-2.2,2.22,2.22,0,0,1,1.82-.76c1.37,0,2,.76,2,2.29a4.32,4.32,0,0,1-.12,1Zm.91-2.32c-.57,0-.88.46-.91,1.37h1.61v-.25a1.59,1.59,0,0,0-.17-.86A.58.58,0,0,0,60.23,87.6Z" style="fill:#232f3e"/></g><g id="ICONS_-_EDIT" data-name="ICONS - EDIT"><path d="M40.06,66a1,1,0,0,1-.64-.23l-6.06-5a1,1,0,0,1-.3-1.11A1,1,0,0,1,34,59h3V56h2v4a1,1,0,0,1-1,1H36.78l3.27,2.7L43.26,61H42a1,1,0,0,1-1-1V56h2v3h3a1,1,0,0,1,.64,1.76l-5.94,5A1,1,0,0,1,40.06,66Z" style="fill:#fff"/><path d="M40.07,54.59A9.82,9.82,0,0,1,36.66,54,1,1,0,0,1,36,53V50.34L24.17,31.86l1.68-1.08,12,18.72A1,1,0,0,1,38,50v2.24a6.74,6.74,0,0,0,4,0V50a1,1,0,0,1,.16-.54l12-18.77,1.68,1.08L44,50.33V53a1,1,0,0,1-.63.92A8.71,8.71,0,0,1,40.07,54.59Z" style="fill:#fff"/><path d="M40,35c-6.53,0-13.86-.74-15.5-2.38a1.12,1.12,0,0,1-.16-.22l-.2-.35A1.12,1.12,0,0,1,24,31.7a1.5,1.5,0,0,1,0-.2c0-1,1.47-3.36,15.08-3.5l0,2c-7,.07-11.25.89-12.69,1.5C28,32.2,33,33,40,33c6.8,0,11.79-.73,13.57-1.5a19.15,19.15,0,0,0-4.84-1l.24-2c6.2.75,7,1.94,7,3a1.68,1.68,0,0,1-.82,1.38C53.14,34.34,46.08,35,40,35Z" style="fill:#fff"/><path d="M46,31H42a1,1,0,0,1-1-1V26a1,1,0,0,1,1-1h4a1,1,0,0,1,1,1v4A1,1,0,0,1,46,31Zm-3-2h2V27H43Z" style="fill:#fff"/><path d="M44,22H40a1,1,0,0,1-1-1V17a1,1,0,0,1,1-1h4a1,1,0,0,1,1,1v4A1,1,0,0,1,44,22Zm-3-2h2V18H41Z" style="fill:#fff"/><path d="M36,27H32a1,1,0,0,1-1-1V22a1,1,0,0,1,1-1h4a1,1,0,0,1,1,1v4A1,1,0,0,1,36,27Zm-3-2h2V23H33Z" style="fill:#fff"/></g></svg>