<svg xmlns="http://www.w3.org/2000/svg" width="80" height="100" viewBox="0 0 80 100"><title>Artboard 71</title><g id="CARDS"><rect x="1" y="1" width="78" height="78" style="fill:#232f3e"/><path d="M0,0V80H0v20H80V80h0V0ZM1,1H79V79H1Z" style="fill:#fff"/></g><g id="TEXT_-_EDIT" data-name="TEXT - EDIT"><path d="M13.44,92.35,13,90.53H11l-.42,1.82H8.81l2.32-7.63H13l2.3,7.63Zm-2.18-2.92h1.49L12,86.27Z" style="fill:#232f3e"/><path d="M20.65,92.35l-.94-5.63-.9,5.63H17l-1.79-7.63h1.7l1.06,6.06L18.84,85h1.83l.94,5.65,1-6H24.3l-1.79,7.63Z" style="fill:#232f3e"/><path d="M26.6,89a3.6,3.6,0,0,1-1.28-1,2,2,0,0,1-.39-1.23,2.07,2.07,0,0,1,.34-1.17,2.17,2.17,0,0,1,.92-.77,3.19,3.19,0,0,1,1.35-.27,4.92,4.92,0,0,1,1.89.39v1.17a5.5,5.5,0,0,0-1.72-.33,1.27,1.27,0,0,0-.8.23.78.78,0,0,0-.29.64.81.81,0,0,0,.19.56,2.14,2.14,0,0,0,.71.48l.66.32a5.33,5.33,0,0,1,1,.62,1.86,1.86,0,0,1,.54.69,2.13,2.13,0,0,1,.18.92,2,2,0,0,1-.74,1.65,3.13,3.13,0,0,1-2,.61A5.5,5.5,0,0,1,26,92.39a3.9,3.9,0,0,1-.95-.32V90.92a7.68,7.68,0,0,0,1,.25,5.53,5.53,0,0,0,1,.11,1.32,1.32,0,0,0,.88-.25.86.86,0,0,0,.3-.71.84.84,0,0,0-.21-.58,2.4,2.4,0,0,0-.7-.47Z" style="fill:#232f3e"/><path d="M33.67,92.35V84.72h1.69v6.4H38.2v1.23Z" style="fill:#232f3e"/><path d="M41.87,92.35l-.14-.51a1.49,1.49,0,0,1-.59.47,1.85,1.85,0,0,1-.78.18A1.54,1.54,0,0,1,39.18,92a1.66,1.66,0,0,1-.44-1.22,1.69,1.69,0,0,1,.53-1.31A2,2,0,0,1,40.7,89a4,4,0,0,1,.93.13v-.51a1.33,1.33,0,0,0-.16-.78.77.77,0,0,0-.61-.2,5.9,5.9,0,0,0-1.77.35V87A3,3,0,0,1,40,86.7a5.47,5.47,0,0,1,1.15-.12,2.19,2.19,0,0,1,1.52.44,1.82,1.82,0,0,1,.47,1.39v3.94Zm-1-.92a1.17,1.17,0,0,0,.79-.35V90a2.25,2.25,0,0,0-.62-.07.67.67,0,0,0-.54.2.85.85,0,0,0-.19.59.82.82,0,0,0,.15.52A.49.49,0,0,0,40.84,91.43Z" style="fill:#232f3e"/><path d="M50.62,92.35V88.64a1.32,1.32,0,0,0-.14-.69.5.5,0,0,0-.46-.22,1.56,1.56,0,0,0-.8.26.49.49,0,0,1,0,.12v4.24H47.58V88.64a1.33,1.33,0,0,0-.13-.69.51.51,0,0,0-.47-.22,1.55,1.55,0,0,0-.78.26v4.36H44.55V86.72H45.9l.13.51a3.29,3.29,0,0,1,1.81-.65,1.25,1.25,0,0,1,1.2.67,3.38,3.38,0,0,1,1.83-.67,1.3,1.3,0,0,1,1,.42,1.85,1.85,0,0,1,.36,1.22v4.13Z" style="fill:#232f3e"/><path d="M53.67,92.35V84.21h1.65v2.9a1.87,1.87,0,0,1,.61-.39,2,2,0,0,1,.7-.14,1.74,1.74,0,0,1,1.52.73,3.65,3.65,0,0,1,.52,2.15,3.82,3.82,0,0,1-.54,2.2,1.73,1.73,0,0,1-1.52.78,2,2,0,0,1-.77-.16,2,2,0,0,1-.67-.44l-.14.51Zm2.42-4.65a1.27,1.27,0,0,0-.77.25v3.11a1.42,1.42,0,0,0,.78.26.73.73,0,0,0,.71-.42A3.22,3.22,0,0,0,57,89.53a3.34,3.34,0,0,0-.21-1.41A.74.74,0,0,0,56.09,87.7Z" style="fill:#232f3e"/><path d="M63.07,92.35l-.14-.49a2,2,0,0,1-.63.43,1.86,1.86,0,0,1-.72.15,1.75,1.75,0,0,1-1.51-.75,3.65,3.65,0,0,1-.53-2.13,3.73,3.73,0,0,1,.55-2.19,1.76,1.76,0,0,1,1.53-.79,2,2,0,0,1,.63.13,2.35,2.35,0,0,1,.61.33V84.21h1.65v8.14Zm-.93-1a1.34,1.34,0,0,0,.72-.22V88a1.51,1.51,0,0,0-.79-.26.7.7,0,0,0-.68.44,3.42,3.42,0,0,0-.2,1.39,2.92,2.92,0,0,0,.23,1.36A.75.75,0,0,0,62.14,91.32Z" style="fill:#232f3e"/><path d="M68.84,92.35l-.15-.51a1.42,1.42,0,0,1-.59.47,1.85,1.85,0,0,1-.78.18A1.56,1.56,0,0,1,66.14,92a1.66,1.66,0,0,1-.44-1.22,1.69,1.69,0,0,1,.53-1.31A2.08,2.08,0,0,1,67.67,89a4,4,0,0,1,.93.13v-.51a1.32,1.32,0,0,0-.17-.78.77.77,0,0,0-.61-.2,5.9,5.9,0,0,0-1.77.35V87A3.07,3.07,0,0,1,67,86.7a5.57,5.57,0,0,1,1.16-.12,2.18,2.18,0,0,1,1.51.44,1.78,1.78,0,0,1,.47,1.39v3.94Zm-1-.92a1.21,1.21,0,0,0,.8-.35V90a2.38,2.38,0,0,0-.63-.07.69.69,0,0,0-.54.2.85.85,0,0,0-.18.59.82.82,0,0,0,.15.52A.47.47,0,0,0,67.8,91.43Z" style="fill:#232f3e"/></g><g id="ICONS_-_EDIT" data-name="ICONS - EDIT"><path d="M63,65H50.68a1,1,0,0,1-.9-.57L32.36,28H25a1,1,0,0,1-.71-.29A1,1,0,0,1,24,27V16a1,1,0,0,1,1-1H40.39a1,1,0,0,1,.9.57L58.63,52H63a1,1,0,0,1,1,1V64A1,1,0,0,1,63,65ZM51.31,63H62V54H58a1,1,0,0,1-.9-.57L39.76,17H26v9h7a1,1,0,0,1,.9.57Z" style="fill:#fff"/><path d="M30,65H17a1,1,0,0,1-.85-.47,1,1,0,0,1,0-1L29.68,35.12a1,1,0,0,1,.9-.57,1,1,0,0,1,.9.56L38,48.54a1.06,1.06,0,0,1,0,.87l-7.11,15A1,1,0,0,1,30,65ZM18.59,63H29.35L36,49,30.59,37.85Z" style="fill:#fff"/></g></svg>