<svg xmlns="http://www.w3.org/2000/svg" width="80" height="100" viewBox="0 0 80 100"><title>architecture-product-card_Amazon_VPC</title><g id="CARDS"><rect x="1" y="1" width="78" height="78" style="fill:#232f3e"/><path d="M0,0V80H0v20H80V80h0V0ZM1,1H79V79H1Z" style="fill:#fff"/></g><g id="TEXT_-_EDIT" data-name="TEXT - EDIT"><path d="M14.56,92.35l-.44-1.82h-2l-.42,1.82H9.93l2.31-7.63h1.87l2.3,7.63Zm-2.19-2.92h1.5l-.76-3.16Z" style="fill:#232f3e"/><path d="M23.27,92.35V88.64a1.32,1.32,0,0,0-.14-.69.51.51,0,0,0-.47-.22,1.56,1.56,0,0,0-.79.26.49.49,0,0,1,0,.12v4.24H20.23V88.64a1.32,1.32,0,0,0-.14-.69.5.5,0,0,0-.46-.22,1.56,1.56,0,0,0-.79.26v4.36H17.19V86.72h1.35l.14.51a3.28,3.28,0,0,1,1.8-.65,1.27,1.27,0,0,1,1.21.67,3.38,3.38,0,0,1,1.83-.67,1.31,1.31,0,0,1,1,.42,1.85,1.85,0,0,1,.36,1.22v4.13Z" style="fill:#232f3e"/><path d="M29.22,92.35l-.15-.51a1.42,1.42,0,0,1-.59.47,1.81,1.81,0,0,1-.78.18A1.56,1.56,0,0,1,26.52,92a1.66,1.66,0,0,1-.44-1.22,1.69,1.69,0,0,1,.53-1.31A2.08,2.08,0,0,1,28.05,89a4,4,0,0,1,.93.13v-.51a1.32,1.32,0,0,0-.17-.78.74.74,0,0,0-.6-.2,5.9,5.9,0,0,0-1.78.35V87a3.07,3.07,0,0,1,.92-.33,5.57,5.57,0,0,1,1.16-.12A2.16,2.16,0,0,1,30,87a1.78,1.78,0,0,1,.47,1.39v3.94Zm-1-.92a1.19,1.19,0,0,0,.8-.35V90a2.38,2.38,0,0,0-.63-.07.69.69,0,0,0-.54.2.85.85,0,0,0-.18.59.82.82,0,0,0,.15.52A.47.47,0,0,0,28.18,91.43Z" style="fill:#232f3e"/><path d="M31.48,92.35V91.28l2.5-3.4h-2.4V86.72h4.13v1.07l-2.49,3.4h2.54v1.16Z" style="fill:#232f3e"/><path d="M39,92.49a2.27,2.27,0,0,1-1.84-.77,4,4,0,0,1,0-4.37,2.58,2.58,0,0,1,3.68,0,4,4,0,0,1,0,4.37A2.29,2.29,0,0,1,39,92.49Zm0-1.15a.65.65,0,0,0,.64-.43,4.79,4.79,0,0,0,0-2.74.65.65,0,0,0-.64-.44.67.67,0,0,0-.65.44,5,5,0,0,0,0,2.74A.67.67,0,0,0,39,91.34Z" style="fill:#232f3e"/><path d="M45.76,92.35v-3.7a1.25,1.25,0,0,0-.15-.7.53.53,0,0,0-.49-.22,1.59,1.59,0,0,0-.82.26v4.36H42.65V86.72H44l.13.51A3.35,3.35,0,0,1,46,86.58,1.33,1.33,0,0,1,47,87a1.78,1.78,0,0,1,.37,1.22v4.13Z" style="fill:#232f3e"/><path d="M53.05,92.35l-2.34-7.63h1.83L54,90.79l1.41-6.07h1.81l-2.34,7.63Z" style="fill:#232f3e"/><path d="M59.72,89.52v2.83H58.07V84.72h2.64a2.39,2.39,0,0,1,1.76.65,2.65,2.65,0,0,1,0,3.5,2.39,2.39,0,0,1-1.76.65Zm0-1.15h.78a.85.85,0,0,0,.72-.31,1.5,1.5,0,0,0,.25-.94,1.45,1.45,0,0,0-.25-.93.83.83,0,0,0-.72-.32h-.78Z" style="fill:#232f3e"/><path d="M69.4,92.13a4.68,4.68,0,0,1-1.79.34q-3.37,0-3.37-3.9a4.4,4.4,0,0,1,.88-2.95,3.15,3.15,0,0,1,2.53-1,4.72,4.72,0,0,1,1.65.3v1.21a5.74,5.74,0,0,0-1.45-.23,1.59,1.59,0,0,0-1.39.61A3.29,3.29,0,0,0,66,88.42v.25a3.27,3.27,0,0,0,.43,1.9,1.57,1.57,0,0,0,1.38.61,7.21,7.21,0,0,0,1.58-.26Z" style="fill:#232f3e"/></g><g id="ICONS_-_EDIT" data-name="ICONS - EDIT"><path d="M38.83,49h-14c-5.5,0-9.69-3.66-10-8.7,0-.2,0-.44,0-.68a9.25,9.25,0,0,1,6.8-9.29c0-.26,0-.53,0-.79a13.68,13.68,0,0,1,23.48-9.25,15.36,15.36,0,0,1,3.15,4.49,6.17,6.17,0,0,1,3.87-1.36c2.91,0,6,2.07,6.53,6.67A11.1,11.1,0,0,1,65,33.86l-1.58,1.23a9.52,9.52,0,0,0-5.87-3.17,1,1,0,0,1-.8-.92c-.22-3.84-2.47-5.55-4.6-5.55a4.28,4.28,0,0,0-3.42,1.74A1,1,0,0,1,47,26.93a13.69,13.69,0,0,0-3.26-5.18,11.68,11.68,0,0,0-20.08,7.82A13.18,13.18,0,0,0,23.69,31a1,1,0,0,1-.75,1.09c-2.28.56-6.11,2.3-6.11,7.58a4.7,4.7,0,0,0,0,.53c.22,4,3.58,6.85,8,6.85h14Z" style="fill:#fff"/><path d="M52.83,63.77c-11.86,0-12-13.33-12-13.47V38.14a1,1,0,0,1,.65-.94l11-4.08a1.05,1.05,0,0,1,.7,0l11,4.08a1,1,0,0,1,.65.94V51.06C64.83,51.19,64.69,63.77,52.83,63.77Zm-10-24.94V50.3c0,.47.15,11.47,10,11.47s10-10.27,10-10.71V38.83l-10-3.7Z" style="fill:#fff"/><path d="M52.83,60c-6.36,0-7.92-8.07-8-8.41a1.37,1.37,0,0,1,0-.19V41.08a1,1,0,0,1,.63-.93l7-2.76a1,1,0,0,1,.74,0l7,2.76a1,1,0,0,1,.63.93V51.43a.65.65,0,0,1,0,.19C60.75,52,59.19,60,52.83,60Zm-6-8.7c.17.77,1.59,6.7,6,6.7s5.84-5.93,6-6.7V41.76l-6-2.37-6,2.37Z" style="fill:#fff"/></g></svg>