<svg xmlns="http://www.w3.org/2000/svg" width="80" height="100" viewBox="0 0 80 100"><title>Artboard 74</title><g id="CARDS"><rect x="1" y="1" width="78" height="78" style="fill:#232f3e"/><path d="M0,0V80H0v20H80V80h0V0ZM1,1H79V79H1Z" style="fill:#fff"/></g><g id="TEXT_-_EDIT" data-name="TEXT - EDIT"><path d="M18.22,92.35l-.43-1.82h-2l-.42,1.82H13.6l2.31-7.63h1.87l2.3,7.63ZM16,89.43h1.5l-.76-3.16Z" style="fill:#232f3e"/><path d="M26.94,92.35V88.64A1.32,1.32,0,0,0,26.8,88a.51.51,0,0,0-.47-.22,1.53,1.53,0,0,0-.79.26.49.49,0,0,1,0,.12v4.24H23.9V88.64a1.32,1.32,0,0,0-.14-.69.5.5,0,0,0-.46-.22,1.56,1.56,0,0,0-.79.26v4.36H20.86V86.72h1.35l.13.51a3.34,3.34,0,0,1,1.81-.65,1.27,1.27,0,0,1,1.21.67,3.38,3.38,0,0,1,1.83-.67,1.28,1.28,0,0,1,1,.42,1.85,1.85,0,0,1,.37,1.22v4.13Z" style="fill:#232f3e"/><path d="M32.89,92.35l-.15-.51a1.49,1.49,0,0,1-.59.47,1.85,1.85,0,0,1-.78.18A1.56,1.56,0,0,1,30.19,92a1.66,1.66,0,0,1-.44-1.22,1.69,1.69,0,0,1,.53-1.31A2.08,2.08,0,0,1,31.72,89a4,4,0,0,1,.93.13v-.51a1.32,1.32,0,0,0-.17-.78.77.77,0,0,0-.61-.2A5.9,5.9,0,0,0,30.1,88V87A3.07,3.07,0,0,1,31,86.7a5.57,5.57,0,0,1,1.16-.12,2.18,2.18,0,0,1,1.51.44,1.78,1.78,0,0,1,.47,1.39v3.94Zm-1-.92a1.21,1.21,0,0,0,.8-.35V90a2.38,2.38,0,0,0-.63-.07.69.69,0,0,0-.54.2.85.85,0,0,0-.18.59.82.82,0,0,0,.15.52A.47.47,0,0,0,31.85,91.43Z" style="fill:#232f3e"/><path d="M35.15,92.35V91.28l2.5-3.4h-2.4V86.72h4.13v1.07l-2.49,3.4h2.54v1.16Z" style="fill:#232f3e"/><path d="M42.67,92.49a2.27,2.27,0,0,1-1.84-.77,3.95,3.95,0,0,1,0-4.37,2.58,2.58,0,0,1,3.68,0,4,4,0,0,1,0,4.37A2.29,2.29,0,0,1,42.67,92.49Zm0-1.15a.65.65,0,0,0,.64-.43,4.79,4.79,0,0,0,0-2.74.65.65,0,0,0-.64-.44.67.67,0,0,0-.65.44,5,5,0,0,0,0,2.74A.67.67,0,0,0,42.67,91.34Z" style="fill:#232f3e"/><path d="M49.43,92.35v-3.7a1.25,1.25,0,0,0-.15-.7.53.53,0,0,0-.49-.22A1.59,1.59,0,0,0,48,88v4.36H46.32V86.72h1.35l.13.51a3.35,3.35,0,0,1,1.84-.65,1.34,1.34,0,0,1,1.07.42,1.83,1.83,0,0,1,.37,1.22v4.13Z" style="fill:#232f3e"/><path d="M56.45,89a3.7,3.7,0,0,1-1.28-1,2,2,0,0,1-.38-1.23,2,2,0,0,1,.34-1.17,2.11,2.11,0,0,1,.92-.77,3.14,3.14,0,0,1,1.34-.27,4.88,4.88,0,0,1,1.89.39v1.17a5.44,5.44,0,0,0-1.72-.33,1.29,1.29,0,0,0-.8.23.77.77,0,0,0-.28.64.86.86,0,0,0,.18.56,2.2,2.2,0,0,0,.72.48L58,88a4.73,4.73,0,0,1,1,.62,1.76,1.76,0,0,1,.54.69,2.13,2.13,0,0,1,.18.92A2,2,0,0,1,59,91.9a3.12,3.12,0,0,1-2,.61,5.52,5.52,0,0,1-1.14-.12,4.06,4.06,0,0,1-1-.32V90.92a7.85,7.85,0,0,0,1,.25,5.33,5.33,0,0,0,1,.11,1.34,1.34,0,0,0,.88-.25.86.86,0,0,0,.3-.71.84.84,0,0,0-.21-.58,2.47,2.47,0,0,0-.71-.47Z" style="fill:#232f3e"/><path d="M62.56,92.49a4.44,4.44,0,0,1-1.78-.39V91a5.28,5.28,0,0,0,.85.25,3.61,3.61,0,0,0,.78.1,1.12,1.12,0,0,0,1.28-1.25q0-1.08-1.35-1.08a3.52,3.52,0,0,0-.65.07V88.1l1.74-2.16H60.86V84.72H65v1.12l-1.69,2.09a2.21,2.21,0,0,1,1.45.65A2,2,0,0,1,65.32,90a2.27,2.27,0,0,1-.75,1.79A2.93,2.93,0,0,1,62.56,92.49Z" style="fill:#232f3e"/></g><g id="ICONS_-_EDIT" data-name="ICONS - EDIT"><path d="M39.57,65C32.78,65,22,63.47,21.91,59.37L17.08,23.51a1,1,0,0,1,2-.39c.54,2.08,8.62,5,20.53,5s20-2.9,20.55-5a1,1,0,0,1,2,.39L57.25,59.37c0,1.38-1.29,2.56-3.71,3.52a23.16,23.16,0,0,1-3.32,1A48.58,48.58,0,0,1,39.57,65ZM19.47,26.3,23.9,59.16v.13C23.9,60.56,30,63,39.57,63a47,47,0,0,0,10.2-1.06,20.43,20.43,0,0,0,3-.91c1.94-.77,2.45-1.47,2.45-1.74a.57.57,0,0,1,0-.13L59.68,26.3c-4,2.49-12.43,3.8-20.11,3.8S23.52,28.79,19.47,26.3Z" style="fill:#fff"/><path d="M39.57,30.1c-10.07,0-21.37-2.27-22.47-6.47a.59.59,0,0,1,0-.13L17,23.06a.57.57,0,0,1,0-.13C17,18.26,28.9,15,39.57,15s22.57,3.26,22.57,7.93a.57.57,0,0,1,0,.13l-.05.44,0,.13C61,27.83,49.65,30.1,39.57,30.1ZM19.05,23.17c.66,2.08,8.7,4.93,20.52,4.93s19.87-2.85,20.53-4.93l0-.29C60,20.78,51.56,17,39.57,17S19.15,20.78,19,22.88Z" style="fill:#fff"/><path d="M62.28,45a15.88,15.88,0,0,1-4.14-.74c-5.85-1.63-14.45-5.6-17.87-7.24l.86-1.8c2.64,1.25,11.69,5.48,17.55,7.12,3.11.87,4.06.67,4.29.57-.11-.27-.72-1.25-4.29-3.21l-.15-.09,1-1.74.13.07c3.43,1.89,5.06,3.33,5.32,4.67a1.89,1.89,0,0,1-.41,1.57A2.77,2.77,0,0,1,62.28,45Z" style="fill:#fff"/><path d="M39.58,37.78a2.25,2.25,0,1,1,2.25-2.25A2.25,2.25,0,0,1,39.58,37.78Zm0-2.5a.25.25,0,0,0-.25.25c0,.27.5.27.5,0A.25.25,0,0,0,39.58,35.28Z" style="fill:#fff"/></g></svg>