<svg xmlns="http://www.w3.org/2000/svg" width="80" height="115" viewBox="0 0 80 115"><title>Artboard 73</title><g id="CARDS"><rect x="1" y="1" width="78" height="78" style="fill:#232f3e"/><path d="M0,0V80H0v35H80V80h0V0ZM1,1H79V79H1Z" style="fill:#fff"/></g><g id="TEXT_-_EDIT" data-name="TEXT - EDIT"><path d="M25.35,92.35l-.43-1.82h-2l-.42,1.82H20.72L23,84.72H24.9l2.31,7.63Zm-2.18-2.92h1.49l-.76-3.16Z" style="fill:#232f3e"/><path d="M34.06,92.35V88.64a1.32,1.32,0,0,0-.14-.69.49.49,0,0,0-.46-.22,1.59,1.59,0,0,0-.8.26.5.5,0,0,1,0,.12v4.24H31V88.64a1.33,1.33,0,0,0-.13-.69.51.51,0,0,0-.47-.22,1.55,1.55,0,0,0-.78.26v4.36H28V86.72h1.35l.13.51a3.31,3.31,0,0,1,1.81-.65,1.25,1.25,0,0,1,1.2.67,3.38,3.38,0,0,1,1.83-.67,1.3,1.3,0,0,1,1,.42,1.85,1.85,0,0,1,.36,1.22v4.13Z" style="fill:#232f3e"/><path d="M40,92.35l-.14-.51a1.56,1.56,0,0,1-.59.47,1.86,1.86,0,0,1-.79.18A1.57,1.57,0,0,1,37.31,92a1.65,1.65,0,0,1-.43-1.22,1.69,1.69,0,0,1,.53-1.31A2,2,0,0,1,38.84,89a4,4,0,0,1,.93.13v-.51a1.33,1.33,0,0,0-.16-.78.77.77,0,0,0-.61-.2,5.9,5.9,0,0,0-1.77.35V87a3,3,0,0,1,.92-.33,5.47,5.47,0,0,1,1.15-.12,2.19,2.19,0,0,1,1.52.44,1.82,1.82,0,0,1,.47,1.39v3.94Zm-1-.92a1.17,1.17,0,0,0,.79-.35V90a2.3,2.3,0,0,0-.62-.07.67.67,0,0,0-.54.2.81.81,0,0,0-.19.59.82.82,0,0,0,.15.52A.49.49,0,0,0,39,91.43Z" style="fill:#232f3e"/><path d="M42.28,92.35V91.28l2.49-3.4h-2.4V86.72h4.14v1.07L44,91.19h2.54v1.16Z" style="fill:#232f3e"/><path d="M49.79,92.49A2.3,2.3,0,0,1,48,91.72a4,4,0,0,1,0-4.37,2.6,2.6,0,0,1,3.69,0,4,4,0,0,1,0,4.37A2.31,2.31,0,0,1,49.79,92.49Zm0-1.15a.67.67,0,0,0,.65-.43,4.79,4.79,0,0,0,0-2.74.69.69,0,0,0-1.29,0,4.79,4.79,0,0,0,0,2.74A.66.66,0,0,0,49.79,91.34Z" style="fill:#232f3e"/><path d="M56.55,92.35v-3.7a1.36,1.36,0,0,0-.14-.7.55.55,0,0,0-.5-.22,1.56,1.56,0,0,0-.81.26v4.36H53.44V86.72h1.35l.14.51a3.32,3.32,0,0,1,1.84-.65,1.35,1.35,0,0,1,1.07.42,1.83,1.83,0,0,1,.36,1.22v4.13Z" style="fill:#232f3e"/><path d="M27.34,105.25a3.66,3.66,0,0,0,.57,0v-2H26.75v-1.11h2.7v3.77a4.09,4.09,0,0,1-1.12.42,6.1,6.1,0,0,1-1.36.15,3,3,0,0,1-2.43-1,4.32,4.32,0,0,1-.85-2.86,4.43,4.43,0,0,1,.89-3,3.3,3.3,0,0,1,2.61-1,4.09,4.09,0,0,1,2,.45v1.17a4.56,4.56,0,0,0-.93-.27,4.49,4.49,0,0,0-.9-.1,1.72,1.72,0,0,0-1.48.61,3.36,3.36,0,0,0-.46,2v.21a3.45,3.45,0,0,0,.44,2A1.72,1.72,0,0,0,27.34,105.25Z" style="fill:#232f3e"/><path d="M33.25,106.25a2.7,2.7,0,0,1-1,.16,1.39,1.39,0,0,1-1.07-.37,1.54,1.54,0,0,1-.36-1.12V98.21H32.5v6.54a.75.75,0,0,0,.08.4.36.36,0,0,0,.32.12,2.26,2.26,0,0,0,.35,0Z" style="fill:#232f3e"/><path d="M37.16,106.35l-.14-.51a1.49,1.49,0,0,1-.59.47,1.85,1.85,0,0,1-.78.18,1.58,1.58,0,0,1-1.19-.45,1.91,1.91,0,0,1,.1-2.53A2,2,0,0,1,36,103a4,4,0,0,1,.93.13v-.51a1.33,1.33,0,0,0-.16-.78.77.77,0,0,0-.61-.2,5.9,5.9,0,0,0-1.77.35v-1a3,3,0,0,1,.92-.33,5.47,5.47,0,0,1,1.15-.12A2.19,2.19,0,0,1,38,101a1.82,1.82,0,0,1,.47,1.39v3.94Zm-1-.92a1.17,1.17,0,0,0,.79-.35V104a2.3,2.3,0,0,0-.62-.07.67.67,0,0,0-.54.2.81.81,0,0,0-.19.59.82.82,0,0,0,.15.52A.49.49,0,0,0,36.13,105.43Z" style="fill:#232f3e"/><path d="M43.48,106.09a2.09,2.09,0,0,1-.64.26,3.59,3.59,0,0,1-.81.09,2.27,2.27,0,0,1-1.84-.73,3.24,3.24,0,0,1-.63-2.16,3.16,3.16,0,0,1,.67-2.16,2.34,2.34,0,0,1,1.87-.76,2.87,2.87,0,0,1,1.35.33v1a3.08,3.08,0,0,0-1-.19,1.06,1.06,0,0,0-.94.4,2.37,2.37,0,0,0-.28,1.29v.16a2.23,2.23,0,0,0,.28,1.28,1,1,0,0,0,.9.4,3.32,3.32,0,0,0,1.09-.21Z" style="fill:#232f3e"/><path d="M45.39,99.81a1.06,1.06,0,0,1-.71-.22.75.75,0,0,1-.26-.61.74.74,0,0,1,.26-.61,1.2,1.2,0,0,1,1.41,0,.74.74,0,0,1,.26.61.75.75,0,0,1-.26.61A1,1,0,0,1,45.39,99.81Zm-.83,6.54v-5.63h1.65v5.63Z" style="fill:#232f3e"/><path d="M48.89,103.92a1.66,1.66,0,0,0,.36,1.12,1.43,1.43,0,0,0,1.06.33,3.26,3.26,0,0,0,.68-.09,5.9,5.9,0,0,0,.8-.21v1a2.88,2.88,0,0,1-.83.31,4.77,4.77,0,0,1-1,.11c-1.72,0-2.58-1-2.58-2.95a3.37,3.37,0,0,1,.63-2.2,2.24,2.24,0,0,1,1.83-.76c1.36,0,2,.76,2,2.29a4.32,4.32,0,0,1-.12,1Zm.91-2.32c-.58,0-.88.46-.91,1.37H50.5v-.25a1.68,1.68,0,0,0-.17-.86A.59.59,0,0,0,49.8,101.6Z" style="fill:#232f3e"/><path d="M53,106.35v-5.63h1.35l.18.73a2.5,2.5,0,0,1,.72-.59,1.49,1.49,0,0,1,.75-.19,2.56,2.56,0,0,1,.39,0V102a5,5,0,0,0-.64,0,2.47,2.47,0,0,0-1.1.26v4.11Z" style="fill:#232f3e"/></g><g id="ICONS_-_EDIT" data-name="ICONS - EDIT"><path d="M38.58,64.5C31.79,64.5,21,63,20.9,58.87L16.08,23a1,1,0,0,1,2-.38c.54,2.08,8.62,5,20.54,5s20-2.9,20.53-5a1,1,0,0,1,2,.38l-2.9,21.58-2-.26L58.68,25.8c-4,2.48-12.43,3.8-20.1,3.8s-16.06-1.32-20.11-3.8l4.42,32.86a.57.57,0,0,1,0,.13c0,1.27,6.11,3.71,15.68,3.71a52.66,52.66,0,0,0,6.65-.42l.26,2A54.91,54.91,0,0,1,38.58,64.5Z" style="fill:#fff"/><path d="M38.57,29.6c-10.07,0-21.37-2.27-22.47-6.47a.59.59,0,0,1,0-.13L16,22.56a.57.57,0,0,1,0-.13c0-4.67,11.89-7.93,22.56-7.93s22.57,3.26,22.57,7.93a.57.57,0,0,1,0,.13l-.05.44,0,.13C60,27.33,48.65,29.6,38.57,29.6ZM18.05,22.67c.66,2.08,8.7,4.93,20.52,4.93s19.87-2.85,20.53-4.93l0-.29c-.14-2.1-8.58-5.88-20.57-5.88S18.15,20.28,18,22.38Z" style="fill:#fff"/><path d="M61.28,44.45a15.88,15.88,0,0,1-4.14-.74c-5.85-1.63-14.45-5.6-17.87-7.24l.86-1.8c2.63,1.25,11.69,5.48,17.55,7.12,3.11.87,4.06.67,4.29.57-.11-.27-.72-1.25-4.29-3.21l-.15-.09,1-1.74.13.07c3.43,1.89,5.06,3.33,5.32,4.67a1.89,1.89,0,0,1-.41,1.57A2.77,2.77,0,0,1,61.28,44.45Z" style="fill:#fff"/><path d="M38.58,37.28A2.25,2.25,0,1,1,40.83,35,2.25,2.25,0,0,1,38.58,37.28Zm0-2.5a.25.25,0,0,0-.25.25c0,.27.5.27.5,0A.25.25,0,0,0,38.58,34.78Z" style="fill:#fff"/><rect x="47.9" y="54.5" width="6.11" height="2" style="fill:#fff"/><path d="M45.88,58.93,44.49,57.5l2-2-2-2,1.41-1.41,2.75,2.75a1,1,0,0,1,.29.71,1,1,0,0,1-.3.71Z" style="fill:#fff"/><rect x="49.43" y="57.14" width="6.11" height="2" transform="translate(-24.13 74.45) rotate(-59.94)" style="fill:#fff"/><path d="M51,64.75,50.28,62l-2.78.74L47,60.82l3.75-1a1,1,0,0,1,1.23.72l1,3.72Z" style="fill:#fff"/><rect x="54.54" y="55.09" width="2" height="6.11" transform="translate(-21.62 35.51) rotate(-29.96)" style="fill:#fff"/><path d="M57,64.76l-1.94-.52,1-3.75a1,1,0,0,1,.47-.62,1,1,0,0,1,.77-.09l3.69,1-.54,1.93L57.78,62Z" style="fill:#fff"/><rect x="54.01" y="54.5" width="6.1" height="2" style="fill:#fff"/><path d="M62.13,58.92l-2.75-2.75a1,1,0,0,1-.3-.71,1.05,1.05,0,0,1,.31-.71l2.75-2.68,1.39,1.43-2,2,2,2Z" style="fill:#fff"/><rect x="52.48" y="51.86" width="6.11" height="2" transform="translate(-17.99 74.59) rotate(-60.05)" style="fill:#fff"/><path d="M57,51.22a1,1,0,0,1-.51-.14,1,1,0,0,1-.46-.61l-.95-3.72,1.94-.5.7,2.74,2.77-.74L61,50.18l-3.75,1Z" style="fill:#fff"/><rect x="51.48" y="49.8" width="2" height="6.11" transform="translate(-19.41 33.38) rotate(-30.05)" style="fill:#fff"/><path d="M50.94,51.26a1.26,1.26,0,0,1-.27,0l-3.7-1,.55-1.93,2.72.77L51,46.24l1.93.52-1,3.75a1,1,0,0,1-.47.61A1,1,0,0,1,50.94,51.26Z" style="fill:#fff"/></g></svg>