<svg xmlns="http://www.w3.org/2000/svg" width="80" height="115" viewBox="0 0 80 115"><title>architecture-product-card_Amazon_CloudSearch</title><g id="CARDS"><rect x="1" y="1" width="78" height="78" style="fill:#232f3e"/><path d="M0,0V80H0v35H80V80h0V0ZM1,1H79V79H1Z" style="fill:#fff"/></g><g id="TEXT_-_EDIT" data-name="TEXT - EDIT"><path d="M25.35,92.35l-.43-1.82h-2l-.42,1.82H20.72L23,84.72H24.9l2.31,7.63Zm-2.18-2.92h1.49l-.76-3.16Z" style="fill:#232f3e"/><path d="M34.06,92.35V88.64a1.32,1.32,0,0,0-.14-.69.49.49,0,0,0-.46-.22,1.59,1.59,0,0,0-.8.26.5.5,0,0,1,0,.12v4.24H31V88.64a1.33,1.33,0,0,0-.13-.69.51.51,0,0,0-.47-.22,1.55,1.55,0,0,0-.78.26v4.36H28V86.72h1.35l.13.51a3.31,3.31,0,0,1,1.81-.65,1.25,1.25,0,0,1,1.2.67,3.38,3.38,0,0,1,1.83-.67,1.3,1.3,0,0,1,1,.42,1.85,1.85,0,0,1,.36,1.22v4.13Z" style="fill:#232f3e"/><path d="M40,92.35l-.14-.51a1.56,1.56,0,0,1-.59.47,1.86,1.86,0,0,1-.79.18A1.57,1.57,0,0,1,37.31,92a1.65,1.65,0,0,1-.43-1.22,1.69,1.69,0,0,1,.53-1.31A2,2,0,0,1,38.84,89a4,4,0,0,1,.93.13v-.51a1.33,1.33,0,0,0-.16-.78.77.77,0,0,0-.61-.2,5.9,5.9,0,0,0-1.77.35V87a3,3,0,0,1,.92-.33,5.47,5.47,0,0,1,1.15-.12,2.19,2.19,0,0,1,1.52.44,1.82,1.82,0,0,1,.47,1.39v3.94Zm-1-.92a1.17,1.17,0,0,0,.79-.35V90a2.3,2.3,0,0,0-.62-.07.67.67,0,0,0-.54.2.81.81,0,0,0-.19.59.82.82,0,0,0,.15.52A.49.49,0,0,0,39,91.43Z" style="fill:#232f3e"/><path d="M42.28,92.35V91.28l2.49-3.4h-2.4V86.72h4.14v1.07L44,91.19h2.54v1.16Z" style="fill:#232f3e"/><path d="M49.79,92.49A2.3,2.3,0,0,1,48,91.72a4,4,0,0,1,0-4.37,2.6,2.6,0,0,1,3.69,0,4,4,0,0,1,0,4.37A2.31,2.31,0,0,1,49.79,92.49Zm0-1.15a.67.67,0,0,0,.65-.43,4.79,4.79,0,0,0,0-2.74.69.69,0,0,0-1.29,0,4.79,4.79,0,0,0,0,2.74A.66.66,0,0,0,49.79,91.34Z" style="fill:#232f3e"/><path d="M56.55,92.35v-3.7a1.36,1.36,0,0,0-.14-.7.55.55,0,0,0-.5-.22,1.56,1.56,0,0,0-.81.26v4.36H53.44V86.72h1.35l.14.51a3.32,3.32,0,0,1,1.84-.65,1.35,1.35,0,0,1,1.07.42,1.83,1.83,0,0,1,.36,1.22v4.13Z" style="fill:#232f3e"/><path d="M16,106.13a4.63,4.63,0,0,1-1.78.34q-3.37,0-3.38-3.9a4.46,4.46,0,0,1,.88-2.95,3.16,3.16,0,0,1,2.53-1,4.72,4.72,0,0,1,1.65.3v1.21a5.61,5.61,0,0,0-1.44-.23,1.61,1.61,0,0,0-1.4.61,3.29,3.29,0,0,0-.45,1.93v.25a3.26,3.26,0,0,0,.44,1.9,1.55,1.55,0,0,0,1.37.61,7.12,7.12,0,0,0,1.58-.26Z" style="fill:#232f3e"/><path d="M19.36,106.25a2.7,2.7,0,0,1-1,.16,1.43,1.43,0,0,1-1.08-.37,1.58,1.58,0,0,1-.35-1.12V98.21h1.65v6.54a.75.75,0,0,0,.08.4.36.36,0,0,0,.32.12,2.26,2.26,0,0,0,.35,0Z" style="fill:#232f3e"/><path d="M22.48,106.49a2.31,2.31,0,0,1-1.85-.77,4,4,0,0,1,0-4.37,2.31,2.31,0,0,1,1.85-.77,2.29,2.29,0,0,1,1.84.77,4,4,0,0,1,0,4.37A2.29,2.29,0,0,1,22.48,106.49Zm0-1.15a.66.66,0,0,0,.64-.43,4.79,4.79,0,0,0,0-2.74.66.66,0,0,0-.64-.44.67.67,0,0,0-.65.44,4.79,4.79,0,0,0,0,2.74A.67.67,0,0,0,22.48,105.34Z" style="fill:#232f3e"/><path d="M29.39,106.35l-.13-.51a3.15,3.15,0,0,1-1.78.65,1.25,1.25,0,0,1-1-.43,2,2,0,0,1-.35-1.24v-4.1h1.65v3.62a1.59,1.59,0,0,0,.14.77.44.44,0,0,0,.44.23,1.4,1.4,0,0,0,.76-.25v-4.37h1.65v5.63Z" style="fill:#232f3e"/><path d="M35.42,106.35l-.14-.49a2,2,0,0,1-.63.43,1.82,1.82,0,0,1-.72.15,1.75,1.75,0,0,1-1.51-.75,3.65,3.65,0,0,1-.53-2.13,3.73,3.73,0,0,1,.55-2.19,1.76,1.76,0,0,1,1.53-.79,2,2,0,0,1,.63.13,2.35,2.35,0,0,1,.61.33V98.21h1.65v8.14Zm-.93-1a1.34,1.34,0,0,0,.72-.22V102a1.51,1.51,0,0,0-.79-.26.7.7,0,0,0-.68.44,3.42,3.42,0,0,0-.2,1.39,2.92,2.92,0,0,0,.23,1.36A.75.75,0,0,0,34.49,105.32Z" style="fill:#232f3e"/><path d="M39.72,103a3.6,3.6,0,0,1-1.28-1,2,2,0,0,1-.39-1.23,2.07,2.07,0,0,1,.34-1.17,2.17,2.17,0,0,1,.92-.77,3.19,3.19,0,0,1,1.35-.27,4.92,4.92,0,0,1,1.89.39v1.17a5.5,5.5,0,0,0-1.72-.33,1.27,1.27,0,0,0-.8.23.78.78,0,0,0-.29.64.81.81,0,0,0,.19.56,2.09,2.09,0,0,0,.72.48l.65.32a5.33,5.33,0,0,1,1,.62,1.86,1.86,0,0,1,.54.69,2.13,2.13,0,0,1,.18.92,2,2,0,0,1-.74,1.65,3.13,3.13,0,0,1-2.05.61,5.5,5.5,0,0,1-1.13-.12,3.9,3.9,0,0,1-1-.32v-1.15a7.45,7.45,0,0,0,1,.25,5.33,5.33,0,0,0,1,.11A1.32,1.32,0,0,0,41,105a.86.86,0,0,0,.3-.71.84.84,0,0,0-.21-.58,2.4,2.4,0,0,0-.7-.47Z" style="fill:#232f3e"/><path d="M45.36,103.92a1.66,1.66,0,0,0,.36,1.12,1.43,1.43,0,0,0,1.06.33,3.26,3.26,0,0,0,.68-.09,5.9,5.9,0,0,0,.8-.21v1a2.88,2.88,0,0,1-.83.31,4.77,4.77,0,0,1-1,.11c-1.72,0-2.58-1-2.58-2.95a3.37,3.37,0,0,1,.63-2.2,2.24,2.24,0,0,1,1.83-.76c1.37,0,2,.76,2,2.29a4.32,4.32,0,0,1-.12,1Zm.91-2.32c-.58,0-.88.46-.91,1.37H47v-.25a1.68,1.68,0,0,0-.17-.86A.59.59,0,0,0,46.27,101.6Z" style="fill:#232f3e"/><path d="M52.4,106.35l-.14-.51a1.49,1.49,0,0,1-.59.47,1.85,1.85,0,0,1-.78.18,1.54,1.54,0,0,1-1.18-.45,1.66,1.66,0,0,1-.44-1.22,1.69,1.69,0,0,1,.53-1.31,2,2,0,0,1,1.43-.47,4,4,0,0,1,.93.13v-.51a1.33,1.33,0,0,0-.16-.78.77.77,0,0,0-.61-.2,5.9,5.9,0,0,0-1.77.35v-1a3,3,0,0,1,.92-.33,5.47,5.47,0,0,1,1.15-.12,2.19,2.19,0,0,1,1.52.44,1.82,1.82,0,0,1,.47,1.39v3.94Zm-1-.92a1.17,1.17,0,0,0,.79-.35V104a2.25,2.25,0,0,0-.62-.07.67.67,0,0,0-.54.2.85.85,0,0,0-.19.59.82.82,0,0,0,.15.52A.49.49,0,0,0,51.37,105.43Z" style="fill:#232f3e"/><path d="M55.08,106.35v-5.63h1.35l.18.73a2.5,2.5,0,0,1,.72-.59,1.49,1.49,0,0,1,.75-.19,2.34,2.34,0,0,1,.38,0V102a4.7,4.7,0,0,0-.63,0,2.44,2.44,0,0,0-1.1.26v4.11Z" style="fill:#232f3e"/><path d="M62.85,106.09a2,2,0,0,1-.64.26,3.59,3.59,0,0,1-.81.09,2.28,2.28,0,0,1-1.84-.73,3.91,3.91,0,0,1,0-4.32,2.36,2.36,0,0,1,1.88-.76,2.86,2.86,0,0,1,1.34.33v1a3,3,0,0,0-1-.19,1.05,1.05,0,0,0-.93.4,2.28,2.28,0,0,0-.29,1.29v.16a2.31,2.31,0,0,0,.28,1.28,1,1,0,0,0,.9.4,3.27,3.27,0,0,0,1.09-.21Z" style="fill:#232f3e"/><path d="M67,106.35v-3.7a1.25,1.25,0,0,0-.15-.7.54.54,0,0,0-.49-.22,1.57,1.57,0,0,0-.82.26v4.36H63.9V98.21h1.65v2.91a3.19,3.19,0,0,1,1.67-.54,1.35,1.35,0,0,1,1.07.42,1.83,1.83,0,0,1,.37,1.22v4.13Z" style="fill:#232f3e"/></g><g id="ICONS_-_EDIT" data-name="ICONS - EDIT"><path d="M33.43,52.22A18.43,18.43,0,1,1,51.86,33.79,18.45,18.45,0,0,1,33.43,52.22Zm0-34.86A16.43,16.43,0,1,0,49.86,33.79,16.45,16.45,0,0,0,33.43,17.36Z" style="fill:#fff"/><path d="M59.4,64.64A5.57,5.57,0,0,1,55.45,63L41.81,49.37,43.23,48,56.86,61.58A3.6,3.6,0,0,0,62,56.5L48.14,42.63l1.42-1.41L63.37,55.09a5.6,5.6,0,0,1-4,9.55Z" style="fill:#fff"/><path d="M53.49,41.36l-.07-2a5.78,5.78,0,0,0,2.78-1A4,4,0,0,0,58,35.27a3.77,3.77,0,0,0-3.45-3.78,1,1,0,0,1-.68-.36,1,1,0,0,1-.22-.74v-.1A2.14,2.14,0,0,0,52,28.2l.41-2a4.15,4.15,0,0,1,3.25,3.41A5.71,5.71,0,0,1,57.39,40,7.63,7.63,0,0,1,53.49,41.36Z" style="fill:#fff"/><path d="M44.9,44.36H29.24A7.23,7.23,0,0,1,22,37.16a7.12,7.12,0,0,1,.12-1.29.15.15,0,0,1,0-.07,7.21,7.21,0,0,1,4.2-5.24,9.18,9.18,0,0,1,2.33-5.46,9.32,9.32,0,0,1,15.13,1.74,4.87,4.87,0,0,1,3.27-.43l-.43,1.95a2.89,2.89,0,0,0-2.56.72,1,1,0,0,1-1.62-.38A7.31,7.31,0,0,0,28.3,31.25a1,1,0,0,1-.69,1,5.23,5.23,0,0,0-3.51,3.92s0,0,0,0a5.78,5.78,0,0,0-.09,1,5.22,5.22,0,0,0,5.24,5.2H44.9Z" style="fill:#fff"/></g></svg>