<svg xmlns="http://www.w3.org/2000/svg" width="80" height="115" viewBox="0 0 80 115"><title>architecture-product-card_AWS_IoT_1-Click</title><g id="CARDS"><rect x="1" y="1" width="78" height="78" style="fill:#232f3e"/><path d="M0,0V80H0v35H80V80h0V0ZM1,1H79V79H1Z" style="fill:#fff"/></g><g id="TEXT_-_EDIT" data-name="TEXT - EDIT"><path d="M24.79,92.35l-.43-1.82h-2l-.42,1.82H20.16l2.32-7.63h1.86l2.31,7.63Zm-2.18-2.92H24.1l-.76-3.16Z" style="fill:#232f3e"/><path d="M32,92.35l-.94-5.63-.89,5.63H28.3l-1.79-7.63h1.7l1.06,6.06L30.19,85H32L33,90.68l1-6h1.67l-1.79,7.63Z" style="fill:#232f3e"/><path d="M38,89a3.6,3.6,0,0,1-1.28-1,2,2,0,0,1-.39-1.23,2.07,2.07,0,0,1,.34-1.17,2.17,2.17,0,0,1,.92-.77,3.19,3.19,0,0,1,1.35-.27,4.92,4.92,0,0,1,1.89.39v1.17a5.5,5.5,0,0,0-1.73-.33,1.26,1.26,0,0,0-.79.23.78.78,0,0,0-.29.64.81.81,0,0,0,.19.56,2.14,2.14,0,0,0,.71.48l.65.32a5.12,5.12,0,0,1,1,.62,2,2,0,0,1,.54.69,2.13,2.13,0,0,1,.17.92,2,2,0,0,1-.74,1.65,3.09,3.09,0,0,1-2,.61,5.43,5.43,0,0,1-1.13-.12,3.76,3.76,0,0,1-1-.32V90.92a7.29,7.29,0,0,0,1,.25,5.53,5.53,0,0,0,1,.11,1.32,1.32,0,0,0,.88-.25.86.86,0,0,0,.3-.71.84.84,0,0,0-.21-.58,2.4,2.4,0,0,0-.7-.47Z" style="fill:#232f3e"/><path d="M45.07,92.35V84.72h1.68v7.63Z" style="fill:#232f3e"/><path d="M50.56,92.49a2.29,2.29,0,0,1-1.84-.77,4,4,0,0,1,0-4.37,2.58,2.58,0,0,1,3.68,0,4,4,0,0,1,0,4.37A2.29,2.29,0,0,1,50.56,92.49Zm0-1.15a.65.65,0,0,0,.64-.43,4.79,4.79,0,0,0,0-2.74.69.69,0,0,0-1.28,0,4.79,4.79,0,0,0,0,2.74A.65.65,0,0,0,50.56,91.34Z" style="fill:#232f3e"/><path d="M55.63,92.35V85.94h-2V84.72h5.69v1.22h-2v6.41Z" style="fill:#232f3e"/><path d="M25.75,106.35v-6.1l-1.65.68V99.71l1.87-1h1.46v7.63Z" style="fill:#232f3e"/><path d="M29.46,104.12v-1.23h3.19v1.23Z" style="fill:#232f3e"/><path d="M38.81,106.13a4.59,4.59,0,0,1-1.78.34q-3.37,0-3.37-3.9a4.4,4.4,0,0,1,.88-2.95,3.15,3.15,0,0,1,2.53-1,4.72,4.72,0,0,1,1.65.3v1.21a5.74,5.74,0,0,0-1.45-.23,1.62,1.62,0,0,0-1.4.61,3.37,3.37,0,0,0-.44,1.93v.25a3.27,3.27,0,0,0,.43,1.9,1.57,1.57,0,0,0,1.38.61,7.14,7.14,0,0,0,1.57-.26Z" style="fill:#232f3e"/><path d="M42.21,106.25a2.69,2.69,0,0,1-1,.16,1.43,1.43,0,0,1-1.08-.37,1.54,1.54,0,0,1-.36-1.12V98.21h1.65v6.54a.75.75,0,0,0,.08.4.37.37,0,0,0,.32.12,2.14,2.14,0,0,0,.35,0Z" style="fill:#232f3e"/><path d="M44.09,99.81a1.06,1.06,0,0,1-.71-.22.76.76,0,0,1-.27-.61.75.75,0,0,1,.27-.61,1.2,1.2,0,0,1,1.41,0,.74.74,0,0,1,.26.61.75.75,0,0,1-.26.61A1,1,0,0,1,44.09,99.81Zm-.83,6.54v-5.63h1.65v5.63Z" style="fill:#232f3e"/><path d="M50,106.09a2.09,2.09,0,0,1-.64.26,3.59,3.59,0,0,1-.81.09,2.27,2.27,0,0,1-1.84-.73,3.24,3.24,0,0,1-.63-2.16,3.16,3.16,0,0,1,.67-2.16,2.34,2.34,0,0,1,1.87-.76A2.87,2.87,0,0,1,50,101v1a3.08,3.08,0,0,0-1-.19,1.06,1.06,0,0,0-.94.4,2.37,2.37,0,0,0-.28,1.29v.16A2.23,2.23,0,0,0,48,104.9a1,1,0,0,0,.9.4,3.32,3.32,0,0,0,1.09-.21Z" style="fill:#232f3e"/><path d="M51.05,106.35V98.21h1.63v5l1.64-2.44h1.83l-2,2.69,2.17,2.94h-1.9l-1.76-2.6v2.6Z" style="fill:#232f3e"/></g><g id="ICONS_-_EDIT" data-name="ICONS - EDIT"><path d="M50.9,49.87h-22a7.28,7.28,0,0,1-7.44-6.68c0-.16,0-.32,0-.49A6.81,6.81,0,0,1,26.21,36c0-.11,0-.23,0-.34a9.88,9.88,0,0,1,17-6.69,10.77,10.77,0,0,1,2.11,2.91,4.55,4.55,0,0,1,3.93-.6,5.23,5.23,0,0,1,3.5,4.53c3.73,1,5.77,3.43,5.77,7C58.46,48,54.55,49.87,50.9,49.87ZM27.45,37.7a4.88,4.88,0,0,0-4,5c0,.13,0,.26,0,.38a5.28,5.28,0,0,0,5.44,4.79h22c1.67,0,5.56-.49,5.56-5.12,0-2.78-1.64-4.52-4.88-5.17a1,1,0,0,1-.8-.92c-.11-1.83-.91-3.1-2.18-3.49a2.69,2.69,0,0,0-2.91,1,1,1,0,0,1-.94.38A1,1,0,0,1,44,33.9a9.16,9.16,0,0,0-2.21-3.51A7.88,7.88,0,0,0,28.2,35.64a7.46,7.46,0,0,0,.06,1,1,1,0,0,1-.81,1.11Z" style="fill:#fff"/><polygon points="28.4 31.08 28.35 31.02 23.43 24.77 25 23.54 29.91 29.77 28.4 31.08" style="fill:#fff"/><rect x="46.58" y="27.24" width="9.02" height="2" transform="translate(3.02 61.36) rotate(-63.5)" style="fill:#fff"/><rect x="54.87" y="47.72" width="2" height="7.91" transform="translate(-19.67 42.5) rotate(-35.84)" style="fill:#fff"/><rect x="36.3" y="51.92" width="8.32" height="2" transform="translate(-20.5 79.78) rotate(-76.38)" style="fill:#fff"/><path d="M21.44,26.12a5.5,5.5,0,1,1,5.5-5.5A5.5,5.5,0,0,1,21.44,26.12Zm0-9a3.5,3.5,0,1,0,3.5,3.5A3.51,3.51,0,0,0,21.44,17.12Z" style="fill:#fff"/><path d="M54.88,25.62a5,5,0,1,1,5-5A5,5,0,0,1,54.88,25.62Zm0-8a3,3,0,1,0,3,3A3,3,0,0,0,54.88,17.62Z" style="fill:#fff"/><path d="M60.54,62a4.5,4.5,0,1,1,4.5-4.5A4.51,4.51,0,0,1,60.54,62Zm0-7a2.5,2.5,0,1,0,2.5,2.5A2.5,2.5,0,0,0,60.54,55Z" style="fill:#fff"/><path d="M38.72,64.87a4.5,4.5,0,1,1,4.5-4.5A4.5,4.5,0,0,1,38.72,64.87Zm0-7a2.5,2.5,0,1,0,2.5,2.5A2.51,2.51,0,0,0,38.72,57.87Z" style="fill:#fff"/><rect x="20.8" y="50.65" width="7.86" height="2" transform="translate(-29.22 32.46) rotate(-44.84)" style="fill:#fff"/><path d="M19.46,61.37a4.5,4.5,0,1,1,4.5-4.5A4.5,4.5,0,0,1,19.46,61.37Zm0-7a2.5,2.5,0,1,0,2.5,2.5A2.51,2.51,0,0,0,19.46,54.37Z" style="fill:#fff"/></g></svg>