<svg xmlns="http://www.w3.org/2000/svg" width="80" height="100" viewBox="0 0 80 100"><title>architecture-product-card_AWS_Budgets</title><g id="CARDS"><rect x="1" y="1" width="78" height="78" style="fill:#232f3e"/><path d="M0,0V80H0v20H80V80h0V0ZM1,1H79V79H1Z" style="fill:#fff"/></g><g id="TEXT_-_EDIT" data-name="TEXT - EDIT"><path d="M13.33,92.35l-.44-1.82h-2l-.42,1.82H8.7L11,84.72h1.87l2.3,7.63Zm-2.18-2.92h1.49l-.76-3.16Z" style="fill:#232f3e"/><path d="M20.53,92.35l-.94-5.63-.89,5.63H16.83l-1.78-7.63h1.7l1.06,6.06L18.72,85h1.84l.94,5.65,1-6h1.66L22.4,92.35Z" style="fill:#232f3e"/><path d="M26.48,89a3.55,3.55,0,0,1-1.27-1,2,2,0,0,1-.39-1.23,2,2,0,0,1,.34-1.17,2.11,2.11,0,0,1,.92-.77,3.18,3.18,0,0,1,1.34-.27,4.85,4.85,0,0,1,1.89.39v1.17a5.44,5.44,0,0,0-1.72-.33,1.24,1.24,0,0,0-.79.23.75.75,0,0,0-.29.64.86.86,0,0,0,.18.56,2.32,2.32,0,0,0,.72.48l.65.32a5.12,5.12,0,0,1,1,.62,2,2,0,0,1,.54.69,2.29,2.29,0,0,1,.17.92A2,2,0,0,1,29,91.9a3.09,3.09,0,0,1-2,.61,5.35,5.35,0,0,1-1.13-.12,4,4,0,0,1-1-.32V90.92a7.85,7.85,0,0,0,1,.25,5.33,5.33,0,0,0,1,.11,1.34,1.34,0,0,0,.88-.25.86.86,0,0,0,.3-.71.84.84,0,0,0-.21-.58,2.47,2.47,0,0,0-.71-.47Z" style="fill:#232f3e"/><path d="M33.56,92.35V84.72h2.51a2.4,2.4,0,0,1,1.64.56,1.87,1.87,0,0,1,.64,1.47,1.83,1.83,0,0,1-.25,1,1.6,1.6,0,0,1-.74.61,1.79,1.79,0,0,1,1.35,1.86,1.92,1.92,0,0,1-.7,1.56,2.8,2.8,0,0,1-1.86.59Zm1.59-6.53v2.11h.67a.84.84,0,0,0,.66-.27,1.13,1.13,0,0,0,.24-.77,1.3,1.3,0,0,0-.21-.79.7.7,0,0,0-.58-.28Zm0,3.16v2.27h1a.88.88,0,0,0,.7-.29,1.22,1.22,0,0,0,.25-.84,1.19,1.19,0,0,0-.27-.84A1,1,0,0,0,36,89Z" style="fill:#232f3e"/><path d="M43.1,92.35,43,91.84a3.13,3.13,0,0,1-1.78.65,1.22,1.22,0,0,1-1-.43,1.89,1.89,0,0,1-.35-1.24v-4.1h1.65v3.62a1.61,1.61,0,0,0,.13.77.47.47,0,0,0,.45.23,1.42,1.42,0,0,0,.76-.25V86.72h1.65v5.63Z" style="fill:#232f3e"/><path d="M49.12,92.35,49,91.86a2.12,2.12,0,0,1-.64.43,1.78,1.78,0,0,1-.71.15,1.74,1.74,0,0,1-1.51-.75,4.52,4.52,0,0,1,0-4.32,1.73,1.73,0,0,1,1.52-.79,2.08,2.08,0,0,1,.64.13,2.52,2.52,0,0,1,.61.33V84.21h1.65v8.14Zm-.93-1a1.4,1.4,0,0,0,.73-.22V88a1.54,1.54,0,0,0-.8-.26.69.69,0,0,0-.67.44,3.39,3.39,0,0,0-.21,1.39,3.05,3.05,0,0,0,.23,1.36A.75.75,0,0,0,48.19,91.32Z" style="fill:#232f3e"/><path d="M54.89,91.71a1.65,1.65,0,0,1-1.22.53,1.68,1.68,0,0,1-1.44-.74,3.54,3.54,0,0,1-.52-2,3.6,3.6,0,0,1,.54-2.11,1.68,1.68,0,0,1,1.46-.77,1.83,1.83,0,0,1,.71.17,2,2,0,0,1,.63.45l.12-.48h1.35V92c0,1.86-.86,2.79-2.57,2.79a3.92,3.92,0,0,1-1.83-.44v-1a5.45,5.45,0,0,0,1.61.35,1.45,1.45,0,0,0,.7-.13.72.72,0,0,0,.35-.44,3.19,3.19,0,0,0,.11-1Zm-.66-.6a1.26,1.26,0,0,0,.66-.22V88a1.32,1.32,0,0,0-.73-.27.64.64,0,0,0-.61.42,3.42,3.42,0,0,0-.19,1.3,3,3,0,0,0,.21,1.28A.7.7,0,0,0,54.23,91.11Z" style="fill:#232f3e"/><path d="M59.16,89.92A1.66,1.66,0,0,0,59.52,91a1.43,1.43,0,0,0,1.06.33,3.26,3.26,0,0,0,.68-.09,5.9,5.9,0,0,0,.8-.21v1a2.88,2.88,0,0,1-.83.31,4.77,4.77,0,0,1-1,.11c-1.72,0-2.58-1-2.58-2.95a3.37,3.37,0,0,1,.63-2.2,2.24,2.24,0,0,1,1.83-.76c1.36,0,2.05.76,2.05,2.29a4.32,4.32,0,0,1-.12,1Zm.91-2.32c-.58,0-.88.46-.91,1.37h1.61v-.25a1.68,1.68,0,0,0-.17-.86A.59.59,0,0,0,60.07,87.6Z" style="fill:#232f3e"/><path d="M66.34,92.2a3.55,3.55,0,0,1-1.23.22,1.85,1.85,0,0,1-1.32-.4,1.81,1.81,0,0,1-.41-1.3v-2.9h-.73V86.9l.78-.15.24-1.54H65v1.51h1.28v1.1H65v2.77a.73.73,0,0,0,.15.52.69.69,0,0,0,.53.16,3,3,0,0,0,.63-.08Z" style="fill:#232f3e"/><path d="M69.22,90.77c0-.25-.18-.46-.52-.62L68,89.8a1.7,1.7,0,0,1-1.13-1.59A1.43,1.43,0,0,1,67.4,87a2.26,2.26,0,0,1,1.47-.45,3.57,3.57,0,0,1,1.53.35v1a5.56,5.56,0,0,0-.7-.19,3,3,0,0,0-.61-.07c-.51,0-.77.18-.77.54s.22.45.64.66l.73.34a1.9,1.9,0,0,1,.77.62,1.69,1.69,0,0,1,.24.93A1.57,1.57,0,0,1,70.14,92a2.28,2.28,0,0,1-1.48.46,3.83,3.83,0,0,1-1.82-.44v-1a5.44,5.44,0,0,0,1.62.35.85.85,0,0,0,.56-.17A.57.57,0,0,0,69.22,90.77Z" style="fill:#232f3e"/></g><g id="ICONS_-_EDIT" data-name="ICONS - EDIT"><path d="M62,64H18A1.06,1.06,0,0,1,17,62.94V40a1,1,0,0,1,.32-.72l6.46-5.76L25,35l-6.14,5.47V62.08H61.12V40.43L55,35l1.28-1.44,6.46,5.76A1,1,0,0,1,63,40V62.94A1.06,1.06,0,0,1,62,64Z" style="fill:#fff"/><path d="M40,56.41a1.24,1.24,0,0,1-.69-.21l-22-15.31,1.24-1.78L40,54,61.46,39.11l1.24,1.78-22,15.31A1.24,1.24,0,0,1,40,56.41Zm-.55-2Zm1.1,0h0Z" style="fill:#fff"/><rect x="14.92" y="55.08" width="19.07" height="1.92" transform="translate(-33.2 35.66) rotate(-46.96)" style="fill:#fff"/><rect x="54.59" y="46.51" width="1.92" height="19.07" transform="translate(-23.3 52.97) rotate(-43.02)" style="fill:#fff"/><path d="M31.15,43.48l-1.5-1.2,3.84-4.8a1,1,0,0,1,1.34-.16l3,2.31L45,30.76l1.5,1.2-7.79,9.6a1,1,0,0,1-1.33.16l-3-2.3Z" style="fill:#fff"/><path d="M48.92,31a1.14,1.14,0,0,1-1.21-1.21,1.15,1.15,0,0,1,1.21-1.21,1.16,1.16,0,0,1,1.21,1.21A1.15,1.15,0,0,1,48.92,31Zm-.78-3.28-.3-6.18a2.52,2.52,0,0,1,1.08-.26,2.48,2.48,0,0,1,1.07.26l-.29,6.18Z" style="fill:#fff"/><path d="M54.4,42.88H52.48v-25h-25v25H25.6V17a1,1,0,0,1,1-1H53.44a1,1,0,0,1,1,1Z" style="fill:#fff"/><path d="M46.76,35.18H44.84V32.32H42V30.4H45.8a1,1,0,0,1,1,1Z" style="fill:#fff"/></g></svg>