<svg xmlns="http://www.w3.org/2000/svg" width="80" height="100" viewBox="0 0 80 100"><title>architecture-product-card_AWS_Cloud9</title><g id="CARDS"><rect x="1" y="1" width="78" height="78" style="fill:#232f3e"/><path d="M0,0V80H0v20H80V80h0V0ZM1,1H79V79H1Z" style="fill:#fff"/></g><g id="TEXT_-_EDIT" data-name="TEXT - EDIT"><path d="M15.8,92.35l-.43-1.82h-2L13,92.35H11.18l2.31-7.63h1.87l2.3,7.63Zm-2.18-2.92h1.5l-.76-3.16Z" style="fill:#232f3e"/><path d="M23,92.35l-.94-5.63-.89,5.63H19.31l-1.79-7.63h1.7l1.06,6.06L21.2,85H23L24,90.68l1-6h1.67l-1.79,7.63Z" style="fill:#232f3e"/><path d="M29,89a3.6,3.6,0,0,1-1.28-1,2,2,0,0,1-.38-1.23,2.06,2.06,0,0,1,.33-1.17,2.2,2.2,0,0,1,.93-.77,3.11,3.11,0,0,1,1.34-.27,4.92,4.92,0,0,1,1.89.39v1.17a5.5,5.5,0,0,0-1.72-.33,1.27,1.27,0,0,0-.8.23.78.78,0,0,0-.29.64.81.81,0,0,0,.19.56,2.09,2.09,0,0,0,.72.48l.65.32a5,5,0,0,1,1,.62,1.76,1.76,0,0,1,.54.69,2.13,2.13,0,0,1,.18.92,2,2,0,0,1-.74,1.65,3.13,3.13,0,0,1-2.05.61,5.5,5.5,0,0,1-1.13-.12,3.9,3.9,0,0,1-.95-.32V90.92a7.45,7.45,0,0,0,1,.25,5.33,5.33,0,0,0,.95.11,1.32,1.32,0,0,0,.88-.25.86.86,0,0,0,.3-.71.84.84,0,0,0-.21-.58,2.4,2.4,0,0,0-.7-.47Z" style="fill:#232f3e"/><path d="M41,92.13a4.59,4.59,0,0,1-1.78.34q-3.37,0-3.38-3.9a4.46,4.46,0,0,1,.88-2.95,3.16,3.16,0,0,1,2.53-1,4.64,4.64,0,0,1,1.65.3v1.21a5.61,5.61,0,0,0-1.44-.23,1.61,1.61,0,0,0-1.4.61,3.29,3.29,0,0,0-.45,1.93v.25a3.26,3.26,0,0,0,.44,1.9,1.56,1.56,0,0,0,1.37.61A7.12,7.12,0,0,0,41,90.92Z" style="fill:#232f3e"/><path d="M44.37,92.25a2.7,2.7,0,0,1-1,.16A1.39,1.39,0,0,1,42.33,92,1.54,1.54,0,0,1,42,90.92V84.21h1.65v6.54a.75.75,0,0,0,.08.4.36.36,0,0,0,.32.12,2.26,2.26,0,0,0,.35,0Z" style="fill:#232f3e"/><path d="M47.49,92.49a2.27,2.27,0,0,1-1.84-.77,3.95,3.95,0,0,1,0-4.37,2.58,2.58,0,0,1,3.68,0,4,4,0,0,1,0,4.37A2.29,2.29,0,0,1,47.49,92.49Zm0-1.15a.66.66,0,0,0,.64-.43,4.79,4.79,0,0,0,0-2.74.66.66,0,0,0-.64-.44.67.67,0,0,0-.65.44,5,5,0,0,0,0,2.74A.67.67,0,0,0,47.49,91.34Z" style="fill:#232f3e"/><path d="M54.4,92.35l-.13-.51a3.15,3.15,0,0,1-1.78.65,1.25,1.25,0,0,1-1-.43,2,2,0,0,1-.35-1.24v-4.1h1.65v3.62a1.59,1.59,0,0,0,.14.77.44.44,0,0,0,.44.23,1.4,1.4,0,0,0,.76-.25V86.72h1.65v5.63Z" style="fill:#232f3e"/><path d="M60.43,92.35l-.14-.49a2,2,0,0,1-.63.43,1.79,1.79,0,0,1-.72.15,1.75,1.75,0,0,1-1.51-.75,4.59,4.59,0,0,1,0-4.32A1.76,1.76,0,0,1,59,86.58a2,2,0,0,1,.63.13,2.35,2.35,0,0,1,.61.33V84.21h1.65v8.14Zm-.93-1a1.34,1.34,0,0,0,.72-.22V88a1.51,1.51,0,0,0-.79-.26.7.7,0,0,0-.68.44,3.6,3.6,0,0,0-.2,1.39,2.92,2.92,0,0,0,.23,1.36A.75.75,0,0,0,59.5,91.32Z" style="fill:#232f3e"/><path d="M63.25,90.94a4.42,4.42,0,0,0,.8.28,3.56,3.56,0,0,0,.8.1,1.48,1.48,0,0,0,.8-.2,1.26,1.26,0,0,0,.46-.67,4.69,4.69,0,0,0,.2-1.28,2.55,2.55,0,0,1-1.34.35,1.8,1.8,0,0,1-1.46-.63A2.64,2.64,0,0,1,63,87.17a3,3,0,0,1,.31-1.4,2.07,2.07,0,0,1,.88-.9,2.62,2.62,0,0,1,1.31-.31,2.11,2.11,0,0,1,1.87.9A4.89,4.89,0,0,1,68,88.2a5.79,5.79,0,0,1-.72,3.25,2.59,2.59,0,0,1-2.27,1,3.31,3.31,0,0,1-.93-.13,3.06,3.06,0,0,1-.8-.34Zm2.26-2.54a2,2,0,0,0,.82-.19V88c0-1.54-.3-2.32-.89-2.32a.68.68,0,0,0-.61.34,1.86,1.86,0,0,0-.21,1,2,2,0,0,0,.21,1A.76.76,0,0,0,65.51,88.4Z" style="fill:#232f3e"/></g><g id="ICONS_-_EDIT" data-name="ICONS - EDIT"><path d="M55,56H24.85A9.64,9.64,0,0,1,15,47.18c0-.21,0-.43,0-.66a8.91,8.91,0,0,1,6.53-8.94c0-.24,0-.49,0-.73a13.17,13.17,0,0,1,22.6-8.91,14.44,14.44,0,0,1,3,4.28,5.94,5.94,0,0,1,5.41-1c2.51.77,4.19,3,4.59,6.16C62.21,38.6,65,41.87,65,46.6,65,53.53,59.83,56,55,56ZM22.76,39.3c-2.18.56-5.76,2.24-5.76,7.22,0,.19,0,.37,0,.55A7.63,7.63,0,0,0,24.85,54H55c2.41,0,8-.72,8-7.4,0-4-2.35-6.52-7-7.46a1,1,0,0,1-.8-.92c-.16-2.67-1.35-4.53-3.25-5.11a4,4,0,0,0-4.39,1.48,1,1,0,0,1-1.73-.26,13.26,13.26,0,0,0-3.12-5,11.18,11.18,0,0,0-19.21,7.48,9.94,9.94,0,0,0,.08,1.34,1,1,0,0,1-.77,1.1Z" style="fill:#fff"/><path d="M35.27,48.51a8.17,8.17,0,0,0,3.32.81A3.94,3.94,0,0,0,41.79,48,6.85,6.85,0,0,0,43,44a6.6,6.6,0,0,1-1.76.82,6.7,6.7,0,0,1-2,.3,4.46,4.46,0,0,1-3.38-1.28,4.76,4.76,0,0,1-1.24-3.49,5.49,5.49,0,0,1,.62-2.63,4.66,4.66,0,0,1,1.8-1.83,5.33,5.33,0,0,1,2.68-.67,4.75,4.75,0,0,1,4.06,1.87,9.05,9.05,0,0,1,1.4,5.46,10.56,10.56,0,0,1-1.65,6.36,5.5,5.5,0,0,1-4.69,2.22,6.53,6.53,0,0,1-3.63-1Zm4.55-5.15a6.59,6.59,0,0,0,1.69-.22,6.42,6.42,0,0,0,1.55-.61v-.31C43,38.76,41.91,37,39.74,37a2.64,2.64,0,0,0-2.08.86,4,4,0,0,0,0,4.67A2.89,2.89,0,0,0,39.82,43.36Z" style="fill:#fff"/></g></svg>