<svg xmlns="http://www.w3.org/2000/svg" width="80" height="115" viewBox="0 0 80 115"><title>architecture-product-card_Amazon_GuardDuty</title><g id="CARDS"><rect x="1" y="1" width="78" height="78" style="fill:#232f3e"/><path d="M0,0V80H0v35H80V80h0V0ZM1,1H79V79H1Z" style="fill:#fff"/></g><g id="TEXT_-_EDIT" data-name="TEXT - EDIT"><path d="M25.35,92.35l-.43-1.82h-2l-.42,1.82H20.72L23,84.72H24.9l2.31,7.63Zm-2.18-2.92h1.49l-.76-3.16Z" style="fill:#232f3e"/><path d="M34.06,92.35V88.64a1.32,1.32,0,0,0-.14-.69.49.49,0,0,0-.46-.22,1.59,1.59,0,0,0-.8.26.5.5,0,0,1,0,.12v4.24H31V88.64a1.33,1.33,0,0,0-.13-.69.51.51,0,0,0-.47-.22,1.55,1.55,0,0,0-.78.26v4.36H28V86.72h1.35l.13.51a3.31,3.31,0,0,1,1.81-.65,1.25,1.25,0,0,1,1.2.67,3.38,3.38,0,0,1,1.83-.67,1.3,1.3,0,0,1,1,.42,1.85,1.85,0,0,1,.36,1.22v4.13Z" style="fill:#232f3e"/><path d="M40,92.35l-.14-.51a1.56,1.56,0,0,1-.59.47,1.86,1.86,0,0,1-.79.18A1.57,1.57,0,0,1,37.31,92a1.65,1.65,0,0,1-.43-1.22,1.69,1.69,0,0,1,.53-1.31A2,2,0,0,1,38.84,89a4,4,0,0,1,.93.13v-.51a1.33,1.33,0,0,0-.16-.78.77.77,0,0,0-.61-.2,5.9,5.9,0,0,0-1.77.35V87a3,3,0,0,1,.92-.33,5.47,5.47,0,0,1,1.15-.12,2.19,2.19,0,0,1,1.52.44,1.82,1.82,0,0,1,.47,1.39v3.94Zm-1-.92a1.17,1.17,0,0,0,.79-.35V90a2.3,2.3,0,0,0-.62-.07.67.67,0,0,0-.54.2.81.81,0,0,0-.19.59.82.82,0,0,0,.15.52A.49.49,0,0,0,39,91.43Z" style="fill:#232f3e"/><path d="M42.28,92.35V91.28l2.49-3.4h-2.4V86.72h4.14v1.07L44,91.19h2.54v1.16Z" style="fill:#232f3e"/><path d="M49.79,92.49A2.3,2.3,0,0,1,48,91.72a4,4,0,0,1,0-4.37,2.6,2.6,0,0,1,3.69,0,4,4,0,0,1,0,4.37A2.31,2.31,0,0,1,49.79,92.49Zm0-1.15a.67.67,0,0,0,.65-.43,4.79,4.79,0,0,0,0-2.74.69.69,0,0,0-1.29,0,4.79,4.79,0,0,0,0,2.74A.66.66,0,0,0,49.79,91.34Z" style="fill:#232f3e"/><path d="M56.55,92.35v-3.7a1.36,1.36,0,0,0-.14-.7.55.55,0,0,0-.5-.22,1.56,1.56,0,0,0-.81.26v4.36H53.44V86.72h1.35l.14.51a3.32,3.32,0,0,1,1.84-.65,1.35,1.35,0,0,1,1.07.42,1.83,1.83,0,0,1,.36,1.22v4.13Z" style="fill:#232f3e"/><path d="M18.17,105.25a3.88,3.88,0,0,0,.57,0v-2H17.58v-1.11h2.7v3.77a4,4,0,0,1-1.13.42,6.07,6.07,0,0,1-1.35.15,3,3,0,0,1-2.44-1,4.32,4.32,0,0,1-.84-2.86,4.38,4.38,0,0,1,.89-3,3.27,3.27,0,0,1,2.6-1,4.11,4.11,0,0,1,2,.45v1.17a4.47,4.47,0,0,0-.94-.27,4.34,4.34,0,0,0-.9-.1,1.73,1.73,0,0,0-1.48.61,3.43,3.43,0,0,0-.46,2v.21a3.36,3.36,0,0,0,.45,2A1.72,1.72,0,0,0,18.17,105.25Z" style="fill:#232f3e"/><path d="M24.94,106.35l-.13-.51a3.15,3.15,0,0,1-1.78.65,1.24,1.24,0,0,1-1-.43,2,2,0,0,1-.35-1.24v-4.1H23.3v3.62a1.59,1.59,0,0,0,.14.77.44.44,0,0,0,.44.23,1.42,1.42,0,0,0,.76-.25v-4.37h1.65v5.63Z" style="fill:#232f3e"/><path d="M30.62,106.35l-.15-.51a1.49,1.49,0,0,1-.59.47,1.85,1.85,0,0,1-.78.18,1.56,1.56,0,0,1-1.18-.45,1.66,1.66,0,0,1-.44-1.22,1.69,1.69,0,0,1,.53-1.31,2.08,2.08,0,0,1,1.44-.47,3.88,3.88,0,0,1,.92.13v-.51a1.33,1.33,0,0,0-.16-.78.77.77,0,0,0-.61-.2,5.9,5.9,0,0,0-1.77.35v-1a3.07,3.07,0,0,1,.92-.33,5.54,5.54,0,0,1,1.15-.12,2.19,2.19,0,0,1,1.52.44,1.78,1.78,0,0,1,.47,1.39v3.94Zm-1-.92a1.17,1.17,0,0,0,.79-.35V104a2.25,2.25,0,0,0-.62-.07.69.69,0,0,0-.54.2.85.85,0,0,0-.18.59.82.82,0,0,0,.15.52A.47.47,0,0,0,29.58,105.43Z" style="fill:#232f3e"/><path d="M33.29,106.35v-5.63h1.35l.18.73a2.5,2.5,0,0,1,.72-.59,1.49,1.49,0,0,1,.75-.19,2.56,2.56,0,0,1,.39,0V102a5,5,0,0,0-.64,0,2.47,2.47,0,0,0-1.1.26v4.11Z" style="fill:#232f3e"/><path d="M40.68,106.35l-.14-.49a2,2,0,0,1-.63.43,1.86,1.86,0,0,1-.72.15,1.75,1.75,0,0,1-1.51-.75,3.65,3.65,0,0,1-.53-2.13,3.73,3.73,0,0,1,.55-2.19,1.76,1.76,0,0,1,1.53-.79,2.08,2.08,0,0,1,.63.13,2.35,2.35,0,0,1,.61.33V98.21h1.65v8.14Zm-.93-1a1.34,1.34,0,0,0,.72-.22V102a1.51,1.51,0,0,0-.79-.26.7.7,0,0,0-.68.44,3.42,3.42,0,0,0-.2,1.39,3.08,3.08,0,0,0,.22,1.36A.77.77,0,0,0,39.75,105.32Z" style="fill:#232f3e"/><path d="M43.65,106.35V98.72h2.52a2.92,2.92,0,0,1,2.36,1,4.33,4.33,0,0,1,.81,2.84,4.42,4.42,0,0,1-.8,2.85,2.83,2.83,0,0,1-2.31,1Zm1.69-6.45v5.27h.71a1.3,1.3,0,0,0,1.17-.62,3.8,3.8,0,0,0,.38-1.91v-.22a3.65,3.65,0,0,0-.38-1.91A1.28,1.28,0,0,0,46,99.9Z" style="fill:#232f3e"/><path d="M53.92,106.35l-.14-.51a3.15,3.15,0,0,1-1.78.65,1.22,1.22,0,0,1-1-.43,1.89,1.89,0,0,1-.35-1.24v-4.1h1.65v3.62a1.61,1.61,0,0,0,.13.77.47.47,0,0,0,.45.23,1.37,1.37,0,0,0,.75-.25v-4.37h1.66v5.63Z" style="fill:#232f3e"/><path d="M59.72,106.2a3.47,3.47,0,0,1-1.23.22,1.47,1.47,0,0,1-1.72-1.7v-2.9H56v-.92l.78-.15.24-1.54h1.36v1.51H59.7v1.1H58.42v2.77a.73.73,0,0,0,.15.52.67.67,0,0,0,.53.16,2.85,2.85,0,0,0,.62-.08Z" style="fill:#232f3e"/><path d="M62.29,106.46l-2-5.74h1.75l.93,4.14.9-4.14h1.7l-2,6.48a2.48,2.48,0,0,1-.67,1.18,1.65,1.65,0,0,1-1.11.36,3.59,3.59,0,0,1-1.06-.16v-1a4.24,4.24,0,0,0,.58,0,.93.93,0,0,0,.68-.22,1.16,1.16,0,0,0,.3-.74Z" style="fill:#232f3e"/></g><g id="ICONS_-_EDIT" data-name="ICONS - EDIT"><path d="M44.77,65H35.23a1,1,0,0,1-.73-.31,1,1,0,0,1-.27-.75l.18-3.14a21.39,21.39,0,0,1-5.16-2.14L27.15,61a1,1,0,0,1-.72.33,1,1,0,0,1-.73-.29L19,54.3a1,1,0,0,1-.29-.73,1,1,0,0,1,.33-.72l2.35-2.1a21.36,21.36,0,0,1-2.13-5.16l-3.15.18a1,1,0,0,1-1.06-1V35.23a1,1,0,0,1,.31-.73,1,1,0,0,1,.75-.27l3.16.18a21.09,21.09,0,0,1,2.14-5.15L19,27.15a1,1,0,0,1-.33-.72A1,1,0,0,1,19,25.7L25.7,19a1,1,0,0,1,1.45,0l2.11,2.36a21.45,21.45,0,0,1,5.15-2.13l-.18-3.16a1,1,0,0,1,.27-.75,1,1,0,0,1,.73-.31h9.54a1,1,0,0,1,.73.31,1,1,0,0,1,.27.75l-.18,3.16a21.48,21.48,0,0,1,5.15,2.14L52.85,19a1,1,0,0,1,.72-.33,1,1,0,0,1,.73.29l6.75,6.75a1,1,0,0,1,0,1.45l-2.36,2.1a21.55,21.55,0,0,1,2.14,5.16l3.15-.18a1.07,1.07,0,0,1,.75.27,1,1,0,0,1,.31.73v9.54a1,1,0,0,1-.31.73,1,1,0,0,1-.75.27l-3.15-.18a21.15,21.15,0,0,1-2.14,5.16L61,52.85a1,1,0,0,1,.33.72,1,1,0,0,1-.29.73L54.3,61.05a1,1,0,0,1-.73.29,1,1,0,0,1-.72-.33l-2.09-2.35a21.22,21.22,0,0,1-5.17,2.14l.18,3.14a1,1,0,0,1-.27.75A1,1,0,0,1,44.77,65Zm-8.48-2h7.42l-.17-2.91a1,1,0,0,1,.78-1,19.31,19.31,0,0,0,6.1-2.52,1,1,0,0,1,1.28.18l1.94,2.18,5.25-5.25-2.19-2a1,1,0,0,1-.18-1.28A19.12,19.12,0,0,0,59,44.32a1,1,0,0,1,1-.78l2.93.17V36.29l-2.93.17a1,1,0,0,1-1-.78,19.43,19.43,0,0,0-2.52-6.08,1,1,0,0,1,.18-1.28l2.19-2-5.25-5.25-2,2.2a1,1,0,0,1-1.28.18A19.43,19.43,0,0,0,44.32,21a1,1,0,0,1-.78-1L43.71,17H36.29l.17,2.94a1,1,0,0,1-.78,1,19.2,19.2,0,0,0-6.08,2.52,1,1,0,0,1-1.28-.18l-2-2.2-5.25,5.25,2.2,2a1,1,0,0,1,.18,1.28A19.32,19.32,0,0,0,21,35.68a1,1,0,0,1-1,.78L17,36.29v7.42l2.92-.17a1,1,0,0,1,1,.78,19.39,19.39,0,0,0,2.52,6.09,1,1,0,0,1-.18,1.28l-2.18,2,5.25,5.25,1.95-2.18a1,1,0,0,1,1.28-.18,19.58,19.58,0,0,0,6.09,2.52,1,1,0,0,1,.78,1Z" style="fill:#fff"/><path d="M40,55.18c-11.86,0-12-12.62-12-12.75V29.54a1,1,0,0,1,.62-.92l11-4.54a.92.92,0,0,1,.76,0l11,4.54a1,1,0,0,1,.62.92V42.47C52,42.59,51.86,55.18,40,55.18Zm-10-25V42.43c0,.44.15,10.75,10,10.75S50,42.9,50,42.47V30.21L40,26.08Z" style="fill:#fff"/><path d="M40,51.07c-6.35,0-7.92-7.84-8-8.18a1.1,1.1,0,0,1,0-.18V32.83a1,1,0,0,1,.63-.93l7-2.83a1,1,0,0,1,.74,0l7,2.83a1,1,0,0,1,.63.93v9.88a1.1,1.1,0,0,1,0,.18C47.92,43.23,46.36,51.07,40,51.07ZM34,42.6c.17.76,1.59,6.47,6,6.47s5.83-5.71,6-6.47V33.5l-6-2.42L34,33.5Z" style="fill:#fff"/><rect x="39" y="30" width="2" height="20.07" style="fill:#fff"/></g></svg>