<svg xmlns="http://www.w3.org/2000/svg" width="80" height="115" viewBox="0 0 80 115"><title>architecture-product-card_AWS_Deep_Learning_AMIs</title><g id="CARDS"><rect x="1" y="1" width="78" height="78" style="fill:#232f3e"/><path d="M0,0V80H0v35H80V80h0V0ZM1,1H79V79H1Z" style="fill:#fff"/></g><g id="TEXT_-_EDIT" data-name="TEXT - EDIT"><path d="M20.43,92.35,20,90.53H18l-.42,1.82H15.8l2.32-7.63H20l2.3,7.63Zm-2.18-2.92h1.49L19,86.27Z" style="fill:#232f3e"/><path d="M27.63,92.35l-.94-5.63-.89,5.63H23.93l-1.78-7.63h1.7l1.06,6.06L25.83,85h1.83l.94,5.65,1-6h1.66L29.5,92.35Z" style="fill:#232f3e"/><path d="M33.58,89a3.55,3.55,0,0,1-1.27-1,2,2,0,0,1-.39-1.23,2,2,0,0,1,.34-1.17,2.11,2.11,0,0,1,.92-.77,3.18,3.18,0,0,1,1.34-.27,4.93,4.93,0,0,1,1.9.39v1.17a5.5,5.5,0,0,0-1.73-.33,1.26,1.26,0,0,0-.79.23.75.75,0,0,0-.29.64.81.81,0,0,0,.19.56,2.14,2.14,0,0,0,.71.48l.65.32a5.12,5.12,0,0,1,1,.62,2,2,0,0,1,.54.69,2.29,2.29,0,0,1,.17.92,2,2,0,0,1-.74,1.65,3.09,3.09,0,0,1-2,.61A5.43,5.43,0,0,1,33,92.39a3.76,3.76,0,0,1-1-.32V90.92a7.29,7.29,0,0,0,1,.25,5.42,5.42,0,0,0,1,.11,1.32,1.32,0,0,0,.88-.25.86.86,0,0,0,.3-.71.84.84,0,0,0-.21-.58,2.47,2.47,0,0,0-.71-.47Z" style="fill:#232f3e"/><path d="M40.66,92.35V84.72h2.51a2.93,2.93,0,0,1,2.37,1,5.49,5.49,0,0,1,0,5.69,2.84,2.84,0,0,1-2.32,1Zm1.68-6.45v5.27h.71a1.28,1.28,0,0,0,1.17-.62,3.68,3.68,0,0,0,.39-1.91v-.22a3.75,3.75,0,0,0-.38-1.91A1.29,1.29,0,0,0,43,85.9Z" style="fill:#232f3e"/><path d="M48.87,89.92A1.77,1.77,0,0,0,49.23,91a1.47,1.47,0,0,0,1.07.33,3.26,3.26,0,0,0,.68-.09,6.31,6.31,0,0,0,.8-.21v1a3,3,0,0,1-.83.31,4.77,4.77,0,0,1-1,.11c-1.72,0-2.58-1-2.58-2.95a3.37,3.37,0,0,1,.63-2.2,2.23,2.23,0,0,1,1.83-.76c1.36,0,2,.76,2,2.29a4.32,4.32,0,0,1-.12,1Zm.92-2.32c-.58,0-.88.46-.92,1.37h1.62v-.25a1.68,1.68,0,0,0-.17-.86A.59.59,0,0,0,49.79,87.6Z" style="fill:#232f3e"/><path d="M54.23,89.92A1.71,1.71,0,0,0,54.6,91a1.43,1.43,0,0,0,1.06.33,3.26,3.26,0,0,0,.68-.09,5.9,5.9,0,0,0,.8-.21v1a2.88,2.88,0,0,1-.83.31,4.77,4.77,0,0,1-1,.11c-1.72,0-2.58-1-2.58-2.95a3.37,3.37,0,0,1,.63-2.2,2.24,2.24,0,0,1,1.83-.76c1.36,0,2,.76,2,2.29a4.32,4.32,0,0,1-.12,1Zm.92-2.32c-.58,0-.88.46-.92,1.37h1.62v-.25a1.68,1.68,0,0,0-.17-.86A.59.59,0,0,0,55.15,87.6Z" style="fill:#232f3e"/><path d="M58.38,94.61V86.72h1.35l.12.48a2.46,2.46,0,0,1,.71-.45,2.07,2.07,0,0,1,.78-.17,1.73,1.73,0,0,1,1.51.74,3.67,3.67,0,0,1,.53,2.14,3.79,3.79,0,0,1-.55,2.2,1.74,1.74,0,0,1-1.51.78,2.09,2.09,0,0,1-.69-.12A2,2,0,0,1,60,92v2.64ZM60.8,87.7A1.27,1.27,0,0,0,60,88v3.11a1.42,1.42,0,0,0,.78.26.73.73,0,0,0,.71-.42,3.22,3.22,0,0,0,.21-1.37,3.34,3.34,0,0,0-.21-1.41A.74.74,0,0,0,60.8,87.7Z" style="fill:#232f3e"/><path d="M6.7,106.35V98.72H8.39v6.4h2.84v1.23Z" style="fill:#232f3e"/><path d="M13.22,103.92a1.66,1.66,0,0,0,.36,1.12,1.45,1.45,0,0,0,1.06.33,3.26,3.26,0,0,0,.68-.09,5.54,5.54,0,0,0,.8-.21v1a2.77,2.77,0,0,1-.83.31,4.77,4.77,0,0,1-1,.11c-1.72,0-2.58-1-2.58-2.95a3.37,3.37,0,0,1,.64-2.2,2.22,2.22,0,0,1,1.82-.76c1.37,0,2.05.76,2.05,2.29a4.32,4.32,0,0,1-.12,1Zm.91-2.32c-.57,0-.88.46-.91,1.37h1.61v-.25a1.59,1.59,0,0,0-.17-.86A.59.59,0,0,0,14.13,101.6Z" style="fill:#232f3e"/><path d="M20.27,106.35l-.15-.51a1.49,1.49,0,0,1-.59.47,1.85,1.85,0,0,1-.78.18,1.56,1.56,0,0,1-1.18-.45,1.66,1.66,0,0,1-.44-1.22,1.69,1.69,0,0,1,.53-1.31A2.08,2.08,0,0,1,19.1,103a3.88,3.88,0,0,1,.92.13v-.51a1.33,1.33,0,0,0-.16-.78.77.77,0,0,0-.61-.2,5.9,5.9,0,0,0-1.77.35v-1a3.07,3.07,0,0,1,.92-.33,5.57,5.57,0,0,1,1.16-.12,2.18,2.18,0,0,1,1.51.44,1.78,1.78,0,0,1,.47,1.39v3.94Zm-1-.92a1.17,1.17,0,0,0,.79-.35V104a2.25,2.25,0,0,0-.62-.07.69.69,0,0,0-.54.2.85.85,0,0,0-.18.59.82.82,0,0,0,.15.52A.47.47,0,0,0,19.23,105.43Z" style="fill:#232f3e"/><path d="M22.94,106.35v-5.63h1.35l.18.73a2.5,2.5,0,0,1,.72-.59,1.52,1.52,0,0,1,.75-.19,2.56,2.56,0,0,1,.39,0V102a5,5,0,0,0-.64,0,2.47,2.47,0,0,0-1.1.26v4.11Z" style="fill:#232f3e"/><path d="M30.18,106.35v-3.7A1.36,1.36,0,0,0,30,102a.56.56,0,0,0-.5-.22,1.59,1.59,0,0,0-.82.26v4.36H27.07v-5.63h1.35l.13.51a3.38,3.38,0,0,1,1.85-.65,1.33,1.33,0,0,1,1.06.42,1.78,1.78,0,0,1,.37,1.22v4.13Z" style="fill:#232f3e"/><path d="M34.1,99.81a1,1,0,0,1-.71-.22.76.76,0,0,1-.27-.61.75.75,0,0,1,.27-.61,1.2,1.2,0,0,1,1.41,0,.77.77,0,0,1,.26.61.79.79,0,0,1-.26.61A1,1,0,0,1,34.1,99.81Zm-.83,6.54v-5.63h1.65v5.63Z" style="fill:#232f3e"/><path d="M39.48,106.35v-3.7a1.36,1.36,0,0,0-.14-.7.55.55,0,0,0-.5-.22A1.59,1.59,0,0,0,38,102v4.36H36.37v-5.63h1.35l.13.51a3.38,3.38,0,0,1,1.85-.65,1.36,1.36,0,0,1,1.07.42,1.83,1.83,0,0,1,.36,1.22v4.13Z" style="fill:#232f3e"/><path d="M45.43,105.71a1.65,1.65,0,0,1-1.21.53,1.68,1.68,0,0,1-1.44-.74,3.46,3.46,0,0,1-.53-2,3.6,3.6,0,0,1,.54-2.11,1.69,1.69,0,0,1,1.46-.77,1.83,1.83,0,0,1,.71.17,2,2,0,0,1,.63.45l.12-.48h1.35V106c0,1.86-.86,2.79-2.57,2.79a3.92,3.92,0,0,1-1.83-.44v-1a5.5,5.5,0,0,0,1.62.35,1.51,1.51,0,0,0,.7-.13.71.71,0,0,0,.34-.44,2.89,2.89,0,0,0,.11-1Zm-.66-.6a1.26,1.26,0,0,0,.66-.22V102a1.32,1.32,0,0,0-.73-.27.63.63,0,0,0-.6.42,3.2,3.2,0,0,0-.2,1.3,3,3,0,0,0,.21,1.28A.7.7,0,0,0,44.77,105.11Z" style="fill:#232f3e"/><path d="M55,106.35l-.43-1.82h-2l-.42,1.82H50.38l2.32-7.63h1.86l2.31,7.63Zm-2.18-2.92h1.49l-.76-3.16Z" style="fill:#232f3e"/><path d="M63.5,106.35V101l-1.41,3.46H60.66L59.26,101v5.32h-1.5V98.72h1.93L61.41,103l1.72-4.27H65v7.63Z" style="fill:#232f3e"/><path d="M66.7,106.35V98.72h1.68v7.63Z" style="fill:#232f3e"/><path d="M72,104.77c0-.25-.17-.46-.52-.62l-.72-.35a1.7,1.7,0,0,1-1.13-1.59,1.42,1.42,0,0,1,.55-1.18,2.26,2.26,0,0,1,1.47-.45,3.57,3.57,0,0,1,1.53.35v1a5.13,5.13,0,0,0-.7-.19,3,3,0,0,0-.6-.07c-.51,0-.77.18-.77.54s.21.45.64.66l.72.34a1.9,1.9,0,0,1,.77.62,1.69,1.69,0,0,1,.24.93,1.56,1.56,0,0,1-.55,1.27,2.28,2.28,0,0,1-1.48.46,3.8,3.8,0,0,1-1.82-.44v-1a5.45,5.45,0,0,0,1.61.35.86.86,0,0,0,.57-.17A.56.56,0,0,0,72,104.77Z" style="fill:#232f3e"/></g><g id="ICONS_-_EDIT" data-name="ICONS - EDIT"><rect x="21.47" y="29" width="34.06" height="2" transform="translate(-9.63 21.92) rotate(-28.39)" style="fill:#fff"/><rect x="35" y="19" width="18" height="2" style="fill:#fff"/><rect x="37.5" y="32.97" width="2" height="34.06" transform="translate(-23.79 60.09) rotate(-61.6)" style="fill:#fff"/><rect x="35" y="59" width="18" height="2" style="fill:#fff"/><path d="M41.91,31.29l-2-2L33.58,23,35,21.56c1.73,1.74,4,4,6.28,6.27l2,2Z" style="fill:#fff"/><rect x="32.56" y="52.56" width="11.77" height="2" transform="translate(-26.61 42.87) rotate(-45)" style="fill:#fff"/><rect x="24" y="39" width="15" height="2" style="fill:#fff"/><path d="M55.29,52H50.71a1,1,0,0,1-1-1V49.13a7.76,7.76,0,0,1-.84-.34l-1.32,1.32a1,1,0,0,1-1.42,0l-3.24-3.24a1,1,0,0,1,0-1.42l1.32-1.32c-.12-.27-.24-.55-.34-.84H42a1,1,0,0,1-1-1V37.71a1,1,0,0,1,1-1h1.87c.1-.29.22-.57.34-.84l-1.32-1.32a1,1,0,0,1,0-1.42l3.24-3.24a1,1,0,0,1,1.42,0l1.32,1.32a7.76,7.76,0,0,1,.84-.34V29a1,1,0,0,1,1-1h4.58a1,1,0,0,1,1,1v1.87a7.76,7.76,0,0,1,.84.34l1.32-1.32a1,1,0,0,1,1.42,0l3.24,3.24a1,1,0,0,1,0,1.42l-1.32,1.32a7.76,7.76,0,0,1,.34.84H64a1,1,0,0,1,1,1v4.58a1,1,0,0,1-1,1H62.13a7.76,7.76,0,0,1-.34.84l1.32,1.32a1,1,0,0,1,0,1.42l-3.24,3.24a1,1,0,0,1-1.42,0l-1.32-1.32a7.76,7.76,0,0,1-.84.34V51A1,1,0,0,1,55.29,52Zm-3.58-2h2.58V48.4a1,1,0,0,1,.74-1,7.38,7.38,0,0,0,1.79-.75,1,1,0,0,1,1.2.16L59.16,48,61,46.16,59.85,45a1,1,0,0,1-.16-1.2A7.55,7.55,0,0,0,60.44,42a1,1,0,0,1,1-.74H63V38.71H61.4a1,1,0,0,1-1-.74,7.55,7.55,0,0,0-.75-1.79,1,1,0,0,1,.16-1.2L61,33.84,59.16,32,58,33.15a1,1,0,0,1-1.2.16A7.38,7.38,0,0,0,55,32.56a1,1,0,0,1-.74-1V30H51.71v1.6a1,1,0,0,1-.74,1,7.55,7.55,0,0,0-1.79.75,1,1,0,0,1-1.2-.16L46.84,32,45,33.84,46.15,35a1,1,0,0,1,.16,1.2A7.55,7.55,0,0,0,45.56,38a1,1,0,0,1-1,.74H43v2.58h1.6a1,1,0,0,1,1,.74,7.55,7.55,0,0,0,.75,1.79,1,1,0,0,1-.16,1.2L45,46.16,46.84,48,48,46.85a1,1,0,0,1,1.2-.16,7.55,7.55,0,0,0,1.79.75,1,1,0,0,1,.74,1Z" style="fill:#fff"/><path d="M53,45.12A5.13,5.13,0,1,1,58.13,40,5.12,5.12,0,0,1,53,45.12Zm0-8.25A3.13,3.13,0,1,0,56.13,40,3.13,3.13,0,0,0,53,36.87Z" style="fill:#fff"/><rect x="30" y="24" width="2" height="13" style="fill:#fff"/><rect x="30" y="43" width="2" height="13" style="fill:#fff"/><rect x="17.88" y="28.88" width="14.85" height="2" transform="translate(-12.9 38.43) rotate(-62.36)" style="fill:#fff"/><rect x="24.31" y="42.69" width="2" height="14.85" transform="translate(-20.36 17.45) rotate(-27.63)" style="fill:#fff"/><path d="M20,45a5,5,0,1,1,5-5A5,5,0,0,1,20,45Zm0-8a3,3,0,1,0,3,3A3,3,0,0,0,20,37Z" style="fill:#fff"/><path d="M31,25a5,5,0,1,1,5-5A5,5,0,0,1,31,25Zm0-8a3,3,0,1,0,3,3A3,3,0,0,0,31,17Z" style="fill:#fff"/><path d="M31,65a5,5,0,1,1,5-5A5,5,0,0,1,31,65Zm0-8a3,3,0,1,0,3,3A3,3,0,0,0,31,57Z" style="fill:#fff"/><path d="M57,25a5,5,0,1,1,5-5A5,5,0,0,1,57,25Zm0-8a3,3,0,1,0,3,3A3,3,0,0,0,57,17Z" style="fill:#fff"/><path d="M57,65a5,5,0,1,1,5-5A5,5,0,0,1,57,65Zm0-8a3,3,0,1,0,3,3A3,3,0,0,0,57,57Z" style="fill:#fff"/></g></svg>