<svg xmlns="http://www.w3.org/2000/svg" width="80" height="100" viewBox="0 0 80 100"><title>architecture-product-card_Amazon-EC2</title><g id="ICONS_-_EDIT" data-name="ICONS - EDIT"><rect x="1" y="1" width="78" height="78" style="fill:#232f3e"/><path d="M0,0V80H0v20H80V80h0V0ZM1,1H79V79H1Z" style="fill:#fff"/><path d="M15.3,92.35l-.43-1.82h-2l-.42,1.82H10.68L13,84.72h1.87l2.3,7.63Zm-2.18-2.92h1.5l-.76-3.16Z" style="fill:#232f3e"/><path d="M24,92.35V88.64a1.33,1.33,0,0,0-.13-.69.51.51,0,0,0-.47-.22,1.53,1.53,0,0,0-.79.26s0,.08,0,.12v4.24H21V88.64a1.32,1.32,0,0,0-.14-.69.5.5,0,0,0-.46-.22,1.56,1.56,0,0,0-.79.26v4.36H17.94V86.72h1.35l.13.51a3.34,3.34,0,0,1,1.81-.65,1.25,1.25,0,0,1,1.2.67,3.39,3.39,0,0,1,1.84-.67,1.28,1.28,0,0,1,1,.42,1.85,1.85,0,0,1,.36,1.22v4.13Z" style="fill:#232f3e"/><path d="M30,92.35l-.15-.51a1.49,1.49,0,0,1-.59.47,1.85,1.85,0,0,1-.78.18A1.56,1.56,0,0,1,27.27,92a1.66,1.66,0,0,1-.44-1.22,1.69,1.69,0,0,1,.53-1.31A2.07,2.07,0,0,1,28.8,89a4,4,0,0,1,.92.13v-.51a1.33,1.33,0,0,0-.16-.78.77.77,0,0,0-.61-.2,5.9,5.9,0,0,0-1.77.35V87a3.07,3.07,0,0,1,.92-.33,5.47,5.47,0,0,1,1.15-.12,2.19,2.19,0,0,1,1.52.44,1.78,1.78,0,0,1,.47,1.39v3.94Zm-1-.92a1.17,1.17,0,0,0,.79-.35V90a2.25,2.25,0,0,0-.62-.07.68.68,0,0,0-.54.2.85.85,0,0,0-.18.59.82.82,0,0,0,.15.52A.47.47,0,0,0,28.93,91.43Z" style="fill:#232f3e"/><path d="M32.23,92.35V91.28l2.49-3.4H32.33V86.72h4.13v1.07L34,91.19h2.54v1.16Z" style="fill:#232f3e"/><path d="M39.75,92.49a2.31,2.31,0,0,1-1.85-.77,4,4,0,0,1,0-4.37,2.6,2.6,0,0,1,3.69,0,4,4,0,0,1,0,4.37A2.29,2.29,0,0,1,39.75,92.49Zm0-1.15a.66.66,0,0,0,.64-.43,4.79,4.79,0,0,0,0-2.74.66.66,0,0,0-.64-.44.67.67,0,0,0-.65.44,4.79,4.79,0,0,0,0,2.74A.67.67,0,0,0,39.75,91.34Z" style="fill:#232f3e"/><path d="M46.51,92.35v-3.7a1.25,1.25,0,0,0-.15-.7.54.54,0,0,0-.49-.22,1.57,1.57,0,0,0-.82.26v4.36H43.4V86.72h1.35l.13.51a3.35,3.35,0,0,1,1.84-.65,1.35,1.35,0,0,1,1.07.42,1.83,1.83,0,0,1,.37,1.22v4.13Z" style="fill:#232f3e"/><path d="M52.2,92.35V84.72h4.55V85.9H53.89v1.95h2.29V89H53.89v2.15h2.86v1.18Z" style="fill:#232f3e"/><path d="M62.79,92.13a4.59,4.59,0,0,1-1.78.34q-3.37,0-3.37-3.9a4.4,4.4,0,0,1,.88-2.95,3.15,3.15,0,0,1,2.53-1,4.72,4.72,0,0,1,1.65.3v1.21a5.74,5.74,0,0,0-1.45-.23,1.62,1.62,0,0,0-1.4.61,3.37,3.37,0,0,0-.44,1.93v.25a3.27,3.27,0,0,0,.43,1.9,1.57,1.57,0,0,0,1.38.61,7.06,7.06,0,0,0,1.57-.26Z" style="fill:#232f3e"/><path d="M63.83,85.28A5.54,5.54,0,0,1,65,84.73a4,4,0,0,1,1.13-.17,1.91,1.91,0,0,1,2.07,2.08,2.83,2.83,0,0,1-.21,1A6.71,6.71,0,0,1,67.2,89q-.57.78-1.74,2.13h3v1.25h-4.8v-1.1c.76-.9,1.33-1.61,1.73-2.15a8,8,0,0,0,.85-1.34,2.44,2.44,0,0,0,.25-1.05.91.91,0,0,0-.19-.63.68.68,0,0,0-.55-.22,3.94,3.94,0,0,0-1.92.69Z" style="fill:#232f3e"/><path d="M63,43H58V41h5V17H39v5H37V17a2,2,0,0,1,2-2H63a2,2,0,0,1,2,2V41A2,2,0,0,1,63,43Z" style="fill:#fff"/><path d="M41,65H17a2,2,0,0,1-2-2V39a2,2,0,0,1,2-2h5v2H17V63H41V58h2v5A2,2,0,0,1,41,65Z" style="fill:#fff"/><path d="M50.82,53H29.18A2.19,2.19,0,0,1,27,50.82V29.18A2.19,2.19,0,0,1,29.18,27H50.82A2.19,2.19,0,0,1,53,29.18V50.82A2.19,2.19,0,0,1,50.82,53ZM29.18,29a.18.18,0,0,0-.18.18V50.82a.18.18,0,0,0,.18.18H50.82a.18.18,0,0,0,.18-.18V29.18a.18.18,0,0,0-.18-.18Z" style="fill:#fff"/><rect x="29" y="24" width="2" height="4" style="fill:#fff"/><rect x="34" y="24" width="2" height="4" style="fill:#fff"/><rect x="39" y="24" width="2" height="4" style="fill:#fff"/><rect x="44" y="24" width="2" height="4" style="fill:#fff"/><rect x="49" y="24" width="2" height="4" style="fill:#fff"/><rect x="29" y="52" width="2" height="4" style="fill:#fff"/><rect x="34" y="52" width="2" height="4" style="fill:#fff"/><rect x="39" y="52" width="2" height="4" style="fill:#fff"/><rect x="44" y="52" width="2" height="4" style="fill:#fff"/><rect x="49" y="52" width="2" height="4" style="fill:#fff"/><rect x="24" y="49" width="4" height="2" style="fill:#fff"/><rect x="24" y="44" width="4" height="2" style="fill:#fff"/><rect x="24" y="39" width="4" height="2" style="fill:#fff"/><rect x="24" y="34" width="4" height="2" style="fill:#fff"/><rect x="24" y="29" width="4" height="2" style="fill:#fff"/><rect x="52" y="49" width="4" height="2" style="fill:#fff"/><rect x="52" y="44" width="4" height="2" style="fill:#fff"/><rect x="52" y="39" width="4" height="2" style="fill:#fff"/><rect x="52" y="34" width="4" height="2" style="fill:#fff"/><rect x="52" y="29" width="4" height="2" style="fill:#fff"/></g></svg>