<svg xmlns="http://www.w3.org/2000/svg" width="80" height="115" viewBox="0 0 80 115"><title>architecture-product-card_AWS_Step_Functions</title><g id="CARDS"><rect x="1" y="1" width="78" height="78" style="fill:#232f3e"/><path d="M0,0V80H0v35H80V80h0V0ZM1,1H79V79H1Z" style="fill:#fff"/></g><g id="TEXT_-_EDIT" data-name="TEXT - EDIT"><path d="M21.78,92.35l-.44-1.82h-2l-.42,1.82H17.15l2.31-7.63h1.87l2.3,7.63ZM19.6,89.43h1.49l-.76-3.16Z" style="fill:#232f3e"/><path d="M29,92.35,28,86.72l-.89,5.63H25.28L23.5,84.72h1.7l1.06,6.06L27.17,85H29L30,90.68l1-6h1.66l-1.78,7.63Z" style="fill:#232f3e"/><path d="M34.93,89a3.55,3.55,0,0,1-1.27-1,2,2,0,0,1-.39-1.23,2,2,0,0,1,.34-1.17,2.11,2.11,0,0,1,.92-.77,3.18,3.18,0,0,1,1.34-.27,4.85,4.85,0,0,1,1.89.39v1.17A5.44,5.44,0,0,0,36,85.79a1.26,1.26,0,0,0-.79.23.75.75,0,0,0-.29.64.86.86,0,0,0,.18.56,2.32,2.32,0,0,0,.72.48l.65.32a5.12,5.12,0,0,1,1,.62,2,2,0,0,1,.54.69,2.29,2.29,0,0,1,.17.92,2,2,0,0,1-.74,1.65,3.09,3.09,0,0,1-2,.61,5.35,5.35,0,0,1-1.13-.12,3.76,3.76,0,0,1-1-.32V90.92a7.29,7.29,0,0,0,1,.25,5.33,5.33,0,0,0,1,.11A1.32,1.32,0,0,0,36.2,91a.86.86,0,0,0,.3-.71.84.84,0,0,0-.21-.58,2.47,2.47,0,0,0-.71-.47Z" style="fill:#232f3e"/><path d="M43.33,89a3.7,3.7,0,0,1-1.28-1,2,2,0,0,1-.38-1.23A2,2,0,0,1,42,85.6a2.11,2.11,0,0,1,.92-.77,3.14,3.14,0,0,1,1.34-.27,4.85,4.85,0,0,1,1.89.39v1.17a5.44,5.44,0,0,0-1.72-.33,1.29,1.29,0,0,0-.8.23.77.77,0,0,0-.28.64.86.86,0,0,0,.18.56,2.32,2.32,0,0,0,.72.48l.65.32a4.73,4.73,0,0,1,1,.62,1.89,1.89,0,0,1,.55.69,2.29,2.29,0,0,1,.17.92,2,2,0,0,1-.74,1.65,3.12,3.12,0,0,1-2,.61,5.52,5.52,0,0,1-1.14-.12,4.06,4.06,0,0,1-1-.32V90.92a7.85,7.85,0,0,0,1,.25,5.33,5.33,0,0,0,1,.11A1.34,1.34,0,0,0,44.6,91a.86.86,0,0,0,.3-.71.84.84,0,0,0-.21-.58,2.47,2.47,0,0,0-.71-.47Z" style="fill:#232f3e"/><path d="M50.79,92.2a3.47,3.47,0,0,1-1.23.22,1.8,1.8,0,0,1-1.31-.4,1.77,1.77,0,0,1-.41-1.3v-2.9H47.1V86.9l.79-.15.24-1.54h1.36v1.51h1.27v1.1H49.49v2.77a.79.79,0,0,0,.14.52.7.7,0,0,0,.53.16,2.94,2.94,0,0,0,.63-.08Z" style="fill:#232f3e"/><path d="M52.88,89.92A1.71,1.71,0,0,0,53.25,91a1.43,1.43,0,0,0,1.06.33,3.26,3.26,0,0,0,.68-.09,5.9,5.9,0,0,0,.8-.21v1a2.88,2.88,0,0,1-.83.31,4.77,4.77,0,0,1-1,.11c-1.72,0-2.58-1-2.58-2.95a3.37,3.37,0,0,1,.63-2.2,2.24,2.24,0,0,1,1.83-.76c1.36,0,2,.76,2,2.29a4.32,4.32,0,0,1-.12,1Zm.92-2.32c-.58,0-.88.46-.92,1.37H54.5v-.25a1.68,1.68,0,0,0-.17-.86A.59.59,0,0,0,53.8,87.6Z" style="fill:#232f3e"/><path d="M57,94.61V86.72h1.35l.12.48a2.46,2.46,0,0,1,.71-.45,2.07,2.07,0,0,1,.78-.17,1.73,1.73,0,0,1,1.51.74A3.67,3.67,0,0,1,62,89.46a3.79,3.79,0,0,1-.55,2.2,1.74,1.74,0,0,1-1.51.78,2.09,2.09,0,0,1-.69-.12,2,2,0,0,1-.6-.35v2.64Zm2.42-6.91a1.27,1.27,0,0,0-.77.25v3.11a1.42,1.42,0,0,0,.78.26.73.73,0,0,0,.71-.42,3.22,3.22,0,0,0,.21-1.37,3.34,3.34,0,0,0-.21-1.41A.74.74,0,0,0,59.45,87.7Z" style="fill:#232f3e"/><path d="M17.59,106.35V98.72h4.35V99.9H19.28V102h2.08v1.17H19.28v3.22Z" style="fill:#232f3e"/><path d="M26.12,106.35l-.13-.51a3.15,3.15,0,0,1-1.78.65,1.24,1.24,0,0,1-1-.43,2,2,0,0,1-.35-1.24v-4.1h1.65v3.62a1.59,1.59,0,0,0,.14.77.44.44,0,0,0,.44.23,1.42,1.42,0,0,0,.76-.25v-4.37h1.65v5.63Z" style="fill:#232f3e"/><path d="M32,106.35v-3.7a1.36,1.36,0,0,0-.14-.7.56.56,0,0,0-.5-.22,1.59,1.59,0,0,0-.82.26v4.36H28.89v-5.63h1.35l.13.51a3.38,3.38,0,0,1,1.85-.65,1.33,1.33,0,0,1,1.06.42,1.78,1.78,0,0,1,.37,1.22v4.13Z" style="fill:#232f3e"/><path d="M38.69,106.09a2,2,0,0,1-.64.26,3.59,3.59,0,0,1-.81.09,2.28,2.28,0,0,1-1.84-.73,3.24,3.24,0,0,1-.63-2.16,3.16,3.16,0,0,1,.67-2.16,2.36,2.36,0,0,1,1.87-.76,2.87,2.87,0,0,1,1.35.33v1a3.08,3.08,0,0,0-1-.19,1,1,0,0,0-.93.4,2.28,2.28,0,0,0-.29,1.29v.16a2.23,2.23,0,0,0,.28,1.28,1,1,0,0,0,.9.4,3.32,3.32,0,0,0,1.09-.21Z" style="fill:#232f3e"/><path d="M43,106.2a3.47,3.47,0,0,1-1.23.22,1.47,1.47,0,0,1-1.72-1.7v-2.9h-.73v-.92l.78-.15.24-1.54h1.36v1.51H43v1.1H41.71v2.77a.73.73,0,0,0,.15.52.67.67,0,0,0,.53.16,2.85,2.85,0,0,0,.62-.08Z" style="fill:#232f3e"/><path d="M44.76,99.81a1,1,0,0,1-.71-.22.76.76,0,0,1-.27-.61.75.75,0,0,1,.27-.61,1.2,1.2,0,0,1,1.41,0,.77.77,0,0,1,.26.61.79.79,0,0,1-.26.61A1,1,0,0,1,44.76,99.81Zm-.83,6.54v-5.63h1.65v5.63Z" style="fill:#232f3e"/><path d="M49.26,106.49a2.3,2.3,0,0,1-1.84-.77,4,4,0,0,1,0-4.37,2.6,2.6,0,0,1,3.69,0,4,4,0,0,1,0,4.37A2.31,2.31,0,0,1,49.26,106.49Zm0-1.15a.67.67,0,0,0,.65-.43,4.79,4.79,0,0,0,0-2.74.69.69,0,0,0-1.29,0,4.79,4.79,0,0,0,0,2.74A.66.66,0,0,0,49.26,105.34Z" style="fill:#232f3e"/><path d="M56,106.35v-3.7a1.36,1.36,0,0,0-.14-.7.55.55,0,0,0-.5-.22,1.56,1.56,0,0,0-.81.26v4.36H52.92v-5.63h1.34l.14.51a3.32,3.32,0,0,1,1.84-.65,1.35,1.35,0,0,1,1.07.42,1.83,1.83,0,0,1,.36,1.22v4.13Z" style="fill:#232f3e"/><path d="M61.07,104.77c0-.25-.17-.46-.52-.62l-.72-.35a1.7,1.7,0,0,1-1.13-1.59,1.42,1.42,0,0,1,.55-1.18,2.26,2.26,0,0,1,1.47-.45,3.57,3.57,0,0,1,1.53.35v1a5.13,5.13,0,0,0-.7-.19,3,3,0,0,0-.6-.07c-.51,0-.77.18-.77.54s.21.45.64.66l.72.34a1.9,1.9,0,0,1,.77.62,1.69,1.69,0,0,1,.24.93A1.56,1.56,0,0,1,62,106a2.28,2.28,0,0,1-1.48.46,3.8,3.8,0,0,1-1.82-.44v-1a5.45,5.45,0,0,0,1.61.35.86.86,0,0,0,.57-.17A.56.56,0,0,0,61.07,104.77Z" style="fill:#232f3e"/></g><g id="ICONS_-_EDIT" data-name="ICONS - EDIT"><path d="M56,34H54V29H26v4H24V28a1,1,0,0,1,1-1H55a1,1,0,0,1,1,1Z" style="fill:#fff"/><path d="M55,53H25a1,1,0,0,1-1-1V47h2v4H54V47h2v5A1,1,0,0,1,55,53Z" style="fill:#fff"/><path d="M40,25a5,5,0,1,1,5-5A5,5,0,0,1,40,25Zm0-8a3,3,0,1,0,3,3A3,3,0,0,0,40,17Z" style="fill:#fff"/><path d="M40,65a5,5,0,1,1,5-5A5,5,0,0,1,40,65Zm0-8a3,3,0,1,0,3,3A3,3,0,0,0,40,57Z" style="fill:#fff"/><path d="M34,39H16a1,1,0,0,1-1-1V33a1,1,0,0,1,1-1H34a1,1,0,0,1,1,1v5A1,1,0,0,1,34,39ZM17,37H33V34H17Z" style="fill:#fff"/><path d="M64,45H44a1,1,0,0,1-1-1V37a1,1,0,0,1,1-1H64a1,1,0,0,1,1,1v7A1,1,0,0,1,64,45ZM45,43H63V38H45Z" style="fill:#fff"/><path d="M34,48H16a1,1,0,0,1-1-1V42a1,1,0,0,1,1-1H34a1,1,0,0,1,1,1v5A1,1,0,0,1,34,48ZM17,46H33V43H17Z" style="fill:#fff"/><rect x="39" y="24" width="2" height="4" style="fill:#fff"/><rect x="39" y="52" width="2" height="4" style="fill:#fff"/><rect x="24" y="38" width="2" height="4" style="fill:#fff"/></g></svg>