<svg xmlns="http://www.w3.org/2000/svg" width="80" height="115" viewBox="0 0 80 115"><title>architecture-product-card_Amazon_Transcribe</title><g id="CARDS"><rect x="1" y="1" width="78" height="78" style="fill:#232f3e"/><path d="M0,0V80H0v35H80V80h0V0ZM1,1H79V79H1Z" style="fill:#fff"/></g><g id="TEXT_-_EDIT" data-name="TEXT - EDIT"><path d="M25.35,92.35l-.43-1.82h-2l-.42,1.82H20.72L23,84.72H24.9l2.31,7.63Zm-2.18-2.92h1.49l-.76-3.16Z" style="fill:#232f3e"/><path d="M34.06,92.35V88.64a1.32,1.32,0,0,0-.14-.69.49.49,0,0,0-.46-.22,1.59,1.59,0,0,0-.8.26.5.5,0,0,1,0,.12v4.24H31V88.64a1.33,1.33,0,0,0-.13-.69.51.51,0,0,0-.47-.22,1.55,1.55,0,0,0-.78.26v4.36H28V86.72h1.35l.13.51a3.31,3.31,0,0,1,1.81-.65,1.25,1.25,0,0,1,1.2.67,3.38,3.38,0,0,1,1.83-.67,1.3,1.3,0,0,1,1,.42,1.85,1.85,0,0,1,.36,1.22v4.13Z" style="fill:#232f3e"/><path d="M40,92.35l-.14-.51a1.56,1.56,0,0,1-.59.47,1.86,1.86,0,0,1-.79.18A1.57,1.57,0,0,1,37.31,92a1.65,1.65,0,0,1-.43-1.22,1.69,1.69,0,0,1,.53-1.31A2,2,0,0,1,38.84,89a4,4,0,0,1,.93.13v-.51a1.33,1.33,0,0,0-.16-.78.77.77,0,0,0-.61-.2,5.9,5.9,0,0,0-1.77.35V87a3,3,0,0,1,.92-.33,5.47,5.47,0,0,1,1.15-.12,2.19,2.19,0,0,1,1.52.44,1.82,1.82,0,0,1,.47,1.39v3.94Zm-1-.92a1.17,1.17,0,0,0,.79-.35V90a2.3,2.3,0,0,0-.62-.07.67.67,0,0,0-.54.2.81.81,0,0,0-.19.59.82.82,0,0,0,.15.52A.49.49,0,0,0,39,91.43Z" style="fill:#232f3e"/><path d="M42.28,92.35V91.28l2.49-3.4h-2.4V86.72h4.14v1.07L44,91.19h2.54v1.16Z" style="fill:#232f3e"/><path d="M49.79,92.49A2.3,2.3,0,0,1,48,91.72a4,4,0,0,1,0-4.37,2.6,2.6,0,0,1,3.69,0,4,4,0,0,1,0,4.37A2.31,2.31,0,0,1,49.79,92.49Zm0-1.15a.67.67,0,0,0,.65-.43,4.79,4.79,0,0,0,0-2.74.69.69,0,0,0-1.29,0,4.79,4.79,0,0,0,0,2.74A.66.66,0,0,0,49.79,91.34Z" style="fill:#232f3e"/><path d="M56.55,92.35v-3.7a1.36,1.36,0,0,0-.14-.7.55.55,0,0,0-.5-.22,1.56,1.56,0,0,0-.81.26v4.36H53.44V86.72h1.35l.14.51a3.32,3.32,0,0,1,1.84-.65,1.35,1.35,0,0,1,1.07.42,1.83,1.83,0,0,1,.36,1.22v4.13Z" style="fill:#232f3e"/><path d="M17.3,106.35V99.94h-2V98.72H21v1.22H19v6.41Z" style="fill:#232f3e"/><path d="M21.35,106.35v-5.63h1.34l.19.73a2.47,2.47,0,0,1,.71-.59,1.56,1.56,0,0,1,.76-.19l.38,0V102a4.85,4.85,0,0,0-.64,0,2.43,2.43,0,0,0-1.09.26v4.11Z" style="fill:#232f3e"/><path d="M28.38,106.35l-.14-.51a1.56,1.56,0,0,1-.59.47,1.86,1.86,0,0,1-.79.18,1.56,1.56,0,0,1-1.18-.45,1.91,1.91,0,0,1,.1-2.53,2,2,0,0,1,1.43-.47,4,4,0,0,1,.93.13v-.51a1.33,1.33,0,0,0-.16-.78.77.77,0,0,0-.61-.2,5.9,5.9,0,0,0-1.77.35v-1a3,3,0,0,1,.91-.33,5.64,5.64,0,0,1,1.16-.12,2.21,2.21,0,0,1,1.52.44,1.82,1.82,0,0,1,.47,1.39v3.94Zm-1-.92a1.19,1.19,0,0,0,.8-.35V104a2.38,2.38,0,0,0-.63-.07.66.66,0,0,0-.53.2.81.81,0,0,0-.19.59.82.82,0,0,0,.15.52A.48.48,0,0,0,27.34,105.43Z" style="fill:#232f3e"/><path d="M34.16,106.35v-3.7A1.36,1.36,0,0,0,34,102a.55.55,0,0,0-.5-.22,1.56,1.56,0,0,0-.81.26v4.36H31.06v-5.63H32.4l.14.51a3.32,3.32,0,0,1,1.84-.65,1.35,1.35,0,0,1,1.07.42,1.83,1.83,0,0,1,.36,1.22v4.13Z" style="fill:#232f3e"/><path d="M39.21,104.77c0-.25-.17-.46-.52-.62L38,103.8a1.7,1.7,0,0,1-1.13-1.59,1.42,1.42,0,0,1,.55-1.18,2.26,2.26,0,0,1,1.47-.45,3.57,3.57,0,0,1,1.53.35v1a5.13,5.13,0,0,0-.7-.19,3,3,0,0,0-.6-.07c-.51,0-.77.18-.77.54s.21.45.64.66l.72.34a1.9,1.9,0,0,1,.77.62,1.69,1.69,0,0,1,.24.93,1.56,1.56,0,0,1-.55,1.27,2.28,2.28,0,0,1-1.48.46,3.8,3.8,0,0,1-1.82-.44v-1a5.45,5.45,0,0,0,1.61.35.86.86,0,0,0,.57-.17A.56.56,0,0,0,39.21,104.77Z" style="fill:#232f3e"/><path d="M45.26,106.09a2,2,0,0,1-.64.26,3.59,3.59,0,0,1-.81.09,2.28,2.28,0,0,1-1.84-.73,3.91,3.91,0,0,1,0-4.32,2.36,2.36,0,0,1,1.88-.76,2.86,2.86,0,0,1,1.34.33v1a3,3,0,0,0-1-.19,1.05,1.05,0,0,0-.93.4,2.28,2.28,0,0,0-.29,1.29v.16a2.31,2.31,0,0,0,.28,1.28,1,1,0,0,0,.9.4,3.27,3.27,0,0,0,1.09-.21Z" style="fill:#232f3e"/><path d="M46.31,106.35v-5.63h1.35l.18.73a2.61,2.61,0,0,1,.71-.59,1.56,1.56,0,0,1,.76-.19,2.43,2.43,0,0,1,.38,0V102a4.85,4.85,0,0,0-.64,0,2.43,2.43,0,0,0-1.09.26v4.11Z" style="fill:#232f3e"/><path d="M51.31,99.81a1,1,0,0,1-.71-.22.76.76,0,0,1-.27-.61.75.75,0,0,1,.27-.61,1.2,1.2,0,0,1,1.41,0,.77.77,0,0,1,.26.61.79.79,0,0,1-.26.61A1,1,0,0,1,51.31,99.81Zm-.83,6.54v-5.63h1.65v5.63Z" style="fill:#232f3e"/><path d="M53.58,106.35V98.21h1.65v2.9a2,2,0,0,1,1.32-.53,1.72,1.72,0,0,1,1.51.73,3.65,3.65,0,0,1,.52,2.15,3.91,3.91,0,0,1-.53,2.2,1.75,1.75,0,0,1-1.53.78,2,2,0,0,1-.77-.16,2.06,2.06,0,0,1-.66-.44l-.15.51ZM56,101.7a1.3,1.3,0,0,0-.78.25v3.11a1.43,1.43,0,0,0,.79.26.72.72,0,0,0,.7-.42,3.22,3.22,0,0,0,.21-1.37,3.34,3.34,0,0,0-.21-1.41A.73.73,0,0,0,56,101.7Z" style="fill:#232f3e"/><path d="M60.94,103.92a1.71,1.71,0,0,0,.37,1.12,1.43,1.43,0,0,0,1.06.33,3.26,3.26,0,0,0,.68-.09,5.9,5.9,0,0,0,.8-.21v1a2.88,2.88,0,0,1-.83.31,4.77,4.77,0,0,1-1,.11c-1.72,0-2.58-1-2.58-2.95a3.37,3.37,0,0,1,.63-2.2,2.24,2.24,0,0,1,1.83-.76c1.36,0,2.05.76,2.05,2.29a4.32,4.32,0,0,1-.12,1Zm.92-2.32c-.58,0-.88.46-.92,1.37h1.62v-.25a1.68,1.68,0,0,0-.17-.86A.59.59,0,0,0,61.86,101.6Z" style="fill:#232f3e"/></g><g id="ICONS_-_EDIT" data-name="ICONS - EDIT"><path d="M16.26,66a1.26,1.26,0,0,1-1.11-1.85L19.35,56a15.62,15.62,0,0,1-2.24-8.08A15.92,15.92,0,0,1,33.06,32a15.71,15.71,0,0,1,9.58,3.2l-1.2,1.59A13.88,13.88,0,0,0,21.33,55.36a1,1,0,0,1,.05,1l-3.44,6.7,6.88-3.42a1,1,0,0,1,1,0,14,14,0,0,0,18.94-4.24l1.66,1.1a16,16,0,0,1-21.16,5.13l-8.4,4.18A1.44,1.44,0,0,1,16.26,66Zm.67-.94h0Z" style="fill:#fff"/><rect x="40" y="44.1" width="2" height="5.88" style="fill:#fff"/><rect x="37" y="40.02" width="2" height="13.96" style="fill:#fff"/><rect x="34" y="42.98" width="2" height="8" style="fill:#fff"/><rect x="31" y="39.98" width="2" height="14" style="fill:#fff"/><rect x="28" y="41.98" width="2" height="10" style="fill:#fff"/><rect x="25" y="40.98" width="2" height="12" style="fill:#fff"/><rect x="22" y="43.98" width="2" height="7" style="fill:#fff"/><rect x="63" y="26.98" width="2" height="6" style="fill:#fff"/><path d="M64,56H48V54H63V39h2V55A1,1,0,0,1,64,56Z" style="fill:#fff"/><path d="M37,30H35V17a1,1,0,0,1,1-1H54v2H37Z" style="fill:#fff"/><path d="M64,28H53.92a1,1,0,0,1-1-1V17a1,1,0,0,1,.61-.92,1,1,0,0,1,1.09.21l10.08,10a1,1,0,0,1,.22,1.09A1,1,0,0,1,64,28Zm-9.08-2h6.64l-6.64-6.57Z" style="fill:#fff"/><rect x="49" y="29.98" width="10" height="2" style="fill:#fff"/><rect x="45" y="33.98" width="13" height="2" style="fill:#fff"/><rect x="41" y="23.98" width="8" height="2" style="fill:#fff"/><rect x="41" y="29.98" width="6" height="2" style="fill:#fff"/><rect x="43" y="40.98" width="2" height="12" style="fill:#fff"/><rect x="46" y="42.98" width="2" height="8" style="fill:#fff"/></g></svg>