<svg xmlns="http://www.w3.org/2000/svg" width="80" height="130" viewBox="0 0 80 130"><title>architecture-product-card_AWS_Database_Migration_Service</title><g id="CARDS"><rect x="1" y="1" width="78" height="78" style="fill:#232f3e"/><path d="M0,0V80H0v50H80V80h0V0ZM1,1H79V79H1Z" style="fill:#fff"/></g><g id="TEXT_-_EDIT" data-name="TEXT - EDIT"><path d="M10.58,92.35l-.43-1.82h-2l-.43,1.82H6l2.32-7.63h1.86l2.3,7.63ZM8.4,89.43H9.89l-.76-3.16Z" style="fill:#232f3e"/><path d="M17.78,92.35l-.94-5.63L16,92.35H14.08L12.3,84.72H14l1.06,6.06L16,85h1.83l.94,5.65,1-6h1.66l-1.78,7.63Z" style="fill:#232f3e"/><path d="M23.74,89a3.51,3.51,0,0,1-1.28-1,2,2,0,0,1-.39-1.23,2.07,2.07,0,0,1,.34-1.17,2.11,2.11,0,0,1,.92-.77,3.18,3.18,0,0,1,1.34-.27,4.93,4.93,0,0,1,1.9.39v1.17a5.5,5.5,0,0,0-1.73-.33,1.26,1.26,0,0,0-.79.23.78.78,0,0,0-.29.64.81.81,0,0,0,.19.56,2.14,2.14,0,0,0,.71.48l.65.32a5.12,5.12,0,0,1,1,.62,2,2,0,0,1,.54.69,2.13,2.13,0,0,1,.17.92,2,2,0,0,1-.74,1.65,3.09,3.09,0,0,1-2,.61,5.43,5.43,0,0,1-1.13-.12,3.76,3.76,0,0,1-.95-.32V90.92a7.29,7.29,0,0,0,1,.25,5.53,5.53,0,0,0,1,.11A1.32,1.32,0,0,0,25,91a.86.86,0,0,0,.3-.71.84.84,0,0,0-.21-.58,2.54,2.54,0,0,0-.7-.47Z" style="fill:#232f3e"/><path d="M30.81,92.35V84.72h2.52a2.92,2.92,0,0,1,2.36,1,5.49,5.49,0,0,1,0,5.69,2.83,2.83,0,0,1-2.31,1Zm1.68-6.45v5.27h.72a1.27,1.27,0,0,0,1.16-.62,3.68,3.68,0,0,0,.39-1.91v-.22a3.75,3.75,0,0,0-.38-1.91,1.29,1.29,0,0,0-1.19-.61Z" style="fill:#232f3e"/><path d="M40.71,92.35l-.14-.51a1.56,1.56,0,0,1-.59.47,1.86,1.86,0,0,1-.79.18A1.57,1.57,0,0,1,38,92a1.91,1.91,0,0,1,.1-2.53A2,2,0,0,1,39.54,89a4,4,0,0,1,.93.13v-.51a1.33,1.33,0,0,0-.16-.78.77.77,0,0,0-.61-.2,5.9,5.9,0,0,0-1.77.35V87a3,3,0,0,1,.91-.33A5.64,5.64,0,0,1,40,86.58a2.19,2.19,0,0,1,1.52.44A1.82,1.82,0,0,1,42,88.41v3.94Zm-1-.92a1.17,1.17,0,0,0,.8-.35V90a2.38,2.38,0,0,0-.63-.07.66.66,0,0,0-.53.2.81.81,0,0,0-.19.59.82.82,0,0,0,.15.52A.48.48,0,0,0,39.67,91.43Z" style="fill:#232f3e"/><path d="M46.42,92.2a3.47,3.47,0,0,1-1.23.22,1.47,1.47,0,0,1-1.72-1.7v-2.9h-.73V86.9l.78-.15.24-1.54h1.36v1.51H46.4v1.1H45.12v2.77a.79.79,0,0,0,.14.52.7.7,0,0,0,.53.16,2.86,2.86,0,0,0,.63-.08Z" style="fill:#232f3e"/><path d="M50.2,92.35l-.14-.51a1.49,1.49,0,0,1-.59.47,1.85,1.85,0,0,1-.78.18A1.54,1.54,0,0,1,47.51,92a1.66,1.66,0,0,1-.44-1.22,1.69,1.69,0,0,1,.53-1.31A2.07,2.07,0,0,1,49,89a4,4,0,0,1,.92.13v-.51a1.33,1.33,0,0,0-.16-.78.77.77,0,0,0-.61-.2,5.9,5.9,0,0,0-1.77.35V87a3,3,0,0,1,.92-.33,5.47,5.47,0,0,1,1.15-.12A2.19,2.19,0,0,1,51,87a1.82,1.82,0,0,1,.47,1.39v3.94Zm-1-.92a1.17,1.17,0,0,0,.79-.35V90a2.25,2.25,0,0,0-.62-.07.67.67,0,0,0-.54.2.85.85,0,0,0-.19.59.82.82,0,0,0,.15.52A.5.5,0,0,0,49.17,91.43Z" style="fill:#232f3e"/><path d="M52.88,92.35V84.21h1.65v2.9a1.87,1.87,0,0,1,.61-.39,2,2,0,0,1,.7-.14,1.74,1.74,0,0,1,1.52.73,3.65,3.65,0,0,1,.52,2.15,3.82,3.82,0,0,1-.54,2.2,1.72,1.72,0,0,1-1.52.78,2,2,0,0,1-.77-.16,2,2,0,0,1-.67-.44l-.14.51ZM55.3,87.7a1.27,1.27,0,0,0-.77.25v3.11a1.42,1.42,0,0,0,.78.26A.73.73,0,0,0,56,90.9a3.22,3.22,0,0,0,.21-1.37A3.34,3.34,0,0,0,56,88.12.74.74,0,0,0,55.3,87.7Z" style="fill:#232f3e"/><path d="M61.93,92.35l-.15-.51a1.42,1.42,0,0,1-.59.47,1.85,1.85,0,0,1-.78.18A1.56,1.56,0,0,1,59.23,92a1.66,1.66,0,0,1-.44-1.22,1.69,1.69,0,0,1,.53-1.31A2.08,2.08,0,0,1,60.76,89a4,4,0,0,1,.93.13v-.51a1.32,1.32,0,0,0-.17-.78.74.74,0,0,0-.6-.2,5.9,5.9,0,0,0-1.78.35V87a3.07,3.07,0,0,1,.92-.33,5.57,5.57,0,0,1,1.16-.12,2.16,2.16,0,0,1,1.51.44,1.78,1.78,0,0,1,.47,1.39v3.94Zm-1-.92a1.19,1.19,0,0,0,.8-.35V90a2.38,2.38,0,0,0-.63-.07.69.69,0,0,0-.54.2.85.85,0,0,0-.18.59.82.82,0,0,0,.15.52A.47.47,0,0,0,60.89,91.43Z" style="fill:#232f3e"/><path d="M66.6,90.77c0-.25-.17-.46-.52-.62l-.72-.35a1.7,1.7,0,0,1-1.13-1.59A1.42,1.42,0,0,1,64.78,87a2.26,2.26,0,0,1,1.47-.45,3.57,3.57,0,0,1,1.53.35v1a5.13,5.13,0,0,0-.7-.19,3,3,0,0,0-.6-.07c-.51,0-.77.18-.77.54s.21.45.64.66l.72.34a1.9,1.9,0,0,1,.77.62,1.69,1.69,0,0,1,.24.93A1.56,1.56,0,0,1,67.53,92a2.28,2.28,0,0,1-1.48.46,3.8,3.8,0,0,1-1.82-.44v-1a5.45,5.45,0,0,0,1.61.35.86.86,0,0,0,.57-.17A.56.56,0,0,0,66.6,90.77Z" style="fill:#232f3e"/><path d="M70.23,89.92A1.66,1.66,0,0,0,70.59,91a1.45,1.45,0,0,0,1.06.33,3.26,3.26,0,0,0,.68-.09,5.54,5.54,0,0,0,.8-.21v1a2.77,2.77,0,0,1-.83.31,4.77,4.77,0,0,1-1,.11c-1.72,0-2.58-1-2.58-2.95a3.32,3.32,0,0,1,.64-2.2,2.22,2.22,0,0,1,1.82-.76c1.37,0,2,.76,2,2.29a4.32,4.32,0,0,1-.12,1Zm.91-2.32c-.58,0-.88.46-.91,1.37h1.61v-.25a1.59,1.59,0,0,0-.17-.86A.59.59,0,0,0,71.14,87.6Z" style="fill:#232f3e"/><path d="M22.94,106.35V101l-1.41,3.46H20.1L18.7,101v5.32H17.19V98.72h1.93L20.84,103l1.73-4.27h1.88v7.63Z" style="fill:#232f3e"/><path d="M26.84,99.81a1.08,1.08,0,0,1-.71-.22.79.79,0,0,1-.26-.61.77.77,0,0,1,.26-.61,1,1,0,0,1,.71-.23,1,1,0,0,1,.7.23.75.75,0,0,1,.27.61.76.76,0,0,1-.27.61A1,1,0,0,1,26.84,99.81ZM26,106.35v-5.63h1.65v5.63Z" style="fill:#232f3e"/><path d="M32,105.71a1.65,1.65,0,0,1-1.21.53,1.68,1.68,0,0,1-1.44-.74,3.46,3.46,0,0,1-.53-2,3.6,3.6,0,0,1,.54-2.11,1.71,1.71,0,0,1,1.46-.77,1.79,1.79,0,0,1,.71.17,2,2,0,0,1,.63.45l.12-.48h1.35V106c0,1.86-.85,2.79-2.57,2.79a3.92,3.92,0,0,1-1.83-.44v-1a5.5,5.5,0,0,0,1.62.35,1.48,1.48,0,0,0,.7-.13.76.76,0,0,0,.35-.44,3.26,3.26,0,0,0,.1-1Zm-.66-.6a1.26,1.26,0,0,0,.66-.22V102a1.32,1.32,0,0,0-.73-.27.63.63,0,0,0-.6.42,3.2,3.2,0,0,0-.2,1.3,2.83,2.83,0,0,0,.22,1.28A.69.69,0,0,0,31.36,105.11Z" style="fill:#232f3e"/><path d="M35.07,106.35v-5.63h1.35l.18.73a2.5,2.5,0,0,1,.72-.59,1.55,1.55,0,0,1,.75-.19,2.56,2.56,0,0,1,.39,0V102a5,5,0,0,0-.64,0,2.47,2.47,0,0,0-1.1.26v4.11Z" style="fill:#232f3e"/><path d="M42.11,106.35l-.15-.51a1.42,1.42,0,0,1-.59.47,1.81,1.81,0,0,1-.78.18,1.56,1.56,0,0,1-1.18-.45,1.66,1.66,0,0,1-.44-1.22,1.69,1.69,0,0,1,.53-1.31,2.08,2.08,0,0,1,1.44-.47,4,4,0,0,1,.93.13v-.51a1.32,1.32,0,0,0-.17-.78.74.74,0,0,0-.6-.2,5.9,5.9,0,0,0-1.78.35v-1a3.07,3.07,0,0,1,.92-.33,5.57,5.57,0,0,1,1.16-.12,2.21,2.21,0,0,1,1.52.44,1.82,1.82,0,0,1,.46,1.39v3.94Zm-1-.92a1.19,1.19,0,0,0,.8-.35V104a2.38,2.38,0,0,0-.63-.07.69.69,0,0,0-.54.2.85.85,0,0,0-.18.59.82.82,0,0,0,.15.52A.47.47,0,0,0,41.07,105.43Z" style="fill:#232f3e"/><path d="M47.82,106.2a3.47,3.47,0,0,1-1.23.22,1.8,1.8,0,0,1-1.31-.4,1.77,1.77,0,0,1-.41-1.3v-2.9h-.74v-.92l.79-.15.24-1.54h1.36v1.51h1.27v1.1H46.52v2.77a.79.79,0,0,0,.14.52.69.69,0,0,0,.53.16,3,3,0,0,0,.63-.08Z" style="fill:#232f3e"/><path d="M49.56,99.81a1.08,1.08,0,0,1-.71-.22.79.79,0,0,1-.26-.61.77.77,0,0,1,.26-.61,1,1,0,0,1,.71-.23,1,1,0,0,1,.7.23.75.75,0,0,1,.27.61.76.76,0,0,1-.27.61A1,1,0,0,1,49.56,99.81Zm-.83,6.54v-5.63h1.65v5.63Z" style="fill:#232f3e"/><path d="M54.07,106.49a2.29,2.29,0,0,1-1.84-.77,4,4,0,0,1,0-4.37,2.58,2.58,0,0,1,3.68,0,4,4,0,0,1,0,4.37A2.27,2.27,0,0,1,54.07,106.49Zm0-1.15a.65.65,0,0,0,.64-.43,4.79,4.79,0,0,0,0-2.74.69.69,0,0,0-1.28,0,4.79,4.79,0,0,0,0,2.74A.65.65,0,0,0,54.07,105.34Z" style="fill:#232f3e"/><path d="M60.83,106.35v-3.7a1.25,1.25,0,0,0-.15-.7.53.53,0,0,0-.49-.22,1.59,1.59,0,0,0-.82.26v4.36H57.72v-5.63h1.35l.13.51a3.35,3.35,0,0,1,1.85-.65,1.33,1.33,0,0,1,1.06.42,1.78,1.78,0,0,1,.37,1.22v4.13Z" style="fill:#232f3e"/><path d="M24.73,117a3.6,3.6,0,0,1-1.28-1,2,2,0,0,1-.38-1.23,2.06,2.06,0,0,1,.33-1.17,2.2,2.2,0,0,1,.93-.77,3.11,3.11,0,0,1,1.34-.27,4.92,4.92,0,0,1,1.89.39v1.17a5.44,5.44,0,0,0-1.72-.33,1.29,1.29,0,0,0-.8.23.78.78,0,0,0-.29.64.86.86,0,0,0,.19.56,2.09,2.09,0,0,0,.72.48l.65.32a4.73,4.73,0,0,1,1,.62,1.76,1.76,0,0,1,.54.69,2.13,2.13,0,0,1,.18.92,2,2,0,0,1-.74,1.65,3.12,3.12,0,0,1-2,.61,5.52,5.52,0,0,1-1.14-.12,4.06,4.06,0,0,1-1-.32v-1.15a7.45,7.45,0,0,0,1,.25,5.33,5.33,0,0,0,1,.11A1.31,1.31,0,0,0,26,119a.84.84,0,0,0,.31-.71.81.81,0,0,0-.22-.58,2.4,2.4,0,0,0-.7-.47Z" style="fill:#232f3e"/><path d="M30.37,117.92a1.66,1.66,0,0,0,.36,1.12,1.45,1.45,0,0,0,1.06.33,3.26,3.26,0,0,0,.68-.09,5.54,5.54,0,0,0,.8-.21v1a2.77,2.77,0,0,1-.83.31,4.77,4.77,0,0,1-1,.11c-1.72,0-2.58-1-2.58-2.95a3.32,3.32,0,0,1,.64-2.2,2.22,2.22,0,0,1,1.82-.76c1.37,0,2.05.76,2.05,2.29a4.32,4.32,0,0,1-.12,1Zm.91-2.32c-.57,0-.88.46-.91,1.37H32v-.25a1.59,1.59,0,0,0-.17-.86A.59.59,0,0,0,31.28,115.6Z" style="fill:#232f3e"/><path d="M34.51,120.35v-5.63h1.35l.18.73a2.5,2.5,0,0,1,.72-.59,1.55,1.55,0,0,1,.75-.19,2.56,2.56,0,0,1,.39,0V116a5,5,0,0,0-.64,0,2.47,2.47,0,0,0-1.1.26v4.11Z" style="fill:#232f3e"/><path d="M40.32,120.35l-1.86-5.63h1.75l.89,4,.92-4h1.7l-1.85,5.63Z" style="fill:#232f3e"/><path d="M45.34,113.81a1.06,1.06,0,0,1-.71-.22.75.75,0,0,1-.26-.61.74.74,0,0,1,.26-.61,1.2,1.2,0,0,1,1.41,0,.75.75,0,0,1,.27.61.76.76,0,0,1-.27.61A1,1,0,0,1,45.34,113.81Zm-.83,6.54v-5.63h1.65v5.63Z" style="fill:#232f3e"/><path d="M51.26,120.09a2,2,0,0,1-.64.26,3.59,3.59,0,0,1-.81.09,2.28,2.28,0,0,1-1.84-.73,3.24,3.24,0,0,1-.63-2.16,3.16,3.16,0,0,1,.67-2.16,2.36,2.36,0,0,1,1.87-.76,2.87,2.87,0,0,1,1.35.33v1a3.08,3.08,0,0,0-1-.19,1,1,0,0,0-.93.4,2.28,2.28,0,0,0-.29,1.29v.16a2.23,2.23,0,0,0,.28,1.28,1,1,0,0,0,.9.4,3.32,3.32,0,0,0,1.09-.21Z" style="fill:#232f3e"/><path d="M53.52,117.92a1.77,1.77,0,0,0,.36,1.12,1.45,1.45,0,0,0,1.06.33,3.11,3.11,0,0,0,.68-.09,6,6,0,0,0,.81-.21v1a3,3,0,0,1-.84.31,4.67,4.67,0,0,1-1,.11c-1.72,0-2.58-1-2.58-2.95a3.37,3.37,0,0,1,.63-2.2,2.23,2.23,0,0,1,1.83-.76c1.36,0,2,.76,2,2.29a4.32,4.32,0,0,1-.12,1Zm.92-2.32c-.58,0-.89.46-.92,1.37h1.62v-.25a1.68,1.68,0,0,0-.17-.86A.59.59,0,0,0,54.44,115.6Z" style="fill:#232f3e"/></g><g id="ICONS_-_EDIT" data-name="ICONS - EDIT"><path d="M40,27.5c-6.79,0-14-2.1-14-6s7.21-6,14-6,14,2.1,14,6S46.79,27.5,40,27.5Zm0-10c-7.43,0-12,2.33-12,4s4.57,4,12,4,12-2.33,12-4S47.43,17.5,40,17.5Z" style="fill:#fff"/><path d="M40,56.43c-6.79,0-14-2.12-14-6.06V21.5h2V50.37c0,1.69,4.57,4.06,12,4.06s12-2.37,12-4.06V21.5h2V50.37C54,54.31,46.79,56.43,40,56.43Z" style="fill:#fff"/><path d="M40,37.6c-6.77,0-14-2.12-14-6.05h2c0,1.69,4.56,4.05,12,4.05s12-2.36,12-4.05h2C54,35.48,46.8,37.6,40,37.6Z" style="fill:#fff"/><path d="M40,47.53c-6.77,0-14-2.13-14-6.06h2c0,1.7,4.56,4.06,12,4.06s12-2.36,12-4.06h2C54,45.4,46.8,47.53,40,47.53Z" style="fill:#fff"/><rect x="27" y="57.5" width="2" height="6" style="fill:#fff"/><rect x="51" y="57.5" width="2" height="6" style="fill:#fff"/><rect x="35" y="59.5" width="2" height="6" style="fill:#fff"/><rect x="43" y="59.5" width="2" height="6" style="fill:#fff"/></g></svg>