<svg xmlns="http://www.w3.org/2000/svg" width="80" height="115" viewBox="0 0 80 115"><title>architecture-product-card_AWS_Single_Sign-On</title><g id="CARDS"><rect x="1" y="1" width="78" height="78" style="fill:#232f3e"/><path d="M0,0V80H0v35H80V80h0V0ZM1,1H79V79H1Z" style="fill:#fff"/></g><g id="TEXT_-_EDIT" data-name="TEXT - EDIT"><path d="M17.54,92.35l-.44-1.82h-2l-.42,1.82H12.91l2.32-7.63h1.86l2.3,7.63Zm-2.18-2.92h1.49l-.76-3.16Z" style="fill:#232f3e"/><path d="M24.74,92.35l-.94-5.63-.89,5.63H21l-1.78-7.63H21L22,90.78,22.94,85h1.83l.94,5.65,1-6h1.66l-1.78,7.63Z" style="fill:#232f3e"/><path d="M30.69,89a3.55,3.55,0,0,1-1.27-1A2,2,0,0,1,29,86.77a2,2,0,0,1,.34-1.17,2.11,2.11,0,0,1,.92-.77,3.18,3.18,0,0,1,1.34-.27,4.85,4.85,0,0,1,1.89.39v1.17a5.44,5.44,0,0,0-1.72-.33A1.26,1.26,0,0,0,31,86a.75.75,0,0,0-.29.64.86.86,0,0,0,.18.56,2.32,2.32,0,0,0,.72.48l.65.32a5.12,5.12,0,0,1,1,.62,2,2,0,0,1,.54.69,2.29,2.29,0,0,1,.17.92,2,2,0,0,1-.74,1.65,3.09,3.09,0,0,1-2,.61,5.35,5.35,0,0,1-1.13-.12,3.76,3.76,0,0,1-.95-.32V90.92a7.29,7.29,0,0,0,1,.25,5.33,5.33,0,0,0,1,.11A1.32,1.32,0,0,0,32,91a.86.86,0,0,0,.3-.71.84.84,0,0,0-.21-.58,2.47,2.47,0,0,0-.71-.47Z" style="fill:#232f3e"/><path d="M39.09,89a3.7,3.7,0,0,1-1.28-1,2,2,0,0,1-.38-1.23,2,2,0,0,1,.34-1.17,2.11,2.11,0,0,1,.92-.77A3.14,3.14,0,0,1,40,84.56a4.85,4.85,0,0,1,1.89.39v1.17a5.44,5.44,0,0,0-1.72-.33,1.29,1.29,0,0,0-.8.23.77.77,0,0,0-.28.64.86.86,0,0,0,.18.56,2.32,2.32,0,0,0,.72.48l.65.32a4.73,4.73,0,0,1,1,.62,1.89,1.89,0,0,1,.55.69,2.29,2.29,0,0,1,.17.92,2,2,0,0,1-.74,1.65,3.1,3.1,0,0,1-2,.61,5.52,5.52,0,0,1-1.14-.12,4.06,4.06,0,0,1-1-.32V90.92a7.85,7.85,0,0,0,1,.25,5.33,5.33,0,0,0,1,.11,1.34,1.34,0,0,0,.88-.25.86.86,0,0,0,.3-.71.84.84,0,0,0-.21-.58,2.47,2.47,0,0,0-.71-.47Z" style="fill:#232f3e"/><path d="M44.38,85.81a1.06,1.06,0,0,1-.71-.22A.76.76,0,0,1,43.4,85a.75.75,0,0,1,.27-.61,1.2,1.2,0,0,1,1.41,0,.74.74,0,0,1,.26.61.75.75,0,0,1-.26.61A1,1,0,0,1,44.38,85.81Zm-.83,6.54V86.72H45.2v5.63Z" style="fill:#232f3e"/><path d="M49.77,92.35v-3.7a1.25,1.25,0,0,0-.15-.7.54.54,0,0,0-.49-.22,1.57,1.57,0,0,0-.82.26v4.36H46.66V86.72H48l.13.51A3.35,3.35,0,0,1,50,86.58a1.35,1.35,0,0,1,1.07.42,1.83,1.83,0,0,1,.37,1.22v4.13Z" style="fill:#232f3e"/><path d="M55.72,91.71a1.72,1.72,0,0,1-2.66-.21,3.46,3.46,0,0,1-.52-2,3.68,3.68,0,0,1,.53-2.11,1.71,1.71,0,0,1,1.47-.77,1.79,1.79,0,0,1,.7.17,1.85,1.85,0,0,1,.63.45l.12-.48h1.35V92c0,1.86-.85,2.79-2.56,2.79A3.89,3.89,0,0,1,53,94.3v-1a5.45,5.45,0,0,0,1.61.35,1.45,1.45,0,0,0,.7-.13.72.72,0,0,0,.35-.44,3.19,3.19,0,0,0,.11-1Zm-.66-.6a1.26,1.26,0,0,0,.66-.22V88A1.35,1.35,0,0,0,55,87.7a.63.63,0,0,0-.6.42,3.23,3.23,0,0,0-.19,1.3,3,3,0,0,0,.21,1.28A.7.7,0,0,0,55.06,91.11Z" style="fill:#232f3e"/><path d="M61.16,92.25a2.69,2.69,0,0,1-1,.16A1.43,1.43,0,0,1,59.12,92a1.54,1.54,0,0,1-.35-1.12V84.21h1.65v6.54a.77.77,0,0,0,.07.4.37.37,0,0,0,.32.12,2.14,2.14,0,0,0,.35,0Z" style="fill:#232f3e"/><path d="M63.27,89.92A1.77,1.77,0,0,0,63.63,91a1.45,1.45,0,0,0,1.06.33,3.18,3.18,0,0,0,.68-.09,5.54,5.54,0,0,0,.8-.21v1a2.77,2.77,0,0,1-.83.31,4.77,4.77,0,0,1-1,.11c-1.71,0-2.57-1-2.57-2.95a3.37,3.37,0,0,1,.63-2.2,2.22,2.22,0,0,1,1.82-.76c1.37,0,2,.76,2,2.29a4.32,4.32,0,0,1-.12,1Zm.92-2.32c-.58,0-.89.46-.92,1.37h1.62v-.25a1.68,1.68,0,0,0-.17-.86A.6.6,0,0,0,64.19,87.6Z" style="fill:#232f3e"/><path d="M22.33,103a3.55,3.55,0,0,1-1.27-1,2,2,0,0,1-.39-1.23A2,2,0,0,1,21,99.6a2.11,2.11,0,0,1,.92-.77,3.18,3.18,0,0,1,1.34-.27,4.85,4.85,0,0,1,1.89.39v1.17a5.44,5.44,0,0,0-1.72-.33,1.24,1.24,0,0,0-.79.23.75.75,0,0,0-.29.64.86.86,0,0,0,.18.56,2.32,2.32,0,0,0,.72.48l.65.32a4.73,4.73,0,0,1,1,.62,1.89,1.89,0,0,1,.55.69,2.29,2.29,0,0,1,.17.92,2,2,0,0,1-.74,1.65,3.09,3.09,0,0,1-2,.61,5.35,5.35,0,0,1-1.13-.12,4,4,0,0,1-1-.32v-1.15a7.85,7.85,0,0,0,1,.25,5.33,5.33,0,0,0,1,.11,1.34,1.34,0,0,0,.88-.25.86.86,0,0,0,.3-.71.84.84,0,0,0-.21-.58,2.47,2.47,0,0,0-.71-.47Z" style="fill:#232f3e"/><path d="M27.62,99.81a1.06,1.06,0,0,1-.71-.22.75.75,0,0,1-.26-.61.74.74,0,0,1,.26-.61,1.2,1.2,0,0,1,1.41,0,.75.75,0,0,1,.27.61.76.76,0,0,1-.27.61A1,1,0,0,1,27.62,99.81Zm-.83,6.54v-5.63h1.65v5.63Z" style="fill:#232f3e"/><path d="M32.8,105.71a1.65,1.65,0,0,1-1.21.53,1.68,1.68,0,0,1-1.44-.74,3.46,3.46,0,0,1-.53-2,3.6,3.6,0,0,1,.54-2.11,1.69,1.69,0,0,1,1.46-.77,1.83,1.83,0,0,1,.71.17,2,2,0,0,1,.63.45l.12-.48h1.35V106c0,1.86-.86,2.79-2.57,2.79A3.92,3.92,0,0,1,30,108.3v-1a5.44,5.44,0,0,0,1.62.35,1.44,1.44,0,0,0,.69-.13.69.69,0,0,0,.35-.44,2.89,2.89,0,0,0,.11-1Zm-.66-.6a1.26,1.26,0,0,0,.66-.22V102a1.32,1.32,0,0,0-.73-.27.62.62,0,0,0-.6.42,3.2,3.2,0,0,0-.2,1.3,3,3,0,0,0,.21,1.28A.7.7,0,0,0,32.14,105.11Z" style="fill:#232f3e"/><path d="M39,106.35v-3.7a1.25,1.25,0,0,0-.15-.7.53.53,0,0,0-.49-.22,1.59,1.59,0,0,0-.82.26v4.36H35.85v-5.63H37.2l.13.51a3.35,3.35,0,0,1,1.85-.65,1.33,1.33,0,0,1,1.06.42,1.78,1.78,0,0,1,.37,1.22v4.13Z" style="fill:#232f3e"/><path d="M41.7,104.12v-1.23h3.19v1.23Z" style="fill:#232f3e"/><path d="M45.9,102.53a4.38,4.38,0,0,1,.88-2.93,3.45,3.45,0,0,1,4.94,0,4.44,4.44,0,0,1,.88,2.93,4.48,4.48,0,0,1-.88,2.94,3.45,3.45,0,0,1-4.94,0A4.43,4.43,0,0,1,45.9,102.53Zm1.73,0a4.1,4.1,0,0,0,.41,2,1.31,1.31,0,0,0,1.21.7,1.3,1.3,0,0,0,1.2-.7,4,4,0,0,0,.41-2,4.09,4.09,0,0,0-.4-2.06,1.3,1.3,0,0,0-1.21-.67,1.32,1.32,0,0,0-1.22.67A4.21,4.21,0,0,0,47.63,102.53Z" style="fill:#232f3e"/><path d="M57,106.35v-3.7a1.25,1.25,0,0,0-.15-.7.53.53,0,0,0-.49-.22,1.59,1.59,0,0,0-.82.26v4.36H53.91v-5.63h1.35l.13.51a3.35,3.35,0,0,1,1.84-.65,1.34,1.34,0,0,1,1.07.42,1.78,1.78,0,0,1,.37,1.22v4.13Z" style="fill:#232f3e"/></g><g id="ICONS_-_EDIT" data-name="ICONS - EDIT"><path d="M31.79,49.71H24.85c-5.24,0-9.55-3.82-9.83-8.67,0-.21,0-.42,0-.64a8.79,8.79,0,0,1,6.53-8.79c0-.23,0-.46,0-.7a13,13,0,0,1,7.84-11.54A13.52,13.52,0,0,1,44.1,22.15a14,14,0,0,1,3,4.2,6.09,6.09,0,0,1,3.71-1.26c2.8,0,5.74,1.95,6.3,6.28C62.21,32.59,65,35.8,65,40.46c0,5-2.73,8.31-7.5,9.09l-.32-2c2.65-.43,5.82-2,5.82-7.11,0-3.93-2.35-6.38-7-7.28a1,1,0,0,1-.81-.92c-.23-3.82-2.5-5.17-4.37-5.17a4.12,4.12,0,0,0-3.26,1.62,1,1,0,0,1-.94.38,1,1,0,0,1-.79-.64,12.59,12.59,0,0,0-3.12-4.85,11.59,11.59,0,0,0-12.63-2.39,11.12,11.12,0,0,0-6.58,9.69,11.2,11.2,0,0,0,.08,1.3.49.49,0,0,1,0,.12h0a1,1,0,0,1-.85,1c-2.19.55-5.75,2.21-5.75,7.06,0,.18,0,.36,0,.53.22,3.79,3.66,6.77,7.83,6.78h6.94Z" style="fill:#fff"/><path d="M64,65.71H61.06a1,1,0,0,1-.7-.29l-1.77-1.71H54a1,1,0,0,1-1-1V60.12l-1.41-1.41H49a1,1,0,0,1-1-1V55l-.38-.61a10.3,10.3,0,0,1-3.45.6A10.16,10.16,0,0,1,38.7,36.26c.26-.17.55-.33.83-.48s.63-.3.94-.43A10.15,10.15,0,0,1,42,34.91a5.73,5.73,0,0,1,.81-.13l.25,0h.32l.15,0a4.34,4.34,0,0,1,.63-.06A10.19,10.19,0,0,1,54.34,44.82a9.06,9.06,0,0,1-.61,3.52l11,11A1.05,1.05,0,0,1,65,60v4.69A1,1,0,0,1,64,65.71Zm-2.53-2H63V60.44L51.83,49.27a1,1,0,0,1-.22-1.08v0a7.1,7.1,0,0,0,.72-3.35,8.18,8.18,0,0,0-8.17-8.17,2.09,2.09,0,0,0-.36,0l-.23,0h-.11l-.2,0-.22,0a4.28,4.28,0,0,0-.61.09,8.84,8.84,0,0,0-1.25.35c-.2.09-.48.21-.75.35a7.73,7.73,0,0,0-.67.39,8.16,8.16,0,0,0,7.82,14.29,1,1,0,0,1,1.27.37l1,1.56a1,1,0,0,1,.15.54v2h2a1,1,0,0,1,.71.29l2,2a1,1,0,0,1,.29.71v2h4a1,1,0,0,1,.7.28Zm-19-16.86h0a3.71,3.71,0,0,1-2.61-6.32,3.71,3.71,0,0,1,5.23,0,3.61,3.61,0,0,1,1.1,2.61,3.74,3.74,0,0,1-3.71,3.71Zm0-5.4a1.66,1.66,0,0,0-1.19.49,1.7,1.7,0,0,0-.5,1.2,1.69,1.69,0,0,0,2.9,1.2h0a1.7,1.7,0,0,0,.5-1.2,1.67,1.67,0,0,0-.5-1.19A1.75,1.75,0,0,0,42.44,41.45Z" style="fill:#fff"/></g></svg>