<svg xmlns="http://www.w3.org/2000/svg" width="80" height="115" viewBox="0 0 80 115"><title>architecture-product-card_AWS_IoT_Button</title><g id="CARDS"><rect x="1" y="1" width="78" height="78" style="fill:#232f3e"/><path d="M0,0V80H0v35H80V80h0V0ZM1,1H79V79H1Z" style="fill:#fff"/></g><g id="TEXT_-_EDIT" data-name="TEXT - EDIT"><path d="M24.79,92.35l-.43-1.82h-2l-.42,1.82H20.16l2.32-7.63h1.86l2.31,7.63Zm-2.18-2.92H24.1l-.76-3.16Z" style="fill:#232f3e"/><path d="M32,92.35l-.94-5.63-.89,5.63H28.3l-1.79-7.63h1.7l1.06,6.06L30.19,85H32L33,90.68l1-6h1.67l-1.79,7.63Z" style="fill:#232f3e"/><path d="M38,89a3.6,3.6,0,0,1-1.28-1,2,2,0,0,1-.39-1.23,2.07,2.07,0,0,1,.34-1.17,2.17,2.17,0,0,1,.92-.77,3.19,3.19,0,0,1,1.35-.27,4.92,4.92,0,0,1,1.89.39v1.17a5.5,5.5,0,0,0-1.73-.33,1.26,1.26,0,0,0-.79.23.78.78,0,0,0-.29.64.81.81,0,0,0,.19.56,2.14,2.14,0,0,0,.71.48l.65.32a5.12,5.12,0,0,1,1,.62,2,2,0,0,1,.54.69,2.13,2.13,0,0,1,.17.92,2,2,0,0,1-.74,1.65,3.09,3.09,0,0,1-2,.61,5.43,5.43,0,0,1-1.13-.12,3.76,3.76,0,0,1-1-.32V90.92a7.29,7.29,0,0,0,1,.25,5.53,5.53,0,0,0,1,.11,1.32,1.32,0,0,0,.88-.25.86.86,0,0,0,.3-.71.84.84,0,0,0-.21-.58,2.4,2.4,0,0,0-.7-.47Z" style="fill:#232f3e"/><path d="M45.07,92.35V84.72h1.68v7.63Z" style="fill:#232f3e"/><path d="M50.56,92.49a2.29,2.29,0,0,1-1.84-.77,4,4,0,0,1,0-4.37,2.58,2.58,0,0,1,3.68,0,4,4,0,0,1,0,4.37A2.29,2.29,0,0,1,50.56,92.49Zm0-1.15a.65.65,0,0,0,.64-.43,4.79,4.79,0,0,0,0-2.74.69.69,0,0,0-1.28,0,4.79,4.79,0,0,0,0,2.74A.65.65,0,0,0,50.56,91.34Z" style="fill:#232f3e"/><path d="M55.63,92.35V85.94h-2V84.72h5.69v1.22h-2v6.41Z" style="fill:#232f3e"/><path d="M24.33,106.35V98.72h2.51a2.4,2.4,0,0,1,1.64.56,1.87,1.87,0,0,1,.64,1.47,1.83,1.83,0,0,1-.25,1,1.6,1.6,0,0,1-.74.61,1.92,1.92,0,0,1,1,.68,2,2,0,0,1,.34,1.18,1.92,1.92,0,0,1-.7,1.56,2.78,2.78,0,0,1-1.86.59Zm1.59-6.53v2.11h.67a.84.84,0,0,0,.66-.27,1.13,1.13,0,0,0,.24-.77,1.3,1.3,0,0,0-.21-.79.7.7,0,0,0-.58-.28Zm0,3.16v2.27h1a.9.9,0,0,0,.71-.29,1.28,1.28,0,0,0,.24-.84,1.19,1.19,0,0,0-.27-.84,1,1,0,0,0-.78-.3Z" style="fill:#232f3e"/><path d="M33.87,106.35l-.14-.51a3.13,3.13,0,0,1-1.78.65,1.22,1.22,0,0,1-1-.43,1.89,1.89,0,0,1-.35-1.24v-4.1h1.65v3.62a1.61,1.61,0,0,0,.13.77.47.47,0,0,0,.45.23,1.42,1.42,0,0,0,.76-.25v-4.37h1.65v5.63Z" style="fill:#232f3e"/><path d="M39.68,106.2a3.55,3.55,0,0,1-1.23.22,1.83,1.83,0,0,1-1.32-.4,1.81,1.81,0,0,1-.41-1.3v-2.9H36v-.92l.78-.15L37,99.21h1.36v1.51h1.28v1.1H38.37v2.77a.73.73,0,0,0,.15.52.67.67,0,0,0,.53.16,3,3,0,0,0,.63-.08Z" style="fill:#232f3e"/><path d="M43.83,106.2a3.47,3.47,0,0,1-1.23.22,1.47,1.47,0,0,1-1.72-1.7v-2.9h-.73v-.92l.78-.15.24-1.54h1.36v1.51h1.28v1.1H42.53v2.77a.79.79,0,0,0,.14.52.7.7,0,0,0,.53.16,2.86,2.86,0,0,0,.63-.08Z" style="fill:#232f3e"/><path d="M46.94,106.49a2.27,2.27,0,0,1-1.84-.77,3.95,3.95,0,0,1,0-4.37,2.58,2.58,0,0,1,3.68,0,4,4,0,0,1,0,4.37A2.29,2.29,0,0,1,46.94,106.49Zm0-1.15a.65.65,0,0,0,.64-.43,4.79,4.79,0,0,0,0-2.74.65.65,0,0,0-.64-.44.67.67,0,0,0-.65.44,5,5,0,0,0,0,2.74A.67.67,0,0,0,46.94,105.34Z" style="fill:#232f3e"/><path d="M53.7,106.35v-3.7a1.25,1.25,0,0,0-.15-.7.53.53,0,0,0-.49-.22,1.59,1.59,0,0,0-.82.26v4.36H50.59v-5.63h1.35l.13.51a3.35,3.35,0,0,1,1.84-.65A1.34,1.34,0,0,1,55,101a1.78,1.78,0,0,1,.37,1.22v4.13Z" style="fill:#232f3e"/></g><g id="ICONS_-_EDIT" data-name="ICONS - EDIT"><path d="M62,63H53V61h8V53h2v9A1,1,0,0,1,62,63Z" style="fill:#fff"/><path d="M27,63H18a1,1,0,0,1-1-1V53h2v8h8Z" style="fill:#fff"/><path d="M63,27H61V19H53V17h9a1,1,0,0,1,1,1Z" style="fill:#fff"/><path d="M19,27H17V18a1,1,0,0,1,1-1h9v2H19Z" style="fill:#fff"/><path d="M54,51H25.91a11,11,0,1,1,0-22H54.09a11,11,0,1,1,0,22ZM26.09,49H54a9,9,0,1,0,0-18H26a9,9,0,1,0,0,18Z" style="fill:#fff"/><path d="M53,47.5A7.5,7.5,0,1,1,60.5,40,7.5,7.5,0,0,1,53,47.5Zm0-13A5.5,5.5,0,1,0,58.5,40,5.51,5.51,0,0,0,53,34.5Z" style="fill:#fff"/><circle cx="41.5" cy="39.5" r="2.25" style="fill:#fff"/></g></svg>