<svg xmlns="http://www.w3.org/2000/svg" width="80" height="115" viewBox="0 0 80 115"><title>architecture-product-card_Amazon_GameLift</title><g id="CARDS"><rect x="1" y="1" width="78" height="78" style="fill:#232f3e"/><path d="M0,0V80H0v35H80V80h0V0ZM1,1H79V79H1Z" style="fill:#fff"/></g><g id="TEXT_-_EDIT" data-name="TEXT - EDIT"><path d="M25.35,92.35l-.43-1.82h-2l-.42,1.82H20.72L23,84.72H24.9l2.31,7.63Zm-2.18-2.92h1.49l-.76-3.16Z" style="fill:#232f3e"/><path d="M34.06,92.35V88.64a1.32,1.32,0,0,0-.14-.69.49.49,0,0,0-.46-.22,1.59,1.59,0,0,0-.8.26.5.5,0,0,1,0,.12v4.24H31V88.64a1.33,1.33,0,0,0-.13-.69.51.51,0,0,0-.47-.22,1.55,1.55,0,0,0-.78.26v4.36H28V86.72h1.35l.13.51a3.31,3.31,0,0,1,1.81-.65,1.25,1.25,0,0,1,1.2.67,3.38,3.38,0,0,1,1.83-.67,1.3,1.3,0,0,1,1,.42,1.85,1.85,0,0,1,.36,1.22v4.13Z" style="fill:#232f3e"/><path d="M40,92.35l-.14-.51a1.56,1.56,0,0,1-.59.47,1.86,1.86,0,0,1-.79.18A1.57,1.57,0,0,1,37.31,92a1.65,1.65,0,0,1-.43-1.22,1.69,1.69,0,0,1,.53-1.31A2,2,0,0,1,38.84,89a4,4,0,0,1,.93.13v-.51a1.33,1.33,0,0,0-.16-.78.77.77,0,0,0-.61-.2,5.9,5.9,0,0,0-1.77.35V87a3,3,0,0,1,.92-.33,5.47,5.47,0,0,1,1.15-.12,2.19,2.19,0,0,1,1.52.44,1.82,1.82,0,0,1,.47,1.39v3.94Zm-1-.92a1.17,1.17,0,0,0,.79-.35V90a2.3,2.3,0,0,0-.62-.07.67.67,0,0,0-.54.2.81.81,0,0,0-.19.59.82.82,0,0,0,.15.52A.49.49,0,0,0,39,91.43Z" style="fill:#232f3e"/><path d="M42.28,92.35V91.28l2.49-3.4h-2.4V86.72h4.14v1.07L44,91.19h2.54v1.16Z" style="fill:#232f3e"/><path d="M49.79,92.49A2.3,2.3,0,0,1,48,91.72a4,4,0,0,1,0-4.37,2.6,2.6,0,0,1,3.69,0,4,4,0,0,1,0,4.37A2.31,2.31,0,0,1,49.79,92.49Zm0-1.15a.67.67,0,0,0,.65-.43,4.79,4.79,0,0,0,0-2.74.69.69,0,0,0-1.29,0,4.79,4.79,0,0,0,0,2.74A.66.66,0,0,0,49.79,91.34Z" style="fill:#232f3e"/><path d="M56.55,92.35v-3.7a1.36,1.36,0,0,0-.14-.7.55.55,0,0,0-.5-.22,1.56,1.56,0,0,0-.81.26v4.36H53.44V86.72h1.35l.14.51a3.32,3.32,0,0,1,1.84-.65,1.35,1.35,0,0,1,1.07.42,1.83,1.83,0,0,1,.36,1.22v4.13Z" style="fill:#232f3e"/><path d="M22.09,105.25a3.77,3.77,0,0,0,.57,0v-2H21.5v-1.11h2.7v3.77a4,4,0,0,1-1.13.42,6,6,0,0,1-1.35.15,3,3,0,0,1-2.44-1,4.32,4.32,0,0,1-.84-2.86,4.43,4.43,0,0,1,.89-3,3.3,3.3,0,0,1,2.61-1,4.09,4.09,0,0,1,2,.45v1.17A4.47,4.47,0,0,0,23,100a4.32,4.32,0,0,0-.89-.1,1.74,1.74,0,0,0-1.49.61,3.44,3.44,0,0,0-.45,2v.21a3.37,3.37,0,0,0,.44,2A1.72,1.72,0,0,0,22.09,105.25Z" style="fill:#232f3e"/><path d="M28.5,106.35l-.14-.51a1.56,1.56,0,0,1-.59.47,1.86,1.86,0,0,1-.79.18A1.56,1.56,0,0,1,25.8,106a1.91,1.91,0,0,1,.1-2.53,2,2,0,0,1,1.43-.47,4,4,0,0,1,.93.13v-.51a1.33,1.33,0,0,0-.16-.78.77.77,0,0,0-.61-.2,5.9,5.9,0,0,0-1.77.35v-1a3,3,0,0,1,.91-.33,5.64,5.64,0,0,1,1.16-.12,2.21,2.21,0,0,1,1.52.44,1.82,1.82,0,0,1,.47,1.39v3.94Zm-1-.92a1.19,1.19,0,0,0,.8-.35V104a2.38,2.38,0,0,0-.63-.07.66.66,0,0,0-.53.2.81.81,0,0,0-.19.59.82.82,0,0,0,.15.52A.48.48,0,0,0,27.46,105.43Z" style="fill:#232f3e"/><path d="M37.25,106.35v-3.71a1.32,1.32,0,0,0-.14-.69.5.5,0,0,0-.46-.22,1.56,1.56,0,0,0-.8.26.49.49,0,0,1,0,.12v4.24H34.21v-3.71a1.32,1.32,0,0,0-.14-.69.49.49,0,0,0-.46-.22,1.5,1.5,0,0,0-.78.26v4.36H31.18v-5.63h1.34l.14.51a3.28,3.28,0,0,1,1.8-.65,1.26,1.26,0,0,1,1.21.67,3.38,3.38,0,0,1,1.83-.67,1.3,1.3,0,0,1,1,.42,1.85,1.85,0,0,1,.36,1.22v4.13Z" style="fill:#232f3e"/><path d="M41.51,103.92a1.77,1.77,0,0,0,.36,1.12,1.45,1.45,0,0,0,1.06.33,3.11,3.11,0,0,0,.68-.09,6,6,0,0,0,.81-.21v1a3,3,0,0,1-.84.31,4.67,4.67,0,0,1-1,.11c-1.72,0-2.58-1-2.58-2.95a3.37,3.37,0,0,1,.63-2.2,2.23,2.23,0,0,1,1.83-.76c1.36,0,2,.76,2,2.29a4.32,4.32,0,0,1-.12,1Zm.92-2.32c-.58,0-.89.46-.92,1.37h1.62v-.25a1.68,1.68,0,0,0-.17-.86A.59.59,0,0,0,42.43,101.6Z" style="fill:#232f3e"/><path d="M45.77,106.35V98.72h1.68v6.4H50.3v1.23Z" style="fill:#232f3e"/><path d="M51.93,99.81a1.08,1.08,0,0,1-.71-.22A.79.79,0,0,1,51,99a.77.77,0,0,1,.26-.61,1,1,0,0,1,.71-.23,1,1,0,0,1,.7.23.75.75,0,0,1,.27.61.76.76,0,0,1-.27.61A1,1,0,0,1,51.93,99.81Zm-.83,6.54v-5.63h1.65v5.63Z" style="fill:#232f3e"/><path d="M54.42,106.35v-4.53h-.79v-.92l.79-.15v-.66a2.17,2.17,0,0,1,.48-1.54,2,2,0,0,1,1.48-.5,2.81,2.81,0,0,1,1.08.21v1a2.94,2.94,0,0,0-.62-.07.86.86,0,0,0-.61.16.89.89,0,0,0-.16.62v.74H57.4v1.1H56.07v4.53Z" style="fill:#232f3e"/><path d="M61.54,106.2a3.55,3.55,0,0,1-1.23.22A1.83,1.83,0,0,1,59,106a1.81,1.81,0,0,1-.41-1.3v-2.9h-.73v-.92l.78-.15.24-1.54h1.36v1.51h1.28v1.1H60.23v2.77a.73.73,0,0,0,.15.52.69.69,0,0,0,.53.16,3,3,0,0,0,.63-.08Z" style="fill:#232f3e"/></g><g id="ICONS_-_EDIT" data-name="ICONS - EDIT"><path d="M29.67,57A21,21,0,0,1,35,16l.15,0H36A21,21,0,0,1,57,37a20.24,20.24,0,0,1-.54,4.71l-1.94-.46A18.46,18.46,0,0,0,55,37,19,19,0,0,0,36,18h-.86A19,19,0,0,0,17,37,19,19,0,0,0,30.27,55.12Zm5.74-39h0Zm0,0Z" style="fill:#fff"/><path d="M29.13,53.64A22.1,22.1,0,0,1,26.62,48a39.08,39.08,0,0,1-1.5-11,38.81,38.81,0,0,1,1.52-11c1.78-5.92,4.8-9.55,8.3-9.95l.2,0h.25a1.19,1.19,0,0,1,.42,0c3.7.17,7,3.95,8.78,10.15A38.69,38.69,0,0,1,46.06,37a39.87,39.87,0,0,1-.37,5.57l-2-.27a39.21,39.21,0,0,0,.35-5.3,36.47,36.47,0,0,0-1.39-10.26c-1.55-5.31-4.23-8.65-7-8.73H35.2c-2.6.27-5.15,3.54-6.64,8.54A36.52,36.52,0,0,0,27.12,37a36.91,36.91,0,0,0,1.42,10.39,20.15,20.15,0,0,0,2.27,5.17ZM35.36,18Zm.1,0h0Z" style="fill:#fff"/><rect x="15.97" y="36" width="39.97" height="2" style="fill:#fff"/><path d="M22.1,51.06s0-.07.07-.16l-1.9-.61.11-.23h0c.93-1.88,4.27-2.86,6.93-3.35l.1,0c1-.18,1.93-.31,2.84-.4l.2,2c-.84.08-1.71.21-2.64.37l-.08,0h0c-3.59.65-5.24,1.64-5.57,2.28A.3.3,0,0,1,22.1,51.06Z" style="fill:#fff"/><path d="M36.12,28a48.5,48.5,0,0,1-8-.61h0c-3.22-.56-7.17-1.71-7.66-4.05a1.36,1.36,0,0,1,0-.2h1l1-.2c.13.61,1.83,1.76,6,2.48h0a46.78,46.78,0,0,0,7.67.58,45.89,45.89,0,0,0,8.09-.66c3.93-.73,5.36-1.8,5.59-2.32l1.83.79c-.85,2-4.31,3-7.06,3.5A48,48,0,0,1,36.12,28Z" style="fill:#fff"/><rect x="43.44" y="45" width="10.06" height="2" style="fill:#fff"/><path d="M60.71,66c-3.33,0-5-4.16-6.39-7.83-.3-.78-.59-1.53-.88-2.17H43.5c-.3.67-.58,1.4-.89,2.17C41.18,61.84,39.55,66,36.23,66a4,4,0,0,1-3-1.16A5.2,5.2,0,0,1,32,61.3V51.14a1,1,0,0,1,2,0V61.33a3.33,3.33,0,0,0,.72,2.12,2.06,2.06,0,0,0,1.54.55c2,0,3.38-3.63,4.52-6.56.38-1,.74-1.88,1.1-2.65l.07-.16a1,1,0,0,1,.92-.63H54.08a1,1,0,0,1,.9.58l.1.21c.37.77.73,1.69,1.11,2.65C57.33,60.37,58.75,64,60.71,64a2.06,2.06,0,0,0,1.54-.55A3.31,3.31,0,0,0,63,61.36V51.14a1,1,0,0,1,2,0V61.33a5.18,5.18,0,0,1-1.28,3.51A4,4,0,0,1,60.71,66Z" style="fill:#fff"/><path d="M58,57a7,7,0,1,1,7-7A7,7,0,0,1,58,57Zm0-12a5,5,0,1,0,5,5A5,5,0,0,0,58,45Z" style="fill:#fff"/><path d="M39,57a7,7,0,1,1,7-7A7,7,0,0,1,39,57Zm0-12a5,5,0,1,0,5,5A5,5,0,0,0,39,45Z" style="fill:#fff"/><rect x="35.97" y="49.02" width="6" height="2" style="fill:#fff"/><rect x="37.97" y="47.02" width="2" height="5.99" style="fill:#fff"/><circle cx="57.97" cy="50.02" r="1.63" style="fill:#232f3e"/><path d="M58,52.15A2.13,2.13,0,1,1,60.1,50,2.13,2.13,0,0,1,58,52.15Zm0-3.26A1.13,1.13,0,1,0,59.1,50,1.13,1.13,0,0,0,58,48.89Z" style="fill:#fff"/></g></svg>