<svg xmlns="http://www.w3.org/2000/svg" width="80" height="115" viewBox="0 0 80 115"><title>architecture-product-card_Amazon_Inspector</title><g id="CARDS"><rect x="1" y="1" width="78" height="78" style="fill:#232f3e"/><path d="M0,0V80H0v35H80V80h0V0ZM1,1H79V79H1Z" style="fill:#fff"/></g><g id="TEXT_-_EDIT" data-name="TEXT - EDIT"><path d="M25.35,92.35l-.43-1.82h-2l-.42,1.82H20.72L23,84.72H24.9l2.31,7.63Zm-2.18-2.92h1.49l-.76-3.16Z" style="fill:#232f3e"/><path d="M34.06,92.35V88.64a1.32,1.32,0,0,0-.14-.69.49.49,0,0,0-.46-.22,1.59,1.59,0,0,0-.8.26.5.5,0,0,1,0,.12v4.24H31V88.64a1.33,1.33,0,0,0-.13-.69.51.51,0,0,0-.47-.22,1.55,1.55,0,0,0-.78.26v4.36H28V86.72h1.35l.13.51a3.31,3.31,0,0,1,1.81-.65,1.25,1.25,0,0,1,1.2.67,3.38,3.38,0,0,1,1.83-.67,1.3,1.3,0,0,1,1,.42,1.85,1.85,0,0,1,.36,1.22v4.13Z" style="fill:#232f3e"/><path d="M40,92.35l-.14-.51a1.56,1.56,0,0,1-.59.47,1.86,1.86,0,0,1-.79.18A1.57,1.57,0,0,1,37.31,92a1.65,1.65,0,0,1-.43-1.22,1.69,1.69,0,0,1,.53-1.31A2,2,0,0,1,38.84,89a4,4,0,0,1,.93.13v-.51a1.33,1.33,0,0,0-.16-.78.77.77,0,0,0-.61-.2,5.9,5.9,0,0,0-1.77.35V87a3,3,0,0,1,.92-.33,5.47,5.47,0,0,1,1.15-.12,2.19,2.19,0,0,1,1.52.44,1.82,1.82,0,0,1,.47,1.39v3.94Zm-1-.92a1.17,1.17,0,0,0,.79-.35V90a2.3,2.3,0,0,0-.62-.07.67.67,0,0,0-.54.2.81.81,0,0,0-.19.59.82.82,0,0,0,.15.52A.49.49,0,0,0,39,91.43Z" style="fill:#232f3e"/><path d="M42.28,92.35V91.28l2.49-3.4h-2.4V86.72h4.14v1.07L44,91.19h2.54v1.16Z" style="fill:#232f3e"/><path d="M49.79,92.49A2.3,2.3,0,0,1,48,91.72a4,4,0,0,1,0-4.37,2.6,2.6,0,0,1,3.69,0,4,4,0,0,1,0,4.37A2.31,2.31,0,0,1,49.79,92.49Zm0-1.15a.67.67,0,0,0,.65-.43,4.79,4.79,0,0,0,0-2.74.69.69,0,0,0-1.29,0,4.79,4.79,0,0,0,0,2.74A.66.66,0,0,0,49.79,91.34Z" style="fill:#232f3e"/><path d="M56.55,92.35v-3.7a1.36,1.36,0,0,0-.14-.7.55.55,0,0,0-.5-.22,1.56,1.56,0,0,0-.81.26v4.36H53.44V86.72h1.35l.14.51a3.32,3.32,0,0,1,1.84-.65,1.35,1.35,0,0,1,1.07.42,1.83,1.83,0,0,1,.36,1.22v4.13Z" style="fill:#232f3e"/><path d="M18.47,106.35V98.72h1.68v7.63Z" style="fill:#232f3e"/><path d="M24.84,106.35v-3.7a1.25,1.25,0,0,0-.15-.7.53.53,0,0,0-.49-.22,1.59,1.59,0,0,0-.82.26v4.36H21.73v-5.63h1.35l.13.51a3.35,3.35,0,0,1,1.85-.65,1.33,1.33,0,0,1,1.06.42,1.78,1.78,0,0,1,.37,1.22v4.13Z" style="fill:#232f3e"/><path d="M29.89,104.77c0-.25-.18-.46-.52-.62l-.72-.35a1.69,1.69,0,0,1-1.14-1.59,1.43,1.43,0,0,1,.56-1.18,2.26,2.26,0,0,1,1.47-.45,3.57,3.57,0,0,1,1.53.35v1a5.56,5.56,0,0,0-.7-.19,3,3,0,0,0-.6-.07c-.52,0-.77.18-.77.54s.21.45.63.66l.73.34a1.9,1.9,0,0,1,.77.62,1.69,1.69,0,0,1,.24.93,1.57,1.57,0,0,1-.56,1.27,2.28,2.28,0,0,1-1.48.46,3.85,3.85,0,0,1-1.82-.44v-1a5.5,5.5,0,0,0,1.62.35.81.81,0,0,0,.56-.17A.57.57,0,0,0,29.89,104.77Z" style="fill:#232f3e"/><path d="M32.3,108.61v-7.89h1.35l.12.48a2.33,2.33,0,0,1,.71-.45,2.07,2.07,0,0,1,.78-.17,1.74,1.74,0,0,1,1.51.74,3.67,3.67,0,0,1,.53,2.14,3.87,3.87,0,0,1-.55,2.2,1.75,1.75,0,0,1-1.51.78,2.09,2.09,0,0,1-.69-.12A2,2,0,0,1,34,106v2.64Zm2.42-6.91A1.27,1.27,0,0,0,34,102v3.11a1.37,1.37,0,0,0,.78.26.74.74,0,0,0,.71-.42,3.38,3.38,0,0,0,.21-1.37,3.51,3.51,0,0,0-.21-1.41A.75.75,0,0,0,34.72,101.7Z" style="fill:#232f3e"/><path d="M39.66,103.92A1.66,1.66,0,0,0,40,105a1.45,1.45,0,0,0,1.06.33,3.26,3.26,0,0,0,.68-.09,5.54,5.54,0,0,0,.8-.21v1a2.77,2.77,0,0,1-.83.31,4.77,4.77,0,0,1-1,.11c-1.72,0-2.58-1-2.58-2.95a3.32,3.32,0,0,1,.64-2.2,2.22,2.22,0,0,1,1.82-.76c1.37,0,2.05.76,2.05,2.29a4.32,4.32,0,0,1-.12,1Zm.91-2.32c-.58,0-.88.46-.91,1.37h1.61v-.25a1.59,1.59,0,0,0-.17-.86A.59.59,0,0,0,40.57,101.6Z" style="fill:#232f3e"/><path d="M47.44,106.09a2,2,0,0,1-.64.26,3.53,3.53,0,0,1-.81.09,2.28,2.28,0,0,1-1.84-.73,3.91,3.91,0,0,1,0-4.32,2.36,2.36,0,0,1,1.88-.76,2.93,2.93,0,0,1,1.35.33v1a3.09,3.09,0,0,0-1-.19,1.05,1.05,0,0,0-.93.4,2.29,2.29,0,0,0-.28,1.29v.16a2.32,2.32,0,0,0,.27,1.28,1,1,0,0,0,.91.4,3.22,3.22,0,0,0,1.08-.21Z" style="fill:#232f3e"/><path d="M51.77,106.2a3.55,3.55,0,0,1-1.23.22,1.85,1.85,0,0,1-1.32-.4,1.81,1.81,0,0,1-.41-1.3v-2.9h-.73v-.92l.78-.15.24-1.54h1.36v1.51h1.28v1.1H50.46v2.77a.73.73,0,0,0,.15.52.69.69,0,0,0,.53.16,3,3,0,0,0,.63-.08Z" style="fill:#232f3e"/><path d="M54.87,106.49a2.29,2.29,0,0,1-1.84-.77,4,4,0,0,1,0-4.37,2.6,2.6,0,0,1,3.69,0,4,4,0,0,1,0,4.37A2.31,2.31,0,0,1,54.87,106.49Zm0-1.15a.67.67,0,0,0,.65-.43,4.79,4.79,0,0,0,0-2.74.69.69,0,0,0-1.29,0,4.79,4.79,0,0,0,0,2.74A.66.66,0,0,0,54.87,105.34Z" style="fill:#232f3e"/><path d="M58.52,106.35v-5.63h1.35l.18.73a2.5,2.5,0,0,1,.72-.59,1.55,1.55,0,0,1,.75-.19,2.56,2.56,0,0,1,.39,0V102a5,5,0,0,0-.64,0,2.5,2.5,0,0,0-1.1.26v4.11Z" style="fill:#232f3e"/></g><g id="ICONS_-_EDIT" data-name="ICONS - EDIT"><path d="M60.18,63.7a4.84,4.84,0,0,1-3.24-1.24l-12.15-11L46.18,50l12.15,11a2.78,2.78,0,0,0,3.72-4.13l-12.19-11,1.39-1.55,12.19,11a4.85,4.85,0,0,1-3.26,8.46Z" style="fill:#fff"/><path d="M36,33.38a4,4,0,1,1,4-4A4,4,0,0,1,36,33.38Zm0-6a2,2,0,1,0,2,2A2,2,0,0,0,36,27.38Z" style="fill:#fff"/><path d="M24.34,37.92v-2a3.4,3.4,0,0,0,1.83-6.26L27.25,28a5.35,5.35,0,0,1,2.49,4.54A5.42,5.42,0,0,1,24.34,37.92Z" style="fill:#fff"/><path d="M34.5,47.38A5.54,5.54,0,1,1,40,41.84,5.55,5.55,0,0,1,34.5,47.38Zm0-9A3.46,3.46,0,1,0,38,41.84,3.46,3.46,0,0,0,34.5,38.38Z" style="fill:#fff"/><path d="M34.5,55.38A19.54,19.54,0,1,1,54,35.84,19.56,19.56,0,0,1,34.5,55.38Zm0-37A17.46,17.46,0,1,0,52,35.84,17.48,17.48,0,0,0,34.5,18.38Z" style="fill:#fff"/><path d="M34.5,50.38A14.54,14.54,0,1,1,49,35.84,14.56,14.56,0,0,1,34.5,50.38Zm0-27A12.46,12.46,0,1,0,47,35.84,12.47,12.47,0,0,0,34.5,23.38Z" style="fill:#fff"/><rect x="41.51" y="37.24" width="2.08" height="8.12" transform="translate(-4.44 77.46) rotate(-81.73)" style="fill:#fff"/><rect x="34.96" y="32.34" width="2.08" height="5" style="fill:#fff"/><rect x="28" y="35.02" width="2.08" height="4.37" transform="translate(-17.77 31.21) rotate(-44.72)" style="fill:#fff"/></g></svg>