<svg xmlns="http://www.w3.org/2000/svg" width="80" height="115" viewBox="0 0 80 115"><title>architecture-product-card_Amazon_SageMaker</title><g id="CARDS"><rect x="1" y="1" width="78" height="78" style="fill:#232f3e"/><path d="M0,0V80H0v35H80V80h0V0ZM1,1H79V79H1Z" style="fill:#fff"/></g><g id="TEXT_-_EDIT" data-name="TEXT - EDIT"><path d="M25.35,92.34l-.43-1.81h-2l-.42,1.81H20.72L23,84.72H24.9l2.31,7.62Zm-2.18-2.91h1.49l-.76-3.16Z" style="fill:#232f3e"/><path d="M34.06,92.34v-3.7a1.39,1.39,0,0,0-.14-.7.51.51,0,0,0-.46-.22,1.61,1.61,0,0,0-.8.27.5.5,0,0,1,0,.12v4.23H31v-3.7a1.4,1.4,0,0,0-.13-.7.54.54,0,0,0-.47-.22,1.58,1.58,0,0,0-.78.27v4.35H28V86.72h1.35l.13.51a3.31,3.31,0,0,1,1.81-.65,1.23,1.23,0,0,1,1.2.67,3.31,3.31,0,0,1,1.83-.67,1.3,1.3,0,0,1,1,.42,1.85,1.85,0,0,1,.36,1.22v4.12Z" style="fill:#232f3e"/><path d="M40,92.34l-.14-.5a1.56,1.56,0,0,1-.59.47,1.86,1.86,0,0,1-.79.18A1.57,1.57,0,0,1,37.31,92a1.65,1.65,0,0,1-.43-1.22,1.69,1.69,0,0,1,.53-1.31A2,2,0,0,1,38.84,89a4.11,4.11,0,0,1,.93.14v-.51a1.33,1.33,0,0,0-.16-.78.77.77,0,0,0-.61-.2,5.9,5.9,0,0,0-1.77.35V87a3,3,0,0,1,.92-.33,5.47,5.47,0,0,1,1.15-.12,2.19,2.19,0,0,1,1.52.44,1.81,1.81,0,0,1,.47,1.39v3.93Zm-1-.91a1.22,1.22,0,0,0,.79-.35V90a2.3,2.3,0,0,0-.62-.07.67.67,0,0,0-.54.2.81.81,0,0,0-.19.59.82.82,0,0,0,.15.52A.49.49,0,0,0,39,91.43Z" style="fill:#232f3e"/><path d="M42.28,92.34V91.28l2.49-3.4h-2.4V86.72h4.14v1.07L44,91.19h2.54v1.15Z" style="fill:#232f3e"/><path d="M49.79,92.49A2.3,2.3,0,0,1,48,91.72a4,4,0,0,1,0-4.37,2.6,2.6,0,0,1,3.69,0,4,4,0,0,1,0,4.37A2.31,2.31,0,0,1,49.79,92.49Zm0-1.15a.67.67,0,0,0,.65-.43,4.79,4.79,0,0,0,0-2.74.69.69,0,0,0-1.29,0,4.79,4.79,0,0,0,0,2.74A.66.66,0,0,0,49.79,91.34Z" style="fill:#232f3e"/><path d="M56.55,92.34V88.65a1.43,1.43,0,0,0-.14-.71.57.57,0,0,0-.5-.22,1.58,1.58,0,0,0-.81.27v4.35H53.44V86.72h1.35l.14.51a3.32,3.32,0,0,1,1.84-.65,1.35,1.35,0,0,1,1.07.42,1.81,1.81,0,0,1,.36,1.22v4.12Z" style="fill:#232f3e"/><path d="M15.68,103a3.7,3.7,0,0,1-1.28-1,2,2,0,0,1-.38-1.23,2,2,0,0,1,.34-1.17,2.11,2.11,0,0,1,.92-.77,3.18,3.18,0,0,1,1.34-.27,4.85,4.85,0,0,1,1.89.39v1.17a5.44,5.44,0,0,0-1.72-.33A1.24,1.24,0,0,0,16,100a.75.75,0,0,0-.29.64.86.86,0,0,0,.18.56,2.32,2.32,0,0,0,.72.48l.65.32a4.73,4.73,0,0,1,1,.62,1.89,1.89,0,0,1,.55.69,2.27,2.27,0,0,1,.17.91,2.05,2.05,0,0,1-.74,1.66,3.09,3.09,0,0,1-2,.61,5.35,5.35,0,0,1-1.13-.12,4,4,0,0,1-1-.32v-1.15a7.85,7.85,0,0,0,1,.25,5.33,5.33,0,0,0,1,.11A1.34,1.34,0,0,0,17,105a.86.86,0,0,0,.3-.71.84.84,0,0,0-.21-.58,2.68,2.68,0,0,0-.71-.48Z" style="fill:#232f3e"/><path d="M23,106.34l-.15-.5a1.42,1.42,0,0,1-.59.47,1.81,1.81,0,0,1-.78.18,1.56,1.56,0,0,1-1.18-.45,1.66,1.66,0,0,1-.44-1.22,1.69,1.69,0,0,1,.53-1.31,2.09,2.09,0,0,1,1.44-.48,4.11,4.11,0,0,1,.93.14v-.51a1.32,1.32,0,0,0-.17-.78.74.74,0,0,0-.6-.2,5.9,5.9,0,0,0-1.78.35v-1a3.07,3.07,0,0,1,.92-.33,5.57,5.57,0,0,1,1.16-.12,2.16,2.16,0,0,1,1.51.44,1.77,1.77,0,0,1,.47,1.39v3.93Zm-1-.91a1.24,1.24,0,0,0,.8-.35V104a2.38,2.38,0,0,0-.63-.07.69.69,0,0,0-.54.2.85.85,0,0,0-.18.59.82.82,0,0,0,.15.52A.47.47,0,0,0,22,105.43Z" style="fill:#232f3e"/><path d="M28.59,105.71a1.74,1.74,0,0,1-2.66-.21,3.46,3.46,0,0,1-.53-2,3.6,3.6,0,0,1,.54-2.11,1.71,1.71,0,0,1,1.46-.77,1.79,1.79,0,0,1,.71.17,2,2,0,0,1,.63.45l.12-.48h1.35V106c0,1.86-.85,2.79-2.56,2.79a3.93,3.93,0,0,1-1.84-.44v-1a5.57,5.57,0,0,0,1.62.35,1.48,1.48,0,0,0,.7-.13.76.76,0,0,0,.35-.44,3.19,3.19,0,0,0,.11-1Zm-.67-.6a1.32,1.32,0,0,0,.67-.22V102a1.35,1.35,0,0,0-.74-.27.63.63,0,0,0-.6.42,3.23,3.23,0,0,0-.19,1.3,2.91,2.91,0,0,0,.21,1.27A.69.69,0,0,0,27.92,105.11Z" style="fill:#232f3e"/><path d="M32.85,103.91a1.67,1.67,0,0,0,.36,1.13,1.45,1.45,0,0,0,1.06.33,3.18,3.18,0,0,0,.68-.09,5.54,5.54,0,0,0,.8-.21v1a3.07,3.07,0,0,1-.83.31,4.77,4.77,0,0,1-1,.11c-1.71,0-2.57-1-2.57-2.95a3.37,3.37,0,0,1,.63-2.2,2.22,2.22,0,0,1,1.82-.76c1.37,0,2,.76,2,2.29a4.18,4.18,0,0,1-.12,1Zm.92-2.31c-.58,0-.89.46-.92,1.37h1.61v-.25a1.68,1.68,0,0,0-.16-.86A.6.6,0,0,0,33.77,101.6Z" style="fill:#232f3e"/><path d="M42.85,106.34V101l-1.41,3.46H40L38.61,101v5.31H37.1V98.72H39L40.75,103l1.73-4.27h1.88v7.62Z" style="fill:#232f3e"/><path d="M48.79,106.34l-.15-.5a1.42,1.42,0,0,1-.59.47,1.78,1.78,0,0,1-.78.18,1.56,1.56,0,0,1-1.18-.45,1.91,1.91,0,0,1,.1-2.53,2,2,0,0,1,1.43-.48,4.11,4.11,0,0,1,.93.14v-.51a1.42,1.42,0,0,0-.16-.78.78.78,0,0,0-.61-.2A5.79,5.79,0,0,0,46,102v-1a2.9,2.9,0,0,1,.91-.33,5.57,5.57,0,0,1,1.16-.12,2.21,2.21,0,0,1,1.52.44,1.81,1.81,0,0,1,.47,1.39v3.93Zm-1-.91a1.24,1.24,0,0,0,.8-.35V104a2.38,2.38,0,0,0-.63-.07.66.66,0,0,0-.53.2.81.81,0,0,0-.19.59.82.82,0,0,0,.15.52A.47.47,0,0,0,47.75,105.43Z" style="fill:#232f3e"/><path d="M51.46,106.34V98.21h1.63v4.94l1.64-2.43h1.83l-2,2.69,2.17,2.93h-1.9l-1.76-2.59v2.59Z" style="fill:#232f3e"/><path d="M58.44,103.91A1.67,1.67,0,0,0,58.8,105a1.45,1.45,0,0,0,1.06.33,3.18,3.18,0,0,0,.68-.09,5.54,5.54,0,0,0,.8-.21v1a3.07,3.07,0,0,1-.83.31,4.77,4.77,0,0,1-1,.11c-1.72,0-2.58-1-2.58-2.95a3.37,3.37,0,0,1,.64-2.2,2.22,2.22,0,0,1,1.82-.76c1.37,0,2.05.76,2.05,2.29a4.18,4.18,0,0,1-.12,1Zm.91-2.31c-.57,0-.88.46-.91,1.37h1.61v-.25a1.56,1.56,0,0,0-.17-.86A.58.58,0,0,0,59.35,101.6Z" style="fill:#232f3e"/><path d="M62.58,106.34v-5.62h1.35l.18.73a2.5,2.5,0,0,1,.72-.59,1.55,1.55,0,0,1,.75-.19,2.56,2.56,0,0,1,.39,0V102a5,5,0,0,0-.64,0,2.47,2.47,0,0,0-1.1.26v4.1Z" style="fill:#232f3e"/></g><g id="ICONS_-_EDIT" data-name="ICONS - EDIT"><path d="M46.24,65.26a.94.94,0,0,1-.51-.14L40,61.69l-5.73,3.43a1,1,0,0,1-1,0L21.48,57.94a1,1,0,0,1-.48-.85v-7.2l-5.49-3.11a1,1,0,0,1-.51-.87V34.09a1,1,0,0,1,.51-.87L21,30.11v-7.2a1,1,0,0,1,.48-.86l11.76-7.16a1,1,0,0,1,1,0L40,18.31l5.73-3.43a1,1,0,0,1,1,0l11.76,7.17a1,1,0,0,1,.48.85v7.2l5.49,3.11a1,1,0,0,1,.51.87V45.91a1,1,0,0,1-.51.87L59,49.89v7.2a1,1,0,0,1-.48.86L46.76,65.12A1.07,1.07,0,0,1,46.24,65.26ZM41,60l5.24,3.13L57,56.53V49.31a1,1,0,0,1,.51-.87l4.43-2.51-3.72-2.06a2.87,2.87,0,0,1-4.73-2.17,2.87,2.87,0,1,1,5.73,0,3,3,0,0,1,0,.42L63,44.22V34.68l-5.49-3.12a1,1,0,0,1-.51-.87V27.87H54.23a2.87,2.87,0,1,1,0-2H57v-2.4L46.23,16.91,41,20V31l5.55,3.22a2.86,2.86,0,1,1-1.14,2.29,3.08,3.08,0,0,1,.06-.61l-6-3.46a1,1,0,0,1-.5-.86V20l-5.23-3.13L29,19.81v7.06H27V21l-4,2.44V30.1l5,2.84,5-2.83V25h2v5.69a1,1,0,0,1-.51.87L29,34.67v4.76L34.54,43a1,1,0,0,1,.46.84v3.35l4-2.35V40.63l-5.29-3.12,1-1.72,5.78,3.4a1,1,0,0,1,.49.86V52.86h4.59a2.86,2.86,0,1,1,0,2H41Zm-11.42.58,4.18,2.55L39,60V47.19L27.83,53.77l-1-1.73L33,48.4v-4l-5-3.27-5.6,3.14-1-1.75L27,39.38V34.67l-5-2.83-5,2.83v3.64l4.27-2.51,1,1.72L17,40.63v4.7l5,2.82,5.06-3,1,1.72-5.07,3v6.65l4.53,2.76,5.22-3.07.06.09.24-.14,1,1.72ZM48.27,53a.87.87,0,1,0,.86.87A.86.86,0,0,0,48.27,53Zm8.09-12.16a.87.87,0,1,0,.86.87A.87.87,0,0,0,56.36,40.83Zm-8.09-5.15a.87.87,0,1,0,.86.87A.86.86,0,0,0,48.27,35.68ZM51.54,26a.87.87,0,1,0,.87.87A.86.86,0,0,0,51.54,26Z" style="fill:#fff"/></g></svg>