<svg xmlns="http://www.w3.org/2000/svg" width="80" height="115" viewBox="0 0 80 115"><title>architecture-product-card_AWS_Migration_Hub</title><g id="CARDS"><rect x="1" y="1" width="78" height="78" style="fill:#232f3e"/><path d="M0,0V80H0v35H80V80h0V0ZM1,1H79V79H1Z" style="fill:#fff"/></g><g id="TEXT_-_EDIT" data-name="TEXT - EDIT"><path d="M33.69,92.35l-.44-1.82h-2l-.42,1.82H29.06l2.31-7.63h1.87l2.3,7.63Zm-2.18-2.92H33l-.76-3.16Z" style="fill:#232f3e"/><path d="M40.89,92.35,40,86.72l-.89,5.63H37.19l-1.78-7.63h1.7l1.06,6.06L39.08,85h1.84l.94,5.65,1-6h1.66l-1.78,7.63Z" style="fill:#232f3e"/><path d="M46.84,89a3.55,3.55,0,0,1-1.27-1,2,2,0,0,1-.39-1.23,2,2,0,0,1,.34-1.17,2.11,2.11,0,0,1,.92-.77,3.18,3.18,0,0,1,1.34-.27,4.85,4.85,0,0,1,1.89.39v1.17A5.44,5.44,0,0,0,48,85.79a1.24,1.24,0,0,0-.79.23.75.75,0,0,0-.29.64.86.86,0,0,0,.18.56,2.32,2.32,0,0,0,.72.48l.65.32a5.12,5.12,0,0,1,1,.62,2,2,0,0,1,.54.69,2.29,2.29,0,0,1,.17.92,2,2,0,0,1-.74,1.65,3.09,3.09,0,0,1-2,.61,5.35,5.35,0,0,1-1.13-.12,4,4,0,0,1-1-.32V90.92a7.85,7.85,0,0,0,1,.25,5.33,5.33,0,0,0,1,.11,1.34,1.34,0,0,0,.88-.25.86.86,0,0,0,.3-.71.84.84,0,0,0-.21-.58,2.47,2.47,0,0,0-.71-.47Z" style="fill:#232f3e"/><path d="M11.91,106.35V101l-1.41,3.46H9.06L7.66,101v5.32H6.16V98.72H8.09L9.81,103l1.72-4.27h1.88v7.63Z" style="fill:#232f3e"/><path d="M15.81,99.81a1,1,0,0,1-.71-.22.76.76,0,0,1-.27-.61.75.75,0,0,1,.27-.61,1.2,1.2,0,0,1,1.41,0,.77.77,0,0,1,.26.61.79.79,0,0,1-.26.61A1,1,0,0,1,15.81,99.81ZM15,106.35v-5.63h1.65v5.63Z" style="fill:#232f3e"/><path d="M21,105.71a1.72,1.72,0,0,1-2.66-.21,3.46,3.46,0,0,1-.52-2,3.68,3.68,0,0,1,.53-2.11,1.71,1.71,0,0,1,1.47-.77,1.79,1.79,0,0,1,.7.17,1.76,1.76,0,0,1,.63.45l.13-.48h1.35V106c0,1.86-.86,2.79-2.57,2.79a3.92,3.92,0,0,1-1.83-.44v-1a5.45,5.45,0,0,0,1.61.35,1.45,1.45,0,0,0,.7-.13.72.72,0,0,0,.35-.44,3.19,3.19,0,0,0,.11-1Zm-.66-.6a1.26,1.26,0,0,0,.66-.22V102a1.35,1.35,0,0,0-.74-.27.63.63,0,0,0-.6.42,3.23,3.23,0,0,0-.19,1.3,3,3,0,0,0,.21,1.28A.7.7,0,0,0,20.33,105.11Z" style="fill:#232f3e"/><path d="M24,106.35v-5.63h1.35l.18.73a2.61,2.61,0,0,1,.71-.59,1.56,1.56,0,0,1,.76-.19l.38,0V102a4.85,4.85,0,0,0-.64,0,2.43,2.43,0,0,0-1.09.26v4.11Z" style="fill:#232f3e"/><path d="M31.07,106.35l-.14-.51a1.56,1.56,0,0,1-.59.47,1.86,1.86,0,0,1-.79.18,1.57,1.57,0,0,1-1.18-.45,1.65,1.65,0,0,1-.43-1.22,1.69,1.69,0,0,1,.53-1.31A2,2,0,0,1,29.9,103a4,4,0,0,1,.93.13v-.51a1.33,1.33,0,0,0-.16-.78.77.77,0,0,0-.61-.2,5.9,5.9,0,0,0-1.77.35v-1a3,3,0,0,1,.91-.33,5.64,5.64,0,0,1,1.16-.12,2.19,2.19,0,0,1,1.52.44,1.82,1.82,0,0,1,.47,1.39v3.94Zm-1-.92a1.17,1.17,0,0,0,.79-.35V104a2.33,2.33,0,0,0-.63-.07.66.66,0,0,0-.53.2.81.81,0,0,0-.19.59.82.82,0,0,0,.15.52A.49.49,0,0,0,30,105.43Z" style="fill:#232f3e"/><path d="M36.78,106.2a3.47,3.47,0,0,1-1.23.22,1.47,1.47,0,0,1-1.72-1.7v-2.9H33.1v-.92l.78-.15.24-1.54h1.36v1.51h1.28v1.1H35.48v2.77a.79.79,0,0,0,.14.52.71.71,0,0,0,.54.16,2.85,2.85,0,0,0,.62-.08Z" style="fill:#232f3e"/><path d="M38.53,99.81a1,1,0,0,1-.71-.22.76.76,0,0,1-.27-.61.75.75,0,0,1,.27-.61,1.2,1.2,0,0,1,1.41,0,.77.77,0,0,1,.26.61.79.79,0,0,1-.26.61A1,1,0,0,1,38.53,99.81Zm-.83,6.54v-5.63h1.65v5.63Z" style="fill:#232f3e"/><path d="M43,106.49a2.29,2.29,0,0,1-1.84-.77,4,4,0,0,1,0-4.37,2.6,2.6,0,0,1,3.69,0,4,4,0,0,1,0,4.37A2.31,2.31,0,0,1,43,106.49Zm0-1.15a.67.67,0,0,0,.65-.43,4.79,4.79,0,0,0,0-2.74.69.69,0,0,0-1.29,0,4.79,4.79,0,0,0,0,2.74A.66.66,0,0,0,43,105.34Z" style="fill:#232f3e"/><path d="M49.79,106.35v-3.7a1.36,1.36,0,0,0-.14-.7.55.55,0,0,0-.5-.22,1.62,1.62,0,0,0-.82.26v4.36H46.68v-5.63H48l.14.51a3.32,3.32,0,0,1,1.84-.65,1.35,1.35,0,0,1,1.07.42,1.83,1.83,0,0,1,.36,1.22v4.13Z" style="fill:#232f3e"/><path d="M59.51,106.35v-3.3H57.18v3.3H55.49V98.72h1.69v3.15h2.33V98.72H61.2v7.63Z" style="fill:#232f3e"/><path d="M66,106.35l-.14-.51a3.13,3.13,0,0,1-1.78.65,1.22,1.22,0,0,1-1-.43,1.89,1.89,0,0,1-.35-1.24v-4.1h1.65v3.62a1.61,1.61,0,0,0,.13.77.47.47,0,0,0,.45.23,1.42,1.42,0,0,0,.76-.25v-4.37h1.65v5.63Z" style="fill:#232f3e"/><path d="M68.77,106.35V98.21h1.65v2.9a1.77,1.77,0,0,1,.61-.39,2,2,0,0,1,.7-.14,1.74,1.74,0,0,1,1.52.73,3.72,3.72,0,0,1,.52,2.15,3.82,3.82,0,0,1-.54,2.2,1.73,1.73,0,0,1-1.52.78,2,2,0,0,1-.77-.16,2,2,0,0,1-.67-.44l-.14.51Zm2.42-4.65a1.27,1.27,0,0,0-.77.25v3.11a1.4,1.4,0,0,0,.78.26.73.73,0,0,0,.71-.42,3.22,3.22,0,0,0,.21-1.37,3.34,3.34,0,0,0-.21-1.41A.74.74,0,0,0,71.19,101.7Z" style="fill:#232f3e"/></g><g id="ICONS_-_EDIT" data-name="ICONS - EDIT"><path d="M50.29,38.46,40,28.16,29.71,38.46,28.29,37l11-11a1,1,0,0,1,1.42,0l11,11Z" style="fill:#fff"/><path d="M48.38,43.24,40,34.86l-8.38,8.38-1.41-1.41,9.08-9.09a1,1,0,0,1,1.42,0l9.08,9.09Z" style="fill:#fff"/><path d="M46.47,48,40,41.56,33.53,48l-1.41-1.41,7.17-7.18a1,1,0,0,1,1.42,0l7.17,7.18Z" style="fill:#fff"/><rect x="23.46" y="22.51" width="8.99" height="2" transform="translate(-8.05 17.39) rotate(-30.42)" style="fill:#fff"/><rect x="20" y="31.03" width="2" height="9.61" style="fill:#fff"/><path d="M34.65,23.92A4.35,4.35,0,1,1,39,19.58,4.35,4.35,0,0,1,34.65,23.92Zm0-6.69A2.35,2.35,0,1,0,37,19.58,2.35,2.35,0,0,0,34.65,17.23Z" style="fill:#fff"/><path d="M21,32.05a4.35,4.35,0,1,1,4.35-4.34A4.35,4.35,0,0,1,21,32.05Zm0-6.69a2.35,2.35,0,1,0,2.35,2.35A2.35,2.35,0,0,0,21,25.36Z" style="fill:#fff"/><path d="M21,48.32A4.35,4.35,0,1,1,25.35,44,4.36,4.36,0,0,1,21,48.32Zm0-6.7A2.35,2.35,0,1,0,23.35,44,2.35,2.35,0,0,0,21,41.62Z" style="fill:#fff"/><rect x="51.04" y="19.01" width="2" height="8.99" transform="translate(5.43 56.49) rotate(-59.58)" style="fill:#fff"/><rect x="58" y="31.03" width="2" height="9.61" style="fill:#fff"/><path d="M45.35,23.92a4.35,4.35,0,1,1,4.35-4.34A4.35,4.35,0,0,1,45.35,23.92Zm0-6.69a2.35,2.35,0,1,0,2.35,2.35A2.35,2.35,0,0,0,45.35,17.23Z" style="fill:#fff"/><path d="M59,32.05a4.35,4.35,0,1,1,4.35-4.34A4.35,4.35,0,0,1,59,32.05Zm0-6.69a2.35,2.35,0,1,0,2.35,2.35A2.35,2.35,0,0,0,59,25.36Z" style="fill:#fff"/><path d="M59,48.32A4.35,4.35,0,1,1,63.35,44,4.36,4.36,0,0,1,59,48.32Zm0-6.7A2.35,2.35,0,1,0,61.35,44,2.35,2.35,0,0,0,59,41.62Z" style="fill:#fff"/><rect x="32.32" y="52.24" width="2" height="8.72" transform="translate(-32.34 55.05) rotate(-58.16)" style="fill:#fff"/><rect x="42.33" y="55.62" width="8.66" height="2" transform="translate(-22.84 33.12) rotate(-31.83)" style="fill:#fff"/><path d="M40,64.77a4.35,4.35,0,1,1,3.07-1.27A4.31,4.31,0,0,1,40,64.77Zm0-6.69a2.33,2.33,0,0,0-1.66.68,2.37,2.37,0,0,0-.69,1.66,2.34,2.34,0,0,0,.69,1.66,2.4,2.4,0,0,0,3.32,0,2.34,2.34,0,0,0,.69-1.66,2.37,2.37,0,0,0-.69-1.66h0A2.33,2.33,0,0,0,40,58.08Z" style="fill:#fff"/><path d="M53.36,57.23A4.36,4.36,0,1,1,56.43,56,4.34,4.34,0,0,1,53.36,57.23Zm0-6.7a2.3,2.3,0,0,0-1.66.69,2.34,2.34,0,0,0,0,3.32,2.41,2.41,0,0,0,3.32,0,2.36,2.36,0,0,0,0-3.32A2.31,2.31,0,0,0,53.36,50.53Z" style="fill:#fff"/><path d="M26.64,57.1a4.35,4.35,0,1,1,3.08-7.42,4.35,4.35,0,0,1-3.08,7.42Zm0-6.7a2.35,2.35,0,0,0-1.66,4,2.4,2.4,0,0,0,3.32,0,2.35,2.35,0,0,0-1.66-4Z" style="fill:#fff"/></g></svg>