<svg xmlns="http://www.w3.org/2000/svg" xmlns:xlink="http://www.w3.org/1999/xlink" width="80" height="130" viewBox="0 0 80 130"><defs><clipPath id="clip-path"><rect x="15" y="15" width="50" height="50" style="fill:none"/></clipPath></defs><title>architecture-product-card_Amazon_Kinesis_Video_Streams</title><g id="CARDS"><rect x="1" y="1" width="78" height="78" style="fill:#232f3e"/><path d="M0,0V80H0v50H80V80h0V0ZM1,1H79V79H1Z" style="fill:#fff"/></g><g id="TEXT_-_EDIT" data-name="TEXT - EDIT"><path d="M25.35,92.35l-.43-1.82h-2l-.42,1.82H20.72L23,84.72H24.9l2.31,7.63Zm-2.18-2.92h1.49l-.76-3.16Z" style="fill:#232f3e"/><path d="M34.06,92.35V88.64a1.32,1.32,0,0,0-.14-.69.5.5,0,0,0-.46-.22,1.56,1.56,0,0,0-.8.26.49.49,0,0,1,0,.12v4.24H31V88.64a1.33,1.33,0,0,0-.13-.69.51.51,0,0,0-.47-.22,1.55,1.55,0,0,0-.78.26v4.36H28V86.72h1.35l.13.51a3.29,3.29,0,0,1,1.81-.65,1.25,1.25,0,0,1,1.2.67,3.38,3.38,0,0,1,1.83-.67,1.3,1.3,0,0,1,1,.42,1.85,1.85,0,0,1,.36,1.22v4.13Z" style="fill:#232f3e"/><path d="M40,92.35l-.14-.51a1.56,1.56,0,0,1-.59.47,1.86,1.86,0,0,1-.79.18A1.57,1.57,0,0,1,37.31,92a1.65,1.65,0,0,1-.43-1.22,1.69,1.69,0,0,1,.53-1.31A2,2,0,0,1,38.84,89a4,4,0,0,1,.93.13v-.51a1.33,1.33,0,0,0-.16-.78.77.77,0,0,0-.61-.2,5.9,5.9,0,0,0-1.77.35V87a3,3,0,0,1,.91-.33,5.64,5.64,0,0,1,1.16-.12,2.19,2.19,0,0,1,1.52.44,1.82,1.82,0,0,1,.47,1.39v3.94Zm-1-.92a1.17,1.17,0,0,0,.79-.35V90a2.33,2.33,0,0,0-.63-.07.66.66,0,0,0-.53.2.81.81,0,0,0-.19.59.82.82,0,0,0,.15.52A.49.49,0,0,0,39,91.43Z" style="fill:#232f3e"/><path d="M42.28,92.35V91.28l2.49-3.4h-2.4V86.72h4.14v1.07L44,91.19h2.54v1.16Z" style="fill:#232f3e"/><path d="M49.79,92.49A2.29,2.29,0,0,1,48,91.72a4,4,0,0,1,0-4.37,2.6,2.6,0,0,1,3.69,0,4,4,0,0,1,0,4.37A2.31,2.31,0,0,1,49.79,92.49Zm0-1.15a.67.67,0,0,0,.65-.43,4.79,4.79,0,0,0,0-2.74.69.69,0,0,0-1.29,0,4.79,4.79,0,0,0,0,2.74A.66.66,0,0,0,49.79,91.34Z" style="fill:#232f3e"/><path d="M56.55,92.35v-3.7a1.36,1.36,0,0,0-.14-.7.55.55,0,0,0-.5-.22,1.62,1.62,0,0,0-.82.26v4.36H53.44V86.72h1.35l.14.51a3.32,3.32,0,0,1,1.84-.65,1.35,1.35,0,0,1,1.07.42,1.83,1.83,0,0,1,.36,1.22v4.13Z" style="fill:#232f3e"/><path d="M9,106.35V98.72h1.68v3.39L13,98.72h1.87l-2.64,3.57,2.85,4.06h-2l-2.36-3.69v3.69Z" style="fill:#232f3e"/><path d="M16.63,99.81a1,1,0,0,1-.71-.22.76.76,0,0,1-.27-.61.75.75,0,0,1,.27-.61,1.2,1.2,0,0,1,1.41,0,.77.77,0,0,1,.26.61.79.79,0,0,1-.26.61A1,1,0,0,1,16.63,99.81Zm-.83,6.54v-5.63h1.65v5.63Z" style="fill:#232f3e"/><path d="M22,106.35v-3.7a1.36,1.36,0,0,0-.14-.7.55.55,0,0,0-.5-.22,1.59,1.59,0,0,0-.82.26v4.36H18.9v-5.63h1.35l.14.51a3.32,3.32,0,0,1,1.84-.65,1.35,1.35,0,0,1,1.07.42,1.83,1.83,0,0,1,.36,1.22v4.13Z" style="fill:#232f3e"/><path d="M26.28,103.92a1.66,1.66,0,0,0,.36,1.12,1.45,1.45,0,0,0,1.06.33,3.26,3.26,0,0,0,.68-.09,5.54,5.54,0,0,0,.8-.21v1a2.77,2.77,0,0,1-.83.31,4.77,4.77,0,0,1-1,.11c-1.72,0-2.58-1-2.58-2.95a3.32,3.32,0,0,1,.64-2.2,2.22,2.22,0,0,1,1.82-.76c1.37,0,2.05.76,2.05,2.29a4.32,4.32,0,0,1-.12,1Zm.91-2.32c-.58,0-.88.46-.91,1.37h1.61v-.25a1.68,1.68,0,0,0-.17-.86A.59.59,0,0,0,27.19,101.6Z" style="fill:#232f3e"/><path d="M32.42,104.77c0-.25-.17-.46-.52-.62l-.72-.35a1.7,1.7,0,0,1-1.13-1.59A1.42,1.42,0,0,1,30.6,101a2.26,2.26,0,0,1,1.47-.45,3.57,3.57,0,0,1,1.53.35v1a5.13,5.13,0,0,0-.7-.19,3,3,0,0,0-.6-.07c-.51,0-.77.18-.77.54s.21.45.64.66l.72.34a1.83,1.83,0,0,1,.77.62,1.69,1.69,0,0,1,.24.93,1.56,1.56,0,0,1-.55,1.27,2.28,2.28,0,0,1-1.48.46,3.8,3.8,0,0,1-1.82-.44v-1a5.45,5.45,0,0,0,1.61.35.86.86,0,0,0,.57-.17A.56.56,0,0,0,32.42,104.77Z" style="fill:#232f3e"/><path d="M35.7,99.81a1,1,0,0,1-.71-.22.76.76,0,0,1-.27-.61.75.75,0,0,1,.27-.61,1.2,1.2,0,0,1,1.41,0,.77.77,0,0,1,.26.61.79.79,0,0,1-.26.61A1,1,0,0,1,35.7,99.81Zm-.83,6.54v-5.63h1.65v5.63Z" style="fill:#232f3e"/><path d="M40,104.77c0-.25-.18-.46-.52-.62l-.73-.35a1.7,1.7,0,0,1-1.13-1.59,1.43,1.43,0,0,1,.56-1.18,2.26,2.26,0,0,1,1.47-.45,3.57,3.57,0,0,1,1.53.35v1a5.56,5.56,0,0,0-.7-.19,3,3,0,0,0-.61-.07c-.51,0-.77.18-.77.54s.22.45.64.66l.73.34a1.9,1.9,0,0,1,.77.62,1.69,1.69,0,0,1,.24.93A1.57,1.57,0,0,1,40.9,106a2.28,2.28,0,0,1-1.48.46,3.83,3.83,0,0,1-1.82-.44v-1a5.44,5.44,0,0,0,1.62.35.85.85,0,0,0,.56-.17A.57.57,0,0,0,40,104.77Z" style="fill:#232f3e"/><path d="M46.62,106.35l-2.33-7.63h1.83l1.42,6.07L49,98.72h1.81l-2.34,7.63Z" style="fill:#232f3e"/><path d="M52.41,99.81a1,1,0,0,1-.71-.22.76.76,0,0,1-.27-.61.75.75,0,0,1,.27-.61,1.2,1.2,0,0,1,1.41,0,.77.77,0,0,1,.26.61.79.79,0,0,1-.26.61A1,1,0,0,1,52.41,99.81Zm-.83,6.54v-5.63h1.65v5.63Z" style="fill:#232f3e"/><path d="M57.94,106.35l-.13-.49a2.12,2.12,0,0,1-.64.43,1.87,1.87,0,0,1-2.23-.6,4.59,4.59,0,0,1,0-4.32,1.76,1.76,0,0,1,1.53-.79,2,2,0,0,1,.63.13,2.35,2.35,0,0,1,.61.33V98.21h1.65v8.14Zm-.93-1a1.34,1.34,0,0,0,.72-.22V102a1.48,1.48,0,0,0-.79-.26.7.7,0,0,0-.68.44,3.6,3.6,0,0,0-.2,1.39,2.92,2.92,0,0,0,.23,1.36A.75.75,0,0,0,57,105.32Z" style="fill:#232f3e"/><path d="M62,103.92a1.77,1.77,0,0,0,.36,1.12,1.45,1.45,0,0,0,1.06.33,3.11,3.11,0,0,0,.68-.09,6,6,0,0,0,.81-.21v1a3,3,0,0,1-.84.31,4.67,4.67,0,0,1-1,.11c-1.72,0-2.58-1-2.58-2.95a3.37,3.37,0,0,1,.63-2.2,2.23,2.23,0,0,1,1.83-.76c1.36,0,2,.76,2,2.29a4.32,4.32,0,0,1-.12,1Zm.92-2.32c-.58,0-.89.46-.92,1.37h1.62v-.25a1.68,1.68,0,0,0-.17-.86A.59.59,0,0,0,62.94,101.6Z" style="fill:#232f3e"/><path d="M68.4,106.49a2.31,2.31,0,0,1-1.85-.77,4,4,0,0,1,0-4.37,2.6,2.6,0,0,1,3.69,0,4,4,0,0,1,0,4.37A2.29,2.29,0,0,1,68.4,106.49Zm0-1.15a.66.66,0,0,0,.64-.43,4.79,4.79,0,0,0,0-2.74.69.69,0,0,0-1.29,0,4.79,4.79,0,0,0,0,2.74A.67.67,0,0,0,68.4,105.34Z" style="fill:#232f3e"/><path d="M22.73,117a3.6,3.6,0,0,1-1.28-1,2,2,0,0,1-.38-1.23,2.06,2.06,0,0,1,.33-1.17,2.2,2.2,0,0,1,.93-.77,3.11,3.11,0,0,1,1.34-.27,4.92,4.92,0,0,1,1.89.39v1.17a5.44,5.44,0,0,0-1.72-.33,1.29,1.29,0,0,0-.8.23.78.78,0,0,0-.29.64.86.86,0,0,0,.19.56,2.09,2.09,0,0,0,.72.48l.65.32a4.73,4.73,0,0,1,1,.62,1.76,1.76,0,0,1,.54.69,2.13,2.13,0,0,1,.18.92,2,2,0,0,1-.74,1.65,3.12,3.12,0,0,1-2,.61,5.52,5.52,0,0,1-1.14-.12,4.06,4.06,0,0,1-1-.32v-1.15a7.45,7.45,0,0,0,1,.25,5.33,5.33,0,0,0,1,.11A1.31,1.31,0,0,0,24,119a.84.84,0,0,0,.31-.71.81.81,0,0,0-.22-.58,2.4,2.4,0,0,0-.7-.47Z" style="fill:#232f3e"/><path d="M30.19,120.2a3.47,3.47,0,0,1-1.23.22,1.8,1.8,0,0,1-1.31-.4,1.77,1.77,0,0,1-.41-1.3v-2.9H26.5v-.92l.78-.15.24-1.54h1.37v1.51h1.27v1.1H28.89v2.77a.74.74,0,0,0,.14.52.69.69,0,0,0,.53.16,3,3,0,0,0,.63-.08Z" style="fill:#232f3e"/><path d="M31.07,120.35v-5.63h1.35l.18.73a2.61,2.61,0,0,1,.71-.59,1.56,1.56,0,0,1,.76-.19l.38,0V116a4.85,4.85,0,0,0-.64,0,2.43,2.43,0,0,0-1.09.26v4.11Z" style="fill:#232f3e"/><path d="M36.42,117.92a1.66,1.66,0,0,0,.36,1.12,1.43,1.43,0,0,0,1.06.33,3.26,3.26,0,0,0,.68-.09,5.9,5.9,0,0,0,.8-.21v1a2.88,2.88,0,0,1-.83.31,4.77,4.77,0,0,1-1,.11c-1.72,0-2.58-1-2.58-2.95a3.37,3.37,0,0,1,.63-2.2,2.24,2.24,0,0,1,1.83-.76c1.36,0,2,.76,2,2.29a4.32,4.32,0,0,1-.12,1Zm.91-2.32c-.58,0-.88.46-.91,1.37H38v-.25a1.68,1.68,0,0,0-.17-.86A.59.59,0,0,0,37.33,115.6Z" style="fill:#232f3e"/><path d="M43.46,120.35l-.14-.51a1.49,1.49,0,0,1-.59.47,1.85,1.85,0,0,1-.78.18,1.58,1.58,0,0,1-1.19-.45,1.91,1.91,0,0,1,.1-2.53,2,2,0,0,1,1.43-.47,4,4,0,0,1,.93.13v-.51a1.33,1.33,0,0,0-.16-.78.77.77,0,0,0-.61-.2,5.9,5.9,0,0,0-1.77.35v-1a3,3,0,0,1,.92-.33,5.47,5.47,0,0,1,1.15-.12,2.19,2.19,0,0,1,1.52.44,1.82,1.82,0,0,1,.47,1.39v3.94Zm-1-.92a1.17,1.17,0,0,0,.79-.35V118a2.3,2.3,0,0,0-.62-.07.67.67,0,0,0-.54.2.81.81,0,0,0-.19.59.82.82,0,0,0,.15.52A.49.49,0,0,0,42.43,119.43Z" style="fill:#232f3e"/><path d="M52.21,120.35v-3.71a1.32,1.32,0,0,0-.14-.69.5.5,0,0,0-.46-.22,1.56,1.56,0,0,0-.8.26.49.49,0,0,1,0,.12v4.24H49.17v-3.71A1.33,1.33,0,0,0,49,116a.51.51,0,0,0-.47-.22,1.53,1.53,0,0,0-.78.26v4.36H46.14v-5.63h1.35l.13.51a3.29,3.29,0,0,1,1.81-.65,1.25,1.25,0,0,1,1.2.67,3.38,3.38,0,0,1,1.83-.67,1.3,1.3,0,0,1,1,.42,1.85,1.85,0,0,1,.36,1.22v4.13Z" style="fill:#232f3e"/><path d="M57.26,118.77c0-.25-.18-.46-.52-.62L56,117.8a1.69,1.69,0,0,1-1.14-1.59,1.43,1.43,0,0,1,.56-1.18,2.26,2.26,0,0,1,1.47-.45,3.57,3.57,0,0,1,1.53.35v1a5.56,5.56,0,0,0-.7-.19,3,3,0,0,0-.6-.07c-.52,0-.77.18-.77.54s.21.45.63.66l.73.34a1.9,1.9,0,0,1,.77.62,1.69,1.69,0,0,1,.24.93,1.59,1.59,0,0,1-.55,1.27,2.31,2.31,0,0,1-1.49.46,3.85,3.85,0,0,1-1.82-.44v-1a5.5,5.5,0,0,0,1.62.35.81.81,0,0,0,.56-.17A.57.57,0,0,0,57.26,118.77Z" style="fill:#232f3e"/></g><g id="ICONS_-_EDIT" data-name="ICONS - EDIT"><path d="M61,65.06H41a4,4,0,0,1-4-4V47.83a4,4,0,0,1,4-3.95H61A4,4,0,0,1,65,47.83V61.1A4,4,0,0,1,61,65.06ZM41,45.88a2,2,0,0,0-2,1.95V61.1a2,2,0,0,0,2,2H61a2,2,0,0,0,2-2V47.83a2,2,0,0,0-2-1.95Z" style="fill:#fff"/><path d="M46,60.25a1.1,1.1,0,0,1-.55-.16,1,1,0,0,1-.45-.84V49.67a1,1,0,0,1,.45-.84,1,1,0,0,1,.95-.08l11,4.79a1,1,0,0,1,.6.92,1,1,0,0,1-.6.91l-11,4.8A1.1,1.1,0,0,1,46,60.25Zm1-9.06v6.53l7.5-3.26Z" style="fill:#fff"/><g style="clip-path:url(#clip-path)"><path d="M65,36.92H56.18C33.47,36.92,15,27.55,15,16a10.6,10.6,0,0,1,.13-1.69l2,.31A9.07,9.07,0,0,0,17,16c0,10.41,17.58,18.88,39.18,18.88H65Z" style="fill:#fff"/><path d="M65,41H52.76c-9.84,0-33.38-.92-39.57-9.41l1.62-1.18C18.73,35.79,32.91,39,52.76,39H65Z" style="fill:#fff"/><path d="M14.81,49.59l-1.62-1.18C19.38,39.92,42.92,39,52.76,39H65v2H52.76C32.91,41,18.73,44.21,14.81,49.59Z" style="fill:#fff"/><path d="M65,32.84H60.94C41.27,32.84,27,26,27,16.67c0,0,0-1.94,0-2.28l2,.23-1-.11,1,.1c0,.22,0,1.62,0,2.06,0,8.08,13.73,14.17,31.94,14.17H65Z" style="fill:#fff"/><path d="M15.13,65.65A10.51,10.51,0,0,1,15,64c0-7.38,7.37-14.06,19.71-17.86L35.29,48C24,51.49,17,57.6,17,64a8.83,8.83,0,0,0,.11,1.37Z" style="fill:#fff"/><path d="M27.05,65.62C27,65.26,27,63.35,27,63.33c0-4.08,2.59-7.73,7.5-10.56l1,1.74c-3,1.7-6.5,4.62-6.5,8.82,0,.43,0,1.83,0,2Z" style="fill:#fff"/></g></g></svg>