<svg xmlns="http://www.w3.org/2000/svg" width="80" height="130" viewBox="0 0 80 130"><title>architecture-product-card_AWS_Elemental_MediaStore</title><g id="CARDS"><rect x="1" y="1" width="78" height="78" style="fill:#232f3e"/><path d="M0,0V80H0v50H80V80h0V0ZM1,1H79V79H1Z" style="fill:#fff"/></g><g id="TEXT_-_AWS_Elemental_MediaStore" data-name="TEXT - AWS_Elemental_MediaStore"><path d="M33.69,92.35l-.44-1.82h-2l-.42,1.82H29.06l2.31-7.63h1.87l2.3,7.63Zm-2.18-2.92H33l-.76-3.16Z" style="fill:#232f3e"/><path d="M40.89,92.35,40,86.72l-.89,5.63H37.19l-1.78-7.63h1.7l1.06,6.06L39.08,85h1.84l.94,5.65,1-6h1.66l-1.78,7.63Z" style="fill:#232f3e"/><path d="M46.84,89a3.55,3.55,0,0,1-1.27-1,2,2,0,0,1-.39-1.23,2,2,0,0,1,.34-1.17,2.11,2.11,0,0,1,.92-.77,3.18,3.18,0,0,1,1.34-.27,4.85,4.85,0,0,1,1.89.39v1.17A5.44,5.44,0,0,0,48,85.79a1.24,1.24,0,0,0-.79.23.75.75,0,0,0-.29.64.86.86,0,0,0,.18.56,2.32,2.32,0,0,0,.72.48l.65.32a5.12,5.12,0,0,1,1,.62,2,2,0,0,1,.54.69,2.27,2.27,0,0,1,.17.91,2.05,2.05,0,0,1-.74,1.66,3.09,3.09,0,0,1-2,.61,5.35,5.35,0,0,1-1.13-.12,4,4,0,0,1-1-.32V90.92a7.85,7.85,0,0,0,1,.25,5.33,5.33,0,0,0,1,.11,1.34,1.34,0,0,0,.88-.25.86.86,0,0,0,.3-.71.84.84,0,0,0-.21-.58,2.47,2.47,0,0,0-.71-.47Z" style="fill:#232f3e"/><path d="M16.61,106.35V98.72h4.54V99.9H18.3v1.95h2.28V103H18.3v2.15h2.85v1.18Z" style="fill:#232f3e"/><path d="M24.67,106.25a2.69,2.69,0,0,1-1,.16,1.4,1.4,0,0,1-1.08-.37,1.54,1.54,0,0,1-.36-1.12V98.21h1.65v6.54a.77.77,0,0,0,.08.4.36.36,0,0,0,.32.12,2.26,2.26,0,0,0,.35,0Z" style="fill:#232f3e"/><path d="M26.78,103.91a1.67,1.67,0,0,0,.36,1.13,1.45,1.45,0,0,0,1.06.33,3.26,3.26,0,0,0,.68-.09,5.54,5.54,0,0,0,.8-.21v1a2.77,2.77,0,0,1-.83.31,4.77,4.77,0,0,1-1,.11c-1.72,0-2.58-1-2.58-2.95a3.32,3.32,0,0,1,.64-2.2,2.22,2.22,0,0,1,1.82-.76c1.37,0,2.05.76,2.05,2.29a4.18,4.18,0,0,1-.12,1Zm.91-2.31c-.58,0-.88.46-.91,1.37h1.61v-.25a1.66,1.66,0,0,0-.17-.86A.59.59,0,0,0,27.69,101.6Z" style="fill:#232f3e"/><path d="M37,106.35v-3.71a1.4,1.4,0,0,0-.13-.7.53.53,0,0,0-.47-.21,1.53,1.53,0,0,0-.79.26s0,.08,0,.12v4.24H34v-3.71a1.39,1.39,0,0,0-.14-.7.51.51,0,0,0-.46-.21,1.56,1.56,0,0,0-.79.26v4.36H30.92v-5.63h1.35l.13.51a3.34,3.34,0,0,1,1.81-.65,1.27,1.27,0,0,1,1.21.67,3.33,3.33,0,0,1,1.83-.67,1.28,1.28,0,0,1,1,.42,1.85,1.85,0,0,1,.36,1.22v4.13Z" style="fill:#232f3e"/><path d="M41.26,103.91a1.67,1.67,0,0,0,.36,1.13,1.45,1.45,0,0,0,1.06.33,3.18,3.18,0,0,0,.68-.09,5.54,5.54,0,0,0,.8-.21v1a2.77,2.77,0,0,1-.83.31,4.77,4.77,0,0,1-1,.11c-1.72,0-2.58-1-2.58-2.95a3.37,3.37,0,0,1,.64-2.2,2.22,2.22,0,0,1,1.82-.76c1.37,0,2.05.76,2.05,2.29a4.18,4.18,0,0,1-.12,1Zm.91-2.31c-.57,0-.88.46-.91,1.37h1.61v-.25a1.56,1.56,0,0,0-.17-.86A.58.58,0,0,0,42.17,101.6Z" style="fill:#232f3e"/><path d="M48.51,106.35v-3.7a1.43,1.43,0,0,0-.14-.71.56.56,0,0,0-.5-.21,1.59,1.59,0,0,0-.82.26v4.36H45.4v-5.63h1.35l.13.51a3.38,3.38,0,0,1,1.85-.65,1.33,1.33,0,0,1,1.06.42,1.78,1.78,0,0,1,.37,1.22v4.13Z" style="fill:#232f3e"/><path d="M54.6,106.2a3.55,3.55,0,0,1-1.23.22,1.83,1.83,0,0,1-1.32-.4,1.81,1.81,0,0,1-.41-1.3v-2.9h-.73v-.92l.78-.15.24-1.54h1.36v1.51h1.28v1.1H53.29v2.77a.73.73,0,0,0,.15.52.69.69,0,0,0,.53.16,3,3,0,0,0,.63-.08Z" style="fill:#232f3e"/><path d="M58.38,106.35l-.15-.51a1.42,1.42,0,0,1-.59.47,1.81,1.81,0,0,1-.78.18,1.56,1.56,0,0,1-1.18-.45,1.91,1.91,0,0,1,.1-2.53,2,2,0,0,1,1.43-.48,4.11,4.11,0,0,1,.93.14v-.51a1.32,1.32,0,0,0-.17-.78.74.74,0,0,0-.6-.2,5.9,5.9,0,0,0-1.78.35v-1a3.07,3.07,0,0,1,.92-.33,5.57,5.57,0,0,1,1.16-.12,2.21,2.21,0,0,1,1.52.44,1.82,1.82,0,0,1,.47,1.39v3.94Zm-1-.92a1.24,1.24,0,0,0,.8-.35V104a2.38,2.38,0,0,0-.63-.07.69.69,0,0,0-.54.2.85.85,0,0,0-.18.59.82.82,0,0,0,.15.52A.47.47,0,0,0,57.34,105.43Z" style="fill:#232f3e"/><path d="M63.45,106.25a2.69,2.69,0,0,1-1,.16,1.4,1.4,0,0,1-1.08-.37,1.54,1.54,0,0,1-.36-1.12V98.21H62.7v6.54a.77.77,0,0,0,.08.4.36.36,0,0,0,.32.12,2.14,2.14,0,0,0,.35,0Z" style="fill:#232f3e"/><path d="M19.22,120.35V115l-1.41,3.46H16.37L15,115v5.32H13.47v-7.63H15.4L17.12,117l1.72-4.27h1.88v7.63Z" style="fill:#232f3e"/><path d="M23.47,117.91a1.67,1.67,0,0,0,.36,1.13,1.45,1.45,0,0,0,1.06.33,3.18,3.18,0,0,0,.68-.09,5.54,5.54,0,0,0,.8-.21v1a2.77,2.77,0,0,1-.83.31,4.77,4.77,0,0,1-1,.11c-1.72,0-2.57-1-2.57-2.95a3.37,3.37,0,0,1,.63-2.2,2.22,2.22,0,0,1,1.82-.76c1.37,0,2.05.76,2.05,2.29a4.18,4.18,0,0,1-.12,1Zm.91-2.31c-.57,0-.88.46-.91,1.37h1.61v-.25a1.68,1.68,0,0,0-.16-.86A.61.61,0,0,0,24.38,115.6Z" style="fill:#232f3e"/><path d="M30.87,120.35l-.14-.49a2,2,0,0,1-.63.43,1.79,1.79,0,0,1-.72.15,1.75,1.75,0,0,1-1.51-.75,4.59,4.59,0,0,1,0-4.32,1.76,1.76,0,0,1,1.53-.79,2,2,0,0,1,.63.13,2.35,2.35,0,0,1,.61.33v-2.83h1.65v8.14Zm-.93-1a1.34,1.34,0,0,0,.72-.22V116a1.51,1.51,0,0,0-.79-.26.7.7,0,0,0-.68.44,3.6,3.6,0,0,0-.2,1.39,2.92,2.92,0,0,0,.23,1.36A.75.75,0,0,0,29.94,119.32Z" style="fill:#232f3e"/><path d="M34.6,113.81a1.06,1.06,0,0,1-.71-.22.75.75,0,0,1-.26-.61.77.77,0,0,1,.26-.62,1.24,1.24,0,0,1,1.41,0,.78.78,0,0,1,.27.62.76.76,0,0,1-.27.61A1,1,0,0,1,34.6,113.81Zm-.83,6.54v-5.63h1.65v5.63Z" style="fill:#232f3e"/><path d="M39.78,120.35l-.14-.51a1.56,1.56,0,0,1-.59.47,1.86,1.86,0,0,1-.79.18,1.57,1.57,0,0,1-1.18-.45,1.65,1.65,0,0,1-.43-1.22,1.69,1.69,0,0,1,.53-1.31,2,2,0,0,1,1.43-.48,4.11,4.11,0,0,1,.93.14v-.51a1.33,1.33,0,0,0-.16-.78.77.77,0,0,0-.61-.2A5.9,5.9,0,0,0,37,116v-1a3,3,0,0,1,.92-.33,5.47,5.47,0,0,1,1.15-.12,2.19,2.19,0,0,1,1.52.44,1.82,1.82,0,0,1,.47,1.39v3.94Zm-1-.92a1.22,1.22,0,0,0,.79-.35V118a2.3,2.3,0,0,0-.62-.07.67.67,0,0,0-.54.2.81.81,0,0,0-.19.59.82.82,0,0,0,.15.52A.49.49,0,0,0,38.75,119.43Z" style="fill:#232f3e"/><path d="M43.89,117a3.7,3.7,0,0,1-1.28-1,2,2,0,0,1-.38-1.23,2,2,0,0,1,.34-1.17,2.11,2.11,0,0,1,.92-.77,3.14,3.14,0,0,1,1.34-.27,4.88,4.88,0,0,1,1.89.39v1.17a5.44,5.44,0,0,0-1.72-.33,1.29,1.29,0,0,0-.8.23.77.77,0,0,0-.28.64.86.86,0,0,0,.18.56,2.2,2.2,0,0,0,.72.48l.65.32a4.73,4.73,0,0,1,1,.62,1.76,1.76,0,0,1,.54.69,2.11,2.11,0,0,1,.18.91,2.05,2.05,0,0,1-.74,1.66,3.12,3.12,0,0,1-2,.61,5.52,5.52,0,0,1-1.14-.12,4.06,4.06,0,0,1-.95-.32v-1.15a7.85,7.85,0,0,0,1,.25,5.33,5.33,0,0,0,1,.11,1.34,1.34,0,0,0,.88-.25.86.86,0,0,0,.3-.71.84.84,0,0,0-.21-.58,2.47,2.47,0,0,0-.71-.47Z" style="fill:#232f3e"/><path d="M51.35,120.2a3.47,3.47,0,0,1-1.23.22,1.8,1.8,0,0,1-1.31-.4,1.77,1.77,0,0,1-.41-1.3v-2.9h-.74v-.92l.79-.15.24-1.54h1.36v1.51h1.27v1.1H50.05v2.77a.79.79,0,0,0,.14.52.69.69,0,0,0,.53.16,2.94,2.94,0,0,0,.63-.08Z" style="fill:#232f3e"/><path d="M54.46,120.49a2.31,2.31,0,0,1-1.85-.77,4,4,0,0,1,0-4.37,2.6,2.6,0,0,1,3.69,0,4,4,0,0,1,0,4.37A2.29,2.29,0,0,1,54.46,120.49Zm0-1.15a.66.66,0,0,0,.64-.43,4.79,4.79,0,0,0,0-2.74.69.69,0,0,0-1.29,0,4.79,4.79,0,0,0,0,2.74A.67.67,0,0,0,54.46,119.34Z" style="fill:#232f3e"/><path d="M58.11,120.35v-5.63h1.35l.18.73a2.61,2.61,0,0,1,.71-.59,1.56,1.56,0,0,1,.76-.19l.38,0V116a4.85,4.85,0,0,0-.64,0,2.43,2.43,0,0,0-1.09.26v4.11Z" style="fill:#232f3e"/><path d="M63.46,117.91a1.67,1.67,0,0,0,.36,1.13,1.43,1.43,0,0,0,1.06.33,3.26,3.26,0,0,0,.68-.09,5.9,5.9,0,0,0,.8-.21v1a2.88,2.88,0,0,1-.83.31,4.77,4.77,0,0,1-1,.11c-1.72,0-2.58-1-2.58-2.95a3.37,3.37,0,0,1,.63-2.2,2.24,2.24,0,0,1,1.83-.76c1.36,0,2,.76,2,2.29a4.18,4.18,0,0,1-.12,1Zm.91-2.31c-.58,0-.88.46-.91,1.37h1.61v-.25a1.66,1.66,0,0,0-.17-.86A.59.59,0,0,0,64.37,115.6Z" style="fill:#232f3e"/></g><g id="ICONS_-_EDIT" data-name="ICONS - EDIT"><g id="MARK_-_AWS_Elemental_MediaStore" data-name="MARK - AWS_Elemental_MediaStore"><rect x="34.42" y="55.16" width="2" height="10.58" transform="translate(-34.64 60.9) rotate(-60)" style="fill:#fff"/><path d="M40,64.1a1,1,0,0,1-1-1V40.58L19.5,29.32a1,1,0,0,1,0-1.74L39.5,16a1,1,0,0,1,1,0l20,11.54a1,1,0,0,1,.5.87v23.1a1,1,0,0,1-.5.86L40.5,64A1,1,0,0,1,40,64.1ZM22,28.45,40.5,39.13A1,1,0,0,1,41,40V61.36L59,51V29l-19-11Z" style="fill:#fff"/><path d="M50,58.32a1,1,0,0,1-.5-.13l-10-5.78,1-1.73L49,55.59V34.8L29.5,23.54l1-1.73,20,11.55a1,1,0,0,1,.5.87V57.32a1,1,0,0,1-.5.87A1,1,0,0,1,50,58.32Z" style="fill:#fff"/><rect x="29" y="22.68" width="2" height="11.55" style="fill:#fff"/><rect x="49.26" y="30.41" width="11.39" height="2" transform="translate(-8.34 31.28) rotate(-29.63)" style="fill:#fff"/><rect x="19" y="28.45" width="2" height="10.55" style="fill:#fff"/><rect x="39" y="28.45" width="2" height="5.55" style="fill:#fff"/><rect x="46.81" y="41.98" width="2" height="5.05" transform="translate(-14.64 63.66) rotate(-60)" style="fill:#fff"/><rect x="39.23" y="24.56" width="11.55" height="2" transform="translate(-6.75 25.92) rotate(-29.99)" style="fill:#fff"/><rect x="49.23" y="41.89" width="11.55" height="2" transform="translate(-14.07 33.24) rotate(-29.99)" style="fill:#fff"/><path d="M25.5,55.72a1.06,1.06,0,0,1-.5-.13l-5.5-3.18a1,1,0,0,1-.5-.87V45.19a1,1,0,0,1,.5-.86L25,41.15a1,1,0,0,1,1,0l5.5,3.18a1,1,0,0,1,.5.86v6.35a1,1,0,0,1-.5.87L26,55.59A1.13,1.13,0,0,1,25.5,55.72ZM21,51l4.5,2.6L30,51v-5.2l-4.5-2.6L21,45.77Z" style="fill:#fff"/></g></g></svg>