<svg xmlns="http://www.w3.org/2000/svg" width="80" height="100" viewBox="0 0 80 100"><title>architecture-product-card_Amazon_EMR</title><g id="CARDS"><rect x="1" y="1" width="78" height="78" style="fill:#232f3e"/><path d="M0,0V80H0v20H80V80h0V0ZM1,1H79V79H1Z" style="fill:#fff"/></g><g id="TEXT_-_EDIT" data-name="TEXT - EDIT"><path d="M13.54,92.35l-.44-1.82h-2l-.42,1.82H8.91l2.32-7.63h1.86l2.3,7.63Zm-2.18-2.92h1.49l-.76-3.16Z" style="fill:#232f3e"/><path d="M22.25,92.35V88.64a1.32,1.32,0,0,0-.14-.69.5.5,0,0,0-.46-.22,1.56,1.56,0,0,0-.8.26.49.49,0,0,1,0,.12v4.24H19.21V88.64a1.23,1.23,0,0,0-.14-.69.49.49,0,0,0-.46-.22,1.53,1.53,0,0,0-.78.26v4.36H16.18V86.72h1.35l.13.51a3.29,3.29,0,0,1,1.81-.65,1.25,1.25,0,0,1,1.2.67,3.38,3.38,0,0,1,1.83-.67,1.3,1.3,0,0,1,1,.42,1.85,1.85,0,0,1,.36,1.22v4.13Z" style="fill:#232f3e"/><path d="M28.2,92.35l-.14-.51a1.52,1.52,0,0,1-.6.47,1.78,1.78,0,0,1-.78.18A1.56,1.56,0,0,1,25.5,92a1.91,1.91,0,0,1,.1-2.53A2,2,0,0,1,27,89a4,4,0,0,1,.93.13v-.51a1.42,1.42,0,0,0-.16-.78.78.78,0,0,0-.61-.2,5.9,5.9,0,0,0-1.77.35V87a2.9,2.9,0,0,1,.91-.33,5.64,5.64,0,0,1,1.16-.12A2.21,2.21,0,0,1,29,87a1.82,1.82,0,0,1,.47,1.39v3.94Zm-1-.92a1.19,1.19,0,0,0,.8-.35V90a2.38,2.38,0,0,0-.63-.07.66.66,0,0,0-.53.2.81.81,0,0,0-.19.59.82.82,0,0,0,.15.52A.47.47,0,0,0,27.16,91.43Z" style="fill:#232f3e"/><path d="M30.46,92.35V91.28l2.5-3.4h-2.4V86.72h4.13v1.07l-2.49,3.4h2.54v1.16Z" style="fill:#232f3e"/><path d="M38,92.49a2.29,2.29,0,0,1-1.84-.77,4,4,0,0,1,0-4.37,2.6,2.6,0,0,1,3.69,0,4,4,0,0,1,0,4.37A2.31,2.31,0,0,1,38,92.49Zm0-1.15a.67.67,0,0,0,.65-.43,4.79,4.79,0,0,0,0-2.74.67.67,0,0,0-.65-.44.66.66,0,0,0-.64.44,4.79,4.79,0,0,0,0,2.74A.66.66,0,0,0,38,91.34Z" style="fill:#232f3e"/><path d="M44.74,92.35v-3.7a1.36,1.36,0,0,0-.14-.7.56.56,0,0,0-.5-.22,1.59,1.59,0,0,0-.82.26v4.36H41.63V86.72H43l.13.51A3.38,3.38,0,0,1,45,86.58,1.33,1.33,0,0,1,46,87a1.78,1.78,0,0,1,.37,1.22v4.13Z" style="fill:#232f3e"/><path d="M50.44,92.35V84.72H55V85.9H52.13v1.95h2.28V89H52.13v2.15H55v1.18Z" style="fill:#232f3e"/><path d="M62,92.35V87l-1.41,3.46H59.11L57.72,87v5.32H56.21V84.72h1.93L59.86,89l1.72-4.27h1.88v7.63Z" style="fill:#232f3e"/><path d="M68.86,92.35,67.4,89.52h-.65v2.83H65.1V84.72h2.64a2.39,2.39,0,0,1,1.76.65,2.31,2.31,0,0,1,.66,1.75,2.57,2.57,0,0,1-.33,1.33,2,2,0,0,1-.92.84l1.68,3.06Zm-2.11-4h.78a.85.85,0,0,0,.72-.31,1.57,1.57,0,0,0,.25-.94,1.52,1.52,0,0,0-.25-.93.83.83,0,0,0-.72-.32h-.78Z" style="fill:#232f3e"/></g><g id="ICONS_-_EDIT" data-name="ICONS - EDIT"><path d="M38.07,37.73v-1l-.29-.93,17-5.25.59,1.92-17,5.24A1,1,0,0,1,38.07,37.73Z" style="fill:#fff"/><rect x="35.68" y="48.1" width="2" height="9.05" transform="matrix(0.81, -0.58, 0.58, 0.81, -23.84, 31.38)" style="fill:#fff"/><rect x="38.3" y="43.65" width="25.26" height="2" transform="translate(-12.38 68.71) rotate(-62.05)" style="fill:#fff"/><rect x="32.13" y="26.36" width="9.05" height="2" transform="translate(-7.01 41) rotate(-54.08)" style="fill:#fff"/><rect x="45.37" y="37.24" width="2" height="17.46" transform="translate(-11.43 76.33) rotate(-72.47)" style="fill:#fff"/><rect x="49.69" y="22.8" width="2" height="24.42" transform="translate(-10.47 27.6) rotate(-27.72)" style="fill:#fff"/><path d="M27.46,52.1A12.1,12.1,0,1,1,36,48.55h0A12,12,0,0,1,27.46,52.1Zm0-22.19a10.09,10.09,0,1,0,7.14,2.95A10.07,10.07,0,0,0,27.46,29.91Z" style="fill:#fff"/><rect x="26.46" y="35" width="2" height="10" style="fill:#fff"/><rect x="22.46" y="39" width="10" height="2" style="fill:#fff"/><path d="M59.13,35.11a5.49,5.49,0,0,1-3.89-1.61h0a5.5,5.5,0,1,1,3.89,1.61Zm-2.48-3a3.5,3.5,0,0,0,5-5,3.59,3.59,0,0,0-5,0,3.51,3.51,0,0,0,0,5Z" style="fill:#fff"/><path d="M59.13,54.89a5.5,5.5,0,0,1-3.89-1.61h0a5.5,5.5,0,1,1,3.89,1.61Zm0-9a3.5,3.5,0,0,0-2.48,6h0a3.59,3.59,0,0,0,5,0,3.5,3.5,0,0,0-2.47-6Z" style="fill:#fff"/><path d="M42.46,65a5.46,5.46,0,0,1-3.89-1.61h0A5.5,5.5,0,1,1,42.46,65Zm0-9A3.44,3.44,0,0,0,40,57,3.48,3.48,0,0,0,40,62h0a3.57,3.57,0,0,0,4.95,0,3.5,3.5,0,0,0-2.48-6Z" style="fill:#fff"/><path d="M42.46,26a5.46,5.46,0,0,1-3.89-1.61h0A5.5,5.5,0,1,1,42.46,26Zm0-9A3.44,3.44,0,0,0,40,18,3.48,3.48,0,0,0,40,23h0a3.57,3.57,0,0,0,4.95,0,3.5,3.5,0,0,0-2.48-6Z" style="fill:#fff"/></g></svg>