<svg xmlns="http://www.w3.org/2000/svg" width="80" height="115" viewBox="0 0 80 115"><title>architecture-product-card_AWS_Service_Catalog</title><g id="CARDS"><rect x="1" y="1" width="78" height="78" style="fill:#232f3e"/><path d="M0,0V80H0v35H80V80h0V0ZM1,1H79V79H1Z" style="fill:#fff"/></g><g id="TEXT_-_EDIT" data-name="TEXT - EDIT"><path d="M15.23,92.35l-.43-1.82h-2l-.42,1.82H10.6l2.32-7.63h1.86l2.31,7.63Zm-2.18-2.92h1.49l-.76-3.16Z" style="fill:#232f3e"/><path d="M22.44,92.35l-1-5.63-.89,5.63H18.74L17,84.72h1.7l1.06,6.06L20.63,85h1.83l.94,5.65,1-6h1.67L24.3,92.35Z" style="fill:#232f3e"/><path d="M28.39,89a3.6,3.6,0,0,1-1.28-1,2,2,0,0,1-.39-1.23,2.07,2.07,0,0,1,.34-1.17,2.17,2.17,0,0,1,.92-.77,3.19,3.19,0,0,1,1.35-.27,4.92,4.92,0,0,1,1.89.39v1.17a5.5,5.5,0,0,0-1.73-.33,1.26,1.26,0,0,0-.79.23.78.78,0,0,0-.29.64.81.81,0,0,0,.19.56,2.14,2.14,0,0,0,.71.48L30,88a5.12,5.12,0,0,1,1,.62,2,2,0,0,1,.54.69,2.13,2.13,0,0,1,.18.92,2,2,0,0,1-.75,1.65,3.09,3.09,0,0,1-2,.61,5.43,5.43,0,0,1-1.13-.12,3.76,3.76,0,0,1-1-.32V90.92a7.29,7.29,0,0,0,1,.25,5.53,5.53,0,0,0,1,.11,1.32,1.32,0,0,0,.88-.25.86.86,0,0,0,.3-.71.84.84,0,0,0-.21-.58,2.4,2.4,0,0,0-.7-.47Z" style="fill:#232f3e"/><path d="M36.78,89a3.55,3.55,0,0,1-1.27-1,2,2,0,0,1-.39-1.23,2,2,0,0,1,.34-1.17,2.11,2.11,0,0,1,.92-.77,3.18,3.18,0,0,1,1.34-.27,4.85,4.85,0,0,1,1.89.39v1.17a5.44,5.44,0,0,0-1.72-.33,1.26,1.26,0,0,0-.79.23.75.75,0,0,0-.29.64.86.86,0,0,0,.18.56,2.32,2.32,0,0,0,.72.48l.65.32a5.12,5.12,0,0,1,1,.62,2,2,0,0,1,.54.69,2.29,2.29,0,0,1,.17.92,2,2,0,0,1-.74,1.65,3.09,3.09,0,0,1-2,.61,5.35,5.35,0,0,1-1.13-.12,3.76,3.76,0,0,1-.95-.32V90.92a7.29,7.29,0,0,0,1,.25,5.33,5.33,0,0,0,1,.11,1.32,1.32,0,0,0,.88-.25.86.86,0,0,0,.3-.71.84.84,0,0,0-.21-.58,2.47,2.47,0,0,0-.71-.47Z" style="fill:#232f3e"/><path d="M42.42,89.92A1.77,1.77,0,0,0,42.78,91a1.45,1.45,0,0,0,1.06.33,3.11,3.11,0,0,0,.68-.09,6,6,0,0,0,.81-.21v1a3,3,0,0,1-.84.31,4.67,4.67,0,0,1-1,.11c-1.72,0-2.58-1-2.58-2.95a3.37,3.37,0,0,1,.63-2.2,2.23,2.23,0,0,1,1.83-.76c1.36,0,2,.76,2,2.29a4.32,4.32,0,0,1-.12,1Zm.92-2.32c-.58,0-.89.46-.92,1.37H44v-.25a1.68,1.68,0,0,0-.17-.86A.59.59,0,0,0,43.34,87.6Z" style="fill:#232f3e"/><path d="M46.57,92.35V86.72h1.35l.18.73a2.61,2.61,0,0,1,.71-.59,1.56,1.56,0,0,1,.76-.19l.38,0V88a4.85,4.85,0,0,0-.64,0,2.43,2.43,0,0,0-1.09.26v4.11Z" style="fill:#232f3e"/><path d="M52.37,92.35l-1.85-5.63h1.74l.9,4,.91-4h1.7l-1.84,5.63Z" style="fill:#232f3e"/><path d="M57.4,85.81a1,1,0,0,1-.71-.22.76.76,0,0,1-.27-.61.75.75,0,0,1,.27-.61,1.2,1.2,0,0,1,1.41,0,.77.77,0,0,1,.26.61.79.79,0,0,1-.26.61A1,1,0,0,1,57.4,85.81Zm-.84,6.54V86.72h1.66v5.63Z" style="fill:#232f3e"/><path d="M63.31,92.09a2,2,0,0,1-.64.26,3.44,3.44,0,0,1-.8.09A2.29,2.29,0,0,1,60,91.71a4,4,0,0,1,0-4.32,2.38,2.38,0,0,1,1.88-.76,2.93,2.93,0,0,1,1.35.33v1a3.09,3.09,0,0,0-1-.19,1.05,1.05,0,0,0-.93.4,2.29,2.29,0,0,0-.28,1.29v.16a2.32,2.32,0,0,0,.27,1.28,1,1,0,0,0,.91.4,3.22,3.22,0,0,0,1.08-.21Z" style="fill:#232f3e"/><path d="M65.58,89.92A1.66,1.66,0,0,0,65.94,91a1.43,1.43,0,0,0,1.06.33,3.26,3.26,0,0,0,.68-.09,5.54,5.54,0,0,0,.8-.21v1a2.77,2.77,0,0,1-.83.31,4.77,4.77,0,0,1-1,.11c-1.72,0-2.58-1-2.58-2.95a3.32,3.32,0,0,1,.64-2.2,2.22,2.22,0,0,1,1.82-.76c1.37,0,2,.76,2,2.29a4.32,4.32,0,0,1-.12,1Zm.91-2.32c-.58,0-.88.46-.91,1.37h1.61v-.25a1.68,1.68,0,0,0-.17-.86A.59.59,0,0,0,66.49,87.6Z" style="fill:#232f3e"/><path d="M27.41,106.13a4.59,4.59,0,0,1-1.78.34q-3.37,0-3.38-3.9a4.46,4.46,0,0,1,.88-2.95,3.16,3.16,0,0,1,2.53-1,4.64,4.64,0,0,1,1.65.3v1.21a5.61,5.61,0,0,0-1.44-.23,1.61,1.61,0,0,0-1.4.61,3.29,3.29,0,0,0-.45,1.93v.25a3.26,3.26,0,0,0,.44,1.9,1.56,1.56,0,0,0,1.37.61,7.12,7.12,0,0,0,1.58-.26Z" style="fill:#232f3e"/><path d="M31.31,106.35l-.14-.51a1.49,1.49,0,0,1-.59.47,1.85,1.85,0,0,1-.78.18,1.54,1.54,0,0,1-1.18-.45,1.66,1.66,0,0,1-.44-1.22,1.69,1.69,0,0,1,.53-1.31,2,2,0,0,1,1.44-.47,4,4,0,0,1,.92.13v-.51a1.33,1.33,0,0,0-.16-.78.77.77,0,0,0-.61-.2,5.9,5.9,0,0,0-1.77.35v-1a3,3,0,0,1,.92-.33,5.47,5.47,0,0,1,1.15-.12,2.19,2.19,0,0,1,1.52.44,1.82,1.82,0,0,1,.47,1.39v3.94Zm-1-.92a1.17,1.17,0,0,0,.79-.35V104a2.25,2.25,0,0,0-.62-.07.67.67,0,0,0-.54.2.85.85,0,0,0-.19.59.82.82,0,0,0,.15.52A.5.5,0,0,0,30.28,105.43Z" style="fill:#232f3e"/><path d="M37,106.2a3.46,3.46,0,0,1-1.22.22,1.83,1.83,0,0,1-1.32-.4,1.81,1.81,0,0,1-.41-1.3v-2.9h-.73v-.92l.78-.15.24-1.54h1.36v1.51H37v1.1H35.72v2.77a.73.73,0,0,0,.15.52.67.67,0,0,0,.53.16,2.85,2.85,0,0,0,.62-.08Z" style="fill:#232f3e"/><path d="M40.81,106.35l-.15-.51a1.42,1.42,0,0,1-.59.47,1.85,1.85,0,0,1-.78.18,1.56,1.56,0,0,1-1.18-.45,1.66,1.66,0,0,1-.44-1.22,1.69,1.69,0,0,1,.53-1.31,2.08,2.08,0,0,1,1.44-.47,4,4,0,0,1,.93.13v-.51a1.32,1.32,0,0,0-.17-.78.74.74,0,0,0-.6-.2A5.9,5.9,0,0,0,38,102v-1a3.07,3.07,0,0,1,.92-.33,5.57,5.57,0,0,1,1.16-.12,2.16,2.16,0,0,1,1.51.44,1.78,1.78,0,0,1,.47,1.39v3.94Zm-1-.92a1.19,1.19,0,0,0,.8-.35V104a2.38,2.38,0,0,0-.63-.07.69.69,0,0,0-.54.2.85.85,0,0,0-.18.59.82.82,0,0,0,.15.52A.47.47,0,0,0,39.77,105.43Z" style="fill:#232f3e"/><path d="M45.88,106.25a2.69,2.69,0,0,1-1,.16,1.4,1.4,0,0,1-1.08-.37,1.54,1.54,0,0,1-.36-1.12V98.21h1.65v6.54a.75.75,0,0,0,.08.4.36.36,0,0,0,.32.12,2.26,2.26,0,0,0,.35,0Z" style="fill:#232f3e"/><path d="M49,106.49a2.27,2.27,0,0,1-1.84-.77,4,4,0,0,1,0-4.37,2.58,2.58,0,0,1,3.68,0,4,4,0,0,1,0,4.37A2.29,2.29,0,0,1,49,106.49Zm0-1.15a.65.65,0,0,0,.64-.43,4.79,4.79,0,0,0,0-2.74.65.65,0,0,0-.64-.44.67.67,0,0,0-.65.44,5,5,0,0,0,0,2.74A.67.67,0,0,0,49,105.34Z" style="fill:#232f3e"/><path d="M55.55,105.71a1.65,1.65,0,0,1-1.21.53,1.68,1.68,0,0,1-1.44-.74,3.46,3.46,0,0,1-.53-2,3.6,3.6,0,0,1,.54-2.11,1.69,1.69,0,0,1,1.46-.77,1.83,1.83,0,0,1,.71.17,2,2,0,0,1,.63.45l.12-.48h1.35V106c0,1.86-.86,2.79-2.57,2.79a3.92,3.92,0,0,1-1.83-.44v-1a5.5,5.5,0,0,0,1.62.35,1.48,1.48,0,0,0,.7-.13.71.71,0,0,0,.34-.44,2.89,2.89,0,0,0,.11-1Zm-.66-.6a1.26,1.26,0,0,0,.66-.22V102a1.32,1.32,0,0,0-.73-.27.63.63,0,0,0-.6.42,3.2,3.2,0,0,0-.2,1.3,3,3,0,0,0,.21,1.28A.7.7,0,0,0,54.89,105.11Z" style="fill:#232f3e"/></g><g id="ICONS_-_EDIT" data-name="ICONS - EDIT"><path d="M40,40.17a1,1,0,0,1-.5-.14l-7-4a1,1,0,0,1-.5-.87V27a1,1,0,0,1,.5-.87l7-4a1,1,0,0,1,1,0l7,4A1,1,0,0,1,48,27v8.08a1,1,0,0,1-.5.87l-7,4A1,1,0,0,1,40,40.17Zm-6-5.62L40,38l6-3.46V27.62l-6-3.47-6,3.47Z" style="fill:#fff"/><path d="M40,32.08a1,1,0,0,1-.5-.13l-7-4,1-1.74L40,29.93l6.5-3.76,1,1.74-7,4A1,1,0,0,1,40,32.08Z" style="fill:#fff"/><rect x="39" y="31.08" width="2" height="8.08" style="fill:#fff"/><path d="M47,52.29a1,1,0,0,1-.5-.13l-7-4a1,1,0,0,1-.5-.87V39.17a1,1,0,0,1,.5-.87l7-4a1,1,0,0,1,1,0l7,4a1,1,0,0,1,.5.87v8.08a1,1,0,0,1-.5.87l-7,4A1,1,0,0,1,47,52.29Zm-6-5.62,6,3.47,6-3.47V39.74l-6-3.46-6,3.46Z" style="fill:#fff"/><path d="M47,44.21a1,1,0,0,1-.5-.14l-7-4,1-1.73L47,42.05l6.5-3.75,1,1.73-7,4A1,1,0,0,1,47,44.21Z" style="fill:#fff"/><rect x="46" y="43.21" width="2" height="8.08" style="fill:#fff"/><path d="M33,52.29a1,1,0,0,1-.5-.13l-7-4a1,1,0,0,1-.5-.87V39.17a1,1,0,0,1,.5-.87l7-4a1,1,0,0,1,1,0l7,4a1,1,0,0,1,.5.87v8.08a1,1,0,0,1-.5.87l-7,4A1,1,0,0,1,33,52.29Zm-6-5.62,6,3.47,6-3.47V39.74l-6-3.46-6,3.46Z" style="fill:#fff"/><path d="M33,44.21a1,1,0,0,1-.5-.14l-7-4,1-1.73L33,42.05l6.5-3.75,1,1.73-7,4A1,1,0,0,1,33,44.21Z" style="fill:#fff"/><rect x="32" y="43.21" width="2" height="8.08" style="fill:#fff"/><path d="M32.67,60.44A23.31,23.31,0,0,1,16.88,35a22.61,22.61,0,0,1,.66-3.09l1.92.56a19.87,19.87,0,0,0-.6,2.82,20.5,20.5,0,0,0-.21,3A21.23,21.23,0,0,0,33.29,58.54Z" style="fill:#fff"/><path d="M44.11,61.23l-.34-2a18.46,18.46,0,0,0,2.82-.73A21.23,21.23,0,0,0,61.25,38.3,19.85,19.85,0,0,0,61,35.36l2-.3a22.57,22.57,0,0,1,.23,3.24,23.24,23.24,0,0,1-16,22.14A20.32,20.32,0,0,1,44.11,61.23Z" style="fill:#fff"/><path d="M57.11,25.69a19.63,19.63,0,0,0-1.85-2.19,21.28,21.28,0,0,0-30.57-.05l-1.44-1.4a23.28,23.28,0,0,1,33.44.06,21.68,21.68,0,0,1,2,2.4Z" style="fill:#fff"/><path d="M20,33.51a4.74,4.74,0,0,1-1.88-.37,5,5,0,1,1,1.88.37Zm0-8a3,3,0,0,0-1.12,5.78,2.8,2.8,0,0,0,1.12.22,3,3,0,0,0,3-3,3,3,0,0,0-1.49-2.58A2.89,2.89,0,0,0,20,25.51Z" style="fill:#fff"/><path d="M60,33.51a5,5,0,0,1-5-5,5,5,0,0,1,5-5,5,5,0,0,1,1.76,9.68A5,5,0,0,1,60,33.51Zm0-8a2.91,2.91,0,0,0-1.55.44A3,3,0,0,0,57,28.51a3,3,0,0,0,3,3,2.84,2.84,0,0,0,1-.19,3,3,0,0,0-1-5.81Z" style="fill:#fff"/><path d="M40,65a5,5,0,0,1-5-4.69A2.63,2.63,0,0,1,35,60a5,5,0,0,1,10,0,2.42,2.42,0,0,1,0,.38A5,5,0,0,1,40,65Zm0-8a3,3,0,0,0-3,3v.13a3,3,0,0,0,6,.06A1.77,1.77,0,0,0,43,60,3,3,0,0,0,40,57Z" style="fill:#fff"/><path d="M20,33.51a4.74,4.74,0,0,1-1.88-.37,5,5,0,1,1,1.88.37Zm0-8a3,3,0,0,0-1.12,5.78,2.8,2.8,0,0,0,1.12.22,3,3,0,0,0,3-3,3,3,0,0,0-1.49-2.58A2.89,2.89,0,0,0,20,25.51Z" style="fill:#fff"/><path d="M60,33.51a5,5,0,0,1-5-5,5,5,0,0,1,5-5,5,5,0,0,1,1.76,9.68A5,5,0,0,1,60,33.51Zm0-8a2.91,2.91,0,0,0-1.55.44A3,3,0,0,0,57,28.51a3,3,0,0,0,3,3,2.84,2.84,0,0,0,1-.19,3,3,0,0,0-1-5.81Z" style="fill:#fff"/><path d="M40,65a5,5,0,0,1-5-4.69A2.63,2.63,0,0,1,35,60a5,5,0,0,1,10,0,2.42,2.42,0,0,1,0,.38A5,5,0,0,1,40,65Zm0-8a3,3,0,0,0-3,3v.13a3,3,0,0,0,6,.06A1.77,1.77,0,0,0,43,60,3,3,0,0,0,40,57Z" style="fill:#fff"/></g></svg>