<svg xmlns="http://www.w3.org/2000/svg" width="80" height="115" viewBox="0 0 80 115"><title>Artboard 73</title><g id="CARDS"><rect x="1" y="1" width="78" height="78" style="fill:#232f3e"/><path d="M0,0V80H0v35H80V80h0V0ZM1,1H79V79H1Z" style="fill:#fff"/></g><g id="TEXT_-_EDIT" data-name="TEXT - EDIT"><path d="M25.35,92.35l-.43-1.82h-2l-.42,1.82H20.72L23,84.72H24.9l2.31,7.63Zm-2.18-2.92h1.49l-.76-3.16Z" style="fill:#232f3e"/><path d="M34.06,92.35V88.64a1.32,1.32,0,0,0-.14-.69.49.49,0,0,0-.46-.22,1.59,1.59,0,0,0-.8.26.5.5,0,0,1,0,.12v4.24H31V88.64a1.33,1.33,0,0,0-.13-.69.51.51,0,0,0-.47-.22,1.55,1.55,0,0,0-.78.26v4.36H28V86.72h1.35l.13.51a3.31,3.31,0,0,1,1.81-.65,1.25,1.25,0,0,1,1.2.67,3.38,3.38,0,0,1,1.83-.67,1.3,1.3,0,0,1,1,.42,1.85,1.85,0,0,1,.36,1.22v4.13Z" style="fill:#232f3e"/><path d="M40,92.35l-.14-.51a1.56,1.56,0,0,1-.59.47,1.86,1.86,0,0,1-.79.18A1.57,1.57,0,0,1,37.31,92a1.65,1.65,0,0,1-.43-1.22,1.69,1.69,0,0,1,.53-1.31A2,2,0,0,1,38.84,89a4,4,0,0,1,.93.13v-.51a1.33,1.33,0,0,0-.16-.78.77.77,0,0,0-.61-.2,5.9,5.9,0,0,0-1.77.35V87a3,3,0,0,1,.92-.33,5.47,5.47,0,0,1,1.15-.12,2.19,2.19,0,0,1,1.52.44,1.82,1.82,0,0,1,.47,1.39v3.94Zm-1-.92a1.17,1.17,0,0,0,.79-.35V90a2.3,2.3,0,0,0-.62-.07.67.67,0,0,0-.54.2.81.81,0,0,0-.19.59.82.82,0,0,0,.15.52A.49.49,0,0,0,39,91.43Z" style="fill:#232f3e"/><path d="M42.28,92.35V91.28l2.49-3.4h-2.4V86.72h4.14v1.07L44,91.19h2.54v1.16Z" style="fill:#232f3e"/><path d="M49.79,92.49A2.3,2.3,0,0,1,48,91.72a4,4,0,0,1,0-4.37,2.6,2.6,0,0,1,3.69,0,4,4,0,0,1,0,4.37A2.31,2.31,0,0,1,49.79,92.49Zm0-1.15a.67.67,0,0,0,.65-.43,4.79,4.79,0,0,0,0-2.74.69.69,0,0,0-1.29,0,4.79,4.79,0,0,0,0,2.74A.66.66,0,0,0,49.79,91.34Z" style="fill:#232f3e"/><path d="M56.55,92.35v-3.7a1.36,1.36,0,0,0-.14-.7.55.55,0,0,0-.5-.22,1.56,1.56,0,0,0-.81.26v4.36H53.44V86.72h1.35l.14.51a3.32,3.32,0,0,1,1.84-.65,1.35,1.35,0,0,1,1.07.42,1.83,1.83,0,0,1,.36,1.22v4.13Z" style="fill:#232f3e"/><path d="M19.18,106.13a4.64,4.64,0,0,1-1.79.34q-3.37,0-3.37-3.9a4.4,4.4,0,0,1,.88-2.95,3.16,3.16,0,0,1,2.53-1,4.72,4.72,0,0,1,1.65.3v1.21a5.68,5.68,0,0,0-1.45-.23,1.59,1.59,0,0,0-1.39.61,3.29,3.29,0,0,0-.45,1.93v.25a3.35,3.35,0,0,0,.43,1.9,1.57,1.57,0,0,0,1.38.61,7.21,7.21,0,0,0,1.58-.26Z" style="fill:#232f3e"/><path d="M22.57,106.25a2.69,2.69,0,0,1-1,.16,1.43,1.43,0,0,1-1.08-.37,1.54,1.54,0,0,1-.35-1.12V98.21h1.65v6.54a.77.77,0,0,0,.07.4.37.37,0,0,0,.32.12,2.14,2.14,0,0,0,.35,0Z" style="fill:#232f3e"/><path d="M25.69,106.49a2.29,2.29,0,0,1-1.84-.77,4,4,0,0,1,0-4.37,2.6,2.6,0,0,1,3.69,0,4,4,0,0,1,0,4.37A2.31,2.31,0,0,1,25.69,106.49Zm0-1.15a.67.67,0,0,0,.65-.43,4.79,4.79,0,0,0,0-2.74.69.69,0,0,0-1.29,0,4.79,4.79,0,0,0,0,2.74A.66.66,0,0,0,25.69,105.34Z" style="fill:#232f3e"/><path d="M32.61,106.35l-.13-.51a3.18,3.18,0,0,1-1.79.65,1.22,1.22,0,0,1-1-.43,2,2,0,0,1-.35-1.24v-4.1H31v3.62a1.61,1.61,0,0,0,.13.77.47.47,0,0,0,.45.23,1.42,1.42,0,0,0,.76-.25v-4.37H34v5.63Z" style="fill:#232f3e"/><path d="M38.63,106.35l-.13-.49a2.08,2.08,0,0,1-.63.43,1.86,1.86,0,0,1-.72.15,1.75,1.75,0,0,1-1.51-.75,3.65,3.65,0,0,1-.54-2.13,3.73,3.73,0,0,1,.56-2.19,1.76,1.76,0,0,1,1.53-.79,2.08,2.08,0,0,1,.63.13,2.35,2.35,0,0,1,.61.33V98.21h1.65v8.14Zm-.92-1a1.34,1.34,0,0,0,.72-.22V102a1.54,1.54,0,0,0-.8-.26.7.7,0,0,0-.67.44,3.39,3.39,0,0,0-.21,1.39,3.05,3.05,0,0,0,.23,1.36A.77.77,0,0,0,37.71,105.32Z" style="fill:#232f3e"/><path d="M41.61,106.35V98.72H46V99.9H43.3V102h2.08v1.17H43.3v3.22Z" style="fill:#232f3e"/><path d="M46.75,106.35v-5.63H48.1l.18.73a2.5,2.5,0,0,1,.72-.59,1.55,1.55,0,0,1,.75-.19,2.56,2.56,0,0,1,.39,0V102a5,5,0,0,0-.64,0,2.47,2.47,0,0,0-1.1.26v4.11Z" style="fill:#232f3e"/><path d="M53.11,106.49a2.29,2.29,0,0,1-1.84-.77,4,4,0,0,1,0-4.37,2.6,2.6,0,0,1,3.69,0,4,4,0,0,1,0,4.37A2.31,2.31,0,0,1,53.11,106.49Zm0-1.15a.67.67,0,0,0,.65-.43,4.79,4.79,0,0,0,0-2.74.67.67,0,0,0-.65-.44.66.66,0,0,0-.64.44,4.79,4.79,0,0,0,0,2.74A.66.66,0,0,0,53.11,105.34Z" style="fill:#232f3e"/><path d="M59.87,106.35v-3.7a1.36,1.36,0,0,0-.14-.7.55.55,0,0,0-.5-.22,1.59,1.59,0,0,0-.82.26v4.36H56.76v-5.63h1.35l.13.51a3.38,3.38,0,0,1,1.85-.65,1.33,1.33,0,0,1,1.06.42,1.78,1.78,0,0,1,.37,1.22v4.13Z" style="fill:#232f3e"/><path d="M66,106.2a3.55,3.55,0,0,1-1.23.22,1.83,1.83,0,0,1-1.32-.4,1.81,1.81,0,0,1-.41-1.3v-2.9h-.73v-.92l.78-.15.24-1.54h1.36v1.51h1.28v1.1H64.65v2.77a.73.73,0,0,0,.15.52.69.69,0,0,0,.53.16,3,3,0,0,0,.63-.08Z" style="fill:#232f3e"/></g><g id="ICONS_-_EDIT" data-name="ICONS - EDIT"><g id="cloudfront"><path d="M48.64,63.17l-1.78-.92a29.75,29.75,0,0,0,2.27-5.66l1.92.56A31.93,31.93,0,0,1,48.64,63.17Zm1.85-18.31a31.87,31.87,0,0,0-5.27-15.68l1.67-1.09a33.81,33.81,0,0,1,5.6,16.65ZM37.31,20.73a30.08,30.08,0,0,0-4.62-2.84l.91-1.78a31.94,31.94,0,0,1,4.92,3Z" style="fill:#fff"/><path d="M45.46,47.4a29.8,29.8,0,0,0-11.16-7L35,38.5A31.83,31.83,0,0,1,46.85,46Z" style="fill:#fff"/><path d="M53.74,59.34c-.37-1-.79-1.92-1.25-2.85l1.79-.89a32.71,32.71,0,0,1,1.33,3Z" style="fill:#fff"/><path d="M48.07,63.65l-.64-1.89a22.4,22.4,0,0,0,6.63-3.57l1.23,1.58A24.36,24.36,0,0,1,48.07,63.65Z" style="fill:#fff"/><path d="M16.28,39.54l-.46-1.94a31.25,31.25,0,0,1,6.77-.89l.05,2A29.48,29.48,0,0,0,16.28,39.54Z" style="fill:#fff"/><path d="M32.68,33.14,31,32.05a28.67,28.67,0,0,1,5.37-6.4l1.32,1.51A26.64,26.64,0,0,0,32.68,33.14Z" style="fill:#fff"/><path d="M47.55,21.28l-.68-1.88a29.77,29.77,0,0,1,4.67-1.32l.37,2A26.9,26.9,0,0,0,47.55,21.28Z" style="fill:#fff"/><path d="M27.75,61.54a31.53,31.53,0,0,1-2.57-12,21.8,21.8,0,0,1,.62-4.72c.07-.35.15-.71.22-1.08l2,.39c-.07.38-.15.74-.22,1.1a20,20,0,0,0-.58,4.31A29.56,29.56,0,0,0,29.6,60.78Z" style="fill:#fff"/><path d="M40,65A25,25,0,0,1,15,40c0-.51,0-1,.05-1.51A25,25,0,0,1,32.86,16,25,25,0,0,1,52.22,18.2a25,25,0,0,1,3.07,41.58A25.2,25.2,0,0,1,40,65Zm0-48a22.56,22.56,0,0,0-6.57,1A23,23,0,0,0,17.05,38.63c0,.47-.05.92-.05,1.37A23,23,0,0,0,40,63a22.61,22.61,0,0,0,7.42-1.24,22.32,22.32,0,0,0,6.64-3.57A23,23,0,0,0,40,17Z" style="fill:#fff"/><path d="M42.43,28.43A4.43,4.43,0,1,1,46.86,24,4.43,4.43,0,0,1,42.43,28.43Zm0-6.85A2.43,2.43,0,1,0,44.86,24,2.43,2.43,0,0,0,42.43,21.58Z" style="fill:#fff"/><path d="M28.79,42.38A4.43,4.43,0,1,1,33.22,38,4.44,4.44,0,0,1,28.79,42.38Zm0-6.86A2.43,2.43,0,1,0,31.22,38,2.43,2.43,0,0,0,28.79,35.52Z" style="fill:#fff"/><path d="M50.78,55.2a4.43,4.43,0,1,1,4.42-4.42A4.42,4.42,0,0,1,50.78,55.2Zm0-6.85a2.43,2.43,0,1,0,2.42,2.43A2.43,2.43,0,0,0,50.78,48.35Z" style="fill:#fff"/></g></g></svg>