<svg xmlns="http://www.w3.org/2000/svg" width="80" height="130" viewBox="0 0 80 130"><title>architecture-product-card_AWS_IoT_Device_Defender</title><g id="CARDS"><rect x="1" y="1" width="78" height="78" style="fill:#232f3e"/><path d="M0,0V80H0v50H80V80h0V0ZM1,1H79V79H1Z" style="fill:#fff"/></g><g id="TEXT_-_EDIT" data-name="TEXT - EDIT"><path d="M24.79,92.35l-.43-1.82h-2l-.43,1.82H20.16l2.32-7.63h1.86l2.3,7.63Zm-2.18-2.92H24.1l-.76-3.16Z" style="fill:#232f3e"/><path d="M32,92.35l-.94-5.63-.89,5.63H28.29l-1.78-7.63h1.7l1.06,6.06L30.19,85H32L33,90.68l1-6h1.66l-1.78,7.63Z" style="fill:#232f3e"/><path d="M38,89a3.51,3.51,0,0,1-1.28-1,2,2,0,0,1-.39-1.23,2.07,2.07,0,0,1,.34-1.17,2.11,2.11,0,0,1,.92-.77,3.18,3.18,0,0,1,1.34-.27,4.93,4.93,0,0,1,1.9.39v1.17a5.5,5.5,0,0,0-1.73-.33,1.26,1.26,0,0,0-.79.23.78.78,0,0,0-.29.64.81.81,0,0,0,.19.56,2.14,2.14,0,0,0,.71.48l.65.32a5.12,5.12,0,0,1,1,.62,2,2,0,0,1,.54.69,2.13,2.13,0,0,1,.17.92,2,2,0,0,1-.74,1.65,3.09,3.09,0,0,1-2,.61,5.43,5.43,0,0,1-1.13-.12,3.76,3.76,0,0,1-1-.32V90.92a7.29,7.29,0,0,0,1,.25,5.53,5.53,0,0,0,1,.11,1.32,1.32,0,0,0,.88-.25.86.86,0,0,0,.3-.71.84.84,0,0,0-.21-.58,2.54,2.54,0,0,0-.7-.47Z" style="fill:#232f3e"/><path d="M45.07,92.35V84.72h1.68v7.63Z" style="fill:#232f3e"/><path d="M50.56,92.49a2.27,2.27,0,0,1-1.84-.77,4,4,0,0,1,0-4.37,2.58,2.58,0,0,1,3.68,0,4,4,0,0,1,0,4.37A2.29,2.29,0,0,1,50.56,92.49Zm0-1.15a.65.65,0,0,0,.64-.43,4.79,4.79,0,0,0,0-2.74.69.69,0,0,0-1.28,0,4.79,4.79,0,0,0,0,2.74A.65.65,0,0,0,50.56,91.34Z" style="fill:#232f3e"/><path d="M55.63,92.35V85.94h-2V84.72h5.69v1.22h-2v6.41Z" style="fill:#232f3e"/><path d="M25.08,106.35V98.72H27.6a2.9,2.9,0,0,1,2.36,1,4.33,4.33,0,0,1,.81,2.84,4.42,4.42,0,0,1-.79,2.85,2.85,2.85,0,0,1-2.32,1Zm1.69-6.45v5.27h.71a1.3,1.3,0,0,0,1.17-.62,3.68,3.68,0,0,0,.39-1.91v-.22a3.75,3.75,0,0,0-.38-1.91,1.3,1.3,0,0,0-1.19-.61Z" style="fill:#232f3e"/><path d="M33.3,103.92a1.77,1.77,0,0,0,.36,1.12,1.45,1.45,0,0,0,1.06.33,3.18,3.18,0,0,0,.68-.09,6,6,0,0,0,.81-.21v1a3,3,0,0,1-.84.31,4.75,4.75,0,0,1-1,.11c-1.72,0-2.58-1-2.58-2.95a3.37,3.37,0,0,1,.63-2.2,2.23,2.23,0,0,1,1.83-.76c1.36,0,2,.76,2,2.29a4.32,4.32,0,0,1-.12,1Zm.92-2.32c-.58,0-.89.46-.92,1.37h1.62v-.25a1.68,1.68,0,0,0-.17-.86A.6.6,0,0,0,34.22,101.6Z" style="fill:#232f3e"/><path d="M38.64,106.35l-1.86-5.63h1.75l.89,4,.92-4H42l-1.85,5.63Z" style="fill:#232f3e"/><path d="M43.66,99.81a1.08,1.08,0,0,1-.71-.22.75.75,0,0,1-.26-.61.74.74,0,0,1,.26-.61,1,1,0,0,1,.71-.23,1,1,0,0,1,.7.23.75.75,0,0,1,.27.61.76.76,0,0,1-.27.61A1,1,0,0,1,43.66,99.81Zm-.83,6.54v-5.63h1.65v5.63Z" style="fill:#232f3e"/><path d="M49.58,106.09a2,2,0,0,1-.64.26,3.59,3.59,0,0,1-.81.09,2.28,2.28,0,0,1-1.84-.73,3.24,3.24,0,0,1-.63-2.16,3.16,3.16,0,0,1,.67-2.16,2.36,2.36,0,0,1,1.87-.76,2.87,2.87,0,0,1,1.35.33v1a3.08,3.08,0,0,0-1-.19,1,1,0,0,0-.93.4,2.28,2.28,0,0,0-.29,1.29v.16a2.31,2.31,0,0,0,.28,1.28,1,1,0,0,0,.9.4,3.32,3.32,0,0,0,1.09-.21Z" style="fill:#232f3e"/><path d="M51.84,103.92A1.77,1.77,0,0,0,52.2,105a1.45,1.45,0,0,0,1.06.33,3.26,3.26,0,0,0,.69-.09,6.31,6.31,0,0,0,.8-.21v1a3,3,0,0,1-.83.31,4.84,4.84,0,0,1-1,.11c-1.72,0-2.58-1-2.58-2.95a3.37,3.37,0,0,1,.63-2.2,2.23,2.23,0,0,1,1.83-.76c1.36,0,2,.76,2,2.29a4.32,4.32,0,0,1-.12,1Zm.92-2.32c-.58,0-.88.46-.92,1.37h1.62v-.25a1.68,1.68,0,0,0-.17-.86A.59.59,0,0,0,52.76,101.6Z" style="fill:#232f3e"/><path d="M18.83,120.35v-7.63h2.51a2.93,2.93,0,0,1,2.37,1,5.49,5.49,0,0,1,0,5.69,2.84,2.84,0,0,1-2.32,1Zm1.68-6.45v5.27h.71a1.29,1.29,0,0,0,1.17-.62,3.68,3.68,0,0,0,.39-1.91v-.22a3.75,3.75,0,0,0-.38-1.91,1.29,1.29,0,0,0-1.19-.61Z" style="fill:#232f3e"/><path d="M27,117.92A1.77,1.77,0,0,0,27.4,119a1.45,1.45,0,0,0,1.06.33,3.26,3.26,0,0,0,.69-.09,6.31,6.31,0,0,0,.8-.21v1a3,3,0,0,1-.83.31,4.77,4.77,0,0,1-1,.11c-1.72,0-2.58-1-2.58-2.95a3.37,3.37,0,0,1,.63-2.2,2.23,2.23,0,0,1,1.83-.76c1.36,0,2,.76,2,2.29a4.32,4.32,0,0,1-.12,1ZM28,115.6c-.58,0-.88.46-.92,1.37h1.62v-.25a1.68,1.68,0,0,0-.17-.86A.59.59,0,0,0,28,115.6Z" style="fill:#232f3e"/><path d="M31.39,120.35v-4.53h-.78v-.92l.78-.15v-.66a2.17,2.17,0,0,1,.48-1.54,2,2,0,0,1,1.49-.5,2.88,2.88,0,0,1,1.08.21v1a3,3,0,0,0-.63-.07.83.83,0,0,0-.6.16A.88.88,0,0,0,33,114v.74h1.34v1.1H33v4.53Z" style="fill:#232f3e"/><path d="M36.33,117.92a1.77,1.77,0,0,0,.36,1.12,1.45,1.45,0,0,0,1.06.33,3.11,3.11,0,0,0,.68-.09,6,6,0,0,0,.81-.21v1a3,3,0,0,1-.84.31,4.67,4.67,0,0,1-1,.11c-1.72,0-2.58-1-2.58-2.95a3.37,3.37,0,0,1,.63-2.2,2.23,2.23,0,0,1,1.83-.76c1.36,0,2,.76,2,2.29a4.32,4.32,0,0,1-.12,1Zm.92-2.32c-.58,0-.89.46-.92,1.37H38v-.25a1.68,1.68,0,0,0-.17-.86A.59.59,0,0,0,37.25,115.6Z" style="fill:#232f3e"/><path d="M43.58,120.35v-3.7a1.27,1.27,0,0,0-.14-.7.54.54,0,0,0-.49-.22,1.57,1.57,0,0,0-.82.26v4.36H40.48v-5.63h1.35l.13.51a3.32,3.32,0,0,1,1.84-.65,1.35,1.35,0,0,1,1.07.42,1.83,1.83,0,0,1,.37,1.22v4.13Z" style="fill:#232f3e"/><path d="M49.89,120.35l-.14-.49a2,2,0,0,1-.63.43,1.86,1.86,0,0,1-.72.15,1.75,1.75,0,0,1-1.51-.75,3.65,3.65,0,0,1-.53-2.13,3.73,3.73,0,0,1,.55-2.19,1.76,1.76,0,0,1,1.53-.79,2.08,2.08,0,0,1,.63.13,2.35,2.35,0,0,1,.61.33v-2.83h1.65v8.14Zm-.93-1a1.34,1.34,0,0,0,.72-.22V116a1.51,1.51,0,0,0-.79-.26.7.7,0,0,0-.68.44,3.42,3.42,0,0,0-.2,1.39,2.92,2.92,0,0,0,.23,1.36A.75.75,0,0,0,49,119.32Z" style="fill:#232f3e"/><path d="M54,117.92a1.66,1.66,0,0,0,.36,1.12,1.45,1.45,0,0,0,1.06.33,3.18,3.18,0,0,0,.68-.09,5.54,5.54,0,0,0,.8-.21v1a2.77,2.77,0,0,1-.83.31,4.77,4.77,0,0,1-1,.11c-1.72,0-2.57-1-2.57-2.95a3.37,3.37,0,0,1,.63-2.2,2.22,2.22,0,0,1,1.82-.76c1.37,0,2,.76,2,2.29a4.32,4.32,0,0,1-.12,1Zm.91-2.32c-.57,0-.88.46-.91,1.37h1.61v-.25a1.7,1.7,0,0,0-.16-.86A.61.61,0,0,0,54.88,115.6Z" style="fill:#232f3e"/><path d="M58.11,120.35v-5.63h1.35l.18.73a2.5,2.5,0,0,1,.72-.59,1.55,1.55,0,0,1,.75-.19,2.56,2.56,0,0,1,.39,0V116a5,5,0,0,0-.64,0,2.5,2.5,0,0,0-1.1.26v4.11Z" style="fill:#232f3e"/></g><g id="ICONS_-_EDIT" data-name="ICONS - EDIT"><rect x="39.03" y="33.01" width="2" height="32" style="fill:#fff"/><path d="M61,36H59V23c-8-.19-16.18-1.8-19-4.21-2.8,2.41-11,4-19,4.21V36H19V22a1,1,0,0,1,1-1c11.49-.09,18.61-2.89,19-4a.41.41,0,0,1,0-.11A1,1,0,0,1,40,16a1,1,0,0,1,1,1c.36,1.09,7.47,3.91,19,4a1,1,0,0,1,1,1Z" style="fill:#fff"/><path d="M40,66a1,1,0,0,1-.45-.1L23,57.62a7.18,7.18,0,0,1-4-6.44V49.43h2v1.75a5.17,5.17,0,0,0,2.88,4.65L40,63.89l16.12-8.06A5.17,5.17,0,0,0,59,51.18V49.4h2v1.78a7.18,7.18,0,0,1-4,6.44L40.48,65.91A1,1,0,0,1,40,66Z" style="fill:#fff"/><path d="M36,62.21H34V43H29.22V41H35a1,1,0,0,1,1,1Z" style="fill:#fff"/><path d="M46,62.21H44V42a1,1,0,0,1,1-1h5.8v2H46Z" style="fill:#fff"/><path d="M40,34.17a5.58,5.58,0,1,1,5.58-5.58A5.58,5.58,0,0,1,40,34.17ZM40,25a3.58,3.58,0,1,0,3.58,3.58A3.58,3.58,0,0,0,40,25Z" style="fill:#fff"/><path d="M24.23,48.12a5.59,5.59,0,1,1,5.58-5.59A5.6,5.6,0,0,1,24.23,48.12Zm0-9.17a3.59,3.59,0,1,0,3.58,3.58A3.59,3.59,0,0,0,24.23,39Z" style="fill:#fff"/><path d="M55.77,48.12a5.59,5.59,0,1,1,5.59-5.59A5.6,5.6,0,0,1,55.77,48.12Zm0-9.17a3.59,3.59,0,1,0,3.59,3.58A3.59,3.59,0,0,0,55.77,39Z" style="fill:#fff"/></g></svg>