<svg xmlns="http://www.w3.org/2000/svg" width="80" height="130" viewBox="0 0 80 130"><title>architecture-product-card_AWS_Serverless_App_Repository</title><g id="CARDS"><rect x="1" y="1" width="78" height="78" style="fill:#232f3e"/><path d="M0,0V80H0v50H80V80h0V0ZM1,1H79V79H1Z" style="fill:#fff"/></g><g id="TEXT_-_EDIT" data-name="TEXT - EDIT"><path d="M33.69,92.35l-.44-1.82h-2l-.42,1.82H29.06l2.31-7.63h1.87l2.3,7.63Zm-2.18-2.92H33l-.76-3.16Z" style="fill:#232f3e"/><path d="M40.89,92.35,40,86.72l-.89,5.63H37.19l-1.78-7.63h1.7l1.06,6.06L39.08,85h1.84l.94,5.65,1-6h1.66l-1.78,7.63Z" style="fill:#232f3e"/><path d="M46.84,89a3.55,3.55,0,0,1-1.27-1,2,2,0,0,1-.39-1.23,2,2,0,0,1,.34-1.17,2.11,2.11,0,0,1,.92-.77,3.18,3.18,0,0,1,1.34-.27,4.85,4.85,0,0,1,1.89.39v1.17A5.44,5.44,0,0,0,48,85.79a1.24,1.24,0,0,0-.79.23.75.75,0,0,0-.29.64.86.86,0,0,0,.18.56,2.32,2.32,0,0,0,.72.48l.65.32a5.12,5.12,0,0,1,1,.62,2,2,0,0,1,.54.69,2.29,2.29,0,0,1,.17.92,2,2,0,0,1-.74,1.65,3.09,3.09,0,0,1-2,.61,5.35,5.35,0,0,1-1.13-.12,4,4,0,0,1-1-.32V90.92a7.85,7.85,0,0,0,1,.25,5.33,5.33,0,0,0,1,.11,1.34,1.34,0,0,0,.88-.25.86.86,0,0,0,.3-.71.84.84,0,0,0-.21-.58,2.47,2.47,0,0,0-.71-.47Z" style="fill:#232f3e"/><path d="M7.12,103a3.6,3.6,0,0,1-1.28-1,2,2,0,0,1-.39-1.23,2.07,2.07,0,0,1,.34-1.17,2.17,2.17,0,0,1,.92-.77,3.19,3.19,0,0,1,1.35-.27A4.92,4.92,0,0,1,10,99v1.17a5.5,5.5,0,0,0-1.73-.33,1.26,1.26,0,0,0-.79.23.78.78,0,0,0-.29.64.81.81,0,0,0,.19.56,2.14,2.14,0,0,0,.71.48l.65.32a5.12,5.12,0,0,1,1,.62,2,2,0,0,1,.54.69,2.13,2.13,0,0,1,.18.92,2,2,0,0,1-.75,1.65,3.09,3.09,0,0,1-2,.61,5.43,5.43,0,0,1-1.13-.12,3.76,3.76,0,0,1-1-.32v-1.15a7.29,7.29,0,0,0,1,.25,5.53,5.53,0,0,0,1,.11,1.32,1.32,0,0,0,.88-.25.86.86,0,0,0,.3-.71.84.84,0,0,0-.21-.58,2.4,2.4,0,0,0-.7-.47Z" style="fill:#232f3e"/><path d="M12.75,103.92a1.71,1.71,0,0,0,.37,1.12,1.43,1.43,0,0,0,1.06.33,3.26,3.26,0,0,0,.68-.09,5.9,5.9,0,0,0,.8-.21v1a2.88,2.88,0,0,1-.83.31,4.77,4.77,0,0,1-1,.11c-1.72,0-2.58-1-2.58-2.95a3.37,3.37,0,0,1,.63-2.2,2.24,2.24,0,0,1,1.83-.76c1.36,0,2,.76,2,2.29a4.32,4.32,0,0,1-.12,1Zm.92-2.32c-.58,0-.88.46-.92,1.37h1.62v-.25a1.68,1.68,0,0,0-.17-.86A.59.59,0,0,0,13.67,101.6Z" style="fill:#232f3e"/><path d="M16.9,106.35v-5.63h1.35l.18.73a2.5,2.5,0,0,1,.72-.59,1.49,1.49,0,0,1,.75-.19,2.56,2.56,0,0,1,.39,0V102a5,5,0,0,0-.64,0,2.47,2.47,0,0,0-1.1.26v4.11Z" style="fill:#232f3e"/><path d="M22.71,106.35l-1.86-5.63H22.6l.89,4,.91-4h1.7l-1.84,5.63Z" style="fill:#232f3e"/><path d="M28.08,103.92a1.66,1.66,0,0,0,.36,1.12,1.45,1.45,0,0,0,1.06.33,3.26,3.26,0,0,0,.68-.09,5.54,5.54,0,0,0,.8-.21v1a2.77,2.77,0,0,1-.83.31,4.77,4.77,0,0,1-1,.11c-1.72,0-2.58-1-2.58-2.95a3.32,3.32,0,0,1,.64-2.2,2.22,2.22,0,0,1,1.82-.76c1.37,0,2.05.76,2.05,2.29a4.32,4.32,0,0,1-.12,1ZM29,101.6c-.57,0-.88.46-.91,1.37h1.61v-.25a1.59,1.59,0,0,0-.17-.86A.59.59,0,0,0,29,101.6Z" style="fill:#232f3e"/><path d="M32.22,106.35v-5.63h1.35l.18.73a2.5,2.5,0,0,1,.72-.59,1.55,1.55,0,0,1,.75-.19,2.56,2.56,0,0,1,.39,0V102a5,5,0,0,0-.64,0,2.47,2.47,0,0,0-1.1.26v4.11Z" style="fill:#232f3e"/><path d="M38.75,106.25a2.69,2.69,0,0,1-1,.16,1.43,1.43,0,0,1-1.08-.37,1.54,1.54,0,0,1-.36-1.12V98.21H38v6.54a.75.75,0,0,0,.08.4.37.37,0,0,0,.32.12,2.14,2.14,0,0,0,.35,0Z" style="fill:#232f3e"/><path d="M40.86,103.92a1.66,1.66,0,0,0,.36,1.12,1.45,1.45,0,0,0,1.06.33,3.18,3.18,0,0,0,.68-.09,5.54,5.54,0,0,0,.8-.21v1a2.77,2.77,0,0,1-.83.31,4.77,4.77,0,0,1-1,.11c-1.71,0-2.57-1-2.57-2.95a3.37,3.37,0,0,1,.63-2.2,2.22,2.22,0,0,1,1.82-.76c1.37,0,2,.76,2,2.29a4.32,4.32,0,0,1-.12,1Zm.92-2.32c-.58,0-.89.46-.92,1.37h1.61v-.25a1.7,1.7,0,0,0-.16-.86A.6.6,0,0,0,41.78,101.6Z" style="fill:#232f3e"/><path d="M47,104.77c0-.25-.17-.46-.51-.62l-.73-.35a1.7,1.7,0,0,1-1.13-1.59,1.43,1.43,0,0,1,.56-1.18,2.23,2.23,0,0,1,1.47-.45,3.57,3.57,0,0,1,1.53.35v1a5.56,5.56,0,0,0-.7-.19,3.07,3.07,0,0,0-.61-.07c-.51,0-.77.18-.77.54s.22.45.64.66l.72.34a1.93,1.93,0,0,1,.78.62,1.69,1.69,0,0,1,.24.93,1.57,1.57,0,0,1-.56,1.27,2.28,2.28,0,0,1-1.48.46,3.83,3.83,0,0,1-1.82-.44v-1a5.44,5.44,0,0,0,1.62.35.85.85,0,0,0,.56-.17A.56.56,0,0,0,47,104.77Z" style="fill:#232f3e"/><path d="M51.41,104.77c0-.25-.17-.46-.51-.62l-.73-.35A1.7,1.7,0,0,1,49,102.21a1.45,1.45,0,0,1,.55-1.18,2.26,2.26,0,0,1,1.47-.45,3.57,3.57,0,0,1,1.53.35v1a5,5,0,0,0-.69-.19,3.07,3.07,0,0,0-.61-.07c-.51,0-.77.18-.77.54s.22.45.64.66l.72.34a1.83,1.83,0,0,1,.77.62,1.61,1.61,0,0,1,.25.93,1.57,1.57,0,0,1-.56,1.27,2.28,2.28,0,0,1-1.48.46,3.83,3.83,0,0,1-1.82-.44v-1a5.44,5.44,0,0,0,1.62.35.85.85,0,0,0,.56-.17A.56.56,0,0,0,51.41,104.77Z" style="fill:#232f3e"/><path d="M60.35,106.35l-.43-1.82h-2l-.42,1.82H55.73L58,98.72h1.87l2.3,7.63Zm-2.18-2.92h1.5l-.76-3.16Z" style="fill:#232f3e"/><path d="M63,108.61v-7.89h1.35l.12.48a2.46,2.46,0,0,1,.71-.45,2.12,2.12,0,0,1,.79-.17,1.75,1.75,0,0,1,1.51.74,3.68,3.68,0,0,1,.52,2.14,3.79,3.79,0,0,1-.55,2.2,1.74,1.74,0,0,1-1.51.78,2.18,2.18,0,0,1-.69-.12,2,2,0,0,1-.6-.35v2.64Zm2.42-6.91a1.27,1.27,0,0,0-.77.25v3.11a1.42,1.42,0,0,0,.78.26.73.73,0,0,0,.71-.42,3.22,3.22,0,0,0,.21-1.37,3.34,3.34,0,0,0-.21-1.41A.74.74,0,0,0,65.41,101.7Z" style="fill:#232f3e"/><path d="M69.14,108.61v-7.89h1.35l.12.48a2.33,2.33,0,0,1,.71-.45,2.07,2.07,0,0,1,.78-.17,1.74,1.74,0,0,1,1.51.74,3.67,3.67,0,0,1,.53,2.14,3.87,3.87,0,0,1-.55,2.2,1.75,1.75,0,0,1-1.51.78,2.09,2.09,0,0,1-.69-.12,2,2,0,0,1-.6-.35v2.64Zm2.42-6.91a1.27,1.27,0,0,0-.77.25v3.11a1.37,1.37,0,0,0,.78.26.72.72,0,0,0,.7-.42,3.22,3.22,0,0,0,.21-1.37,3.34,3.34,0,0,0-.21-1.41A.73.73,0,0,0,71.56,101.7Z" style="fill:#232f3e"/><path d="M18.78,120.35l-1.46-2.83h-.65v2.83H15v-7.63h2.64a2.39,2.39,0,0,1,1.76.65,2.31,2.31,0,0,1,.66,1.75,2.57,2.57,0,0,1-.33,1.33,2,2,0,0,1-.92.84l1.68,3.06Zm-2.11-4h.78a.86.86,0,0,0,.72-.31,1.57,1.57,0,0,0,.25-.94,1.52,1.52,0,0,0-.25-.93.84.84,0,0,0-.72-.32h-.78Z" style="fill:#232f3e"/><path d="M22.55,117.92a1.66,1.66,0,0,0,.36,1.12,1.45,1.45,0,0,0,1.06.33,3.18,3.18,0,0,0,.68-.09,5.54,5.54,0,0,0,.8-.21v1a2.77,2.77,0,0,1-.83.31,4.77,4.77,0,0,1-1,.11c-1.72,0-2.58-1-2.58-2.95a3.37,3.37,0,0,1,.64-2.2,2.22,2.22,0,0,1,1.82-.76c1.37,0,2,.76,2,2.29a4.32,4.32,0,0,1-.12,1Zm.91-2.32c-.57,0-.88.46-.91,1.37h1.61v-.25a1.59,1.59,0,0,0-.17-.86A.58.58,0,0,0,23.46,115.6Z" style="fill:#232f3e"/><path d="M26.69,122.61v-7.89H28l.12.48a2.46,2.46,0,0,1,.71-.45,2.16,2.16,0,0,1,.79-.17,1.74,1.74,0,0,1,1.51.74,3.68,3.68,0,0,1,.52,2.14,3.79,3.79,0,0,1-.55,2.2,1.73,1.73,0,0,1-1.51.78,2.08,2.08,0,0,1-.68-.12,1.91,1.91,0,0,1-.61-.35v2.64Zm2.43-6.91a1.3,1.3,0,0,0-.78.25v3.11a1.43,1.43,0,0,0,.79.26.72.72,0,0,0,.7-.42,3.22,3.22,0,0,0,.21-1.37,3.34,3.34,0,0,0-.21-1.41A.73.73,0,0,0,29.12,115.7Z" style="fill:#232f3e"/><path d="M35.07,120.49a2.31,2.31,0,0,1-1.85-.77,4,4,0,0,1,0-4.37,2.6,2.6,0,0,1,3.69,0,4,4,0,0,1,0,4.37A2.29,2.29,0,0,1,35.07,120.49Zm0-1.15a.66.66,0,0,0,.64-.43,4.79,4.79,0,0,0,0-2.74.69.69,0,0,0-1.29,0,4.79,4.79,0,0,0,0,2.74A.67.67,0,0,0,35.07,119.34Z" style="fill:#232f3e"/><path d="M40.72,118.77c0-.25-.18-.46-.52-.62l-.72-.35a1.69,1.69,0,0,1-1.14-1.59A1.43,1.43,0,0,1,38.9,115a2.26,2.26,0,0,1,1.47-.45,3.57,3.57,0,0,1,1.53.35v1a5.56,5.56,0,0,0-.7-.19,3,3,0,0,0-.6-.07c-.52,0-.77.18-.77.54s.21.45.63.66l.73.34a1.9,1.9,0,0,1,.77.62,1.69,1.69,0,0,1,.24.93,1.57,1.57,0,0,1-.56,1.27,2.28,2.28,0,0,1-1.48.46,3.85,3.85,0,0,1-1.82-.44v-1a5.5,5.5,0,0,0,1.62.35.81.81,0,0,0,.56-.17A.57.57,0,0,0,40.72,118.77Z" style="fill:#232f3e"/><path d="M44,113.81a1.08,1.08,0,0,1-.71-.22A.79.79,0,0,1,43,113a.77.77,0,0,1,.26-.61,1,1,0,0,1,.71-.23,1,1,0,0,1,.7.23A.75.75,0,0,1,45,113a.76.76,0,0,1-.27.61A1,1,0,0,1,44,113.81Zm-.83,6.54v-5.63h1.65v5.63Z" style="fill:#232f3e"/><path d="M49.31,120.2a3.51,3.51,0,0,1-1.23.22,1.85,1.85,0,0,1-1.32-.4,1.81,1.81,0,0,1-.41-1.3v-2.9h-.73v-.92l.78-.15.24-1.54H48v1.51h1.28v1.1H48v2.77a.73.73,0,0,0,.15.52.69.69,0,0,0,.53.16,3,3,0,0,0,.63-.08Z" style="fill:#232f3e"/><path d="M52.41,120.49a2.29,2.29,0,0,1-1.84-.77,4,4,0,0,1,0-4.37,2.6,2.6,0,0,1,3.69,0,4,4,0,0,1,0,4.37A2.31,2.31,0,0,1,52.41,120.49Zm0-1.15a.67.67,0,0,0,.65-.43,4.79,4.79,0,0,0,0-2.74.69.69,0,0,0-1.29,0,4.79,4.79,0,0,0,0,2.74A.66.66,0,0,0,52.41,119.34Z" style="fill:#232f3e"/><path d="M56.06,120.35v-5.63h1.35l.18.73a2.5,2.5,0,0,1,.72-.59,1.55,1.55,0,0,1,.75-.19,2.56,2.56,0,0,1,.39,0V116a5,5,0,0,0-.64,0,2.5,2.5,0,0,0-1.1.26v4.11Z" style="fill:#232f3e"/><path d="M62,120.46l-2-5.74h1.75l.93,4.14.9-4.14h1.7l-2,6.48a2.49,2.49,0,0,1-.68,1.18,1.65,1.65,0,0,1-1.11.36,3.64,3.64,0,0,1-1.06-.16v-1a4.24,4.24,0,0,0,.58,0,1,1,0,0,0,.69-.22,1.27,1.27,0,0,0,.3-.74Z" style="fill:#232f3e"/></g><g id="ICONS_-_EDIT" data-name="ICONS - EDIT"><path d="M55.36,56H25.6C20.73,56,15.32,52.46,15,47.18c0-.24,0-.44,0-.66s0-.27,0-.4A.49.49,0,0,1,15,46a1.49,1.49,0,0,1,0-.21,8.87,8.87,0,0,1,6.51-8.21c0-.24,0-.49,0-.74a13.17,13.17,0,0,1,22.6-8.9,14.57,14.57,0,0,1,3,4.28,6,6,0,0,1,3.71-1.28c2.81,0,5.75,2,6.3,6.4,4.78,1.18,7.52,4.13,7.84,8.41A1.07,1.07,0,0,1,65,46a.66.66,0,0,1,0,.14c0,.15,0,.3,0,.46C65,55.32,57.62,56,55.36,56ZM17,47v0c.23,4.1,4.7,7,8.58,7H55.36c2.25,0,7.42-.69,7.63-7H48.81A4.14,4.14,0,0,1,49,48.22a4.08,4.08,0,1,1-8.15,0A3.84,3.84,0,0,1,41,47H31.2a1,1,0,0,1-.69-1.72,2.05,2.05,0,0,0,.65-1.5,2.08,2.08,0,1,0-4.15,0,2.05,2.05,0,0,0,.65,1.5A1,1,0,0,1,27,47Zm21-2h4.8a1,1,0,0,1,.69,1.72,2.05,2.05,0,0,0-.65,1.5,2.08,2.08,0,1,0,4.15,0,2.05,2.05,0,0,0-.65-1.5A1,1,0,0,1,47,45H62.86C62.3,41.91,60,39.94,56,39.14a1,1,0,0,1-.8-.92c-.23-3.9-2.51-5.28-4.38-5.28a4.09,4.09,0,0,0-3.26,1.65,1,1,0,0,1-1.73-.26,13.35,13.35,0,0,0-3.12-5A12,12,0,0,0,38,26.52v7.59a4.15,4.15,0,0,1,1.22-.19,4.08,4.08,0,0,1,0,8.16A4.15,4.15,0,0,1,38,41.89Zm-5,0h3V40.12a1,1,0,0,1,1.73-.69,2,2,0,0,0,1.49.65,2.08,2.08,0,0,0,0-4.16,2,2,0,0,0-1.49.65A1,1,0,0,1,36,35.88V26.09a11.85,11.85,0,0,0-5.9.85,11.38,11.38,0,0,0-6.59,9.9,10.14,10.14,0,0,0,.08,1.36,1,1,0,0,1-.76,1.09A7.09,7.09,0,0,0,17.12,45h8.07A4.14,4.14,0,0,1,25,43.78a4.08,4.08,0,1,1,8.15,0A3.84,3.84,0,0,1,33,45Z" style="fill:#fff"/></g></svg>