<svg xmlns="http://www.w3.org/2000/svg" width="80" height="115" viewBox="0 0 80 115"><title>architecture-product-card_Amazon_FreeRTOS</title><g id="CARDS"><rect x="1" y="1" width="78" height="78" style="fill:#232f3e"/><path d="M0,0V80H0v35H80V80h0V0ZM1,1H79V79H1Z" style="fill:#fff"/></g><g id="TEXT_-_EDIT" data-name="TEXT - EDIT"><path d="M25.35,92.35l-.43-1.82h-2l-.42,1.82H20.72L23,84.72H24.9l2.31,7.63Zm-2.18-2.92h1.49l-.76-3.16Z" style="fill:#232f3e"/><path d="M34.06,92.35V88.64a1.32,1.32,0,0,0-.14-.69.49.49,0,0,0-.46-.22,1.59,1.59,0,0,0-.8.26.5.5,0,0,1,0,.12v4.24H31V88.64a1.33,1.33,0,0,0-.13-.69.51.51,0,0,0-.47-.22,1.55,1.55,0,0,0-.78.26v4.36H28V86.72h1.35l.13.51a3.31,3.31,0,0,1,1.81-.65,1.25,1.25,0,0,1,1.2.67,3.38,3.38,0,0,1,1.83-.67,1.3,1.3,0,0,1,1,.42,1.85,1.85,0,0,1,.36,1.22v4.13Z" style="fill:#232f3e"/><path d="M40,92.35l-.14-.51a1.56,1.56,0,0,1-.59.47,1.86,1.86,0,0,1-.79.18A1.57,1.57,0,0,1,37.31,92a1.65,1.65,0,0,1-.43-1.22,1.69,1.69,0,0,1,.53-1.31A2,2,0,0,1,38.84,89a4,4,0,0,1,.93.13v-.51a1.33,1.33,0,0,0-.16-.78.77.77,0,0,0-.61-.2,5.9,5.9,0,0,0-1.77.35V87a3,3,0,0,1,.92-.33,5.47,5.47,0,0,1,1.15-.12,2.19,2.19,0,0,1,1.52.44,1.82,1.82,0,0,1,.47,1.39v3.94Zm-1-.92a1.17,1.17,0,0,0,.79-.35V90a2.3,2.3,0,0,0-.62-.07.67.67,0,0,0-.54.2.81.81,0,0,0-.19.59.82.82,0,0,0,.15.52A.49.49,0,0,0,39,91.43Z" style="fill:#232f3e"/><path d="M42.28,92.35V91.28l2.49-3.4h-2.4V86.72h4.14v1.07L44,91.19h2.54v1.16Z" style="fill:#232f3e"/><path d="M49.79,92.49A2.3,2.3,0,0,1,48,91.72a4,4,0,0,1,0-4.37,2.6,2.6,0,0,1,3.69,0,4,4,0,0,1,0,4.37A2.31,2.31,0,0,1,49.79,92.49Zm0-1.15a.67.67,0,0,0,.65-.43,4.79,4.79,0,0,0,0-2.74.69.69,0,0,0-1.29,0,4.79,4.79,0,0,0,0,2.74A.66.66,0,0,0,49.79,91.34Z" style="fill:#232f3e"/><path d="M56.55,92.35v-3.7a1.36,1.36,0,0,0-.14-.7.55.55,0,0,0-.5-.22,1.56,1.56,0,0,0-.81.26v4.36H53.44V86.72h1.35l.14.51a3.32,3.32,0,0,1,1.84-.65,1.35,1.35,0,0,1,1.07.42,1.83,1.83,0,0,1,.36,1.22v4.13Z" style="fill:#232f3e"/><path d="M17.65,106.35V98.72H22V99.9H19.34V102h2.08v1.17H19.34v3.22Z" style="fill:#232f3e"/><path d="M22.8,106.35v-5.63h1.35l.18.73a2.61,2.61,0,0,1,.71-.59,1.56,1.56,0,0,1,.76-.19l.38,0V102a4.85,4.85,0,0,0-.64,0,2.43,2.43,0,0,0-1.09.26v4.11Z" style="fill:#232f3e"/><path d="M28.15,103.92a1.66,1.66,0,0,0,.36,1.12,1.43,1.43,0,0,0,1.06.33,3.26,3.26,0,0,0,.68-.09,5.9,5.9,0,0,0,.8-.21v1a2.88,2.88,0,0,1-.83.31,4.77,4.77,0,0,1-1,.11c-1.72,0-2.58-1-2.58-2.95a3.37,3.37,0,0,1,.63-2.2,2.24,2.24,0,0,1,1.83-.76c1.36,0,2.05.76,2.05,2.29a4.32,4.32,0,0,1-.12,1Zm.91-2.32c-.58,0-.88.46-.91,1.37h1.61v-.25a1.68,1.68,0,0,0-.17-.86A.59.59,0,0,0,29.06,101.6Z" style="fill:#232f3e"/><path d="M33.51,103.92a1.66,1.66,0,0,0,.36,1.12,1.43,1.43,0,0,0,1.06.33,3.26,3.26,0,0,0,.68-.09,5.54,5.54,0,0,0,.8-.21v1a2.77,2.77,0,0,1-.83.31,4.77,4.77,0,0,1-1,.11c-1.72,0-2.58-1-2.58-2.95a3.32,3.32,0,0,1,.64-2.2,2.22,2.22,0,0,1,1.82-.76c1.37,0,2.05.76,2.05,2.29a4.32,4.32,0,0,1-.12,1Zm.91-2.32c-.58,0-.88.46-.91,1.37h1.61v-.25a1.68,1.68,0,0,0-.17-.86A.59.59,0,0,0,34.42,101.6Z" style="fill:#232f3e"/><path d="M41.52,106.35l-1.46-2.83h-.65v2.83H37.76V98.72H40.4a2.39,2.39,0,0,1,1.76.65,2.31,2.31,0,0,1,.66,1.75,2.57,2.57,0,0,1-.33,1.33,2,2,0,0,1-.92.84l1.68,3.06Zm-2.11-4h.78a.86.86,0,0,0,.72-.31,1.57,1.57,0,0,0,.25-.94,1.52,1.52,0,0,0-.25-.93.84.84,0,0,0-.72-.32h-.78Z" style="fill:#232f3e"/><path d="M45.49,106.35V99.94h-2V98.72h5.69v1.22h-2v6.41Z" style="fill:#232f3e"/><path d="M49.67,102.53a4.44,4.44,0,0,1,.88-2.93,3.45,3.45,0,0,1,4.94,0,4.38,4.38,0,0,1,.88,2.93,4.43,4.43,0,0,1-.88,2.94,3.45,3.45,0,0,1-4.94,0A4.48,4.48,0,0,1,49.67,102.53Zm1.74,0a4,4,0,0,0,.41,2,1.3,1.3,0,0,0,1.2.7,1.32,1.32,0,0,0,1.21-.7,4.1,4.1,0,0,0,.41-2,4.21,4.21,0,0,0-.4-2.06A1.32,1.32,0,0,0,53,99.8a1.3,1.3,0,0,0-1.21.67A4.09,4.09,0,0,0,51.41,102.53Z" style="fill:#232f3e"/><path d="M59,103a3.6,3.6,0,0,1-1.28-1,2,2,0,0,1-.38-1.23,2.06,2.06,0,0,1,.33-1.17,2.2,2.2,0,0,1,.93-.77,3.11,3.11,0,0,1,1.34-.27,4.92,4.92,0,0,1,1.89.39v1.17a5.5,5.5,0,0,0-1.72-.33,1.27,1.27,0,0,0-.8.23.78.78,0,0,0-.29.64.81.81,0,0,0,.19.56,2.09,2.09,0,0,0,.72.48l.65.32a5,5,0,0,1,1,.62,1.76,1.76,0,0,1,.54.69,2.13,2.13,0,0,1,.18.92,2,2,0,0,1-.74,1.65,3.13,3.13,0,0,1-2,.61,5.5,5.5,0,0,1-1.13-.12,3.9,3.9,0,0,1-.95-.32v-1.15a7.45,7.45,0,0,0,1,.25,5.33,5.33,0,0,0,1,.11,1.32,1.32,0,0,0,.88-.25.86.86,0,0,0,.3-.71.84.84,0,0,0-.21-.58,2.4,2.4,0,0,0-.7-.47Z" style="fill:#232f3e"/></g><g id="ICONS_-_EDIT" data-name="ICONS - EDIT"><path d="M60,60H20a1,1,0,0,1-1-1V21a1,1,0,0,1,1-1H60a1,1,0,0,1,1,1V59A1,1,0,0,1,60,60ZM21,58H59V22H21Z" style="fill:#fff"/><rect x="60" y="29" width="5" height="2" style="fill:#fff"/><rect x="60" y="24" width="5" height="2" style="fill:#fff"/><rect x="60" y="34" width="5" height="2" style="fill:#fff"/><rect x="60" y="39" width="5" height="2" style="fill:#fff"/><rect x="60" y="44" width="5" height="2" style="fill:#fff"/><rect x="60" y="49" width="5" height="2" style="fill:#fff"/><rect x="60" y="54" width="5" height="2" style="fill:#fff"/><rect x="15" y="29" width="5" height="2" style="fill:#fff"/><rect x="15" y="24" width="5" height="2" style="fill:#fff"/><rect x="15" y="34" width="5" height="2" style="fill:#fff"/><rect x="15" y="39" width="5" height="2" style="fill:#fff"/><rect x="15" y="44" width="5" height="2" style="fill:#fff"/><rect x="15" y="49" width="5" height="2" style="fill:#fff"/><rect x="15" y="54" width="5" height="2" style="fill:#fff"/><path d="M40.21,51.4A11.31,11.31,0,1,1,51.52,40.1,11.31,11.31,0,0,1,40.21,51.4Zm0-21.61A10.31,10.31,0,1,0,50.52,40.1,10.31,10.31,0,0,0,40.21,29.79Z" style="fill:#fff"/><rect x="39" y="32" width="2" height="23" style="fill:#fff"/><path d="M37,55H35V41H32V39h4a1,1,0,0,1,1,1Z" style="fill:#fff"/><path d="M45,55H43V40a1,1,0,0,1,1-1h4v2H45Z" style="fill:#fff"/><path d="M40,33.25a4.13,4.13,0,1,1,4.13-4.12A4.13,4.13,0,0,1,40,33.25ZM40,27a2.13,2.13,0,1,0,2.13,2.13A2.13,2.13,0,0,0,40,27Z" style="fill:#fff"/><path d="M29.24,44.13A4.13,4.13,0,1,1,33.36,40,4.13,4.13,0,0,1,29.24,44.13Zm0-6.26A2.13,2.13,0,1,0,31.36,40,2.13,2.13,0,0,0,29.24,37.87Z" style="fill:#fff"/><path d="M50.77,44.13A4.13,4.13,0,1,1,54.89,40,4.13,4.13,0,0,1,50.77,44.13Zm0-6.26A2.13,2.13,0,1,0,52.89,40,2.13,2.13,0,0,0,50.77,37.87Z" style="fill:#fff"/><path d="M40,51.64a11.33,11.33,0,0,1-4.38-.86A11.66,11.66,0,0,1,31,47.41l-.22-.27a11.55,11.55,0,0,1-2-3.75l1.9-.6a9.57,9.57,0,0,0,1.69,3.14c.07.1.11.14.15.19a9.81,9.81,0,0,0,11.13,2.82,9.89,9.89,0,0,0,5.73-6.15l1.9.6a11.88,11.88,0,0,1-6.88,7.4A11.42,11.42,0,0,1,40,51.64ZM30.61,37l-1.91-.57a11.8,11.8,0,0,1,7.87-7.91l.58,1.92A9.82,9.82,0,0,0,30.61,37Zm18.78,0a9.82,9.82,0,0,0-6.59-6.58l.57-1.91a11.76,11.76,0,0,1,7.93,7.92Z" style="fill:#fff"/></g></svg>