<svg xmlns="http://www.w3.org/2000/svg" width="80" height="100" viewBox="0 0 80 100"><title>Artboard 71</title><g id="CARDS"><rect x="1" y="1" width="78" height="78" style="fill:#232f3e"/><path d="M0,0V80H0v20H80V80h0V0ZM1,1H79V79H1Z" style="fill:#fff"/></g><g id="TEXT_-_EDIT" data-name="TEXT - EDIT"><path d="M19.05,92.35l-.43-1.82h-2l-.42,1.82H14.43l2.31-7.63h1.87l2.3,7.63Zm-2.18-2.92h1.5l-.76-3.16Z" style="fill:#232f3e"/><path d="M26.26,92.35l-.94-5.63-.89,5.63H22.56l-1.78-7.63h1.7l1.06,6.06L24.45,85h1.83l.94,5.65,1-6h1.66l-1.78,7.63Z" style="fill:#232f3e"/><path d="M32.21,89a3.7,3.7,0,0,1-1.28-1,2,2,0,0,1-.38-1.23,2,2,0,0,1,.34-1.17,2.11,2.11,0,0,1,.92-.77,3.14,3.14,0,0,1,1.34-.27A4.85,4.85,0,0,1,35,85v1.17a5.44,5.44,0,0,0-1.72-.33,1.29,1.29,0,0,0-.8.23.77.77,0,0,0-.28.64.86.86,0,0,0,.18.56,2.32,2.32,0,0,0,.72.48l.65.32a4.73,4.73,0,0,1,1,.62,1.89,1.89,0,0,1,.55.69,2.29,2.29,0,0,1,.17.92,2,2,0,0,1-.74,1.65,3.12,3.12,0,0,1-2,.61,5.52,5.52,0,0,1-1.14-.12,4.06,4.06,0,0,1-.95-.32V90.92a7.85,7.85,0,0,0,1,.25,5.33,5.33,0,0,0,1,.11,1.34,1.34,0,0,0,.88-.25.86.86,0,0,0,.3-.71.84.84,0,0,0-.21-.58,2.47,2.47,0,0,0-.71-.47Z" style="fill:#232f3e"/><path d="M39.28,92.35V84.72H41.8a2.42,2.42,0,0,1,1.64.56,1.87,1.87,0,0,1,.64,1.47,1.93,1.93,0,0,1-.25,1,1.6,1.6,0,0,1-.74.61,1.79,1.79,0,0,1,1.35,1.86,1.92,1.92,0,0,1-.7,1.56,2.83,2.83,0,0,1-1.87.59Zm1.59-6.53v2.11h.68a.84.84,0,0,0,.66-.27,1.13,1.13,0,0,0,.24-.77,1.3,1.3,0,0,0-.21-.79.7.7,0,0,0-.58-.28Zm0,3.16v2.27h1a.88.88,0,0,0,.7-.29,1.22,1.22,0,0,0,.25-.84,1.19,1.19,0,0,0-.27-.84,1,1,0,0,0-.78-.3Z" style="fill:#232f3e"/><path d="M48.46,92.35l-.14-.51a1.49,1.49,0,0,1-.59.47,1.85,1.85,0,0,1-.78.18A1.58,1.58,0,0,1,45.76,92a1.91,1.91,0,0,1,.1-2.53A2,2,0,0,1,47.29,89a4,4,0,0,1,.93.13v-.51a1.33,1.33,0,0,0-.16-.78.77.77,0,0,0-.61-.2,5.9,5.9,0,0,0-1.77.35V87a3,3,0,0,1,.92-.33,5.47,5.47,0,0,1,1.15-.12,2.19,2.19,0,0,1,1.52.44,1.82,1.82,0,0,1,.47,1.39v3.94Zm-1-.92a1.17,1.17,0,0,0,.79-.35V90a2.25,2.25,0,0,0-.62-.07.67.67,0,0,0-.54.2.81.81,0,0,0-.19.59.82.82,0,0,0,.15.52A.49.49,0,0,0,47.43,91.43Z" style="fill:#232f3e"/><path d="M54.17,92.2a3.47,3.47,0,0,1-1.23.22,1.47,1.47,0,0,1-1.72-1.7v-2.9h-.73V86.9l.78-.15.24-1.54h1.36v1.51h1.28v1.1H52.87v2.77a.73.73,0,0,0,.15.52.67.67,0,0,0,.53.16,2.85,2.85,0,0,0,.62-.08Z" style="fill:#232f3e"/><path d="M58.69,92.09a2,2,0,0,1-.64.26,3.44,3.44,0,0,1-.8.09,2.29,2.29,0,0,1-1.85-.73,4,4,0,0,1,0-4.32,2.36,2.36,0,0,1,1.88-.76,2.93,2.93,0,0,1,1.35.33v1a3.09,3.09,0,0,0-1-.19,1.05,1.05,0,0,0-.93.4,2.29,2.29,0,0,0-.28,1.29v.16a2.32,2.32,0,0,0,.27,1.28,1,1,0,0,0,.91.4,3.22,3.22,0,0,0,1.08-.21Z" style="fill:#232f3e"/><path d="M62.85,92.35v-3.7a1.25,1.25,0,0,0-.15-.7.53.53,0,0,0-.49-.22,1.59,1.59,0,0,0-.82.26v4.36H59.74V84.21h1.65v2.91a3.21,3.21,0,0,1,1.67-.54,1.34,1.34,0,0,1,1.07.42,1.78,1.78,0,0,1,.37,1.22v4.13Z" style="fill:#232f3e"/></g><g id="ICONS_-_EDIT" data-name="ICONS - EDIT"><rect x="39" y="27.75" width="2" height="7" style="fill:#fff"/><rect x="39" y="44.75" width="2" height="8" style="fill:#fff"/><rect x="58" y="44.75" width="2" height="9" style="fill:#fff"/><rect x="20" y="45.75" width="2" height="8" style="fill:#fff"/><rect x="27" y="38.75" width="8" height="2" style="fill:#fff"/><rect x="45" y="38.75" width="9" height="2" style="fill:#fff"/><path d="M59.05,46a6,6,0,1,1,6-6A6,6,0,0,1,59.05,46Zm0-9.9a4,4,0,1,0,4,4A4,4,0,0,0,59.05,36.05Z" style="fill:#fff"/><path d="M59.05,64.75a5.95,5.95,0,1,1,6-6A6,6,0,0,1,59.05,64.75Zm0-9.89a3.95,3.95,0,1,0,4,3.94A3.95,3.95,0,0,0,59.05,54.86Z" style="fill:#fff"/><path d="M21.44,46.44A6.44,6.44,0,1,1,27.89,40,6.45,6.45,0,0,1,21.44,46.44Zm0-10.88A4.44,4.44,0,1,0,25.89,40,4.44,4.44,0,0,0,21.44,35.56Z" style="fill:#fff"/><path d="M40.25,46a6,6,0,1,1,6-6A6,6,0,0,1,40.25,46Zm0-9.9a4,4,0,1,0,4,4A4,4,0,0,0,40.25,36.05Z" style="fill:#fff"/><path d="M21.44,64.75a5.95,5.95,0,1,1,5.95-6A6,6,0,0,1,21.44,64.75Zm0-9.89a3.95,3.95,0,1,0,3.95,3.94A4,4,0,0,0,21.44,54.86Z" style="fill:#fff"/><path d="M40.25,64.75a6.44,6.44,0,1,1,6.44-6.44A6.46,6.46,0,0,1,40.25,64.75Zm0-10.88a4.44,4.44,0,1,0,4.44,4.44A4.45,4.45,0,0,0,40.25,53.87Z" style="fill:#fff"/><path d="M40.25,29.12a6.94,6.94,0,1,1,6.94-6.93A6.94,6.94,0,0,1,40.25,29.12Zm0-11.87a4.94,4.94,0,1,0,4.94,4.94A4.94,4.94,0,0,0,40.25,17.25Z" style="fill:#fff"/><circle cx="21.44" cy="40" r="1.98" style="fill:#fff"/><circle cx="40.25" cy="58.31" r="1.98" style="fill:#fff"/></g></svg>