<svg xmlns="http://www.w3.org/2000/svg" width="80" height="100" viewBox="0 0 80 100"><title>architecture-product-card_AWS_WAF</title><g id="CARDS"><rect x="1" y="1" width="78" height="78" style="fill:#232f3e"/><path d="M0,0V80H0v20H80V80h0V0ZM1,1H79V79H1Z" style="fill:#fff"/></g><g id="TEXT_-_EDIT" data-name="TEXT - EDIT"><path d="M21.87,92.35l-.43-1.82h-2L19,92.35H17.25l2.31-7.63h1.87l2.3,7.63Zm-2.18-2.92h1.5l-.76-3.16Z" style="fill:#232f3e"/><path d="M29.08,92.35l-.94-5.63-.89,5.63H25.38L23.6,84.72h1.7l1.06,6.06L27.27,85H29.1L30,90.68l1-6h1.66L31,92.35Z" style="fill:#232f3e"/><path d="M35,89a3.7,3.7,0,0,1-1.28-1,2,2,0,0,1-.38-1.23,2,2,0,0,1,.34-1.17,2.11,2.11,0,0,1,.92-.77A3.14,3.14,0,0,1,36,84.56a4.88,4.88,0,0,1,1.89.39v1.17a5.44,5.44,0,0,0-1.72-.33,1.29,1.29,0,0,0-.8.23.77.77,0,0,0-.28.64.86.86,0,0,0,.18.56,2.2,2.2,0,0,0,.72.48l.65.32a4.73,4.73,0,0,1,1,.62,1.89,1.89,0,0,1,.55.69,2.29,2.29,0,0,1,.17.92,2,2,0,0,1-.74,1.65,3.12,3.12,0,0,1-2,.61,5.52,5.52,0,0,1-1.14-.12,4.06,4.06,0,0,1-.95-.32V90.92a7.85,7.85,0,0,0,1,.25,5.33,5.33,0,0,0,1,.11A1.34,1.34,0,0,0,36.3,91a.86.86,0,0,0,.3-.71.84.84,0,0,0-.21-.58,2.47,2.47,0,0,0-.71-.47Z" style="fill:#232f3e"/><path d="M46.92,92.35,46,86.72l-.89,5.63H43.22l-1.78-7.63h1.7l1.06,6.06L45.11,85H47l.94,5.65,1-6h1.66l-1.78,7.63Z" style="fill:#232f3e"/><path d="M55.07,92.35l-.44-1.82h-2l-.42,1.82H50.44l2.31-7.63h1.87l2.3,7.63Zm-2.18-2.92h1.49l-.76-3.16Z" style="fill:#232f3e"/><path d="M57.81,92.35V84.72h4.35V85.9H59.5V88h2.08v1.17H59.5v3.22Z" style="fill:#232f3e"/></g><g id="ICONS_-_EDIT" data-name="ICONS - EDIT"><rect x="57.02" y="49.57" width="2" height="16.91" transform="translate(-24.03 58.02) rotate(-45)" style="fill:#fff"/><rect x="21.63" y="13.26" width="2" height="18.74" transform="translate(-9.37 22.63) rotate(-45)" style="fill:#fff"/><rect x="17.55" y="56.53" width="9.9" height="2" transform="translate(-34.09 32.76) rotate(-45)" style="fill:#fff"/><rect x="52.55" y="21.53" width="9.9" height="2" transform="translate(0.91 47.26) rotate(-45)" style="fill:#fff"/><rect x="15" y="39" width="6" height="2" style="fill:#fff"/><rect x="59" y="39" width="6" height="2" style="fill:#fff"/><rect x="39" y="59" width="2" height="6" style="fill:#fff"/><rect x="39" y="15" width="2" height="6" style="fill:#fff"/><path d="M58.65,53.5,57,52.33a21,21,0,0,0,0-24.59l1.62-1.17a23,23,0,0,1,0,26.93Z" style="fill:#fff"/><path d="M52.29,23a21,21,0,0,0-24.58,0l-1.18-1.62a23,23,0,0,1,26.94,0Z" style="fill:#fff"/><path d="M40,63a22.82,22.82,0,0,1-13.47-4.35l1.18-1.62a21,21,0,0,0,24.58,0l1.18,1.62A22.82,22.82,0,0,1,40,63Z" style="fill:#fff"/><path d="M21.35,53.5a23,23,0,0,1,0-26.93L23,27.74a21,21,0,0,0,0,24.59Z" style="fill:#fff"/><path d="M39.35,55a1,1,0,0,1-.34-.06,26.85,26.85,0,0,1-6.3-3.15,9.24,9.24,0,0,1-2.79-12c.1-.16.19-.33.3-.49,1.64-2.58.49-7-.09-8.52a1,1,0,0,1,.93-1.36c2.17,0,4,1.84,5.18,3.36a8.54,8.54,0,0,0-2.37-8A1,1,0,0,1,34.68,23,9.53,9.53,0,0,1,42,28.32c1.69,3.52,1.36,8.24-.86,12.33-3.33,6.11-.85,12.93-.83,13a1,1,0,0,1-.22,1.05A1,1,0,0,1,39.35,55ZM32.57,31.91c.53,2.18,1,5.78-.67,8.42l-.24.41a7.23,7.23,0,0,0,2.19,9.41,22.1,22.1,0,0,0,4,2.18A18.49,18.49,0,0,1,39.35,39.7c1.92-3.54,2.24-7.57.82-10.51A7.19,7.19,0,0,0,37.26,26a11.66,11.66,0,0,1,.32,9.47,1,1,0,0,1-1.83.14A11.81,11.81,0,0,0,32.57,31.91Z" style="fill:#fff"/><path d="M39.41,55l-.16-2c.09,0,9-.79,10.6-7,1.33-5.16.33-8-.63-9.36a8.81,8.81,0,0,1-2.51,4.7,1,1,0,0,1-1.62-.94c1.65-10.27-6.44-13.54-6.79-13.67L39,24.86A13.92,13.92,0,0,1,47.25,36.3a15.08,15.08,0,0,0,.32-1.8,1,1,0,0,1,.53-.79,1,1,0,0,1,.94,0c.22.12,5.27,3,2.75,12.78C49.83,54.1,39.83,55,39.41,55Z" style="fill:#fff"/></g></svg>