<svg xmlns="http://www.w3.org/2000/svg" width="80" height="115" viewBox="0 0 80 115"><title>architecture-product-card_AWS_Snowball_Edge</title><g id="CARDS"><rect x="1" y="1" width="78" height="78" style="fill:#232f3e"/><path d="M0,0V80H0v35H80V80h0V0ZM1,1H79V79H1Z" style="fill:#fff"/></g><g id="TEXT_-_EDIT" data-name="TEXT - EDIT"><text transform="translate(5.53 92.35) scale(1.1 1)" style="font-size:11px;fill:#232f3e;font-family:AmazonEmberCd-Bold, Amazon Ember Cd;font-weight:700"><tspan style="letter-spacing:-0.029991610474697398em">A</tspan><tspan x="5.72" y="0">WS Snowball </tspan><tspan x="20.72" y="14" style="letter-spacing:-0.009970184022669677em">E</tspan><tspan x="25.88" y="14">dge</tspan></text></g><g id="ICONS_-_EDIT" data-name="ICONS - EDIT"><path d="M39.9,54.4H22.07a3.18,3.18,0,0,1-3.17-3.18V26.58a3.19,3.19,0,0,1,3.17-3.18H31.9a1,1,0,0,1,1,.68L34,27.4H45.82L47,24.08a1,1,0,0,1,.94-.68h9.83a3.18,3.18,0,0,1,3.17,3.18V42.4h-2V26.58a1.17,1.17,0,0,0-1.17-1.18H48.62l-1.14,3.33a1,1,0,0,1-.95.67H33.27a1,1,0,0,1-.94-.67L31.19,25.4H22.07a1.18,1.18,0,0,0-1.17,1.18V51.22a1.19,1.19,0,0,0,1.17,1.18H39.9Z" style="fill:#fff"/><path d="M39.9,58.4H20.28a5.47,5.47,0,0,1-5.38-5.54V24.94a5.48,5.48,0,0,1,5.38-5.54H59.52a5.47,5.47,0,0,1,5.38,5.54V45.4h-2V24.94a3.46,3.46,0,0,0-3.38-3.54H20.28a3.47,3.47,0,0,0-3.38,3.54V52.86a3.46,3.46,0,0,0,3.38,3.54H39.9Z" style="fill:#fff"/><path d="M42.9,47.4h-16a1,1,0,0,1-1-1v-13a1,1,0,0,1,1-1h27a1,1,0,0,1,1,1v8h-2v-7h-25v11h15Z" style="fill:#fff"/><rect x="35.9" y="23.4" width="8" height="2" style="fill:#fff"/><path d="M53.73,45.4l.62.05.63,0,.62,0,.88,2a8.46,8.46,0,0,1,2.31,1.15L61,48.17l.41.47.41.47.41.47-.83,2.08a8,8,0,0,1,.82,2.42l1.93,1.15,0,.62,0,.62,0,.63L61.91,58a8.15,8.15,0,0,1-1.13,2.29l.55,2.18-.47.41-.47.41-.47.41-2.09-.83a8.38,8.38,0,0,1-2.41.82L54.27,65.6l-.62,0-.62,0-.63,0-.88-2.06a8.34,8.34,0,0,1-2.3-1.13l-2.17.55-.41-.47-.41-.47-.41-.47.83-2.07a8.31,8.31,0,0,1-.84-2.44L43.9,55.77l.05-.62,0-.63,0-.62,2-.88a8,8,0,0,1,1.14-2.31l-.54-2.16.47-.41.47-.41.47-.41,2.06.82a8.16,8.16,0,0,1,2.45-.83l1.14-1.91m0-2a2,2,0,0,0-1.72,1l-.69,1.16a12.9,12.9,0,0,0-1.24.42l-1.26-.5a2.11,2.11,0,0,0-.74-.14,2,2,0,0,0-1.32.49l-.47.42-.47.41-.47.41a2,2,0,0,0-.62,2l.33,1.32a10.6,10.6,0,0,0-.58,1.17l-1.24.54A2,2,0,0,0,42,53.77l0,.62L42,55l0,.62a2,2,0,0,0,1,1.85l1.17.7a8.79,8.79,0,0,0,.42,1.22L44,60.68a2,2,0,0,0,.35,2.06l.42.47.41.47.41.47a2,2,0,0,0,1.5.68,2.05,2.05,0,0,0,.49-.06l1.34-.34A12.12,12.12,0,0,0,50,65l.54,1.26a2,2,0,0,0,1.71,1.21l.62,0,.63,0,.62,0h.13a2,2,0,0,0,1.72-1l.71-1.19A10.46,10.46,0,0,0,57.89,65l1.29.52a2.11,2.11,0,0,0,.74.14,2,2,0,0,0,1.32-.49l.47-.42.47-.41.47-.41a2,2,0,0,0,.62-2l-.34-1.35a10.79,10.79,0,0,0,.56-1.13l1.27-.55A2,2,0,0,0,66,57.23l0-.62,0-.62,0-.63a2,2,0,0,0-1-1.85l-1.18-.7a10.13,10.13,0,0,0-.41-1.21L64,50.32a2,2,0,0,0-.35-2.06l-.42-.47-.41-.47-.41-.47a2,2,0,0,0-1.5-.68,2.05,2.05,0,0,0-.49.06l-1.33.34A10.32,10.32,0,0,0,58,46l-.55-1.25a2,2,0,0,0-1.7-1.21l-.62,0-.62,0-.63,0Z" style="fill:#fff"/><path d="M54,60.18a4.68,4.68,0,1,1,4.68-4.68A4.69,4.69,0,0,1,54,60.18Zm0-7.36a2.68,2.68,0,1,0,2.68,2.68A2.68,2.68,0,0,0,54,52.82Z" style="fill:#fff"/></g></svg>