<svg xmlns="http://www.w3.org/2000/svg" width="80" height="100" viewBox="0 0 80 100"><title>architecture-product-card_Amazon_Lex</title><g id="CARDS"><rect x="1" y="1" width="78" height="78" style="fill:#232f3e"/><path d="M0,0V80H0v20H80V80h0V0ZM1,1H79V79H1Z" style="fill:#fff"/></g><g id="TEXT_-_EDIT" data-name="TEXT - EDIT"><path d="M16,92.35l-.43-1.82h-2l-.43,1.82H11.39l2.32-7.63h1.86l2.3,7.63Zm-2.18-2.92h1.49l-.76-3.16Z" style="fill:#232f3e"/><path d="M24.73,92.35V88.64a1.32,1.32,0,0,0-.14-.69.5.5,0,0,0-.46-.22,1.56,1.56,0,0,0-.8.26.49.49,0,0,1,0,.12v4.24H21.69V88.64a1.33,1.33,0,0,0-.13-.69.51.51,0,0,0-.47-.22,1.53,1.53,0,0,0-.78.26v4.36H18.66V86.72H20l.13.51A3.29,3.29,0,0,1,22,86.58a1.25,1.25,0,0,1,1.2.67A3.38,3.38,0,0,1,25,86.58,1.3,1.3,0,0,1,26,87a1.85,1.85,0,0,1,.36,1.22v4.13Z" style="fill:#232f3e"/><path d="M30.68,92.35l-.14-.51a1.56,1.56,0,0,1-.59.47,1.86,1.86,0,0,1-.79.18A1.57,1.57,0,0,1,28,92a1.65,1.65,0,0,1-.43-1.22,1.69,1.69,0,0,1,.53-1.31A2,2,0,0,1,29.51,89a4,4,0,0,1,.93.13v-.51a1.33,1.33,0,0,0-.16-.78.77.77,0,0,0-.61-.2A5.9,5.9,0,0,0,27.9,88V87a3,3,0,0,1,.91-.33A5.64,5.64,0,0,1,30,86.58a2.19,2.19,0,0,1,1.52.44A1.82,1.82,0,0,1,32,88.41v3.94Zm-1-.92a1.17,1.17,0,0,0,.79-.35V90a2.33,2.33,0,0,0-.63-.07.66.66,0,0,0-.53.2.81.81,0,0,0-.19.59.82.82,0,0,0,.15.52A.49.49,0,0,0,29.65,91.43Z" style="fill:#232f3e"/><path d="M33,92.35V91.28l2.49-3.4H33V86.72h4.14v1.07l-2.5,3.4h2.54v1.16Z" style="fill:#232f3e"/><path d="M40.46,92.49a2.29,2.29,0,0,1-1.84-.77,4,4,0,0,1,0-4.37,2.6,2.6,0,0,1,3.69,0,4,4,0,0,1,0,4.37A2.31,2.31,0,0,1,40.46,92.49Zm0-1.15a.67.67,0,0,0,.65-.43,4.79,4.79,0,0,0,0-2.74.69.69,0,0,0-1.29,0,4.79,4.79,0,0,0,0,2.74A.66.66,0,0,0,40.46,91.34Z" style="fill:#232f3e"/><path d="M47.22,92.35v-3.7a1.36,1.36,0,0,0-.14-.7.55.55,0,0,0-.5-.22,1.59,1.59,0,0,0-.82.26v4.36H44.11V86.72h1.35l.14.51a3.32,3.32,0,0,1,1.84-.65,1.36,1.36,0,0,1,1.07.42,1.83,1.83,0,0,1,.36,1.22v4.13Z" style="fill:#232f3e"/><path d="M52.92,92.35V84.72h1.69v6.4h2.84v1.23Z" style="fill:#232f3e"/><path d="M59.44,89.92A1.66,1.66,0,0,0,59.8,91a1.45,1.45,0,0,0,1.06.33,3.26,3.26,0,0,0,.68-.09,5.54,5.54,0,0,0,.8-.21v1a2.77,2.77,0,0,1-.83.31,4.77,4.77,0,0,1-1,.11c-1.72,0-2.58-1-2.58-2.95a3.32,3.32,0,0,1,.64-2.2,2.22,2.22,0,0,1,1.82-.76c1.37,0,2.05.76,2.05,2.29a4.32,4.32,0,0,1-.12,1Zm.91-2.32c-.58,0-.88.46-.91,1.37h1.61v-.25a1.59,1.59,0,0,0-.17-.86A.59.59,0,0,0,60.35,87.6Z" style="fill:#232f3e"/><path d="M66.4,92.35l-1-1.79-.85,1.79H62.92l1.72-2.83-1.7-2.8h1.78l.9,1.73.83-1.73h1.63l-1.7,2.8,1.79,2.83Z" style="fill:#232f3e"/></g><g id="ICONS_-_EDIT" data-name="ICONS - EDIT"><path d="M22.56,45.21a1.52,1.52,0,0,1-.63-.14A1.54,1.54,0,0,1,21,43.65V38a.11.11,0,0,0-.1-.12H17.08A2.11,2.11,0,0,1,15,35.77V17.12A2.11,2.11,0,0,1,17.08,15H45.87A2.12,2.12,0,0,1,48,17.12V32H46V17.12a.11.11,0,0,0-.11-.12H17.08c-.06,0-.1.05-.1.12V35.77a.11.11,0,0,0,.1.12h3.84A2.12,2.12,0,0,1,23,38v4.54l5.29-5.44,1.43,1.39-6.09,6.26A1.62,1.62,0,0,1,22.56,45.21Z" style="fill:#fff"/><rect x="20.03" y="19.95" width="17" height="2" style="fill:#fff"/><rect x="39.03" y="19.95" width="4" height="2" style="fill:#fff"/><rect x="20.03" y="24.95" width="9" height="2" style="fill:#fff"/><rect x="32.03" y="24.95" width="11" height="2" style="fill:#fff"/><rect x="20.03" y="29.95" width="14" height="2" style="fill:#fff"/><rect x="36.03" y="29.95" width="4" height="2" style="fill:#fff"/><path d="M55.51,65a1.54,1.54,0,0,1-1-.41l-6.79-6.71H33.09A2.09,2.09,0,0,1,31,55.77V36.54A2.57,2.57,0,0,1,33.57,34H63.06a2.05,2.05,0,0,1,2,2.15V55.77A2.1,2.1,0,0,1,63,57.89H57.1A.13.13,0,0,0,57,58v5.43a1.57,1.57,0,0,1-.94,1.44A1.52,1.52,0,0,1,55.51,65ZM63,35.92,33.57,36a.56.56,0,0,0-.54.59V55.77c0,.07,0,.12.06.12H47.67a2,2,0,0,1,1.39.55l6,5.91V58a2.09,2.09,0,0,1,2.06-2.12H63a.12.12,0,0,0,.07-.12V36.1A.28.28,0,0,0,63,35.92Z" style="fill:#fff"/><path d="M48.68,54H47.37a1,1,0,0,1-.89-.55l-.52-1a7.83,7.83,0,0,1-1-.43l-1.08.36a1,1,0,0,1-1-.25l-.92-.92a1,1,0,0,1-.25-1L42,49.07A5.09,5.09,0,0,1,41.55,48l-1-.5A1,1,0,0,1,40,46.6V45.29a1,1,0,0,1,.54-.89l1-.5A6.28,6.28,0,0,1,42,42.82l-.35-1a1,1,0,0,1,.25-1l.92-.92a1,1,0,0,1,1-.25l1.07.35A9.3,9.3,0,0,1,46,39.49l.51-1a1,1,0,0,1,.89-.54h1.31a1,1,0,0,1,.89.54l.5,1a6,6,0,0,1,1.08.45l1.06-.35a1,1,0,0,1,1,.25l.92.92a1,1,0,0,1,.25,1L54,42.82a7.25,7.25,0,0,1,.45,1.08l1,.5a1,1,0,0,1,.55.89V46.6a1,1,0,0,1-.55.89l-1,.51A7,7,0,0,1,54,49.06l.35,1.07a1,1,0,0,1-.25,1l-.92.92a1,1,0,0,1-1,.25L51.13,52a6.81,6.81,0,0,1-1.05.43l-.51,1A1,1,0,0,1,48.68,54ZM48,52h.07l.43-.85a1,1,0,0,1,.66-.52A4.87,4.87,0,0,0,50.5,50a1,1,0,0,1,.84-.1l.9.29,0-.05-.29-.9a1,1,0,0,1,.1-.83,4.49,4.49,0,0,0,.56-1.36,1,1,0,0,1,.52-.66L54,46v-.07l-.84-.43a1,1,0,0,1-.52-.66,5,5,0,0,0-.57-1.37,1,1,0,0,1-.09-.83l.29-.89-.06,0-.89.28a1,1,0,0,1-.83-.1,5,5,0,0,0-1.37-.57,1,1,0,0,1-.66-.51L48.06,40H48l-.43.83a1,1,0,0,1-.62.5,6.56,6.56,0,0,0-1.41.58,1,1,0,0,1-.83.1l-.89-.28-.05,0,.28.89a1,1,0,0,1-.09.83,5,5,0,0,0-.57,1.37,1,1,0,0,1-.51.66l-.84.43V46l.84.43a1,1,0,0,1,.53.72,3.5,3.5,0,0,0,.55,1.3,1,1,0,0,1,.1.83l-.29.9.05.05.9-.29a1,1,0,0,1,.84.1,6.5,6.5,0,0,0,1.39.57,1,1,0,0,1,.62.5Zm0-2.8a3.2,3.2,0,1,1,3.2-3.2A3.2,3.2,0,0,1,48,49.15Zm0-4.4a1.2,1.2,0,0,0,0,2.4,1.2,1.2,0,0,0,0-2.4Z" style="fill:#fff"/></g></svg>