<svg xmlns="http://www.w3.org/2000/svg" width="80" height="130" viewBox="0 0 80 130"><title>architecture-product-card_Elastic_File_System</title><g id="CARDS"><rect x="1" y="1" width="78" height="78" style="fill:#232f3e"/><path d="M0,0V80H0v50H80V80h0V0ZM1,1H79V79H1Z" style="fill:#fff"/></g><g id="TEXT_-_EDIT" data-name="TEXT - EDIT"><path d="M25.35,92.35l-.43-1.82h-2l-.42,1.82H20.72L23,84.72H24.9l2.31,7.63Zm-2.18-2.92h1.49l-.76-3.16Z" style="fill:#232f3e"/><path d="M34.06,92.35V88.64a1.32,1.32,0,0,0-.14-.69.5.5,0,0,0-.46-.22,1.56,1.56,0,0,0-.8.26.49.49,0,0,1,0,.12v4.24H31V88.64a1.33,1.33,0,0,0-.13-.69.51.51,0,0,0-.47-.22,1.55,1.55,0,0,0-.78.26v4.36H28V86.72h1.35l.13.51a3.29,3.29,0,0,1,1.81-.65,1.25,1.25,0,0,1,1.2.67,3.38,3.38,0,0,1,1.83-.67,1.3,1.3,0,0,1,1,.42,1.85,1.85,0,0,1,.36,1.22v4.13Z" style="fill:#232f3e"/><path d="M40,92.35l-.14-.51a1.56,1.56,0,0,1-.59.47,1.86,1.86,0,0,1-.79.18A1.57,1.57,0,0,1,37.31,92a1.65,1.65,0,0,1-.43-1.22,1.69,1.69,0,0,1,.53-1.31A2,2,0,0,1,38.84,89a4,4,0,0,1,.93.13v-.51a1.33,1.33,0,0,0-.16-.78.77.77,0,0,0-.61-.2,5.9,5.9,0,0,0-1.77.35V87a3,3,0,0,1,.91-.33,5.64,5.64,0,0,1,1.16-.12,2.19,2.19,0,0,1,1.52.44,1.82,1.82,0,0,1,.47,1.39v3.94Zm-1-.92a1.17,1.17,0,0,0,.79-.35V90a2.33,2.33,0,0,0-.63-.07.66.66,0,0,0-.53.2.81.81,0,0,0-.19.59.82.82,0,0,0,.15.52A.49.49,0,0,0,39,91.43Z" style="fill:#232f3e"/><path d="M42.28,92.35V91.28l2.49-3.4h-2.4V86.72h4.14v1.07L44,91.19h2.54v1.16Z" style="fill:#232f3e"/><path d="M49.79,92.49A2.29,2.29,0,0,1,48,91.72a4,4,0,0,1,0-4.37,2.6,2.6,0,0,1,3.69,0,4,4,0,0,1,0,4.37A2.31,2.31,0,0,1,49.79,92.49Zm0-1.15a.67.67,0,0,0,.65-.43,4.79,4.79,0,0,0,0-2.74.69.69,0,0,0-1.29,0,4.79,4.79,0,0,0,0,2.74A.66.66,0,0,0,49.79,91.34Z" style="fill:#232f3e"/><path d="M56.55,92.35v-3.7a1.36,1.36,0,0,0-.14-.7.55.55,0,0,0-.5-.22,1.62,1.62,0,0,0-.82.26v4.36H53.44V86.72h1.35l.14.51a3.32,3.32,0,0,1,1.84-.65,1.35,1.35,0,0,1,1.07.42,1.83,1.83,0,0,1,.36,1.22v4.13Z" style="fill:#232f3e"/><path d="M25.13,106.35V98.72h4.54V99.9H26.82v1.95h2.29V103H26.82v2.15h2.85v1.18Z" style="fill:#232f3e"/><path d="M33.19,106.25a2.69,2.69,0,0,1-1,.16,1.43,1.43,0,0,1-1.08-.37,1.54,1.54,0,0,1-.36-1.12V98.21h1.66v6.54a.77.77,0,0,0,.07.4.37.37,0,0,0,.32.12,2.14,2.14,0,0,0,.35,0Z" style="fill:#232f3e"/><path d="M37.11,106.35l-.15-.51a1.42,1.42,0,0,1-.59.47,1.81,1.81,0,0,1-.78.18,1.56,1.56,0,0,1-1.18-.45,1.66,1.66,0,0,1-.44-1.22,1.69,1.69,0,0,1,.53-1.31,2.08,2.08,0,0,1,1.44-.47,4,4,0,0,1,.93.13v-.51a1.32,1.32,0,0,0-.17-.78.74.74,0,0,0-.6-.2,5.9,5.9,0,0,0-1.78.35v-1a3.07,3.07,0,0,1,.92-.33,5.57,5.57,0,0,1,1.16-.12,2.21,2.21,0,0,1,1.52.44,1.82,1.82,0,0,1,.46,1.39v3.94Zm-1-.92a1.19,1.19,0,0,0,.8-.35V104a2.38,2.38,0,0,0-.63-.07.69.69,0,0,0-.54.2.85.85,0,0,0-.18.59.82.82,0,0,0,.15.52A.47.47,0,0,0,36.07,105.43Z" style="fill:#232f3e"/><path d="M41.78,104.77c0-.25-.17-.46-.52-.62l-.72-.35a1.7,1.7,0,0,1-1.13-1.59A1.42,1.42,0,0,1,40,101a2.26,2.26,0,0,1,1.47-.45,3.57,3.57,0,0,1,1.53.35v1a5.13,5.13,0,0,0-.7-.19,3,3,0,0,0-.6-.07c-.51,0-.77.18-.77.54s.21.45.64.66l.72.34a1.83,1.83,0,0,1,.77.62,1.69,1.69,0,0,1,.24.93,1.56,1.56,0,0,1-.55,1.27,2.28,2.28,0,0,1-1.48.46,3.83,3.83,0,0,1-1.82-.44v-1a5.45,5.45,0,0,0,1.61.35.86.86,0,0,0,.57-.17A.56.56,0,0,0,41.78,104.77Z" style="fill:#232f3e"/><path d="M47.23,106.2a3.47,3.47,0,0,1-1.23.22,1.8,1.8,0,0,1-1.31-.4,1.77,1.77,0,0,1-.41-1.3v-2.9h-.74v-.92l.78-.15.24-1.54h1.37v1.51H47.2v1.1H45.93v2.77a.74.74,0,0,0,.14.52.69.69,0,0,0,.53.16,3,3,0,0,0,.63-.08Z" style="fill:#232f3e"/><path d="M49,99.81a1.08,1.08,0,0,1-.71-.22A.79.79,0,0,1,48,99a.77.77,0,0,1,.26-.61,1,1,0,0,1,.71-.23,1,1,0,0,1,.7.23.75.75,0,0,1,.27.61.76.76,0,0,1-.27.61A1,1,0,0,1,49,99.81Zm-.83,6.54v-5.63h1.65v5.63Z" style="fill:#232f3e"/><path d="M54.89,106.09a2,2,0,0,1-.64.26,3.59,3.59,0,0,1-.81.09,2.28,2.28,0,0,1-1.84-.73,3.91,3.91,0,0,1,0-4.32,2.36,2.36,0,0,1,1.88-.76,2.93,2.93,0,0,1,1.35.33v1a3.14,3.14,0,0,0-1-.19,1.05,1.05,0,0,0-.93.4,2.28,2.28,0,0,0-.29,1.29v.16a2.31,2.31,0,0,0,.28,1.28,1,1,0,0,0,.9.4,3.27,3.27,0,0,0,1.09-.21Z" style="fill:#232f3e"/><path d="M13.72,120.35v-7.63h4.35v1.18H15.4V116h2.09v1.17H15.4v3.22Z" style="fill:#232f3e"/><path d="M19.85,113.81a1.06,1.06,0,0,1-.71-.22.76.76,0,0,1-.27-.61.75.75,0,0,1,.27-.61,1.2,1.2,0,0,1,1.41,0,.77.77,0,0,1,.26.61.79.79,0,0,1-.26.61A1,1,0,0,1,19.85,113.81ZM19,120.35v-5.63h1.65v5.63Z" style="fill:#232f3e"/><path d="M24.52,120.25a2.65,2.65,0,0,1-1,.16,1.43,1.43,0,0,1-1.08-.37,1.58,1.58,0,0,1-.35-1.12v-6.71h1.65v6.54a.66.66,0,0,0,.08.4.34.34,0,0,0,.31.12,2,2,0,0,0,.35,0Z" style="fill:#232f3e"/><path d="M26.63,117.92A1.77,1.77,0,0,0,27,119a1.45,1.45,0,0,0,1.06.33,3.26,3.26,0,0,0,.69-.09,6.31,6.31,0,0,0,.8-.21v1a3,3,0,0,1-.83.31,4.77,4.77,0,0,1-1,.11c-1.72,0-2.58-1-2.58-2.95a3.37,3.37,0,0,1,.63-2.2,2.23,2.23,0,0,1,1.83-.76c1.36,0,2,.76,2,2.29a4.32,4.32,0,0,1-.12,1Zm.92-2.32c-.58,0-.88.46-.92,1.37h1.62v-.25a1.68,1.68,0,0,0-.17-.86A.59.59,0,0,0,27.55,115.6Z" style="fill:#232f3e"/><path d="M34.75,117a3.55,3.55,0,0,1-1.27-1,2,2,0,0,1-.39-1.23,2,2,0,0,1,.34-1.17,2.11,2.11,0,0,1,.92-.77,3.18,3.18,0,0,1,1.34-.27,4.85,4.85,0,0,1,1.89.39v1.17a5.44,5.44,0,0,0-1.72-.33,1.24,1.24,0,0,0-.79.23.75.75,0,0,0-.29.64.86.86,0,0,0,.18.56,2.32,2.32,0,0,0,.72.48l.65.32a5.12,5.12,0,0,1,1,.62,2,2,0,0,1,.54.69,2.29,2.29,0,0,1,.17.92,2,2,0,0,1-.74,1.65,3.09,3.09,0,0,1-2,.61,5.35,5.35,0,0,1-1.13-.12,4,4,0,0,1-1-.32v-1.15a7.85,7.85,0,0,0,1,.25,5.33,5.33,0,0,0,1,.11A1.34,1.34,0,0,0,36,119a.86.86,0,0,0,.3-.71.84.84,0,0,0-.21-.58,2.47,2.47,0,0,0-.71-.47Z" style="fill:#232f3e"/><path d="M40.5,120.46l-2-5.74h1.75l.93,4.14.9-4.14h1.7l-2,6.48a2.48,2.48,0,0,1-.67,1.18,1.65,1.65,0,0,1-1.11.36,3.59,3.59,0,0,1-1.06-.16v-1a4.24,4.24,0,0,0,.58,0,.93.93,0,0,0,.68-.22,1.21,1.21,0,0,0,.31-.74Z" style="fill:#232f3e"/><path d="M46.55,118.77c0-.25-.17-.46-.52-.62l-.72-.35a1.69,1.69,0,0,1-1.14-1.59,1.43,1.43,0,0,1,.56-1.18,2.26,2.26,0,0,1,1.47-.45,3.57,3.57,0,0,1,1.53.35v1a5.56,5.56,0,0,0-.7-.19,3,3,0,0,0-.6-.07c-.52,0-.77.18-.77.54s.21.45.63.66l.73.34a1.9,1.9,0,0,1,.77.62,1.69,1.69,0,0,1,.24.93,1.59,1.59,0,0,1-.55,1.27,2.31,2.31,0,0,1-1.49.46,3.85,3.85,0,0,1-1.82-.44v-1a5.5,5.5,0,0,0,1.62.35.81.81,0,0,0,.56-.17A.57.57,0,0,0,46.55,118.77Z" style="fill:#232f3e"/><path d="M52,120.2a3.47,3.47,0,0,1-1.23.22,1.47,1.47,0,0,1-1.72-1.7v-2.9h-.73v-.92l.78-.15.24-1.54h1.36v1.51H52v1.1H50.69v2.77a.73.73,0,0,0,.15.52.67.67,0,0,0,.53.16,2.85,2.85,0,0,0,.62-.08Z" style="fill:#232f3e"/><path d="M54.09,117.92a1.66,1.66,0,0,0,.36,1.12,1.45,1.45,0,0,0,1.06.33,3.18,3.18,0,0,0,.68-.09,5.54,5.54,0,0,0,.8-.21v1a2.77,2.77,0,0,1-.83.31,4.77,4.77,0,0,1-1,.11c-1.72,0-2.58-1-2.58-2.95a3.37,3.37,0,0,1,.64-2.2,2.22,2.22,0,0,1,1.82-.76c1.37,0,2.05.76,2.05,2.29a4.32,4.32,0,0,1-.12,1ZM55,115.6c-.57,0-.88.46-.91,1.37H55.7v-.25a1.59,1.59,0,0,0-.17-.86A.58.58,0,0,0,55,115.6Z" style="fill:#232f3e"/><path d="M64.31,120.35v-3.71a1.32,1.32,0,0,0-.14-.69.51.51,0,0,0-.47-.22,1.56,1.56,0,0,0-.79.26.49.49,0,0,1,0,.12v4.24H61.27v-3.71a1.32,1.32,0,0,0-.14-.69.5.5,0,0,0-.46-.22,1.56,1.56,0,0,0-.79.26v4.36H58.23v-5.63h1.35l.13.51a3.34,3.34,0,0,1,1.81-.65,1.27,1.27,0,0,1,1.21.67,3.38,3.38,0,0,1,1.83-.67,1.28,1.28,0,0,1,1,.42,1.85,1.85,0,0,1,.37,1.22v4.13Z" style="fill:#232f3e"/></g><g id="ICONS_-_EDIT" data-name="ICONS - EDIT"><path d="M17,24H15V16a1,1,0,0,1,1-1h8v2H17Z" style="fill:#fff"/><rect x="19.5" y="14.14" width="2" height="12.73" transform="translate(-8.49 20.5) rotate(-45)" style="fill:#fff"/><path d="M65,24H63V17H56V15h8a1,1,0,0,1,1,1Z" style="fill:#fff"/><rect x="53.14" y="19.5" width="12.73" height="2" transform="translate(2.93 48.08) rotate(-45)" style="fill:#fff"/><path d="M24,65H16a1,1,0,0,1-1-1V56h2v7h7Z" style="fill:#fff"/><rect x="14.14" y="58.5" width="12.73" height="2" transform="translate(-36.07 31.92) rotate(-45)" style="fill:#fff"/><path d="M64,65H56V63h7V56h2v8A1,1,0,0,1,64,65Z" style="fill:#fff"/><rect x="58.5" y="53.14" width="2" height="12.73" transform="translate(-24.65 59.5) rotate(-45)" style="fill:#fff"/><path d="M24.68,50.67A8.29,8.29,0,0,1,19,43.33c0-.19,0-.38,0-.57a8,8,0,0,1,5.57-7.92c0-.19,0-.37,0-.55a11.81,11.81,0,0,1,6.78-10.4,11.42,11.42,0,0,1,12.79,2.52A12.77,12.77,0,0,1,46.65,30a5.16,5.16,0,0,1,3.1-1c2.44,0,5,1.75,5.52,5.63,4.35,1.15,6.73,4,6.73,8.19s-2.08,6.87-5.85,7.78l-.47-1.94C58.59,47.94,60,46,60,42.81c0-3.43-2-5.58-5.86-6.4a1,1,0,0,1-.8-.92c-.19-3.32-2.05-4.5-3.59-4.5a3.33,3.33,0,0,0-2.66,1.39,1,1,0,0,1-1,.39,1,1,0,0,1-.79-.65,11.25,11.25,0,0,0-2.64-4.29A9.41,9.41,0,0,0,32.1,25.74a9.82,9.82,0,0,0-5.55,8.55,9.84,9.84,0,0,0,.08,1.16,1,1,0,0,1-.75,1.09A6,6,0,0,0,21,42.76c0,.16,0,.31,0,.46a6.3,6.3,0,0,0,4.33,5.56Z" style="fill:#fff"/><path d="M51,58H28a1,1,0,0,1-1-1V44.48a3.87,3.87,0,0,1,1.17-2.75,2.53,2.53,0,0,1,1.9-.73h1.17c.3-.88.89-2,1.79-2h4l.19,0c.77.15,1.27,1.17,1.53,2H49a2.48,2.48,0,0,1,1.83.73A3.87,3.87,0,0,1,52,44.48V57A1,1,0,0,1,51,58ZM29,56H50V44.48a1.89,1.89,0,0,0-.53-1.29.54.54,0,0,0-.4-.19H38a1,1,0,0,1-1-1,4.63,4.63,0,0,0-.39-1H33.43A4.61,4.61,0,0,0,33,42.06,1,1,0,0,1,32,43H30a.53.53,0,0,0-.46.19A1.86,1.86,0,0,0,29,44.48Z" style="fill:#fff"/><path d="M52,57.32l-1.9-.64L53.61,46H51V44h4a1,1,0,0,1,.81.42,1,1,0,0,1,.14.9Z" style="fill:#fff"/></g></svg>