<svg xmlns="http://www.w3.org/2000/svg" width="80" height="115" viewBox="0 0 80 115"><title>architecture-product-card_AWS_Snowmobile</title><g id="CARDS"><rect x="1" y="1" width="78" height="78" style="fill:#232f3e"/><path d="M0,0V80H0v35H80V80h0V0ZM1,1H79V79H1Z" style="fill:#fff"/></g><g id="TEXT_-_EDIT" data-name="TEXT - EDIT"><path d="M33.69,92.35l-.44-1.82h-2l-.42,1.82H29.06l2.31-7.63h1.87l2.3,7.63Zm-2.18-2.92H33l-.76-3.16Z" style="fill:#232f3e"/><path d="M40.89,92.35,40,86.72l-.89,5.63H37.19l-1.78-7.63h1.7l1.06,6.06L39.08,85h1.84l.94,5.65,1-6h1.66l-1.78,7.63Z" style="fill:#232f3e"/><path d="M46.84,89a3.55,3.55,0,0,1-1.27-1,2,2,0,0,1-.39-1.23,2,2,0,0,1,.34-1.17,2.11,2.11,0,0,1,.92-.77,3.18,3.18,0,0,1,1.34-.27,4.85,4.85,0,0,1,1.89.39v1.17A5.44,5.44,0,0,0,48,85.79a1.24,1.24,0,0,0-.79.23.75.75,0,0,0-.29.64.86.86,0,0,0,.18.56,2.32,2.32,0,0,0,.72.48l.65.32a5.12,5.12,0,0,1,1,.62,2,2,0,0,1,.54.69,2.29,2.29,0,0,1,.17.92,2,2,0,0,1-.74,1.65,3.09,3.09,0,0,1-2,.61,5.35,5.35,0,0,1-1.13-.12,3.76,3.76,0,0,1-.95-.32V90.92a7.29,7.29,0,0,0,1,.25,5.33,5.33,0,0,0,1,.11,1.34,1.34,0,0,0,.88-.25.86.86,0,0,0,.3-.71.84.84,0,0,0-.21-.58,2.47,2.47,0,0,0-.71-.47Z" style="fill:#232f3e"/><path d="M12.53,103a3.7,3.7,0,0,1-1.28-1,2,2,0,0,1-.38-1.23,2,2,0,0,1,.34-1.17,2.11,2.11,0,0,1,.92-.77,3.18,3.18,0,0,1,1.34-.27,4.85,4.85,0,0,1,1.89.39v1.17a5.44,5.44,0,0,0-1.72-.33,1.24,1.24,0,0,0-.79.23.75.75,0,0,0-.29.64.86.86,0,0,0,.18.56,2.32,2.32,0,0,0,.72.48l.65.32a4.73,4.73,0,0,1,1,.62,1.89,1.89,0,0,1,.55.69,2.29,2.29,0,0,1,.17.92,2,2,0,0,1-.74,1.65,3.1,3.1,0,0,1-2,.61,5.52,5.52,0,0,1-1.14-.12,4.06,4.06,0,0,1-1-.32v-1.15a7.85,7.85,0,0,0,1,.25,5.33,5.33,0,0,0,1,.11,1.34,1.34,0,0,0,.88-.25.86.86,0,0,0,.3-.71.84.84,0,0,0-.21-.58,2.47,2.47,0,0,0-.71-.47Z" style="fill:#232f3e"/><path d="M20.06,106.35v-3.7a1.36,1.36,0,0,0-.14-.7.55.55,0,0,0-.5-.22,1.59,1.59,0,0,0-.82.26v4.36H17v-5.63H18.3l.14.51a3.32,3.32,0,0,1,1.84-.65,1.36,1.36,0,0,1,1.07.42,1.83,1.83,0,0,1,.36,1.22v4.13Z" style="fill:#232f3e"/><path d="M25.34,106.49a2.27,2.27,0,0,1-1.84-.77,3.95,3.95,0,0,1,0-4.37,2.27,2.27,0,0,1,1.84-.77,2.29,2.29,0,0,1,1.84.77,4,4,0,0,1,0,4.37A2.29,2.29,0,0,1,25.34,106.49Zm0-1.15a.65.65,0,0,0,.64-.43,4.79,4.79,0,0,0,0-2.74.65.65,0,0,0-.64-.44.67.67,0,0,0-.65.44,5,5,0,0,0,0,2.74A.67.67,0,0,0,25.34,105.34Z" style="fill:#232f3e"/><path d="M33,106.35l-.79-4-.77,4H29.9l-1.55-5.63h1.71l.71,4,.77-4H33l.82,4.23.65-4.23h1.67l-1.57,5.63Z" style="fill:#232f3e"/><path d="M43,106.35v-3.71a1.32,1.32,0,0,0-.14-.69.5.5,0,0,0-.46-.22,1.56,1.56,0,0,0-.8.26.49.49,0,0,1,0,.12v4.24H40v-3.71a1.33,1.33,0,0,0-.13-.69.51.51,0,0,0-.47-.22,1.55,1.55,0,0,0-.78.26v4.36H36.93v-5.63h1.35l.13.51a3.29,3.29,0,0,1,1.81-.65,1.25,1.25,0,0,1,1.2.67,3.38,3.38,0,0,1,1.83-.67,1.3,1.3,0,0,1,1,.42,1.85,1.85,0,0,1,.36,1.22v4.13Z" style="fill:#232f3e"/><path d="M48.28,106.49a2.31,2.31,0,0,1-1.85-.77,4,4,0,0,1,0-4.37,2.6,2.6,0,0,1,3.69,0,4,4,0,0,1,0,4.37A2.29,2.29,0,0,1,48.28,106.49Zm0-1.15a.66.66,0,0,0,.64-.43,4.79,4.79,0,0,0,0-2.74.66.66,0,0,0-.64-.44.67.67,0,0,0-.65.44,4.79,4.79,0,0,0,0,2.74A.67.67,0,0,0,48.28,105.34Z" style="fill:#232f3e"/><path d="M51.93,106.35V98.21h1.65v2.9a1.77,1.77,0,0,1,.61-.39,2,2,0,0,1,.7-.14,1.74,1.74,0,0,1,1.52.73,3.72,3.72,0,0,1,.52,2.15,3.82,3.82,0,0,1-.54,2.2,1.75,1.75,0,0,1-1.52.78,2,2,0,0,1-.77-.16,2,2,0,0,1-.67-.44l-.14.51Zm2.42-4.65a1.27,1.27,0,0,0-.77.25v3.11a1.4,1.4,0,0,0,.78.26.73.73,0,0,0,.71-.42,3.22,3.22,0,0,0,.21-1.37,3.34,3.34,0,0,0-.21-1.41A.74.74,0,0,0,54.35,101.7Z" style="fill:#232f3e"/><path d="M58.94,99.81a1,1,0,0,1-.71-.22A.76.76,0,0,1,58,99a.75.75,0,0,1,.27-.61,1.2,1.2,0,0,1,1.41,0,.77.77,0,0,1,.26.61.79.79,0,0,1-.26.61A1,1,0,0,1,58.94,99.81Zm-.83,6.54v-5.63h1.65v5.63Z" style="fill:#232f3e"/><path d="M63.61,106.25a2.69,2.69,0,0,1-1,.16,1.43,1.43,0,0,1-1.08-.37,1.54,1.54,0,0,1-.35-1.12V98.21h1.65v6.54a.77.77,0,0,0,.07.4.37.37,0,0,0,.32.12,2.14,2.14,0,0,0,.35,0Z" style="fill:#232f3e"/><path d="M65.72,103.92a1.77,1.77,0,0,0,.36,1.12,1.45,1.45,0,0,0,1.06.33,3.11,3.11,0,0,0,.68-.09,6,6,0,0,0,.81-.21v1a3,3,0,0,1-.84.31,4.67,4.67,0,0,1-1,.11c-1.72,0-2.58-1-2.58-2.95a3.37,3.37,0,0,1,.63-2.2,2.23,2.23,0,0,1,1.83-.76c1.36,0,2,.76,2,2.29a4.32,4.32,0,0,1-.12,1Zm.92-2.32c-.58,0-.89.46-.92,1.37h1.62v-.25a1.68,1.68,0,0,0-.17-.86A.59.59,0,0,0,66.64,101.6Z" style="fill:#232f3e"/></g><g id="ICONS_-_EDIT" data-name="ICONS - EDIT"><path d="M50.5,48h-12V46h11V34h-25V46h2v2h-3a1,1,0,0,1-1-1V33a1,1,0,0,1,1-1h27a1,1,0,0,1,1,1V47A1,1,0,0,1,50.5,48Z" style="fill:#fff"/><rect x="31.5" y="46" width="1" height="2" style="fill:#fff"/><rect x="50.5" y="45" width="2" height="2" style="fill:#fff"/><path d="M59.5,47h-2V45h1V40.89A3.91,3.91,0,0,0,54.58,37H49.5V35h5.08a5.91,5.91,0,0,1,5.92,5.89V46A1,1,0,0,1,59.5,47Z" style="fill:#fff"/><path d="M29.5,51a4,4,0,1,1,4-4A4,4,0,0,1,29.5,51Zm0-6a2,2,0,1,0,2,2A2,2,0,0,0,29.5,45Z" style="fill:#fff"/><path d="M35.5,51a4,4,0,1,1,4-4A4,4,0,0,1,35.5,51Zm0-6a2,2,0,1,0,2,2A2,2,0,0,0,35.5,45Z" style="fill:#fff"/><path d="M54.5,51a4,4,0,1,1,4-4A4,4,0,0,1,54.5,51Zm0-6a2,2,0,1,0,2,2A2,2,0,0,0,54.5,45Z" style="fill:#fff"/><rect x="17.5" y="33" width="3" height="2" style="fill:#fff"/><rect x="15.5" y="38" width="5" height="2" style="fill:#fff"/><rect x="16.5" y="43" width="4" height="2" style="fill:#fff"/><path d="M41.5,64A24,24,0,0,1,18.88,48l1.89-.67a22,22,0,1,0,.74-16.5L19.69,30A24,24,0,1,1,41.5,64Z" style="fill:#fff"/></g></svg>