<svg xmlns="http://www.w3.org/2000/svg" width="80" height="115" viewBox="0 0 80 115"><title>architecture-product-card_EC2_Auto_Scaling</title><g id="CARDS"><rect x="1" y="1" width="78" height="78" style="fill:#232f3e"/><path d="M0,0V80H0v35H80V80h0V0ZM1,1H79V79H1Z" style="fill:#fff"/></g><g id="TEXT_-_EDIT" data-name="TEXT - EDIT"><text transform="translate(10.6 92.35) scale(1.1 1)" style="font-size:11px;fill:#232f3e;font-family:AmazonEmberCd-Bold, Amazon Ember Cd;font-weight:700">Amazon <tspan x="37.23" y="0" style="letter-spacing:-0.009970184022669677em">E</tspan><tspan x="42.39" y="0">C2 </tspan><tspan x="-0.66" y="14">Auto Scaling</tspan></text></g><g id="ICONS_-_EDIT" data-name="ICONS - EDIT"><polyline points="33.63 22.36 40 16 46.36 22.36" style="fill:none;stroke:#fff;stroke-linejoin:round;stroke-width:2px"/><line x1="40" y1="16" x2="40" y2="28" style="fill:none;stroke:#fff;stroke-linejoin:round;stroke-width:2px"/><polyline points="33.63 57.64 40 64 46.36 57.64" style="fill:none;stroke:#fff;stroke-linejoin:round;stroke-width:2px"/><line x1="40" y1="64" x2="40" y2="52" style="fill:none;stroke:#fff;stroke-linejoin:round;stroke-width:2px"/><rect x="33" y="33" width="14" height="14" rx="0.69" ry="0.69" transform="translate(80 80) rotate(180)" style="fill:none;stroke:#fff;stroke-linejoin:round;stroke-width:2px"/><line x1="34" y1="30" x2="34" y2="33" style="fill:none;stroke:#fff;stroke-linejoin:round;stroke-width:2px"/><line x1="38" y1="30" x2="38" y2="33" style="fill:none;stroke:#fff;stroke-linejoin:round;stroke-width:2px"/><line x1="42" y1="30" x2="42" y2="33" style="fill:none;stroke:#fff;stroke-linejoin:round;stroke-width:2px"/><line x1="46" y1="30" x2="46" y2="33" style="fill:none;stroke:#fff;stroke-linejoin:round;stroke-width:2px"/><line x1="34" y1="47" x2="34" y2="50" style="fill:none;stroke:#fff;stroke-linejoin:round;stroke-width:2px"/><line x1="38" y1="47" x2="38" y2="50" style="fill:none;stroke:#fff;stroke-linejoin:round;stroke-width:2px"/><line x1="42" y1="47" x2="42" y2="50" style="fill:none;stroke:#fff;stroke-linejoin:round;stroke-width:2px"/><line x1="46" y1="47" x2="46" y2="50" style="fill:none;stroke:#fff;stroke-linejoin:round;stroke-width:2px"/><line x1="30" y1="46" x2="33" y2="46" style="fill:none;stroke:#fff;stroke-linejoin:round;stroke-width:2px"/><line x1="30" y1="42" x2="33" y2="42" style="fill:none;stroke:#fff;stroke-linejoin:round;stroke-width:2px"/><line x1="30" y1="38" x2="33" y2="38" style="fill:none;stroke:#fff;stroke-linejoin:round;stroke-width:2px"/><line x1="30" y1="34" x2="33" y2="34" style="fill:none;stroke:#fff;stroke-linejoin:round;stroke-width:2px"/><line x1="47" y1="46" x2="50" y2="46" style="fill:none;stroke:#fff;stroke-linejoin:round;stroke-width:2px"/><line x1="47" y1="42" x2="50" y2="42" style="fill:none;stroke:#fff;stroke-linejoin:round;stroke-width:2px"/><line x1="47" y1="38" x2="50" y2="38" style="fill:none;stroke:#fff;stroke-linejoin:round;stroke-width:2px"/><line x1="47" y1="34" x2="50" y2="34" style="fill:none;stroke:#fff;stroke-linejoin:round;stroke-width:2px"/><polyline points="20.57 46.43 26.93 40.07 20.57 33.7" style="fill:none;stroke:#fff;stroke-linejoin:round;stroke-width:2px"/><line x1="27" y1="40" x2="15" y2="40" style="fill:none;stroke:#fff;stroke-linejoin:round;stroke-width:2px"/><polyline points="59.43 33.7 53.07 40.07 59.43 46.43" style="fill:none;stroke:#fff;stroke-linejoin:round;stroke-width:2px"/><line x1="53" y1="40" x2="65" y2="40" style="fill:none;stroke:#fff;stroke-linejoin:round;stroke-width:2px"/></g></svg>