<svg xmlns="http://www.w3.org/2000/svg" width="80" height="100" viewBox="0 0 80 100"><title>architecture-product-card_Amazon_Polly</title><g id="CARDS"><rect x="1" y="1" width="78" height="78" style="fill:#232f3e"/><path d="M0,0V80H0v20H80V80h0V0ZM1,1H79V79H1Z" style="fill:#fff"/></g><g id="TEXT_-_EDIT" data-name="TEXT - EDIT"><path d="M11.94,92.35l-.43-1.82h-2l-.42,1.82H7.31l2.32-7.63H11.5l2.3,7.63ZM9.76,89.43h1.49l-.75-3.16Z" style="fill:#232f3e"/><path d="M20.65,92.35V88.64a1.32,1.32,0,0,0-.14-.69.49.49,0,0,0-.46-.22,1.59,1.59,0,0,0-.8.26.5.5,0,0,1,0,.12v4.24H17.62V88.64a1.32,1.32,0,0,0-.14-.69.51.51,0,0,0-.47-.22,1.55,1.55,0,0,0-.78.26v4.36H14.58V86.72h1.35l.13.51a3.31,3.31,0,0,1,1.81-.65,1.25,1.25,0,0,1,1.2.67,3.38,3.38,0,0,1,1.83-.67,1.3,1.3,0,0,1,1,.42,1.85,1.85,0,0,1,.36,1.22v4.13Z" style="fill:#232f3e"/><path d="M26.6,92.35l-.14-.51a1.49,1.49,0,0,1-.59.47,1.85,1.85,0,0,1-.78.18A1.58,1.58,0,0,1,23.9,92a1.91,1.91,0,0,1,.1-2.53A2,2,0,0,1,25.43,89a4,4,0,0,1,.93.13v-.51a1.33,1.33,0,0,0-.16-.78.77.77,0,0,0-.61-.2,5.9,5.9,0,0,0-1.77.35V87a3,3,0,0,1,.92-.33,5.47,5.47,0,0,1,1.15-.12,2.19,2.19,0,0,1,1.52.44,1.82,1.82,0,0,1,.47,1.39v3.94Zm-1-.92a1.17,1.17,0,0,0,.79-.35V90a2.25,2.25,0,0,0-.62-.07.67.67,0,0,0-.54.2.81.81,0,0,0-.19.59.82.82,0,0,0,.15.52A.49.49,0,0,0,25.57,91.43Z" style="fill:#232f3e"/><path d="M28.87,92.35V91.28l2.49-3.4H29V86.72H33.1v1.07l-2.5,3.4h2.55v1.16Z" style="fill:#232f3e"/><path d="M36.39,92.49a2.31,2.31,0,0,1-1.85-.77,4,4,0,0,1,0-4.37,2.6,2.6,0,0,1,3.69,0,4,4,0,0,1,0,4.37A2.29,2.29,0,0,1,36.39,92.49Zm0-1.15a.66.66,0,0,0,.64-.43,4.79,4.79,0,0,0,0-2.74.69.69,0,0,0-1.29,0,4.79,4.79,0,0,0,0,2.74A.67.67,0,0,0,36.39,91.34Z" style="fill:#232f3e"/><path d="M43.14,92.35v-3.7A1.27,1.27,0,0,0,43,88a.54.54,0,0,0-.49-.22,1.57,1.57,0,0,0-.82.26v4.36H40V86.72h1.35l.13.51a3.32,3.32,0,0,1,1.84-.65,1.35,1.35,0,0,1,1.07.42,1.83,1.83,0,0,1,.36,1.22v4.13Z" style="fill:#232f3e"/><path d="M50.49,89.52v2.83H48.84V84.72h2.64a2.43,2.43,0,0,1,1.77.65,2.35,2.35,0,0,1,.65,1.75,2.39,2.39,0,0,1-.65,1.76,2.46,2.46,0,0,1-1.77.64Zm0-1.14h.79a.84.84,0,0,0,.71-.32,1.5,1.5,0,0,0,.25-.94,1.45,1.45,0,0,0-.25-.93.82.82,0,0,0-.71-.32h-.79Z" style="fill:#232f3e"/><path d="M57.17,92.49a2.31,2.31,0,0,1-1.85-.77,4,4,0,0,1,0-4.37,2.6,2.6,0,0,1,3.69,0,4,4,0,0,1,0,4.37A2.29,2.29,0,0,1,57.17,92.49Zm0-1.15a.66.66,0,0,0,.64-.43,4.79,4.79,0,0,0,0-2.74.69.69,0,0,0-1.29,0,4.79,4.79,0,0,0,0,2.74A.67.67,0,0,0,57.17,91.34Z" style="fill:#232f3e"/><path d="M63.21,92.25a2.65,2.65,0,0,1-1,.16A1.43,1.43,0,0,1,61.17,92a1.58,1.58,0,0,1-.35-1.12V84.21h1.65v6.54a.66.66,0,0,0,.08.4.34.34,0,0,0,.31.12,2,2,0,0,0,.35,0Z" style="fill:#232f3e"/><path d="M66.62,92.25a2.69,2.69,0,0,1-1,.16A1.43,1.43,0,0,1,64.58,92a1.54,1.54,0,0,1-.35-1.12V84.21h1.65v6.54a.77.77,0,0,0,.07.4.37.37,0,0,0,.32.12,2.14,2.14,0,0,0,.35,0Z" style="fill:#232f3e"/><path d="M69,92.46l-2-5.74h1.75l.93,4.14.9-4.14h1.7l-2,6.48a2.48,2.48,0,0,1-.67,1.18,1.65,1.65,0,0,1-1.11.36,3.59,3.59,0,0,1-1.06-.16v-1a4.24,4.24,0,0,0,.58,0,1,1,0,0,0,.69-.22,1.27,1.27,0,0,0,.3-.74Z" style="fill:#232f3e"/></g><g id="ICONS_-_EDIT" data-name="ICONS - EDIT"><rect x="40.04" y="27" width="2" height="3" style="fill:#fff"/><path d="M30,54H16a1,1,0,0,1-1-1V45h2v7H30Z" style="fill:#fff"/><path d="M17,40H15V17a1,1,0,0,1,1-1H31v2H17Z" style="fill:#fff"/><path d="M41,28H31a1,1,0,0,1-1-1V17a1,1,0,0,1,1.71-.7l10,10A1,1,0,0,1,41,28Zm-9-2h6.59L32,19.42Z" style="fill:#fff"/><rect x="19.04" y="32.9" width="8" height="2" style="fill:#fff"/><path d="M63.69,66a1.17,1.17,0,0,1-.55-.13l-8.36-4.18A15.88,15.88,0,0,1,31.27,50l2-.27a13.88,13.88,0,0,0,21,9.93,1,1,0,0,1,1,0L62,63.08l-3.43-6.72a1,1,0,0,1,0-1,13.6,13.6,0,0,0,2.21-7.49A13.87,13.87,0,0,0,40.51,35.6l-.94-1.76a15.86,15.86,0,0,1,23.28,14A15.68,15.68,0,0,1,60.63,56l4.19,8.21a1.25,1.25,0,0,1-.22,1.45A1.26,1.26,0,0,1,63.69,66ZM63,65.06h0Z" style="fill:#fff"/><rect x="45.04" y="44" width="2" height="8" style="fill:#fff"/><rect x="48.04" y="43" width="2" height="10" style="fill:#fff"/><rect x="51.04" y="42" width="2" height="12" style="fill:#fff"/><rect x="54.04" y="45" width="2" height="7" style="fill:#fff"/><rect x="39.04" y="44" width="2" height="8" style="fill:#fff"/><rect x="19.04" y="37.9" width="19" height="2" style="fill:#fff"/><rect x="19.04" y="42.9" width="14" height="2" style="fill:#fff"/><rect x="29.04" y="32.9" width="4" height="2" style="fill:#fff"/><rect x="42.04" y="46" width="2" height="4" style="fill:#fff"/><rect x="40.04" y="37.9" width="6" height="2" style="fill:#fff"/></g></svg>