<svg xmlns="http://www.w3.org/2000/svg" width="80" height="100" viewBox="0 0 80 100"><title>Artboard 72</title><g id="CARDS"><rect x="1" y="1" width="78" height="78" style="fill:#232f3e"/><path d="M0,0V80H0v20H80V80h0V0ZM1,1H79V79H1Z" style="fill:#fff"/></g><g id="TEXT_-_EDIT" data-name="TEXT - EDIT"><path d="M11,92.35l-.43-1.82h-2l-.42,1.82H6.35l2.31-7.63h1.87l2.3,7.63ZM8.79,89.43h1.49l-.75-3.16Z" style="fill:#232f3e"/><path d="M18.18,92.35l-.94-5.63-.9,5.63H14.48l-1.79-7.63h1.7l1.06,6.06L16.37,85H18.2l.94,5.65,1-6h1.67L20,92.35Z" style="fill:#232f3e"/><path d="M24.13,89a3.6,3.6,0,0,1-1.28-1,2,2,0,0,1-.39-1.23,2.07,2.07,0,0,1,.34-1.17,2.17,2.17,0,0,1,.92-.77,3.19,3.19,0,0,1,1.35-.27A4.92,4.92,0,0,1,27,85v1.17a5.5,5.5,0,0,0-1.72-.33,1.27,1.27,0,0,0-.8.23.78.78,0,0,0-.29.64.81.81,0,0,0,.19.56,2.09,2.09,0,0,0,.72.48l.65.32a5.33,5.33,0,0,1,1,.62,1.86,1.86,0,0,1,.54.69,2.13,2.13,0,0,1,.18.92,2,2,0,0,1-.74,1.65,3.13,3.13,0,0,1-2.05.61,5.5,5.5,0,0,1-1.13-.12,3.9,3.9,0,0,1-.95-.32V90.92a7.45,7.45,0,0,0,1,.25,5.33,5.33,0,0,0,1,.11,1.32,1.32,0,0,0,.88-.25.86.86,0,0,0,.3-.71.84.84,0,0,0-.21-.58,2.4,2.4,0,0,0-.7-.47Z" style="fill:#232f3e"/><path d="M36.14,92.13a4.63,4.63,0,0,1-1.78.34q-3.37,0-3.38-3.9a4.46,4.46,0,0,1,.88-2.95,3.16,3.16,0,0,1,2.53-1,4.72,4.72,0,0,1,1.65.3v1.21a5.61,5.61,0,0,0-1.44-.23,1.61,1.61,0,0,0-1.4.61,3.29,3.29,0,0,0-.45,1.93v.25a3.26,3.26,0,0,0,.44,1.9,1.55,1.55,0,0,0,1.37.61,7.12,7.12,0,0,0,1.58-.26Z" style="fill:#232f3e"/><path d="M39.37,92.49a2.31,2.31,0,0,1-1.85-.77,4,4,0,0,1,0-4.37,2.6,2.6,0,0,1,3.69,0,4,4,0,0,1,0,4.37A2.29,2.29,0,0,1,39.37,92.49Zm0-1.15a.66.66,0,0,0,.64-.43,4.79,4.79,0,0,0,0-2.74.66.66,0,0,0-.64-.44.67.67,0,0,0-.65.44,4.79,4.79,0,0,0,0,2.74A.67.67,0,0,0,39.37,91.34Z" style="fill:#232f3e"/><path d="M46.27,92.35l-.13-.49a2.2,2.2,0,0,1-.63.43,1.86,1.86,0,0,1-.72.15,1.74,1.74,0,0,1-1.51-.75,3.65,3.65,0,0,1-.54-2.13,3.73,3.73,0,0,1,.56-2.19,1.73,1.73,0,0,1,1.52-.79,2.08,2.08,0,0,1,.64.13,2.52,2.52,0,0,1,.61.33V84.21h1.65v8.14Zm-.93-1a1.4,1.4,0,0,0,.73-.22V88a1.54,1.54,0,0,0-.8-.26.69.69,0,0,0-.67.44,3.39,3.39,0,0,0-.21,1.39,3.05,3.05,0,0,0,.23,1.36A.75.75,0,0,0,45.34,91.32Z" style="fill:#232f3e"/><path d="M50.35,89.92A1.71,1.71,0,0,0,50.72,91a1.43,1.43,0,0,0,1.06.33,3.26,3.26,0,0,0,.68-.09,5.9,5.9,0,0,0,.8-.21v1a2.88,2.88,0,0,1-.83.31,4.77,4.77,0,0,1-1,.11c-1.72,0-2.58-1-2.58-2.95a3.37,3.37,0,0,1,.63-2.2,2.24,2.24,0,0,1,1.83-.76c1.36,0,2,.76,2,2.29a4.32,4.32,0,0,1-.12,1Zm.92-2.32c-.58,0-.88.46-.92,1.37H52v-.25a1.68,1.68,0,0,0-.17-.86A.59.59,0,0,0,51.27,87.6Z" style="fill:#232f3e"/><path d="M55.93,89a3.55,3.55,0,0,1-1.27-1,2,2,0,0,1-.39-1.23,2,2,0,0,1,.34-1.17,2.11,2.11,0,0,1,.92-.77,3.18,3.18,0,0,1,1.34-.27,4.85,4.85,0,0,1,1.89.39v1.17A5.44,5.44,0,0,0,57,85.79a1.24,1.24,0,0,0-.79.23.75.75,0,0,0-.29.64.86.86,0,0,0,.18.56,2.32,2.32,0,0,0,.72.48l.65.32a5.12,5.12,0,0,1,1,.62,2,2,0,0,1,.54.69,2.29,2.29,0,0,1,.17.92,2,2,0,0,1-.74,1.65,3.09,3.09,0,0,1-2,.61,5.35,5.35,0,0,1-1.13-.12,4,4,0,0,1-1-.32V90.92a7.85,7.85,0,0,0,1,.25,5.33,5.33,0,0,0,1,.11A1.34,1.34,0,0,0,57.2,91a.86.86,0,0,0,.3-.71.84.84,0,0,0-.21-.58,2.47,2.47,0,0,0-.71-.47Z" style="fill:#232f3e"/><path d="M63.39,92.2a3.47,3.47,0,0,1-1.23.22,1.47,1.47,0,0,1-1.72-1.7v-2.9H59.7V86.9l.79-.15.24-1.54h1.36v1.51h1.28v1.1H62.09v2.77a.79.79,0,0,0,.14.52.7.7,0,0,0,.53.16,2.86,2.86,0,0,0,.63-.08Z" style="fill:#232f3e"/><path d="M67.17,92.35,67,91.84a1.49,1.49,0,0,1-.59.47,1.85,1.85,0,0,1-.78.18A1.54,1.54,0,0,1,64.48,92,1.66,1.66,0,0,1,64,90.82a1.69,1.69,0,0,1,.53-1.31A2,2,0,0,1,66,89a4,4,0,0,1,.93.13v-.51a1.33,1.33,0,0,0-.16-.78.77.77,0,0,0-.61-.2,5.9,5.9,0,0,0-1.77.35V87a3,3,0,0,1,.92-.33,5.47,5.47,0,0,1,1.15-.12A2.19,2.19,0,0,1,68,87a1.82,1.82,0,0,1,.47,1.39v3.94Zm-1-.92a1.17,1.17,0,0,0,.79-.35V90a2.25,2.25,0,0,0-.62-.07.67.67,0,0,0-.54.2.85.85,0,0,0-.19.59.82.82,0,0,0,.15.52A.49.49,0,0,0,66.14,91.43Z" style="fill:#232f3e"/><path d="M69.85,92.35V86.72H71.2l.18.73a2.5,2.5,0,0,1,.72-.59,1.49,1.49,0,0,1,.75-.19,2.43,2.43,0,0,1,.38,0V88a4.7,4.7,0,0,0-.63,0,2.44,2.44,0,0,0-1.1.26v4.11Z" style="fill:#232f3e"/></g><g id="ICONS_-_EDIT" data-name="ICONS - EDIT"><path d="M34.35,43.77,30,39.54a1,1,0,0,1-.3-.78,1,1,0,0,1,.39-.74L35,34.38l1.2,1.6-3.91,2.94,3.5,3.42Z" style="fill:#fff"/><path d="M44.84,44.45l-1.2-1.6,3.91-2.93-3.5-3.42,1.4-1.44,4.33,4.24a1,1,0,0,1,.3.78,1,1,0,0,1-.39.74Z" style="fill:#fff"/><rect x="32.16" y="39.07" width="15.39" height="2" transform="translate(-12.87 60.44) rotate(-66.28)" style="fill:#fff"/><path d="M51.19,24.36a1.26,1.26,0,0,1-.33-.05l-4.42-1.53.65-1.89L50.19,22V20h2v3.36a1,1,0,0,1-.42.82A1,1,0,0,1,51.19,24.36Z" style="fill:#fff"/><path d="M42.69,26a5.5,5.5,0,1,1,5.5-5.5A5.51,5.51,0,0,1,42.69,26Zm0-9a3.5,3.5,0,1,0,3.5,3.5A3.5,3.5,0,0,0,42.69,17Z" style="fill:#fff"/><path d="M28.79,25.27l-1.31-1.51L30,21.6l-2-1.14,1-1.73,3.19,1.84a1,1,0,0,1,.5.77,1,1,0,0,1-.34.85Z" style="fill:#fff"/><path d="M24.68,33a5.5,5.5,0,1,1,4.77-2.75A5.45,5.45,0,0,1,24.68,33Zm0-9a3.5,3.5,0,0,0-3.39,4.41A3.5,3.5,0,1,0,24.7,24Z" style="fill:#fff"/><path d="M19.91,42.57l-.62-3.21-2,1.14-1-1.73,3.19-1.85a1,1,0,0,1,.92,0,1,1,0,0,1,.56.72l.89,4.59Z" style="fill:#fff"/><path d="M21.7,52a5.51,5.51,0,0,1-4.77-2.75,5.5,5.5,0,0,1,2-7.51h0A5.5,5.5,0,1,1,21.7,52Zm0-9a3.45,3.45,0,0,0-1.74.47h0a3.5,3.5,0,1,0,4.78,1.28A3.51,3.51,0,0,0,21.68,43Z" style="fill:#fff"/><path d="M29.19,60h-2V56.06a1,1,0,0,1,.42-.81,1,1,0,0,1,.91-.13L33,56.65l-.66,1.89-3.11-1.08Z" style="fill:#fff"/><path d="M36.69,65a5.5,5.5,0,1,1,5.5-5.5A5.51,5.51,0,0,1,36.69,65Zm0-9a3.5,3.5,0,1,0,3.5,3.5A3.5,3.5,0,0,0,36.69,56Z" style="fill:#fff"/><path d="M51,60.71l-3.2-1.85a1,1,0,0,1-.5-.77,1,1,0,0,1,.35-.85l3.54-3.08,1.31,1.51L50,57.83,52,59Z" style="fill:#fff"/><path d="M54.68,58a5.5,5.5,0,1,1,4.77-2.75A5.45,5.45,0,0,1,54.68,58Zm0-9a3.5,3.5,0,0,0-3.39,4.41,3.47,3.47,0,0,0,1.63,2.12h0a3.5,3.5,0,1,0,3.5-6.06A3.45,3.45,0,0,0,54.7,49Z" style="fill:#fff"/><path d="M60,42.64a1,1,0,0,1-1-.81l-.89-4.59,2-.38.63,3.22,2-1.15,1,1.73-3.2,1.85A1,1,0,0,1,60,42.64Z" style="fill:#fff"/><path d="M58.7,38a5.51,5.51,0,0,1-4.77-2.75,5.5,5.5,0,0,1,2-7.51A5.5,5.5,0,1,1,58.7,38Zm0-9a3.5,3.5,0,0,0-3,5.25,3.5,3.5,0,1,0,3-5.25Z" style="fill:#fff"/></g></svg>