<svg xmlns="http://www.w3.org/2000/svg" width="80" height="115" viewBox="0 0 80 115"><title>architecture-product-card_AWS_Directory_Service</title><g id="CARDS"><rect x="1" y="1" width="78" height="78" style="fill:#232f3e"/><path d="M0,0V80H0v35H80V80h0V0ZM1,1H79V79H1Z" style="fill:#fff"/></g><g id="TEXT_-_EDIT" data-name="TEXT - EDIT"><path d="M10.19,92.35l-.44-1.82h-2l-.42,1.82H5.56l2.32-7.63H9.74L12,92.35ZM8,89.43H9.5l-.76-3.16Z" style="fill:#232f3e"/><path d="M17.39,92.35l-.94-5.63-.89,5.63H13.69l-1.78-7.63h1.7l1.06,6.06L15.59,85h1.83l.94,5.65,1-6H21l-1.78,7.63Z" style="fill:#232f3e"/><path d="M23.34,89a3.55,3.55,0,0,1-1.27-1,2,2,0,0,1-.39-1.23A2,2,0,0,1,22,85.6a2.11,2.11,0,0,1,.92-.77,3.18,3.18,0,0,1,1.34-.27,4.93,4.93,0,0,1,1.9.39v1.17a5.55,5.55,0,0,0-1.73-.33,1.26,1.26,0,0,0-.79.23.75.75,0,0,0-.29.64.81.81,0,0,0,.19.56,2.14,2.14,0,0,0,.71.48l.65.32a5.12,5.12,0,0,1,1,.62,2,2,0,0,1,.54.69,2.29,2.29,0,0,1,.17.92,2,2,0,0,1-.74,1.65,3.09,3.09,0,0,1-2,.61,5.43,5.43,0,0,1-1.13-.12,3.76,3.76,0,0,1-.95-.32V90.92a7.29,7.29,0,0,0,1,.25,5.42,5.42,0,0,0,1,.11,1.32,1.32,0,0,0,.88-.25.86.86,0,0,0,.3-.71.84.84,0,0,0-.21-.58,2.47,2.47,0,0,0-.71-.47Z" style="fill:#232f3e"/><path d="M30.42,92.35V84.72h2.51a2.93,2.93,0,0,1,2.37,1,5.49,5.49,0,0,1,0,5.69,2.84,2.84,0,0,1-2.32,1ZM32.1,85.9v5.27h.71A1.28,1.28,0,0,0,34,90.55a3.68,3.68,0,0,0,.39-1.91v-.22A3.75,3.75,0,0,0,34,86.51a1.29,1.29,0,0,0-1.19-.61Z" style="fill:#232f3e"/><path d="M38.28,85.81a1.08,1.08,0,0,1-.71-.22.79.79,0,0,1-.26-.61.77.77,0,0,1,.26-.61,1,1,0,0,1,.71-.23,1,1,0,0,1,.7.23.75.75,0,0,1,.27.61.76.76,0,0,1-.27.61A1,1,0,0,1,38.28,85.81Zm-.83,6.54V86.72H39.1v5.63Z" style="fill:#232f3e"/><path d="M40.56,92.35V86.72h1.35l.18.73a2.5,2.5,0,0,1,.72-.59,1.52,1.52,0,0,1,.75-.19,2.56,2.56,0,0,1,.39,0V88a5,5,0,0,0-.64,0,2.47,2.47,0,0,0-1.1.26v4.11Z" style="fill:#232f3e"/><path d="M45.91,89.92A1.66,1.66,0,0,0,46.27,91a1.45,1.45,0,0,0,1.06.33,3.18,3.18,0,0,0,.68-.09,5.54,5.54,0,0,0,.8-.21v1a2.77,2.77,0,0,1-.83.31,4.77,4.77,0,0,1-1,.11c-1.72,0-2.57-1-2.57-2.95a3.37,3.37,0,0,1,.63-2.2,2.22,2.22,0,0,1,1.82-.76c1.37,0,2.05.76,2.05,2.29a4.32,4.32,0,0,1-.12,1Zm.91-2.32c-.57,0-.88.46-.91,1.37h1.61v-.25a1.59,1.59,0,0,0-.17-.86A.58.58,0,0,0,46.82,87.6Z" style="fill:#232f3e"/><path d="M53.69,92.09a2,2,0,0,1-.64.26,3.44,3.44,0,0,1-.8.09,2.3,2.3,0,0,1-1.85-.73,3.29,3.29,0,0,1-.62-2.16,3.16,3.16,0,0,1,.67-2.16,2.34,2.34,0,0,1,1.87-.76,2.93,2.93,0,0,1,1.35.33v1a3.09,3.09,0,0,0-1-.19,1.05,1.05,0,0,0-.93.4,2.29,2.29,0,0,0-.28,1.29v.16a2.32,2.32,0,0,0,.27,1.28,1,1,0,0,0,.91.4,3.22,3.22,0,0,0,1.08-.21Z" style="fill:#232f3e"/><path d="M58,92.2a3.47,3.47,0,0,1-1.23.22,1.8,1.8,0,0,1-1.31-.4,1.77,1.77,0,0,1-.41-1.3v-2.9h-.74V86.9l.78-.15.24-1.54h1.37v1.51H58v1.1H56.72v2.77a.79.79,0,0,0,.14.52.69.69,0,0,0,.53.16,3,3,0,0,0,.63-.08Z" style="fill:#232f3e"/><path d="M61.13,92.49a2.31,2.31,0,0,1-1.85-.77,4,4,0,0,1,0-4.37,2.6,2.6,0,0,1,3.69,0,4,4,0,0,1,0,4.37A2.29,2.29,0,0,1,61.13,92.49Zm0-1.15a.66.66,0,0,0,.64-.43,4.79,4.79,0,0,0,0-2.74.69.69,0,0,0-1.29,0,4.79,4.79,0,0,0,0,2.74A.67.67,0,0,0,61.13,91.34Z" style="fill:#232f3e"/><path d="M64.78,92.35V86.72h1.35l.18.73a2.61,2.61,0,0,1,.71-.59,1.56,1.56,0,0,1,.76-.19l.38,0V88a4.85,4.85,0,0,0-.64,0,2.43,2.43,0,0,0-1.09.26v4.11Z" style="fill:#232f3e"/><path d="M70.71,92.46l-2-5.74h1.74l.93,4.14.9-4.14H74L72,93.2a2.49,2.49,0,0,1-.68,1.18,1.65,1.65,0,0,1-1.11.36,3.69,3.69,0,0,1-1.06-.16v-1a4.24,4.24,0,0,0,.58,0,.94.94,0,0,0,.69-.22,1.27,1.27,0,0,0,.3-.74Z" style="fill:#232f3e"/><path d="M24.73,103a3.7,3.7,0,0,1-1.28-1,2,2,0,0,1-.38-1.23,2.06,2.06,0,0,1,.33-1.17,2.2,2.2,0,0,1,.93-.77,3.14,3.14,0,0,1,1.34-.27,4.88,4.88,0,0,1,1.89.39v1.17a5.44,5.44,0,0,0-1.72-.33,1.29,1.29,0,0,0-.8.23.78.78,0,0,0-.29.64.86.86,0,0,0,.19.56,2.09,2.09,0,0,0,.72.48l.65.32a4.73,4.73,0,0,1,1,.62,1.76,1.76,0,0,1,.54.69,2.13,2.13,0,0,1,.18.92,2,2,0,0,1-.74,1.65,3.12,3.12,0,0,1-2,.61,5.52,5.52,0,0,1-1.14-.12,4.06,4.06,0,0,1-1-.32v-1.15a7.45,7.45,0,0,0,1,.25,5.33,5.33,0,0,0,1,.11A1.31,1.31,0,0,0,26,105a.94.94,0,0,0,.1-1.29,2.62,2.62,0,0,0-.71-.47Z" style="fill:#232f3e"/><path d="M30.37,103.92a1.66,1.66,0,0,0,.36,1.12,1.45,1.45,0,0,0,1.06.33,3.18,3.18,0,0,0,.68-.09,5.54,5.54,0,0,0,.8-.21v1a2.77,2.77,0,0,1-.83.31,4.77,4.77,0,0,1-1,.11c-1.72,0-2.58-1-2.58-2.95a3.37,3.37,0,0,1,.64-2.2,2.22,2.22,0,0,1,1.82-.76c1.37,0,2.05.76,2.05,2.29a4.32,4.32,0,0,1-.12,1Zm.91-2.32c-.57,0-.88.46-.91,1.37H32v-.25a1.59,1.59,0,0,0-.17-.86A.59.59,0,0,0,31.28,101.6Z" style="fill:#232f3e"/><path d="M34.51,106.35v-5.63h1.35l.18.73a2.5,2.5,0,0,1,.72-.59,1.55,1.55,0,0,1,.75-.19,2.56,2.56,0,0,1,.39,0V102a5,5,0,0,0-.64,0,2.47,2.47,0,0,0-1.1.26v4.11Z" style="fill:#232f3e"/><path d="M40.32,106.35l-1.86-5.63h1.75l.89,4,.92-4h1.7l-1.85,5.63Z" style="fill:#232f3e"/><path d="M45.34,99.81a1.08,1.08,0,0,1-.71-.22.75.75,0,0,1-.26-.61.74.74,0,0,1,.26-.61,1,1,0,0,1,.71-.23,1,1,0,0,1,.7.23.75.75,0,0,1,.27.61.76.76,0,0,1-.27.61A1,1,0,0,1,45.34,99.81Zm-.83,6.54v-5.63h1.65v5.63Z" style="fill:#232f3e"/><path d="M51.26,106.09a2,2,0,0,1-.64.26,3.59,3.59,0,0,1-.81.09,2.28,2.28,0,0,1-1.84-.73,3.24,3.24,0,0,1-.63-2.16,3.16,3.16,0,0,1,.67-2.16,2.36,2.36,0,0,1,1.87-.76,2.87,2.87,0,0,1,1.35.33v1a3.08,3.08,0,0,0-1-.19,1,1,0,0,0-.93.4,2.28,2.28,0,0,0-.29,1.29v.16a2.31,2.31,0,0,0,.28,1.28,1,1,0,0,0,.9.4,3.32,3.32,0,0,0,1.09-.21Z" style="fill:#232f3e"/><path d="M53.52,103.92a1.77,1.77,0,0,0,.36,1.12,1.45,1.45,0,0,0,1.06.33,3.26,3.26,0,0,0,.69-.09,6.31,6.31,0,0,0,.8-.21v1a3,3,0,0,1-.83.31,4.77,4.77,0,0,1-1,.11c-1.72,0-2.58-1-2.58-2.95a3.37,3.37,0,0,1,.63-2.2,2.23,2.23,0,0,1,1.83-.76c1.36,0,2,.76,2,2.29a4.32,4.32,0,0,1-.12,1Zm.92-2.32c-.58,0-.88.46-.92,1.37h1.62v-.25a1.68,1.68,0,0,0-.17-.86A.59.59,0,0,0,54.44,101.6Z" style="fill:#232f3e"/></g><g id="ICONS_-_EDIT" data-name="ICONS - EDIT"><path d="M17.76,53.89A3.62,3.62,0,0,1,15,50.36V24.64A3.64,3.64,0,0,1,18.64,21H57.36a3.62,3.62,0,0,1,3.53,2.76L59,24.24A1.63,1.63,0,0,0,57.36,23H18.64A1.65,1.65,0,0,0,17,24.64V50.36A1.63,1.63,0,0,0,18.24,52Z" style="fill:#fff"/><rect x="24" y="43" width="10" height="2" style="fill:#fff"/><rect x="24" y="48" width="7" height="2" style="fill:#fff"/><rect x="32" y="48" width="3" height="2" style="fill:#fff"/><rect x="21" y="36" width="18.03" height="2" style="fill:#fff"/><rect x="59" y="36" width="5" height="2" style="fill:#fff"/><path d="M61.39,59H23.61A3.61,3.61,0,0,1,20,55.39V29.61A3.61,3.61,0,0,1,23.61,26H61.39A3.61,3.61,0,0,1,65,29.61V55.39A3.61,3.61,0,0,1,61.39,59ZM23.61,28A1.61,1.61,0,0,0,22,29.61V55.39A1.61,1.61,0,0,0,23.61,57H61.39A1.61,1.61,0,0,0,63,55.39V29.61A1.61,1.61,0,0,0,61.39,28Z" style="fill:#fff"/><path d="M59,54H40a1,1,0,0,1-1-1V32a1,1,0,0,1,1-1H59a1,1,0,0,1,1,1V53A1,1,0,0,1,59,54ZM41,52H58V33H41Z" style="fill:#fff"/><path d="M59.5,53h-2V51.75A7.73,7.73,0,0,0,52,44.32a5.93,5.93,0,0,1-4.93,0,7.74,7.74,0,0,0-5.53,7.43V53h-2V51.75a9.71,9.71,0,0,1,7.4-9.46,1,1,0,0,1,.72.09,3.93,3.93,0,0,0,3.75,0,1,1,0,0,1,.72-.09,9.72,9.72,0,0,1,7.41,9.46Z" style="fill:#fff"/><path d="M49.44,44.83a5.47,5.47,0,1,1,2.65-.67A5.58,5.58,0,0,1,49.44,44.83Zm0-8.91a3.49,3.49,0,0,0-3.5,3.46,3.45,3.45,0,0,0,1.81,3,3.55,3.55,0,0,0,3.38,0h0a3.43,3.43,0,0,0,1.81-3A3.48,3.48,0,0,0,49.44,35.92Z" style="fill:#fff"/></g></svg>