<svg xmlns="http://www.w3.org/2000/svg" width="80" height="100" viewBox="0 0 80 100"><title>architecture-product-card_AWS_DeepLens</title><g id="CARDS"><rect x="1" y="1" width="78" height="78" style="fill:#232f3e"/><path d="M0,0V80H0v20H80V80h0V0ZM1,1H79V79H1Z" style="fill:#fff"/></g><g id="TEXT_-_EDIT" data-name="TEXT - EDIT"><path d="M9.76,92.35l-.43-1.82h-2l-.42,1.82H5.13l2.32-7.63H9.31l2.31,7.63ZM7.58,89.43H9.07l-.76-3.16Z" style="fill:#232f3e"/><path d="M17,92.35,16,86.72l-.89,5.63H13.27l-1.79-7.63h1.7l1.06,6.06L15.16,85H17l.94,5.65,1-6h1.67l-1.79,7.63Z" style="fill:#232f3e"/><path d="M22.92,89a3.6,3.6,0,0,1-1.28-1,2,2,0,0,1-.39-1.23,2.07,2.07,0,0,1,.34-1.17,2.17,2.17,0,0,1,.92-.77,3.19,3.19,0,0,1,1.35-.27,4.92,4.92,0,0,1,1.89.39v1.17A5.5,5.5,0,0,0,24,85.79a1.26,1.26,0,0,0-.79.23.78.78,0,0,0-.29.64.81.81,0,0,0,.19.56,2.14,2.14,0,0,0,.71.48l.65.32a5.12,5.12,0,0,1,1,.62,2,2,0,0,1,.54.69,2.13,2.13,0,0,1,.18.92,2,2,0,0,1-.75,1.65,3.09,3.09,0,0,1-2,.61,5.43,5.43,0,0,1-1.13-.12,3.9,3.9,0,0,1-.95-.32V90.92a7.68,7.68,0,0,0,1,.25,5.53,5.53,0,0,0,1,.11,1.32,1.32,0,0,0,.88-.25.86.86,0,0,0,.3-.71.84.84,0,0,0-.21-.58,2.4,2.4,0,0,0-.7-.47Z" style="fill:#232f3e"/><path d="M30,92.35V84.72h2.52a2.92,2.92,0,0,1,2.36,1,4.33,4.33,0,0,1,.81,2.84,4.42,4.42,0,0,1-.8,2.85,2.83,2.83,0,0,1-2.31,1Zm1.69-6.45v5.27h.71a1.3,1.3,0,0,0,1.17-.62,3.8,3.8,0,0,0,.38-1.91v-.22a3.75,3.75,0,0,0-.38-1.91,1.29,1.29,0,0,0-1.19-.61Z" style="fill:#232f3e"/><path d="M38.21,89.92A1.66,1.66,0,0,0,38.57,91a1.43,1.43,0,0,0,1.06.33,3.26,3.26,0,0,0,.68-.09,5.9,5.9,0,0,0,.8-.21v1a2.88,2.88,0,0,1-.83.31,4.77,4.77,0,0,1-1,.11c-1.72,0-2.58-1-2.58-2.95a3.37,3.37,0,0,1,.63-2.2,2.24,2.24,0,0,1,1.83-.76c1.36,0,2,.76,2,2.29a4.32,4.32,0,0,1-.12,1Zm.91-2.32c-.58,0-.88.46-.91,1.37h1.61v-.25a1.68,1.68,0,0,0-.17-.86A.59.59,0,0,0,39.12,87.6Z" style="fill:#232f3e"/><path d="M43.57,89.92A1.66,1.66,0,0,0,43.93,91a1.45,1.45,0,0,0,1.06.33,3.26,3.26,0,0,0,.68-.09,5.54,5.54,0,0,0,.8-.21v1a2.77,2.77,0,0,1-.83.31,4.77,4.77,0,0,1-1,.11c-1.72,0-2.58-1-2.58-2.95a3.32,3.32,0,0,1,.64-2.2,2.22,2.22,0,0,1,1.82-.76c1.37,0,2,.76,2,2.29a4.32,4.32,0,0,1-.12,1Zm.91-2.32c-.58,0-.88.46-.91,1.37h1.61v-.25a1.68,1.68,0,0,0-.17-.86A.59.59,0,0,0,44.48,87.6Z" style="fill:#232f3e"/><path d="M47.71,94.61V86.72h1.35l.12.48a2.46,2.46,0,0,1,.71-.45,2.12,2.12,0,0,1,.79-.17,1.75,1.75,0,0,1,1.51.74,3.68,3.68,0,0,1,.52,2.14,3.79,3.79,0,0,1-.55,2.2,1.74,1.74,0,0,1-1.51.78,2.18,2.18,0,0,1-.69-.12,2,2,0,0,1-.6-.35v2.64Zm2.42-6.91a1.27,1.27,0,0,0-.77.25v3.11a1.43,1.43,0,0,0,.79.26.73.73,0,0,0,.7-.42,3.22,3.22,0,0,0,.21-1.37,3.34,3.34,0,0,0-.21-1.41A.74.74,0,0,0,50.13,87.7Z" style="fill:#232f3e"/><path d="M54,92.35V84.72h1.69v6.4h2.84v1.23Z" style="fill:#232f3e"/><path d="M60.48,89.92A1.77,1.77,0,0,0,60.84,91a1.45,1.45,0,0,0,1.06.33,3.18,3.18,0,0,0,.68-.09,6,6,0,0,0,.81-.21v1a3,3,0,0,1-.84.31,4.67,4.67,0,0,1-1,.11c-1.72,0-2.58-1-2.58-2.95a3.37,3.37,0,0,1,.63-2.2,2.23,2.23,0,0,1,1.83-.76c1.36,0,2,.76,2,2.29a4.32,4.32,0,0,1-.12,1Zm.92-2.32c-.58,0-.89.46-.92,1.37H62.1v-.25a1.68,1.68,0,0,0-.17-.86A.6.6,0,0,0,61.4,87.6Z" style="fill:#232f3e"/><path d="M67.73,92.35v-3.7a1.27,1.27,0,0,0-.14-.7.54.54,0,0,0-.49-.22,1.57,1.57,0,0,0-.82.26v4.36H64.63V86.72H66l.13.51A3.32,3.32,0,0,1,68,86.58,1.35,1.35,0,0,1,69,87a1.83,1.83,0,0,1,.37,1.22v4.13Z" style="fill:#232f3e"/><path d="M72.78,90.77c0-.25-.17-.46-.52-.62l-.72-.35a1.7,1.7,0,0,1-1.13-1.59A1.42,1.42,0,0,1,71,87a2.26,2.26,0,0,1,1.47-.45,3.57,3.57,0,0,1,1.53.35v1a4.77,4.77,0,0,0-.7-.19,3,3,0,0,0-.6-.07c-.51,0-.77.18-.77.54s.21.45.64.66l.72.34a1.83,1.83,0,0,1,.77.62,1.69,1.69,0,0,1,.24.93A1.56,1.56,0,0,1,73.71,92a2.28,2.28,0,0,1-1.48.46,3.83,3.83,0,0,1-1.82-.44v-1A5.45,5.45,0,0,0,72,91.4a.86.86,0,0,0,.57-.17A.56.56,0,0,0,72.78,90.77Z" style="fill:#232f3e"/></g><g id="ICONS_-_EDIT" data-name="ICONS - EDIT"><rect x="42" y="14.5" width="2" height="2" style="fill:#fff"/><path d="M48.71,40.5H31.29A3.3,3.3,0,0,1,28,37.21V17.79a3.3,3.3,0,0,1,3.29-3.29H40v2H31.29A1.28,1.28,0,0,0,30,17.79V37.21a1.28,1.28,0,0,0,1.29,1.29H48.71A1.28,1.28,0,0,0,50,37.21V17.79a1.28,1.28,0,0,0-1.29-1.29H46v-2h2.71A3.3,3.3,0,0,1,52,17.79V37.21A3.3,3.3,0,0,1,48.71,40.5Z" style="fill:#fff"/><path d="M40,33.5a6,6,0,1,1,6-6A6,6,0,0,1,40,33.5Zm0-10a4,4,0,1,0,4,4A4,4,0,0,0,40,23.5Z" style="fill:#fff"/><circle cx="40" cy="27.5" r="1.5" style="fill:#fff"/><circle cx="40" cy="53" r="1.5" style="fill:#fff"/><circle cx="40" cy="58" r="1.5" style="fill:#fff"/><circle cx="40" cy="63" r="1.5" style="fill:#fff"/><rect x="32" y="50.5" width="2" height="4" style="fill:#fff"/><rect x="32" y="56.5" width="2" height="8" style="fill:#fff"/><rect x="46" y="52.5" width="2" height="12" style="fill:#fff"/><rect x="30" y="45.5" width="11.92" height="2" style="fill:#fff"/><rect x="44" y="45.5" width="2" height="2" style="fill:#fff"/><rect x="47" y="45.5" width="3" height="2" style="fill:#fff"/><path d="M30,55.5H28V50.71c0-1.82,1.46-9.21,4.52-9.21H35v2H32.52c-.89.17-2.52,4.83-2.52,7.21Z" style="fill:#fff"/><path d="M52,64.5H50V50.71c0-2.38-1.63-7-2.53-7.21H45v-2h2.48c3.07,0,4.52,7.39,4.52,9.21Z" style="fill:#fff"/><polygon points="44 43.5 42 43.5 42 41.5 38 41.5 38 43.5 36 43.5 36 39.5 44 39.5 44 43.5" style="fill:#fff"/></g></svg>