<svg xmlns="http://www.w3.org/2000/svg" width="80" height="115" viewBox="0 0 80 115"><title>architecture-product-card_Amazon_QuickSight</title><g id="CARDS"><rect x="1" y="1" width="78" height="78" style="fill:#232f3e"/><path d="M0,0V80H0v35H80V80h0V0ZM1,1H79V79H1Z" style="fill:#fff"/></g><g id="TEXT_-_EDIT" data-name="TEXT - EDIT"><path d="M25.35,92.35l-.43-1.82h-2l-.42,1.82H20.72L23,84.72H24.9l2.31,7.63Zm-2.18-2.92h1.49l-.76-3.16Z" style="fill:#232f3e"/><path d="M34.06,92.35V88.64a1.32,1.32,0,0,0-.14-.69.49.49,0,0,0-.46-.22,1.59,1.59,0,0,0-.8.26.5.5,0,0,1,0,.12v4.24H31V88.64a1.33,1.33,0,0,0-.13-.69.51.51,0,0,0-.47-.22,1.55,1.55,0,0,0-.78.26v4.36H28V86.72h1.35l.13.51a3.31,3.31,0,0,1,1.81-.65,1.25,1.25,0,0,1,1.2.67,3.38,3.38,0,0,1,1.83-.67,1.3,1.3,0,0,1,1,.42,1.85,1.85,0,0,1,.36,1.22v4.13Z" style="fill:#232f3e"/><path d="M40,92.35l-.14-.51a1.56,1.56,0,0,1-.59.47,1.86,1.86,0,0,1-.79.18A1.57,1.57,0,0,1,37.31,92a1.65,1.65,0,0,1-.43-1.22,1.69,1.69,0,0,1,.53-1.31A2,2,0,0,1,38.84,89a4,4,0,0,1,.93.13v-.51a1.33,1.33,0,0,0-.16-.78.77.77,0,0,0-.61-.2,5.9,5.9,0,0,0-1.77.35V87a3,3,0,0,1,.92-.33,5.47,5.47,0,0,1,1.15-.12,2.19,2.19,0,0,1,1.52.44,1.82,1.82,0,0,1,.47,1.39v3.94Zm-1-.92a1.17,1.17,0,0,0,.79-.35V90a2.3,2.3,0,0,0-.62-.07.67.67,0,0,0-.54.2.81.81,0,0,0-.19.59.82.82,0,0,0,.15.52A.49.49,0,0,0,39,91.43Z" style="fill:#232f3e"/><path d="M42.28,92.35V91.28l2.49-3.4h-2.4V86.72h4.14v1.07L44,91.19h2.54v1.16Z" style="fill:#232f3e"/><path d="M49.79,92.49A2.3,2.3,0,0,1,48,91.72a4,4,0,0,1,0-4.37,2.6,2.6,0,0,1,3.69,0,4,4,0,0,1,0,4.37A2.31,2.31,0,0,1,49.79,92.49Zm0-1.15a.67.67,0,0,0,.65-.43,4.79,4.79,0,0,0,0-2.74.69.69,0,0,0-1.29,0,4.79,4.79,0,0,0,0,2.74A.66.66,0,0,0,49.79,91.34Z" style="fill:#232f3e"/><path d="M56.55,92.35v-3.7a1.36,1.36,0,0,0-.14-.7.55.55,0,0,0-.5-.22,1.56,1.56,0,0,0-.81.26v4.36H53.44V86.72h1.35l.14.51a3.32,3.32,0,0,1,1.84-.65,1.35,1.35,0,0,1,1.07.42,1.83,1.83,0,0,1,.36,1.22v4.13Z" style="fill:#232f3e"/><path d="M14,102.53a4.38,4.38,0,0,1,.88-2.93,3,3,0,0,1,2.47-1,3,3,0,0,1,2.47,1,4.44,4.44,0,0,1,.88,2.93,5,5,0,0,1-.55,2.45,2.87,2.87,0,0,1-1.59,1.34,2.78,2.78,0,0,0,.84.43,4.43,4.43,0,0,0,1.12.22v1.26a5.82,5.82,0,0,1-1.84-.59,5.48,5.48,0,0,1-1.5-1.13,3,3,0,0,1-2.35-1.09A4.56,4.56,0,0,1,14,102.53Zm1.73,0a4.1,4.1,0,0,0,.41,2,1.32,1.32,0,0,0,1.21.7,1.3,1.3,0,0,0,1.2-.7,4,4,0,0,0,.41-2,4.09,4.09,0,0,0-.4-2.06,1.3,1.3,0,0,0-1.21-.67,1.32,1.32,0,0,0-1.22.67A4.21,4.21,0,0,0,15.71,102.53Z" style="fill:#232f3e"/><path d="M25.25,106.35l-.13-.51a3.15,3.15,0,0,1-1.78.65,1.25,1.25,0,0,1-1-.43,2,2,0,0,1-.34-1.24v-4.1h1.65v3.62a1.61,1.61,0,0,0,.13.77.46.46,0,0,0,.44.23,1.37,1.37,0,0,0,.76-.25v-4.37H26.6v5.63Z" style="fill:#232f3e"/><path d="M28.89,99.81a1.08,1.08,0,0,1-.71-.22.79.79,0,0,1-.26-.61.77.77,0,0,1,.26-.61,1,1,0,0,1,.71-.23,1,1,0,0,1,.7.23.75.75,0,0,1,.27.61.76.76,0,0,1-.27.61A1,1,0,0,1,28.89,99.81Zm-.83,6.54v-5.63h1.65v5.63Z" style="fill:#232f3e"/><path d="M34.81,106.09a2,2,0,0,1-.64.26,3.59,3.59,0,0,1-.81.09,2.28,2.28,0,0,1-1.84-.73,3.91,3.91,0,0,1,0-4.32,2.36,2.36,0,0,1,1.88-.76,2.86,2.86,0,0,1,1.34.33v1a3,3,0,0,0-1-.19,1.05,1.05,0,0,0-.93.4,2.28,2.28,0,0,0-.29,1.29v.16a2.31,2.31,0,0,0,.28,1.28,1,1,0,0,0,.9.4,3.27,3.27,0,0,0,1.09-.21Z" style="fill:#232f3e"/><path d="M35.86,106.35V98.21h1.62v5l1.64-2.44H41l-2,2.69,2.17,2.94H39.24l-1.76-2.6v2.6Z" style="fill:#232f3e"/><path d="M43.29,103A3.7,3.7,0,0,1,42,102a2,2,0,0,1-.38-1.23A2,2,0,0,1,42,99.6a2.11,2.11,0,0,1,.92-.77,3.14,3.14,0,0,1,1.34-.27,4.88,4.88,0,0,1,1.89.39v1.17a5.44,5.44,0,0,0-1.72-.33,1.29,1.29,0,0,0-.8.23.78.78,0,0,0-.29.64.86.86,0,0,0,.19.56,2.2,2.2,0,0,0,.72.48l.65.32a4.73,4.73,0,0,1,1,.62,1.76,1.76,0,0,1,.54.69,2.13,2.13,0,0,1,.18.92,2,2,0,0,1-.74,1.65,3.12,3.12,0,0,1-2,.61,5.52,5.52,0,0,1-1.14-.12,4.06,4.06,0,0,1-.95-.32v-1.15a7.85,7.85,0,0,0,1,.25,5.33,5.33,0,0,0,1,.11,1.36,1.36,0,0,0,.88-.25.86.86,0,0,0,.3-.71.84.84,0,0,0-.21-.58,2.47,2.47,0,0,0-.71-.47Z" style="fill:#232f3e"/><path d="M48.58,99.81a1.06,1.06,0,0,1-.71-.22A.76.76,0,0,1,47.6,99a.75.75,0,0,1,.27-.61,1.2,1.2,0,0,1,1.41,0,.77.77,0,0,1,.26.61.79.79,0,0,1-.26.61A1,1,0,0,1,48.58,99.81Zm-.83,6.54v-5.63H49.4v5.63Z" style="fill:#232f3e"/><path d="M53.76,105.71a1.72,1.72,0,0,1-2.66-.21,3.46,3.46,0,0,1-.52-2,3.6,3.6,0,0,1,.54-2.11,1.68,1.68,0,0,1,1.46-.77,1.75,1.75,0,0,1,.7.17,1.89,1.89,0,0,1,.64.45l.12-.48h1.35V106c0,1.86-.86,2.79-2.57,2.79A3.92,3.92,0,0,1,51,108.3v-1a5.45,5.45,0,0,0,1.61.35,1.45,1.45,0,0,0,.7-.13.72.72,0,0,0,.35-.44,3.19,3.19,0,0,0,.11-1Zm-.66-.6a1.26,1.26,0,0,0,.66-.22V102a1.32,1.32,0,0,0-.74-.27.63.63,0,0,0-.6.42,3.23,3.23,0,0,0-.19,1.3,3,3,0,0,0,.21,1.28A.7.7,0,0,0,53.1,105.11Z" style="fill:#232f3e"/><path d="M59.92,106.35v-3.7a1.25,1.25,0,0,0-.15-.7.53.53,0,0,0-.49-.22,1.59,1.59,0,0,0-.82.26v4.36H56.81V98.21h1.65v2.91a3.19,3.19,0,0,1,1.67-.54,1.35,1.35,0,0,1,1.07.42,1.83,1.83,0,0,1,.37,1.22v4.13Z" style="fill:#232f3e"/><path d="M66,106.2a3.47,3.47,0,0,1-1.23.22,1.47,1.47,0,0,1-1.72-1.7v-2.9h-.74v-.92l.79-.15.24-1.54H64.7v1.51H66v1.1H64.7v2.77a.79.79,0,0,0,.14.52.7.7,0,0,0,.53.16,2.94,2.94,0,0,0,.63-.08Z" style="fill:#232f3e"/></g><g id="ICONS_-_EDIT" data-name="ICONS - EDIT"><path d="M63.08,64.08H16.92a1,1,0,0,1-1-1V58.27h2v3.81H62.08V30.38h2v32.7A1,1,0,0,1,63.08,64.08Z" style="fill:#fff"/><path d="M17.92,46.73h-2V16.92a1,1,0,0,1,1-1H63.08a1,1,0,0,1,1,1v1.93h-2v-.93H17.92Z" style="fill:#fff"/><rect x="16.22" y="40.61" width="24.92" height="2" transform="translate(-20.98 32.26) rotate(-44.76)" style="fill:#fff"/><rect x="39" y="34.23" width="2" height="9.62" style="fill:#fff"/><rect x="38.2" y="34.57" width="25.53" height="2" transform="translate(-10.13 46.96) rotate(-45.47)" style="fill:#fff"/><path d="M17.88,56.38a3.88,3.88,0,1,1,3.89-3.88A3.88,3.88,0,0,1,17.88,56.38Zm0-5.76a1.88,1.88,0,1,0,1.89,1.88A1.88,1.88,0,0,0,17.88,50.62Z" style="fill:#fff"/><path d="M40,35.23a3.89,3.89,0,1,1,3.88-3.88A3.88,3.88,0,0,1,40,35.23Zm0-5.77a1.89,1.89,0,1,0,1.88,1.89A1.89,1.89,0,0,0,40,29.46Z" style="fill:#fff"/><path d="M40,50.62a3.89,3.89,0,1,1,3.88-3.89A3.89,3.89,0,0,1,40,50.62Zm0-5.77a1.89,1.89,0,1,0,1.88,1.88A1.88,1.88,0,0,0,40,44.85Z" style="fill:#fff"/><path d="M62.12,28.5A3.89,3.89,0,1,1,66,24.62,3.89,3.89,0,0,1,62.12,28.5Zm0-5.77A1.89,1.89,0,1,0,64,24.62,1.89,1.89,0,0,0,62.12,22.73Z" style="fill:#fff"/></g></svg>