<svg xmlns="http://www.w3.org/2000/svg" width="80" height="115" viewBox="0 0 80 115"><title>architecture-product-card_Amazon_DynamoDB</title><g id="CARDS"><rect x="1" y="1" width="78" height="78" style="fill:#232f3e"/><path d="M0,0V80H0v35H80V80h0V0ZM1,1H79V79H1Z" style="fill:#fff"/></g><g id="TEXT_-_EDIT" data-name="TEXT - EDIT"><path d="M25.35,92.35l-.43-1.82h-2l-.42,1.82H20.72L23,84.72H24.9l2.31,7.63Zm-2.18-2.92h1.49l-.76-3.16Z" style="fill:#232f3e"/><path d="M34.06,92.35V88.64a1.32,1.32,0,0,0-.14-.69.49.49,0,0,0-.46-.22,1.59,1.59,0,0,0-.8.26.5.5,0,0,1,0,.12v4.24H31V88.64a1.33,1.33,0,0,0-.13-.69.51.51,0,0,0-.47-.22,1.55,1.55,0,0,0-.78.26v4.36H28V86.72h1.35l.13.51a3.31,3.31,0,0,1,1.81-.65,1.25,1.25,0,0,1,1.2.67,3.38,3.38,0,0,1,1.83-.67,1.3,1.3,0,0,1,1,.42,1.85,1.85,0,0,1,.36,1.22v4.13Z" style="fill:#232f3e"/><path d="M40,92.35l-.14-.51a1.56,1.56,0,0,1-.59.47,1.86,1.86,0,0,1-.79.18A1.57,1.57,0,0,1,37.31,92a1.65,1.65,0,0,1-.43-1.22,1.69,1.69,0,0,1,.53-1.31A2,2,0,0,1,38.84,89a4,4,0,0,1,.93.13v-.51a1.33,1.33,0,0,0-.16-.78.77.77,0,0,0-.61-.2,5.9,5.9,0,0,0-1.77.35V87a3,3,0,0,1,.92-.33,5.47,5.47,0,0,1,1.15-.12,2.19,2.19,0,0,1,1.52.44,1.82,1.82,0,0,1,.47,1.39v3.94Zm-1-.92a1.17,1.17,0,0,0,.79-.35V90a2.3,2.3,0,0,0-.62-.07.67.67,0,0,0-.54.2.81.81,0,0,0-.19.59.82.82,0,0,0,.15.52A.49.49,0,0,0,39,91.43Z" style="fill:#232f3e"/><path d="M42.28,92.35V91.28l2.49-3.4h-2.4V86.72h4.14v1.07L44,91.19h2.54v1.16Z" style="fill:#232f3e"/><path d="M49.79,92.49A2.3,2.3,0,0,1,48,91.72a4,4,0,0,1,0-4.37,2.6,2.6,0,0,1,3.69,0,4,4,0,0,1,0,4.37A2.31,2.31,0,0,1,49.79,92.49Zm0-1.15a.67.67,0,0,0,.65-.43,4.79,4.79,0,0,0,0-2.74.69.69,0,0,0-1.29,0,4.79,4.79,0,0,0,0,2.74A.66.66,0,0,0,49.79,91.34Z" style="fill:#232f3e"/><path d="M56.55,92.35v-3.7a1.36,1.36,0,0,0-.14-.7.55.55,0,0,0-.5-.22,1.56,1.56,0,0,0-.81.26v4.36H53.44V86.72h1.35l.14.51a3.32,3.32,0,0,1,1.84-.65,1.35,1.35,0,0,1,1.07.42,1.83,1.83,0,0,1,.36,1.22v4.13Z" style="fill:#232f3e"/><path d="M14.24,106.35V98.72h2.51a2.93,2.93,0,0,1,2.37,1,5.49,5.49,0,0,1,0,5.69,2.84,2.84,0,0,1-2.32,1Zm1.68-6.45v5.27h.71a1.28,1.28,0,0,0,1.17-.62,3.68,3.68,0,0,0,.39-1.91v-.22a3.75,3.75,0,0,0-.38-1.91,1.29,1.29,0,0,0-1.19-.61Z" style="fill:#232f3e"/><path d="M22.56,106.46l-2-5.74h1.75l.93,4.14.9-4.14h1.7l-2,6.48a2.4,2.4,0,0,1-.67,1.18,1.65,1.65,0,0,1-1.11.36,3.64,3.64,0,0,1-1.06-.16v-1a4.24,4.24,0,0,0,.58,0,1,1,0,0,0,.69-.22,1.27,1.27,0,0,0,.3-.74Z" style="fill:#232f3e"/><path d="M29.72,106.35v-3.7a1.25,1.25,0,0,0-.15-.7.53.53,0,0,0-.49-.22,1.59,1.59,0,0,0-.82.26v4.36H26.61v-5.63H28l.13.51a3.35,3.35,0,0,1,1.85-.65A1.33,1.33,0,0,1,31,101a1.78,1.78,0,0,1,.37,1.22v4.13Z" style="fill:#232f3e"/><path d="M35.67,106.35l-.15-.51a1.42,1.42,0,0,1-.59.47,1.78,1.78,0,0,1-.78.18A1.56,1.56,0,0,1,33,106a1.91,1.91,0,0,1,.1-2.53A2,2,0,0,1,34.5,103a4,4,0,0,1,.93.13v-.51a1.42,1.42,0,0,0-.16-.78.78.78,0,0,0-.61-.2,5.9,5.9,0,0,0-1.77.35v-1a2.9,2.9,0,0,1,.91-.33,5.57,5.57,0,0,1,1.16-.12,2.21,2.21,0,0,1,1.52.44,1.82,1.82,0,0,1,.47,1.39v3.94Zm-1-.92a1.19,1.19,0,0,0,.8-.35V104a2.38,2.38,0,0,0-.63-.07.66.66,0,0,0-.53.2.81.81,0,0,0-.19.59.82.82,0,0,0,.15.52A.47.47,0,0,0,34.63,105.43Z" style="fill:#232f3e"/><path d="M44.42,106.35v-3.71a1.32,1.32,0,0,0-.14-.69.5.5,0,0,0-.47-.22A1.56,1.56,0,0,0,43,102a.49.49,0,0,1,0,.12v4.24H41.38v-3.71a1.32,1.32,0,0,0-.14-.69.5.5,0,0,0-.46-.22A1.56,1.56,0,0,0,40,102v4.36H38.34v-5.63h1.35l.14.51a3.28,3.28,0,0,1,1.8-.65,1.27,1.27,0,0,1,1.21.67,3.38,3.38,0,0,1,1.83-.67,1.31,1.31,0,0,1,1,.42,1.85,1.85,0,0,1,.36,1.22v4.13Z" style="fill:#232f3e"/><path d="M49.69,106.49a2.29,2.29,0,0,1-1.84-.77,4,4,0,0,1,0-4.37,2.6,2.6,0,0,1,3.69,0,4,4,0,0,1,0,4.37A2.31,2.31,0,0,1,49.69,106.49Zm0-1.15a.67.67,0,0,0,.65-.43,4.79,4.79,0,0,0,0-2.74.67.67,0,0,0-.65-.44.66.66,0,0,0-.64.44,4.79,4.79,0,0,0,0,2.74A.66.66,0,0,0,49.69,105.34Z" style="fill:#232f3e"/><path d="M53.45,106.35V98.72H56a2.91,2.91,0,0,1,2.36,1,4.33,4.33,0,0,1,.81,2.84,4.42,4.42,0,0,1-.8,2.85,2.83,2.83,0,0,1-2.31,1Zm1.69-6.45v5.27h.71a1.3,1.3,0,0,0,1.17-.62,3.8,3.8,0,0,0,.38-1.91v-.22a3.65,3.65,0,0,0-.38-1.91,1.28,1.28,0,0,0-1.18-.61Z" style="fill:#232f3e"/><path d="M60.56,106.35V98.72h2.52a2.43,2.43,0,0,1,1.64.56,1.89,1.89,0,0,1,.63,1.47,1.83,1.83,0,0,1-.25,1,1.58,1.58,0,0,1-.73.61,1.93,1.93,0,0,1,1,.68,2.12,2.12,0,0,1-.35,2.74,2.83,2.83,0,0,1-1.87.59Zm1.59-6.53v2.11h.67a.85.85,0,0,0,.67-.27,1.13,1.13,0,0,0,.24-.77,1.3,1.3,0,0,0-.21-.79.72.72,0,0,0-.59-.28Zm0,3.16v2.27h1a.9.9,0,0,0,.71-.29,1.28,1.28,0,0,0,.25-.84,1.15,1.15,0,0,0-.28-.84A1,1,0,0,0,63,103Z" style="fill:#232f3e"/></g><g id="ICONS_-_EDIT" data-name="ICONS - EDIT"><path d="M38.75,29c-8.24,0-17-2.44-17-7s8.76-7,17-7a33.79,33.79,0,0,1,12.22,2l-.76,1.85A31.87,31.87,0,0,0,38.75,17c-8.58,0-15,2.62-15,5s6.42,5,15,5h.71l.08,2Z" style="fill:#fff"/><path d="M36.73,36.92c-5.16-.23-9.67-1.35-12.37-3.07C22.22,32.46,21.76,31,21.75,30l2,0v0c0,.67.61,1.43,1.69,2.14,2.37,1.51,6.63,2.54,11.38,2.76Z" style="fill:#fff"/><path d="M54.75,59a1,1,0,0,1-1-1V50a1,1,0,0,1,2,0v8A1,1,0,0,1,54.75,59Z" style="fill:#fff"/><path d="M22.75,31a1,1,0,0,1-1-1V22a1,1,0,1,1,2,0v8A1,1,0,0,1,22.75,31Z" style="fill:#fff"/><path d="M38.75,43c-8.24,0-17-2.44-17-7,0-1,.45-2.45,2.61-3.84l1.08,1.69c-.77.49-1.69,1.27-1.69,2.15,0,2.34,6.42,5,15,5,.87,0,1.73,0,2.57-.08l.14,2C40.58,42.93,39.67,43,38.75,43Z" style="fill:#fff"/><path d="M39.14,51h-.39c-6,0-11.32-1.16-14.39-3.12C22.22,46.46,21.76,45,21.75,44l2,0c0,.7.61,1.46,1.69,2.17C28.15,47.9,33.25,49,38.75,49h.39Z" style="fill:#fff"/><path d="M51.17,48.86,50.41,47a9.61,9.61,0,0,0,1.64-.84c.78-.51,1.7-1.29,1.7-2.16h2c0,1.41-.87,2.7-2.6,3.83A11.78,11.78,0,0,1,51.17,48.86Z" style="fill:#fff"/><path d="M22.75,45a1,1,0,0,1-1-1V36a1,1,0,0,1,2,0v8A1,1,0,0,1,22.75,45Z" style="fill:#fff"/><path d="M38.75,57c-8.24,0-17-2.44-17-7,0-1,.45-2.44,2.61-3.83l1.08,1.69c-.77.49-1.69,1.27-1.69,2.14,0,2.35,6.42,5,15,5s15-2.62,15-5c0-.87-.92-1.65-1.69-2.14l1.08-1.69C55.3,47.55,55.75,49,55.75,50,55.75,54.52,47,57,38.75,57Z" style="fill:#fff"/><path d="M38.75,65c-8.24,0-17-2.44-17-7h2c0,2.34,6.42,5,15,5s15-2.62,15-5h2C55.75,62.53,47,65,38.75,65Z" style="fill:#fff"/><path d="M22.75,59a1,1,0,0,1-1-1V50a1,1,0,0,1,2,0v8A1,1,0,0,1,22.75,59Z" style="fill:#fff"/><circle cx="26.75" cy="30.02" r="1.25" style="fill:#fff"/><circle cx="26.75" cy="44.02" r="1.25" style="fill:#fff"/><circle cx="26.75" cy="58.02" r="1.25" style="fill:#fff"/><path d="M41.25,54a1,1,0,0,1-.5-.13,1,1,0,0,1-.46-1.15L45.91,34H40.25a1,1,0,0,1-.85-.47,1,1,0,0,1,0-1l6-12a1,1,0,0,1,.89-.56h13a1,1,0,0,1,1,1.32L57.64,29h5.61a1,1,0,0,1,.92.61,1,1,0,0,1-.2,1.08l-22,23A1,1,0,0,1,41.25,54Zm.62-22h5.38a1,1,0,0,1,1,1.29l-4.81,16L60.91,31H56.25a1,1,0,0,1-1-1.31L57.86,22h-11Z" style="fill:#fff"/></g></svg>