<svg xmlns="http://www.w3.org/2000/svg" width="80" height="115" viewBox="0 0 80 115"><title>architecture-product-card_AWS_Managed_Services</title><g id="CARDS"><rect x="1" y="1" width="78" height="78" style="fill:#232f3e"/><path d="M0,0V80H0v35H80V80h0V0ZM1,1H79V79H1Z" style="fill:#fff"/></g><g id="TEXT_-_EDIT" data-name="TEXT - EDIT"><path d="M10.6,92.35l-.44-1.82h-2l-.42,1.82H6l2.32-7.63h1.86l2.3,7.63ZM8.42,89.43H9.91l-.76-3.16Z" style="fill:#232f3e"/><path d="M17.8,92.35l-.94-5.63L16,92.35H14.1l-1.78-7.63H14l1.06,6.06L16,85h1.83l.94,5.65,1-6h1.66l-1.78,7.63Z" style="fill:#232f3e"/><path d="M23.75,89a3.55,3.55,0,0,1-1.27-1,2,2,0,0,1-.39-1.23,2,2,0,0,1,.34-1.17,2.11,2.11,0,0,1,.92-.77,3.18,3.18,0,0,1,1.34-.27,4.93,4.93,0,0,1,1.9.39v1.17a5.5,5.5,0,0,0-1.73-.33,1.26,1.26,0,0,0-.79.23.75.75,0,0,0-.29.64.81.81,0,0,0,.19.56,2.14,2.14,0,0,0,.71.48l.65.32a5.12,5.12,0,0,1,1,.62,2,2,0,0,1,.54.69,2.27,2.27,0,0,1,.17.91,2,2,0,0,1-.74,1.66,3.09,3.09,0,0,1-2,.61,5.43,5.43,0,0,1-1.13-.12,3.76,3.76,0,0,1-.95-.32V90.92a7.29,7.29,0,0,0,1,.25,5.42,5.42,0,0,0,1,.11A1.32,1.32,0,0,0,25,91a.86.86,0,0,0,.3-.71.84.84,0,0,0-.21-.58,2.47,2.47,0,0,0-.71-.47Z" style="fill:#232f3e"/><path d="M36.57,92.35V87l-1.41,3.46H33.73L32.33,87v5.32h-1.5V84.72h1.92L34.48,89l1.72-4.27h1.88v7.63Z" style="fill:#232f3e"/><path d="M42.51,92.35l-.14-.51a1.56,1.56,0,0,1-.59.47,1.86,1.86,0,0,1-.79.18A1.57,1.57,0,0,1,39.81,92a1.65,1.65,0,0,1-.43-1.22,1.69,1.69,0,0,1,.53-1.31A2,2,0,0,1,41.34,89a4.11,4.11,0,0,1,.93.14v-.51a1.33,1.33,0,0,0-.16-.78.77.77,0,0,0-.61-.2,5.9,5.9,0,0,0-1.77.35V87a3,3,0,0,1,.92-.33,5.47,5.47,0,0,1,1.15-.12,2.19,2.19,0,0,1,1.52.44,1.82,1.82,0,0,1,.47,1.39v3.94Zm-1-.92a1.22,1.22,0,0,0,.79-.35V90a2.3,2.3,0,0,0-.62-.07.67.67,0,0,0-.54.2.81.81,0,0,0-.19.59.82.82,0,0,0,.15.52A.49.49,0,0,0,41.48,91.43Z" style="fill:#232f3e"/><path d="M48.3,92.35v-3.7a1.32,1.32,0,0,0-.15-.71.56.56,0,0,0-.49-.21,1.57,1.57,0,0,0-.82.26v4.36H45.19V86.72h1.35l.13.51a3.35,3.35,0,0,1,1.84-.65,1.35,1.35,0,0,1,1.07.42A1.83,1.83,0,0,1,50,88.22v4.13Z" style="fill:#232f3e"/><path d="M54.25,92.35l-.15-.51a1.42,1.42,0,0,1-.59.47,1.85,1.85,0,0,1-.78.18A1.56,1.56,0,0,1,51.55,92a1.66,1.66,0,0,1-.44-1.22,1.69,1.69,0,0,1,.53-1.31A2.09,2.09,0,0,1,53.08,89a4.11,4.11,0,0,1,.93.14v-.51a1.32,1.32,0,0,0-.17-.78.77.77,0,0,0-.61-.2,5.9,5.9,0,0,0-1.77.35V87a3.07,3.07,0,0,1,.92-.33,5.57,5.57,0,0,1,1.16-.12,2.18,2.18,0,0,1,1.51.44,1.78,1.78,0,0,1,.47,1.39v3.94Zm-1-.92a1.24,1.24,0,0,0,.8-.35V90a2.38,2.38,0,0,0-.63-.07.69.69,0,0,0-.54.2.85.85,0,0,0-.18.59.82.82,0,0,0,.15.52A.47.47,0,0,0,53.21,91.43Z" style="fill:#232f3e"/><path d="M59.82,91.71a1.64,1.64,0,0,1-1.21.52,1.67,1.67,0,0,1-1.44-.73,3.46,3.46,0,0,1-.53-2,3.6,3.6,0,0,1,.54-2.11,1.71,1.71,0,0,1,1.46-.77,1.79,1.79,0,0,1,.71.17,2,2,0,0,1,.63.45l.12-.48h1.35V92c0,1.86-.85,2.79-2.56,2.79a3.93,3.93,0,0,1-1.84-.44v-1a5.5,5.5,0,0,0,1.62.35,1.48,1.48,0,0,0,.7-.13.76.76,0,0,0,.35-.44,3.26,3.26,0,0,0,.1-1Zm-.66-.6a1.26,1.26,0,0,0,.66-.22V88a1.32,1.32,0,0,0-.73-.27.63.63,0,0,0-.6.42,3.2,3.2,0,0,0-.2,1.3,2.75,2.75,0,0,0,.22,1.27A.68.68,0,0,0,59.16,91.11Z" style="fill:#232f3e"/><path d="M64.09,89.91A1.67,1.67,0,0,0,64.45,91a1.45,1.45,0,0,0,1.06.33,3.18,3.18,0,0,0,.68-.09,5.54,5.54,0,0,0,.8-.21v1a2.77,2.77,0,0,1-.83.31,4.77,4.77,0,0,1-1,.11c-1.72,0-2.57-1-2.57-2.95a3.37,3.37,0,0,1,.63-2.2,2.22,2.22,0,0,1,1.82-.76c1.37,0,2,.76,2,2.29a4.18,4.18,0,0,1-.12,1ZM65,87.6c-.57,0-.88.46-.91,1.37H65.7v-.25a1.56,1.56,0,0,0-.17-.86A.58.58,0,0,0,65,87.6Z" style="fill:#232f3e"/><path d="M71.49,92.35l-.14-.49a2,2,0,0,1-.63.43,1.82,1.82,0,0,1-.72.15,1.75,1.75,0,0,1-1.51-.75,4.59,4.59,0,0,1,0-4.32A1.76,1.76,0,0,1,70,86.58a2,2,0,0,1,.63.13,2.35,2.35,0,0,1,.61.33V84.21h1.65v8.14Zm-.93-1a1.34,1.34,0,0,0,.72-.22V88a1.51,1.51,0,0,0-.79-.26.7.7,0,0,0-.68.44,3.6,3.6,0,0,0-.2,1.39,2.92,2.92,0,0,0,.23,1.36A.75.75,0,0,0,70.56,91.32Z" style="fill:#232f3e"/><path d="M22.52,103a3.55,3.55,0,0,1-1.27-1,2,2,0,0,1-.39-1.23,2.07,2.07,0,0,1,.34-1.17,2.11,2.11,0,0,1,.92-.77,3.18,3.18,0,0,1,1.34-.27,4.93,4.93,0,0,1,1.9.39v1.17a5.5,5.5,0,0,0-1.73-.33,1.26,1.26,0,0,0-.79.23.78.78,0,0,0-.29.64.81.81,0,0,0,.19.56,2.14,2.14,0,0,0,.71.48l.65.32a5.12,5.12,0,0,1,1,.62,2,2,0,0,1,.54.69,2.11,2.11,0,0,1,.17.91,2,2,0,0,1-.74,1.66,3.09,3.09,0,0,1-2,.61,5.43,5.43,0,0,1-1.13-.12,3.76,3.76,0,0,1-.95-.32v-1.15a7.29,7.29,0,0,0,1,.25,5.53,5.53,0,0,0,1,.11,1.32,1.32,0,0,0,.88-.25.86.86,0,0,0,.3-.71.84.84,0,0,0-.21-.58,2.54,2.54,0,0,0-.7-.47Z" style="fill:#232f3e"/><path d="M28.16,103.91a1.78,1.78,0,0,0,.36,1.13,1.47,1.47,0,0,0,1.07.33,3.26,3.26,0,0,0,.68-.09,6.31,6.31,0,0,0,.8-.21v1a3,3,0,0,1-.83.31,4.77,4.77,0,0,1-1,.11c-1.72,0-2.58-1-2.58-2.95a3.37,3.37,0,0,1,.63-2.2,2.23,2.23,0,0,1,1.83-.76c1.36,0,2.05.76,2.05,2.29a4.18,4.18,0,0,1-.12,1Zm.92-2.31c-.58,0-.88.46-.92,1.37h1.62v-.25a1.66,1.66,0,0,0-.17-.86A.59.59,0,0,0,29.08,101.6Z" style="fill:#232f3e"/><path d="M32.31,106.35v-5.63h1.35l.18.73a2.5,2.5,0,0,1,.72-.59,1.49,1.49,0,0,1,.75-.19,2.43,2.43,0,0,1,.38,0V102a4.7,4.7,0,0,0-.63,0,2.44,2.44,0,0,0-1.1.26v4.11Z" style="fill:#232f3e"/><path d="M38.11,106.35l-1.85-5.63H38l.89,4,.91-4h1.7l-1.84,5.63Z" style="fill:#232f3e"/><path d="M43.14,99.81a1,1,0,0,1-.71-.22.76.76,0,0,1-.27-.61.78.78,0,0,1,.27-.62,1.24,1.24,0,0,1,1.41,0,.81.81,0,0,1,.26.62.79.79,0,0,1-.26.61A1,1,0,0,1,43.14,99.81Zm-.83,6.54v-5.63H44v5.63Z" style="fill:#232f3e"/><path d="M49.05,106.09a2,2,0,0,1-.64.26,3.44,3.44,0,0,1-.8.09,2.3,2.3,0,0,1-1.85-.73,3.29,3.29,0,0,1-.62-2.16,3.16,3.16,0,0,1,.67-2.16,2.34,2.34,0,0,1,1.87-.76A2.81,2.81,0,0,1,49,101v1a3.09,3.09,0,0,0-1-.19,1.05,1.05,0,0,0-.93.4,2.29,2.29,0,0,0-.28,1.29v.16a2.32,2.32,0,0,0,.27,1.28,1,1,0,0,0,.91.4,3.22,3.22,0,0,0,1.08-.21Z" style="fill:#232f3e"/><path d="M51.32,103.91a1.67,1.67,0,0,0,.36,1.13,1.45,1.45,0,0,0,1.06.33,3.26,3.26,0,0,0,.68-.09,5.54,5.54,0,0,0,.8-.21v1a2.77,2.77,0,0,1-.83.31,4.77,4.77,0,0,1-1,.11c-1.72,0-2.58-1-2.58-2.95a3.32,3.32,0,0,1,.64-2.2,2.22,2.22,0,0,1,1.82-.76c1.37,0,2,.76,2,2.29a4.18,4.18,0,0,1-.12,1Zm.91-2.31c-.58,0-.88.46-.91,1.37h1.61v-.25a1.56,1.56,0,0,0-.17-.86A.59.59,0,0,0,52.23,101.6Z" style="fill:#232f3e"/><path d="M57.46,104.77c0-.25-.17-.46-.52-.62l-.72-.35a1.7,1.7,0,0,1-1.13-1.59,1.42,1.42,0,0,1,.55-1.18,2.26,2.26,0,0,1,1.47-.45,3.57,3.57,0,0,1,1.53.35v1a4.77,4.77,0,0,0-.7-.19,3,3,0,0,0-.6-.07c-.51,0-.77.18-.77.54s.21.45.64.66l.72.34a1.83,1.83,0,0,1,.77.62,1.69,1.69,0,0,1,.24.93,1.56,1.56,0,0,1-.55,1.27,2.28,2.28,0,0,1-1.48.46,3.83,3.83,0,0,1-1.82-.44v-1a5.45,5.45,0,0,0,1.61.35.86.86,0,0,0,.57-.17A.56.56,0,0,0,57.46,104.77Z" style="fill:#232f3e"/></g><g id="ICONS_-_EDIT" data-name="ICONS - EDIT"><path d="M39.07,51.86a1,1,0,0,1-.64-.24,1,1,0,0,1-.36-.72L38,49.15a10.16,10.16,0,0,1-1.78-.47l-.91,1.49a1,1,0,0,1-.67.45,1,1,0,0,1-.79-.19l-3.79-2.91a1,1,0,0,1-.39-.7,1,1,0,0,1,.26-.76l1.17-1.3a11.48,11.48,0,0,1-.94-1.63l-1.66.4a1,1,0,0,1-.8-.15,1,1,0,0,1-.42-.69l-.64-4.79a1,1,0,0,1,.23-.78,1,1,0,0,1,.72-.35l1.71-.08a11.69,11.69,0,0,1,.48-1.85l-1.46-.91a1,1,0,0,1-.27-1.45l2.89-3.86a1,1,0,0,1,.71-.4,1,1,0,0,1,.78.27l1.24,1.16a10.16,10.16,0,0,1,1.62-1L34.9,27a1,1,0,0,1,.15-.79,1,1,0,0,1,.68-.42l4.72-.67a1,1,0,0,1,.78.22,1,1,0,0,1,.36.73l.07,1.73a11,11,0,0,1,1.79.47l.91-1.47a1,1,0,0,1,.67-.46,1,1,0,0,1,.79.19l3.79,2.91a1,1,0,0,1,.13,1.47l-1.17,1.29a10.14,10.14,0,0,1,.94,1.63l1.65-.39a1,1,0,0,1,1.23.84L53,39.06a1,1,0,0,1-.22.77,1,1,0,0,1-.72.36l-1.71.07a11.69,11.69,0,0,1-.48,1.85l1.45.92a1,1,0,0,1,.46.66,1,1,0,0,1-.19.78l-2.89,3.86a1,1,0,0,1-.71.4,1,1,0,0,1-.77-.26L46,47.3a10.53,10.53,0,0,1-1.61,1L44.77,50a1,1,0,0,1-.84,1.21l-4.72.67Zm-3.26-5.43a.92.92,0,0,1,.42.1,8.35,8.35,0,0,0,2.82.74,1,1,0,0,1,.92,1L40,49.71l2.55-.36-.34-1.46a1,1,0,0,1,.62-1.16,8.69,8.69,0,0,0,2.54-1.5,1,1,0,0,1,1.33,0l1.06,1,1.57-2.1-1.24-.78a1,1,0,0,1-.38-1.25,9.07,9.07,0,0,0,.75-2.89,1,1,0,0,1,.95-.92l1.46-.06-.35-2.61-1.4.34A1,1,0,0,1,48,35.34a8.78,8.78,0,0,0-1.48-2.57,1,1,0,0,1,0-1.31l1-1.1-2.05-1.58L44.71,30a1,1,0,0,1-1.26.39,8.72,8.72,0,0,0-2.84-.75,1,1,0,0,1-.91-1l-.06-1.48-2.55.36.33,1.46a1,1,0,0,1-.62,1.15,8.9,8.9,0,0,0-2.53,1.51,1,1,0,0,1-1.33,0l-1.06-1-1.57,2.1,1.24.78a1,1,0,0,1,.38,1.26,8.94,8.94,0,0,0-.75,2.89,1,1,0,0,1-.95.91l-1.46.06.34,2.61L30.53,41a1,1,0,0,1,1.17.62,8.58,8.58,0,0,0,1.47,2.56,1,1,0,0,1,0,1.31l-1,1.12,2,1.57L35,46.91A1,1,0,0,1,35.81,46.43Z" style="fill:#fff"/><path d="M39.87,45a6.77,6.77,0,0,1-1-.08A6,6,0,1,1,45.77,40h0a6,6,0,0,1-5.9,5Zm0-10a4,4,0,0,0-3.25,6.32,4,4,0,0,0,5.57.94,4,4,0,0,0,1.63-2.59h0A4,4,0,0,0,40.52,35,3.71,3.71,0,0,0,39.85,35Z" style="fill:#fff"/><path d="M56.26,65a1,1,0,0,1-1-.7l-.31-1a7.17,7.17,0,0,1-2-.52l-.75.72a1,1,0,0,1-1.39,0L48.3,60.94a1,1,0,0,1,0-1.4l.71-.76a7,7,0,0,1-.54-2l-1-.29a1,1,0,0,1-.68-1.22l.91-3.51a1,1,0,0,1,1.19-.72l1,.23a6.88,6.88,0,0,1,.66-.77,9.72,9.72,0,0,1,.76-.68l-.24-1a1,1,0,0,1,.7-1.2l3.5-1a1,1,0,0,1,1.22.66l.31,1a7.44,7.44,0,0,1,2,.52l.75-.72a1,1,0,0,1,1.4,0l2.58,2.54a1,1,0,0,1,0,1.4l-.71.76a7.41,7.41,0,0,1,.54,2l1,.3A1,1,0,0,1,65,56.33l-.92,3.51a1,1,0,0,1-1.19.72l-1-.23a6.06,6.06,0,0,1-.67.77,7,7,0,0,1-.76.68l.25,1A1,1,0,0,1,60,64l-3.49,1A1.24,1.24,0,0,1,56.26,65Zm-3.43-4.41a1,1,0,0,1,.47.12,5.45,5.45,0,0,0,2.46.63,1,1,0,0,1,.94.71l.23.73,1.63-.45-.18-.73a1,1,0,0,1,.44-1.09,5.4,5.4,0,0,0,1-.8,5.75,5.75,0,0,0,.79-1,1,1,0,0,1,1.08-.46l.73.17.43-1.64-.73-.22a1,1,0,0,1-.72-.93,5.45,5.45,0,0,0-.67-2.45A1,1,0,0,1,60.87,52l.51-.55-1.2-1.19-.54.53a1,1,0,0,1-1.17.15A5.37,5.37,0,0,0,56,50.31a1,1,0,0,1-.94-.71l-.23-.73-1.63.45.18.73A1,1,0,0,1,53,51.14a5.09,5.09,0,0,0-1,.8,5.38,5.38,0,0,0-.8,1,1,1,0,0,1-1.07.46l-.74-.17-.42,1.64.73.22a1,1,0,0,1,.72.93,5.33,5.33,0,0,0,.67,2.45,1,1,0,0,1-.14,1.16l-.52.56,1.2,1.18.55-.53A1,1,0,0,1,52.83,60.58Z" style="fill:#fff"/><path d="M55.86,60A4,4,0,0,1,53,53.15h0A4,4,0,1,1,55.86,60Zm-1.43-5.4a2,2,0,0,0,0,2.82,2,2,0,1,0,0-2.82Z" style="fill:#fff"/><path d="M19.36,39.48a1,1,0,0,1-.7-.3l-3.72-3.72,1.41-1.41,3,3,3-3,1.41,1.41-3.72,3.72A1,1,0,0,1,19.36,39.48Z" style="fill:#fff"/><path d="M20.36,38.48h-2A21.47,21.47,0,0,1,59,28.72l-1.78.91a19.47,19.47,0,0,0-36.82,8.85Z" style="fill:#fff"/><path d="M63.36,43l-3-3-3,3-1.41-1.42,3.72-3.72a1,1,0,0,1,1.41,0l3.73,3.72Z" style="fill:#fff"/><path d="M39.88,60.08A21.41,21.41,0,0,1,20.75,48.36l1.78-.91a19.45,19.45,0,0,0,22.4,10l.53,1.93A21.21,21.21,0,0,1,39.88,60.08Z" style="fill:#fff"/><path d="M60,46.14l-1.87-.7a19.72,19.72,0,0,0,1.22-6.83h2A21.59,21.59,0,0,1,60,46.14Z" style="fill:#fff"/></g></svg>