<svg xmlns="http://www.w3.org/2000/svg" width="80" height="100" viewBox="0 0 80 100"><title>Artboard 72</title><g id="CARDS"><rect x="1" y="1" width="78" height="78" style="fill:#232f3e"/><path d="M0,0V80H0v20H80V80h0V0ZM1,1H79V79H1Z" style="fill:#fff"/></g><g id="TEXT_-_EDIT" data-name="TEXT - EDIT"><path d="M10.23,92.35,9.8,90.53h-2l-.42,1.82H5.6l2.32-7.63H9.78l2.31,7.63ZM8.05,89.43H9.54l-.76-3.16Z" style="fill:#232f3e"/><path d="M17.44,92.35l-1-5.63-.89,5.63H13.74L12,84.72h1.7l1.06,6.06L15.63,85h1.83l.94,5.65,1-6h1.67L19.3,92.35Z" style="fill:#232f3e"/><path d="M23.39,89a3.6,3.6,0,0,1-1.28-1,2,2,0,0,1-.39-1.23,2.07,2.07,0,0,1,.34-1.17,2.17,2.17,0,0,1,.92-.77,3.19,3.19,0,0,1,1.35-.27,4.92,4.92,0,0,1,1.89.39v1.17a5.5,5.5,0,0,0-1.73-.33,1.26,1.26,0,0,0-.79.23.78.78,0,0,0-.29.64.81.81,0,0,0,.19.56,2.14,2.14,0,0,0,.71.48L25,88a5.12,5.12,0,0,1,1,.62,2,2,0,0,1,.54.69,2.13,2.13,0,0,1,.18.92,2,2,0,0,1-.75,1.65,3.09,3.09,0,0,1-2,.61,5.43,5.43,0,0,1-1.13-.12,3.76,3.76,0,0,1-1-.32V90.92a7.29,7.29,0,0,0,1,.25,5.53,5.53,0,0,0,1,.11,1.32,1.32,0,0,0,.88-.25.86.86,0,0,0,.3-.71.84.84,0,0,0-.21-.58,2.4,2.4,0,0,0-.7-.47Z" style="fill:#232f3e"/><path d="M31.78,89a3.55,3.55,0,0,1-1.27-1,2,2,0,0,1-.39-1.23,2,2,0,0,1,.34-1.17,2.11,2.11,0,0,1,.92-.77,3.18,3.18,0,0,1,1.34-.27,4.85,4.85,0,0,1,1.89.39v1.17a5.44,5.44,0,0,0-1.72-.33,1.26,1.26,0,0,0-.79.23.75.75,0,0,0-.29.64.86.86,0,0,0,.18.56,2.32,2.32,0,0,0,.72.48l.65.32a5.12,5.12,0,0,1,1,.62,2,2,0,0,1,.54.69,2.29,2.29,0,0,1,.17.92,2,2,0,0,1-.74,1.65,3.09,3.09,0,0,1-2,.61,5.35,5.35,0,0,1-1.13-.12,3.76,3.76,0,0,1-.95-.32V90.92a7.29,7.29,0,0,0,1,.25,5.33,5.33,0,0,0,1,.11,1.32,1.32,0,0,0,.88-.25.86.86,0,0,0,.3-.71.84.84,0,0,0-.21-.58,2.47,2.47,0,0,0-.71-.47Z" style="fill:#232f3e"/><path d="M39.31,92.35v-3.7a1.27,1.27,0,0,0-.14-.7.54.54,0,0,0-.49-.22,1.57,1.57,0,0,0-.82.26v4.36H36.21V86.72h1.35l.13.51a3.32,3.32,0,0,1,1.84-.65A1.35,1.35,0,0,1,40.6,87,1.83,1.83,0,0,1,41,88.22v4.13Z" style="fill:#232f3e"/><path d="M44.59,92.49a2.29,2.29,0,0,1-1.84-.77,4,4,0,0,1,0-4.37,2.58,2.58,0,0,1,3.68,0,4,4,0,0,1,0,4.37A2.27,2.27,0,0,1,44.59,92.49Zm0-1.15a.65.65,0,0,0,.64-.43,4.79,4.79,0,0,0,0-2.74.69.69,0,0,0-1.28,0,4.79,4.79,0,0,0,0,2.74A.65.65,0,0,0,44.59,91.34Z" style="fill:#232f3e"/><path d="M52.28,92.35l-.8-4-.77,4H49.16L47.6,86.72h1.71l.71,4,.77-4h1.47L53.08,91l.65-4.23H55.4l-1.57,5.63Z" style="fill:#232f3e"/><path d="M56.18,92.35V84.21h1.65v2.9a1.87,1.87,0,0,1,.61-.39,2,2,0,0,1,.7-.14,1.73,1.73,0,0,1,1.52.73,3.65,3.65,0,0,1,.52,2.15,3.82,3.82,0,0,1-.54,2.2,1.72,1.72,0,0,1-1.52.78,2,2,0,0,1-.77-.16,1.86,1.86,0,0,1-.66-.44l-.15.51ZM58.6,87.7a1.27,1.27,0,0,0-.77.25v3.11a1.42,1.42,0,0,0,.78.26.73.73,0,0,0,.71-.42,3.22,3.22,0,0,0,.21-1.37,3.34,3.34,0,0,0-.21-1.41A.74.74,0,0,0,58.6,87.7Z" style="fill:#232f3e"/><path d="M65.23,92.35l-.15-.51a1.42,1.42,0,0,1-.59.47,1.78,1.78,0,0,1-.78.18A1.56,1.56,0,0,1,62.53,92a1.91,1.91,0,0,1,.1-2.53A2,2,0,0,1,64.06,89a4,4,0,0,1,.93.13v-.51a1.32,1.32,0,0,0-.17-.78.74.74,0,0,0-.6-.2,5.9,5.9,0,0,0-1.78.35V87a3.07,3.07,0,0,1,.92-.33,5.57,5.57,0,0,1,1.16-.12A2.21,2.21,0,0,1,66,87a1.82,1.82,0,0,1,.47,1.39v3.94Zm-1-.92a1.19,1.19,0,0,0,.8-.35V90a2.38,2.38,0,0,0-.63-.07.69.69,0,0,0-.54.2.85.85,0,0,0-.18.59.82.82,0,0,0,.15.52A.47.47,0,0,0,64.19,91.43Z" style="fill:#232f3e"/><path d="M70.3,92.25a2.69,2.69,0,0,1-1,.16A1.4,1.4,0,0,1,68.26,92a1.54,1.54,0,0,1-.36-1.12V84.21h1.65v6.54a.75.75,0,0,0,.08.4.36.36,0,0,0,.32.12,2.14,2.14,0,0,0,.35,0Z" style="fill:#232f3e"/><path d="M73.71,92.25a2.69,2.69,0,0,1-1,.16A1.4,1.4,0,0,1,71.67,92a1.54,1.54,0,0,1-.36-1.12V84.21H73v6.54a.75.75,0,0,0,.08.4.36.36,0,0,0,.32.12,2.26,2.26,0,0,0,.35,0Z" style="fill:#232f3e"/></g><g id="ICONS_-_EDIT" data-name="ICONS - EDIT"><path d="M57.82,55.5H22.18A3.19,3.19,0,0,1,19,52.32V27.68a3.19,3.19,0,0,1,3.18-3.18H32a1,1,0,0,1,1,.68l1.13,3.32H45.91l1.14-3.32a1,1,0,0,1,1-.68h9.83A3.17,3.17,0,0,1,61,27.67V52.32A3.19,3.19,0,0,1,57.82,55.5Zm-35.64-29A1.18,1.18,0,0,0,21,27.68V52.32a1.18,1.18,0,0,0,1.18,1.18H57.82A1.18,1.18,0,0,0,59,52.32V27.67a1.18,1.18,0,0,0-1.17-1.17H48.71l-1.14,3.32a1,1,0,0,1-.94.68H33.37a1,1,0,0,1-.95-.68L31.29,26.5Z" style="fill:#fff"/><path d="M59.62,59.5H20.38A5.46,5.46,0,0,1,15,54V26a5.46,5.46,0,0,1,5.38-5.54H59.62A5.46,5.46,0,0,1,65,26V54A5.46,5.46,0,0,1,59.62,59.5Zm-39.24-37A3.47,3.47,0,0,0,17,26V54a3.47,3.47,0,0,0,3.38,3.54H59.62A3.47,3.47,0,0,0,63,54V26a3.47,3.47,0,0,0-3.38-3.54Z" style="fill:#fff"/><path d="M53,48.5H27a1,1,0,0,1-1-1v-13a1,1,0,0,1,1-1H53a1,1,0,0,1,1,1v13A1,1,0,0,1,53,48.5Zm-25-2H52v-11H28Z" style="fill:#fff"/><rect x="36" y="24.5" width="8" height="2" style="fill:#fff"/></g></svg>