<svg xmlns="http://www.w3.org/2000/svg" width="80" height="100" viewBox="0 0 80 100"><title>architecture-product-card_AWS_X-Ray</title><g id="CARDS"><rect x="1" y="1" width="78" height="78" style="fill:#232f3e"/><path d="M0,0V80H0v20H80V80h0V0ZM1,1H79V79H1Z" style="fill:#fff"/></g><g id="TEXT_-_EDIT" data-name="TEXT - EDIT"><path d="M18.65,92.35l-.44-1.82h-2l-.42,1.82H14l2.31-7.63H18.2l2.3,7.63Zm-2.19-2.92H18l-.76-3.16Z" style="fill:#232f3e"/><path d="M25.85,92.35l-.94-5.63L24,92.35H22.15l-1.78-7.63h1.7l1.06,6.06L24,85h1.83l.94,5.65,1-6H29.5l-1.78,7.63Z" style="fill:#232f3e"/><path d="M31.8,89a3.7,3.7,0,0,1-1.28-1,2,2,0,0,1-.38-1.23,2,2,0,0,1,.34-1.17,2.11,2.11,0,0,1,.92-.77,3.14,3.14,0,0,1,1.34-.27,4.85,4.85,0,0,1,1.89.39v1.17a5.44,5.44,0,0,0-1.72-.33,1.29,1.29,0,0,0-.8.23.77.77,0,0,0-.28.64.86.86,0,0,0,.18.56,2.32,2.32,0,0,0,.72.48l.65.32a4.73,4.73,0,0,1,1,.62,1.89,1.89,0,0,1,.55.69,2.29,2.29,0,0,1,.17.92,2,2,0,0,1-.74,1.65,3.12,3.12,0,0,1-2,.61,5.52,5.52,0,0,1-1.14-.12,4.06,4.06,0,0,1-1-.32V90.92a7.85,7.85,0,0,0,1,.25,5.33,5.33,0,0,0,1,.11,1.34,1.34,0,0,0,.88-.25.86.86,0,0,0,.3-.71.84.84,0,0,0-.21-.58,2.47,2.47,0,0,0-.71-.47Z" style="fill:#232f3e"/><path d="M42.49,92.35l-1.42-2.71-1.34,2.71H38.1l2.24-3.92-2.07-3.71h1.82l1.21,2.51,1.22-2.51h1.61L42,88.42l2.28,3.93Z" style="fill:#232f3e"/><path d="M44.75,90.12V88.89h3.18v1.23Z" style="fill:#232f3e"/><path d="M52.92,92.35l-1.46-2.83h-.65v2.83H49.16V84.72H51.8a2.43,2.43,0,0,1,1.77.65,2.35,2.35,0,0,1,.65,1.75,2.67,2.67,0,0,1-.32,1.33,2,2,0,0,1-.93.84l1.69,3.06Zm-2.11-4h.79a.84.84,0,0,0,.71-.31,1.5,1.5,0,0,0,.25-.94,1.45,1.45,0,0,0-.25-.93.82.82,0,0,0-.71-.32h-.79Z" style="fill:#232f3e"/><path d="M58.38,92.35l-.15-.51a1.42,1.42,0,0,1-.59.47,1.78,1.78,0,0,1-.78.18A1.56,1.56,0,0,1,55.68,92a1.91,1.91,0,0,1,.1-2.53A2,2,0,0,1,57.21,89a4,4,0,0,1,.93.13v-.51a1.42,1.42,0,0,0-.16-.78.78.78,0,0,0-.61-.2A5.79,5.79,0,0,0,55.6,88V87a2.9,2.9,0,0,1,.91-.33,5.57,5.57,0,0,1,1.16-.12,2.21,2.21,0,0,1,1.52.44,1.82,1.82,0,0,1,.47,1.39v3.94Zm-1-.92a1.19,1.19,0,0,0,.8-.35V90a2.38,2.38,0,0,0-.63-.07.66.66,0,0,0-.53.2.81.81,0,0,0-.19.59.82.82,0,0,0,.15.52A.47.47,0,0,0,57.34,91.43Z" style="fill:#232f3e"/><path d="M62.26,92.46l-2-5.74H62l.92,4.14.91-4.14h1.7l-2,6.48a2.48,2.48,0,0,1-.67,1.18,1.65,1.65,0,0,1-1.11.36,3.59,3.59,0,0,1-1.06-.16v-1a4.24,4.24,0,0,0,.58,0,.93.93,0,0,0,.68-.22,1.16,1.16,0,0,0,.3-.74Z" style="fill:#232f3e"/></g><g id="ICONS_-_EDIT" data-name="ICONS - EDIT"><path d="M57.14,47.93l-.28-2c2.8-.4,6.14-2,6.14-7.33,0-5-3.8-6.84-7-7.48a1,1,0,0,1-.8-.93c-.22-3.91-2.49-5.29-4.37-5.29a4.07,4.07,0,0,0-3.25,1.64,1,1,0,0,1-.95.39,1,1,0,0,1-.79-.65,13.43,13.43,0,0,0-3.12-5,11.17,11.17,0,0,0-19.21,7.5,11.9,11.9,0,0,0,.08,1.34,1,1,0,0,1-.75,1.1c-2.18.54-5.84,2.2-5.84,7.27,0,.19,0,.36,0,.54.16,3,2.73,5.69,6.24,6.63l-.52,1.93C18.41,46.5,15.23,43,15,39.2c0-.22,0-.43,0-.65a8.93,8.93,0,0,1,6.53-9c0-.24,0-.49,0-.73a13.17,13.17,0,0,1,22.61-8.93,14.87,14.87,0,0,1,3,4.28,6,6,0,0,1,3.71-1.27c2.81,0,5.76,2,6.3,6.42C62.21,30.59,65,33.87,65,38.62,65,43.83,62.14,47.23,57.14,47.93Z" style="fill:#fff"/><path d="M40,64.05a15,15,0,1,1,15-15A15,15,0,0,1,40,64.05Zm0-28a13,13,0,1,0,13,13A13,13,0,0,0,40,36.05Z" style="fill:#fff"/><rect x="32" y="54.05" width="16" height="2" style="fill:#fff"/><rect x="34" y="48.05" width="2" height="7" style="fill:#fff"/><rect x="39" y="45.05" width="2" height="10" style="fill:#fff"/><rect x="44" y="42.05" width="2" height="13" style="fill:#fff"/></g></svg>