<svg xmlns="http://www.w3.org/2000/svg" width="80" height="115" viewBox="0 0 80 115"><title>architecture-product-card_Amazon_Cognito</title><g id="CARDS"><rect x="1" y="1" width="78" height="78" style="fill:#232f3e"/><path d="M0,0V80H0v35H80V80h0V0ZM1,1H79V79H1Z" style="fill:#fff"/></g><g id="TEXT_-_EDIT" data-name="TEXT - EDIT"><path d="M25.35,92.35l-.43-1.82h-2l-.42,1.82H20.72L23,84.72H24.9l2.31,7.63Zm-2.18-2.92h1.49l-.76-3.16Z" style="fill:#232f3e"/><path d="M34.06,92.35V88.64a1.32,1.32,0,0,0-.14-.69.49.49,0,0,0-.46-.22,1.59,1.59,0,0,0-.8.26.5.5,0,0,1,0,.12v4.24H31V88.64a1.33,1.33,0,0,0-.13-.69.51.51,0,0,0-.47-.22,1.55,1.55,0,0,0-.78.26v4.36H28V86.72h1.35l.13.51a3.31,3.31,0,0,1,1.81-.65,1.25,1.25,0,0,1,1.2.67,3.38,3.38,0,0,1,1.83-.67,1.3,1.3,0,0,1,1,.42,1.85,1.85,0,0,1,.36,1.22v4.13Z" style="fill:#232f3e"/><path d="M40,92.35l-.14-.51a1.56,1.56,0,0,1-.59.47,1.86,1.86,0,0,1-.79.18A1.57,1.57,0,0,1,37.31,92a1.65,1.65,0,0,1-.43-1.22,1.69,1.69,0,0,1,.53-1.31A2,2,0,0,1,38.84,89a4,4,0,0,1,.93.13v-.51a1.33,1.33,0,0,0-.16-.78.77.77,0,0,0-.61-.2,5.9,5.9,0,0,0-1.77.35V87a3,3,0,0,1,.92-.33,5.47,5.47,0,0,1,1.15-.12,2.19,2.19,0,0,1,1.52.44,1.82,1.82,0,0,1,.47,1.39v3.94Zm-1-.92a1.17,1.17,0,0,0,.79-.35V90a2.3,2.3,0,0,0-.62-.07.67.67,0,0,0-.54.2.81.81,0,0,0-.19.59.82.82,0,0,0,.15.52A.49.49,0,0,0,39,91.43Z" style="fill:#232f3e"/><path d="M42.28,92.35V91.28l2.49-3.4h-2.4V86.72h4.14v1.07L44,91.19h2.54v1.16Z" style="fill:#232f3e"/><path d="M49.79,92.49A2.3,2.3,0,0,1,48,91.72a4,4,0,0,1,0-4.37,2.6,2.6,0,0,1,3.69,0,4,4,0,0,1,0,4.37A2.31,2.31,0,0,1,49.79,92.49Zm0-1.15a.67.67,0,0,0,.65-.43,4.79,4.79,0,0,0,0-2.74.69.69,0,0,0-1.29,0,4.79,4.79,0,0,0,0,2.74A.66.66,0,0,0,49.79,91.34Z" style="fill:#232f3e"/><path d="M56.55,92.35v-3.7a1.36,1.36,0,0,0-.14-.7.55.55,0,0,0-.5-.22,1.56,1.56,0,0,0-.81.26v4.36H53.44V86.72h1.35l.14.51a3.32,3.32,0,0,1,1.84-.65,1.35,1.35,0,0,1,1.07.42,1.83,1.83,0,0,1,.36,1.22v4.13Z" style="fill:#232f3e"/><path d="M27,106.13a4.59,4.59,0,0,1-1.78.34q-3.37,0-3.37-3.9a4.4,4.4,0,0,1,.88-2.95,3.15,3.15,0,0,1,2.53-1,4.72,4.72,0,0,1,1.65.3v1.21a5.74,5.74,0,0,0-1.45-.23,1.62,1.62,0,0,0-1.4.61,3.37,3.37,0,0,0-.44,1.93v.25a3.27,3.27,0,0,0,.43,1.9,1.57,1.57,0,0,0,1.38.61,7.14,7.14,0,0,0,1.57-.26Z" style="fill:#232f3e"/><path d="M30.27,106.49a2.29,2.29,0,0,1-1.84-.77,4,4,0,0,1,0-4.37,2.6,2.6,0,0,1,3.69,0,4,4,0,0,1,0,4.37A2.31,2.31,0,0,1,30.27,106.49Zm0-1.15a.67.67,0,0,0,.65-.43,4.79,4.79,0,0,0,0-2.74.67.67,0,0,0-.65-.44.66.66,0,0,0-.64.44,4.79,4.79,0,0,0,0,2.74A.66.66,0,0,0,30.27,105.34Z" style="fill:#232f3e"/><path d="M36.83,105.71a1.72,1.72,0,0,1-2.66-.21,3.46,3.46,0,0,1-.52-2,3.6,3.6,0,0,1,.53-2.11,1.71,1.71,0,0,1,1.47-.77,1.79,1.79,0,0,1,.7.17,2,2,0,0,1,.63.45l.12-.48h1.35V106c0,1.86-.85,2.79-2.56,2.79a3.86,3.86,0,0,1-1.83-.44v-1a5.45,5.45,0,0,0,1.61.35,1.48,1.48,0,0,0,.7-.13.72.72,0,0,0,.35-.44,3.19,3.19,0,0,0,.11-1Zm-.67-.6a1.32,1.32,0,0,0,.67-.22V102a1.35,1.35,0,0,0-.74-.27.63.63,0,0,0-.6.42,3.23,3.23,0,0,0-.19,1.3,3,3,0,0,0,.21,1.28A.7.7,0,0,0,36.16,105.11Z" style="fill:#232f3e"/><path d="M43,106.35v-3.7a1.36,1.36,0,0,0-.14-.7.55.55,0,0,0-.5-.22,1.59,1.59,0,0,0-.82.26v4.36H39.87v-5.63h1.35l.13.51a3.38,3.38,0,0,1,1.85-.65,1.36,1.36,0,0,1,1.07.42,1.83,1.83,0,0,1,.36,1.22v4.13Z" style="fill:#232f3e"/><path d="M46.9,99.81a1,1,0,0,1-.71-.22.76.76,0,0,1-.27-.61.75.75,0,0,1,.27-.61,1.2,1.2,0,0,1,1.41,0,.77.77,0,0,1,.26.61.79.79,0,0,1-.26.61A1,1,0,0,1,46.9,99.81Zm-.83,6.54v-5.63h1.65v5.63Z" style="fill:#232f3e"/><path d="M52.21,106.2a3.47,3.47,0,0,1-1.23.22,1.47,1.47,0,0,1-1.72-1.7v-2.9h-.74v-.92l.79-.15.24-1.54h1.36v1.51h1.28v1.1H50.91v2.77a.79.79,0,0,0,.14.52.7.7,0,0,0,.53.16,2.94,2.94,0,0,0,.63-.08Z" style="fill:#232f3e"/><path d="M55.32,106.49a2.27,2.27,0,0,1-1.84-.77,3.95,3.95,0,0,1,0-4.37,2.58,2.58,0,0,1,3.68,0,4,4,0,0,1,0,4.37A2.29,2.29,0,0,1,55.32,106.49Zm0-1.15a.66.66,0,0,0,.64-.43,4.79,4.79,0,0,0,0-2.74.66.66,0,0,0-.64-.44.67.67,0,0,0-.65.44,5,5,0,0,0,0,2.74A.67.67,0,0,0,55.32,105.34Z" style="fill:#232f3e"/></g><g id="ICONS_-_EDIT" data-name="ICONS - EDIT"><path d="M40.25,52.45H19a3.92,3.92,0,0,1-3.71-4.1V23.55A3.92,3.92,0,0,1,19,19.45H57.55a3.92,3.92,0,0,1,3.7,4.1v17.9h-2V23.55a1.93,1.93,0,0,0-1.7-2.1H19a2,2,0,0,0-1.71,2.1v24.8A2,2,0,0,0,19,50.45H40.25Z" style="fill:#fff"/><rect x="19.25" y="36.45" width="11" height="2" style="fill:#fff"/><rect x="19.25" y="41.45" width="7" height="2" style="fill:#fff"/><rect x="28.25" y="41.45" width="3" height="2" style="fill:#fff"/><path d="M44.25,47.45h-8a1,1,0,0,1-1-1v-21a1,1,0,0,1,1-1h19a1,1,0,0,1,1,1v15h-2v-14h-17l0,19h7Z" style="fill:#fff"/><rect x="16.25" y="29.45" width="19.03" height="2" style="fill:#fff"/><rect x="55.25" y="29.45" width="5" height="2" style="fill:#fff"/><path d="M54.64,64.55A10.09,10.09,0,1,1,62.32,61,10.47,10.47,0,0,1,59,63.59,10.19,10.19,0,0,1,54.64,64.55Zm0-18.22a7.88,7.88,0,0,0-3.68.9,8.1,8.1,0,0,0,2.72,15.26,8.16,8.16,0,0,0,4.44-.71,8.26,8.26,0,0,0,2.7-2.07,8.11,8.11,0,0,0-5.18-13.32h0A8.51,8.51,0,0,0,54.62,46.33Z" style="fill:#fff"/><path d="M53.05,58.7a1,1,0,0,1-.71-.29l-3.23-3.23,1.42-1.41,2.52,2.52,5.7-5.71L60.17,52l-6.42,6.41A1,1,0,0,1,53.05,58.7Z" style="fill:#fff"/><path d="M42.84,47.45H36.7a1,1,0,0,1-1-1V45.2a9.72,9.72,0,0,1,7.4-9.46,1,1,0,0,1,.72.09,4,4,0,0,0,3.76,0,1,1,0,0,1,.71-.09,9.82,9.82,0,0,1,6,4.41l-1.71,1a7.77,7.77,0,0,0-4.42-3.42,6,6,0,0,1-4.92,0A7.73,7.73,0,0,0,37.7,45.2v.25h5.14Z" style="fill:#fff"/><path d="M45.7,38.28a5.58,5.58,0,0,1-2.65-.67,5.5,5.5,0,1,1,5.3,0A5.61,5.61,0,0,1,45.7,38.28Zm0-8.92a3.49,3.49,0,0,0-3.5,3.47,3.45,3.45,0,0,0,1.81,3,3.58,3.58,0,0,0,3.38,0h0a3.43,3.43,0,0,0,1.81-3A3.49,3.49,0,0,0,45.7,29.36Z" style="fill:#fff"/></g></svg>