<svg xmlns="http://www.w3.org/2000/svg" width="80" height="100" viewBox="0 0 80 100"><title>architecture-product-card_AWS_Artifact</title><g id="CARDS"><rect x="1" y="1" width="78" height="78" style="fill:#232f3e"/><path d="M0,0V80H0v20H80V80h0V0ZM1,1H79V79H1Z" style="fill:#fff"/></g><g id="TEXT_-_EDIT" data-name="TEXT - EDIT"><path d="M14.09,92.35l-.43-1.82h-2l-.42,1.82H9.47l2.31-7.63h1.87L16,92.35Zm-2.18-2.92h1.5l-.76-3.16Z" style="fill:#232f3e"/><path d="M21.3,92.35l-.94-5.63-.89,5.63H17.6l-1.79-7.63h1.7l1.06,6.06L19.49,85h1.83l.94,5.65,1-6H25l-1.79,7.63Z" style="fill:#232f3e"/><path d="M27.25,89A3.6,3.6,0,0,1,26,88a2,2,0,0,1-.38-1.23,2.06,2.06,0,0,1,.33-1.17,2.2,2.2,0,0,1,.93-.77,3.11,3.11,0,0,1,1.34-.27,4.92,4.92,0,0,1,1.89.39v1.17a5.5,5.5,0,0,0-1.72-.33,1.27,1.27,0,0,0-.8.23.78.78,0,0,0-.29.64.81.81,0,0,0,.19.56,2.09,2.09,0,0,0,.72.48l.65.32a5,5,0,0,1,1,.62,1.76,1.76,0,0,1,.54.69,2.13,2.13,0,0,1,.18.92,2,2,0,0,1-.74,1.65,3.13,3.13,0,0,1-2.05.61,5.5,5.5,0,0,1-1.13-.12,3.9,3.9,0,0,1-.95-.32V90.92a7.45,7.45,0,0,0,1,.25,5.33,5.33,0,0,0,.95.11,1.32,1.32,0,0,0,.88-.25.86.86,0,0,0,.3-.71.84.84,0,0,0-.21-.58,2.4,2.4,0,0,0-.7-.47Z" style="fill:#232f3e"/><path d="M38.2,92.35l-.43-1.82h-2l-.42,1.82H33.57l2.32-7.63h1.86l2.31,7.63ZM36,89.43h1.49l-.76-3.16Z" style="fill:#232f3e"/><path d="M40.84,92.35V86.72h1.35l.18.73a2.5,2.5,0,0,1,.72-.59,1.49,1.49,0,0,1,.75-.19,2.34,2.34,0,0,1,.38,0V88a4.7,4.7,0,0,0-.63,0,2.44,2.44,0,0,0-1.1.26v4.11Z" style="fill:#232f3e"/><path d="M48.49,92.2a3.47,3.47,0,0,1-1.23.22A1.8,1.8,0,0,1,46,92a1.77,1.77,0,0,1-.41-1.3v-2.9H44.8V86.9l.78-.15.24-1.54h1.37v1.51h1.27v1.1H47.19v2.77a.74.74,0,0,0,.14.52.69.69,0,0,0,.53.16,3,3,0,0,0,.63-.08Z" style="fill:#232f3e"/><path d="M50.23,85.81a1.08,1.08,0,0,1-.71-.22.79.79,0,0,1-.26-.61.77.77,0,0,1,.26-.61,1,1,0,0,1,.71-.23,1,1,0,0,1,.7.23.75.75,0,0,1,.27.61.76.76,0,0,1-.27.61A1,1,0,0,1,50.23,85.81Zm-.83,6.54V86.72h1.65v5.63Z" style="fill:#232f3e"/><path d="M52.72,92.35V87.82h-.79V86.9l.79-.15v-.66a2.17,2.17,0,0,1,.48-1.54,2,2,0,0,1,1.48-.5,2.81,2.81,0,0,1,1.08.21v1a2.94,2.94,0,0,0-.62-.07.86.86,0,0,0-.61.16.89.89,0,0,0-.16.62v.74H55.7v1.1H54.37v4.53Z" style="fill:#232f3e"/><path d="M59.34,92.35l-.14-.51a1.56,1.56,0,0,1-.59.47,1.86,1.86,0,0,1-.79.18A1.57,1.57,0,0,1,56.64,92a1.65,1.65,0,0,1-.43-1.22,1.69,1.69,0,0,1,.53-1.31A2,2,0,0,1,58.17,89a4,4,0,0,1,.93.13v-.51a1.33,1.33,0,0,0-.16-.78.77.77,0,0,0-.61-.2,5.9,5.9,0,0,0-1.77.35V87a3,3,0,0,1,.92-.33,5.47,5.47,0,0,1,1.15-.12,2.19,2.19,0,0,1,1.52.44,1.82,1.82,0,0,1,.47,1.39v3.94Zm-1-.92a1.17,1.17,0,0,0,.79-.35V90a2.3,2.3,0,0,0-.62-.07.67.67,0,0,0-.54.2.81.81,0,0,0-.19.59.82.82,0,0,0,.15.52A.49.49,0,0,0,58.31,91.43Z" style="fill:#232f3e"/><path d="M65.66,92.09a2.09,2.09,0,0,1-.64.26,3.59,3.59,0,0,1-.81.09,2.27,2.27,0,0,1-1.84-.73,3.24,3.24,0,0,1-.63-2.16,3.16,3.16,0,0,1,.67-2.16,2.34,2.34,0,0,1,1.87-.76,2.87,2.87,0,0,1,1.35.33v1a3.08,3.08,0,0,0-1-.19,1.06,1.06,0,0,0-.94.4,2.29,2.29,0,0,0-.28,1.29v.16a2.23,2.23,0,0,0,.28,1.28,1,1,0,0,0,.9.4,3.32,3.32,0,0,0,1.09-.21Z" style="fill:#232f3e"/><path d="M70,92.2a3.47,3.47,0,0,1-1.23.22A1.47,1.47,0,0,1,67,90.72v-2.9h-.74V86.9l.79-.15.24-1.54h1.36v1.51H70v1.1H68.68v2.77a.79.79,0,0,0,.14.52.7.7,0,0,0,.53.16,2.86,2.86,0,0,0,.63-.08Z" style="fill:#232f3e"/></g><g id="ICONS_-_EDIT" data-name="ICONS - EDIT"><path d="M40,65a1,1,0,0,1-.71-.29l-6-6a1,1,0,0,1-.21-1.09A1,1,0,0,1,34,57h3V53h2v5a1,1,0,0,1-1,1H36.41L40,62.59,43.59,59H42a1,1,0,0,1-1-1V53h2v4h3a1,1,0,0,1,.92.62,1,1,0,0,1-.21,1.09l-6,6A1,1,0,0,1,40,65Z" style="fill:#fff"/><path d="M52,52H30a1,1,0,0,1-1-1V23a1,1,0,0,1,1-1H45v2H31V50H51V30h2V51A1,1,0,0,1,52,52Z" style="fill:#fff"/><rect x="33" y="34" width="16" height="2" style="fill:#fff"/><rect x="33" y="38" width="5" height="2" style="fill:#fff"/><rect x="33" y="42" width="10" height="2" style="fill:#fff"/><rect x="33" y="29" width="8" height="2" style="fill:#fff"/><path d="M46.25,64.21l-.5-1.94a23,23,0,1,0-11.5,0l-.5,1.94a25,25,0,1,1,12.5,0Z" style="fill:#fff"/><path d="M52,31H45a1,1,0,0,1-1-1V23a1,1,0,0,1,.62-.92,1,1,0,0,1,1.09.21l7,7a1,1,0,0,1,.21,1.09A1,1,0,0,1,52,31Zm-6-2h3.59L46,25.41Z" style="fill:#fff"/></g></svg>