<svg xmlns="http://www.w3.org/2000/svg" width="80" height="115" viewBox="0 0 80 115"><title>architecture-product-card_AWS_Firewall_Manager</title><g id="CARDS"><rect x="1" y="1" width="78" height="78" style="fill:#232f3e"/><path d="M0,0V80H0v35H80V80h0V0ZM1,1H79V79H1Z" style="fill:#fff"/></g><g id="TEXT_-_EDIT" data-name="TEXT - EDIT"><path d="M13.24,92.35l-.43-1.82h-2l-.42,1.82H8.62l2.31-7.63H12.8l2.3,7.63Zm-2.18-2.92h1.5l-.76-3.16Z" style="fill:#232f3e"/><path d="M20.45,92.35l-.94-5.63-.89,5.63H16.75L15,84.72h1.7l1.06,6.06L18.64,85h1.83l.94,5.65,1-6H24.1l-1.79,7.63Z" style="fill:#232f3e"/><path d="M26.4,89a3.6,3.6,0,0,1-1.28-1,2,2,0,0,1-.38-1.23,2.06,2.06,0,0,1,.33-1.17,2.2,2.2,0,0,1,.93-.77,3.11,3.11,0,0,1,1.34-.27,4.92,4.92,0,0,1,1.89.39v1.17a5.5,5.5,0,0,0-1.72-.33,1.27,1.27,0,0,0-.8.23.78.78,0,0,0-.29.64.81.81,0,0,0,.19.56,2.09,2.09,0,0,0,.72.48L28,88a5,5,0,0,1,1,.62,1.76,1.76,0,0,1,.54.69,2.13,2.13,0,0,1,.18.92A2,2,0,0,1,29,91.9a3.13,3.13,0,0,1-2.05.61,5.5,5.5,0,0,1-1.13-.12,3.9,3.9,0,0,1-.95-.32V90.92a7.45,7.45,0,0,0,1,.25,5.33,5.33,0,0,0,1,.11,1.32,1.32,0,0,0,.88-.25.86.86,0,0,0,.3-.71.84.84,0,0,0-.21-.58,2.4,2.4,0,0,0-.7-.47Z" style="fill:#232f3e"/><path d="M33.47,92.35V84.72h4.35V85.9H35.16V88h2.08v1.17H35.16v3.22Z" style="fill:#232f3e"/><path d="M39.6,85.81a1.08,1.08,0,0,1-.71-.22.75.75,0,0,1-.26-.61.74.74,0,0,1,.26-.61,1,1,0,0,1,.71-.23,1,1,0,0,1,.7.23.75.75,0,0,1,.27.61.76.76,0,0,1-.27.61A1,1,0,0,1,39.6,85.81Zm-.83,6.54V86.72h1.65v5.63Z" style="fill:#232f3e"/><path d="M41.88,92.35V86.72h1.35l.18.73a2.5,2.5,0,0,1,.72-.59,1.49,1.49,0,0,1,.75-.19,2.56,2.56,0,0,1,.39,0V88a5,5,0,0,0-.64,0,2.47,2.47,0,0,0-1.1.26v4.11Z" style="fill:#232f3e"/><path d="M47.23,89.92A1.66,1.66,0,0,0,47.59,91a1.45,1.45,0,0,0,1.06.33,3.26,3.26,0,0,0,.68-.09,5.54,5.54,0,0,0,.8-.21v1a2.77,2.77,0,0,1-.83.31,4.77,4.77,0,0,1-1,.11c-1.72,0-2.58-1-2.58-2.95a3.37,3.37,0,0,1,.64-2.2,2.22,2.22,0,0,1,1.82-.76c1.37,0,2.05.76,2.05,2.29a4.32,4.32,0,0,1-.12,1Zm.91-2.32c-.57,0-.88.46-.91,1.37h1.61v-.25a1.59,1.59,0,0,0-.17-.86A.59.59,0,0,0,48.14,87.6Z" style="fill:#232f3e"/><path d="M55.41,92.35l-.8-4-.77,4H52.29l-1.56-5.63h1.72l.71,4,.77-4H55.4L56.22,91l.65-4.23h1.66L57,92.35Z" style="fill:#232f3e"/><path d="M62.22,92.35l-.15-.51a1.49,1.49,0,0,1-.59.47,1.85,1.85,0,0,1-.78.18A1.56,1.56,0,0,1,59.52,92a1.66,1.66,0,0,1-.44-1.22,1.69,1.69,0,0,1,.53-1.31A2.08,2.08,0,0,1,61.05,89a3.88,3.88,0,0,1,.92.13v-.51a1.33,1.33,0,0,0-.16-.78.77.77,0,0,0-.61-.2,5.9,5.9,0,0,0-1.77.35V87a3.07,3.07,0,0,1,.92-.33,5.54,5.54,0,0,1,1.15-.12A2.19,2.19,0,0,1,63,87a1.78,1.78,0,0,1,.47,1.39v3.94Zm-1-.92a1.17,1.17,0,0,0,.79-.35V90a2.25,2.25,0,0,0-.62-.07.69.69,0,0,0-.54.2.85.85,0,0,0-.18.59.82.82,0,0,0,.15.52A.47.47,0,0,0,61.18,91.43Z" style="fill:#232f3e"/><path d="M67.29,92.25a2.7,2.7,0,0,1-1,.16A1.39,1.39,0,0,1,65.25,92a1.54,1.54,0,0,1-.36-1.12V84.21h1.65v6.54a.75.75,0,0,0,.08.4.36.36,0,0,0,.32.12,2.26,2.26,0,0,0,.35,0Z" style="fill:#232f3e"/><path d="M70.7,92.25a2.7,2.7,0,0,1-1,.16A1.39,1.39,0,0,1,68.66,92a1.54,1.54,0,0,1-.36-1.12V84.21H70v6.54a.75.75,0,0,0,.08.4.36.36,0,0,0,.32.12,2.26,2.26,0,0,0,.35,0Z" style="fill:#232f3e"/><path d="M25.51,106.35V101l-1.41,3.46H22.67L21.27,101v5.32h-1.5V98.72h1.92L23.42,103l1.72-4.27H27v7.63Z" style="fill:#232f3e"/><path d="M31.45,106.35l-.14-.51a1.56,1.56,0,0,1-.59.47,1.86,1.86,0,0,1-.79.18,1.57,1.57,0,0,1-1.18-.45,1.65,1.65,0,0,1-.43-1.22,1.69,1.69,0,0,1,.53-1.31,2,2,0,0,1,1.43-.47,4,4,0,0,1,.93.13v-.51a1.33,1.33,0,0,0-.16-.78.77.77,0,0,0-.61-.2,5.9,5.9,0,0,0-1.77.35v-1a3,3,0,0,1,.91-.33,5.64,5.64,0,0,1,1.16-.12,2.19,2.19,0,0,1,1.52.44,1.82,1.82,0,0,1,.47,1.39v3.94Zm-1-.92a1.17,1.17,0,0,0,.79-.35V104a2.33,2.33,0,0,0-.63-.07.66.66,0,0,0-.53.2.81.81,0,0,0-.19.59.82.82,0,0,0,.15.52A.49.49,0,0,0,30.42,105.43Z" style="fill:#232f3e"/><path d="M37.23,106.35v-3.7a1.27,1.27,0,0,0-.14-.7.54.54,0,0,0-.49-.22,1.57,1.57,0,0,0-.82.26v4.36H34.13v-5.63h1.35l.13.51a3.32,3.32,0,0,1,1.84-.65,1.35,1.35,0,0,1,1.07.42,1.83,1.83,0,0,1,.36,1.22v4.13Z" style="fill:#232f3e"/><path d="M43.19,106.35l-.15-.51a1.49,1.49,0,0,1-.59.47,1.85,1.85,0,0,1-.78.18,1.56,1.56,0,0,1-1.18-.45,1.66,1.66,0,0,1-.44-1.22,1.69,1.69,0,0,1,.53-1.31A2.08,2.08,0,0,1,42,103a3.88,3.88,0,0,1,.92.13v-.51a1.33,1.33,0,0,0-.16-.78.77.77,0,0,0-.61-.2,5.9,5.9,0,0,0-1.77.35v-1a3.07,3.07,0,0,1,.92-.33,5.54,5.54,0,0,1,1.15-.12A2.19,2.19,0,0,1,44,101a1.78,1.78,0,0,1,.47,1.39v3.94Zm-1-.92a1.17,1.17,0,0,0,.79-.35V104a2.25,2.25,0,0,0-.62-.07.68.68,0,0,0-.54.2.85.85,0,0,0-.18.59.82.82,0,0,0,.15.52A.47.47,0,0,0,42.15,105.43Z" style="fill:#232f3e"/><path d="M48.76,105.71a1.65,1.65,0,0,1-1.21.53,1.68,1.68,0,0,1-1.44-.74,3.46,3.46,0,0,1-.53-2,3.6,3.6,0,0,1,.54-2.11,1.69,1.69,0,0,1,1.46-.77,1.79,1.79,0,0,1,.71.17,2,2,0,0,1,.63.45l.12-.48h1.35V106c0,1.86-.85,2.79-2.57,2.79A3.92,3.92,0,0,1,46,108.3v-1a5.5,5.5,0,0,0,1.62.35,1.48,1.48,0,0,0,.7-.13.76.76,0,0,0,.35-.44,3.26,3.26,0,0,0,.1-1Zm-.66-.6a1.26,1.26,0,0,0,.66-.22V102a1.32,1.32,0,0,0-.73-.27.63.63,0,0,0-.6.42,3.2,3.2,0,0,0-.2,1.3,3,3,0,0,0,.21,1.28A.7.7,0,0,0,48.1,105.11Z" style="fill:#232f3e"/><path d="M53,103.92a1.66,1.66,0,0,0,.36,1.12,1.45,1.45,0,0,0,1.06.33,3.26,3.26,0,0,0,.68-.09,5.54,5.54,0,0,0,.8-.21v1a2.77,2.77,0,0,1-.83.31,4.77,4.77,0,0,1-1,.11c-1.72,0-2.58-1-2.58-2.95a3.37,3.37,0,0,1,.64-2.2,2.22,2.22,0,0,1,1.82-.76c1.37,0,2,.76,2,2.29a4.32,4.32,0,0,1-.12,1Zm.91-2.32c-.57,0-.88.46-.91,1.37h1.61v-.25a1.59,1.59,0,0,0-.17-.86A.59.59,0,0,0,53.94,101.6Z" style="fill:#232f3e"/><path d="M57.17,106.35v-5.63h1.35l.18.73a2.5,2.5,0,0,1,.72-.59,1.55,1.55,0,0,1,.75-.19,2.56,2.56,0,0,1,.39,0V102a5,5,0,0,0-.64,0,2.47,2.47,0,0,0-1.1.26v4.11Z" style="fill:#232f3e"/></g><g id="ICONS_-_EDIT" data-name="ICONS - EDIT"><path d="M38.88,64.37l-.33-.14,0,.07a28.48,28.48,0,0,1-6.72-3.36,9.84,9.84,0,0,1-3-12.82l.32-.53c2.13-3.34-.07-9.14-.09-9.19a1,1,0,0,1,.11-.93A1,1,0,0,1,30,37c2.36,0,4.37,2.05,5.6,3.7A9.33,9.33,0,0,0,33.05,32a1,1,0,0,1-.27-1.19,1,1,0,0,1,1.08-.57,11.13,11.13,0,0,1,5,2.15l.1.1-.75.73-.59.75a7.38,7.38,0,0,0-1.15-.76c1.17,2.19,2.09,5.65.45,10.32a1,1,0,0,1-.86.66,1,1,0,0,1-1-.52,12.13,12.13,0,0,0-3.6-4.13c.59,2.3,1.18,6.28-.66,9.16l-.27.45A7.82,7.82,0,0,0,32.94,59.3a26.69,26.69,0,0,0,6.26,3.12,1.08,1.08,0,0,1,.39.25l-.71.67Z" style="fill:#fff"/><path d="M39,64.5a1,1,0,0,1-1-.73c-.31-.85-2.64-7.75.5-14.5.17-.37.35-.72.55-1.08A14.21,14.21,0,0,0,41,41.3a9.32,9.32,0,0,0-1.85-5.83,4.6,4.6,0,0,0-.31-.37v0a8.2,8.2,0,0,0-1.13-1,1,1,0,0,1,.91-1.74l.1,0,.18.08a14.76,14.76,0,0,1,8.6,12.51,13.45,13.45,0,0,0,.44-2.33,1,1,0,0,1,1.47-.77c.24.12,5.61,3.2,2.92,13.63-2,7.82-12,8.94-13.18,9Zm3.41-27A12.91,12.91,0,0,1,43,41.3a16.14,16.14,0,0,1-2.14,7.86q-.26.48-.48,1C38,55.2,39.15,60.51,39.7,62.41,42,62.06,48.9,60.56,50.36,55s.28-8.78-.79-10.24a9.55,9.55,0,0,1-2.7,5.16,1,1,0,0,1-1.62-.94C46.13,43.46,44.41,39.81,42.41,37.51Z" style="fill:#fff"/><path d="M24.81,58.19A22.64,22.64,0,0,1,17,41.09c0-.54,0-1.07.06-1.6l2,.14c0,.49,0,1,0,1.46a20.65,20.65,0,0,0,7.11,15.59Z" style="fill:#fff"/><path d="M20.45,33.52l-1.86-.74a22.55,22.55,0,0,1,6.88-9.33L26.72,25A20.58,20.58,0,0,0,20.45,33.52Z" style="fill:#fff"/><path d="M57.88,54.55l-1.61-1.19a20.38,20.38,0,0,0,4-12.27v-.42l2-.13c0,.18,0,.38,0,.55A22.4,22.4,0,0,1,57.88,54.55Z" style="fill:#fff"/><path d="M59.23,34.46a20.94,20.94,0,0,0-2-4.22l1.69-1.06a22.61,22.61,0,0,1,2.2,4.63Z" style="fill:#fff"/><path d="M49.39,22.88a20.73,20.73,0,0,0-12.81-2.21l-.3-2a22.6,22.6,0,0,1,14.06,2.42Z" style="fill:#fff"/><path d="M55,29.5a4,4,0,1,1,4-4A4,4,0,0,1,55,29.5Zm0-6a2,2,0,1,0,2,2A2,2,0,0,0,55,23.5Z" style="fill:#fff"/><path d="M32,25.5a4,4,0,1,1,4-4A4,4,0,0,1,32,25.5Zm0-6a2,2,0,1,0,2,2A2,2,0,0,0,32,19.5Z" style="fill:#fff"/><path d="M61,41.5a4,4,0,1,1,4-4A4,4,0,0,1,61,41.5Zm0-6a2,2,0,1,0,2,2A2,2,0,0,0,61,35.5Z" style="fill:#fff"/><path d="M19,40.5a4,4,0,1,1,4-4A4,4,0,0,1,19,40.5Zm0-6a2,2,0,1,0,2,2A2,2,0,0,0,19,34.5Z" style="fill:#fff"/></g></svg>