<svg xmlns="http://www.w3.org/2000/svg" width="80" height="100" viewBox="0 0 80 100"><title>Artboard 71</title><g id="CARDS"><rect x="1" y="1" width="78" height="78" style="fill:#232f3e"/><path d="M0,0V80H0v20H80V80h0V0ZM1,1H79V79H1Z" style="fill:#fff"/></g><g id="TEXT_-_EDIT" data-name="TEXT - EDIT"><path d="M14.59,92.35l-.43-1.82h-2l-.42,1.82H10l2.31-7.63h1.87l2.3,7.63Zm-2.18-2.92H13.9l-.75-3.16Z" style="fill:#232f3e"/><path d="M21.8,92.35l-.94-5.63L20,92.35H18.1l-1.79-7.63H18l1.06,6.06L20,85h1.83l.94,5.65,1-6h1.67l-1.79,7.63Z" style="fill:#232f3e"/><path d="M27.75,89a3.6,3.6,0,0,1-1.28-1,2,2,0,0,1-.39-1.23,2.07,2.07,0,0,1,.34-1.17,2.17,2.17,0,0,1,.92-.77,3.19,3.19,0,0,1,1.35-.27,4.92,4.92,0,0,1,1.89.39v1.17a5.5,5.5,0,0,0-1.72-.33,1.27,1.27,0,0,0-.8.23.78.78,0,0,0-.29.64.81.81,0,0,0,.19.56,2.09,2.09,0,0,0,.72.48l.65.32a5.33,5.33,0,0,1,1,.62,1.86,1.86,0,0,1,.54.69,2.13,2.13,0,0,1,.18.92,2,2,0,0,1-.74,1.65,3.13,3.13,0,0,1-2.05.61,5.5,5.5,0,0,1-1.13-.12,3.9,3.9,0,0,1-.95-.32V90.92a7.45,7.45,0,0,0,1,.25,5.33,5.33,0,0,0,.95.11A1.32,1.32,0,0,0,29,91a.86.86,0,0,0,.3-.71.84.84,0,0,0-.21-.58,2.4,2.4,0,0,0-.7-.47Z" style="fill:#232f3e"/><path d="M34.82,92.35V84.72h4.35V85.9H36.51V88h2.08v1.17H36.51v3.22Z" style="fill:#232f3e"/><path d="M42.75,92.35l-.15-.51a1.42,1.42,0,0,1-.59.47,1.85,1.85,0,0,1-.78.18A1.56,1.56,0,0,1,40.05,92a1.66,1.66,0,0,1-.44-1.22,1.69,1.69,0,0,1,.53-1.31A2.08,2.08,0,0,1,41.58,89a4,4,0,0,1,.93.13v-.51a1.32,1.32,0,0,0-.17-.78.77.77,0,0,0-.61-.2A5.9,5.9,0,0,0,40,88V87a3.07,3.07,0,0,1,.92-.33A5.57,5.57,0,0,1,42,86.58a2.18,2.18,0,0,1,1.51.44A1.78,1.78,0,0,1,44,88.41v3.94Zm-1-.92a1.19,1.19,0,0,0,.8-.35V90a2.38,2.38,0,0,0-.63-.07.69.69,0,0,0-.54.2.85.85,0,0,0-.18.59.82.82,0,0,0,.15.52A.47.47,0,0,0,41.71,91.43Z" style="fill:#232f3e"/><path d="M45.42,92.35V86.72h1.35l.18.73a2.5,2.5,0,0,1,.72-.59,1.52,1.52,0,0,1,.75-.19,2.56,2.56,0,0,1,.39,0V88a5,5,0,0,0-.64,0,2.47,2.47,0,0,0-1.1.26v4.11Z" style="fill:#232f3e"/><path d="M52.46,91.71a1.72,1.72,0,0,1-2.66-.21,3.46,3.46,0,0,1-.52-2,3.6,3.6,0,0,1,.53-2.11,1.71,1.71,0,0,1,1.47-.77,1.79,1.79,0,0,1,.7.17,2,2,0,0,1,.63.45l.12-.48h1.35V92c0,1.86-.85,2.79-2.56,2.79a3.86,3.86,0,0,1-1.83-.44v-1a5.45,5.45,0,0,0,1.61.35,1.48,1.48,0,0,0,.7-.13.72.72,0,0,0,.35-.44,3.19,3.19,0,0,0,.11-1Zm-.67-.6a1.29,1.29,0,0,0,.67-.22V88a1.35,1.35,0,0,0-.74-.27.63.63,0,0,0-.6.42,3.23,3.23,0,0,0-.19,1.3,3,3,0,0,0,.21,1.28A.7.7,0,0,0,51.79,91.11Z" style="fill:#232f3e"/><path d="M58.41,92.35l-.15-.51a1.42,1.42,0,0,1-.59.47,1.81,1.81,0,0,1-.78.18A1.56,1.56,0,0,1,55.71,92a1.88,1.88,0,0,1,.1-2.53A2,2,0,0,1,57.24,89a4,4,0,0,1,.93.13v-.51a1.32,1.32,0,0,0-.17-.78.74.74,0,0,0-.6-.2,5.9,5.9,0,0,0-1.78.35V87a3.07,3.07,0,0,1,.92-.33,5.57,5.57,0,0,1,1.16-.12,2.21,2.21,0,0,1,1.52.44,1.82,1.82,0,0,1,.47,1.39v3.94Zm-1-.92a1.19,1.19,0,0,0,.8-.35V90a2.38,2.38,0,0,0-.63-.07.69.69,0,0,0-.54.2.85.85,0,0,0-.18.59.82.82,0,0,0,.15.52A.47.47,0,0,0,57.37,91.43Z" style="fill:#232f3e"/><path d="M64.12,92.2a3.47,3.47,0,0,1-1.23.22,1.8,1.8,0,0,1-1.31-.4,1.77,1.77,0,0,1-.41-1.3v-2.9h-.74V86.9l.79-.15.24-1.54h1.36v1.51h1.27v1.1H62.82v2.77a.79.79,0,0,0,.14.52.69.69,0,0,0,.53.16,2.94,2.94,0,0,0,.63-.08Z" style="fill:#232f3e"/><path d="M66.21,89.92A1.71,1.71,0,0,0,66.58,91a1.43,1.43,0,0,0,1.06.33,3.26,3.26,0,0,0,.68-.09,5.9,5.9,0,0,0,.8-.21v1a2.88,2.88,0,0,1-.83.31,4.77,4.77,0,0,1-1,.11c-1.72,0-2.58-1-2.58-2.95a3.37,3.37,0,0,1,.63-2.2,2.23,2.23,0,0,1,1.83-.76c1.36,0,2,.76,2,2.29a4.32,4.32,0,0,1-.12,1Zm.92-2.32c-.58,0-.88.46-.92,1.37h1.62v-.25a1.68,1.68,0,0,0-.17-.86A.59.59,0,0,0,67.13,87.6Z" style="fill:#232f3e"/></g><g id="ICONS_-_EDIT" data-name="ICONS - EDIT"><path d="M40,42a1,1,0,0,1-1-1V27.74L27.27,22.3a.87.87,0,0,1-.43.08,1,1,0,0,1-1-1,1.58,1.58,0,0,1,.9-1.42l12.57-5.81a1.52,1.52,0,0,1,1.33,0L53.21,20a1.57,1.57,0,0,1,.91,1.42V35.77a4.42,4.42,0,0,1-2.62,4A28,28,0,0,1,40,42ZM29.26,21,40.1,26a1.56,1.56,0,0,1,.9,1.41V40a25.43,25.43,0,0,0,9.68-2,2.43,2.43,0,0,0,1.44-2.23V21.66L40,16.05Zm-2.45,1.06h0Zm13-6.12h0Zm.4,0h0Z" style="fill:#fff"/><path d="M40,42a31.62,31.62,0,0,1-7.71-.89L31.8,41l-.92-.26c-.59-.19-1.12-.38-1.59-.56L29,40.05l-.11,0-.1-.05-.31-.14c-.18-.08-.35-.17-.51-.26a.41.41,0,0,1-.11-.07,4.29,4.29,0,0,1-.48-.36,2.1,2.1,0,0,1-.27-.26L27,38.7a4.5,4.5,0,0,1-1.09-2.92V21.38a1.27,1.27,0,0,1,.62-1.06,1.25,1.25,0,0,1,1.16,0L40.1,26a1.56,1.56,0,0,1,.9,1.41V41A1,1,0,0,1,40,42ZM29.66,38.15h0l.35.15c.39.14.88.32,1.42.5l.86.24.47.13A29.53,29.53,0,0,0,39,40V27.74L27.88,22.58v13.2a2.42,2.42,0,0,0,.59,1.59l.09.1.11.11.3.23h0l.34.17ZM26.81,22.08h0Z" style="fill:#fff"/><path d="M41,66a1.29,1.29,0,0,1-.6-.14l-4.66-2A1.25,1.25,0,0,1,35,62.73V56.64a1.22,1.22,0,0,1,.68-1.09l4.76-2a1.28,1.28,0,0,1,1.13,0l4.66,2A1.25,1.25,0,0,1,47,56.64v6.09a1.24,1.24,0,0,1-.68,1.1l-4.78,2.06A1.16,1.16,0,0,1,41,66Zm-.25-2a.2.2,0,0,0-.08,0Zm.44,0,.06,0ZM37,62.22l4,1.72,4-1.72V57.15l-4-1.71-4,1.71Zm3.72-6.9.06,0Zm.59,0Z" style="fill:#fff"/><path d="M40.89,66a1.11,1.11,0,0,1-.5-.12l-4.65-2A1.27,1.27,0,0,1,35,62.73V56.65a1.14,1.14,0,0,1,.52-.92,1.08,1.08,0,0,1,1.07,0l4.66,2A1.25,1.25,0,0,1,42,58.81v6.08A1.09,1.09,0,0,1,40.89,66ZM37,62.22l3,1.29V59.32L37,58Z" style="fill:#fff"/><rect x="40.83" y="56.76" width="5.37" height="2" transform="translate(-18.62 20.76) rotate(-22.23)" style="fill:#fff"/><path d="M52,59.63a1.3,1.3,0,0,1-.6-.15l-4.66-2A1.25,1.25,0,0,1,46,56.36V50.27a1.24,1.24,0,0,1,.68-1.1l4.76-2.05a1.28,1.28,0,0,1,1.13,0l4.66,2A1.25,1.25,0,0,1,58,50.27v6.09a1.22,1.22,0,0,1-.68,1.09l-4.78,2.06A1,1,0,0,1,52,59.63Zm-.25-2-.08,0Zm.44,0,.06,0ZM48,55.85l4,1.71,4-1.71V50.78l-4-1.72-4,1.72ZM51.72,49l.06,0Zm.59,0Z" style="fill:#fff"/><path d="M51.89,59.6a1.11,1.11,0,0,1-.5-.12l-4.65-2A1.25,1.25,0,0,1,46,56.36V50.27a1.14,1.14,0,0,1,.52-.92,1.13,1.13,0,0,1,1.07,0l4.66,2A1.25,1.25,0,0,1,53,52.44v6.08a1.17,1.17,0,0,1-.52.92A1.1,1.1,0,0,1,51.89,59.6ZM48,55.85l3,1.28V52.94l-3-1.28Z" style="fill:#fff"/><rect x="51.83" y="50.39" width="5.37" height="2" transform="translate(-15.39 24.45) rotate(-22.23)" style="fill:#fff"/><path d="M30,59.63a1.3,1.3,0,0,1-.6-.15l-4.66-2A1.25,1.25,0,0,1,24,56.36V50.27a1.24,1.24,0,0,1,.68-1.1l4.76-2.05a1.28,1.28,0,0,1,1.13,0l4.66,2A1.25,1.25,0,0,1,36,50.27v6.09a1.22,1.22,0,0,1-.68,1.09l-4.78,2.06A1,1,0,0,1,30,59.63Zm-.25-2-.08,0Zm.44,0,.06,0ZM26,55.85l4,1.71,4-1.71V50.78l-4-1.72-4,1.72ZM29.72,49l.06,0Zm.59,0Z" style="fill:#fff"/><path d="M29.89,59.6a1.11,1.11,0,0,1-.5-.12l-4.65-2A1.25,1.25,0,0,1,24,56.36V50.27a1.14,1.14,0,0,1,.52-.92,1.13,1.13,0,0,1,1.07,0l4.66,2A1.25,1.25,0,0,1,31,52.44v6.08a1.17,1.17,0,0,1-.52.92A1.1,1.1,0,0,1,29.89,59.6ZM26,55.85l3,1.28V52.94l-3-1.28Z" style="fill:#fff"/><rect x="29.83" y="50.39" width="5.37" height="2" transform="translate(-17.03 16.12) rotate(-22.23)" style="fill:#fff"/><rect x="39.63" y="23.27" width="14.11" height="2" transform="translate(-5.85 21.26) rotate(-24.19)" style="fill:#fff"/><path d="M40,46c-12.6,0-26-3.15-26-9,0-2.74,3.1-5.16,8.72-6.82l.56,1.92C18.79,33.42,16,35.3,16,37c0,3.31,9.86,7,24,7s24-3.69,24-7c0-1.7-2.79-3.58-7.28-4.9l.56-1.92C62.9,31.84,66,34.26,66,37,66,42.85,52.6,46,40,46Z" style="fill:#fff"/></g></svg>