<svg xmlns="http://www.w3.org/2000/svg" width="80" height="100" viewBox="0 0 80 100"><title>architecture-product-card_Amazon_EKS</title><g id="ICONS_-_EDIT" data-name="ICONS - EDIT"><rect x="1" y="1" width="78" height="78" style="fill:#232f3e"/><path d="M0,0V80H0v20H80V80h0V0ZM1,1H79V79H1Z" style="fill:#fff"/><path d="M14.84,92.35l-.43-1.82h-2L12,92.35H10.22l2.31-7.63H14.4l2.3,7.63Zm-2.18-2.92h1.5l-.76-3.16Z" style="fill:#232f3e"/><path d="M23.56,92.35V88.64a1.32,1.32,0,0,0-.14-.69.51.51,0,0,0-.47-.22,1.53,1.53,0,0,0-.79.26.49.49,0,0,1,0,.12v4.24H20.52V88.64a1.32,1.32,0,0,0-.14-.69.5.5,0,0,0-.46-.22,1.56,1.56,0,0,0-.79.26v4.36H17.48V86.72h1.35l.13.51a3.34,3.34,0,0,1,1.81-.65,1.27,1.27,0,0,1,1.21.67,3.38,3.38,0,0,1,1.83-.67,1.28,1.28,0,0,1,1,.42,1.85,1.85,0,0,1,.37,1.22v4.13Z" style="fill:#232f3e"/><path d="M29.51,92.35l-.15-.51a1.42,1.42,0,0,1-.59.47,1.85,1.85,0,0,1-.78.18A1.56,1.56,0,0,1,26.81,92a1.66,1.66,0,0,1-.44-1.22,1.69,1.69,0,0,1,.53-1.31A2.08,2.08,0,0,1,28.34,89a4,4,0,0,1,.93.13v-.51a1.32,1.32,0,0,0-.17-.78.77.77,0,0,0-.61-.2,5.9,5.9,0,0,0-1.77.35V87a3.07,3.07,0,0,1,.92-.33,5.57,5.57,0,0,1,1.16-.12,2.18,2.18,0,0,1,1.51.44,1.78,1.78,0,0,1,.47,1.39v3.94Zm-1-.92a1.21,1.21,0,0,0,.8-.35V90a2.38,2.38,0,0,0-.63-.07.69.69,0,0,0-.54.2.85.85,0,0,0-.18.59.82.82,0,0,0,.15.52A.47.47,0,0,0,28.47,91.43Z" style="fill:#232f3e"/><path d="M31.77,92.35V91.28l2.5-3.4h-2.4V86.72H36v1.07l-2.49,3.4h2.54v1.16Z" style="fill:#232f3e"/><path d="M39.29,92.49a2.27,2.27,0,0,1-1.84-.77,3.95,3.95,0,0,1,0-4.37,2.58,2.58,0,0,1,3.68,0,4,4,0,0,1,0,4.37A2.29,2.29,0,0,1,39.29,92.49Zm0-1.15a.65.65,0,0,0,.64-.43,4.79,4.79,0,0,0,0-2.74.65.65,0,0,0-.64-.44.67.67,0,0,0-.65.44,5,5,0,0,0,0,2.74A.67.67,0,0,0,39.29,91.34Z" style="fill:#232f3e"/><path d="M46.05,92.35v-3.7a1.25,1.25,0,0,0-.15-.7.53.53,0,0,0-.49-.22,1.59,1.59,0,0,0-.82.26v4.36H42.94V86.72h1.35l.13.51a3.35,3.35,0,0,1,1.84-.65,1.34,1.34,0,0,1,1.07.42,1.83,1.83,0,0,1,.37,1.22v4.13Z" style="fill:#232f3e"/><path d="M51.75,92.35V84.72h4.54V85.9H53.43v1.95h2.29V89H53.43v2.15h2.86v1.18Z" style="fill:#232f3e"/><path d="M57.52,92.35V84.72H59.2v3.39l2.28-3.39h1.87l-2.64,3.57,2.85,4.06h-2L59.2,88.66v3.69Z" style="fill:#232f3e"/><path d="M65.68,89a3.55,3.55,0,0,1-1.27-1A2,2,0,0,1,64,86.77a2,2,0,0,1,.34-1.17,2.11,2.11,0,0,1,.92-.77,3.18,3.18,0,0,1,1.34-.27,4.93,4.93,0,0,1,1.9.39v1.17a5.55,5.55,0,0,0-1.73-.33A1.26,1.26,0,0,0,66,86a.75.75,0,0,0-.29.64.81.81,0,0,0,.19.56,2.14,2.14,0,0,0,.71.48l.65.32a5.12,5.12,0,0,1,1,.62,2,2,0,0,1,.54.69,2.29,2.29,0,0,1,.17.92,2,2,0,0,1-.74,1.65,3.09,3.09,0,0,1-2,.61,5.43,5.43,0,0,1-1.13-.12,3.76,3.76,0,0,1-1-.32V90.92a7.29,7.29,0,0,0,1,.25,5.33,5.33,0,0,0,1,.11A1.32,1.32,0,0,0,67,91a.86.86,0,0,0,.3-.71.84.84,0,0,0-.21-.58,2.47,2.47,0,0,0-.71-.47Z" style="fill:#232f3e"/><path d="M40.9,64.84a1.13,1.13,0,0,1-.5-.13l-20.7-12a1,1,0,0,1-.5-.86V27.13a1,1,0,0,1,.5-.87l19-11a1,1,0,0,1,1,0,1,1,0,0,1,.5.87v10.6a1,1,0,0,1-.5.87L30.2,33.1v13l10.7,6.18,9.37-5.42a1,1,0,0,1,1,0l9,5.19a1,1,0,0,1,0,1.74L41.4,64.71A1.09,1.09,0,0,1,40.9,64.84ZM21.2,51.31,40.9,62.69l16.9-9.76-7-4L41.4,54.31a1,1,0,0,1-1,0L28.7,47.55a1,1,0,0,1-.5-.86V32.53a1,1,0,0,1,.5-.87l9.5-5.48V17.89l-17,9.81Z" style="fill:#fff"/><polygon points="42 26.81 42 16.21 61 27.18 61 49.61 52 44.43 52 32.58 42 26.81" style="fill:none;stroke:#fff;stroke-linejoin:round;stroke-width:2px"/><path d="M35.5,46.48v-14h2v6.26l5.59-6.26h2.35l-6,6.69L46,46.48H43.52l-6-6.69v6.69Z" style="fill:#fff"/></g></svg>