<svg xmlns="http://www.w3.org/2000/svg" width="80" height="115" viewBox="0 0 80 115"><title>architecture-product-card_AWS_Device_Farm</title><g id="CARDS"><rect x="1" y="1" width="78" height="78" style="fill:#232f3e"/><path d="M0,0V80H0v35H80V80h0V0ZM1,1H79V79H1Z" style="fill:#fff"/></g><g id="TEXT_-_EDIT" data-name="TEXT - EDIT"><path d="M16.91,92.35l-.43-1.82h-2l-.42,1.82H12.28l2.32-7.63h1.87l2.3,7.63Zm-2.18-2.92h1.49l-.75-3.16Z" style="fill:#232f3e"/><path d="M24.12,92.35l-.94-5.63-.9,5.63H20.42l-1.79-7.63h1.7l1.06,6.06L22.31,85h1.83l.94,5.65,1-6h1.67L26,92.35Z" style="fill:#232f3e"/><path d="M30.07,89a3.6,3.6,0,0,1-1.28-1,2,2,0,0,1-.39-1.23,2.07,2.07,0,0,1,.34-1.17,2.17,2.17,0,0,1,.92-.77A3.19,3.19,0,0,1,31,84.56,4.92,4.92,0,0,1,32.9,85v1.17a5.5,5.5,0,0,0-1.72-.33,1.27,1.27,0,0,0-.8.23.78.78,0,0,0-.29.64.81.81,0,0,0,.19.56,2.14,2.14,0,0,0,.71.48l.66.32a5.33,5.33,0,0,1,1,.62,2,2,0,0,1,.54.69,2.13,2.13,0,0,1,.18.92,2,2,0,0,1-.75,1.65,3.09,3.09,0,0,1-2,.61,5.43,5.43,0,0,1-1.13-.12,3.9,3.9,0,0,1-1-.32V90.92a7.68,7.68,0,0,0,1,.25,5.53,5.53,0,0,0,1,.11,1.32,1.32,0,0,0,.88-.25.86.86,0,0,0,.3-.71.84.84,0,0,0-.21-.58,2.4,2.4,0,0,0-.7-.47Z" style="fill:#232f3e"/><path d="M37.14,92.35V84.72h2.52a2.92,2.92,0,0,1,2.36,1,4.33,4.33,0,0,1,.81,2.84,4.42,4.42,0,0,1-.8,2.85,2.83,2.83,0,0,1-2.31,1Zm1.69-6.45v5.27h.71a1.3,1.3,0,0,0,1.17-.62,3.8,3.8,0,0,0,.38-1.91v-.22a3.75,3.75,0,0,0-.38-1.91,1.29,1.29,0,0,0-1.19-.61Z" style="fill:#232f3e"/><path d="M45.36,89.92A1.66,1.66,0,0,0,45.72,91a1.43,1.43,0,0,0,1.06.33,3.26,3.26,0,0,0,.68-.09,5.9,5.9,0,0,0,.8-.21v1a2.88,2.88,0,0,1-.83.31,4.77,4.77,0,0,1-1,.11c-1.72,0-2.58-1-2.58-2.95a3.37,3.37,0,0,1,.63-2.2,2.24,2.24,0,0,1,1.83-.76c1.37,0,2,.76,2,2.29a4.32,4.32,0,0,1-.12,1Zm.91-2.32c-.58,0-.88.46-.91,1.37H47v-.25a1.68,1.68,0,0,0-.17-.86A.59.59,0,0,0,46.27,87.6Z" style="fill:#232f3e"/><path d="M50.69,92.35l-1.85-5.63h1.74l.9,4,.91-4h1.7l-1.84,5.63Z" style="fill:#232f3e"/><path d="M55.72,85.81a1,1,0,0,1-.71-.22.76.76,0,0,1-.27-.61.75.75,0,0,1,.27-.61,1.2,1.2,0,0,1,1.41,0,.77.77,0,0,1,.26.61.79.79,0,0,1-.26.61A1,1,0,0,1,55.72,85.81Zm-.83,6.54V86.72h1.65v5.63Z" style="fill:#232f3e"/><path d="M61.63,92.09a2,2,0,0,1-.64.26,3.44,3.44,0,0,1-.8.09,2.29,2.29,0,0,1-1.85-.73,3.29,3.29,0,0,1-.62-2.16,3.16,3.16,0,0,1,.67-2.16,2.34,2.34,0,0,1,1.87-.76,2.93,2.93,0,0,1,1.35.33v1a3.09,3.09,0,0,0-1-.19,1.05,1.05,0,0,0-.93.4,2.29,2.29,0,0,0-.28,1.29v.16a2.32,2.32,0,0,0,.27,1.28,1,1,0,0,0,.91.4,3.22,3.22,0,0,0,1.08-.21Z" style="fill:#232f3e"/><path d="M63.9,89.92A1.66,1.66,0,0,0,64.26,91a1.45,1.45,0,0,0,1.06.33,3.26,3.26,0,0,0,.68-.09,5.54,5.54,0,0,0,.8-.21v1a2.77,2.77,0,0,1-.83.31,4.77,4.77,0,0,1-1,.11c-1.72,0-2.58-1-2.58-2.95a3.32,3.32,0,0,1,.64-2.2,2.22,2.22,0,0,1,1.82-.76c1.37,0,2,.76,2,2.29a4.32,4.32,0,0,1-.12,1Zm.91-2.32c-.58,0-.88.46-.91,1.37h1.61v-.25a1.68,1.68,0,0,0-.17-.86A.59.59,0,0,0,64.81,87.6Z" style="fill:#232f3e"/><path d="M28.61,106.35V98.72H33V99.9H30.3V102h2.08v1.17H30.3v3.22Z" style="fill:#232f3e"/><path d="M36.54,106.35l-.15-.51a1.49,1.49,0,0,1-.59.47,1.85,1.85,0,0,1-.78.18,1.56,1.56,0,0,1-1.18-.45,1.66,1.66,0,0,1-.44-1.22,1.69,1.69,0,0,1,.53-1.31,2.08,2.08,0,0,1,1.44-.47,3.88,3.88,0,0,1,.92.13v-.51a1.33,1.33,0,0,0-.16-.78.77.77,0,0,0-.61-.2,5.9,5.9,0,0,0-1.77.35v-1a3.07,3.07,0,0,1,.92-.33,5.54,5.54,0,0,1,1.15-.12,2.19,2.19,0,0,1,1.52.44,1.78,1.78,0,0,1,.47,1.39v3.94Zm-1-.92a1.17,1.17,0,0,0,.79-.35V104a2.25,2.25,0,0,0-.62-.07.69.69,0,0,0-.54.2.85.85,0,0,0-.18.59.82.82,0,0,0,.15.52A.47.47,0,0,0,35.5,105.43Z" style="fill:#232f3e"/><path d="M39.21,106.35v-5.63h1.35l.18.73a2.5,2.5,0,0,1,.72-.59,1.49,1.49,0,0,1,.75-.19,2.56,2.56,0,0,1,.39,0V102a5,5,0,0,0-.64,0,2.47,2.47,0,0,0-1.1.26v4.11Z" style="fill:#232f3e"/><path d="M49.41,106.35v-3.71a1.33,1.33,0,0,0-.13-.69.51.51,0,0,0-.47-.22A1.53,1.53,0,0,0,48,102s0,.08,0,.12v4.24H46.38v-3.71a1.32,1.32,0,0,0-.14-.69.5.5,0,0,0-.46-.22A1.56,1.56,0,0,0,45,102v4.36H43.34v-5.63h1.35l.13.51a3.34,3.34,0,0,1,1.81-.65,1.27,1.27,0,0,1,1.21.67,3.33,3.33,0,0,1,1.83-.67,1.28,1.28,0,0,1,1,.42,1.85,1.85,0,0,1,.36,1.22v4.13Z" style="fill:#232f3e"/></g><g id="ICONS_-_EDIT" data-name="ICONS - EDIT"><rect x="41.31" y="34.68" width="11.12" height="2" transform="translate(-11.57 28.29) rotate(-30.07)" style="fill:#fff"/><rect x="31.86" y="30.22" width="2" height="11.11" transform="translate(-14.57 46.25) rotate(-59.88)" style="fill:#fff"/><rect x="39" y="42.75" width="2" height="11" style="fill:#fff"/><path d="M39.9,27.18a3.6,3.6,0,1,1,3.6-3.6A3.61,3.61,0,0,1,39.9,27.18Zm0-5.2a1.6,1.6,0,1,0,1.6,1.6A1.6,1.6,0,0,0,39.9,22Z" style="fill:#fff"/><path d="M39.9,43.5a3.6,3.6,0,1,1,3.6-3.6A3.61,3.61,0,0,1,39.9,43.5Zm0-5.2a1.6,1.6,0,1,0,1.6,1.6A1.6,1.6,0,0,0,39.9,38.3Z" style="fill:#fff"/><path d="M39.9,59.75a3.6,3.6,0,1,1,3.6-3.6A3.6,3.6,0,0,1,39.9,59.75Zm0-5.19a1.6,1.6,0,1,0,1.6,1.59A1.6,1.6,0,0,0,39.9,54.56Z" style="fill:#fff"/><path d="M25.79,35.32a3.6,3.6,0,1,1,3.6-3.6A3.6,3.6,0,0,1,25.79,35.32Zm0-5.19a1.6,1.6,0,1,0,1.6,1.59A1.59,1.59,0,0,0,25.79,30.13Z" style="fill:#fff"/><path d="M54,51.61A3.6,3.6,0,1,1,57.6,48,3.6,3.6,0,0,1,54,51.61Zm0-5.2A1.6,1.6,0,1,0,55.6,48,1.6,1.6,0,0,0,54,46.41Z" style="fill:#fff"/><path d="M54,35.32a3.6,3.6,0,1,1,3.59-3.6A3.6,3.6,0,0,1,54,35.32Zm0-5.19a1.6,1.6,0,1,0,1.59,1.59A1.59,1.59,0,0,0,54,30.13Z" style="fill:#fff"/><path d="M25.79,51.61a3.6,3.6,0,1,1,3.6-3.6A3.6,3.6,0,0,1,25.79,51.61Zm0-5.2a1.6,1.6,0,1,0,1.6,1.6A1.6,1.6,0,0,0,25.79,46.41Z" style="fill:#fff"/><path d="M40,65.25a1,1,0,0,1-.5-.14L18.5,53a1,1,0,0,1-.5-.87V27.88a1,1,0,0,1,.5-.87l21-12.12a1,1,0,0,1,1,0L61.5,27a1,1,0,0,1,.5.87V52.12a1,1,0,0,1-.5.87l-21,12.12A1,1,0,0,1,40,65.25ZM20,51.55,40,63.09,60,51.55V28.45L40,16.91,20,28.45Z" style="fill:#fff"/><rect x="25" y="37.75" width="2" height="4" style="fill:#fff"/><rect x="53" y="37.75" width="2" height="4" style="fill:#fff"/><rect x="30.61" y="26.55" width="4.27" height="2" transform="translate(-9.32 19.65) rotate(-29.44)" style="fill:#fff"/><rect x="45.86" y="25.36" width="2" height="4.27" transform="matrix(0.51, -0.86, 0.86, 0.51, -0.55, 54.04)" style="fill:#fff"/><rect x="31.74" y="49.9" width="2" height="4.27" transform="translate(-28.67 54.95) rotate(-60.54)" style="fill:#fff"/><rect x="44.72" y="51.09" width="4.27" height="2" transform="matrix(0.86, -0.51, 0.51, 0.86, -19.9, 30.81)" style="fill:#fff"/></g></svg>