<svg xmlns="http://www.w3.org/2000/svg" width="80" height="115" viewBox="0 0 80 115"><title>architecture-product-card_AWS_Systems_Manager</title><g id="CARDS"><rect x="1" y="1" width="78" height="78" style="fill:#232f3e"/><path d="M0,0V80H0v35H80V80h0V0ZM1,1H79V79H1Z" style="fill:#fff"/></g><g id="TEXT_-_EDIT" data-name="TEXT - EDIT"><path d="M13.19,92.35l-.43-1.82h-2l-.42,1.82H8.57l2.31-7.63h1.87l2.3,7.63ZM11,89.43h1.5l-.76-3.16Z" style="fill:#232f3e"/><path d="M20.4,92.35l-.94-5.63-.89,5.63H16.7l-1.78-7.63h1.7l1.06,6.06L18.59,85h1.83l.94,5.65,1-6h1.66l-1.78,7.63Z" style="fill:#232f3e"/><path d="M26.35,89a3.7,3.7,0,0,1-1.28-1,2,2,0,0,1-.38-1.23A2.06,2.06,0,0,1,25,85.6a2.2,2.2,0,0,1,.93-.77,3.14,3.14,0,0,1,1.34-.27,4.88,4.88,0,0,1,1.89.39v1.17a5.44,5.44,0,0,0-1.72-.33,1.29,1.29,0,0,0-.8.23.78.78,0,0,0-.29.64.86.86,0,0,0,.19.56,2.2,2.2,0,0,0,.72.48l.65.32a4.73,4.73,0,0,1,1,.62,1.76,1.76,0,0,1,.54.69,2.13,2.13,0,0,1,.18.92,2,2,0,0,1-.74,1.65,3.12,3.12,0,0,1-2,.61,5.52,5.52,0,0,1-1.14-.12,4.06,4.06,0,0,1-.95-.32V90.92a7.45,7.45,0,0,0,1,.25,5.33,5.33,0,0,0,1,.11,1.31,1.31,0,0,0,.87-.25.94.94,0,0,0,.1-1.29,2.62,2.62,0,0,0-.71-.47Z" style="fill:#232f3e"/><path d="M34.75,89a3.6,3.6,0,0,1-1.28-1,2,2,0,0,1-.39-1.23,2.07,2.07,0,0,1,.34-1.17,2.17,2.17,0,0,1,.92-.77,3.19,3.19,0,0,1,1.35-.27,4.92,4.92,0,0,1,1.89.39v1.17a5.5,5.5,0,0,0-1.72-.33,1.27,1.27,0,0,0-.8.23.78.78,0,0,0-.29.64.81.81,0,0,0,.19.56,2.09,2.09,0,0,0,.72.48l.65.32a5.33,5.33,0,0,1,1,.62,1.86,1.86,0,0,1,.54.69,2.13,2.13,0,0,1,.18.92,2,2,0,0,1-.74,1.65,3.13,3.13,0,0,1-2,.61,5.5,5.5,0,0,1-1.13-.12,3.9,3.9,0,0,1-.95-.32V90.92a7.45,7.45,0,0,0,1,.25,5.33,5.33,0,0,0,1,.11A1.32,1.32,0,0,0,36,91a.86.86,0,0,0,.3-.71.84.84,0,0,0-.21-.58,2.4,2.4,0,0,0-.7-.47Z" style="fill:#232f3e"/><path d="M40.49,92.46l-2-5.74h1.74l.93,4.14.9-4.14h1.7l-2,6.48a2.49,2.49,0,0,1-.68,1.18,1.65,1.65,0,0,1-1.11.36,3.69,3.69,0,0,1-1.06-.16v-1a4.24,4.24,0,0,0,.58,0,.94.94,0,0,0,.69-.22,1.27,1.27,0,0,0,.3-.74Z" style="fill:#232f3e"/><path d="M46.54,90.77c0-.25-.17-.46-.52-.62l-.72-.35a1.7,1.7,0,0,1-1.13-1.59A1.42,1.42,0,0,1,44.72,87a2.26,2.26,0,0,1,1.47-.45,3.57,3.57,0,0,1,1.53.35v1a4.77,4.77,0,0,0-.7-.19,3,3,0,0,0-.6-.07c-.51,0-.77.18-.77.54s.21.45.64.66l.72.34a1.83,1.83,0,0,1,.77.62,1.69,1.69,0,0,1,.24.93A1.56,1.56,0,0,1,47.47,92a2.28,2.28,0,0,1-1.48.46,3.83,3.83,0,0,1-1.82-.44v-1a5.45,5.45,0,0,0,1.61.35.86.86,0,0,0,.57-.17A.56.56,0,0,0,46.54,90.77Z" style="fill:#232f3e"/><path d="M52,92.2a3.47,3.47,0,0,1-1.23.22,1.8,1.8,0,0,1-1.31-.4,1.77,1.77,0,0,1-.41-1.3v-2.9H48.3V86.9l.78-.15.24-1.54h1.37v1.51H52v1.1H50.69v2.77a.74.74,0,0,0,.14.52.69.69,0,0,0,.53.16,3,3,0,0,0,.63-.08Z" style="fill:#232f3e"/><path d="M54.08,89.92A1.77,1.77,0,0,0,54.44,91a1.47,1.47,0,0,0,1.07.33,3.26,3.26,0,0,0,.68-.09,6.31,6.31,0,0,0,.8-.21v1a3,3,0,0,1-.83.31,4.77,4.77,0,0,1-1,.11c-1.72,0-2.58-1-2.58-2.95a3.37,3.37,0,0,1,.63-2.2,2.23,2.23,0,0,1,1.83-.76c1.36,0,2.05.76,2.05,2.29a4.32,4.32,0,0,1-.12,1ZM55,87.6c-.58,0-.88.46-.92,1.37H55.7v-.25a1.68,1.68,0,0,0-.17-.86A.59.59,0,0,0,55,87.6Z" style="fill:#232f3e"/><path d="M64.3,92.35V88.64a1.32,1.32,0,0,0-.14-.69.5.5,0,0,0-.46-.22,1.56,1.56,0,0,0-.8.26.49.49,0,0,1,0,.12v4.24H61.26V88.64a1.33,1.33,0,0,0-.13-.69.51.51,0,0,0-.47-.22,1.55,1.55,0,0,0-.78.26v4.36H58.23V86.72h1.35l.13.51a3.29,3.29,0,0,1,1.81-.65,1.25,1.25,0,0,1,1.2.67,3.38,3.38,0,0,1,1.83-.67,1.3,1.3,0,0,1,1,.42A1.85,1.85,0,0,1,66,88.22v4.13Z" style="fill:#232f3e"/><path d="M69.35,90.77c0-.25-.17-.46-.52-.62l-.72-.35A1.69,1.69,0,0,1,67,88.21,1.43,1.43,0,0,1,67.53,87,2.26,2.26,0,0,1,69,86.58a3.57,3.57,0,0,1,1.53.35v1a5.56,5.56,0,0,0-.7-.19,3,3,0,0,0-.6-.07c-.52,0-.77.18-.77.54s.21.45.64.66l.72.34a1.9,1.9,0,0,1,.77.62,1.69,1.69,0,0,1,.24.93A1.56,1.56,0,0,1,70.28,92a2.31,2.31,0,0,1-1.49.46A3.85,3.85,0,0,1,67,92.05v-1a5.5,5.5,0,0,0,1.62.35.81.81,0,0,0,.56-.17A.57.57,0,0,0,69.35,90.77Z" style="fill:#232f3e"/><path d="M25.51,106.35V101l-1.41,3.46H22.67L21.27,101v5.32h-1.5V98.72h1.92L23.42,103l1.72-4.27H27v7.63Z" style="fill:#232f3e"/><path d="M31.45,106.35l-.14-.51a1.56,1.56,0,0,1-.59.47,1.86,1.86,0,0,1-.79.18,1.57,1.57,0,0,1-1.18-.45,1.65,1.65,0,0,1-.43-1.22,1.69,1.69,0,0,1,.53-1.31,2,2,0,0,1,1.43-.47,4,4,0,0,1,.93.13v-.51a1.33,1.33,0,0,0-.16-.78.77.77,0,0,0-.61-.2,5.9,5.9,0,0,0-1.77.35v-1a3,3,0,0,1,.91-.33,5.64,5.64,0,0,1,1.16-.12,2.19,2.19,0,0,1,1.52.44,1.82,1.82,0,0,1,.47,1.39v3.94Zm-1-.92a1.17,1.17,0,0,0,.79-.35V104a2.33,2.33,0,0,0-.63-.07.66.66,0,0,0-.53.2.81.81,0,0,0-.19.59.82.82,0,0,0,.15.52A.49.49,0,0,0,30.42,105.43Z" style="fill:#232f3e"/><path d="M37.23,106.35v-3.7a1.27,1.27,0,0,0-.14-.7.54.54,0,0,0-.49-.22,1.57,1.57,0,0,0-.82.26v4.36H34.13v-5.63h1.35l.13.51a3.32,3.32,0,0,1,1.84-.65,1.35,1.35,0,0,1,1.07.42,1.83,1.83,0,0,1,.37,1.22v4.13Z" style="fill:#232f3e"/><path d="M43.19,106.35l-.15-.51a1.49,1.49,0,0,1-.59.47,1.85,1.85,0,0,1-.78.18,1.56,1.56,0,0,1-1.18-.45,1.66,1.66,0,0,1-.44-1.22,1.69,1.69,0,0,1,.53-1.31A2.08,2.08,0,0,1,42,103a3.88,3.88,0,0,1,.92.13v-.51a1.33,1.33,0,0,0-.16-.78.77.77,0,0,0-.61-.2,5.9,5.9,0,0,0-1.77.35v-1a3.07,3.07,0,0,1,.92-.33,5.57,5.57,0,0,1,1.16-.12A2.18,2.18,0,0,1,44,101a1.78,1.78,0,0,1,.47,1.39v3.94Zm-1-.92a1.17,1.17,0,0,0,.79-.35V104a2.25,2.25,0,0,0-.62-.07.69.69,0,0,0-.54.2.85.85,0,0,0-.18.59.82.82,0,0,0,.15.52A.47.47,0,0,0,42.15,105.43Z" style="fill:#232f3e"/><path d="M48.76,105.71a1.65,1.65,0,0,1-1.21.53,1.68,1.68,0,0,1-1.44-.74,3.46,3.46,0,0,1-.53-2,3.6,3.6,0,0,1,.54-2.11,1.71,1.71,0,0,1,1.46-.77,1.79,1.79,0,0,1,.71.17,2,2,0,0,1,.63.45l.12-.48h1.35V106c0,1.86-.85,2.79-2.57,2.79A3.92,3.92,0,0,1,46,108.3v-1a5.5,5.5,0,0,0,1.62.35,1.48,1.48,0,0,0,.7-.13.76.76,0,0,0,.35-.44,3.26,3.26,0,0,0,.1-1Zm-.66-.6a1.26,1.26,0,0,0,.66-.22V102a1.32,1.32,0,0,0-.73-.27.63.63,0,0,0-.6.42,3.2,3.2,0,0,0-.2,1.3,3,3,0,0,0,.21,1.28A.71.71,0,0,0,48.1,105.11Z" style="fill:#232f3e"/><path d="M53,103.92a1.66,1.66,0,0,0,.36,1.12,1.45,1.45,0,0,0,1.06.33,3.18,3.18,0,0,0,.68-.09,5.54,5.54,0,0,0,.8-.21v1a2.77,2.77,0,0,1-.83.31,4.77,4.77,0,0,1-1,.11c-1.72,0-2.58-1-2.58-2.95a3.37,3.37,0,0,1,.64-2.2,2.22,2.22,0,0,1,1.82-.76c1.37,0,2,.76,2,2.29a4.32,4.32,0,0,1-.12,1Zm.91-2.32c-.57,0-.88.46-.91,1.37h1.61v-.25a1.59,1.59,0,0,0-.17-.86A.58.58,0,0,0,53.94,101.6Z" style="fill:#232f3e"/><path d="M57.17,106.35v-5.63h1.35l.18.73a2.5,2.5,0,0,1,.72-.59,1.55,1.55,0,0,1,.75-.19,2.56,2.56,0,0,1,.39,0V102a5,5,0,0,0-.64,0,2.47,2.47,0,0,0-1.1.26v4.11Z" style="fill:#232f3e"/></g><g id="ICONS_-_EDIT" data-name="ICONS - EDIT"><path d="M52,65H46a1,1,0,0,1-1-1.06l.1-1.66a13.88,13.88,0,0,1-2.76-1.15l-1.11,1.25a1,1,0,0,1-.72.33,1,1,0,0,1-.74-.29L35.58,58.2a1,1,0,0,1-.29-.73.94.94,0,0,1,.33-.72l1.24-1.11a13.84,13.84,0,0,1-1.14-2.76l-1.66.1a1.07,1.07,0,0,1-.75-.27A1,1,0,0,1,33,52V46a1,1,0,0,1,1.06-1l1.67.09a14,14,0,0,1,1.14-2.75l-1.25-1.12a.94.94,0,0,1-.33-.71,1,1,0,0,1,.29-.74l4.21-4.22a1,1,0,0,1,1.46,0l1.12,1.25a13.52,13.52,0,0,1,2.75-1.14L45,34.05a1,1,0,0,1,.27-.74A1,1,0,0,1,46,33h6a1,1,0,0,1,.73.31,1,1,0,0,1,.27.74l-.1,1.68a13.52,13.52,0,0,1,2.75,1.14l1.12-1.25a1,1,0,0,1,.72-.34,1,1,0,0,1,.74.29l4.21,4.22a1,1,0,0,1,.29.74.94.94,0,0,1-.33.71l-1.25,1.12a13.52,13.52,0,0,1,1.14,2.75L63.94,45A1,1,0,0,1,65,46v6a1,1,0,0,1-.31.72,1,1,0,0,1-.75.28l-1.67-.1a13.84,13.84,0,0,1-1.14,2.76l1.25,1.11a.94.94,0,0,1,.33.72,1,1,0,0,1-.29.73l-4.21,4.22a1,1,0,0,1-1.46,0l-1.11-1.25a13.63,13.63,0,0,1-2.76,1.15l.1,1.66a1,1,0,0,1-.27.74A1,1,0,0,1,52,65Zm-4.9-2h3.84l-.08-1.43a1,1,0,0,1,.78-1A11.82,11.82,0,0,0,55.31,59a1,1,0,0,1,1.28.18l.95,1.07,2.72-2.72-1.07-1A1,1,0,0,1,59,55.3a11.77,11.77,0,0,0,1.53-3.68,1,1,0,0,1,1-.78l1.43.08V47.07l-1.43.09a1,1,0,0,1-1-.78A11.8,11.8,0,0,0,59,42.69a1,1,0,0,1,.18-1.28l1.07-.95-2.72-2.72-1,1.07A1,1,0,0,1,55.3,39a11.65,11.65,0,0,0-3.68-1.52,1,1,0,0,1-.78-1L50.92,35H47.08l.08,1.43a1,1,0,0,1-.78,1A11.65,11.65,0,0,0,42.7,39a1,1,0,0,1-1.28-.18l-1-1.07-2.72,2.72,1.08,1A1,1,0,0,1,39,42.7a11.45,11.45,0,0,0-1.53,3.68,1,1,0,0,1-1,.78L35,47.07v3.85l1.43-.08a1,1,0,0,1,1,.78A11.82,11.82,0,0,0,39,55.31a1,1,0,0,1-.18,1.27l-1.07,1,2.72,2.72.95-1.07A1,1,0,0,1,42.69,59a11.82,11.82,0,0,0,3.69,1.53,1,1,0,0,1,.78,1Z" style="fill:#fff"/><rect x="41" y="43" width="17" height="2" style="fill:#fff"/><rect x="41" y="48" width="17" height="2" style="fill:#fff"/><rect x="41" y="53" width="17" height="2" style="fill:#fff"/><path d="M30.92,48H22.81a5.31,5.31,0,0,1-2.95-.94A10.19,10.19,0,0,1,15,38.16,9.11,9.11,0,0,1,21.55,29l0-.72a13.69,13.69,0,0,1,7.82-12.12,13.1,13.1,0,0,1,14.79,2.92,15,15,0,0,1,3,4.41,6.15,6.15,0,0,1,5.72-1c2.54.84,4.14,3.17,4.35,6.31,2.58.63,7.8,2.75,7.8,9.5,0,.27,0,.52,0,.77l-2-.09c0-.22,0-.44,0-.68,0-5.87-4.87-7.34-7-7.71a1,1,0,0,1-.66-.42,1,1,0,0,1-.15-.76c0-2.57-1.12-4.4-3-5a4.17,4.17,0,0,0-4.64,1.52,1,1,0,0,1-.95.39,1,1,0,0,1-.79-.65,13.56,13.56,0,0,0-3.14-5.12A11.14,11.14,0,0,0,30.11,18a11.73,11.73,0,0,0-6.6,10.22l.09,1.46a1,1,0,0,1-.75,1A7.23,7.23,0,0,0,17,38.16a8.15,8.15,0,0,0,3.93,7.21,3.3,3.3,0,0,0,1.88.63h8.11Z" style="fill:#fff"/><rect x="52" y="42" width="2" height="4" style="fill:#fff"/><rect x="48" y="47" width="2" height="4" style="fill:#fff"/><rect x="44" y="52" width="2" height="4" style="fill:#fff"/></g></svg>