<svg xmlns="http://www.w3.org/2000/svg" width="80" height="115" viewBox="0 0 80 115"><title>architecture-product-card_AWS_Tools_and_SDKs</title><g id="CARDS"><rect x="1" y="1" width="78" height="78" style="fill:#232f3e"/><path d="M0,0V80H0v35H80V80h0V0ZM1,1H79V79H1Z" style="fill:#fff"/></g><g id="TEXT_-_EDIT" data-name="TEXT - EDIT"><path d="M19.89,92.35l-.43-1.82h-2L17,92.35H15.27l2.31-7.63h1.87l2.3,7.63Zm-2.18-2.92h1.5l-.76-3.16Z" style="fill:#232f3e"/><path d="M27.1,92.35l-.94-5.63-.9,5.63H23.4l-1.79-7.63h1.7l1.06,6.06L25.29,85h1.83l.94,5.65,1-6h1.67L29,92.35Z" style="fill:#232f3e"/><path d="M33.05,89a3.6,3.6,0,0,1-1.28-1,2,2,0,0,1-.39-1.23,2.07,2.07,0,0,1,.34-1.17,2.23,2.23,0,0,1,.92-.77A3.19,3.19,0,0,1,34,84.56a4.92,4.92,0,0,1,1.89.39v1.17a5.5,5.5,0,0,0-1.72-.33,1.27,1.27,0,0,0-.8.23.78.78,0,0,0-.29.64.81.81,0,0,0,.19.56,2.09,2.09,0,0,0,.72.48l.65.32a5,5,0,0,1,1,.62,1.76,1.76,0,0,1,.54.69,2.13,2.13,0,0,1,.18.92,2,2,0,0,1-.74,1.65,3.13,3.13,0,0,1-2.05.61,5.5,5.5,0,0,1-1.13-.12,3.9,3.9,0,0,1-1-.32V90.92a7.45,7.45,0,0,0,1,.25,5.33,5.33,0,0,0,1,.11,1.32,1.32,0,0,0,.88-.25.86.86,0,0,0,.3-.71.84.84,0,0,0-.21-.58,2.4,2.4,0,0,0-.7-.47Z" style="fill:#232f3e"/><path d="M41.43,92.35V85.94h-2V84.72h5.69v1.22h-2v6.41Z" style="fill:#232f3e"/><path d="M47.71,92.49a2.29,2.29,0,0,1-1.84-.77,4,4,0,0,1,0-4.37,2.58,2.58,0,0,1,3.68,0,4,4,0,0,1,0,4.37A2.27,2.27,0,0,1,47.71,92.49Zm0-1.15a.65.65,0,0,0,.64-.43,4.79,4.79,0,0,0,0-2.74.69.69,0,0,0-1.28,0,4.79,4.79,0,0,0,0,2.74A.65.65,0,0,0,47.71,91.34Z" style="fill:#232f3e"/><path d="M53.59,92.49a2.27,2.27,0,0,1-1.84-.77,3.95,3.95,0,0,1,0-4.37,2.58,2.58,0,0,1,3.68,0,4,4,0,0,1,0,4.37A2.29,2.29,0,0,1,53.59,92.49Zm0-1.15a.65.65,0,0,0,.64-.43,4.79,4.79,0,0,0,0-2.74.65.65,0,0,0-.64-.44.67.67,0,0,0-.65.44,5,5,0,0,0,0,2.74A.67.67,0,0,0,53.59,91.34Z" style="fill:#232f3e"/><path d="M59.64,92.25a2.7,2.7,0,0,1-1,.16A1.43,1.43,0,0,1,57.59,92a1.58,1.58,0,0,1-.35-1.12V84.21h1.65v6.54a.75.75,0,0,0,.08.4.36.36,0,0,0,.32.12,2.26,2.26,0,0,0,.35,0Z" style="fill:#232f3e"/><path d="M62.65,90.77c0-.25-.17-.46-.52-.62l-.72-.35a1.69,1.69,0,0,1-1.14-1.59A1.43,1.43,0,0,1,60.83,87a2.26,2.26,0,0,1,1.47-.45,3.57,3.57,0,0,1,1.53.35v1a5.56,5.56,0,0,0-.7-.19,3,3,0,0,0-.6-.07c-.52,0-.77.18-.77.54s.21.45.64.66l.72.34a1.9,1.9,0,0,1,.77.62,1.69,1.69,0,0,1,.24.93A1.56,1.56,0,0,1,63.58,92a2.31,2.31,0,0,1-1.49.46,3.85,3.85,0,0,1-1.82-.44v-1a5.57,5.57,0,0,0,1.62.35.86.86,0,0,0,.57-.17A.59.59,0,0,0,62.65,90.77Z" style="fill:#232f3e"/><path d="M21.08,106.35l-.15-.51a1.42,1.42,0,0,1-.59.47,1.78,1.78,0,0,1-.78.18,1.56,1.56,0,0,1-1.18-.45,1.91,1.91,0,0,1,.1-2.53,2,2,0,0,1,1.43-.47,4,4,0,0,1,.93.13v-.51a1.42,1.42,0,0,0-.16-.78.78.78,0,0,0-.61-.2,5.9,5.9,0,0,0-1.77.35v-1a2.9,2.9,0,0,1,.91-.33,5.57,5.57,0,0,1,1.16-.12,2.21,2.21,0,0,1,1.52.44,1.82,1.82,0,0,1,.47,1.39v3.94Zm-1-.92a1.19,1.19,0,0,0,.8-.35V104a2.38,2.38,0,0,0-.63-.07.66.66,0,0,0-.53.2.81.81,0,0,0-.19.59.82.82,0,0,0,.15.52A.47.47,0,0,0,20,105.43Z" style="fill:#232f3e"/><path d="M26.86,106.35v-3.7a1.36,1.36,0,0,0-.14-.7.55.55,0,0,0-.5-.22,1.59,1.59,0,0,0-.82.26v4.36H23.75v-5.63H25.1l.14.51a3.32,3.32,0,0,1,1.84-.65,1.35,1.35,0,0,1,1.07.42,1.83,1.83,0,0,1,.36,1.22v4.13Z" style="fill:#232f3e"/><path d="M33.16,106.35l-.13-.49a2.08,2.08,0,0,1-.63.43,1.86,1.86,0,0,1-.72.15,1.75,1.75,0,0,1-1.51-.75,3.65,3.65,0,0,1-.54-2.13,3.73,3.73,0,0,1,.56-2.19,1.76,1.76,0,0,1,1.53-.79,2.08,2.08,0,0,1,.63.13A2.35,2.35,0,0,1,33,101V98.21h1.65v8.14Zm-.92-1a1.34,1.34,0,0,0,.72-.22V102a1.54,1.54,0,0,0-.8-.26.7.7,0,0,0-.67.44,3.39,3.39,0,0,0-.21,1.39,3.05,3.05,0,0,0,.23,1.36A.77.77,0,0,0,32.24,105.32Z" style="fill:#232f3e"/><path d="M40,103a3.6,3.6,0,0,1-1.28-1,2,2,0,0,1-.39-1.23,2.07,2.07,0,0,1,.34-1.17,2.17,2.17,0,0,1,.92-.77A3.19,3.19,0,0,1,41,98.56a4.92,4.92,0,0,1,1.89.39v1.17a5.5,5.5,0,0,0-1.73-.33,1.26,1.26,0,0,0-.79.23.78.78,0,0,0-.29.64.81.81,0,0,0,.19.56,2.14,2.14,0,0,0,.71.48l.65.32a5.12,5.12,0,0,1,1,.62,2,2,0,0,1,.54.69,2.13,2.13,0,0,1,.18.92,2,2,0,0,1-.75,1.65,3.09,3.09,0,0,1-2,.61,5.43,5.43,0,0,1-1.13-.12,3.76,3.76,0,0,1-1-.32v-1.15a7.29,7.29,0,0,0,1,.25,5.53,5.53,0,0,0,1,.11,1.32,1.32,0,0,0,.88-.25.86.86,0,0,0,.3-.71.84.84,0,0,0-.21-.58,2.4,2.4,0,0,0-.7-.47Z" style="fill:#232f3e"/><path d="M44.54,106.35V98.72h2.51a2.93,2.93,0,0,1,2.37,1,5.49,5.49,0,0,1,0,5.69,2.84,2.84,0,0,1-2.32,1Zm1.68-6.45v5.27h.71a1.29,1.29,0,0,0,1.17-.62,3.68,3.68,0,0,0,.39-1.91v-.22a3.75,3.75,0,0,0-.38-1.91,1.29,1.29,0,0,0-1.19-.61Z" style="fill:#232f3e"/><path d="M51.64,106.35V98.72h1.69v3.39l2.28-3.39h1.87l-2.64,3.57,2.85,4.06h-2l-2.36-3.69v3.69Z" style="fill:#232f3e"/><path d="M60.38,104.77c0-.25-.17-.46-.52-.62l-.72-.35A1.68,1.68,0,0,1,58,102.21a1.42,1.42,0,0,1,.55-1.18,2.26,2.26,0,0,1,1.47-.45,3.57,3.57,0,0,1,1.53.35v1a5.56,5.56,0,0,0-.7-.19,3,3,0,0,0-.6-.07c-.52,0-.77.18-.77.54s.21.45.64.66l.72.34a1.9,1.9,0,0,1,.77.62,1.69,1.69,0,0,1,.24.93,1.56,1.56,0,0,1-.55,1.27,2.31,2.31,0,0,1-1.49.46,3.79,3.79,0,0,1-1.81-.44v-1a5.45,5.45,0,0,0,1.61.35.86.86,0,0,0,.57-.17A.59.59,0,0,0,60.38,104.77Z" style="fill:#232f3e"/></g><g id="ICONS_-_EDIT" data-name="ICONS - EDIT"><rect x="21.09" y="24.94" width="2" height="9.44" transform="translate(-14.64 33.96) rotate(-60)" style="fill:#fff"/><rect x="53.22" y="28.66" width="9.41" height="2" transform="translate(-7.07 32.93) rotate(-29.99)" style="fill:#fff"/><path d="M40,53.7a1,1,0,0,1-.5-.13l-11-6.35a1,1,0,0,1-.5-.87V33.65a1,1,0,0,1,.5-.87l11-6.35a1,1,0,0,1,1,0l11,6.35a1,1,0,0,1,.5.87v12.7a1,1,0,0,1-.5.87l-11,6.35A1,1,0,0,1,40,53.7ZM30,45.77l10,5.78,10-5.78V34.23L40,28.45,30,34.23Z" style="fill:#fff"/><path d="M40,66.4a1,1,0,0,1-.5-.13l-22-12.7a1,1,0,0,1-.5-.87V27.3a1,1,0,0,1,.5-.87l22-12.7a1,1,0,0,1,1,0l22,12.7a1,1,0,0,1,.5.87V52.7a1,1,0,0,1-.5.87l-22,12.7A1,1,0,0,1,40,66.4ZM19,52.12,40,64.25,61,52.12V27.88L40,15.75,19,27.88Z" style="fill:#fff"/><rect x="39" y="56" width="2" height="9.39" style="fill:#fff"/><rect x="33.5" y="30.48" width="2" height="12.71" transform="translate(-14.65 48.27) rotate(-59.98)" style="fill:#fff"/><path d="M41,52.7H39V40a1,1,0,0,1,.5-.87l11-6.36,1,1.74L41,40.58Z" style="fill:#fff"/></g></svg>