<svg xmlns="http://www.w3.org/2000/svg" width="80" height="115" viewBox="0 0 80 115"><title>architecture-product-card_AWS_Storage_Gateway</title><g id="CARDS"><rect x="1" y="1" width="78" height="78" style="fill:#232f3e"/><path d="M0,0V80H0v35H80V80h0V0ZM1,1H79V79H1Z" style="fill:#fff"/></g><g id="TEXT_-_EDIT" data-name="TEXT - EDIT"><path d="M14.08,92.35l-.43-1.82h-2l-.42,1.82H9.45l2.32-7.63h1.86l2.31,7.63ZM11.9,89.43h1.49l-.76-3.16Z" style="fill:#232f3e"/><path d="M21.28,92.35l-.94-5.63-.89,5.63H17.59L15.8,84.72h1.7l1.06,6.06L19.48,85h1.83l.94,5.65,1-6h1.67l-1.79,7.63Z" style="fill:#232f3e"/><path d="M27.24,89A3.6,3.6,0,0,1,26,88a2,2,0,0,1-.39-1.23,2.07,2.07,0,0,1,.34-1.17,2.17,2.17,0,0,1,.92-.77,3.19,3.19,0,0,1,1.35-.27,4.92,4.92,0,0,1,1.89.39v1.17a5.5,5.5,0,0,0-1.73-.33,1.26,1.26,0,0,0-.79.23.78.78,0,0,0-.29.64.81.81,0,0,0,.19.56,2.14,2.14,0,0,0,.71.48l.65.32a5.12,5.12,0,0,1,1,.62,2,2,0,0,1,.54.69,2.13,2.13,0,0,1,.17.92,2,2,0,0,1-.74,1.65,3.09,3.09,0,0,1-2,.61,5.43,5.43,0,0,1-1.13-.12,3.76,3.76,0,0,1-.95-.32V90.92a7.29,7.29,0,0,0,1,.25,5.53,5.53,0,0,0,1,.11A1.32,1.32,0,0,0,28.5,91a.86.86,0,0,0,.3-.71.84.84,0,0,0-.21-.58,2.4,2.4,0,0,0-.7-.47Z" style="fill:#232f3e"/><path d="M35.63,89a3.55,3.55,0,0,1-1.27-1A2,2,0,0,1,34,86.77a2,2,0,0,1,.34-1.17,2.11,2.11,0,0,1,.92-.77,3.18,3.18,0,0,1,1.34-.27,4.85,4.85,0,0,1,1.89.39v1.17a5.44,5.44,0,0,0-1.72-.33A1.24,1.24,0,0,0,36,86a.75.75,0,0,0-.29.64.86.86,0,0,0,.18.56,2.32,2.32,0,0,0,.72.48l.65.32a5.12,5.12,0,0,1,1,.62,2,2,0,0,1,.54.69,2.29,2.29,0,0,1,.17.92,2,2,0,0,1-.74,1.65,3.09,3.09,0,0,1-2,.61A5.35,5.35,0,0,1,35,92.39a3.76,3.76,0,0,1-.95-.32V90.92a7.29,7.29,0,0,0,1,.25,5.33,5.33,0,0,0,1,.11A1.34,1.34,0,0,0,36.9,91a.86.86,0,0,0,.3-.71.84.84,0,0,0-.21-.58,2.47,2.47,0,0,0-.71-.47Z" style="fill:#232f3e"/><path d="M43.09,92.2a3.47,3.47,0,0,1-1.23.22,1.47,1.47,0,0,1-1.72-1.7v-2.9H39.4V86.9l.79-.15.24-1.54h1.36v1.51h1.28v1.1H41.79v2.77a.79.79,0,0,0,.14.52.7.7,0,0,0,.53.16,2.86,2.86,0,0,0,.63-.08Z" style="fill:#232f3e"/><path d="M46.2,92.49a2.27,2.27,0,0,1-1.84-.77,3.95,3.95,0,0,1,0-4.37,2.58,2.58,0,0,1,3.68,0,4,4,0,0,1,0,4.37A2.29,2.29,0,0,1,46.2,92.49Zm0-1.15a.65.65,0,0,0,.64-.43,4.79,4.79,0,0,0,0-2.74.65.65,0,0,0-.64-.44.67.67,0,0,0-.65.44,5,5,0,0,0,0,2.74A.67.67,0,0,0,46.2,91.34Z" style="fill:#232f3e"/><path d="M49.85,92.35V86.72H51.2l.18.73a2.5,2.5,0,0,1,.72-.59,1.49,1.49,0,0,1,.75-.19,2.34,2.34,0,0,1,.38,0V88a4.7,4.7,0,0,0-.63,0,2.47,2.47,0,0,0-1.1.26v4.11Z" style="fill:#232f3e"/><path d="M56.88,92.35l-.14-.51a1.49,1.49,0,0,1-.59.47,1.85,1.85,0,0,1-.78.18A1.56,1.56,0,0,1,54.19,92a1.66,1.66,0,0,1-.44-1.22,1.69,1.69,0,0,1,.53-1.31A2.07,2.07,0,0,1,55.72,89a4,4,0,0,1,.92.13v-.51a1.33,1.33,0,0,0-.16-.78.77.77,0,0,0-.61-.2A5.9,5.9,0,0,0,54.1,88V87A3,3,0,0,1,55,86.7a5.47,5.47,0,0,1,1.15-.12,2.19,2.19,0,0,1,1.52.44,1.82,1.82,0,0,1,.47,1.39v3.94Zm-1-.92a1.17,1.17,0,0,0,.79-.35V90a2.25,2.25,0,0,0-.62-.07.67.67,0,0,0-.54.2.85.85,0,0,0-.19.59.82.82,0,0,0,.15.52A.5.5,0,0,0,55.85,91.43Z" style="fill:#232f3e"/><path d="M62.46,91.71a1.65,1.65,0,0,1-1.21.53,1.68,1.68,0,0,1-1.44-.74,3.46,3.46,0,0,1-.53-2,3.6,3.6,0,0,1,.54-2.11,1.69,1.69,0,0,1,1.46-.77,1.83,1.83,0,0,1,.71.17,2,2,0,0,1,.63.45l.12-.48h1.35V92c0,1.86-.86,2.79-2.57,2.79a3.92,3.92,0,0,1-1.83-.44v-1a5.44,5.44,0,0,0,1.62.35,1.44,1.44,0,0,0,.69-.13.69.69,0,0,0,.35-.44,2.89,2.89,0,0,0,.11-1Zm-.66-.6a1.26,1.26,0,0,0,.66-.22V88a1.32,1.32,0,0,0-.73-.27.62.62,0,0,0-.6.42,3.2,3.2,0,0,0-.2,1.3,3,3,0,0,0,.21,1.28A.7.7,0,0,0,61.8,91.11Z" style="fill:#232f3e"/><path d="M66.73,89.92A1.66,1.66,0,0,0,67.09,91a1.45,1.45,0,0,0,1.06.33,3.26,3.26,0,0,0,.68-.09,5.54,5.54,0,0,0,.8-.21v1a2.77,2.77,0,0,1-.83.31,4.77,4.77,0,0,1-1,.11c-1.72,0-2.58-1-2.58-2.95a3.32,3.32,0,0,1,.64-2.2,2.22,2.22,0,0,1,1.82-.76c1.37,0,2,.76,2,2.29a4.32,4.32,0,0,1-.12,1Zm.91-2.32c-.58,0-.88.46-.91,1.37h1.61v-.25a1.68,1.68,0,0,0-.17-.86A.59.59,0,0,0,67.64,87.6Z" style="fill:#232f3e"/><path d="M23.69,105.25a3.64,3.64,0,0,0,.56,0v-2H23.1v-1.11h2.7v3.77a4.16,4.16,0,0,1-1.13.42,6.1,6.1,0,0,1-1.36.15,3,3,0,0,1-2.43-1,4.32,4.32,0,0,1-.84-2.86,4.43,4.43,0,0,1,.88-3,3.3,3.3,0,0,1,2.61-1,4.07,4.07,0,0,1,2,.45v1.17a4.56,4.56,0,0,0-.93-.27,4.34,4.34,0,0,0-.9-.1,1.73,1.73,0,0,0-1.48.61,3.36,3.36,0,0,0-.46,2v.21a3.36,3.36,0,0,0,.45,2A1.72,1.72,0,0,0,23.69,105.25Z" style="fill:#232f3e"/><path d="M30.1,106.35l-.15-.51a1.42,1.42,0,0,1-.59.47,1.85,1.85,0,0,1-.78.18A1.56,1.56,0,0,1,27.4,106a1.66,1.66,0,0,1-.44-1.22,1.69,1.69,0,0,1,.53-1.31,2.08,2.08,0,0,1,1.44-.47,4,4,0,0,1,.93.13v-.51a1.32,1.32,0,0,0-.17-.78.74.74,0,0,0-.6-.2,5.9,5.9,0,0,0-1.78.35v-1a3.07,3.07,0,0,1,.92-.33,5.57,5.57,0,0,1,1.16-.12,2.16,2.16,0,0,1,1.51.44,1.78,1.78,0,0,1,.47,1.39v3.94Zm-1-.92a1.19,1.19,0,0,0,.8-.35V104a2.38,2.38,0,0,0-.63-.07.69.69,0,0,0-.54.2.85.85,0,0,0-.18.59.82.82,0,0,0,.15.52A.47.47,0,0,0,29.06,105.43Z" style="fill:#232f3e"/><path d="M35.81,106.2a3.47,3.47,0,0,1-1.23.22,1.8,1.8,0,0,1-1.31-.4,1.77,1.77,0,0,1-.41-1.3v-2.9h-.74v-.92l.78-.15.25-1.54h1.36v1.51h1.27v1.1H34.51v2.77a.79.79,0,0,0,.14.52.69.69,0,0,0,.53.16,3,3,0,0,0,.63-.08Z" style="fill:#232f3e"/><path d="M37.9,103.92a1.71,1.71,0,0,0,.37,1.12,1.43,1.43,0,0,0,1.06.33,3.26,3.26,0,0,0,.68-.09,6.31,6.31,0,0,0,.8-.21v1a2.88,2.88,0,0,1-.83.31,4.77,4.77,0,0,1-1,.11c-1.72,0-2.58-1-2.58-2.95a3.37,3.37,0,0,1,.63-2.2,2.23,2.23,0,0,1,1.83-.76c1.36,0,2.05.76,2.05,2.29a4.32,4.32,0,0,1-.12,1Zm.92-2.32c-.58,0-.88.46-.92,1.37h1.62v-.25a1.68,1.68,0,0,0-.17-.86A.59.59,0,0,0,38.82,101.6Z" style="fill:#232f3e"/><path d="M46.08,106.35l-.79-4-.77,4H43l-1.55-5.63h1.71l.71,4,.77-4h1.47l.82,4.23.65-4.23H49.2l-1.56,5.63Z" style="fill:#232f3e"/><path d="M52.89,106.35l-.14-.51a1.56,1.56,0,0,1-.59.47,1.86,1.86,0,0,1-.79.18,1.57,1.57,0,0,1-1.18-.45,1.65,1.65,0,0,1-.43-1.22,1.69,1.69,0,0,1,.53-1.31,2,2,0,0,1,1.43-.47,4,4,0,0,1,.93.13v-.51a1.33,1.33,0,0,0-.16-.78.77.77,0,0,0-.61-.2,5.9,5.9,0,0,0-1.77.35v-1a3,3,0,0,1,.91-.33,5.64,5.64,0,0,1,1.16-.12,2.19,2.19,0,0,1,1.52.44,1.82,1.82,0,0,1,.47,1.39v3.94Zm-1-.92a1.17,1.17,0,0,0,.8-.35V104a2.33,2.33,0,0,0-.63-.07.66.66,0,0,0-.53.2.81.81,0,0,0-.19.59.82.82,0,0,0,.15.52A.48.48,0,0,0,51.85,105.43Z" style="fill:#232f3e"/><path d="M56.77,106.46l-2-5.74h1.75l.93,4.14.9-4.14h1.7l-2,6.48a2.48,2.48,0,0,1-.67,1.18,1.65,1.65,0,0,1-1.11.36,3.64,3.64,0,0,1-1.06-.16v-1a4.24,4.24,0,0,0,.58,0,1,1,0,0,0,.69-.22,1.27,1.27,0,0,0,.3-.74Z" style="fill:#232f3e"/></g><g id="ICONS_-_EDIT" data-name="ICONS - EDIT"><path d="M57.22,46.69l-.24-2c4.05-.47,6-2.72,6-6.88,0-4-2.35-6.51-7-7.46a1,1,0,0,1-.8-.92c-.22-3.65-2.36-5.28-4.37-5.28a4.09,4.09,0,0,0-3.26,1.65,1,1,0,0,1-.95.39,1,1,0,0,1-.79-.65,13.12,13.12,0,0,0-3.11-4.95,11.18,11.18,0,0,0-19.22,7.47,11.73,11.73,0,0,0,.08,1.33.45.45,0,0,1,0,.11h0a1,1,0,0,1-.85,1C20.56,31.1,17,32.78,17,37.75c0,.18,0,.36,0,.53.19,3.37,2.63,5.87,6.23,6.41l-.3,2A8.9,8.9,0,0,1,15,38.41c0-.24,0-.44,0-.66a8.9,8.9,0,0,1,6.53-8.94c0-.24,0-.48,0-.73a13.18,13.18,0,0,1,22.61-8.91,14.84,14.84,0,0,1,3,4.28,6,6,0,0,1,3.71-1.28c2.8,0,5.74,2,6.3,6.4C62.22,29.84,65,33.11,65,37.83,65,43,62.24,46.11,57.22,46.69Z" style="fill:#fff"/><path d="M54.14,64.77h-5a1,1,0,0,1-1-1V39.42a16.11,16.11,0,0,0-7.67-2,16.62,16.62,0,0,0-8.33,2.3V63.77a1,1,0,0,1-1,1h-5a1,1,0,0,1-1-1V36.6a1,1,0,0,1,.33-.75c3.69-3.25,9.14-5.12,15-5.12A23.33,23.33,0,0,1,54.76,35.3a1,1,0,0,1,.38.78V63.77A1,1,0,0,1,54.14,64.77Zm-4-2h3V36.57a21.59,21.59,0,0,0-12.69-3.84,21,21,0,0,0-13.31,4.33V62.77h3V39.12a1,1,0,0,1,.51-.87,19.14,19.14,0,0,1,9.82-2.84,18.57,18.57,0,0,1,9.13,2.52,1,1,0,0,1,.54.88Z" style="fill:#fff"/></g></svg>