<svg xmlns="http://www.w3.org/2000/svg" width="80" height="100" viewBox="0 0 80 100"><title>architecture-product-card_Amazon_MQ</title><g id="CARDS"><rect x="1" y="1" width="78" height="78" style="fill:#232f3e"/><path d="M0,0V80H0v20H80V80h0V0ZM1,1H79V79H1Z" style="fill:#fff"/></g><g id="TEXT_-_EDIT" data-name="TEXT - EDIT"><path d="M15.68,92.35l-.43-1.82h-2l-.42,1.82H11.06l2.31-7.63h1.87l2.3,7.63ZM13.5,89.43H15l-.76-3.16Z" style="fill:#232f3e"/><path d="M24.39,92.35V88.64a1.23,1.23,0,0,0-.14-.69.49.49,0,0,0-.46-.22A1.53,1.53,0,0,0,23,88s0,.08,0,.12v4.24H21.36V88.64a1.32,1.32,0,0,0-.14-.69.5.5,0,0,0-.47-.22A1.55,1.55,0,0,0,20,88v4.36H18.32V86.72h1.35l.13.51a3.31,3.31,0,0,1,1.81-.65,1.25,1.25,0,0,1,1.2.67,3.39,3.39,0,0,1,1.84-.67,1.28,1.28,0,0,1,1,.42A1.85,1.85,0,0,1,26,88.22v4.13Z" style="fill:#232f3e"/><path d="M30.34,92.35l-.14-.51a1.49,1.49,0,0,1-.59.47,1.85,1.85,0,0,1-.78.18A1.56,1.56,0,0,1,27.65,92a1.66,1.66,0,0,1-.44-1.22,1.69,1.69,0,0,1,.53-1.31A2.07,2.07,0,0,1,29.18,89a4,4,0,0,1,.92.13v-.51a1.33,1.33,0,0,0-.16-.78.77.77,0,0,0-.61-.2,5.9,5.9,0,0,0-1.77.35V87a3,3,0,0,1,.92-.33,5.47,5.47,0,0,1,1.15-.12,2.19,2.19,0,0,1,1.52.44,1.82,1.82,0,0,1,.47,1.39v3.94Zm-1-.92a1.17,1.17,0,0,0,.79-.35V90a2.25,2.25,0,0,0-.62-.07.67.67,0,0,0-.54.2.85.85,0,0,0-.19.59.82.82,0,0,0,.15.52A.5.5,0,0,0,29.31,91.43Z" style="fill:#232f3e"/><path d="M32.61,92.35V91.28l2.49-3.4H32.71V86.72h4.13v1.07l-2.5,3.4h2.55v1.16Z" style="fill:#232f3e"/><path d="M40.13,92.49a2.31,2.31,0,0,1-1.85-.77,4,4,0,0,1,0-4.37,2.6,2.6,0,0,1,3.69,0,4,4,0,0,1,0,4.37A2.29,2.29,0,0,1,40.13,92.49Zm0-1.15a.66.66,0,0,0,.64-.43,4.79,4.79,0,0,0,0-2.74.69.69,0,0,0-1.29,0,4.79,4.79,0,0,0,0,2.74A.67.67,0,0,0,40.13,91.34Z" style="fill:#232f3e"/><path d="M46.89,92.35v-3.7a1.25,1.25,0,0,0-.15-.7.54.54,0,0,0-.49-.22,1.57,1.57,0,0,0-.82.26v4.36H43.78V86.72h1.35l.13.51a3.35,3.35,0,0,1,1.84-.65,1.35,1.35,0,0,1,1.07.42,1.83,1.83,0,0,1,.37,1.22v4.13Z" style="fill:#232f3e"/><path d="M58.33,92.35V87l-1.41,3.46H55.49L54.09,87v5.32H52.58V84.72h1.93L56.23,89,58,84.72h1.88v7.63Z" style="fill:#232f3e"/><path d="M61.26,88.53a4.38,4.38,0,0,1,.88-2.93,3.45,3.45,0,0,1,4.94,0A4.44,4.44,0,0,1,68,88.53,5,5,0,0,1,67.41,91a2.87,2.87,0,0,1-1.59,1.34,2.85,2.85,0,0,0,.83.43,4.62,4.62,0,0,0,1.12.22v1.26a5.85,5.85,0,0,1-1.83-.59,5.33,5.33,0,0,1-1.5-1.13,3,3,0,0,1-2.35-1.09A4.5,4.5,0,0,1,61.26,88.53Zm1.73,0a4.1,4.1,0,0,0,.41,2,1.31,1.31,0,0,0,1.21.7,1.3,1.3,0,0,0,1.2-.7,5.39,5.39,0,0,0,0-4.1,1.44,1.44,0,0,0-2.43,0A4.09,4.09,0,0,0,63,88.53Z" style="fill:#232f3e"/></g><g id="ICONS_-_EDIT" data-name="ICONS - EDIT"><path d="M28.79,44.87l-1.41-1.41,2.37-2.38L27.37,38.7l1.42-1.41,3.08,3.08a1,1,0,0,1,0,1.42Z" style="fill:#fff"/><rect x="23" y="39.99" width="8" height="2" style="fill:#fff"/><path d="M51.14,44.87l-1.41-1.41,2.38-2.38L49.73,38.7l1.41-1.41,3.09,3.08a1,1,0,0,1,0,1.42Z" style="fill:#fff"/><rect x="45" y="39.99" width="8" height="2" style="fill:#fff"/><path d="M54.5,60a4.49,4.49,0,1,1,3.18-1.31h0A4.51,4.51,0,0,1,54.5,60Zm0-7a2.5,2.5,0,1,0,1.77,4.27h0A2.51,2.51,0,0,0,54.5,53Z" style="fill:#fff"/><path d="M60.5,45a4.49,4.49,0,1,1,3.18-1.31h0A4.51,4.51,0,0,1,60.5,45Zm0-7a2.5,2.5,0,1,0,1.77,4.27h0A2.51,2.51,0,0,0,60.5,38Z" style="fill:#fff"/><path d="M54.5,30a4.49,4.49,0,1,1,3.18-1.31h0A4.51,4.51,0,0,1,54.5,30Zm0-7a2.5,2.5,0,1,0,1.77,4.27h0A2.51,2.51,0,0,0,54.5,23Z" style="fill:#fff"/><path d="M19.5,45a4.51,4.51,0,0,1-3.18-1.31h0A4.51,4.51,0,1,1,19.5,45Zm0-7a2.5,2.5,0,0,0-1.77,4.27h0A2.5,2.5,0,1,0,19.5,38Z" style="fill:#fff"/><path d="M47.83,49.94a1,1,0,0,1-.7-.29,10.53,10.53,0,0,0-7.44-2.74,10.55,10.55,0,0,0-7.45,2.74,1,1,0,0,1-1.41,0,1,1,0,0,1,0-1.41c3.69-3.69,3.69-11.2,0-14.88a1,1,0,0,1-.29-.71,1,1,0,0,1,.29-.71,1,1,0,0,1,1.41,0c3.69,3.69,11.2,3.69,14.89,0a1,1,0,0,1,1.41,0,1,1,0,0,1,.29.71,1,1,0,0,1-.29.71c-3.68,3.68-3.68,11.19,0,14.88a1,1,0,0,1-.71,1.7ZM34.7,35.81a14.37,14.37,0,0,1,0,10,14.75,14.75,0,0,1,10,0,14.31,14.31,0,0,1,0-10A14.26,14.26,0,0,1,34.7,35.81Z" style="fill:#fff"/><path d="M48.75,22.1a19.89,19.89,0,0,0-17.43-.35l-.84-1.82a21.91,21.91,0,0,1,19.18.39Z" style="fill:#fff"/><path d="M20.55,34.52l-1.91-.58A21.47,21.47,0,0,1,21,28.78l1.7,1.06A19.59,19.59,0,0,0,20.55,34.52Z" style="fill:#fff"/><path d="M58.85,34.38A22.6,22.6,0,0,0,57,30.29l1.72-1a23.93,23.93,0,0,1,2.05,4.45Z" style="fill:#fff"/><path d="M58.94,50.8l-1.72-1a23.53,23.53,0,0,0,2-4.33l1.9.65A26.28,26.28,0,0,1,58.94,50.8Z" style="fill:#fff"/><path d="M39.69,62.09A21.72,21.72,0,0,1,30,59.82L30.86,58a20,20,0,0,0,18-.15l.91,1.78A22.07,22.07,0,0,1,39.69,62.09Z" style="fill:#fff"/><path d="M20.62,51.34a23.28,23.28,0,0,1-2.09-4.81l1.91-.59a21,21,0,0,0,1.92,4.4Z" style="fill:#fff"/><path d="M25.5,60a4.51,4.51,0,0,1-3.18-1.31h0A4.51,4.51,0,1,1,25.5,60Zm0-7a2.5,2.5,0,0,0-1.77,4.27h0A2.5,2.5,0,1,0,25.5,53Z" style="fill:#fff"/><path d="M25.5,30a4.51,4.51,0,0,1-3.18-1.31h0A4.51,4.51,0,1,1,25.5,30Zm0-7a2.5,2.5,0,0,0-1.77,4.27h0A2.5,2.5,0,1,0,25.5,23Z" style="fill:#fff"/></g></svg>