<svg xmlns="http://www.w3.org/2000/svg" width="80" height="115" viewBox="0 0 80 115"><title>architecture-product-card_Alexa_for_Business</title><g id="CARDS"><rect x="1" y="1" width="78" height="78" style="fill:#232f3e"/><path d="M0,0V80H0v35H80V80h0V0ZM1,1H79V79H1Z" style="fill:#fff"/></g><g id="TEXT_-_EDIT" data-name="TEXT - EDIT"><path d="M23.13,92.35l-.44-1.82h-2l-.42,1.82H18.5l2.31-7.63h1.87L25,92.35ZM21,89.43h1.49l-.76-3.16Z" style="fill:#232f3e"/><path d="M28.16,92.25a2.69,2.69,0,0,1-1,.16A1.43,1.43,0,0,1,26.12,92a1.54,1.54,0,0,1-.35-1.12V84.21h1.65v6.54a.77.77,0,0,0,.07.4.37.37,0,0,0,.32.12,2.14,2.14,0,0,0,.35,0Z" style="fill:#232f3e"/><path d="M30.27,89.92A1.77,1.77,0,0,0,30.63,91a1.45,1.45,0,0,0,1.06.33,3.18,3.18,0,0,0,.68-.09,6,6,0,0,0,.81-.21v1a3,3,0,0,1-.84.31,4.67,4.67,0,0,1-1,.11c-1.72,0-2.58-1-2.58-2.95a3.37,3.37,0,0,1,.63-2.2,2.23,2.23,0,0,1,1.83-.76c1.36,0,2,.76,2,2.29a4.32,4.32,0,0,1-.12,1Zm.92-2.32c-.58,0-.89.46-.92,1.37h1.62v-.25a1.68,1.68,0,0,0-.17-.86A.6.6,0,0,0,31.19,87.6Z" style="fill:#232f3e"/><path d="M37.24,92.35l-1-1.79-.86,1.79H33.75l1.73-2.83-1.7-2.8h1.77l.9,1.73.83-1.73h1.63l-1.7,2.8L39,92.35Z" style="fill:#232f3e"/><path d="M42.67,92.35l-.15-.51a1.42,1.42,0,0,1-.59.47,1.78,1.78,0,0,1-.78.18A1.56,1.56,0,0,1,40,92a1.91,1.91,0,0,1,.1-2.53A2,2,0,0,1,41.5,89a4,4,0,0,1,.93.13v-.51a1.42,1.42,0,0,0-.16-.78.78.78,0,0,0-.61-.2,5.79,5.79,0,0,0-1.77.35V87a2.9,2.9,0,0,1,.91-.33A5.57,5.57,0,0,1,42,86.58a2.21,2.21,0,0,1,1.52.44A1.82,1.82,0,0,1,44,88.41v3.94Zm-1-.92a1.19,1.19,0,0,0,.8-.35V90a2.38,2.38,0,0,0-.63-.07.66.66,0,0,0-.53.2.81.81,0,0,0-.19.59.82.82,0,0,0,.15.52A.47.47,0,0,0,41.63,91.43Z" style="fill:#232f3e"/><path d="M48.09,92.35V87.82h-.78V86.9l.78-.15v-.66a2.17,2.17,0,0,1,.48-1.54,2,2,0,0,1,1.48-.5,2.9,2.9,0,0,1,1.09.21v1a3,3,0,0,0-.63-.07.86.86,0,0,0-.61.16.89.89,0,0,0-.16.62v.74h1.34v1.1H49.74v4.53Z" style="fill:#232f3e"/><path d="M54,92.49a2.29,2.29,0,0,1-1.84-.77,4,4,0,0,1,0-4.37,2.6,2.6,0,0,1,3.69,0,4,4,0,0,1,0,4.37A2.31,2.31,0,0,1,54,92.49Zm0-1.15a.67.67,0,0,0,.65-.43,4.79,4.79,0,0,0,0-2.74.67.67,0,0,0-.65-.44.65.65,0,0,0-.64.44,4.79,4.79,0,0,0,0,2.74A.65.65,0,0,0,54,91.34Z" style="fill:#232f3e"/><path d="M57.69,92.35V86.72H59l.18.73a2.5,2.5,0,0,1,.72-.59,1.55,1.55,0,0,1,.75-.19,2.56,2.56,0,0,1,.39,0V88a5,5,0,0,0-.64,0,2.47,2.47,0,0,0-1.1.26v4.11Z" style="fill:#232f3e"/><path d="M20.44,106.35V98.72H23a2.4,2.4,0,0,1,1.64.56,1.87,1.87,0,0,1,.64,1.47,1.83,1.83,0,0,1-.25,1,1.6,1.6,0,0,1-.74.61,1.79,1.79,0,0,1,1.35,1.86,1.92,1.92,0,0,1-.7,1.56,2.81,2.81,0,0,1-1.87.59ZM22,99.82v2.11h.68a.84.84,0,0,0,.66-.27,1.13,1.13,0,0,0,.24-.77,1.3,1.3,0,0,0-.21-.79.7.7,0,0,0-.58-.28ZM22,103v2.27h1a.88.88,0,0,0,.7-.29,1.22,1.22,0,0,0,.25-.84,1.19,1.19,0,0,0-.27-.84,1,1,0,0,0-.78-.3Z" style="fill:#232f3e"/><path d="M30,106.35l-.14-.51a3.13,3.13,0,0,1-1.78.65,1.22,1.22,0,0,1-1-.43,1.89,1.89,0,0,1-.35-1.24v-4.1h1.65v3.62a1.61,1.61,0,0,0,.13.77.47.47,0,0,0,.45.23,1.42,1.42,0,0,0,.76-.25v-4.37h1.65v5.63Z" style="fill:#232f3e"/><path d="M34.75,104.77c0-.25-.18-.46-.52-.62l-.72-.35a1.69,1.69,0,0,1-1.14-1.59,1.43,1.43,0,0,1,.56-1.18,2.26,2.26,0,0,1,1.47-.45,3.57,3.57,0,0,1,1.53.35v1a5.56,5.56,0,0,0-.7-.19,3,3,0,0,0-.6-.07c-.52,0-.77.18-.77.54s.21.45.63.66l.73.34a1.9,1.9,0,0,1,.77.62,1.69,1.69,0,0,1,.24.93,1.59,1.59,0,0,1-.55,1.27,2.31,2.31,0,0,1-1.49.46,3.85,3.85,0,0,1-1.82-.44v-1a5.5,5.5,0,0,0,1.62.35.81.81,0,0,0,.56-.17A.57.57,0,0,0,34.75,104.77Z" style="fill:#232f3e"/><path d="M38,99.81a1.08,1.08,0,0,1-.71-.22.79.79,0,0,1-.26-.61.77.77,0,0,1,.26-.61,1,1,0,0,1,.71-.23,1,1,0,0,1,.7.23A.75.75,0,0,1,39,99a.76.76,0,0,1-.27.61A1,1,0,0,1,38,99.81Zm-.83,6.54v-5.63h1.65v5.63Z" style="fill:#232f3e"/><path d="M43.41,106.35v-3.7a1.36,1.36,0,0,0-.14-.7.56.56,0,0,0-.5-.22A1.59,1.59,0,0,0,42,102v4.36H40.3v-5.63h1.35l.13.51a3.38,3.38,0,0,1,1.85-.65,1.33,1.33,0,0,1,1.06.42,1.78,1.78,0,0,1,.37,1.22v4.13Z" style="fill:#232f3e"/><path d="M47.67,103.92A1.71,1.71,0,0,0,48,105a1.43,1.43,0,0,0,1.06.33,3.26,3.26,0,0,0,.68-.09,5.9,5.9,0,0,0,.8-.21v1a2.88,2.88,0,0,1-.83.31,4.77,4.77,0,0,1-1,.11c-1.72,0-2.58-1-2.58-2.95a3.37,3.37,0,0,1,.63-2.2,2.23,2.23,0,0,1,1.83-.76c1.36,0,2,.76,2,2.29a4.32,4.32,0,0,1-.12,1Zm.92-2.32c-.58,0-.88.46-.92,1.37h1.62v-.25a1.68,1.68,0,0,0-.17-.86A.59.59,0,0,0,48.59,101.6Z" style="fill:#232f3e"/><path d="M53.82,104.77c0-.25-.17-.46-.52-.62l-.72-.35a1.69,1.69,0,0,1-1.14-1.59A1.43,1.43,0,0,1,52,101a2.26,2.26,0,0,1,1.47-.45,3.57,3.57,0,0,1,1.53.35v1a5.56,5.56,0,0,0-.7-.19,3,3,0,0,0-.6-.07c-.52,0-.77.18-.77.54s.21.45.64.66l.72.34a1.9,1.9,0,0,1,.77.62,1.69,1.69,0,0,1,.24.93,1.56,1.56,0,0,1-.55,1.27,2.31,2.31,0,0,1-1.49.46,3.85,3.85,0,0,1-1.82-.44v-1a5.57,5.57,0,0,0,1.62.35.86.86,0,0,0,.57-.17A.59.59,0,0,0,53.82,104.77Z" style="fill:#232f3e"/><path d="M58.23,104.77c0-.25-.17-.46-.52-.62L57,103.8a1.69,1.69,0,0,1-1.14-1.59,1.43,1.43,0,0,1,.56-1.18,2.26,2.26,0,0,1,1.47-.45,3.57,3.57,0,0,1,1.53.35v1a5.56,5.56,0,0,0-.7-.19,3,3,0,0,0-.6-.07c-.52,0-.77.18-.77.54s.21.45.64.66l.72.34a1.9,1.9,0,0,1,.77.62,1.69,1.69,0,0,1,.24.93,1.59,1.59,0,0,1-.55,1.27,2.31,2.31,0,0,1-1.49.46,3.85,3.85,0,0,1-1.82-.44v-1a5.5,5.5,0,0,0,1.62.35.81.81,0,0,0,.56-.17A.57.57,0,0,0,58.23,104.77Z" style="fill:#232f3e"/></g><g id="ICONS_-_EDIT" data-name="ICONS - EDIT"><path d="M37.73,58.42a1,1,0,0,1-1-1V54.64a3.73,3.73,0,0,0-1.43-3c-.49-.35-1.94-1.36-2.46-1.67-5.4-3.16-8.63-8.41-8.63-14a15.84,15.84,0,0,1,15.68-15.8l1.29.05h.14A15.81,15.81,0,0,1,55.2,31.62c0,.18.09.3.12.42a16.65,16.65,0,0,1,.59,4.42c0,9.93-7.5,19.13-17.84,21.9A1.43,1.43,0,0,1,37.73,58.42Zm2.16-36.34a13.84,13.84,0,0,0-13.68,13.8c0,4.92,2.86,9.53,7.64,12.33.7.4,2.55,1.72,2.63,1.77a5.75,5.75,0,0,1,2.25,4.66v1.44c8.87-2.89,15.18-11,15.18-19.62a14.37,14.37,0,0,0-.53-3.92l-.07-.27a.49.49,0,0,1,0-.11,13.77,13.77,0,0,0-12.08-10h-.11Z" style="fill:#fff"/><path d="M32.71,65a1,1,0,0,1-.61-.21,1,1,0,0,1-.39-.79V55A20.84,20.84,0,1,1,60.84,35.84c0,12.71-9.87,24.48-23.45,28L33,65A1.07,1.07,0,0,1,32.71,65ZM40,17a18.83,18.83,0,0,0-7.34,36.18,1.66,1.66,0,0,1,1.05,1.51v8l3.18-.82c12.72-3.28,22-14.24,22-26A18.86,18.86,0,0,0,40,17Z" style="fill:#fff"/><rect x="31.71" y="30" width="16" height="2" style="fill:#fff"/><rect x="31.71" y="35" width="19" height="2" style="fill:#fff"/><rect x="31.71" y="40" width="10" height="2" style="fill:#fff"/></g></svg>