<svg xmlns="http://www.w3.org/2000/svg" width="80" height="115" viewBox="0 0 80 115"><title>architecture-product-card_Amazon_ElastiCache</title><g id="CARDS"><rect x="1" y="1" width="78" height="78" style="fill:#232f3e"/><path d="M0,0V80H0v35H80V80h0V0ZM1,1H79V79H1Z" style="fill:#fff"/></g><g id="TEXT_-_EDIT" data-name="TEXT - EDIT"><path d="M25.35,92.35l-.43-1.82h-2l-.42,1.82H20.72L23,84.72H24.9l2.31,7.63Zm-2.18-2.92h1.49l-.76-3.16Z" style="fill:#232f3e"/><path d="M34.06,92.35V88.64a1.32,1.32,0,0,0-.14-.69.49.49,0,0,0-.46-.22,1.59,1.59,0,0,0-.8.26.5.5,0,0,1,0,.12v4.24H31V88.64a1.33,1.33,0,0,0-.13-.69.51.51,0,0,0-.47-.22,1.55,1.55,0,0,0-.78.26v4.36H28V86.72h1.35l.13.51a3.31,3.31,0,0,1,1.81-.65,1.25,1.25,0,0,1,1.2.67,3.38,3.38,0,0,1,1.83-.67,1.3,1.3,0,0,1,1,.42,1.85,1.85,0,0,1,.36,1.22v4.13Z" style="fill:#232f3e"/><path d="M40,92.35l-.14-.51a1.56,1.56,0,0,1-.59.47,1.86,1.86,0,0,1-.79.18A1.57,1.57,0,0,1,37.31,92a1.65,1.65,0,0,1-.43-1.22,1.69,1.69,0,0,1,.53-1.31A2,2,0,0,1,38.84,89a4,4,0,0,1,.93.13v-.51a1.33,1.33,0,0,0-.16-.78.77.77,0,0,0-.61-.2,5.9,5.9,0,0,0-1.77.35V87a3,3,0,0,1,.92-.33,5.47,5.47,0,0,1,1.15-.12,2.19,2.19,0,0,1,1.52.44,1.82,1.82,0,0,1,.47,1.39v3.94Zm-1-.92a1.17,1.17,0,0,0,.79-.35V90a2.3,2.3,0,0,0-.62-.07.67.67,0,0,0-.54.2.81.81,0,0,0-.19.59.82.82,0,0,0,.15.52A.49.49,0,0,0,39,91.43Z" style="fill:#232f3e"/><path d="M42.28,92.35V91.28l2.49-3.4h-2.4V86.72h4.14v1.07L44,91.19h2.54v1.16Z" style="fill:#232f3e"/><path d="M49.79,92.49A2.3,2.3,0,0,1,48,91.72a4,4,0,0,1,0-4.37,2.6,2.6,0,0,1,3.69,0,4,4,0,0,1,0,4.37A2.31,2.31,0,0,1,49.79,92.49Zm0-1.15a.67.67,0,0,0,.65-.43,4.79,4.79,0,0,0,0-2.74.69.69,0,0,0-1.29,0,4.79,4.79,0,0,0,0,2.74A.66.66,0,0,0,49.79,91.34Z" style="fill:#232f3e"/><path d="M56.55,92.35v-3.7a1.36,1.36,0,0,0-.14-.7.55.55,0,0,0-.5-.22,1.56,1.56,0,0,0-.81.26v4.36H53.44V86.72h1.35l.14.51a3.32,3.32,0,0,1,1.84-.65,1.35,1.35,0,0,1,1.07.42,1.83,1.83,0,0,1,.36,1.22v4.13Z" style="fill:#232f3e"/><path d="M13.56,106.35V98.72H18.1V99.9H15.25v1.95h2.29V103H15.25v2.15H18.1v1.18Z" style="fill:#232f3e"/><path d="M21.62,106.25a2.69,2.69,0,0,1-1,.16,1.43,1.43,0,0,1-1.08-.37,1.54,1.54,0,0,1-.36-1.12V98.21h1.65v6.54a.75.75,0,0,0,.08.4.37.37,0,0,0,.32.12,2.14,2.14,0,0,0,.35,0Z" style="fill:#232f3e"/><path d="M25.54,106.35l-.15-.51a1.42,1.42,0,0,1-.59.47,1.85,1.85,0,0,1-.78.18,1.56,1.56,0,0,1-1.18-.45,1.66,1.66,0,0,1-.44-1.22,1.69,1.69,0,0,1,.53-1.31,2.08,2.08,0,0,1,1.44-.47,4,4,0,0,1,.93.13v-.51a1.32,1.32,0,0,0-.17-.78.77.77,0,0,0-.61-.2,5.9,5.9,0,0,0-1.77.35v-1a3.07,3.07,0,0,1,.92-.33,5.57,5.57,0,0,1,1.16-.12,2.18,2.18,0,0,1,1.51.44,1.78,1.78,0,0,1,.47,1.39v3.94Zm-1-.92a1.19,1.19,0,0,0,.8-.35V104a2.38,2.38,0,0,0-.63-.07.69.69,0,0,0-.54.2.85.85,0,0,0-.18.59.82.82,0,0,0,.15.52A.47.47,0,0,0,24.5,105.43Z" style="fill:#232f3e"/><path d="M30.21,104.77c0-.25-.17-.46-.52-.62L29,103.8a1.7,1.7,0,0,1-1.13-1.59,1.42,1.42,0,0,1,.55-1.18,2.26,2.26,0,0,1,1.47-.45,3.57,3.57,0,0,1,1.53.35v1a5.13,5.13,0,0,0-.7-.19,3,3,0,0,0-.6-.07c-.51,0-.77.18-.77.54s.21.45.64.66l.72.34a1.9,1.9,0,0,1,.77.62,1.69,1.69,0,0,1,.24.93,1.56,1.56,0,0,1-.55,1.27,2.28,2.28,0,0,1-1.48.46,3.8,3.8,0,0,1-1.82-.44v-1a5.45,5.45,0,0,0,1.61.35.86.86,0,0,0,.57-.17A.56.56,0,0,0,30.21,104.77Z" style="fill:#232f3e"/><path d="M35.66,106.2a3.51,3.51,0,0,1-1.23.22,1.85,1.85,0,0,1-1.32-.4,1.81,1.81,0,0,1-.41-1.3v-2.9H32v-.92l.78-.15L33,99.21h1.36v1.51h1.28v1.1H34.35v2.77a.73.73,0,0,0,.15.52.69.69,0,0,0,.53.16,3,3,0,0,0,.63-.08Z" style="fill:#232f3e"/><path d="M37.4,99.81a1.08,1.08,0,0,1-.71-.22.79.79,0,0,1-.26-.61.77.77,0,0,1,.26-.61,1,1,0,0,1,.71-.23,1,1,0,0,1,.7.23.75.75,0,0,1,.27.61.76.76,0,0,1-.27.61A1,1,0,0,1,37.4,99.81Zm-.83,6.54v-5.63h1.65v5.63Z" style="fill:#232f3e"/><path d="M44.73,106.13a4.64,4.64,0,0,1-1.79.34c-2.24,0-3.37-1.3-3.37-3.9a4.4,4.4,0,0,1,.88-2.95,3.16,3.16,0,0,1,2.53-1,4.72,4.72,0,0,1,1.65.3v1.21a5.61,5.61,0,0,0-1.44-.23,1.61,1.61,0,0,0-1.4.61,3.29,3.29,0,0,0-.45,1.93v.25a3.26,3.26,0,0,0,.44,1.9,1.55,1.55,0,0,0,1.37.61,7.12,7.12,0,0,0,1.58-.26Z" style="fill:#232f3e"/><path d="M48.63,106.35l-.14-.51a1.56,1.56,0,0,1-.59.47,1.86,1.86,0,0,1-.79.18,1.57,1.57,0,0,1-1.18-.45,1.65,1.65,0,0,1-.43-1.22,1.69,1.69,0,0,1,.53-1.31,2,2,0,0,1,1.43-.47,4,4,0,0,1,.93.13v-.51a1.33,1.33,0,0,0-.16-.78.77.77,0,0,0-.61-.2,5.9,5.9,0,0,0-1.77.35v-1a3,3,0,0,1,.91-.33,5.64,5.64,0,0,1,1.16-.12,2.19,2.19,0,0,1,1.52.44,1.82,1.82,0,0,1,.47,1.39v3.94Zm-1-.92a1.17,1.17,0,0,0,.79-.35V104a2.33,2.33,0,0,0-.63-.07.66.66,0,0,0-.53.2.81.81,0,0,0-.19.59.82.82,0,0,0,.15.52A.49.49,0,0,0,47.6,105.43Z" style="fill:#232f3e"/><path d="M54.94,106.09a1.93,1.93,0,0,1-.63.26,3.59,3.59,0,0,1-.81.09,2.27,2.27,0,0,1-1.84-.73,3.24,3.24,0,0,1-.63-2.16,3.16,3.16,0,0,1,.67-2.16,2.34,2.34,0,0,1,1.87-.76,2.93,2.93,0,0,1,1.35.33v1a3.08,3.08,0,0,0-1-.19,1.06,1.06,0,0,0-.94.4,2.29,2.29,0,0,0-.28,1.29v.16A2.23,2.23,0,0,0,53,104.9a1,1,0,0,0,.9.4,3.22,3.22,0,0,0,1.08-.21Z" style="fill:#232f3e"/><path d="M59.1,106.35v-3.7A1.36,1.36,0,0,0,59,102a.56.56,0,0,0-.5-.22,1.59,1.59,0,0,0-.82.26v4.36H56V98.21h1.65v2.91a3.25,3.25,0,0,1,1.68-.54,1.33,1.33,0,0,1,1.06.42,1.78,1.78,0,0,1,.37,1.22v4.13Z" style="fill:#232f3e"/><path d="M63.37,103.92a1.66,1.66,0,0,0,.36,1.12,1.43,1.43,0,0,0,1.06.33,3.26,3.26,0,0,0,.68-.09,5.9,5.9,0,0,0,.8-.21v1a2.88,2.88,0,0,1-.83.31,4.77,4.77,0,0,1-1,.11c-1.72,0-2.58-1-2.58-2.95a3.37,3.37,0,0,1,.63-2.2,2.24,2.24,0,0,1,1.83-.76c1.36,0,2,.76,2,2.29a4.32,4.32,0,0,1-.12,1Zm.91-2.32c-.58,0-.88.46-.91,1.37H65v-.25a1.68,1.68,0,0,0-.17-.86A.59.59,0,0,0,64.28,101.6Z" style="fill:#232f3e"/></g><g id="ICONS_-_EDIT" data-name="ICONS - EDIT"><path d="M40,39.7c-6.71,0-13.49-1.75-13.49-5.1S33.31,29.5,40,29.5,53.5,31.25,53.5,34.6,46.71,39.7,40,39.7Zm0-8.2c-7.44,0-11.49,2-11.49,3.1s4,3.1,11.49,3.1S51.5,35.65,51.5,34.6,47.44,31.5,40,31.5Z" style="fill:#fff"/><path d="M40,62.5c-6.71,0-13.49-1.75-13.49-5.1V34.6h2V57.4c0,1.05,4,3.1,11.49,3.1s11.48-2,11.48-3.1V34.6h2V57.4C53.5,60.75,46.71,62.5,40,62.5Z" style="fill:#fff"/><path d="M40,47.3c-6.71,0-13.49-1.75-13.49-5.1h2c0,1,4,3.1,11.49,3.1s11.48-2,11.48-3.1h2C53.5,45.55,46.71,47.3,40,47.3Z" style="fill:#fff"/><path d="M40,54.9c-6.71,0-13.49-1.75-13.49-5.1h2c0,1.05,4,3.1,11.49,3.1s11.48-2,11.48-3.1h2C53.5,53.15,46.71,54.9,40,54.9Z" style="fill:#fff"/><path d="M40,39.7c-6.71,0-13.49-1.75-13.49-5.1S33.31,29.5,40,29.5,53.5,31.25,53.5,34.6,46.71,39.7,40,39.7Zm0-8.2c-7.44,0-11.49,2-11.49,3.1s4,3.1,11.49,3.1S51.5,35.65,51.5,34.6,47.44,31.5,40,31.5Z" style="fill:#fff"/><path d="M20.53,44.5h-2v-3a1,1,0,0,1,1-1h4.94v2H20.53Z" style="fill:#fff"/><path d="M61.53,45.5h-6v-2h5v-1h-5v-2h6a1,1,0,0,1,1,1v3A1,1,0,0,1,61.53,45.5Z" style="fill:#fff"/><path d="M64.53,45.5h-9v-2h8V28a4.27,4.27,0,0,1,0-8.13V19.5H16.47v.32a4.26,4.26,0,0,1,0,8.15V43.5h8v2h-9a1,1,0,0,1-1-1V27.1a1,1,0,0,1,1-1,2.22,2.22,0,0,0,0-4.42,1,1,0,0,1-1-1V18.5a1,1,0,0,1,1-1H64.53a1,1,0,0,1,1,1v2.19a1,1,0,0,1-1,1,2.22,2.22,0,0,0,0,4.41,1,1,0,0,1,1,1V44.5A1,1,0,0,1,64.53,45.5Z" style="fill:#fff"/><path d="M32.53,28.5h-2v-6a1,1,0,0,1,1-1h7a1,1,0,0,1,1,1v5h-2v-4h-5Z" style="fill:#fff"/><path d="M49.53,28.5h-2v-5h-5v4h-2v-5a1,1,0,0,1,1-1h7a1,1,0,0,1,1,1Z" style="fill:#fff"/><path d="M58.53,38.5h-3v-2h2v-13h-5v6h-2v-7a1,1,0,0,1,1-1h7a1,1,0,0,1,1,1v15A1,1,0,0,1,58.53,38.5Z" style="fill:#fff"/><path d="M24.47,38.5H21.53a1,1,0,0,1-1-1v-15a1,1,0,0,1,1-1h7a1,1,0,0,1,1,1v7h-2v-6h-5v13h1.94Z" style="fill:#fff"/></g></svg>