<svg xmlns="http://www.w3.org/2000/svg" width="80" height="115" viewBox="0 0 80 115"><title>architecture-product-card_ELB_Application_Load_Balancer</title><g id="CARDS"><rect x="1" y="1" width="78" height="78" style="fill:#232f3e"/><path d="M0,0V80H0v35H80V80h0V0ZM1,1H79V79H1Z" style="fill:#fff"/></g><g id="TEXT_-_EDIT" data-name="TEXT - EDIT"><path d="M17.06,92.35l-.44-1.82h-2l-.42,1.82H12.43l2.31-7.63h1.87l2.3,7.63Zm-2.19-2.92h1.5l-.76-3.16Z" style="fill:#232f3e"/><path d="M19.69,94.61V86.72H21l.12.48a2.46,2.46,0,0,1,.71-.45,2.16,2.16,0,0,1,.79-.17,1.74,1.74,0,0,1,1.51.74,3.68,3.68,0,0,1,.52,2.14,3.87,3.87,0,0,1-.54,2.2,1.76,1.76,0,0,1-1.52.78,2.08,2.08,0,0,1-.68-.12,1.91,1.91,0,0,1-.61-.35v2.64Zm2.43-6.91a1.3,1.3,0,0,0-.78.25v3.11a1.43,1.43,0,0,0,.79.26.72.72,0,0,0,.7-.42A3.22,3.22,0,0,0,23,89.53a3.34,3.34,0,0,0-.21-1.41A.73.73,0,0,0,22.12,87.7Z" style="fill:#232f3e"/><path d="M25.84,94.61V86.72h1.35l.12.48a2.46,2.46,0,0,1,.71-.45,2.07,2.07,0,0,1,.78-.17,1.74,1.74,0,0,1,1.51.74,3.67,3.67,0,0,1,.53,2.14,3.87,3.87,0,0,1-.55,2.2,1.75,1.75,0,0,1-1.51.78,2.09,2.09,0,0,1-.69-.12,2,2,0,0,1-.6-.35v2.64Zm2.42-6.91a1.27,1.27,0,0,0-.77.25v3.11a1.42,1.42,0,0,0,.78.26A.73.73,0,0,0,29,90.9a3.22,3.22,0,0,0,.21-1.37A3.34,3.34,0,0,0,29,88.12.74.74,0,0,0,28.26,87.7Z" style="fill:#232f3e"/><path d="M34.38,92.25a2.69,2.69,0,0,1-1,.16A1.4,1.4,0,0,1,32.34,92,1.54,1.54,0,0,1,32,90.92V84.21h1.65v6.54a.75.75,0,0,0,.08.4.36.36,0,0,0,.32.12,2.14,2.14,0,0,0,.35,0Z" style="fill:#232f3e"/><path d="M36.26,85.81a1.06,1.06,0,0,1-.71-.22.76.76,0,0,1-.27-.61.75.75,0,0,1,.27-.61,1.2,1.2,0,0,1,1.41,0,.77.77,0,0,1,.26.61.79.79,0,0,1-.26.61A1,1,0,0,1,36.26,85.81Zm-.83,6.54V86.72h1.65v5.63Z" style="fill:#232f3e"/><path d="M42.18,92.09a2.09,2.09,0,0,1-.64.26,3.59,3.59,0,0,1-.81.09,2.27,2.27,0,0,1-1.84-.73,3.24,3.24,0,0,1-.63-2.16,3.16,3.16,0,0,1,.67-2.16,2.34,2.34,0,0,1,1.87-.76,2.9,2.9,0,0,1,1.35.33v1a3.08,3.08,0,0,0-1-.19,1.06,1.06,0,0,0-.94.4,2.29,2.29,0,0,0-.28,1.29v.16a2.23,2.23,0,0,0,.28,1.28,1,1,0,0,0,.9.4,3.32,3.32,0,0,0,1.09-.21Z" style="fill:#232f3e"/><path d="M46.13,92.35,46,91.84a1.42,1.42,0,0,1-.59.47,1.85,1.85,0,0,1-.78.18A1.56,1.56,0,0,1,43.43,92,1.66,1.66,0,0,1,43,90.82a1.69,1.69,0,0,1,.53-1.31A2.08,2.08,0,0,1,45,89a4,4,0,0,1,.93.13v-.51a1.32,1.32,0,0,0-.17-.78.77.77,0,0,0-.61-.2,5.9,5.9,0,0,0-1.77.35V87a3.07,3.07,0,0,1,.92-.33,5.57,5.57,0,0,1,1.16-.12,2.18,2.18,0,0,1,1.51.44,1.78,1.78,0,0,1,.47,1.39v3.94Zm-1-.92a1.21,1.21,0,0,0,.8-.35V90a2.38,2.38,0,0,0-.63-.07.69.69,0,0,0-.54.2.85.85,0,0,0-.18.59.82.82,0,0,0,.15.52A.47.47,0,0,0,45.09,91.43Z" style="fill:#232f3e"/><path d="M51.84,92.2a3.47,3.47,0,0,1-1.23.22A1.8,1.8,0,0,1,49.3,92a1.77,1.77,0,0,1-.41-1.3v-2.9h-.74V86.9l.78-.15.24-1.54h1.37v1.51h1.27v1.1H50.54v2.77a.74.74,0,0,0,.14.52.69.69,0,0,0,.53.16,3,3,0,0,0,.63-.08Z" style="fill:#232f3e"/><path d="M53.58,85.81a1.08,1.08,0,0,1-.71-.22.79.79,0,0,1-.26-.61.77.77,0,0,1,.26-.61,1,1,0,0,1,.71-.23,1,1,0,0,1,.7.23.75.75,0,0,1,.27.61.76.76,0,0,1-.27.61A1,1,0,0,1,53.58,85.81Zm-.83,6.54V86.72H54.4v5.63Z" style="fill:#232f3e"/><path d="M58.09,92.49a2.27,2.27,0,0,1-1.84-.77,4,4,0,0,1,0-4.37,2.58,2.58,0,0,1,3.68,0,4,4,0,0,1,0,4.37A2.29,2.29,0,0,1,58.09,92.49Zm0-1.15a.65.65,0,0,0,.64-.43,4.79,4.79,0,0,0,0-2.74.65.65,0,0,0-.64-.44.67.67,0,0,0-.65.44,5,5,0,0,0,0,2.74A.67.67,0,0,0,58.09,91.34Z" style="fill:#232f3e"/><path d="M64.85,92.35v-3.7a1.25,1.25,0,0,0-.15-.7.53.53,0,0,0-.49-.22,1.59,1.59,0,0,0-.82.26v4.36H61.74V86.72h1.35l.13.51a3.35,3.35,0,0,1,1.84-.65,1.34,1.34,0,0,1,1.07.42,1.78,1.78,0,0,1,.37,1.22v4.13Z" style="fill:#232f3e"/><path d="M7.18,106.35V98.72H8.87v6.4h2.84v1.23Z" style="fill:#232f3e"/><path d="M14.71,106.49a2.29,2.29,0,0,1-1.84-.77,4,4,0,0,1,0-4.37,2.29,2.29,0,0,1,1.84-.77,2.31,2.31,0,0,1,1.85.77,4,4,0,0,1,0,4.37A2.31,2.31,0,0,1,14.71,106.49Zm0-1.15a.67.67,0,0,0,.65-.43,4.79,4.79,0,0,0,0-2.74.67.67,0,0,0-.65-.44.66.66,0,0,0-.64.44,4.79,4.79,0,0,0,0,2.74A.66.66,0,0,0,14.71,105.34Z" style="fill:#232f3e"/><path d="M21.27,106.35l-.15-.51a1.49,1.49,0,0,1-.59.47,1.85,1.85,0,0,1-.78.18,1.56,1.56,0,0,1-1.18-.45,1.66,1.66,0,0,1-.44-1.22,1.69,1.69,0,0,1,.53-1.31A2.08,2.08,0,0,1,20.1,103a3.88,3.88,0,0,1,.92.13v-.51a1.33,1.33,0,0,0-.16-.78.77.77,0,0,0-.61-.2,5.9,5.9,0,0,0-1.77.35v-1a3.07,3.07,0,0,1,.92-.33,5.57,5.57,0,0,1,1.16-.12,2.18,2.18,0,0,1,1.51.44,1.78,1.78,0,0,1,.47,1.39v3.94Zm-1-.92a1.17,1.17,0,0,0,.79-.35V104a2.25,2.25,0,0,0-.62-.07.69.69,0,0,0-.54.2.85.85,0,0,0-.18.59.82.82,0,0,0,.15.52A.47.47,0,0,0,20.23,105.43Z" style="fill:#232f3e"/><path d="M27.19,106.35l-.13-.49a2,2,0,0,1-.63.43,1.86,1.86,0,0,1-.72.15,1.75,1.75,0,0,1-1.51-.75,3.65,3.65,0,0,1-.54-2.13,3.73,3.73,0,0,1,.56-2.19,1.76,1.76,0,0,1,1.53-.79,2.08,2.08,0,0,1,.63.13A2.35,2.35,0,0,1,27,101V98.21h1.65v8.14Zm-.92-1a1.34,1.34,0,0,0,.72-.22V102a1.51,1.51,0,0,0-.8-.26.7.7,0,0,0-.67.44,3.39,3.39,0,0,0-.21,1.39,3.05,3.05,0,0,0,.23,1.36A.77.77,0,0,0,26.27,105.32Z" style="fill:#232f3e"/><path d="M32.71,106.35V98.72h2.52a2.42,2.42,0,0,1,1.64.56,1.9,1.9,0,0,1,.64,1.47,1.84,1.84,0,0,1-.26,1,1.58,1.58,0,0,1-.73.61,1.89,1.89,0,0,1,1,.68,2.12,2.12,0,0,1-.35,2.74,2.83,2.83,0,0,1-1.87.59Zm1.59-6.53v2.11H35a.84.84,0,0,0,.66-.27,1.13,1.13,0,0,0,.24-.77,1.3,1.3,0,0,0-.21-.79.72.72,0,0,0-.59-.28Zm0,3.16v2.27h1A.88.88,0,0,0,36,105a1.28,1.28,0,0,0,.25-.84,1.19,1.19,0,0,0-.27-.84,1,1,0,0,0-.78-.3Z" style="fill:#232f3e"/><path d="M41.89,106.35l-.14-.51a1.56,1.56,0,0,1-.59.47,1.86,1.86,0,0,1-.79.18,1.57,1.57,0,0,1-1.18-.45,1.65,1.65,0,0,1-.43-1.22,1.69,1.69,0,0,1,.53-1.31,2,2,0,0,1,1.43-.47,4,4,0,0,1,.93.13v-.51a1.33,1.33,0,0,0-.16-.78.77.77,0,0,0-.61-.2,5.9,5.9,0,0,0-1.77.35v-1a3,3,0,0,1,.91-.33,5.64,5.64,0,0,1,1.16-.12,2.19,2.19,0,0,1,1.52.44,1.82,1.82,0,0,1,.47,1.39v3.94Zm-1-.92a1.17,1.17,0,0,0,.8-.35V104a2.33,2.33,0,0,0-.63-.07.66.66,0,0,0-.53.2.81.81,0,0,0-.19.59.82.82,0,0,0,.15.52A.48.48,0,0,0,40.85,105.43Z" style="fill:#232f3e"/><path d="M47,106.25a2.69,2.69,0,0,1-1,.16,1.43,1.43,0,0,1-1.08-.37,1.54,1.54,0,0,1-.35-1.12V98.21h1.65v6.54a.77.77,0,0,0,.07.4.37.37,0,0,0,.32.12,2.14,2.14,0,0,0,.35,0Z" style="fill:#232f3e"/><path d="M50.88,106.35l-.15-.51a1.42,1.42,0,0,1-.59.47,1.78,1.78,0,0,1-.78.18,1.56,1.56,0,0,1-1.18-.45,1.91,1.91,0,0,1,.1-2.53,2,2,0,0,1,1.43-.47,4,4,0,0,1,.93.13v-.51a1.42,1.42,0,0,0-.16-.78.78.78,0,0,0-.61-.2,5.79,5.79,0,0,0-1.77.35v-1a2.9,2.9,0,0,1,.91-.33,5.57,5.57,0,0,1,1.16-.12,2.21,2.21,0,0,1,1.52.44,1.82,1.82,0,0,1,.47,1.39v3.94Zm-1-.92a1.19,1.19,0,0,0,.8-.35V104a2.38,2.38,0,0,0-.63-.07.66.66,0,0,0-.53.2.81.81,0,0,0-.19.59.82.82,0,0,0,.15.52A.47.47,0,0,0,49.84,105.43Z" style="fill:#232f3e"/><path d="M56.66,106.35v-3.7a1.36,1.36,0,0,0-.14-.7.55.55,0,0,0-.5-.22,1.59,1.59,0,0,0-.82.26v4.36H53.55v-5.63H54.9l.13.51a3.38,3.38,0,0,1,1.85-.65,1.33,1.33,0,0,1,1.06.42,1.78,1.78,0,0,1,.37,1.22v4.13Z" style="fill:#232f3e"/><path d="M63.35,106.09a2,2,0,0,1-.64.26,3.59,3.59,0,0,1-.81.09,2.28,2.28,0,0,1-1.84-.73,3.24,3.24,0,0,1-.63-2.16,3.16,3.16,0,0,1,.67-2.16,2.36,2.36,0,0,1,1.87-.76,2.87,2.87,0,0,1,1.35.33v1a3.08,3.08,0,0,0-1-.19,1,1,0,0,0-.93.4,2.28,2.28,0,0,0-.29,1.29v.16a2.31,2.31,0,0,0,.28,1.28,1,1,0,0,0,.9.4,3.32,3.32,0,0,0,1.09-.21Z" style="fill:#232f3e"/><path d="M65.61,103.92A1.77,1.77,0,0,0,66,105a1.45,1.45,0,0,0,1.06.33,3.26,3.26,0,0,0,.69-.09,6.31,6.31,0,0,0,.8-.21v1a3,3,0,0,1-.83.31,4.84,4.84,0,0,1-1,.11c-1.72,0-2.58-1-2.58-2.95a3.37,3.37,0,0,1,.63-2.2,2.23,2.23,0,0,1,1.83-.76c1.36,0,2,.76,2,2.29a4.32,4.32,0,0,1-.12,1Zm.92-2.32c-.58,0-.88.46-.92,1.37h1.62v-.25a1.68,1.68,0,0,0-.17-.86A.59.59,0,0,0,66.53,101.6Z" style="fill:#232f3e"/><path d="M69.76,106.35v-5.63h1.35l.18.73a2.61,2.61,0,0,1,.71-.59,1.56,1.56,0,0,1,.76-.19,2.43,2.43,0,0,1,.38,0V102a4.85,4.85,0,0,0-.64,0,2.43,2.43,0,0,0-1.09.26v4.11Z" style="fill:#232f3e"/></g><g id="ICONS_-_EDIT" data-name="ICONS - EDIT"><path d="M40,65A25,25,0,1,1,65,40,25,25,0,0,1,40,65Zm0-48A23,23,0,1,0,63,40,23,23,0,0,0,40,17Z" style="fill:#fff"/><path d="M48,34H32a1,1,0,0,1-1-1V24a1,1,0,0,1,1-1H48a1,1,0,0,1,1,1v9A1,1,0,0,1,48,34ZM33,32H47V25H33Z" style="fill:#fff"/><path d="M30,54H25.1a1,1,0,0,1-1-1V48a1,1,0,0,1,1-1H30a1,1,0,0,1,1,1v5A1,1,0,0,1,30,54Zm-3.9-2H29V49H26.1Z" style="fill:#fff"/><path d="M38,54H33a1,1,0,0,1-1-1V48a1,1,0,0,1,1-1h5a1,1,0,0,1,1,1v5A1,1,0,0,1,38,54Zm-4-2h3V49H34Z" style="fill:#fff"/><path d="M36,48H34V44H29v4H27V43a1,1,0,0,1,1-1h7a1,1,0,0,1,1,1Z" style="fill:#fff"/><path d="M47,54H42a1,1,0,0,1-1-1V48a1,1,0,0,1,1-1h5a1,1,0,0,1,1,1v5A1,1,0,0,1,47,54Zm-4-2h3V49H43Z" style="fill:#fff"/><path d="M54.9,54h-5a1,1,0,0,1-1-1V48a1,1,0,0,1,1-1h5a1,1,0,0,1,1,1v5A1,1,0,0,1,54.9,54Zm-4-2h3V49h-3Z" style="fill:#fff"/><path d="M53,48H51V44H46v4H44V43a1,1,0,0,1,1-1h7a1,1,0,0,1,1,1Z" style="fill:#fff"/><path d="M49,43H47V39H33v4H31V38a1,1,0,0,1,1-1H48a1,1,0,0,1,1,1Z" style="fill:#fff"/><rect x="39" y="33" width="2" height="5" style="fill:#fff"/></g></svg>