<svg xmlns="http://www.w3.org/2000/svg" width="80" height="130" viewBox="0 0 80 130"><title>architecture-product-card_Reserved_Instance_Reporting</title><g id="CARDS"><rect x="1" y="1" width="78" height="78" style="fill:#232f3e"/><path d="M0,0V80H0v50H80V80h0V0ZM1,1H79V79H1Z" style="fill:#fff"/></g><g id="TEXT_-_EDIT" data-name="TEXT - EDIT"><path d="M22.85,92.35l-1.46-2.83h-.65v2.83H19.09V84.72h2.64a2.43,2.43,0,0,1,1.77.65,2.35,2.35,0,0,1,.65,1.75,2.67,2.67,0,0,1-.32,1.33,2,2,0,0,1-.93.84l1.68,3.06Zm-2.11-4h.79a.84.84,0,0,0,.71-.31,1.5,1.5,0,0,0,.25-.94,1.45,1.45,0,0,0-.25-.93.82.82,0,0,0-.71-.32h-.79Z" style="fill:#232f3e"/><path d="M26.62,89.92A1.77,1.77,0,0,0,27,91a1.45,1.45,0,0,0,1.06.33,3.18,3.18,0,0,0,.68-.09,5.54,5.54,0,0,0,.8-.21v1a2.77,2.77,0,0,1-.83.31,4.75,4.75,0,0,1-1,.11c-1.72,0-2.58-1-2.58-2.95a3.37,3.37,0,0,1,.63-2.2,2.22,2.22,0,0,1,1.82-.76c1.37,0,2.05.76,2.05,2.29a4.32,4.32,0,0,1-.12,1Zm.92-2.32c-.58,0-.89.46-.92,1.37h1.62v-.25a1.68,1.68,0,0,0-.17-.86A.6.6,0,0,0,27.54,87.6Z" style="fill:#232f3e"/><path d="M32.77,90.77c0-.25-.18-.46-.52-.62l-.73-.35a1.7,1.7,0,0,1-1.13-1.59A1.43,1.43,0,0,1,31,87a2.26,2.26,0,0,1,1.47-.45,3.57,3.57,0,0,1,1.53.35v1a5.56,5.56,0,0,0-.7-.19,3,3,0,0,0-.61-.07c-.51,0-.77.18-.77.54s.22.45.64.66l.73.34a1.9,1.9,0,0,1,.77.62,1.69,1.69,0,0,1,.24.93A1.57,1.57,0,0,1,33.69,92a2.28,2.28,0,0,1-1.48.46,3.83,3.83,0,0,1-1.82-.44v-1A5.44,5.44,0,0,0,32,91.4a.85.85,0,0,0,.56-.17A.57.57,0,0,0,32.77,90.77Z" style="fill:#232f3e"/><path d="M36.39,89.92A1.77,1.77,0,0,0,36.75,91a1.45,1.45,0,0,0,1.06.33,3.18,3.18,0,0,0,.68-.09,5.54,5.54,0,0,0,.8-.21v1a2.77,2.77,0,0,1-.83.31,4.75,4.75,0,0,1-1,.11c-1.72,0-2.58-1-2.58-2.95a3.37,3.37,0,0,1,.63-2.2,2.23,2.23,0,0,1,1.83-.76c1.36,0,2,.76,2,2.29a4.32,4.32,0,0,1-.12,1Zm.92-2.32c-.58,0-.89.46-.92,1.37H38v-.25a1.68,1.68,0,0,0-.17-.86A.6.6,0,0,0,37.31,87.6Z" style="fill:#232f3e"/><path d="M40.54,92.35V86.72h1.35l.18.73a2.61,2.61,0,0,1,.71-.59,1.56,1.56,0,0,1,.76-.19l.38,0V88a4.85,4.85,0,0,0-.64,0,2.43,2.43,0,0,0-1.09.26v4.11Z" style="fill:#232f3e"/><path d="M46.34,92.35l-1.85-5.63h1.74l.89,4,.92-4h1.7L47.9,92.35Z" style="fill:#232f3e"/><path d="M51.71,89.92A1.71,1.71,0,0,0,52.08,91a1.43,1.43,0,0,0,1.06.33,3.26,3.26,0,0,0,.68-.09,5.9,5.9,0,0,0,.8-.21v1a2.88,2.88,0,0,1-.83.31,4.77,4.77,0,0,1-1,.11c-1.72,0-2.58-1-2.58-2.95a3.37,3.37,0,0,1,.63-2.2,2.24,2.24,0,0,1,1.83-.76c1.36,0,2,.76,2,2.29a4.32,4.32,0,0,1-.12,1Zm.92-2.32c-.58,0-.88.46-.92,1.37h1.62v-.25a1.68,1.68,0,0,0-.17-.86A.59.59,0,0,0,52.63,87.6Z" style="fill:#232f3e"/><path d="M59.11,92.35,59,91.86a2.2,2.2,0,0,1-.63.43,1.86,1.86,0,0,1-.72.15,1.75,1.75,0,0,1-1.51-.75,3.65,3.65,0,0,1-.54-2.13,3.73,3.73,0,0,1,.56-2.19,1.76,1.76,0,0,1,1.53-.79,2.08,2.08,0,0,1,.63.13,2.35,2.35,0,0,1,.61.33V84.21h1.65v8.14Zm-.93-1a1.35,1.35,0,0,0,.73-.22V88a1.54,1.54,0,0,0-.8-.26.69.69,0,0,0-.67.44,3.39,3.39,0,0,0-.21,1.39,3.05,3.05,0,0,0,.23,1.36A.76.76,0,0,0,58.18,91.32Z" style="fill:#232f3e"/><path d="M20.8,106.35V98.72h1.68v7.63Z" style="fill:#232f3e"/><path d="M27.17,106.35v-3.7A1.36,1.36,0,0,0,27,102a.56.56,0,0,0-.5-.22,1.59,1.59,0,0,0-.82.26v4.36H24.06v-5.63h1.35l.13.51a3.38,3.38,0,0,1,1.85-.65,1.33,1.33,0,0,1,1.06.42,1.78,1.78,0,0,1,.37,1.22v4.13Z" style="fill:#232f3e"/><path d="M32.22,104.77c0-.25-.18-.46-.52-.62L31,103.8a1.69,1.69,0,0,1-1.14-1.59A1.43,1.43,0,0,1,30.4,101a2.26,2.26,0,0,1,1.47-.45,3.57,3.57,0,0,1,1.53.35v1a5.56,5.56,0,0,0-.7-.19,3,3,0,0,0-.6-.07c-.52,0-.77.18-.77.54s.21.45.63.66l.73.34a1.9,1.9,0,0,1,.77.62,1.69,1.69,0,0,1,.24.93,1.59,1.59,0,0,1-.55,1.27,2.31,2.31,0,0,1-1.49.46,3.85,3.85,0,0,1-1.82-.44v-1a5.5,5.5,0,0,0,1.62.35.81.81,0,0,0,.56-.17A.57.57,0,0,0,32.22,104.77Z" style="fill:#232f3e"/><path d="M37.66,106.2a3.47,3.47,0,0,1-1.23.22,1.47,1.47,0,0,1-1.72-1.7v-2.9H34v-.92l.78-.15L35,99.21h1.36v1.51h1.28v1.1H36.36v2.77a.73.73,0,0,0,.15.52.67.67,0,0,0,.53.16,2.85,2.85,0,0,0,.62-.08Z" style="fill:#232f3e"/><path d="M41.45,106.35l-.15-.51a1.49,1.49,0,0,1-.59.47,1.85,1.85,0,0,1-.78.18,1.56,1.56,0,0,1-1.18-.45,1.66,1.66,0,0,1-.44-1.22,1.69,1.69,0,0,1,.53-1.31,2.07,2.07,0,0,1,1.44-.47,4,4,0,0,1,.92.13v-.51a1.33,1.33,0,0,0-.16-.78.77.77,0,0,0-.61-.2,5.9,5.9,0,0,0-1.77.35v-1a3.07,3.07,0,0,1,.92-.33,5.54,5.54,0,0,1,1.15-.12,2.19,2.19,0,0,1,1.52.44,1.78,1.78,0,0,1,.47,1.39v3.94Zm-1-.92a1.17,1.17,0,0,0,.79-.35V104a2.25,2.25,0,0,0-.62-.07.68.68,0,0,0-.54.2.85.85,0,0,0-.18.59.82.82,0,0,0,.15.52A.47.47,0,0,0,40.41,105.43Z" style="fill:#232f3e"/><path d="M47.23,106.35v-3.7a1.25,1.25,0,0,0-.15-.7.53.53,0,0,0-.49-.22,1.59,1.59,0,0,0-.82.26v4.36H44.12v-5.63h1.35l.13.51a3.35,3.35,0,0,1,1.85-.65,1.33,1.33,0,0,1,1.06.42,1.78,1.78,0,0,1,.37,1.22v4.13Z" style="fill:#232f3e"/><path d="M53.92,106.09a2.09,2.09,0,0,1-.64.26,3.59,3.59,0,0,1-.81.09,2.27,2.27,0,0,1-1.84-.73,3.24,3.24,0,0,1-.63-2.16,3.16,3.16,0,0,1,.67-2.16,2.34,2.34,0,0,1,1.87-.76,2.93,2.93,0,0,1,1.35.33v1a3.08,3.08,0,0,0-1-.19,1.06,1.06,0,0,0-.94.4,2.29,2.29,0,0,0-.28,1.29v.16a2.23,2.23,0,0,0,.28,1.28,1,1,0,0,0,.9.4,3.32,3.32,0,0,0,1.09-.21Z" style="fill:#232f3e"/><path d="M56.18,103.92a1.66,1.66,0,0,0,.36,1.12,1.45,1.45,0,0,0,1.06.33,3.18,3.18,0,0,0,.68-.09,5.54,5.54,0,0,0,.8-.21v1a2.77,2.77,0,0,1-.83.31,4.77,4.77,0,0,1-1,.11c-1.72,0-2.57-1-2.57-2.95a3.37,3.37,0,0,1,.63-2.2,2.22,2.22,0,0,1,1.82-.76c1.37,0,2,.76,2,2.29a4.32,4.32,0,0,1-.12,1Zm.91-2.32c-.57,0-.88.46-.91,1.37h1.61v-.25a1.59,1.59,0,0,0-.17-.86A.58.58,0,0,0,57.09,101.6Z" style="fill:#232f3e"/><path d="M20.55,120.35l-1.45-2.83h-.65v2.83H16.8v-7.63h2.63a2.43,2.43,0,0,1,1.77.65,2.31,2.31,0,0,1,.66,1.75,2.57,2.57,0,0,1-.33,1.33,2,2,0,0,1-.93.84l1.69,3.06Zm-2.1-4h.78a.87.87,0,0,0,.72-.31,1.57,1.57,0,0,0,.24-.94,1.52,1.52,0,0,0-.24-.93.85.85,0,0,0-.72-.32h-.78Z" style="fill:#232f3e"/><path d="M24.33,117.92a1.66,1.66,0,0,0,.36,1.12,1.43,1.43,0,0,0,1.06.33,3.26,3.26,0,0,0,.68-.09,5.9,5.9,0,0,0,.8-.21v1a2.88,2.88,0,0,1-.83.31,4.77,4.77,0,0,1-1,.11c-1.72,0-2.58-1-2.58-2.95a3.37,3.37,0,0,1,.63-2.2,2.24,2.24,0,0,1,1.83-.76c1.36,0,2.05.76,2.05,2.29a4.32,4.32,0,0,1-.12,1Zm.91-2.32c-.58,0-.88.46-.91,1.37h1.61v-.25a1.68,1.68,0,0,0-.17-.86A.59.59,0,0,0,25.24,115.6Z" style="fill:#232f3e"/><path d="M28.47,122.61v-7.89h1.35l.12.48a2.46,2.46,0,0,1,.71-.45,2.07,2.07,0,0,1,.78-.17,1.76,1.76,0,0,1,1.52.74,4.67,4.67,0,0,1,0,4.34,1.74,1.74,0,0,1-1.51.78,2.13,2.13,0,0,1-.69-.12,2,2,0,0,1-.6-.35v2.64Zm2.42-6.91a1.27,1.27,0,0,0-.77.25v3.11a1.42,1.42,0,0,0,.78.26.73.73,0,0,0,.71-.42,3.22,3.22,0,0,0,.21-1.37,3.34,3.34,0,0,0-.21-1.41A.74.74,0,0,0,30.89,115.7Z" style="fill:#232f3e"/><path d="M36.84,120.49a2.29,2.29,0,0,1-1.84-.77,4,4,0,0,1,0-4.37,2.6,2.6,0,0,1,3.69,0,4,4,0,0,1,0,4.37A2.31,2.31,0,0,1,36.84,120.49Zm0-1.15a.67.67,0,0,0,.65-.43,4.79,4.79,0,0,0,0-2.74.67.67,0,0,0-.65-.44.66.66,0,0,0-.64.44,4.79,4.79,0,0,0,0,2.74A.66.66,0,0,0,36.84,119.34Z" style="fill:#232f3e"/><path d="M40.49,120.35v-5.63h1.35l.18.73a2.5,2.5,0,0,1,.72-.59,1.55,1.55,0,0,1,.75-.19,2.56,2.56,0,0,1,.39,0V116a5,5,0,0,0-.64,0,2.47,2.47,0,0,0-1.1.26v4.11Z" style="fill:#232f3e"/><path d="M48.14,120.2a3.47,3.47,0,0,1-1.23.22,1.47,1.47,0,0,1-1.72-1.7v-2.9h-.73v-.92l.78-.15.24-1.54h1.36v1.51h1.28v1.1H46.84v2.77a.73.73,0,0,0,.15.52.67.67,0,0,0,.53.16,2.85,2.85,0,0,0,.62-.08Z" style="fill:#232f3e"/><path d="M49.89,113.81a1,1,0,0,1-.71-.22.76.76,0,0,1-.27-.61.75.75,0,0,1,.27-.61,1.2,1.2,0,0,1,1.41,0,.77.77,0,0,1,.26.61.79.79,0,0,1-.26.61A1,1,0,0,1,49.89,113.81Zm-.83,6.54v-5.63h1.65v5.63Z" style="fill:#232f3e"/><path d="M55.27,120.35v-3.7a1.27,1.27,0,0,0-.14-.7.54.54,0,0,0-.49-.22,1.57,1.57,0,0,0-.82.26v4.36H52.17v-5.63h1.35l.13.51a3.32,3.32,0,0,1,1.84-.65,1.35,1.35,0,0,1,1.07.42,1.83,1.83,0,0,1,.36,1.22v4.13Z" style="fill:#232f3e"/><path d="M61.23,119.71a1.72,1.72,0,0,1-2.66-.21,3.46,3.46,0,0,1-.53-2,3.6,3.6,0,0,1,.54-2.11,1.71,1.71,0,0,1,1.46-.77,1.79,1.79,0,0,1,.71.17,2,2,0,0,1,.63.45l.12-.48h1.35V120c0,1.86-.85,2.79-2.56,2.79a3.86,3.86,0,0,1-1.83-.44v-1a5.45,5.45,0,0,0,1.61.35,1.48,1.48,0,0,0,.7-.13.76.76,0,0,0,.35-.44,3.19,3.19,0,0,0,.11-1Zm-.67-.6a1.32,1.32,0,0,0,.67-.22V116a1.35,1.35,0,0,0-.74-.27.63.63,0,0,0-.6.42,3.23,3.23,0,0,0-.19,1.3,3,3,0,0,0,.21,1.28A.7.7,0,0,0,60.56,119.11Z" style="fill:#232f3e"/></g><g id="ICONS_-_EDIT" data-name="ICONS - EDIT"><path d="M40,62.17,24.32,55.68,17.83,40l6.49-15.68L40,17.83l15.69,6.49L62.17,40,55.68,55.68Zm-14.16-8L40,60l14.15-5.86L60,40,54.15,25.85,40,20,25.85,25.85,20,40Z" style="fill:#fff"/><rect x="51.23" y="43.93" width="2" height="16.66" transform="translate(-21.66 52.24) rotate(-45)" style="fill:#fff"/><rect x="26.71" y="19.38" width="2" height="16.73" transform="translate(-11.5 27.72) rotate(-45)" style="fill:#fff"/><rect x="19.35" y="51.24" width="16.72" height="2" transform="translate(-28.82 34.89) rotate(-45)" style="fill:#fff"/><rect x="43.89" y="26.73" width="16.67" height="2" transform="translate(-4.31 45.05) rotate(-45)" style="fill:#fff"/><path d="M40,47a7,7,0,1,1,7-7A7,7,0,0,1,40,47Zm0-12a5,5,0,1,0,5,5A5,5,0,0,0,40,35Z" style="fill:#fff"/><rect x="39" y="15" width="2" height="4" style="fill:#fff"/><rect x="39" y="61" width="2" height="4" style="fill:#fff"/><rect x="15" y="39" width="4" height="2" style="fill:#fff"/><rect x="61" y="39" width="4" height="2" style="fill:#fff"/></g></svg>