<svg xmlns="http://www.w3.org/2000/svg" width="80" height="115" viewBox="0 0 80 115"><title>architecture-product-card_Amazon_CloudFormation</title><g id="CARDS"><rect x="1" y="1" width="78" height="78" style="fill:#232f3e"/><path d="M0,0V80H0v35H80V80h0V0ZM1,1H79V79H1Z" style="fill:#fff"/></g><g id="TEXT_-_EDIT" data-name="TEXT - EDIT"><path d="M26.66,91.5l-.39-1.65H24.45l-.38,1.65H22.46l2.1-6.93h1.7l2.09,6.93Zm-2-2.65H26L25.35,86Z" style="fill:#232f3e"/><path d="M34.58,91.5V88.13a1.14,1.14,0,0,0-.13-.63.46.46,0,0,0-.42-.2,1.45,1.45,0,0,0-.72.24.37.37,0,0,1,0,.11V91.5h-1.5V88.13a1.14,1.14,0,0,0-.13-.63.46.46,0,0,0-.42-.2,1.45,1.45,0,0,0-.71.24v4h-1.5V86.39h1.23l.12.46a3,3,0,0,1,1.64-.59,1.14,1.14,0,0,1,1.1.61,3,3,0,0,1,1.66-.61,1.18,1.18,0,0,1,.94.38,1.67,1.67,0,0,1,.33,1.11V91.5Z" style="fill:#232f3e"/><path d="M40,91.5,39.86,91a1.38,1.38,0,0,1-.54.42,1.65,1.65,0,0,1-.71.17,1.42,1.42,0,0,1-1.07-.41,1.5,1.5,0,0,1-.4-1.11,1.53,1.53,0,0,1,.48-1.19,1.9,1.9,0,0,1,1.31-.43,3.74,3.74,0,0,1,.84.12v-.46a1.2,1.2,0,0,0-.15-.71.68.68,0,0,0-.55-.18,5.35,5.35,0,0,0-1.61.32v-.91a2.58,2.58,0,0,1,.83-.3,5.35,5.35,0,0,1,1.05-.11,2,2,0,0,1,1.38.39,1.65,1.65,0,0,1,.43,1.27V91.5Zm-.94-.83a1.11,1.11,0,0,0,.72-.32v-1a1.93,1.93,0,0,0-.57-.07.66.66,0,0,0-.49.18.81.81,0,0,0-.17.54.73.73,0,0,0,.14.47A.45.45,0,0,0,39.05,90.67Z" style="fill:#232f3e"/><path d="M42.05,91.5v-1l2.27-3.09H42.14v-1h3.75v1l-2.26,3.09h2.31v1Z" style="fill:#232f3e"/><path d="M48.88,91.63a2,2,0,0,1-1.67-.7,3.63,3.63,0,0,1,0-4,2.35,2.35,0,0,1,3.35,0,3.63,3.63,0,0,1,0,4A2.06,2.06,0,0,1,48.88,91.63Zm0-1a.61.61,0,0,0,.59-.4A3.14,3.14,0,0,0,49.65,89a3.23,3.23,0,0,0-.18-1.25.61.61,0,0,0-.59-.4.6.6,0,0,0-.58.4A3.23,3.23,0,0,0,48.12,89a3.14,3.14,0,0,0,.18,1.24A.6.6,0,0,0,48.88,90.59Z" style="fill:#232f3e"/><path d="M55,91.5V88.14a1.28,1.28,0,0,0-.13-.64.51.51,0,0,0-.45-.2,1.49,1.49,0,0,0-.75.24v4H52.2V86.39h1.23l.12.46a3,3,0,0,1,1.68-.59,1.21,1.21,0,0,1,1,.38,1.59,1.59,0,0,1,.34,1.11V91.5Z" style="fill:#232f3e"/><path d="M10.27,105.3a4.07,4.07,0,0,1-1.62.31q-3.08,0-3.07-3.54a4,4,0,0,1,.8-2.68,2.86,2.86,0,0,1,2.3-.93,4.32,4.32,0,0,1,1.5.27v1.1a5,5,0,0,0-1.32-.21,1.47,1.47,0,0,0-1.27.55,3,3,0,0,0-.4,1.76v.23a3,3,0,0,0,.39,1.73,1.43,1.43,0,0,0,1.25.55,6.22,6.22,0,0,0,1.44-.24Z" style="fill:#232f3e"/><path d="M13.35,105.41a2.41,2.41,0,0,1-.87.15,1.27,1.27,0,0,1-1-.34,1.39,1.39,0,0,1-.32-1V98.1h1.5v6a.65.65,0,0,0,.07.36c0,.07.14.11.29.11l.31,0Z" style="fill:#232f3e"/><path d="M16.19,105.63a2,2,0,0,1-1.67-.7,3.58,3.58,0,0,1,0-4,2,2,0,0,1,1.67-.7,2.08,2.08,0,0,1,1.68.7,3.63,3.63,0,0,1,0,4A2.08,2.08,0,0,1,16.19,105.63Zm0-1a.61.61,0,0,0,.59-.4A3.14,3.14,0,0,0,17,103a3.23,3.23,0,0,0-.18-1.25.61.61,0,0,0-.59-.4.6.6,0,0,0-.58.4,3,3,0,0,0-.19,1.25,2.94,2.94,0,0,0,.19,1.24A.6.6,0,0,0,16.19,104.59Z" style="fill:#232f3e"/><path d="M22.48,105.5l-.12-.46a2.86,2.86,0,0,1-1.62.59,1.12,1.12,0,0,1-.93-.39,1.71,1.71,0,0,1-.32-1.13v-3.72H21v3.29a1.49,1.49,0,0,0,.12.7.42.42,0,0,0,.4.21,1.32,1.32,0,0,0,.69-.23v-4h1.5v5.11Z" style="fill:#232f3e"/><path d="M28,105.5l-.12-.44a1.76,1.76,0,0,1-1.22.53,1.6,1.6,0,0,1-1.38-.69,3.34,3.34,0,0,1-.48-1.93,3.42,3.42,0,0,1,.5-2,1.61,1.61,0,0,1,1.39-.71,1.72,1.72,0,0,1,.58.12,2.22,2.22,0,0,1,.55.3V98.1h1.5v7.4Zm-.84-.93a1.3,1.3,0,0,0,.66-.2v-2.86a1.41,1.41,0,0,0-.72-.23.64.64,0,0,0-.62.39,3.31,3.31,0,0,0-.18,1.27,2.76,2.76,0,0,0,.2,1.24A.7.7,0,0,0,27.11,104.57Z" style="fill:#232f3e"/><path d="M30.66,105.5V98.57h3.95v1.07H32.19v1.87h1.9v1.07h-1.9v2.92Z" style="fill:#232f3e"/><path d="M37.36,105.63a2,2,0,0,1-1.67-.7,3.63,3.63,0,0,1,0-4,2,2,0,0,1,1.67-.7A2.07,2.07,0,0,1,39,101a3.63,3.63,0,0,1,0,4A2.07,2.07,0,0,1,37.36,105.63Zm0-1a.61.61,0,0,0,.59-.4,3.14,3.14,0,0,0,.18-1.24A3.23,3.23,0,0,0,38,101.7a.61.61,0,0,0-.59-.4.6.6,0,0,0-.58.4A3.23,3.23,0,0,0,36.6,103a3.14,3.14,0,0,0,.18,1.24A.6.6,0,0,0,37.36,104.59Z" style="fill:#232f3e"/><path d="M40.68,105.5v-5.11h1.23l.16.66a2.35,2.35,0,0,1,.65-.54,1.53,1.53,0,0,1,.69-.17l.35,0v1.21a4.13,4.13,0,0,0-.58,0,2.2,2.2,0,0,0-1,.24v3.73Z" style="fill:#232f3e"/><path d="M50,105.5v-3.37a1.14,1.14,0,0,0-.13-.63.46.46,0,0,0-.42-.2,1.45,1.45,0,0,0-.72.24s0,.07,0,.11v3.85H47.2v-3.37a1.14,1.14,0,0,0-.13-.63.46.46,0,0,0-.42-.2,1.45,1.45,0,0,0-.71.24v4h-1.5v-5.11h1.22l.12.46a3,3,0,0,1,1.65-.59,1.12,1.12,0,0,1,1.09.61,3,3,0,0,1,1.67-.61,1.18,1.18,0,0,1,.94.38,1.67,1.67,0,0,1,.33,1.11v3.75Z" style="fill:#232f3e"/><path d="M55.37,105.5l-.13-.46a1.45,1.45,0,0,1-.54.42,1.65,1.65,0,0,1-.71.17,1.46,1.46,0,0,1-1.08-.41,1.74,1.74,0,0,1,.09-2.3,1.88,1.88,0,0,1,1.31-.43,3.82,3.82,0,0,1,.84.12v-.46a1.2,1.2,0,0,0-.15-.71.68.68,0,0,0-.55-.18,5.29,5.29,0,0,0-1.61.32v-.91a2.58,2.58,0,0,1,.83-.3,5.19,5.19,0,0,1,1-.11,2,2,0,0,1,1.38.39,1.65,1.65,0,0,1,.43,1.27v3.58Zm-.94-.83a1.11,1.11,0,0,0,.72-.32v-1a1.93,1.93,0,0,0-.57-.07.66.66,0,0,0-.49.18.81.81,0,0,0-.17.54.73.73,0,0,0,.14.47A.43.43,0,0,0,54.43,104.67Z" style="fill:#232f3e"/><path d="M60.56,105.37a3.35,3.35,0,0,1-1.12.2,1.63,1.63,0,0,1-1.19-.37,1.61,1.61,0,0,1-.37-1.18v-2.63h-.67v-.84l.71-.14.22-1.4h1.24v1.38h1.16v1H59.38v2.51a.51.51,0,0,0,.61.62,2.34,2.34,0,0,0,.57-.07Z" style="fill:#232f3e"/><path d="M62.15,99.56a1,1,0,0,1-.65-.21.68.68,0,0,1-.24-.55.71.71,0,0,1,.24-.56,1,1,0,0,1,.65-.2,1,1,0,0,1,.63.2.71.71,0,0,1,.24.56.68.68,0,0,1-.24.55A.92.92,0,0,1,62.15,99.56Zm-.76,5.94v-5.11h1.5v5.11Z" style="fill:#232f3e"/><path d="M66.24,105.63a2,2,0,0,1-1.67-.7,3.63,3.63,0,0,1,0-4,2.35,2.35,0,0,1,3.35,0,3.63,3.63,0,0,1,0,4A2.06,2.06,0,0,1,66.24,105.63Zm0-1a.61.61,0,0,0,.59-.4A3.14,3.14,0,0,0,67,103a3.23,3.23,0,0,0-.18-1.25.61.61,0,0,0-.59-.4.6.6,0,0,0-.58.4,3.23,3.23,0,0,0-.18,1.25,3.14,3.14,0,0,0,.18,1.24A.6.6,0,0,0,66.24,104.59Z" style="fill:#232f3e"/><path d="M72.39,105.5v-3.36a1.28,1.28,0,0,0-.13-.64.51.51,0,0,0-.45-.2,1.49,1.49,0,0,0-.75.24v4h-1.5v-5.11h1.23l.12.46a3,3,0,0,1,1.68-.59,1.25,1.25,0,0,1,1,.38,1.64,1.64,0,0,1,.33,1.11v3.75Z" style="fill:#232f3e"/></g><g id="ICONS_-_EDIT" data-name="ICONS - EDIT"><path d="M43,45.62v-2H57.45c.14,0,5.55-.61,5.55-6.13,0-4.65-3.87-5.81-5.54-6.09a1,1,0,0,1-.82-1.11c0-2-.84-3.45-2.31-3.94a3.23,3.23,0,0,0-3.61,1.16A1,1,0,0,1,49,27.24a11.1,11.1,0,0,0-2.51-4.1,9,9,0,0,0-10.1-2A9.08,9.08,0,0,0,31.81,26L30,25.23a11.07,11.07,0,0,1,5.62-5.92,10.93,10.93,0,0,1,12.29,2.42,12.67,12.67,0,0,1,2.4,3.44A5.19,5.19,0,0,1,55,24.45a5.55,5.55,0,0,1,3.65,5.15c3.22.81,6.39,3.24,6.39,7.89a8,8,0,0,1-7.46,8.12Z" style="fill:#fff"/><path d="M38,61.62H16a1,1,0,0,1-1-1v-32a1,1,0,0,1,1-1H38a1,1,0,0,1,1,1v8H37v-7H17v30H37v-17h2v18A1,1,0,0,1,38,61.62Z" style="fill:#fff"/><rect x="20" y="38.62" width="30" height="2" style="fill:#fff"/><rect x="20" y="33.62" width="8" height="2" style="fill:#fff"/><rect x="20" y="43.62" width="11" height="2" style="fill:#fff"/><rect x="20" y="48.62" width="6.88" height="2" style="fill:#fff"/><rect x="29" y="48.62" width="5" height="2" style="fill:#fff"/><rect x="52" y="38.62" width="4" height="2" style="fill:#fff"/></g></svg>