<svg xmlns="http://www.w3.org/2000/svg" width="80" height="115" viewBox="0 0 80 115"><title>architecture-product-card_AWS_Mobile_Hub</title><g id="CARDS"><rect x="1" y="1" width="78" height="78" style="fill:#232f3e"/><path d="M0,0V80H0v35H80V80h0V0ZM1,1H79V79H1Z" style="fill:#fff"/></g><g id="TEXT_-_EDIT" data-name="TEXT - EDIT"><path d="M33.69,92.35l-.44-1.82h-2l-.42,1.82H29.06l2.31-7.63h1.87l2.3,7.63Zm-2.18-2.92H33l-.76-3.16Z" style="fill:#232f3e"/><path d="M40.89,92.35,40,86.72l-.89,5.63H37.19l-1.78-7.63h1.7l1.06,6.06L39.08,85h1.84l.94,5.65,1-6h1.66l-1.78,7.63Z" style="fill:#232f3e"/><path d="M46.84,89a3.55,3.55,0,0,1-1.27-1,2,2,0,0,1-.39-1.23,2,2,0,0,1,.34-1.17,2.11,2.11,0,0,1,.92-.77,3.18,3.18,0,0,1,1.34-.27,4.85,4.85,0,0,1,1.89.39v1.17A5.44,5.44,0,0,0,48,85.79a1.24,1.24,0,0,0-.79.23.75.75,0,0,0-.29.64.86.86,0,0,0,.18.56,2.32,2.32,0,0,0,.72.48l.65.32a5.12,5.12,0,0,1,1,.62,2,2,0,0,1,.54.69,2.29,2.29,0,0,1,.17.92,2,2,0,0,1-.74,1.65,3.09,3.09,0,0,1-2,.61,5.35,5.35,0,0,1-1.13-.12,3.76,3.76,0,0,1-.95-.32V90.92a7.29,7.29,0,0,0,1,.25,5.33,5.33,0,0,0,1,.11,1.34,1.34,0,0,0,.88-.25.86.86,0,0,0,.3-.71.84.84,0,0,0-.21-.58,2.47,2.47,0,0,0-.71-.47Z" style="fill:#232f3e"/><path d="M19,106.35V101l-1.41,3.46H16.1L14.71,101v5.32H13.2V98.72h1.93L16.85,103l1.72-4.27h1.88v7.63Z" style="fill:#232f3e"/><path d="M24.21,106.49a2.29,2.29,0,0,1-1.84-.77,4,4,0,0,1,0-4.37,2.29,2.29,0,0,1,1.84-.77,2.31,2.31,0,0,1,1.85.77,4,4,0,0,1,0,4.37A2.31,2.31,0,0,1,24.21,106.49Zm0-1.15a.67.67,0,0,0,.65-.43,4.79,4.79,0,0,0,0-2.74.67.67,0,0,0-.65-.44.65.65,0,0,0-.64.44,4.79,4.79,0,0,0,0,2.74A.65.65,0,0,0,24.21,105.34Z" style="fill:#232f3e"/><path d="M27.86,106.35V98.21h1.65v2.9a1.81,1.81,0,0,1,.62-.39,1.9,1.9,0,0,1,.7-.14,1.72,1.72,0,0,1,1.51.73,3.65,3.65,0,0,1,.52,2.15,3.91,3.91,0,0,1-.53,2.2,1.75,1.75,0,0,1-1.53.78,2,2,0,0,1-.77-.16,2,2,0,0,1-.66-.44l-.15.51Zm2.42-4.65a1.27,1.27,0,0,0-.77.25v3.11a1.43,1.43,0,0,0,.79.26.73.73,0,0,0,.7-.42,3.22,3.22,0,0,0,.21-1.37,3.34,3.34,0,0,0-.21-1.41A.74.74,0,0,0,30.28,101.7Z" style="fill:#232f3e"/><path d="M34.87,99.81a1.08,1.08,0,0,1-.71-.22A.79.79,0,0,1,33.9,99a.77.77,0,0,1,.26-.61,1,1,0,0,1,.71-.23,1,1,0,0,1,.7.23.75.75,0,0,1,.27.61.76.76,0,0,1-.27.61A1,1,0,0,1,34.87,99.81ZM34,106.35v-5.63h1.65v5.63Z" style="fill:#232f3e"/><path d="M39.55,106.25a2.7,2.7,0,0,1-1,.16,1.39,1.39,0,0,1-1.07-.37,1.54,1.54,0,0,1-.36-1.12V98.21H38.8v6.54a.75.75,0,0,0,.08.4.36.36,0,0,0,.32.12,2.26,2.26,0,0,0,.35,0Z" style="fill:#232f3e"/><path d="M41.66,103.92A1.66,1.66,0,0,0,42,105a1.43,1.43,0,0,0,1.06.33,3.26,3.26,0,0,0,.68-.09,5.54,5.54,0,0,0,.8-.21v1a2.77,2.77,0,0,1-.83.31,4.77,4.77,0,0,1-1,.11c-1.72,0-2.58-1-2.58-2.95a3.32,3.32,0,0,1,.64-2.2,2.22,2.22,0,0,1,1.82-.76c1.37,0,2.05.76,2.05,2.29a4.32,4.32,0,0,1-.12,1Zm.91-2.32c-.58,0-.88.46-.91,1.37h1.61v-.25a1.68,1.68,0,0,0-.17-.86A.59.59,0,0,0,42.57,101.6Z" style="fill:#232f3e"/><path d="M52.48,106.35v-3.3H50.14v3.3H48.45V98.72h1.69v3.15h2.34V98.72h1.68v7.63Z" style="fill:#232f3e"/><path d="M59,106.35l-.14-.51a3.13,3.13,0,0,1-1.78.65,1.22,1.22,0,0,1-1-.43,1.89,1.89,0,0,1-.35-1.24v-4.1h1.65v3.62a1.61,1.61,0,0,0,.13.77.47.47,0,0,0,.45.23,1.42,1.42,0,0,0,.76-.25v-4.37h1.65v5.63Z" style="fill:#232f3e"/><path d="M61.73,106.35V98.21h1.65v2.9a1.87,1.87,0,0,1,.61-.39,2,2,0,0,1,.7-.14,1.74,1.74,0,0,1,1.52.73,3.65,3.65,0,0,1,.52,2.15,3.82,3.82,0,0,1-.54,2.2,1.73,1.73,0,0,1-1.52.78,2,2,0,0,1-.77-.16,2,2,0,0,1-.67-.44l-.14.51Zm2.42-4.65a1.27,1.27,0,0,0-.77.25v3.11a1.42,1.42,0,0,0,.78.26.73.73,0,0,0,.71-.42,3.22,3.22,0,0,0,.21-1.37,3.34,3.34,0,0,0-.21-1.41A.74.74,0,0,0,64.15,101.7Z" style="fill:#232f3e"/></g><g id="ICONS_-_EDIT" data-name="ICONS - EDIT"><path d="M40,49.56a1,1,0,0,1-.48-.13l-9-4.9a1,1,0,0,1-.52-.88V33.83a1,1,0,0,1,.52-.87l9-4.91a1,1,0,0,1,1,0l9,4.91a1,1,0,0,1,.52.87v9.82a1,1,0,0,1-.52.88l-9,4.9A1,1,0,0,1,40,49.56Zm-8-6.51,8,4.37,8-4.37V34.43l-8-4.37-8,4.37Z" style="fill:#fff"/><rect x="19" y="30.65" width="2" height="10" style="fill:#fff"/><rect x="22.22" y="21.72" width="9.82" height="2" transform="translate(-7.6 15.95) rotate(-28.92)" style="fill:#fff"/><path d="M34.5,23.15a4.5,4.5,0,1,1,4.5-4.5A4.51,4.51,0,0,1,34.5,23.15Zm0-7a2.5,2.5,0,1,0,2.5,2.5A2.5,2.5,0,0,0,34.5,16.15Z" style="fill:#fff"/><path d="M20,31.65a4.5,4.5,0,1,1,4.5-4.5A4.51,4.51,0,0,1,20,31.65Zm0-7a2.5,2.5,0,1,0,2.5,2.5A2.5,2.5,0,0,0,20,24.65Z" style="fill:#fff"/><path d="M20,48.65a4.5,4.5,0,1,1,4.5-4.5A4.51,4.51,0,0,1,20,48.65Zm0-7a2.5,2.5,0,1,0,2.5,2.5A2.5,2.5,0,0,0,20,41.65Z" style="fill:#fff"/><rect x="51.87" y="17.8" width="2" height="9.82" transform="translate(7.42 58.01) rotate(-61.09)" style="fill:#fff"/><rect x="59" y="30.65" width="2" height="10" style="fill:#fff"/><path d="M45.5,23.15a4.5,4.5,0,1,1,4.5-4.5A4.51,4.51,0,0,1,45.5,23.15Zm0-7a2.5,2.5,0,1,0,2.5,2.5A2.5,2.5,0,0,0,45.5,16.15Z" style="fill:#fff"/><path d="M60,31.65a4.5,4.5,0,1,1,4.5-4.5A4.51,4.51,0,0,1,60,31.65Zm0-7a2.5,2.5,0,1,0,2.5,2.5A2.5,2.5,0,0,0,60,24.65Z" style="fill:#fff"/><path d="M60,48.65a4.5,4.5,0,1,1,4.5-4.5A4.51,4.51,0,0,1,60,48.65Zm0-7a2.5,2.5,0,1,0,2.5,2.5A2.5,2.5,0,0,0,60,41.65Z" style="fill:#fff"/><rect x="42.59" y="56.61" width="9.49" height="2" transform="translate(-21.95 30.07) rotate(-28.92)" style="fill:#fff"/><rect x="32.11" y="53.27" width="2" height="8.71" transform="translate(-33.34 56.37) rotate(-59.04)" style="fill:#fff"/><path d="M54.47,58a4.5,4.5,0,1,1,3.18-7.68h0A4.5,4.5,0,0,1,54.47,58Zm0-7a2.5,2.5,0,1,0,1.76.73A2.45,2.45,0,0,0,54.47,51Z" style="fill:#fff"/><path d="M40,65.85a4.5,4.5,0,1,1,3.18-7.68h0A4.5,4.5,0,0,1,40,65.85Zm0-7a2.51,2.51,0,1,0,1.77.74h0A2.5,2.5,0,0,0,40,58.85Z" style="fill:#fff"/><path d="M26.53,57.83a4.43,4.43,0,0,1-3.18-1.32,4.5,4.5,0,0,1,6.37-6.36h0a4.51,4.51,0,0,1,0,6.36A4.44,4.44,0,0,1,26.53,57.83Zm0-7a2.5,2.5,0,0,0-1.76,4.27,2.55,2.55,0,0,0,3.53,0,2.5,2.5,0,0,0-1.77-4.27Z" style="fill:#fff"/></g></svg>