<svg xmlns="http://www.w3.org/2000/svg" width="80" height="130" viewBox="0 0 80 130"><title>architecture-product-card_Amazon_Rekognition_Image</title><g id="CARDS"><rect x="1" y="1" width="78" height="78" style="fill:#232f3e"/><path d="M0,0V80H0v50H80V80h0V0ZM1,1H79V79H1Z" style="fill:#fff"/></g><g id="TEXT_-_EDIT" data-name="TEXT - EDIT"><path d="M25.35,92.35l-.43-1.82h-2l-.42,1.82H20.72L23,84.72H24.9l2.31,7.63Zm-2.18-2.92h1.49l-.76-3.16Z" style="fill:#232f3e"/><path d="M34.06,92.35V88.64a1.32,1.32,0,0,0-.14-.69.5.5,0,0,0-.46-.22,1.56,1.56,0,0,0-.8.26.49.49,0,0,1,0,.12v4.24H31V88.64a1.33,1.33,0,0,0-.13-.69.51.51,0,0,0-.47-.22,1.55,1.55,0,0,0-.78.26v4.36H28V86.72h1.35l.13.51a3.29,3.29,0,0,1,1.81-.65,1.25,1.25,0,0,1,1.2.67,3.38,3.38,0,0,1,1.83-.67,1.3,1.3,0,0,1,1,.42,1.85,1.85,0,0,1,.36,1.22v4.13Z" style="fill:#232f3e"/><path d="M40,92.35l-.14-.51a1.56,1.56,0,0,1-.59.47,1.86,1.86,0,0,1-.79.18A1.57,1.57,0,0,1,37.31,92a1.65,1.65,0,0,1-.43-1.22,1.69,1.69,0,0,1,.53-1.31A2,2,0,0,1,38.84,89a4,4,0,0,1,.93.13v-.51a1.33,1.33,0,0,0-.16-.78.77.77,0,0,0-.61-.2,5.9,5.9,0,0,0-1.77.35V87a3,3,0,0,1,.91-.33,5.64,5.64,0,0,1,1.16-.12,2.19,2.19,0,0,1,1.52.44,1.82,1.82,0,0,1,.47,1.39v3.94Zm-1-.92a1.17,1.17,0,0,0,.79-.35V90a2.33,2.33,0,0,0-.63-.07.66.66,0,0,0-.53.2.81.81,0,0,0-.19.59.82.82,0,0,0,.15.52A.49.49,0,0,0,39,91.43Z" style="fill:#232f3e"/><path d="M42.28,92.35V91.28l2.49-3.4h-2.4V86.72h4.14v1.07L44,91.19h2.54v1.16Z" style="fill:#232f3e"/><path d="M49.79,92.49A2.29,2.29,0,0,1,48,91.72a4,4,0,0,1,0-4.37,2.6,2.6,0,0,1,3.69,0,4,4,0,0,1,0,4.37A2.31,2.31,0,0,1,49.79,92.49Zm0-1.15a.67.67,0,0,0,.65-.43,4.79,4.79,0,0,0,0-2.74.69.69,0,0,0-1.29,0,4.79,4.79,0,0,0,0,2.74A.66.66,0,0,0,49.79,91.34Z" style="fill:#232f3e"/><path d="M56.55,92.35v-3.7a1.36,1.36,0,0,0-.14-.7.55.55,0,0,0-.5-.22,1.62,1.62,0,0,0-.82.26v4.36H53.44V86.72h1.35l.14.51a3.32,3.32,0,0,1,1.84-.65,1.35,1.35,0,0,1,1.07.42,1.83,1.83,0,0,1,.36,1.22v4.13Z" style="fill:#232f3e"/><path d="M15.46,106.35,14,103.52h-.65v2.83H11.71V98.72h2.63a2.43,2.43,0,0,1,1.77.65,2.31,2.31,0,0,1,.66,1.75,2.57,2.57,0,0,1-.33,1.33,2,2,0,0,1-.93.84l1.69,3.06Zm-2.1-4h.78a.87.87,0,0,0,.72-.31,1.57,1.57,0,0,0,.24-.94,1.52,1.52,0,0,0-.24-.93.85.85,0,0,0-.72-.32h-.78Z" style="fill:#232f3e"/><path d="M19.24,103.92A1.66,1.66,0,0,0,19.6,105a1.43,1.43,0,0,0,1.06.33,3.26,3.26,0,0,0,.68-.09,5.9,5.9,0,0,0,.8-.21v1a2.88,2.88,0,0,1-.83.31,4.77,4.77,0,0,1-1,.11c-1.72,0-2.58-1-2.58-2.95a3.37,3.37,0,0,1,.63-2.2,2.24,2.24,0,0,1,1.83-.76c1.36,0,2.05.76,2.05,2.29a4.32,4.32,0,0,1-.12,1Zm.91-2.32c-.58,0-.88.46-.91,1.37h1.61v-.25a1.68,1.68,0,0,0-.17-.86A.59.59,0,0,0,20.15,101.6Z" style="fill:#232f3e"/><path d="M23.38,106.35V98.21H25v5l1.63-2.44h1.84l-2,2.69,2.17,2.94h-1.9L25,103.75v2.6Z" style="fill:#232f3e"/><path d="M31.37,106.49a2.31,2.31,0,0,1-1.85-.77,4,4,0,0,1,0-4.37,2.6,2.6,0,0,1,3.69,0,4,4,0,0,1,0,4.37A2.29,2.29,0,0,1,31.37,106.49Zm0-1.15a.66.66,0,0,0,.64-.43,4.79,4.79,0,0,0,0-2.74.66.66,0,0,0-.64-.44.67.67,0,0,0-.65.44,4.79,4.79,0,0,0,0,2.74A.67.67,0,0,0,31.37,105.34Z" style="fill:#232f3e"/><path d="M37.92,105.71a1.65,1.65,0,0,1-1.22.53,1.68,1.68,0,0,1-1.44-.74,3.54,3.54,0,0,1-.52-2,3.6,3.6,0,0,1,.54-2.11,1.68,1.68,0,0,1,1.46-.77,1.83,1.83,0,0,1,.71.17,2,2,0,0,1,.63.45l.12-.48h1.35V106c0,1.86-.86,2.79-2.57,2.79a3.92,3.92,0,0,1-1.83-.44v-1a5.45,5.45,0,0,0,1.61.35,1.45,1.45,0,0,0,.7-.13.72.72,0,0,0,.35-.44,3.19,3.19,0,0,0,.11-1Zm-.66-.6a1.26,1.26,0,0,0,.66-.22V102a1.32,1.32,0,0,0-.73-.27.64.64,0,0,0-.61.42,3.42,3.42,0,0,0-.19,1.3,3,3,0,0,0,.21,1.28A.7.7,0,0,0,37.26,105.11Z" style="fill:#232f3e"/><path d="M44.08,106.35v-3.7a1.25,1.25,0,0,0-.15-.7.53.53,0,0,0-.49-.22,1.59,1.59,0,0,0-.82.26v4.36H41v-5.63h1.35l.13.51a3.35,3.35,0,0,1,1.84-.65,1.34,1.34,0,0,1,1.07.42,1.83,1.83,0,0,1,.37,1.22v4.13Z" style="fill:#232f3e"/><path d="M48,99.81a1.08,1.08,0,0,1-.71-.22A.75.75,0,0,1,47,99a.74.74,0,0,1,.26-.61,1,1,0,0,1,.71-.23,1,1,0,0,1,.7.23A.75.75,0,0,1,49,99a.76.76,0,0,1-.27.61A1,1,0,0,1,48,99.81Zm-.83,6.54v-5.63h1.65v5.63Z" style="fill:#232f3e"/><path d="M53.31,106.2a3.55,3.55,0,0,1-1.23.22,1.83,1.83,0,0,1-1.32-.4,1.81,1.81,0,0,1-.41-1.3v-2.9h-.73v-.92l.78-.15.24-1.54H52v1.51h1.28v1.1H52v2.77a.73.73,0,0,0,.15.52.69.69,0,0,0,.53.16,3,3,0,0,0,.63-.08Z" style="fill:#232f3e"/><path d="M55.05,99.81a1.06,1.06,0,0,1-.71-.22.75.75,0,0,1-.26-.61.74.74,0,0,1,.26-.61,1.2,1.2,0,0,1,1.41,0A.75.75,0,0,1,56,99a.76.76,0,0,1-.27.61A1,1,0,0,1,55.05,99.81Zm-.83,6.54v-5.63h1.65v5.63Z" style="fill:#232f3e"/><path d="M59.56,106.49a2.31,2.31,0,0,1-1.85-.77,4,4,0,0,1,0-4.37,2.6,2.6,0,0,1,3.69,0,4,4,0,0,1,0,4.37A2.29,2.29,0,0,1,59.56,106.49Zm0-1.15a.66.66,0,0,0,.64-.43,4.79,4.79,0,0,0,0-2.74.66.66,0,0,0-.64-.44.67.67,0,0,0-.65.44,4.79,4.79,0,0,0,0,2.74A.67.67,0,0,0,59.56,105.34Z" style="fill:#232f3e"/><path d="M66.32,106.35v-3.7a1.25,1.25,0,0,0-.15-.7.53.53,0,0,0-.49-.22,1.59,1.59,0,0,0-.82.26v4.36H63.21v-5.63h1.35l.13.51a3.35,3.35,0,0,1,1.84-.65,1.35,1.35,0,0,1,1.07.42,1.83,1.83,0,0,1,.37,1.22v4.13Z" style="fill:#232f3e"/><path d="M25.92,120.35v-7.63h1.69v7.63Z" style="fill:#232f3e"/><path d="M35.26,120.35v-3.71a1.32,1.32,0,0,0-.14-.69.5.5,0,0,0-.46-.22,1.56,1.56,0,0,0-.8.26.49.49,0,0,1,0,.12v4.24H32.22v-3.71a1.23,1.23,0,0,0-.14-.69.49.49,0,0,0-.46-.22,1.53,1.53,0,0,0-.78.26v4.36H29.19v-5.63h1.35l.13.51a3.29,3.29,0,0,1,1.81-.65,1.25,1.25,0,0,1,1.2.67,3.38,3.38,0,0,1,1.83-.67,1.3,1.3,0,0,1,1,.42,1.85,1.85,0,0,1,.36,1.22v4.13Z" style="fill:#232f3e"/><path d="M41.21,120.35l-.14-.51a1.56,1.56,0,0,1-.59.47,1.86,1.86,0,0,1-.79.18,1.57,1.57,0,0,1-1.18-.45,1.91,1.91,0,0,1,.1-2.53A2,2,0,0,1,40,117a4,4,0,0,1,.93.13v-.51a1.33,1.33,0,0,0-.16-.78.77.77,0,0,0-.61-.2,5.9,5.9,0,0,0-1.77.35v-1a3,3,0,0,1,.91-.33,5.64,5.64,0,0,1,1.16-.12A2.19,2.19,0,0,1,42,115a1.82,1.82,0,0,1,.47,1.39v3.94Zm-1-.92a1.17,1.17,0,0,0,.8-.35V118a2.38,2.38,0,0,0-.63-.07.66.66,0,0,0-.53.2.81.81,0,0,0-.19.59.82.82,0,0,0,.15.52A.48.48,0,0,0,40.17,119.43Z" style="fill:#232f3e"/><path d="M46.79,119.71a1.72,1.72,0,0,1-2.66-.21,3.46,3.46,0,0,1-.52-2,3.68,3.68,0,0,1,.53-2.11,1.71,1.71,0,0,1,1.47-.77,1.75,1.75,0,0,1,.7.17,1.89,1.89,0,0,1,.64.45l.12-.48h1.35V120c0,1.86-.86,2.79-2.57,2.79A3.92,3.92,0,0,1,44,122.3v-1a5.45,5.45,0,0,0,1.61.35,1.45,1.45,0,0,0,.7-.13.72.72,0,0,0,.35-.44,3.19,3.19,0,0,0,.11-1Zm-.66-.6a1.26,1.26,0,0,0,.66-.22V116a1.35,1.35,0,0,0-.74-.27.63.63,0,0,0-.6.42,3.23,3.23,0,0,0-.19,1.3,3,3,0,0,0,.21,1.28A.7.7,0,0,0,46.13,119.11Z" style="fill:#232f3e"/><path d="M51.05,117.92a1.71,1.71,0,0,0,.37,1.12,1.43,1.43,0,0,0,1.06.33,3.26,3.26,0,0,0,.68-.09,6.31,6.31,0,0,0,.8-.21v1a2.88,2.88,0,0,1-.83.31,4.77,4.77,0,0,1-1,.11c-1.72,0-2.58-1-2.58-2.95a3.37,3.37,0,0,1,.63-2.2,2.23,2.23,0,0,1,1.83-.76c1.36,0,2,.76,2,2.29a4.32,4.32,0,0,1-.12,1ZM52,115.6c-.58,0-.88.46-.92,1.37h1.62v-.25a1.68,1.68,0,0,0-.17-.86A.59.59,0,0,0,52,115.6Z" style="fill:#232f3e"/></g><g id="ICONS_-_EDIT" data-name="ICONS - EDIT"><path d="M42,61a22.84,22.84,0,0,1-10.25-2.4l.89-1.8A20.75,20.75,0,0,0,42,59a21,21,0,0,0,0-42,20.67,20.67,0,0,0-8.36,1.74l-.8-1.84A23,23,0,1,1,42,61Z" style="fill:#fff"/><path d="M49.08,47H34.91A1.92,1.92,0,0,1,33,45.09V30.91A1.92,1.92,0,0,1,34.91,29H49.08A1.91,1.91,0,0,1,51,30.91V45.09A1.91,1.91,0,0,1,49.08,47ZM35,45H49V31H35Z" style="fill:#fff"/><path d="M34.74,45.56l-1.49-1.33,6.88-7.7a1.58,1.58,0,0,1,1.1-.49,1.46,1.46,0,0,1,1.1.53L45.11,40l4.14-4.56,1.49,1.34-4.57,5a1.39,1.39,0,0,1-1.09.49A1.49,1.49,0,0,1,44,41.73L41.2,38.34Zm9.95-5.13,0,0Zm-3-2.58h0Z" style="fill:#fff"/><circle cx="45.49" cy="33.5" r="1.5" style="fill:#232f3e"/><path d="M45.49,35.5a2,2,0,1,1,2-2A2,2,0,0,1,45.49,35.5Zm0-3a1,1,0,1,0,1,1A1,1,0,0,0,45.49,32.5Z" style="fill:#fff"/><path d="M21.41,48.24a23,23,0,0,1,.53-21.49l1.75,1A20.94,20.94,0,0,0,21,38a20.51,20.51,0,0,0,2.2,9.34Z" style="fill:#fff"/><path d="M42,55A17,17,0,1,1,59,38,17,17,0,0,1,42,55Zm0-32A15,15,0,1,0,57,38,15,15,0,0,0,42,23Z" style="fill:#fff"/><path d="M20,65a5,5,0,0,1-3.53-8.54L27.51,45.41l1.41,1.42-11,11.05a3,3,0,0,0,4.25,4.24l11.05-11,1.41,1.42-11,11A5,5,0,0,1,20,65Z" style="fill:#fff"/></g></svg>