<svg xmlns="http://www.w3.org/2000/svg" width="80" height="115" viewBox="0 0 80 115"><title>architecture-product-card_AWS_PrivateLink</title><g id="CARDS"><rect x="1" y="1" width="78" height="78" style="fill:#232f3e"/><path d="M0,0V80H0v35H80V80h0V0ZM1,1H79V79H1Z" style="fill:#fff"/></g><g id="TEXT_-_EDIT" data-name="TEXT - EDIT"><path d="M33.69,92.35l-.44-1.82h-2l-.42,1.82H29.06l2.31-7.63h1.87l2.3,7.63Zm-2.18-2.92H33l-.76-3.16Z" style="fill:#232f3e"/><path d="M40.89,92.35,40,86.72l-.89,5.63H37.19l-1.78-7.63h1.7l1.06,6.06L39.08,85h1.84l.94,5.65,1-6h1.66l-1.78,7.63Z" style="fill:#232f3e"/><path d="M46.84,89a3.55,3.55,0,0,1-1.27-1,2,2,0,0,1-.39-1.23,2,2,0,0,1,.34-1.17,2.11,2.11,0,0,1,.92-.77,3.18,3.18,0,0,1,1.34-.27,4.85,4.85,0,0,1,1.89.39v1.17A5.44,5.44,0,0,0,48,85.79a1.24,1.24,0,0,0-.79.23.75.75,0,0,0-.29.64.86.86,0,0,0,.18.56,2.32,2.32,0,0,0,.72.48l.65.32a5.12,5.12,0,0,1,1,.62,2,2,0,0,1,.54.69,2.29,2.29,0,0,1,.17.92,2,2,0,0,1-.74,1.65,3.09,3.09,0,0,1-2,.61,5.35,5.35,0,0,1-1.13-.12,3.76,3.76,0,0,1-.95-.32V90.92a7.29,7.29,0,0,0,1,.25,5.33,5.33,0,0,0,1,.11,1.34,1.34,0,0,0,.88-.25.86.86,0,0,0,.3-.71.84.84,0,0,0-.21-.58,2.47,2.47,0,0,0-.71-.47Z" style="fill:#232f3e"/><path d="M15,103.52v2.83H13.3V98.72h2.64a2.43,2.43,0,0,1,1.77.65,2.68,2.68,0,0,1,0,3.5,2.43,2.43,0,0,1-1.77.65Zm0-1.15h.79a.84.84,0,0,0,.71-.31,1.5,1.5,0,0,0,.25-.94,1.45,1.45,0,0,0-.25-.93.82.82,0,0,0-.71-.32H15Z" style="fill:#232f3e"/><path d="M19.58,106.35v-5.63h1.35l.18.73a2.5,2.5,0,0,1,.72-.59,1.49,1.49,0,0,1,.75-.19,2.56,2.56,0,0,1,.39,0V102a5,5,0,0,0-.64,0,2.47,2.47,0,0,0-1.1.26v4.11Z" style="fill:#232f3e"/><path d="M24.58,99.81a1,1,0,0,1-.71-.22A.76.76,0,0,1,23.6,99a.75.75,0,0,1,.27-.61,1.2,1.2,0,0,1,1.41,0,.77.77,0,0,1,.26.61.79.79,0,0,1-.26.61A1,1,0,0,1,24.58,99.81Zm-.83,6.54v-5.63H25.4v5.63Z" style="fill:#232f3e"/><path d="M28.05,106.35l-1.86-5.63h1.75l.89,4,.92-4h1.7l-1.85,5.63Z" style="fill:#232f3e"/><path d="M35.11,106.35l-.15-.51a1.42,1.42,0,0,1-.59.47,1.81,1.81,0,0,1-.78.18,1.56,1.56,0,0,1-1.18-.45,1.91,1.91,0,0,1,.1-2.53,2,2,0,0,1,1.43-.47,4,4,0,0,1,.93.13v-.51a1.32,1.32,0,0,0-.17-.78.74.74,0,0,0-.6-.2,5.9,5.9,0,0,0-1.78.35v-1a3.07,3.07,0,0,1,.92-.33,5.57,5.57,0,0,1,1.16-.12,2.21,2.21,0,0,1,1.52.44,1.82,1.82,0,0,1,.47,1.39v3.94Zm-1-.92a1.19,1.19,0,0,0,.8-.35V104a2.38,2.38,0,0,0-.63-.07.69.69,0,0,0-.54.2.85.85,0,0,0-.18.59.82.82,0,0,0,.15.52A.47.47,0,0,0,34.07,105.43Z" style="fill:#232f3e"/><path d="M40.82,106.2a3.47,3.47,0,0,1-1.23.22,1.8,1.8,0,0,1-1.31-.4,1.77,1.77,0,0,1-.41-1.3v-2.9h-.74v-.92l.79-.15.24-1.54h1.36v1.51h1.27v1.1H39.52v2.77a.79.79,0,0,0,.14.52.7.7,0,0,0,.53.16,2.94,2.94,0,0,0,.63-.08Z" style="fill:#232f3e"/><path d="M42.91,103.92a1.71,1.71,0,0,0,.37,1.12,1.43,1.43,0,0,0,1.06.33,3.26,3.26,0,0,0,.68-.09,5.9,5.9,0,0,0,.8-.21v1a2.88,2.88,0,0,1-.83.31,4.77,4.77,0,0,1-1,.11c-1.72,0-2.58-1-2.58-2.95a3.37,3.37,0,0,1,.63-2.2,2.24,2.24,0,0,1,1.83-.76c1.36,0,2,.76,2,2.29a4.32,4.32,0,0,1-.12,1Zm.92-2.32c-.58,0-.88.46-.92,1.37h1.62v-.25a1.68,1.68,0,0,0-.17-.86A.59.59,0,0,0,43.83,101.6Z" style="fill:#232f3e"/><path d="M47.17,106.35V98.72h1.68v6.4H51.7v1.23Z" style="fill:#232f3e"/><path d="M53.34,99.81a1.09,1.09,0,0,1-.72-.22.79.79,0,0,1-.26-.61.77.77,0,0,1,.26-.61,1,1,0,0,1,.72-.23,1,1,0,0,1,.69.23.75.75,0,0,1,.27.61.76.76,0,0,1-.27.61A1,1,0,0,1,53.34,99.81Zm-.84,6.54v-5.63h1.65v5.63Z" style="fill:#232f3e"/><path d="M58.72,106.35v-3.7a1.36,1.36,0,0,0-.14-.7.56.56,0,0,0-.5-.22,1.59,1.59,0,0,0-.82.26v4.36H55.61v-5.63H57l.13.51a3.38,3.38,0,0,1,1.85-.65A1.33,1.33,0,0,1,60,101a1.78,1.78,0,0,1,.37,1.22v4.13Z" style="fill:#232f3e"/><path d="M61.77,106.35V98.21H63.4v5L65,100.72h1.83l-2,2.69,2.17,2.94H65.15l-1.75-2.6v2.6Z" style="fill:#232f3e"/></g><g id="ICONS_-_EDIT" data-name="ICONS - EDIT"><path d="M48.38,49.78H44v-2h4.38a4,4,0,0,0,2.82-1.17A3.84,3.84,0,0,0,52,43.78a3.7,3.7,0,0,0-3.6-4h-7.5a3.7,3.7,0,0,0-1,.13A4,4,0,0,0,37,42.75a3.94,3.94,0,0,0,.26,2.77l-1.8.88a5.92,5.92,0,0,1-.6-2.62,6.06,6.06,0,0,1,.21-1.56A6,6,0,0,1,39.34,38a5.74,5.74,0,0,1,1.54-.2h7.49a5.7,5.7,0,0,1,5.61,6A5.68,5.68,0,0,1,52.61,48,5.92,5.92,0,0,1,48.38,49.78Z" style="fill:#fff"/><path d="M37.53,51.78H30a6,6,0,0,1,0-12h4v2H30a4,4,0,1,0,0,8H37.5a4.07,4.07,0,0,0,2.1-.6,3.29,3.29,0,0,0,.72-.57,3.93,3.93,0,0,0,1.18-2.83c0-.13,0-.25,0-.37A4,4,0,0,0,40,42.64l1.23-1.57a6,6,0,0,1,2.27,4.13,5.35,5.35,0,0,1,0,.58A5.93,5.93,0,0,1,41.74,50a5.44,5.44,0,0,1-1.09.85A5.79,5.79,0,0,1,37.53,51.78Z" style="fill:#fff"/><path d="M55.36,55.78H24.64c-5.3,0-9.35-3.53-9.62-8.38,0-.22,0-.44,0-.66a8.92,8.92,0,0,1,6.53-9c0-.24,0-.48,0-.73a13.18,13.18,0,0,1,22.6-8.91,14.57,14.57,0,0,1,3,4.28,5.9,5.9,0,0,1,5.41-1c2.51.76,4.19,3,4.59,6.15C62.21,38.82,65,42.08,65,46.81,65,52.6,61.58,55.78,55.36,55.78ZM22.76,39.51c-2.18.56-5.76,2.24-5.76,7.23,0,.18,0,.37,0,.54.21,3.76,3.42,6.5,7.62,6.5H55.36c5.07,0,7.64-2.34,7.64-7,0-4-2.35-6.52-7-7.45a1,1,0,0,1-.8-.92c-.16-2.68-1.35-4.54-3.25-5.12a4,4,0,0,0-4.39,1.49,1,1,0,0,1-.94.38,1,1,0,0,1-.79-.65,13.14,13.14,0,0,0-3.12-4.95,11.17,11.17,0,0,0-19.21,7.47,10.19,10.19,0,0,0,.08,1.35A1,1,0,0,1,22.76,39.51Z" style="fill:#fff"/></g></svg>