<svg xmlns="http://www.w3.org/2000/svg" width="80" height="115" viewBox="0 0 80 115"><title>architecture-product-card_Amazon_Connect</title><g id="CARDS"><rect x="1" y="1" width="78" height="78" style="fill:#232f3e"/><path d="M0,0V80H0v35H80V80h0V0ZM1,1H79V79H1Z" style="fill:#fff"/></g><g id="TEXT_-_EDIT" data-name="TEXT - EDIT"><path d="M25.35,92.35l-.43-1.82h-2l-.42,1.82H20.72L23,84.72H24.9l2.31,7.63Zm-2.18-2.92h1.49l-.76-3.16Z" style="fill:#232f3e"/><path d="M34.06,92.35V88.64a1.32,1.32,0,0,0-.14-.69.49.49,0,0,0-.46-.22,1.59,1.59,0,0,0-.8.26.5.5,0,0,1,0,.12v4.24H31V88.64a1.33,1.33,0,0,0-.13-.69.51.51,0,0,0-.47-.22,1.55,1.55,0,0,0-.78.26v4.36H28V86.72h1.35l.13.51a3.31,3.31,0,0,1,1.81-.65,1.25,1.25,0,0,1,1.2.67,3.38,3.38,0,0,1,1.83-.67,1.3,1.3,0,0,1,1,.42,1.85,1.85,0,0,1,.36,1.22v4.13Z" style="fill:#232f3e"/><path d="M40,92.35l-.14-.51a1.56,1.56,0,0,1-.59.47,1.86,1.86,0,0,1-.79.18A1.57,1.57,0,0,1,37.31,92a1.65,1.65,0,0,1-.43-1.22,1.69,1.69,0,0,1,.53-1.31A2,2,0,0,1,38.84,89a4,4,0,0,1,.93.13v-.51a1.33,1.33,0,0,0-.16-.78.77.77,0,0,0-.61-.2,5.9,5.9,0,0,0-1.77.35V87a3,3,0,0,1,.92-.33,5.47,5.47,0,0,1,1.15-.12,2.19,2.19,0,0,1,1.52.44,1.82,1.82,0,0,1,.47,1.39v3.94Zm-1-.92a1.17,1.17,0,0,0,.79-.35V90a2.3,2.3,0,0,0-.62-.07.67.67,0,0,0-.54.2.81.81,0,0,0-.19.59.82.82,0,0,0,.15.52A.49.49,0,0,0,39,91.43Z" style="fill:#232f3e"/><path d="M42.28,92.35V91.28l2.49-3.4h-2.4V86.72h4.14v1.07L44,91.19h2.54v1.16Z" style="fill:#232f3e"/><path d="M49.79,92.49A2.3,2.3,0,0,1,48,91.72a4,4,0,0,1,0-4.37,2.6,2.6,0,0,1,3.69,0,4,4,0,0,1,0,4.37A2.31,2.31,0,0,1,49.79,92.49Zm0-1.15a.67.67,0,0,0,.65-.43,4.79,4.79,0,0,0,0-2.74.69.69,0,0,0-1.29,0,4.79,4.79,0,0,0,0,2.74A.66.66,0,0,0,49.79,91.34Z" style="fill:#232f3e"/><path d="M56.55,92.35v-3.7a1.36,1.36,0,0,0-.14-.7.55.55,0,0,0-.5-.22,1.56,1.56,0,0,0-.81.26v4.36H53.44V86.72h1.35l.14.51a3.32,3.32,0,0,1,1.84-.65,1.35,1.35,0,0,1,1.07.42,1.83,1.83,0,0,1,.36,1.22v4.13Z" style="fill:#232f3e"/><path d="M26.31,106.13a4.64,4.64,0,0,1-1.79.34c-2.24,0-3.37-1.3-3.37-3.9A4.4,4.4,0,0,1,22,99.62a3.16,3.16,0,0,1,2.53-1,4.72,4.72,0,0,1,1.65.3v1.21a5.61,5.61,0,0,0-1.44-.23,1.61,1.61,0,0,0-1.4.61,3.29,3.29,0,0,0-.45,1.93v.25a3.26,3.26,0,0,0,.44,1.9,1.55,1.55,0,0,0,1.37.61,7.12,7.12,0,0,0,1.58-.26Z" style="fill:#232f3e"/><path d="M29.54,106.49a2.31,2.31,0,0,1-1.85-.77,4,4,0,0,1,0-4.37,2.6,2.6,0,0,1,3.69,0,4,4,0,0,1,0,4.37A2.29,2.29,0,0,1,29.54,106.49Zm0-1.15a.66.66,0,0,0,.64-.43,4.79,4.79,0,0,0,0-2.74.69.69,0,0,0-1.29,0,4.79,4.79,0,0,0,0,2.74A.67.67,0,0,0,29.54,105.34Z" style="fill:#232f3e"/><path d="M36.3,106.35v-3.7a1.25,1.25,0,0,0-.15-.7.54.54,0,0,0-.49-.22,1.57,1.57,0,0,0-.82.26v4.36H33.19v-5.63h1.35l.13.51a3.35,3.35,0,0,1,1.84-.65,1.35,1.35,0,0,1,1.07.42,1.83,1.83,0,0,1,.37,1.22v4.13Z" style="fill:#232f3e"/><path d="M42.45,106.35v-3.7a1.36,1.36,0,0,0-.14-.7.55.55,0,0,0-.5-.22A1.59,1.59,0,0,0,41,102v4.36H39.34v-5.63h1.35l.13.51a3.38,3.38,0,0,1,1.85-.65,1.33,1.33,0,0,1,1.06.42,1.78,1.78,0,0,1,.37,1.22v4.13Z" style="fill:#232f3e"/><path d="M46.72,103.92a1.66,1.66,0,0,0,.36,1.12,1.43,1.43,0,0,0,1.06.33,3.26,3.26,0,0,0,.68-.09,5.9,5.9,0,0,0,.8-.21v1a2.77,2.77,0,0,1-.83.31,4.77,4.77,0,0,1-1,.11c-1.72,0-2.58-1-2.58-2.95a3.37,3.37,0,0,1,.63-2.2,2.26,2.26,0,0,1,1.83-.76c1.37,0,2,.76,2,2.29a4.32,4.32,0,0,1-.12,1Zm.91-2.32c-.58,0-.88.46-.91,1.37h1.61v-.25a1.68,1.68,0,0,0-.17-.86A.59.59,0,0,0,47.63,101.6Z" style="fill:#232f3e"/><path d="M54.5,106.09a2,2,0,0,1-.64.26,3.59,3.59,0,0,1-.81.09,2.28,2.28,0,0,1-1.84-.73,3.91,3.91,0,0,1,0-4.32,2.36,2.36,0,0,1,1.88-.76,2.93,2.93,0,0,1,1.35.33v1a3.14,3.14,0,0,0-1-.19,1.05,1.05,0,0,0-.93.4,2.28,2.28,0,0,0-.29,1.29v.16a2.31,2.31,0,0,0,.28,1.28,1,1,0,0,0,.9.4,3.27,3.27,0,0,0,1.09-.21Z" style="fill:#232f3e"/><path d="M58.82,106.2a3.46,3.46,0,0,1-1.22.22,1.83,1.83,0,0,1-1.32-.4,1.81,1.81,0,0,1-.41-1.3v-2.9h-.73v-.92l.78-.15.24-1.54h1.36v1.51H58.8v1.1H57.52v2.77a.73.73,0,0,0,.15.52.67.67,0,0,0,.53.16,2.85,2.85,0,0,0,.62-.08Z" style="fill:#232f3e"/></g><g id="ICONS_-_EDIT" data-name="ICONS - EDIT"><path d="M33,63a1,1,0,0,1-.45-.11A1,1,0,0,1,32,62V52H23a5.8,5.8,0,0,1-3.13-.81A10.21,10.21,0,0,1,15,42.26,9.13,9.13,0,0,1,21.55,33l0-.72c0-5.08,3.36-10.3,7.82-12.18a13.08,13.08,0,0,1,14.79,2.94,14.77,14.77,0,0,1,3,4.42,6.13,6.13,0,0,1,5.71-1c2.55.84,4.15,3.18,4.36,6.34,2.57.63,7.8,2.74,7.8,9.53,0,8.9-8.84,9.66-8.93,9.66H48.33L33.59,62.8A1,1,0,0,1,33,63Zm1.71-42a11.62,11.62,0,0,0-4.6,1,11.79,11.79,0,0,0-6.6,10.28l.08,1.45a1,1,0,0,1-.75,1A7.27,7.27,0,0,0,17,42.26a8.16,8.16,0,0,0,3.93,7.24A3.94,3.94,0,0,0,23,50H33a1,1,0,0,1,1,1v9l13.41-9.83A1,1,0,0,1,48,50h8c.21,0,7-.64,7-7.67,0-5.9-4.87-7.37-7-7.73a1,1,0,0,1-.81-1.14c0-2.59-1.1-4.47-3-5.1a4.18,4.18,0,0,0-4.64,1.52,1,1,0,0,1-.95.4,1,1,0,0,1-.8-.66,13.52,13.52,0,0,0-3.12-5.14A11.52,11.52,0,0,0,34.71,21Z" style="fill:#fff"/><rect x="27.16" y="38.02" width="7.72" height="2" transform="translate(-18.48 33.17) rotate(-44.78)" style="fill:#fff"/><rect x="37.96" y="35.99" width="2" height="8.05" transform="translate(-15.57 27.95) rotate(-33.29)" style="fill:#fff"/><rect x="43" y="40.01" width="7.05" height="2" transform="translate(-15 48.81) rotate(-48.62)" style="fill:#fff"/><path d="M26.5,47A3.5,3.5,0,1,1,30,43.5,3.5,3.5,0,0,1,26.5,47Zm0-5A1.5,1.5,0,1,0,28,43.5,1.5,1.5,0,0,0,26.5,42Z" style="fill:#fff"/><path d="M35.5,38A3.5,3.5,0,1,1,39,34.5,3.5,3.5,0,0,1,35.5,38Zm0-5A1.5,1.5,0,1,0,37,34.5,1.5,1.5,0,0,0,35.5,33Z" style="fill:#fff"/><path d="M42.5,49A3.5,3.5,0,1,1,46,45.5,3.5,3.5,0,0,1,42.5,49Zm0-5A1.5,1.5,0,1,0,44,45.5,1.5,1.5,0,0,0,42.5,44Z" style="fill:#fff"/><path d="M50.5,40A3.5,3.5,0,1,1,54,36.5,3.5,3.5,0,0,1,50.5,40Zm0-5A1.5,1.5,0,1,0,52,36.5,1.5,1.5,0,0,0,50.5,35Z" style="fill:#fff"/></g></svg>