<svg xmlns="http://www.w3.org/2000/svg" width="80" height="115" viewBox="0 0 80 115"><title>architecture-product-card_AWS_Cost_and_Usage_Report</title><g id="CARDS"><rect x="1" y="1" width="78" height="78" style="fill:#232f3e"/><path d="M0,0V80H0v35H80V80h0V0ZM1,1H79V79H1Z" style="fill:#fff"/></g><g id="TEXT_-_EDIT" data-name="TEXT - EDIT"><path d="M12.09,92.35l-.43-1.82h-2l-.42,1.82H7.47l2.31-7.63h1.87L14,92.35ZM9.91,89.43H11.4l-.75-3.16Z" style="fill:#232f3e"/><path d="M19.3,92.35l-.94-5.63-.9,5.63H15.6l-1.79-7.63h1.7l1.06,6.06L17.49,85h1.83l.94,5.65,1-6H23l-1.79,7.63Z" style="fill:#232f3e"/><path d="M25.25,89A3.6,3.6,0,0,1,24,88a2,2,0,0,1-.39-1.23,2.07,2.07,0,0,1,.34-1.17,2.17,2.17,0,0,1,.92-.77,3.19,3.19,0,0,1,1.35-.27,4.92,4.92,0,0,1,1.89.39v1.17a5.5,5.5,0,0,0-1.72-.33,1.27,1.27,0,0,0-.8.23.78.78,0,0,0-.29.64.81.81,0,0,0,.19.56,2.09,2.09,0,0,0,.72.48l.65.32a5.33,5.33,0,0,1,1,.62,1.86,1.86,0,0,1,.54.69,2.13,2.13,0,0,1,.18.92,2,2,0,0,1-.74,1.65,3.13,3.13,0,0,1-2.05.61,5.5,5.5,0,0,1-1.13-.12,3.9,3.9,0,0,1-.95-.32V90.92a7.45,7.45,0,0,0,1,.25,5.33,5.33,0,0,0,.95.11,1.32,1.32,0,0,0,.88-.25.86.86,0,0,0,.3-.71.84.84,0,0,0-.21-.58,2.4,2.4,0,0,0-.7-.47Z" style="fill:#232f3e"/><path d="M37.26,92.13a4.63,4.63,0,0,1-1.78.34q-3.37,0-3.38-3.9A4.46,4.46,0,0,1,33,85.62a3.16,3.16,0,0,1,2.53-1,4.72,4.72,0,0,1,1.65.3v1.21a5.61,5.61,0,0,0-1.44-.23,1.61,1.61,0,0,0-1.4.61,3.29,3.29,0,0,0-.45,1.93v.25a3.26,3.26,0,0,0,.44,1.9,1.55,1.55,0,0,0,1.37.61,7.12,7.12,0,0,0,1.58-.26Z" style="fill:#232f3e"/><path d="M40.49,92.49a2.27,2.27,0,0,1-1.84-.77,3.95,3.95,0,0,1,0-4.37,2.58,2.58,0,0,1,3.68,0,4,4,0,0,1,0,4.37A2.29,2.29,0,0,1,40.49,92.49Zm0-1.15a.66.66,0,0,0,.64-.43,4.79,4.79,0,0,0,0-2.74.66.66,0,0,0-.64-.44.67.67,0,0,0-.65.44,5,5,0,0,0,0,2.74A.67.67,0,0,0,40.49,91.34Z" style="fill:#232f3e"/><path d="M46.14,90.77c0-.25-.17-.46-.52-.62l-.72-.35a1.69,1.69,0,0,1-1.14-1.59A1.43,1.43,0,0,1,44.32,87a2.26,2.26,0,0,1,1.47-.45,3.57,3.57,0,0,1,1.53.35v1a5.56,5.56,0,0,0-.7-.19,3,3,0,0,0-.6-.07c-.52,0-.77.18-.77.54s.21.45.64.66l.72.34a1.9,1.9,0,0,1,.77.62,1.69,1.69,0,0,1,.24.93A1.56,1.56,0,0,1,47.07,92a2.31,2.31,0,0,1-1.49.46,3.85,3.85,0,0,1-1.82-.44v-1a5.5,5.5,0,0,0,1.62.35.81.81,0,0,0,.56-.17A.57.57,0,0,0,46.14,90.77Z" style="fill:#232f3e"/><path d="M51.58,92.2a3.47,3.47,0,0,1-1.23.22,1.47,1.47,0,0,1-1.72-1.7v-2.9H47.9V86.9l.78-.15.24-1.54h1.36v1.51h1.28v1.1H50.28v2.77a.73.73,0,0,0,.15.52.67.67,0,0,0,.53.16,2.85,2.85,0,0,0,.62-.08Z" style="fill:#232f3e"/><path d="M57.91,92.35l-.15-.51a1.42,1.42,0,0,1-.59.47,1.81,1.81,0,0,1-.78.18A1.56,1.56,0,0,1,55.21,92a1.88,1.88,0,0,1,.1-2.53A2,2,0,0,1,56.74,89a4,4,0,0,1,.93.13v-.51a1.32,1.32,0,0,0-.17-.78.74.74,0,0,0-.6-.2,5.9,5.9,0,0,0-1.78.35V87A3.07,3.07,0,0,1,56,86.7a5.57,5.57,0,0,1,1.16-.12,2.21,2.21,0,0,1,1.52.44,1.82,1.82,0,0,1,.47,1.39v3.94Zm-1-.92a1.19,1.19,0,0,0,.8-.35V90a2.38,2.38,0,0,0-.63-.07.69.69,0,0,0-.54.2.85.85,0,0,0-.18.59.82.82,0,0,0,.15.52A.47.47,0,0,0,56.87,91.43Z" style="fill:#232f3e"/><path d="M63.69,92.35v-3.7a1.36,1.36,0,0,0-.14-.7.56.56,0,0,0-.5-.22,1.59,1.59,0,0,0-.82.26v4.36H60.58V86.72h1.35l.13.51a3.38,3.38,0,0,1,1.85-.65A1.33,1.33,0,0,1,65,87a1.78,1.78,0,0,1,.37,1.22v4.13Z" style="fill:#232f3e"/><path d="M70,92.35l-.13-.49a2.2,2.2,0,0,1-.63.43,1.86,1.86,0,0,1-.72.15A1.74,1.74,0,0,1,67,91.69a3.65,3.65,0,0,1-.54-2.13A3.73,3.73,0,0,1,67,87.37a1.76,1.76,0,0,1,1.53-.79,2.08,2.08,0,0,1,.63.13,2.35,2.35,0,0,1,.61.33V84.21h1.65v8.14Zm-.93-1a1.35,1.35,0,0,0,.73-.22V88a1.54,1.54,0,0,0-.8-.26.69.69,0,0,0-.67.44,3.39,3.39,0,0,0-.21,1.39,3.05,3.05,0,0,0,.23,1.36A.75.75,0,0,0,69.06,91.32Z" style="fill:#232f3e"/><path d="M12.84,98.72h1.69v4.94a2.52,2.52,0,0,1-2.85,2.86,2.53,2.53,0,0,1-2.84-2.87V98.72h1.69v5a1.89,1.89,0,0,0,.28,1.16,1,1,0,0,0,.87.38,1,1,0,0,0,.88-.38,2,2,0,0,0,.28-1.16Z" style="fill:#232f3e"/><path d="M18,104.77c0-.25-.17-.46-.52-.62l-.72-.35a1.68,1.68,0,0,1-1.13-1.59A1.42,1.42,0,0,1,16.2,101a2.26,2.26,0,0,1,1.47-.45,3.57,3.57,0,0,1,1.53.35v1a5.13,5.13,0,0,0-.7-.19,3,3,0,0,0-.6-.07c-.51,0-.77.18-.77.54s.21.45.64.66l.72.34a1.9,1.9,0,0,1,.77.62,1.69,1.69,0,0,1,.24.93A1.56,1.56,0,0,1,19,106a2.3,2.3,0,0,1-1.48.46,3.8,3.8,0,0,1-1.82-.44v-1a5.45,5.45,0,0,0,1.61.35.86.86,0,0,0,.57-.17A.56.56,0,0,0,18,104.77Z" style="fill:#232f3e"/><path d="M23.33,106.35l-.14-.51a1.56,1.56,0,0,1-.59.47,1.86,1.86,0,0,1-.79.18,1.57,1.57,0,0,1-1.18-.45,1.91,1.91,0,0,1,.1-2.53,2,2,0,0,1,1.43-.47,4,4,0,0,1,.93.13v-.51a1.33,1.33,0,0,0-.16-.78.77.77,0,0,0-.61-.2,5.9,5.9,0,0,0-1.77.35v-1a3,3,0,0,1,.92-.33,5.47,5.47,0,0,1,1.15-.12,2.19,2.19,0,0,1,1.52.44,1.82,1.82,0,0,1,.47,1.39v3.94Zm-1-.92a1.17,1.17,0,0,0,.79-.35V104a2.3,2.3,0,0,0-.62-.07.67.67,0,0,0-.54.2.81.81,0,0,0-.19.59.82.82,0,0,0,.15.52A.49.49,0,0,0,22.3,105.43Z" style="fill:#232f3e"/><path d="M28.91,105.71a1.72,1.72,0,0,1-2.66-.21,3.46,3.46,0,0,1-.52-2,3.6,3.6,0,0,1,.54-2.11,1.68,1.68,0,0,1,1.46-.77,1.83,1.83,0,0,1,.71.17,2,2,0,0,1,.63.45l.12-.48h1.35V106c0,1.86-.86,2.79-2.57,2.79a3.92,3.92,0,0,1-1.83-.44v-1a5.45,5.45,0,0,0,1.61.35,1.45,1.45,0,0,0,.7-.13.72.72,0,0,0,.35-.44,3.19,3.19,0,0,0,.11-1Zm-.66-.6a1.26,1.26,0,0,0,.66-.22V102a1.32,1.32,0,0,0-.73-.27.64.64,0,0,0-.61.42,3.23,3.23,0,0,0-.19,1.3,3,3,0,0,0,.21,1.28A.7.7,0,0,0,28.25,105.11Z" style="fill:#232f3e"/><path d="M33.18,103.92a1.66,1.66,0,0,0,.36,1.12,1.43,1.43,0,0,0,1.06.33,3.26,3.26,0,0,0,.68-.09,5.9,5.9,0,0,0,.8-.21v1a2.88,2.88,0,0,1-.83.31,4.77,4.77,0,0,1-1,.11c-1.72,0-2.58-1-2.58-2.95a3.37,3.37,0,0,1,.63-2.2,2.24,2.24,0,0,1,1.83-.76c1.36,0,2,.76,2,2.29a4.32,4.32,0,0,1-.12,1Zm.91-2.32c-.58,0-.88.46-.91,1.37h1.61v-.25a1.68,1.68,0,0,0-.17-.86A.59.59,0,0,0,34.09,101.6Z" style="fill:#232f3e"/><path d="M43.73,106.35l-1.46-2.83h-.65v2.83H40V98.72h2.64a2.39,2.39,0,0,1,1.76.65,2.31,2.31,0,0,1,.66,1.75,2.57,2.57,0,0,1-.33,1.33,2,2,0,0,1-.92.84l1.68,3.06Zm-2.11-4h.78a.85.85,0,0,0,.72-.31,1.57,1.57,0,0,0,.25-.94,1.52,1.52,0,0,0-.25-.93.83.83,0,0,0-.72-.32h-.78Z" style="fill:#232f3e"/><path d="M47.5,103.92a1.66,1.66,0,0,0,.36,1.12,1.45,1.45,0,0,0,1.06.33,3.18,3.18,0,0,0,.68-.09,5.54,5.54,0,0,0,.8-.21v1a2.77,2.77,0,0,1-.83.31,4.77,4.77,0,0,1-1,.11c-1.72,0-2.57-1-2.57-2.95a3.37,3.37,0,0,1,.63-2.2,2.22,2.22,0,0,1,1.82-.76c1.37,0,2,.76,2,2.29a4.32,4.32,0,0,1-.12,1Zm.91-2.32c-.57,0-.88.46-.91,1.37h1.61v-.25a1.59,1.59,0,0,0-.17-.86A.58.58,0,0,0,48.41,101.6Z" style="fill:#232f3e"/><path d="M51.64,108.61v-7.89H53l.12.48a2.46,2.46,0,0,1,.71-.45,2.16,2.16,0,0,1,.79-.17,1.74,1.74,0,0,1,1.51.74,3.68,3.68,0,0,1,.52,2.14,3.87,3.87,0,0,1-.54,2.2,1.76,1.76,0,0,1-1.52.78,2.08,2.08,0,0,1-.68-.12,1.91,1.91,0,0,1-.61-.35v2.64Zm2.43-6.91a1.3,1.3,0,0,0-.78.25v3.11a1.43,1.43,0,0,0,.79.26.72.72,0,0,0,.7-.42,3.22,3.22,0,0,0,.21-1.37,3.34,3.34,0,0,0-.21-1.41A.73.73,0,0,0,54.07,101.7Z" style="fill:#232f3e"/><path d="M60,106.49a2.31,2.31,0,0,1-1.85-.77,4,4,0,0,1,0-4.37,2.6,2.6,0,0,1,3.69,0,4,4,0,0,1,0,4.37A2.29,2.29,0,0,1,60,106.49Zm0-1.15a.66.66,0,0,0,.64-.43,4.79,4.79,0,0,0,0-2.74.66.66,0,0,0-.64-.44.67.67,0,0,0-.65.44,4.79,4.79,0,0,0,0,2.74A.67.67,0,0,0,60,105.34Z" style="fill:#232f3e"/><path d="M63.67,106.35v-5.63H65l.18.73a2.61,2.61,0,0,1,.71-.59,1.56,1.56,0,0,1,.76-.19,2.43,2.43,0,0,1,.38,0V102a4.85,4.85,0,0,0-.64,0,2.43,2.43,0,0,0-1.09.26v4.11Z" style="fill:#232f3e"/><path d="M71.32,106.2a3.51,3.51,0,0,1-1.23.22,1.85,1.85,0,0,1-1.32-.4,1.81,1.81,0,0,1-.41-1.3v-2.9h-.73v-.92l.78-.15.24-1.54H70v1.51h1.27v1.1H70v2.77a.74.74,0,0,0,.14.52.69.69,0,0,0,.53.16,3,3,0,0,0,.63-.08Z" style="fill:#232f3e"/></g><g id="ICONS_-_EDIT" data-name="ICONS - EDIT"><path d="M64,59.5H40a1,1,0,0,1-1-1v-9h2v8H63V29.91L55.59,22.5H41v21H39v-22a1,1,0,0,1,1-1H56a1,1,0,0,1,.71.29l8,8a1,1,0,0,1,.29.71v29A1,1,0,0,1,64,59.5Z" style="fill:#fff"/><path d="M64,30.5H56a1,1,0,0,1-1-1v-8a1,1,0,0,1,.62-.92,1,1,0,0,1,1.09.21l8,8a1,1,0,0,1,.21,1.09A1,1,0,0,1,64,30.5Zm-7-2h4.59L57,23.91Z" style="fill:#fff"/><rect x="58" y="33.5" width="3" height="2" style="fill:#fff"/><rect x="55" y="45.5" width="6" height="2" style="fill:#fff"/><path d="M19.5,64A4.5,4.5,0,1,1,24,59.5,4.51,4.51,0,0,1,19.5,64Zm0-7A2.5,2.5,0,1,0,22,59.5,2.5,2.5,0,0,0,19.5,57Z" style="fill:#fff"/><path d="M19.5,51A4.5,4.5,0,1,1,24,46.5,4.51,4.51,0,0,1,19.5,51Zm0-7A2.5,2.5,0,1,0,22,46.5,2.5,2.5,0,0,0,19.5,44Z" style="fill:#fff"/><path d="M19.5,38A4.5,4.5,0,1,1,24,33.5,4.51,4.51,0,0,1,19.5,38Zm0-7A2.5,2.5,0,1,0,22,33.5,2.5,2.5,0,0,0,19.5,31Z" style="fill:#fff"/><path d="M19.5,25A4.5,4.5,0,1,1,24,20.5,4.51,4.51,0,0,1,19.5,25Zm0-7A2.5,2.5,0,1,0,22,20.5,2.5,2.5,0,0,0,19.5,18Z" style="fill:#fff"/><path d="M30,60.5H23v-2h6v-37H23v-2h7a1,1,0,0,1,1,1v39A1,1,0,0,1,30,60.5Z" style="fill:#fff"/><polygon points="30.05 34.5 23 34.5 23 32.5 30 32.5 30.05 34.5" style="fill:#fff"/><rect x="23" y="45.5" width="30" height="2" style="fill:#fff"/><rect x="43" y="33.5" width="12" height="2" style="fill:#fff"/><rect x="58" y="38.5" width="3" height="2" style="fill:#fff"/><rect x="43" y="38.5" width="7" height="2" style="fill:#fff"/></g></svg>