<svg xmlns="http://www.w3.org/2000/svg" width="80" height="130" viewBox="0 0 80 130"><title>architecture-product-card_Amazon_Rekognition_Video</title><g id="CARDS"><rect x="1" y="1" width="78" height="78" style="fill:#232f3e"/><path d="M0,0V80H0v50H80V80h0V0ZM1,1H79V79H1Z" style="fill:#fff"/><text transform="translate(20.65 92.35) scale(1.1 1)" style="font-size:11px;fill:#232f3e;font-family:AmazonEmberCd-Bold, Amazon Ember Cd;font-weight:700">Amazon <tspan x="-8.92" y="14">Re</tspan><tspan x="1.84" y="14" style="letter-spacing:-0.020021426452027726em">k</tspan><tspan x="7.1" y="14">ognition</tspan><tspan x="5.08" y="28">Video</tspan></text></g><g id="ICONS_-_EDIT" data-name="ICONS - EDIT"><path d="M42,61a22.84,22.84,0,0,1-10.25-2.4l.89-1.8A20.75,20.75,0,0,0,42,59a21,21,0,0,0,0-42,20.67,20.67,0,0,0-8.36,1.74l-.8-1.84A23,23,0,1,1,42,61Z" style="fill:#fff"/><path d="M21.41,48.24a23,23,0,0,1,.53-21.49l1.75,1A20.94,20.94,0,0,0,21,38a20.51,20.51,0,0,0,2.2,9.34Z" style="fill:#fff"/><path d="M42,55A17,17,0,1,1,59,38,17,17,0,0,1,42,55Zm0-32A15,15,0,1,0,57,38,15,15,0,0,0,42,23Z" style="fill:#fff"/><path d="M20,65a5,5,0,0,1-3.53-8.54L27.51,45.41l1.41,1.42-11,11.05a3,3,0,0,0,4.25,4.24l11.05-11,1.41,1.42-11,11A5,5,0,0,1,20,65Z" style="fill:#fff"/><path d="M50,47H34a1,1,0,0,1-1-1V30a1,1,0,0,1,1-1H50a1,1,0,0,1,1,1V46A1,1,0,0,1,50,47ZM35,45H49V31H35Z" style="fill:#fff"/><path d="M39,43a1,1,0,0,1-1-1V34a1,1,0,0,1,.5-.87,1,1,0,0,1,1,0l7,4a1,1,0,0,1,0,1.74l-7,4A1,1,0,0,1,39,43Zm1-7.28v4.56L44,38Z" style="fill:#fff"/></g></svg>