<svg xmlns="http://www.w3.org/2000/svg" width="80" height="115" viewBox="0 0 80 115"><title>architecture-product-card_AWS_Elastic_Beanstalk</title><g id="CARDS"><rect x="1" y="1" width="78" height="78" style="fill:#232f3e"/><path d="M0,0V80H0v35H80V80h0V0ZM1,1H79V79H1Z" style="fill:#fff"/></g><g id="TEXT_-_EDIT" data-name="TEXT - EDIT"><path d="M17,92.35l-.44-1.82h-2l-.42,1.82H12.33l2.32-7.63h1.86l2.3,7.63Zm-2.18-2.92h1.49l-.76-3.16Z" style="fill:#232f3e"/><path d="M24.16,92.35l-.94-5.63-.89,5.63H20.46l-1.78-7.63h1.7l1.06,6.06L22.36,85h1.83l.94,5.65,1-6h1.66L26,92.35Z" style="fill:#232f3e"/><path d="M30.11,89a3.55,3.55,0,0,1-1.27-1,2,2,0,0,1-.39-1.23,2,2,0,0,1,.34-1.17,2.11,2.11,0,0,1,.92-.77,3.18,3.18,0,0,1,1.34-.27A4.93,4.93,0,0,1,33,85v1.17a5.5,5.5,0,0,0-1.73-.33,1.26,1.26,0,0,0-.79.23.75.75,0,0,0-.29.64.81.81,0,0,0,.19.56,2.14,2.14,0,0,0,.71.48l.65.32a5.12,5.12,0,0,1,1,.62,2,2,0,0,1,.54.69,2.13,2.13,0,0,1,.17.92,2,2,0,0,1-.74,1.65,3.09,3.09,0,0,1-2,.61,5.43,5.43,0,0,1-1.13-.12,3.76,3.76,0,0,1-.95-.32V90.92a7.29,7.29,0,0,0,1,.25,5.42,5.42,0,0,0,1,.11,1.32,1.32,0,0,0,.88-.25.86.86,0,0,0,.3-.71.84.84,0,0,0-.21-.58,2.54,2.54,0,0,0-.7-.47Z" style="fill:#232f3e"/><path d="M37.19,92.35V84.72h4.54V85.9H38.87v1.95h2.29V89H38.87v2.15h2.86v1.18Z" style="fill:#232f3e"/><path d="M45.25,92.25a2.7,2.7,0,0,1-1,.16A1.43,1.43,0,0,1,43.2,92a1.58,1.58,0,0,1-.35-1.12V84.21H44.5v6.54a.75.75,0,0,0,.08.4.36.36,0,0,0,.32.12,2.26,2.26,0,0,0,.35,0Z" style="fill:#232f3e"/><path d="M49.16,92.35,49,91.84a1.56,1.56,0,0,1-.59.47,1.86,1.86,0,0,1-.79.18A1.57,1.57,0,0,1,46.46,92,1.65,1.65,0,0,1,46,90.82a1.69,1.69,0,0,1,.53-1.31A2,2,0,0,1,48,89a4,4,0,0,1,.93.13v-.51a1.33,1.33,0,0,0-.16-.78.77.77,0,0,0-.61-.2,5.9,5.9,0,0,0-1.77.35V87a3,3,0,0,1,.91-.33,5.64,5.64,0,0,1,1.16-.12A2.19,2.19,0,0,1,50,87a1.82,1.82,0,0,1,.47,1.39v3.94Zm-1-.92a1.17,1.17,0,0,0,.79-.35V90a2.33,2.33,0,0,0-.63-.07.66.66,0,0,0-.53.2.81.81,0,0,0-.19.59.82.82,0,0,0,.15.52A.49.49,0,0,0,48.13,91.43Z" style="fill:#232f3e"/><path d="M53.84,90.77c0-.25-.18-.46-.52-.62l-.72-.35a1.69,1.69,0,0,1-1.14-1.59A1.43,1.43,0,0,1,52,87a2.26,2.26,0,0,1,1.47-.45,3.57,3.57,0,0,1,1.53.35v1a5.56,5.56,0,0,0-.7-.19,3,3,0,0,0-.6-.07q-.78,0-.78.54c0,.23.22.45.64.66l.73.34a1.9,1.9,0,0,1,.77.62,1.69,1.69,0,0,1,.24.93A1.57,1.57,0,0,1,54.76,92a2.28,2.28,0,0,1-1.48.46,3.85,3.85,0,0,1-1.82-.44v-1a5.5,5.5,0,0,0,1.62.35.81.81,0,0,0,.56-.17A.57.57,0,0,0,53.84,90.77Z" style="fill:#232f3e"/><path d="M59.28,92.2a3.47,3.47,0,0,1-1.23.22,1.47,1.47,0,0,1-1.72-1.7v-2.9H55.6V86.9l.78-.15.24-1.54H58v1.51h1.28v1.1H58v2.77a.79.79,0,0,0,.14.52.7.7,0,0,0,.53.16,2.86,2.86,0,0,0,.63-.08Z" style="fill:#232f3e"/><path d="M61,85.81a1,1,0,0,1-.71-.22.76.76,0,0,1-.27-.61.75.75,0,0,1,.27-.61,1.2,1.2,0,0,1,1.41,0A.77.77,0,0,1,62,85a.79.79,0,0,1-.26.61A1,1,0,0,1,61,85.81Zm-.83,6.54V86.72h1.65v5.63Z" style="fill:#232f3e"/><path d="M66.94,92.09a2,2,0,0,1-.63.26,3.59,3.59,0,0,1-.81.09,2.3,2.3,0,0,1-1.85-.73A3.29,3.29,0,0,1,63,89.55a3.16,3.16,0,0,1,.67-2.16,2.34,2.34,0,0,1,1.87-.76,2.93,2.93,0,0,1,1.35.33v1a3.08,3.08,0,0,0-1-.19,1.06,1.06,0,0,0-.94.4,2.29,2.29,0,0,0-.28,1.29v.16A2.23,2.23,0,0,0,65,90.9a1,1,0,0,0,.9.4,3.22,3.22,0,0,0,1.08-.21Z" style="fill:#232f3e"/><path d="M17.19,106.35V98.72h2.52a2.42,2.42,0,0,1,1.64.56,1.87,1.87,0,0,1,.64,1.47,1.93,1.93,0,0,1-.25,1,1.6,1.6,0,0,1-.74.61,1.79,1.79,0,0,1,1.35,1.86,1.92,1.92,0,0,1-.7,1.56,2.81,2.81,0,0,1-1.87.59Zm1.59-6.53v2.11h.68a.84.84,0,0,0,.66-.27,1.13,1.13,0,0,0,.24-.77,1.3,1.3,0,0,0-.21-.79.7.7,0,0,0-.58-.28Zm0,3.16v2.27h1a.88.88,0,0,0,.7-.29,1.22,1.22,0,0,0,.25-.84,1.19,1.19,0,0,0-.27-.84,1,1,0,0,0-.78-.3Z" style="fill:#232f3e"/><path d="M24.69,103.92a1.66,1.66,0,0,0,.36,1.12,1.45,1.45,0,0,0,1.06.33,3.26,3.26,0,0,0,.68-.09,5.54,5.54,0,0,0,.8-.21v1a2.77,2.77,0,0,1-.83.31,4.77,4.77,0,0,1-1,.11c-1.72,0-2.58-1-2.58-2.95a3.32,3.32,0,0,1,.64-2.2,2.22,2.22,0,0,1,1.82-.76c1.37,0,2.05.76,2.05,2.29a4.32,4.32,0,0,1-.12,1Zm.91-2.32c-.58,0-.88.46-.91,1.37H26.3v-.25a1.68,1.68,0,0,0-.17-.86A.59.59,0,0,0,25.6,101.6Z" style="fill:#232f3e"/><path d="M31.73,106.35l-.14-.51a1.49,1.49,0,0,1-.59.47,1.85,1.85,0,0,1-.78.18A1.56,1.56,0,0,1,29,106a1.66,1.66,0,0,1-.44-1.22,1.69,1.69,0,0,1,.53-1.31,2.07,2.07,0,0,1,1.44-.47,4,4,0,0,1,.92.13v-.51a1.33,1.33,0,0,0-.16-.78.77.77,0,0,0-.61-.2A5.9,5.9,0,0,0,29,102v-1a3.07,3.07,0,0,1,.92-.33,5.47,5.47,0,0,1,1.15-.12,2.19,2.19,0,0,1,1.52.44,1.82,1.82,0,0,1,.47,1.39v3.94Zm-1-.92a1.17,1.17,0,0,0,.79-.35V104a2.25,2.25,0,0,0-.62-.07.68.68,0,0,0-.54.2.85.85,0,0,0-.18.59.77.77,0,0,0,.15.52A.47.47,0,0,0,30.7,105.43Z" style="fill:#232f3e"/><path d="M37.52,106.35v-3.7a1.25,1.25,0,0,0-.15-.7.53.53,0,0,0-.49-.22,1.59,1.59,0,0,0-.82.26v4.36H34.41v-5.63h1.35l.13.51a3.35,3.35,0,0,1,1.84-.65,1.34,1.34,0,0,1,1.07.42,1.78,1.78,0,0,1,.37,1.22v4.13Z" style="fill:#232f3e"/><path d="M42.57,104.77c0-.25-.18-.46-.52-.62l-.73-.35a1.7,1.7,0,0,1-1.13-1.59,1.43,1.43,0,0,1,.56-1.18,2.26,2.26,0,0,1,1.47-.45,3.57,3.57,0,0,1,1.53.35v1a5.56,5.56,0,0,0-.7-.19,3,3,0,0,0-.61-.07c-.51,0-.77.18-.77.54s.22.45.64.66l.73.34a1.9,1.9,0,0,1,.77.62,1.69,1.69,0,0,1,.24.93,1.57,1.57,0,0,1-.56,1.27,2.28,2.28,0,0,1-1.48.46,3.85,3.85,0,0,1-1.82-.44v-1a5.44,5.44,0,0,0,1.62.35.83.83,0,0,0,.56-.17A.57.57,0,0,0,42.57,104.77Z" style="fill:#232f3e"/><path d="M48,106.2a3.47,3.47,0,0,1-1.23.22,1.47,1.47,0,0,1-1.72-1.7v-2.9h-.74v-.92l.79-.15.24-1.54h1.36v1.51H48v1.1H46.71v2.77a.79.79,0,0,0,.14.52.7.7,0,0,0,.53.16,2.86,2.86,0,0,0,.63-.08Z" style="fill:#232f3e"/><path d="M51.79,106.35l-.14-.51a1.49,1.49,0,0,1-.59.47,1.85,1.85,0,0,1-.78.18A1.54,1.54,0,0,1,49.1,106a1.66,1.66,0,0,1-.44-1.22,1.69,1.69,0,0,1,.53-1.31,2,2,0,0,1,1.43-.47,4,4,0,0,1,.93.13v-.51a1.33,1.33,0,0,0-.16-.78.77.77,0,0,0-.61-.2A5.9,5.9,0,0,0,49,102v-1a3,3,0,0,1,.92-.33,5.47,5.47,0,0,1,1.15-.12,2.19,2.19,0,0,1,1.52.44,1.82,1.82,0,0,1,.47,1.39v3.94Zm-1-.92a1.17,1.17,0,0,0,.79-.35V104a2.25,2.25,0,0,0-.62-.07.67.67,0,0,0-.54.2.85.85,0,0,0-.19.59.82.82,0,0,0,.15.52A.49.49,0,0,0,50.76,105.43Z" style="fill:#232f3e"/><path d="M56.87,106.25a2.7,2.7,0,0,1-1,.16,1.43,1.43,0,0,1-1.08-.37,1.58,1.58,0,0,1-.35-1.12V98.21h1.65v6.54a.75.75,0,0,0,.08.4.36.36,0,0,0,.32.12,2.26,2.26,0,0,0,.35,0Z" style="fill:#232f3e"/><path d="M57.88,106.35V98.21H59.5v5l1.64-2.44H63l-2,2.69,2.17,2.94H61.26l-1.76-2.6v2.6Z" style="fill:#232f3e"/></g><g id="ICONS_-_EDIT" data-name="ICONS - EDIT"><path d="M55,49V47c2.41,0,8-.72,8-7.4,0-4-2.35-6.52-7-7.45a1,1,0,0,1-.8-.92c-.23-3.91-2.5-5.29-4.37-5.29a4.07,4.07,0,0,0-3.25,1.65,1,1,0,0,1-.95.39,1,1,0,0,1-.79-.65,12.88,12.88,0,0,0-3.13-4.95,11.17,11.17,0,0,0-19.2,7.48,11.59,11.59,0,0,0,.08,1.33,1,1,0,0,1-.75,1.1c-2.18.54-5.84,2.2-5.84,7.24,0,.19,0,.37,0,.55A7.62,7.62,0,0,0,24.85,47H26v2H24.85A9.63,9.63,0,0,1,15,40.17c0-.21,0-.42,0-.65a8.9,8.9,0,0,1,6.53-8.94c0-.25,0-.49,0-.73a13.18,13.18,0,0,1,22.6-8.92,14.67,14.67,0,0,1,3,4.28,5.93,5.93,0,0,1,3.7-1.28c2.8,0,5.75,2,6.3,6.41C62.21,31.59,65,34.86,65,39.59,65,46.52,59.83,49,55,49Z" style="fill:#fff"/><rect x="38" y="36.04" width="2" height="25.96" style="fill:#fff"/><path d="M47,56H39V54h7V48.72h2V55A1,1,0,0,1,47,56Z" style="fill:#fff"/><path d="M39,51H31a1,1,0,0,1-1-1V46.18h2V49h7Z" style="fill:#fff"/><path d="M31,47.18a5.44,5.44,0,1,1,5.44-5.44A5.45,5.45,0,0,1,31,47.18Zm0-8.88a3.44,3.44,0,1,0,3.44,3.44A3.45,3.45,0,0,0,31,38.3Z" style="fill:#fff"/><path d="M47,49.72a5.44,5.44,0,1,1,5.44-5.44A5.45,5.45,0,0,1,47,49.72Zm0-8.88a3.44,3.44,0,1,0,3.44,3.44A3.44,3.44,0,0,0,47,40.84Z" style="fill:#fff"/><path d="M39,37a5.44,5.44,0,1,1,5.44-5.44A5.45,5.45,0,0,1,39,37Zm0-8.88a3.44,3.44,0,1,0,3.44,3.44A3.44,3.44,0,0,0,39,28.16Z" style="fill:#fff"/></g></svg>