<svg xmlns="http://www.w3.org/2000/svg" width="80" height="130" viewBox="0 0 80 130"><title>architecture-product-card_AWS_IoT_Device_Management</title><g id="CARDS"><rect x="1" y="1" width="78" height="78" style="fill:#232f3e"/><path d="M0,0V80H0v50H80V80h0V0ZM1,1H79V79H1Z" style="fill:#fff"/></g><g id="TEXT_-_EDIT" data-name="TEXT - EDIT"><path d="M24.79,92.35l-.43-1.82h-2l-.43,1.82H20.16l2.32-7.63h1.86l2.3,7.63Zm-2.18-2.92H24.1l-.76-3.16Z" style="fill:#232f3e"/><path d="M32,92.35l-.94-5.63-.89,5.63H28.29l-1.78-7.63h1.7l1.06,6.06L30.19,85H32L33,90.68l1-6h1.66l-1.78,7.63Z" style="fill:#232f3e"/><path d="M38,89a3.51,3.51,0,0,1-1.28-1,2,2,0,0,1-.39-1.23,2.07,2.07,0,0,1,.34-1.17,2.11,2.11,0,0,1,.92-.77,3.18,3.18,0,0,1,1.34-.27,4.93,4.93,0,0,1,1.9.39v1.17a5.5,5.5,0,0,0-1.73-.33,1.26,1.26,0,0,0-.79.23.78.78,0,0,0-.29.64.81.81,0,0,0,.19.56,2.14,2.14,0,0,0,.71.48l.65.32a5.12,5.12,0,0,1,1,.62,2,2,0,0,1,.54.69,2.13,2.13,0,0,1,.17.92,2,2,0,0,1-.74,1.65,3.09,3.09,0,0,1-2,.61,5.43,5.43,0,0,1-1.13-.12,3.76,3.76,0,0,1-1-.32V90.92a7.29,7.29,0,0,0,1,.25,5.53,5.53,0,0,0,1,.11,1.32,1.32,0,0,0,.88-.25.86.86,0,0,0,.3-.71.84.84,0,0,0-.21-.58,2.54,2.54,0,0,0-.7-.47Z" style="fill:#232f3e"/><path d="M45.07,92.35V84.72h1.68v7.63Z" style="fill:#232f3e"/><path d="M50.56,92.49a2.27,2.27,0,0,1-1.84-.77,4,4,0,0,1,0-4.37,2.58,2.58,0,0,1,3.68,0,4,4,0,0,1,0,4.37A2.29,2.29,0,0,1,50.56,92.49Zm0-1.15a.65.65,0,0,0,.64-.43,4.79,4.79,0,0,0,0-2.74.69.69,0,0,0-1.28,0,4.79,4.79,0,0,0,0,2.74A.65.65,0,0,0,50.56,91.34Z" style="fill:#232f3e"/><path d="M55.63,92.35V85.94h-2V84.72h5.69v1.22h-2v6.41Z" style="fill:#232f3e"/><path d="M25.08,106.35V98.72H27.6a2.9,2.9,0,0,1,2.36,1,4.33,4.33,0,0,1,.81,2.84,4.42,4.42,0,0,1-.79,2.85,2.85,2.85,0,0,1-2.32,1Zm1.69-6.45v5.27h.71a1.3,1.3,0,0,0,1.17-.62,3.68,3.68,0,0,0,.39-1.91v-.22a3.75,3.75,0,0,0-.38-1.91,1.3,1.3,0,0,0-1.19-.61Z" style="fill:#232f3e"/><path d="M33.3,103.92a1.77,1.77,0,0,0,.36,1.12,1.45,1.45,0,0,0,1.06.33,3.18,3.18,0,0,0,.68-.09,6,6,0,0,0,.81-.21v1a3,3,0,0,1-.84.31,4.75,4.75,0,0,1-1,.11c-1.72,0-2.58-1-2.58-2.95a3.37,3.37,0,0,1,.63-2.2,2.23,2.23,0,0,1,1.83-.76c1.36,0,2,.76,2,2.29a4.32,4.32,0,0,1-.12,1Zm.92-2.32c-.58,0-.89.46-.92,1.37h1.62v-.25a1.68,1.68,0,0,0-.17-.86A.6.6,0,0,0,34.22,101.6Z" style="fill:#232f3e"/><path d="M38.64,106.35l-1.86-5.63h1.75l.89,4,.92-4H42l-1.85,5.63Z" style="fill:#232f3e"/><path d="M43.66,99.81a1.08,1.08,0,0,1-.71-.22.75.75,0,0,1-.26-.61.74.74,0,0,1,.26-.61,1,1,0,0,1,.71-.23,1,1,0,0,1,.7.23.75.75,0,0,1,.27.61.76.76,0,0,1-.27.61A1,1,0,0,1,43.66,99.81Zm-.83,6.54v-5.63h1.65v5.63Z" style="fill:#232f3e"/><path d="M49.58,106.09a2,2,0,0,1-.64.26,3.59,3.59,0,0,1-.81.09,2.28,2.28,0,0,1-1.84-.73,3.24,3.24,0,0,1-.63-2.16,3.16,3.16,0,0,1,.67-2.16,2.36,2.36,0,0,1,1.87-.76,2.87,2.87,0,0,1,1.35.33v1a3.08,3.08,0,0,0-1-.19,1,1,0,0,0-.93.4,2.28,2.28,0,0,0-.29,1.29v.16a2.31,2.31,0,0,0,.28,1.28,1,1,0,0,0,.9.4,3.32,3.32,0,0,0,1.09-.21Z" style="fill:#232f3e"/><path d="M51.84,103.92A1.77,1.77,0,0,0,52.2,105a1.45,1.45,0,0,0,1.06.33,3.26,3.26,0,0,0,.69-.09,6.31,6.31,0,0,0,.8-.21v1a3,3,0,0,1-.83.31,4.84,4.84,0,0,1-1,.11c-1.72,0-2.58-1-2.58-2.95a3.37,3.37,0,0,1,.63-2.2,2.23,2.23,0,0,1,1.83-.76c1.36,0,2,.76,2,2.29a4.32,4.32,0,0,1-.12,1Zm.92-2.32c-.58,0-.88.46-.92,1.37h1.62v-.25a1.68,1.68,0,0,0-.17-.86A.59.59,0,0,0,52.76,101.6Z" style="fill:#232f3e"/><path d="M15.3,120.35V115l-1.41,3.46H12.46L11.06,115v5.32H9.56v-7.63h1.92L13.21,117l1.72-4.27h1.88v7.63Z" style="fill:#232f3e"/><path d="M21.24,120.35l-.14-.51a1.56,1.56,0,0,1-.59.47,1.86,1.86,0,0,1-.79.18,1.57,1.57,0,0,1-1.18-.45,1.65,1.65,0,0,1-.43-1.22,1.69,1.69,0,0,1,.53-1.31,2,2,0,0,1,1.43-.47,4,4,0,0,1,.93.13v-.51a1.33,1.33,0,0,0-.16-.78.77.77,0,0,0-.61-.2,5.9,5.9,0,0,0-1.77.35v-1a3,3,0,0,1,.91-.33,5.64,5.64,0,0,1,1.16-.12,2.19,2.19,0,0,1,1.52.44,1.82,1.82,0,0,1,.47,1.39v3.94Zm-1-.92a1.17,1.17,0,0,0,.79-.35V118a2.33,2.33,0,0,0-.63-.07.66.66,0,0,0-.53.2.81.81,0,0,0-.19.59.82.82,0,0,0,.15.52A.49.49,0,0,0,20.21,119.43Z" style="fill:#232f3e"/><path d="M27,120.35v-3.7a1.27,1.27,0,0,0-.14-.7.54.54,0,0,0-.49-.22,1.57,1.57,0,0,0-.82.26v4.36H23.92v-5.63h1.35l.13.51a3.32,3.32,0,0,1,1.84-.65,1.35,1.35,0,0,1,1.07.42,1.83,1.83,0,0,1,.36,1.22v4.13Z" style="fill:#232f3e"/><path d="M33,120.35l-.15-.51a1.49,1.49,0,0,1-.59.47,1.85,1.85,0,0,1-.78.18,1.56,1.56,0,0,1-1.18-.45,1.66,1.66,0,0,1-.44-1.22,1.69,1.69,0,0,1,.53-1.31,2.08,2.08,0,0,1,1.44-.47,3.88,3.88,0,0,1,.92.13v-.51a1.33,1.33,0,0,0-.16-.78.77.77,0,0,0-.61-.2,5.9,5.9,0,0,0-1.77.35v-1a3.07,3.07,0,0,1,.92-.33,5.54,5.54,0,0,1,1.15-.12,2.19,2.19,0,0,1,1.52.44,1.78,1.78,0,0,1,.47,1.39v3.94Zm-1-.92a1.17,1.17,0,0,0,.79-.35V118a2.25,2.25,0,0,0-.62-.07.69.69,0,0,0-.54.2.85.85,0,0,0-.18.59.82.82,0,0,0,.15.52A.47.47,0,0,0,31.94,119.43Z" style="fill:#232f3e"/><path d="M38.55,119.71a1.65,1.65,0,0,1-1.21.53,1.68,1.68,0,0,1-1.44-.74,3.46,3.46,0,0,1-.53-2,3.6,3.6,0,0,1,.54-2.11,1.69,1.69,0,0,1,1.46-.77,1.79,1.79,0,0,1,.71.17,2,2,0,0,1,.63.45l.12-.48h1.35V120c0,1.86-.85,2.79-2.57,2.79a3.92,3.92,0,0,1-1.83-.44v-1a5.5,5.5,0,0,0,1.62.35,1.48,1.48,0,0,0,.7-.13.76.76,0,0,0,.35-.44,3.26,3.26,0,0,0,.1-1Zm-.66-.6a1.26,1.26,0,0,0,.66-.22V116a1.32,1.32,0,0,0-.73-.27.63.63,0,0,0-.6.42,3.2,3.2,0,0,0-.2,1.3,3,3,0,0,0,.21,1.28A.71.71,0,0,0,37.89,119.11Z" style="fill:#232f3e"/><path d="M42.82,117.92a1.66,1.66,0,0,0,.36,1.12,1.45,1.45,0,0,0,1.06.33,3.26,3.26,0,0,0,.68-.09,5.54,5.54,0,0,0,.8-.21v1a2.77,2.77,0,0,1-.83.31,4.77,4.77,0,0,1-1,.11c-1.72,0-2.58-1-2.58-2.95a3.37,3.37,0,0,1,.64-2.2,2.22,2.22,0,0,1,1.82-.76c1.37,0,2,.76,2,2.29a4.32,4.32,0,0,1-.12,1Zm.91-2.32c-.57,0-.88.46-.91,1.37h1.61v-.25a1.59,1.59,0,0,0-.17-.86A.59.59,0,0,0,43.73,115.6Z" style="fill:#232f3e"/><path d="M53,120.35v-3.71a1.32,1.32,0,0,0-.14-.69.51.51,0,0,0-.47-.22,1.53,1.53,0,0,0-.79.26.49.49,0,0,1,0,.12v4.24H50v-3.71a1.32,1.32,0,0,0-.14-.69.5.5,0,0,0-.46-.22,1.56,1.56,0,0,0-.79.26v4.36H47v-5.63h1.35l.13.51a3.34,3.34,0,0,1,1.81-.65,1.27,1.27,0,0,1,1.21.67,3.38,3.38,0,0,1,1.83-.67,1.28,1.28,0,0,1,1,.42,1.85,1.85,0,0,1,.37,1.22v4.13Z" style="fill:#232f3e"/><path d="M57.3,117.92a1.66,1.66,0,0,0,.36,1.12,1.45,1.45,0,0,0,1.06.33,3.18,3.18,0,0,0,.68-.09,5.54,5.54,0,0,0,.8-.21v1a2.77,2.77,0,0,1-.83.31,4.77,4.77,0,0,1-1,.11c-1.71,0-2.57-1-2.57-2.95a3.37,3.37,0,0,1,.63-2.2,2.22,2.22,0,0,1,1.82-.76c1.37,0,2.05.76,2.05,2.29a4.32,4.32,0,0,1-.12,1Zm.91-2.32c-.57,0-.88.46-.91,1.37h1.61v-.25a1.7,1.7,0,0,0-.16-.86A.61.61,0,0,0,58.21,115.6Z" style="fill:#232f3e"/><path d="M64.55,120.35v-3.7a1.36,1.36,0,0,0-.14-.7.55.55,0,0,0-.5-.22,1.62,1.62,0,0,0-.82.26v4.36H61.44v-5.63h1.35l.14.51a3.32,3.32,0,0,1,1.84-.65,1.35,1.35,0,0,1,1.07.42,1.83,1.83,0,0,1,.36,1.22v4.13Z" style="fill:#232f3e"/><path d="M70.64,120.2a3.51,3.51,0,0,1-1.23.22,1.85,1.85,0,0,1-1.32-.4,1.81,1.81,0,0,1-.41-1.3v-2.9H67v-.92l.78-.15.24-1.54h1.36v1.51h1.28v1.1H69.33v2.77a.73.73,0,0,0,.15.52.69.69,0,0,0,.53.16,3,3,0,0,0,.63-.08Z" style="fill:#232f3e"/></g><g id="ICONS_-_EDIT" data-name="ICONS - EDIT"><path d="M43.7,39.93a9.16,9.16,0,0,0-2-3.61L43.13,35a11,11,0,0,1,2.49,4.43Z" style="fill:#fff"/><path d="M36.35,39.93l-1.92-.54A11,11,0,0,1,36.92,35l1.47,1.36A9,9,0,0,0,36.35,39.93Z" style="fill:#fff"/><path d="M48.15,41.44l-1.47-1.36a9,9,0,0,0,2.42-6.16v-.18a9.08,9.08,0,0,0-18.15,0v.16a9,9,0,0,0,2.41,6.15L31.9,41.43A11,11,0,0,1,29,33.92v-.18a11.08,11.08,0,0,1,22.15,0v.19A11,11,0,0,1,48.15,41.44Z" style="fill:#fff"/><path d="M40,45a10.54,10.54,0,0,1-2.46-.28L38,42.78a8.91,8.91,0,0,0,4,0l.47,1.94A10.4,10.4,0,0,1,40,45Z" style="fill:#fff"/><path d="M45.06,53.55a11,11,0,0,1-10.51-7.62l1.9-.61a9,9,0,0,0,4.07,5,9.08,9.08,0,1,0,2.53-16.71l-.44-1.95a11.08,11.08,0,1,1,2.45,21.88Z" style="fill:#fff"/><path d="M35,53.55a11.08,11.08,0,1,1,2.45-21.88L37,33.62a9.08,9.08,0,1,0,2.52,16.71,9,9,0,0,0,4.08-5l1.9.61A11.09,11.09,0,0,1,35,53.55Z" style="fill:#fff"/><path d="M40,37.79a4,4,0,1,1,4-4A4,4,0,0,1,40,37.79Zm0-6.05a2,2,0,1,0,2,2A2,2,0,0,0,40,31.74Z" style="fill:#fff"/><path d="M45.06,46.68a4,4,0,1,1,4-4A4,4,0,0,1,45.06,46.68Zm0-6a2,2,0,1,0,2,2A2,2,0,0,0,45.06,40.63Z" style="fill:#fff"/><path d="M35,46.68a4,4,0,1,1,4-4A4,4,0,0,1,35,46.68Zm0-6a2,2,0,1,0,2,2A2,2,0,0,0,35,40.63Z" style="fill:#fff"/><path d="M40,65.25a1,1,0,0,1-.5-.14L18.5,53a1,1,0,0,1-.5-.87V27.88a1,1,0,0,1,.5-.87l21-12.12a1,1,0,0,1,1,0L61.5,27a1,1,0,0,1,.5.87V52.12a1,1,0,0,1-.5.87l-21,12.12A1,1,0,0,1,40,65.25ZM20,51.55,40,63.09,60,51.55V28.45L40,16.91,20,28.45Z" style="fill:#fff"/></g></svg>