<svg xmlns="http://www.w3.org/2000/svg" width="80" height="130" viewBox="0 0 80 130"><title>architecture-product-card_AWS_Elemental_MediaPackage</title><g id="CARDS"><rect x="1" y="1" width="78" height="78" style="fill:#232f3e"/><path d="M0,0V80H0v50H80V80h0V0ZM1,1H79V79H1Z" style="fill:#fff"/></g><g id="TEXT_-_AWS_Elemental_MediaPackage" data-name="TEXT - AWS_Elemental_MediaPackage"><path d="M33.69,92.35l-.44-1.82h-2l-.42,1.82H29.06l2.31-7.63h1.87l2.3,7.63Zm-2.18-2.92H33l-.76-3.16Z" style="fill:#232f3e"/><path d="M40.89,92.35,40,86.72l-.89,5.63H37.19l-1.78-7.63h1.7l1.06,6.06L39.08,85h1.84l.94,5.65,1-6h1.66l-1.78,7.63Z" style="fill:#232f3e"/><path d="M46.84,89a3.55,3.55,0,0,1-1.27-1,2,2,0,0,1-.39-1.23,2,2,0,0,1,.34-1.17,2.11,2.11,0,0,1,.92-.77,3.18,3.18,0,0,1,1.34-.27,4.85,4.85,0,0,1,1.89.39v1.17A5.44,5.44,0,0,0,48,85.79a1.24,1.24,0,0,0-.79.23.75.75,0,0,0-.29.64.86.86,0,0,0,.18.56,2.32,2.32,0,0,0,.72.48l.65.32a5.12,5.12,0,0,1,1,.62,2,2,0,0,1,.54.69,2.29,2.29,0,0,1,.17.92,2,2,0,0,1-.74,1.65,3.09,3.09,0,0,1-2,.61,5.35,5.35,0,0,1-1.13-.12,4,4,0,0,1-1-.32V90.92a7.85,7.85,0,0,0,1,.25,5.33,5.33,0,0,0,1,.11,1.34,1.34,0,0,0,.88-.25.86.86,0,0,0,.3-.71.84.84,0,0,0-.21-.58,2.47,2.47,0,0,0-.71-.47Z" style="fill:#232f3e"/><path d="M16.61,106.35V98.72h4.54V99.9H18.3v1.95h2.28V103H18.3v2.15h2.85v1.18Z" style="fill:#232f3e"/><path d="M24.67,106.25a2.69,2.69,0,0,1-1,.16,1.4,1.4,0,0,1-1.08-.37,1.54,1.54,0,0,1-.36-1.12V98.21h1.65v6.54a.75.75,0,0,0,.08.4.36.36,0,0,0,.32.12,2.26,2.26,0,0,0,.35,0Z" style="fill:#232f3e"/><path d="M26.78,103.92a1.66,1.66,0,0,0,.36,1.12,1.45,1.45,0,0,0,1.06.33,3.26,3.26,0,0,0,.68-.09,5.54,5.54,0,0,0,.8-.21v1a2.77,2.77,0,0,1-.83.31,4.77,4.77,0,0,1-1,.11c-1.72,0-2.58-1-2.58-2.95a3.32,3.32,0,0,1,.64-2.2,2.22,2.22,0,0,1,1.82-.76c1.37,0,2.05.76,2.05,2.29a4.32,4.32,0,0,1-.12,1Zm.91-2.32c-.58,0-.88.46-.91,1.37h1.61v-.25a1.68,1.68,0,0,0-.17-.86A.59.59,0,0,0,27.69,101.6Z" style="fill:#232f3e"/><path d="M37,106.35v-3.71a1.33,1.33,0,0,0-.13-.69.51.51,0,0,0-.47-.22,1.53,1.53,0,0,0-.79.26s0,.08,0,.12v4.24H34v-3.71a1.32,1.32,0,0,0-.14-.69.5.5,0,0,0-.46-.22,1.56,1.56,0,0,0-.79.26v4.36H30.92v-5.63h1.35l.13.51a3.34,3.34,0,0,1,1.81-.65,1.27,1.27,0,0,1,1.21.67,3.33,3.33,0,0,1,1.83-.67,1.28,1.28,0,0,1,1,.42,1.85,1.85,0,0,1,.36,1.22v4.13Z" style="fill:#232f3e"/><path d="M41.26,103.92a1.66,1.66,0,0,0,.36,1.12,1.45,1.45,0,0,0,1.06.33,3.18,3.18,0,0,0,.68-.09,5.54,5.54,0,0,0,.8-.21v1a2.77,2.77,0,0,1-.83.31,4.77,4.77,0,0,1-1,.11c-1.72,0-2.58-1-2.58-2.95a3.37,3.37,0,0,1,.64-2.2,2.22,2.22,0,0,1,1.82-.76c1.37,0,2.05.76,2.05,2.29a4.32,4.32,0,0,1-.12,1Zm.91-2.32c-.57,0-.88.46-.91,1.37h1.61v-.25a1.59,1.59,0,0,0-.17-.86A.58.58,0,0,0,42.17,101.6Z" style="fill:#232f3e"/><path d="M48.51,106.35v-3.7a1.36,1.36,0,0,0-.14-.7.55.55,0,0,0-.5-.22,1.59,1.59,0,0,0-.82.26v4.36H45.4v-5.63h1.35l.13.51a3.38,3.38,0,0,1,1.85-.65,1.33,1.33,0,0,1,1.06.42,1.78,1.78,0,0,1,.37,1.22v4.13Z" style="fill:#232f3e"/><path d="M54.6,106.2a3.55,3.55,0,0,1-1.23.22,1.83,1.83,0,0,1-1.32-.4,1.81,1.81,0,0,1-.41-1.3v-2.9h-.73v-.92l.78-.15.24-1.54h1.36v1.51h1.28v1.1H53.29v2.77a.73.73,0,0,0,.15.52.69.69,0,0,0,.53.16,3,3,0,0,0,.63-.08Z" style="fill:#232f3e"/><path d="M58.38,106.35l-.15-.51a1.42,1.42,0,0,1-.59.47,1.81,1.81,0,0,1-.78.18,1.56,1.56,0,0,1-1.18-.45,1.91,1.91,0,0,1,.1-2.53,2,2,0,0,1,1.43-.47,4,4,0,0,1,.93.13v-.51a1.32,1.32,0,0,0-.17-.78.74.74,0,0,0-.6-.2,5.9,5.9,0,0,0-1.78.35v-1a3.07,3.07,0,0,1,.92-.33,5.57,5.57,0,0,1,1.16-.12,2.21,2.21,0,0,1,1.52.44,1.82,1.82,0,0,1,.47,1.39v3.94Zm-1-.92a1.19,1.19,0,0,0,.8-.35V104a2.38,2.38,0,0,0-.63-.07.69.69,0,0,0-.54.2.85.85,0,0,0-.18.59.82.82,0,0,0,.15.52A.47.47,0,0,0,57.34,105.43Z" style="fill:#232f3e"/><path d="M63.45,106.25a2.69,2.69,0,0,1-1,.16,1.4,1.4,0,0,1-1.08-.37,1.54,1.54,0,0,1-.36-1.12V98.21H62.7v6.54a.75.75,0,0,0,.08.4.36.36,0,0,0,.32.12,2.14,2.14,0,0,0,.35,0Z" style="fill:#232f3e"/><path d="M12.11,120.35V115l-1.41,3.46H9.27L7.87,115v5.32H6.36v-7.63H8.29L10,117l1.73-4.27h1.88v7.63Z" style="fill:#232f3e"/><path d="M16.36,117.92a1.77,1.77,0,0,0,.36,1.12,1.45,1.45,0,0,0,1.06.33,3.11,3.11,0,0,0,.68-.09,6,6,0,0,0,.81-.21v1a3,3,0,0,1-.84.31,4.67,4.67,0,0,1-1,.11c-1.72,0-2.58-1-2.58-2.95a3.37,3.37,0,0,1,.63-2.2,2.23,2.23,0,0,1,1.83-.76c1.36,0,2,.76,2,2.29a4.32,4.32,0,0,1-.12,1Zm.92-2.32c-.58,0-.89.46-.92,1.37H18v-.25a1.68,1.68,0,0,0-.17-.86A.59.59,0,0,0,17.28,115.6Z" style="fill:#232f3e"/><path d="M23.76,120.35l-.13-.49a2.12,2.12,0,0,1-.64.43,1.78,1.78,0,0,1-.71.15,1.74,1.74,0,0,1-1.51-.75,3.65,3.65,0,0,1-.54-2.13,3.73,3.73,0,0,1,.55-2.19,1.76,1.76,0,0,1,1.53-.79,2.08,2.08,0,0,1,.64.13,2.28,2.28,0,0,1,.6.33v-2.83h1.66v8.14Zm-.93-1a1.34,1.34,0,0,0,.72-.22V116a1.48,1.48,0,0,0-.79-.26.71.71,0,0,0-.68.44,3.6,3.6,0,0,0-.2,1.39,3.05,3.05,0,0,0,.23,1.36A.75.75,0,0,0,22.83,119.32Z" style="fill:#232f3e"/><path d="M27.49,113.81a1.08,1.08,0,0,1-.71-.22.79.79,0,0,1-.26-.61.77.77,0,0,1,.26-.61,1,1,0,0,1,.71-.23,1,1,0,0,1,.7.23.75.75,0,0,1,.27.61.76.76,0,0,1-.27.61A1,1,0,0,1,27.49,113.81Zm-.83,6.54v-5.63h1.65v5.63Z" style="fill:#232f3e"/><path d="M32.67,120.35l-.14-.51a1.49,1.49,0,0,1-.59.47,1.85,1.85,0,0,1-.78.18A1.56,1.56,0,0,1,30,120a1.66,1.66,0,0,1-.44-1.22,1.69,1.69,0,0,1,.53-1.31,2.07,2.07,0,0,1,1.44-.47,4,4,0,0,1,.92.13v-.51a1.33,1.33,0,0,0-.16-.78.77.77,0,0,0-.61-.2,5.9,5.9,0,0,0-1.77.35v-1a3,3,0,0,1,.92-.33,5.47,5.47,0,0,1,1.15-.12,2.19,2.19,0,0,1,1.52.44,1.82,1.82,0,0,1,.47,1.39v3.94Zm-1-.92a1.17,1.17,0,0,0,.79-.35V118a2.25,2.25,0,0,0-.62-.07.68.68,0,0,0-.54.2.85.85,0,0,0-.19.59.77.77,0,0,0,.16.52A.47.47,0,0,0,31.64,119.43Z" style="fill:#232f3e"/><path d="M37.11,117.52v2.83H35.46v-7.63H38.1a2.42,2.42,0,0,1,1.76.65,2.65,2.65,0,0,1,0,3.5,2.42,2.42,0,0,1-1.76.65Zm0-1.15h.78a.86.86,0,0,0,.72-.31,1.57,1.57,0,0,0,.25-.94,1.52,1.52,0,0,0-.25-.93.84.84,0,0,0-.72-.32h-.78Z" style="fill:#232f3e"/><path d="M44.46,120.35l-.15-.51a1.42,1.42,0,0,1-.59.47,1.85,1.85,0,0,1-.78.18,1.56,1.56,0,0,1-1.18-.45,1.66,1.66,0,0,1-.44-1.22,1.69,1.69,0,0,1,.53-1.31,2.08,2.08,0,0,1,1.44-.47,4,4,0,0,1,.93.13v-.51a1.32,1.32,0,0,0-.17-.78.74.74,0,0,0-.6-.2,5.9,5.9,0,0,0-1.78.35v-1a3.07,3.07,0,0,1,.92-.33,5.57,5.57,0,0,1,1.16-.12,2.16,2.16,0,0,1,1.51.44,1.78,1.78,0,0,1,.47,1.39v3.94Zm-1-.92a1.19,1.19,0,0,0,.8-.35V118a2.38,2.38,0,0,0-.63-.07.69.69,0,0,0-.54.2.85.85,0,0,0-.18.59.82.82,0,0,0,.15.52A.47.47,0,0,0,43.42,119.43Z" style="fill:#232f3e"/><path d="M50.77,120.09a2,2,0,0,1-.64.26,3.53,3.53,0,0,1-.81.09,2.28,2.28,0,0,1-1.84-.73,3.91,3.91,0,0,1,0-4.32,2.36,2.36,0,0,1,1.88-.76,2.93,2.93,0,0,1,1.35.33v1a3.09,3.09,0,0,0-1-.19,1.05,1.05,0,0,0-.93.4,2.28,2.28,0,0,0-.29,1.29v.16a2.31,2.31,0,0,0,.28,1.28,1,1,0,0,0,.91.4,3.26,3.26,0,0,0,1.08-.21Z" style="fill:#232f3e"/><path d="M51.82,120.35v-8.14h1.62v5l1.64-2.44h1.83l-2,2.69,2.17,2.94H55.2l-1.76-2.6v2.6Z" style="fill:#232f3e"/><path d="M60.72,120.35l-.14-.51a1.56,1.56,0,0,1-.59.47,1.86,1.86,0,0,1-.79.18A1.57,1.57,0,0,1,58,120a1.65,1.65,0,0,1-.43-1.22,1.69,1.69,0,0,1,.53-1.31,2,2,0,0,1,1.43-.47,4,4,0,0,1,.93.13v-.51a1.33,1.33,0,0,0-.16-.78.77.77,0,0,0-.61-.2,5.9,5.9,0,0,0-1.77.35v-1a3,3,0,0,1,.91-.33,5.64,5.64,0,0,1,1.16-.12,2.19,2.19,0,0,1,1.52.44,1.82,1.82,0,0,1,.47,1.39v3.94Zm-1-.92a1.17,1.17,0,0,0,.79-.35V118a2.33,2.33,0,0,0-.63-.07.66.66,0,0,0-.53.2.81.81,0,0,0-.19.59.82.82,0,0,0,.15.52A.49.49,0,0,0,59.69,119.43Z" style="fill:#232f3e"/><path d="M66.3,119.71a1.72,1.72,0,0,1-2.66-.21,3.46,3.46,0,0,1-.52-2,3.6,3.6,0,0,1,.54-2.11,1.68,1.68,0,0,1,1.46-.77,1.75,1.75,0,0,1,.7.17,1.89,1.89,0,0,1,.64.45l.12-.48h1.35V120c0,1.86-.86,2.79-2.57,2.79a3.92,3.92,0,0,1-1.83-.44v-1a5.45,5.45,0,0,0,1.61.35,1.45,1.45,0,0,0,.7-.13.72.72,0,0,0,.35-.44,3.19,3.19,0,0,0,.11-1Zm-.66-.6a1.26,1.26,0,0,0,.66-.22V116a1.32,1.32,0,0,0-.74-.27.63.63,0,0,0-.6.42,3.23,3.23,0,0,0-.19,1.3A3,3,0,0,0,65,118.7.7.7,0,0,0,65.64,119.11Z" style="fill:#232f3e"/><path d="M70.56,117.92a1.71,1.71,0,0,0,.37,1.12,1.43,1.43,0,0,0,1.06.33,3.26,3.26,0,0,0,.68-.09,5.9,5.9,0,0,0,.8-.21v1a2.88,2.88,0,0,1-.83.31,4.77,4.77,0,0,1-1,.11c-1.72,0-2.58-1-2.58-2.95a3.37,3.37,0,0,1,.63-2.2,2.23,2.23,0,0,1,1.83-.76c1.36,0,2,.76,2,2.29a4.32,4.32,0,0,1-.12,1Zm.92-2.32c-.58,0-.88.46-.92,1.37h1.62v-.25a1.68,1.68,0,0,0-.17-.86A.59.59,0,0,0,71.48,115.6Z" style="fill:#232f3e"/></g><g id="ICONS_-_EDIT" data-name="ICONS - EDIT"><g id="MARK_-_AWS_Elemental_MediaPackage" data-name="MARK - AWS_Elemental_MediaPackage"><path d="M40,64.09a1,1,0,0,1-.5-.13l-20-11.55a1,1,0,0,1-.5-.86V28.45a1,1,0,0,1,.5-.86L39.5,16a1,1,0,0,1,1,0l20,11.55a1,1,0,0,1,.5.86v23.1a1,1,0,0,1-.5.86L40.5,64A1,1,0,0,1,40,64.09ZM39,52.53h2v8.83l17-9.81-5-2.89-4.5,2.6a1,1,0,0,1-1,0l-5-2.88a1,1,0,0,1-.5-.87V41.74a1,1,0,0,1,.5-.87l5-2.89a1,1,0,0,1,1,0l5,2.89a1,1,0,0,1,.5.87v5.19l5,2.89V30.19L51.35,34.6l-1-1.73L58,28.45,41,18.64v5.55l4.5,2.6a1,1,0,0,1,.5.86v5.78a1,1,0,0,1-.5.86l-5,2.89a1,1,0,0,1-1,0l-5-2.89a1,1,0,0,1-.5-.86V27.65a1,1,0,0,1,.5-.86l4.5-2.6V18.64L22,28.45l7.65,4.42-1,1.73L21,30.19V49.81l5-2.88v-5.2a1,1,0,0,1,.5-.87l5-2.88a1,1,0,0,1,1,0l5,2.88a1,1,0,0,1,.5.87V47.5a1,1,0,0,1-.5.87l-5,2.89a1,1,0,0,1-1,0L27,48.66l-5,2.89,17,9.81Zm5-5.6,4,2.31,4-2.31V42.31L48,40l-4,2.31Zm-16,0,4,2.31,4-2.31V42.31L32,40l-4,2.31Zm8-14.08,4,2.31,4-2.31V28.23l-4-2.31-4,2.31Z" style="fill:#fff"/></g></g></svg>