<svg xmlns="http://www.w3.org/2000/svg" width="80" height="115" viewBox="0 0 80 115"><title>architecture-product-card_Amazon_Lightsail</title><g id="CARDS"><rect x="1" y="1" width="78" height="78" style="fill:#232f3e"/><path d="M0,0V80H0v35H80V80h0V0ZM1,1H79V79H1Z" style="fill:#fff"/></g><g id="TEXT_-_EDIT" data-name="TEXT - EDIT"><path d="M25.35,92.35l-.43-1.82h-2l-.42,1.82H20.72L23,84.72H24.9l2.31,7.63Zm-2.18-2.92h1.49l-.76-3.16Z" style="fill:#232f3e"/><path d="M34.06,92.35V88.64a1.32,1.32,0,0,0-.14-.69.49.49,0,0,0-.46-.22,1.59,1.59,0,0,0-.8.26.5.5,0,0,1,0,.12v4.24H31V88.64a1.33,1.33,0,0,0-.13-.69.51.51,0,0,0-.47-.22,1.55,1.55,0,0,0-.78.26v4.36H28V86.72h1.35l.13.51a3.31,3.31,0,0,1,1.81-.65,1.25,1.25,0,0,1,1.2.67,3.38,3.38,0,0,1,1.83-.67,1.3,1.3,0,0,1,1,.42,1.85,1.85,0,0,1,.36,1.22v4.13Z" style="fill:#232f3e"/><path d="M40,92.35l-.14-.51a1.56,1.56,0,0,1-.59.47,1.86,1.86,0,0,1-.79.18A1.57,1.57,0,0,1,37.31,92a1.65,1.65,0,0,1-.43-1.22,1.69,1.69,0,0,1,.53-1.31A2,2,0,0,1,38.84,89a4,4,0,0,1,.93.13v-.51a1.33,1.33,0,0,0-.16-.78.77.77,0,0,0-.61-.2,5.9,5.9,0,0,0-1.77.35V87a3,3,0,0,1,.92-.33,5.47,5.47,0,0,1,1.15-.12,2.19,2.19,0,0,1,1.52.44,1.82,1.82,0,0,1,.47,1.39v3.94Zm-1-.92a1.17,1.17,0,0,0,.79-.35V90a2.3,2.3,0,0,0-.62-.07.67.67,0,0,0-.54.2.81.81,0,0,0-.19.59.82.82,0,0,0,.15.52A.49.49,0,0,0,39,91.43Z" style="fill:#232f3e"/><path d="M42.28,92.35V91.28l2.49-3.4h-2.4V86.72h4.14v1.07L44,91.19h2.54v1.16Z" style="fill:#232f3e"/><path d="M49.79,92.49A2.3,2.3,0,0,1,48,91.72a4,4,0,0,1,0-4.37,2.6,2.6,0,0,1,3.69,0,4,4,0,0,1,0,4.37A2.31,2.31,0,0,1,49.79,92.49Zm0-1.15a.67.67,0,0,0,.65-.43,4.79,4.79,0,0,0,0-2.74.69.69,0,0,0-1.29,0,4.79,4.79,0,0,0,0,2.74A.66.66,0,0,0,49.79,91.34Z" style="fill:#232f3e"/><path d="M56.55,92.35v-3.7a1.36,1.36,0,0,0-.14-.7.55.55,0,0,0-.5-.22,1.56,1.56,0,0,0-.81.26v4.36H53.44V86.72h1.35l.14.51a3.32,3.32,0,0,1,1.84-.65,1.35,1.35,0,0,1,1.07.42,1.83,1.83,0,0,1,.36,1.22v4.13Z" style="fill:#232f3e"/><path d="M20,106.35V98.72h1.69v6.4h2.84v1.23Z" style="fill:#232f3e"/><path d="M26.2,99.81a1.06,1.06,0,0,1-.71-.22.76.76,0,0,1-.27-.61.75.75,0,0,1,.27-.61,1.2,1.2,0,0,1,1.41,0,.77.77,0,0,1,.26.61.79.79,0,0,1-.26.61A1,1,0,0,1,26.2,99.81Zm-.83,6.54v-5.63H27v5.63Z" style="fill:#232f3e"/><path d="M31.38,105.71a1.72,1.72,0,0,1-2.66-.21,3.46,3.46,0,0,1-.52-2,3.6,3.6,0,0,1,.54-2.11,1.68,1.68,0,0,1,1.46-.77,1.75,1.75,0,0,1,.7.17,1.89,1.89,0,0,1,.64.45l.12-.48H33V106c0,1.86-.86,2.79-2.57,2.79a3.92,3.92,0,0,1-1.83-.44v-1a5.45,5.45,0,0,0,1.61.35,1.45,1.45,0,0,0,.7-.13.72.72,0,0,0,.35-.44,3.19,3.19,0,0,0,.11-1Zm-.66-.6a1.26,1.26,0,0,0,.66-.22V102a1.32,1.32,0,0,0-.73-.27.64.64,0,0,0-.61.42,3.23,3.23,0,0,0-.19,1.3,3,3,0,0,0,.21,1.28A.7.7,0,0,0,30.72,105.11Z" style="fill:#232f3e"/><path d="M37.54,106.35v-3.7a1.25,1.25,0,0,0-.15-.7.53.53,0,0,0-.49-.22,1.59,1.59,0,0,0-.82.26v4.36H34.43V98.21h1.65v2.91a3.19,3.19,0,0,1,1.67-.54,1.35,1.35,0,0,1,1.07.42,1.83,1.83,0,0,1,.37,1.22v4.13Z" style="fill:#232f3e"/><path d="M43.62,106.2a3.47,3.47,0,0,1-1.23.22,1.47,1.47,0,0,1-1.72-1.7v-2.9h-.74v-.92l.79-.15L41,99.21h1.36v1.51H43.6v1.1H42.32v2.77a.79.79,0,0,0,.14.52.7.7,0,0,0,.53.16,2.86,2.86,0,0,0,.63-.08Z" style="fill:#232f3e"/><path d="M46.5,104.77c0-.25-.17-.46-.52-.62l-.72-.35a1.68,1.68,0,0,1-1.13-1.59,1.42,1.42,0,0,1,.55-1.18,2.26,2.26,0,0,1,1.47-.45,3.57,3.57,0,0,1,1.53.35v1a5.56,5.56,0,0,0-.7-.19,3,3,0,0,0-.6-.07c-.52,0-.77.18-.77.54s.21.45.64.66l.72.34a1.9,1.9,0,0,1,.77.62,1.69,1.69,0,0,1,.24.93,1.56,1.56,0,0,1-.55,1.27,2.31,2.31,0,0,1-1.49.46,3.79,3.79,0,0,1-1.81-.44v-1a5.45,5.45,0,0,0,1.61.35.86.86,0,0,0,.57-.17A.56.56,0,0,0,46.5,104.77Z" style="fill:#232f3e"/><path d="M51.81,106.35l-.14-.51a1.56,1.56,0,0,1-.59.47,1.86,1.86,0,0,1-.79.18,1.57,1.57,0,0,1-1.18-.45,1.65,1.65,0,0,1-.43-1.22,1.69,1.69,0,0,1,.53-1.31,2,2,0,0,1,1.43-.47,4,4,0,0,1,.93.13v-.51a1.33,1.33,0,0,0-.16-.78.77.77,0,0,0-.61-.2A5.9,5.9,0,0,0,49,102v-1a3,3,0,0,1,.91-.33,5.64,5.64,0,0,1,1.16-.12,2.19,2.19,0,0,1,1.52.44,1.82,1.82,0,0,1,.47,1.39v3.94Zm-1-.92a1.17,1.17,0,0,0,.79-.35V104a2.33,2.33,0,0,0-.63-.07.66.66,0,0,0-.53.2.81.81,0,0,0-.19.59.82.82,0,0,0,.15.52A.49.49,0,0,0,50.78,105.43Z" style="fill:#232f3e"/><path d="M55.35,99.81a1.08,1.08,0,0,1-.71-.22.79.79,0,0,1-.26-.61.77.77,0,0,1,.26-.61,1,1,0,0,1,.71-.23,1,1,0,0,1,.7.23.75.75,0,0,1,.27.61.76.76,0,0,1-.27.61A1,1,0,0,1,55.35,99.81Zm-.83,6.54v-5.63h1.65v5.63Z" style="fill:#232f3e"/><path d="M60,106.25a2.7,2.7,0,0,1-1,.16A1.39,1.39,0,0,1,58,106a1.54,1.54,0,0,1-.36-1.12V98.21h1.65v6.54a.75.75,0,0,0,.08.4.36.36,0,0,0,.32.12,2.26,2.26,0,0,0,.35,0Z" style="fill:#232f3e"/></g><g id="ICONS_OUTLINED_FOR_LOCKUPS_-_EDIT" data-name="ICONS OUTLINED FOR LOCKUPS - EDIT"><g id="LS-Icon_2px-White"><rect x="30.5" y="44.5" width="8" height="8" style="fill:none"/><rect x="33" y="27" width="7" height="7" style="fill:none"/><rect x="51" y="42" width="7" height="7" style="fill:none"/><rect id="Bounds" x="17" y="15" width="50" height="50" style="fill:none"/><path d="M45,53.89a1.06,1.06,0,0,1-.31,0A1,1,0,0,1,44,53c-.65-6.16-3-10.56-6.56-12.07a1,1,0,0,1,0-1.84C40.92,37.57,43.31,33.17,44,27a1,1,0,0,1,.69-.84,1,1,0,0,1,1.05.28c2.24,2.47,6,7.52,6,13.56,0,6.42-4.58,12-6,13.56A1,1,0,0,1,45,53.89ZM39.84,40c2.85,2,4.88,5.66,5.78,10.48,1.66-2.25,4.06-6.23,4.06-10.48s-2.14-8-4-10.52C44.73,34.32,42.7,38,39.84,40Z" style="fill:#fff"/><polygon points="36.5 29.09 36.15 30.15 35.09 30.5 36.15 30.85 36.5 31.91 36.85 30.85 37.9 30.5 36.85 30.15 36.5 29.09 36.5 29.09" style="fill:#ec1c24"/><polygon points="36.5 33.49 35.75 31.25 33.51 30.5 35.75 29.75 36.5 27.51 37.24 29.75 39.48 30.5 37.24 31.25 36.5 33.49" style="fill:#fff"/><polygon points="54.5 44.09 54.15 45.15 53.09 45.5 54.15 45.85 54.5 46.91 54.85 45.85 55.9 45.5 54.85 45.15 54.5 44.09 54.5 44.09" style="fill:#ec1c24"/><polygon points="54.5 48.49 53.75 46.25 51.51 45.5 53.75 44.75 54.5 42.51 55.24 44.75 57.48 45.5 55.24 46.25 54.5 48.49" style="fill:#fff"/><polygon points="35.45 47.58 34.98 48.99 33.58 49.46 34.98 49.92 35.45 51.33 35.92 49.92 37.33 49.46 35.92 48.99 35.45 47.58 35.45 47.58" style="fill:#ec1c24"/><path d="M35.45,52.91l-.86-2.59L32,49.46l2.59-.87L35.45,46l.87,2.59,2.59.87-2.59.86Zm-.29-3.45.22.07.07.22.08-.22.22-.07-.22-.08-.08-.22-.07.22Z" style="fill:#fff"/><path d="M42.06,59.08A19,19,0,0,1,23.32,43.35a1,1,0,0,1,2-.34,17,17,0,1,0,0-6,1,1,0,0,1-2-.36A19,19,0,1,1,42.06,59.08Z" style="fill:#fff"/><path d="M20,41H18a1,1,0,1,1,0-2h2a1,1,0,0,1,0,2Z" style="fill:#fff"/><path d="M25,41H23a1,1,0,1,1,0-2h2a1,1,0,0,1,0,2Z" style="fill:#fff"/><path d="M30,41H28a1,1,0,1,1,0-2h2a1,1,0,0,1,0,2Z" style="fill:#fff"/><path d="M35,41H33a1,1,0,0,1,0-2h2a1,1,0,1,1,0,2Z" style="fill:#fff"/></g></g></svg>