<svg xmlns="http://www.w3.org/2000/svg" width="80" height="115" viewBox="0 0 80 115"><title>architecture-product-card_AWS_CloudTrail</title><g id="CARDS"><rect x="1" y="1" width="78" height="78" style="fill:#232f3e"/><path d="M0,0V80H0v35H80V80h0V0ZM1,1H79V79H1Z" style="fill:#fff"/></g><g id="TEXT_-_EDIT" data-name="TEXT - EDIT"><path d="M33.69,92.35l-.44-1.82h-2l-.42,1.82H29.06l2.31-7.63h1.87l2.3,7.63Zm-2.18-2.92H33l-.76-3.16Z" style="fill:#232f3e"/><path d="M40.89,92.35,40,86.72l-.89,5.63H37.19l-1.78-7.63h1.7l1.06,6.06L39.08,85h1.84l.94,5.65,1-6h1.66l-1.78,7.63Z" style="fill:#232f3e"/><path d="M46.84,89a3.55,3.55,0,0,1-1.27-1,2,2,0,0,1-.39-1.23,2,2,0,0,1,.34-1.17,2.11,2.11,0,0,1,.92-.77,3.18,3.18,0,0,1,1.34-.27,4.85,4.85,0,0,1,1.89.39v1.17A5.44,5.44,0,0,0,48,85.79a1.24,1.24,0,0,0-.79.23.75.75,0,0,0-.29.64.86.86,0,0,0,.18.56,2.32,2.32,0,0,0,.72.48l.65.32a5.12,5.12,0,0,1,1,.62,2,2,0,0,1,.54.69,2.29,2.29,0,0,1,.17.92,2,2,0,0,1-.74,1.65,3.09,3.09,0,0,1-2,.61,5.35,5.35,0,0,1-1.13-.12,3.76,3.76,0,0,1-.95-.32V90.92a7.29,7.29,0,0,0,1,.25,5.33,5.33,0,0,0,1,.11,1.34,1.34,0,0,0,.88-.25.86.86,0,0,0,.3-.71.84.84,0,0,0-.21-.58,2.47,2.47,0,0,0-.71-.47Z" style="fill:#232f3e"/><path d="M21,106.13a4.64,4.64,0,0,1-1.79.34q-3.37,0-3.37-3.9a4.4,4.4,0,0,1,.88-2.95,3.16,3.16,0,0,1,2.53-1,4.72,4.72,0,0,1,1.65.3v1.21a5.67,5.67,0,0,0-1.44-.23,1.6,1.6,0,0,0-1.4.61,3.29,3.29,0,0,0-.45,1.93v.25a3.35,3.35,0,0,0,.43,1.9,1.57,1.57,0,0,0,1.38.61,7.21,7.21,0,0,0,1.58-.26Z" style="fill:#232f3e"/><path d="M24.37,106.25a2.65,2.65,0,0,1-1,.16,1.43,1.43,0,0,1-1.08-.37,1.58,1.58,0,0,1-.35-1.12V98.21h1.65v6.54a.66.66,0,0,0,.08.4.34.34,0,0,0,.31.12,2,2,0,0,0,.35,0Z" style="fill:#232f3e"/><path d="M27.49,106.49a2.3,2.3,0,0,1-1.84-.77,4,4,0,0,1,0-4.37,2.6,2.6,0,0,1,3.69,0,4,4,0,0,1,0,4.37A2.31,2.31,0,0,1,27.49,106.49Zm0-1.15a.67.67,0,0,0,.65-.43,4.79,4.79,0,0,0,0-2.74.69.69,0,0,0-1.29,0,4.79,4.79,0,0,0,0,2.74A.66.66,0,0,0,27.49,105.34Z" style="fill:#232f3e"/><path d="M34.41,106.35l-.13-.51a3.18,3.18,0,0,1-1.79.65,1.22,1.22,0,0,1-1-.43,2,2,0,0,1-.35-1.24v-4.1h1.65v3.62a1.61,1.61,0,0,0,.13.77.47.47,0,0,0,.45.23,1.42,1.42,0,0,0,.76-.25v-4.37h1.65v5.63Z" style="fill:#232f3e"/><path d="M40.43,106.35l-.13-.49a2,2,0,0,1-.63.43,1.86,1.86,0,0,1-.72.15,1.75,1.75,0,0,1-1.51-.75,3.65,3.65,0,0,1-.54-2.13,3.73,3.73,0,0,1,.56-2.19,1.76,1.76,0,0,1,1.53-.79,2.08,2.08,0,0,1,.63.13,2.35,2.35,0,0,1,.61.33V98.21h1.65v8.14Zm-.92-1a1.34,1.34,0,0,0,.72-.22V102a1.51,1.51,0,0,0-.8-.26.7.7,0,0,0-.67.44,3.39,3.39,0,0,0-.21,1.39,3.05,3.05,0,0,0,.23,1.36A.77.77,0,0,0,39.51,105.32Z" style="fill:#232f3e"/><path d="M44.72,106.35V99.94h-2V98.72h5.69v1.22h-2v6.41Z" style="fill:#232f3e"/><path d="M48.77,106.35v-5.63h1.35l.18.73a2.5,2.5,0,0,1,.72-.59,1.49,1.49,0,0,1,.75-.19,2.56,2.56,0,0,1,.39,0V102a5,5,0,0,0-.64,0,2.47,2.47,0,0,0-1.1.26v4.11Z" style="fill:#232f3e"/><path d="M55.81,106.35l-.15-.51a1.49,1.49,0,0,1-.59.47,1.85,1.85,0,0,1-.78.18,1.56,1.56,0,0,1-1.18-.45,1.66,1.66,0,0,1-.44-1.22,1.69,1.69,0,0,1,.53-1.31,2.07,2.07,0,0,1,1.44-.47,4,4,0,0,1,.92.13v-.51a1.33,1.33,0,0,0-.16-.78.77.77,0,0,0-.61-.2A5.9,5.9,0,0,0,53,102v-1a3.07,3.07,0,0,1,.92-.33,5.47,5.47,0,0,1,1.15-.12,2.19,2.19,0,0,1,1.52.44,1.78,1.78,0,0,1,.47,1.39v3.94Zm-1-.92a1.17,1.17,0,0,0,.79-.35V104a2.25,2.25,0,0,0-.62-.07.68.68,0,0,0-.54.2.85.85,0,0,0-.18.59.82.82,0,0,0,.15.52A.47.47,0,0,0,54.77,105.43Z" style="fill:#232f3e"/><path d="M59.35,99.81a1,1,0,0,1-.71-.22.76.76,0,0,1-.27-.61.75.75,0,0,1,.27-.61,1.2,1.2,0,0,1,1.41,0,.77.77,0,0,1,.26.61.79.79,0,0,1-.26.61A1,1,0,0,1,59.35,99.81Zm-.83,6.54v-5.63h1.65v5.63Z" style="fill:#232f3e"/><path d="M64,106.25a2.69,2.69,0,0,1-1,.16A1.43,1.43,0,0,1,62,106a1.54,1.54,0,0,1-.36-1.12V98.21h1.65v6.54a.75.75,0,0,0,.08.4.37.37,0,0,0,.32.12,2.14,2.14,0,0,0,.35,0Z" style="fill:#232f3e"/></g><g id="ICONS_-_EDIT" data-name="ICONS - EDIT"><path d="M52.62,54.71H36v-2H56.81C57,52.69,63,52.05,63,46c0-5.12-4.3-6.39-6.15-6.69a1,1,0,0,1-.83-1.1c0-2.23-.94-3.84-2.58-4.39a3.66,3.66,0,0,0-4.07,1.29,1,1,0,0,1-.94.39,1,1,0,0,1-.8-.65,11.79,11.79,0,0,0-2.77-4.49,9.93,9.93,0,0,0-11.17-2.19,10.29,10.29,0,0,0-5.85,9l.08,1.27a1,1,0,0,1-.75,1,6.6,6.6,0,0,0-4.63,3.71l-1.85-.76a8.3,8.3,0,0,1,5.19-4.65l0-.54a12.22,12.22,0,0,1,7.07-10.85A11.94,11.94,0,0,1,46.26,28.9a13.38,13.38,0,0,1,2.66,3.82,5.63,5.63,0,0,1,5.15-.84c2.27.76,3.7,2.82,3.92,5.58,3.52.85,7,3.46,7,8.5,0,6.35-5.3,8.5-8.1,8.75Z" style="fill:#fff"/><rect x="15.02" y="52.71" width="2" height="2" style="fill:#fff"/><rect x="19.02" y="52.71" width="7" height="2" style="fill:#fff"/><rect x="28.02" y="52.71" width="6" height="2" style="fill:#fff"/><rect x="16.02" y="48.71" width="9" height="2" style="fill:#fff"/><rect x="32.02" y="48.71" width="12" height="2" style="fill:#fff"/><rect x="28.02" y="44.71" width="6" height="2" style="fill:#fff"/><rect x="18.02" y="44.71" width="8" height="2" style="fill:#fff"/><rect x="27.02" y="48.71" width="3" height="2" style="fill:#fff"/></g></svg>