<svg xmlns="http://www.w3.org/2000/svg" width="80" height="115" viewBox="0 0 80 115"><title>architecture-product-card_Amazon_Translate</title><g id="CARDS"><rect x="1" y="1" width="78" height="78" style="fill:#232f3e"/><path d="M0,0V80H0v35H80V80h0V0ZM1,1H79V79H1Z" style="fill:#fff"/></g><g id="TEXT_-_EDIT" data-name="TEXT - EDIT"><path d="M25.35,92.35l-.43-1.82h-2l-.42,1.82H20.72L23,84.72H24.9l2.31,7.63Zm-2.18-2.92h1.49l-.76-3.16Z" style="fill:#232f3e"/><path d="M34.06,92.35V88.64a1.32,1.32,0,0,0-.14-.69.49.49,0,0,0-.46-.22,1.59,1.59,0,0,0-.8.26.5.5,0,0,1,0,.12v4.24H31V88.64a1.33,1.33,0,0,0-.13-.69.51.51,0,0,0-.47-.22,1.55,1.55,0,0,0-.78.26v4.36H28V86.72h1.35l.13.51a3.31,3.31,0,0,1,1.81-.65,1.25,1.25,0,0,1,1.2.67,3.38,3.38,0,0,1,1.83-.67,1.3,1.3,0,0,1,1,.42,1.85,1.85,0,0,1,.36,1.22v4.13Z" style="fill:#232f3e"/><path d="M40,92.35l-.14-.51a1.56,1.56,0,0,1-.59.47,1.86,1.86,0,0,1-.79.18A1.57,1.57,0,0,1,37.31,92a1.65,1.65,0,0,1-.43-1.22,1.69,1.69,0,0,1,.53-1.31A2,2,0,0,1,38.84,89a4,4,0,0,1,.93.13v-.51a1.33,1.33,0,0,0-.16-.78.77.77,0,0,0-.61-.2,5.9,5.9,0,0,0-1.77.35V87a3,3,0,0,1,.92-.33,5.47,5.47,0,0,1,1.15-.12,2.19,2.19,0,0,1,1.52.44,1.82,1.82,0,0,1,.47,1.39v3.94Zm-1-.92a1.17,1.17,0,0,0,.79-.35V90a2.3,2.3,0,0,0-.62-.07.67.67,0,0,0-.54.2.81.81,0,0,0-.19.59.82.82,0,0,0,.15.52A.49.49,0,0,0,39,91.43Z" style="fill:#232f3e"/><path d="M42.28,92.35V91.28l2.49-3.4h-2.4V86.72h4.14v1.07L44,91.19h2.54v1.16Z" style="fill:#232f3e"/><path d="M49.79,92.49A2.3,2.3,0,0,1,48,91.72a4,4,0,0,1,0-4.37,2.6,2.6,0,0,1,3.69,0,4,4,0,0,1,0,4.37A2.31,2.31,0,0,1,49.79,92.49Zm0-1.15a.67.67,0,0,0,.65-.43,4.79,4.79,0,0,0,0-2.74.69.69,0,0,0-1.29,0,4.79,4.79,0,0,0,0,2.74A.66.66,0,0,0,49.79,91.34Z" style="fill:#232f3e"/><path d="M56.55,92.35v-3.7a1.36,1.36,0,0,0-.14-.7.55.55,0,0,0-.5-.22,1.56,1.56,0,0,0-.81.26v4.36H53.44V86.72h1.35l.14.51a3.32,3.32,0,0,1,1.84-.65,1.35,1.35,0,0,1,1.07.42,1.83,1.83,0,0,1,.36,1.22v4.13Z" style="fill:#232f3e"/><path d="M19.9,106.35V99.94h-2V98.72h5.69v1.22h-2v6.41Z" style="fill:#232f3e"/><path d="M24,106.35v-5.63H25.3l.18.73a2.61,2.61,0,0,1,.71-.59,1.56,1.56,0,0,1,.76-.19l.38,0V102a4.85,4.85,0,0,0-.64,0,2.43,2.43,0,0,0-1.09.26v4.11Z" style="fill:#232f3e"/><path d="M31,106.35l-.14-.51a1.56,1.56,0,0,1-.59.47,1.86,1.86,0,0,1-.79.18,1.57,1.57,0,0,1-1.18-.45,1.65,1.65,0,0,1-.43-1.22,1.69,1.69,0,0,1,.53-1.31,2,2,0,0,1,1.43-.47,4,4,0,0,1,.93.13v-.51a1.33,1.33,0,0,0-.16-.78.77.77,0,0,0-.61-.2,5.9,5.9,0,0,0-1.77.35v-1a3,3,0,0,1,.91-.33,5.64,5.64,0,0,1,1.16-.12,2.19,2.19,0,0,1,1.52.44,1.82,1.82,0,0,1,.47,1.39v3.94Zm-1-.92a1.17,1.17,0,0,0,.79-.35V104a2.33,2.33,0,0,0-.63-.07.66.66,0,0,0-.53.2.81.81,0,0,0-.19.59.82.82,0,0,0,.15.52A.49.49,0,0,0,30,105.43Z" style="fill:#232f3e"/><path d="M36.77,106.35v-3.7a1.25,1.25,0,0,0-.15-.7.54.54,0,0,0-.49-.22,1.57,1.57,0,0,0-.82.26v4.36H33.66v-5.63H35l.13.51a3.35,3.35,0,0,1,1.84-.65,1.35,1.35,0,0,1,1.07.42,1.83,1.83,0,0,1,.37,1.22v4.13Z" style="fill:#232f3e"/><path d="M41.81,104.77c0-.25-.17-.46-.52-.62l-.72-.35a1.7,1.7,0,0,1-1.13-1.59A1.42,1.42,0,0,1,40,101a2.26,2.26,0,0,1,1.47-.45,3.57,3.57,0,0,1,1.53.35v1a4.77,4.77,0,0,0-.7-.19,3,3,0,0,0-.6-.07c-.51,0-.77.18-.77.54s.21.45.64.66l.72.34a1.83,1.83,0,0,1,.77.62,1.69,1.69,0,0,1,.24.93,1.56,1.56,0,0,1-.55,1.27,2.28,2.28,0,0,1-1.48.46,3.83,3.83,0,0,1-1.82-.44v-1a5.45,5.45,0,0,0,1.61.35.86.86,0,0,0,.57-.17A.56.56,0,0,0,41.81,104.77Z" style="fill:#232f3e"/><path d="M46.62,106.25a2.69,2.69,0,0,1-1,.16,1.4,1.4,0,0,1-1.08-.37,1.54,1.54,0,0,1-.36-1.12V98.21h1.65v6.54a.75.75,0,0,0,.08.4.36.36,0,0,0,.32.12,2.26,2.26,0,0,0,.35,0Z" style="fill:#232f3e"/><path d="M50.53,106.35l-.14-.51a1.49,1.49,0,0,1-.59.47,1.85,1.85,0,0,1-.78.18,1.56,1.56,0,0,1-1.18-.45,1.66,1.66,0,0,1-.44-1.22,1.69,1.69,0,0,1,.53-1.31,2.07,2.07,0,0,1,1.44-.47,4,4,0,0,1,.92.13v-.51a1.33,1.33,0,0,0-.16-.78.77.77,0,0,0-.61-.2,5.9,5.9,0,0,0-1.77.35v-1a3,3,0,0,1,.92-.33,5.47,5.47,0,0,1,1.15-.12,2.19,2.19,0,0,1,1.52.44,1.82,1.82,0,0,1,.47,1.39v3.94Zm-1-.92a1.17,1.17,0,0,0,.79-.35V104a2.25,2.25,0,0,0-.62-.07.68.68,0,0,0-.54.2.85.85,0,0,0-.19.59.77.77,0,0,0,.16.52A.47.47,0,0,0,49.5,105.43Z" style="fill:#232f3e"/><path d="M56.25,106.2a3.55,3.55,0,0,1-1.23.22,1.83,1.83,0,0,1-1.32-.4,1.81,1.81,0,0,1-.41-1.3v-2.9h-.73v-.92l.78-.15.24-1.54h1.36v1.51h1.28v1.1H54.94v2.77a.73.73,0,0,0,.15.52.69.69,0,0,0,.53.16,3,3,0,0,0,.63-.08Z" style="fill:#232f3e"/><path d="M58.34,103.92A1.77,1.77,0,0,0,58.7,105a1.45,1.45,0,0,0,1.06.33,3.18,3.18,0,0,0,.68-.09,5.54,5.54,0,0,0,.8-.21v1a2.77,2.77,0,0,1-.83.31,4.75,4.75,0,0,1-1,.11c-1.72,0-2.58-1-2.58-2.95a3.37,3.37,0,0,1,.63-2.2,2.23,2.23,0,0,1,1.83-.76c1.36,0,2,.76,2,2.29a4.32,4.32,0,0,1-.12,1Zm.92-2.32c-.58,0-.89.46-.92,1.37H60v-.25a1.68,1.68,0,0,0-.17-.86A.6.6,0,0,0,59.26,101.6Z" style="fill:#232f3e"/></g><g id="ICONS_-_EDIT" data-name="ICONS - EDIT"><rect x="39.5" y="23.99" width="2" height="5.03" style="fill:#fff"/><path d="M36.5,49h-18a1,1,0,0,1-1-1V42h2v5h17Z" style="fill:#fff"/><path d="M19.5,37h-2V16a1,1,0,0,1,1-1H32.59v2H19.5Z" style="fill:#fff"/><path d="M40.5,25h-8a1,1,0,0,1-1-1V16a1,1,0,0,1,1.71-.71l8,8A1,1,0,0,1,40.5,25Zm-7-2h4.59L33.5,18.4Z" style="fill:#fff"/><text transform="translate(22.56 41.48)" style="font-size:20px;fill:#fff;font-family:AmazonEmber-Regular, Amazon Ember">A</text><path d="M61.5,65h-22a1,1,0,0,1-1-1V32a1,1,0,0,1,1-1H53.65v2H40.5V63h20V40h2V64A1,1,0,0,1,61.5,65Z" style="fill:#fff"/><path d="M61.5,41h-8a1,1,0,0,1-1-1V32a1,1,0,0,1,.62-.93,1,1,0,0,1,1.09.22l8,8A1,1,0,0,1,61.5,41Zm-7-2h4.59L54.5,34.4Z" style="fill:#fff"/><text transform="translate(43.27 55.71)" style="font-size:14px;fill:#fff;stroke:#fff;stroke-miterlimit:10;font-family:KozGoPr6N-Regular-83pv-RKSJ-H, Kozuka Gothic Pr6N">文</text><path d="M32.79,57.72,28.5,53.43l-4.29,4.29-1.42-1.41,5-5a1,1,0,0,1,1.42,0l5,5Z" style="fill:#fff"/><path d="M36.5,65h-3a6,6,0,0,1-6-6V52h2v7a4,4,0,0,0,4,4h3Z" style="fill:#fff"/><path d="M51.5,29a1,1,0,0,1-.71-.3l-5-5,1.42-1.41L51.5,26.6l4.29-4.29,1.42,1.41-5,5A1,1,0,0,1,51.5,29Z" style="fill:#fff"/><path d="M52.5,28h-2v-7a4,4,0,0,0-4-4h-4V15h4a6,6,0,0,1,6,6Z" style="fill:#fff"/></g></svg>