<svg xmlns="http://www.w3.org/2000/svg" width="80" height="100" viewBox="0 0 80 100"><title>architecture-product-card_Amazon_FSx</title><g id="CARDS"><rect x="1" y="1" width="78" height="78" style="fill:#232f3e"/><path d="M0,0V80H0v20H80V80h0V0ZM1,1H79V79H1Z" style="fill:#fff"/></g><g id="TEXT_-_EDIT" data-name="TEXT - EDIT"><path d="M15.79,92.35l-.43-1.82h-2l-.42,1.82H11.16l2.32-7.63h1.87l2.3,7.63Zm-2.18-2.92H15.1l-.75-3.16Z" style="fill:#232f3e"/><path d="M24.5,92.35V88.64a1.32,1.32,0,0,0-.14-.69.49.49,0,0,0-.46-.22,1.59,1.59,0,0,0-.8.26.5.5,0,0,1,0,.12v4.24H21.47V88.64a1.32,1.32,0,0,0-.14-.69.51.51,0,0,0-.47-.22,1.55,1.55,0,0,0-.78.26v4.36H18.43V86.72h1.35l.13.51a3.31,3.31,0,0,1,1.81-.65,1.25,1.25,0,0,1,1.2.67,3.38,3.38,0,0,1,1.83-.67,1.3,1.3,0,0,1,1,.42,1.85,1.85,0,0,1,.36,1.22v4.13Z" style="fill:#232f3e"/><path d="M30.45,92.35l-.14-.51a1.49,1.49,0,0,1-.59.47,1.85,1.85,0,0,1-.78.18A1.58,1.58,0,0,1,27.75,92a1.91,1.91,0,0,1,.1-2.53A2,2,0,0,1,29.28,89a4,4,0,0,1,.93.13v-.51a1.33,1.33,0,0,0-.16-.78.77.77,0,0,0-.61-.2,5.9,5.9,0,0,0-1.77.35V87a3,3,0,0,1,.92-.33,5.47,5.47,0,0,1,1.15-.12,2.19,2.19,0,0,1,1.52.44,1.82,1.82,0,0,1,.47,1.39v3.94Zm-1-.92a1.17,1.17,0,0,0,.79-.35V90a2.3,2.3,0,0,0-.62-.07.67.67,0,0,0-.54.2.81.81,0,0,0-.19.59.82.82,0,0,0,.15.52A.49.49,0,0,0,29.42,91.43Z" style="fill:#232f3e"/><path d="M32.72,92.35V91.28l2.49-3.4h-2.4V86.72H37v1.07l-2.5,3.4H37v1.16Z" style="fill:#232f3e"/><path d="M40.23,92.49a2.3,2.3,0,0,1-1.84-.77,4,4,0,0,1,0-4.37,2.6,2.6,0,0,1,3.69,0,4,4,0,0,1,0,4.37A2.29,2.29,0,0,1,40.23,92.49Zm0-1.15a.67.67,0,0,0,.65-.43,4.79,4.79,0,0,0,0-2.74.69.69,0,0,0-1.29,0,4.79,4.79,0,0,0,0,2.74A.66.66,0,0,0,40.23,91.34Z" style="fill:#232f3e"/><path d="M47,92.35v-3.7a1.36,1.36,0,0,0-.14-.7.55.55,0,0,0-.5-.22,1.56,1.56,0,0,0-.81.26v4.36H43.89V86.72h1.34l.14.51a3.32,3.32,0,0,1,1.84-.65,1.35,1.35,0,0,1,1.07.42,1.83,1.83,0,0,1,.36,1.22v4.13Z" style="fill:#232f3e"/><path d="M52.69,92.35V84.72H57V85.9H54.38V88h2.08v1.17H54.38v3.22Z" style="fill:#232f3e"/><path d="M59.39,89a3.7,3.7,0,0,1-1.28-1,2,2,0,0,1-.38-1.23,2.06,2.06,0,0,1,.33-1.17,2.2,2.2,0,0,1,.93-.77,3.14,3.14,0,0,1,1.34-.27,4.88,4.88,0,0,1,1.89.39v1.17a5.44,5.44,0,0,0-1.72-.33,1.29,1.29,0,0,0-.8.23.78.78,0,0,0-.29.64.86.86,0,0,0,.19.56,2.2,2.2,0,0,0,.72.48L61,88a4.73,4.73,0,0,1,1,.62,1.76,1.76,0,0,1,.54.69,2.13,2.13,0,0,1,.18.92,2,2,0,0,1-.74,1.65,3.12,3.12,0,0,1-2,.61,5.52,5.52,0,0,1-1.14-.12,4.06,4.06,0,0,1-.95-.32V90.92a7.45,7.45,0,0,0,1,.25,5.33,5.33,0,0,0,1,.11,1.31,1.31,0,0,0,.87-.25.94.94,0,0,0,.1-1.29,2.62,2.62,0,0,0-.71-.47Z" style="fill:#232f3e"/><path d="M66.63,92.35l-1-1.79-.85,1.79H63.15l1.72-2.83-1.7-2.8h1.77l.91,1.73.83-1.73h1.63l-1.7,2.8,1.79,2.83Z" style="fill:#232f3e"/></g><g id="ICONS_-_EDIT" data-name="ICONS - EDIT"><path d="M57.88,46l-.38-2c3.42-.68,5.09-2.86,5.09-6.67S60.28,30.92,55.72,30a1,1,0,0,1-.8-.92c-.22-3.85-2.44-5.21-4.28-5.21a4,4,0,0,0-3.18,1.63,1,1,0,0,1-1,.38,1,1,0,0,1-.79-.64,12.77,12.77,0,0,0-3.07-4.9,11,11,0,0,0-18.84,7.39A11.51,11.51,0,0,0,23.89,29a.45.45,0,0,1,0,.11h0a1,1,0,0,1-.85,1,7,7,0,0,0-5.64,7.13c0,.17,0,.35,0,.52a6.56,6.56,0,0,0,4.27,5.82L21,45.47a8.49,8.49,0,0,1-5.52-7.54c0-.24,0-.44,0-.65a8.8,8.8,0,0,1,6.42-8.85c0-.24,0-.47,0-.71A13,13,0,0,1,44.05,18.9a14.22,14.22,0,0,1,3,4.22,5.88,5.88,0,0,1,3.63-1.26c2.76,0,5.67,2,6.21,6.34,5,1.25,7.74,4.48,7.74,9.15C64.59,43.39,60.94,45.38,57.88,46Z" style="fill:#fff"/><path d="M27,53H24a1,1,0,0,1-1-1V38.68A2.68,2.68,0,0,1,25.68,36H27a2.26,2.26,0,0,1,2.25-2h3.46A2.26,2.26,0,0,1,35,36H47.32A2.68,2.68,0,0,1,50,38.68V40H48V38.68a.68.68,0,0,0-.68-.68H34a1,1,0,0,1-1-1v-.73a.27.27,0,0,0-.27-.27H29.27a.27.27,0,0,0-.27.27V37a1,1,0,0,1-1,1H25.68a.69.69,0,0,0-.68.68V51h2Z" style="fill:#fff"/><path d="M33,59H30a1,1,0,0,1-1-1V44.68A2.68,2.68,0,0,1,31.68,42H33a2.26,2.26,0,0,1,2.25-2h3.46A2.26,2.26,0,0,1,41,42H53.32A2.68,2.68,0,0,1,56,44.68V46H54V44.68a.68.68,0,0,0-.68-.68H40a1,1,0,0,1-1-1v-.73a.27.27,0,0,0-.27-.27H35.27a.27.27,0,0,0-.27.27V43a1,1,0,0,1-1,1H31.68a.69.69,0,0,0-.68.68V57h2Z" style="fill:#fff"/><path d="M61,65H36a1,1,0,0,1-1-1V50.68A2.68,2.68,0,0,1,37.68,48H39a2.26,2.26,0,0,1,2.25-2h3.46A2.26,2.26,0,0,1,47,48H59.32A2.68,2.68,0,0,1,62,50.68V64A1,1,0,0,1,61,65ZM37,63H60V50.68a.68.68,0,0,0-.68-.68H46a1,1,0,0,1-1-1v-.73a.27.27,0,0,0-.27-.27H41.27a.27.27,0,0,0-.27.27V49a1,1,0,0,1-1,1H37.68a.69.69,0,0,0-.68.68Z" style="fill:#fff"/></g></svg>