<svg xmlns="http://www.w3.org/2000/svg" width="80" height="130" viewBox="0 0 80 130"><title>architecture-product-card_AWS_Management_Console</title><g id="CARDS"><rect x="1" y="1" width="78" height="78" style="fill:#232f3e"/><path d="M0,0V80H0v50H80V80h0V0ZM1,1H79V79H1Z" style="fill:#fff"/></g><g id="TEXT_-_EDIT" data-name="TEXT - EDIT"><path d="M33.69,92.35l-.44-1.82h-2l-.42,1.82H29.06l2.31-7.63h1.87l2.3,7.63Zm-2.18-2.92H33l-.76-3.16Z" style="fill:#232f3e"/><path d="M40.89,92.35,40,86.72l-.89,5.63H37.19l-1.78-7.63h1.7l1.06,6.06L39.08,85h1.84l.94,5.65,1-6h1.66l-1.78,7.63Z" style="fill:#232f3e"/><path d="M46.84,89a3.55,3.55,0,0,1-1.27-1,2,2,0,0,1-.39-1.23,2,2,0,0,1,.34-1.17,2.11,2.11,0,0,1,.92-.77,3.18,3.18,0,0,1,1.34-.27,4.85,4.85,0,0,1,1.89.39v1.17A5.44,5.44,0,0,0,48,85.79a1.24,1.24,0,0,0-.79.23.75.75,0,0,0-.29.64.86.86,0,0,0,.18.56,2.32,2.32,0,0,0,.72.48l.65.32a5.12,5.12,0,0,1,1,.62,2,2,0,0,1,.54.69,2.29,2.29,0,0,1,.17.92,2,2,0,0,1-.74,1.65,3.09,3.09,0,0,1-2,.61,5.35,5.35,0,0,1-1.13-.12,4,4,0,0,1-1-.32V90.92a7.85,7.85,0,0,0,1,.25,5.33,5.33,0,0,0,1,.11,1.34,1.34,0,0,0,.88-.25.86.86,0,0,0,.3-.71.84.84,0,0,0-.21-.58,2.47,2.47,0,0,0-.71-.47Z" style="fill:#232f3e"/><path d="M15.3,106.35V101l-1.41,3.46H12.46L11.06,101v5.32H9.56V98.72h1.92L13.21,103l1.72-4.27h1.88v7.63Z" style="fill:#232f3e"/><path d="M21.24,106.35l-.14-.51a1.56,1.56,0,0,1-.59.47,1.86,1.86,0,0,1-.79.18,1.57,1.57,0,0,1-1.18-.45,1.65,1.65,0,0,1-.43-1.22,1.69,1.69,0,0,1,.53-1.31,2,2,0,0,1,1.43-.47,4,4,0,0,1,.93.13v-.51a1.33,1.33,0,0,0-.16-.78.77.77,0,0,0-.61-.2,5.9,5.9,0,0,0-1.77.35v-1a3,3,0,0,1,.91-.33,5.64,5.64,0,0,1,1.16-.12,2.19,2.19,0,0,1,1.52.44,1.82,1.82,0,0,1,.47,1.39v3.94Zm-1-.92a1.17,1.17,0,0,0,.79-.35V104a2.33,2.33,0,0,0-.63-.07.66.66,0,0,0-.53.2.81.81,0,0,0-.19.59.82.82,0,0,0,.15.52A.49.49,0,0,0,20.21,105.43Z" style="fill:#232f3e"/><path d="M27,106.35v-3.7a1.27,1.27,0,0,0-.14-.7.54.54,0,0,0-.49-.22,1.57,1.57,0,0,0-.82.26v4.36H23.92v-5.63h1.35l.13.51a3.32,3.32,0,0,1,1.84-.65,1.35,1.35,0,0,1,1.07.42,1.83,1.83,0,0,1,.36,1.22v4.13Z" style="fill:#232f3e"/><path d="M33,106.35l-.15-.51a1.49,1.49,0,0,1-.59.47,1.85,1.85,0,0,1-.78.18,1.56,1.56,0,0,1-1.18-.45,1.66,1.66,0,0,1-.44-1.22,1.69,1.69,0,0,1,.53-1.31,2.08,2.08,0,0,1,1.44-.47,3.88,3.88,0,0,1,.92.13v-.51a1.33,1.33,0,0,0-.16-.78.77.77,0,0,0-.61-.2,5.9,5.9,0,0,0-1.77.35v-1a3.07,3.07,0,0,1,.92-.33,5.54,5.54,0,0,1,1.15-.12,2.19,2.19,0,0,1,1.52.44,1.78,1.78,0,0,1,.47,1.39v3.94Zm-1-.92a1.17,1.17,0,0,0,.79-.35V104a2.25,2.25,0,0,0-.62-.07.69.69,0,0,0-.54.2.85.85,0,0,0-.18.59.82.82,0,0,0,.15.52A.47.47,0,0,0,31.94,105.43Z" style="fill:#232f3e"/><path d="M38.55,105.71a1.65,1.65,0,0,1-1.21.53,1.68,1.68,0,0,1-1.44-.74,3.46,3.46,0,0,1-.53-2,3.6,3.6,0,0,1,.54-2.11,1.69,1.69,0,0,1,1.46-.77,1.79,1.79,0,0,1,.71.17,2,2,0,0,1,.63.45l.12-.48h1.35V106c0,1.86-.85,2.79-2.57,2.79a3.92,3.92,0,0,1-1.83-.44v-1a5.5,5.5,0,0,0,1.62.35,1.48,1.48,0,0,0,.7-.13.76.76,0,0,0,.35-.44,3.26,3.26,0,0,0,.1-1Zm-.66-.6a1.26,1.26,0,0,0,.66-.22V102a1.32,1.32,0,0,0-.73-.27.63.63,0,0,0-.6.42,3.2,3.2,0,0,0-.2,1.3,3,3,0,0,0,.21,1.28A.71.71,0,0,0,37.89,105.11Z" style="fill:#232f3e"/><path d="M42.82,103.92a1.66,1.66,0,0,0,.36,1.12,1.45,1.45,0,0,0,1.06.33,3.26,3.26,0,0,0,.68-.09,5.54,5.54,0,0,0,.8-.21v1a2.77,2.77,0,0,1-.83.31,4.77,4.77,0,0,1-1,.11c-1.72,0-2.58-1-2.58-2.95a3.37,3.37,0,0,1,.64-2.2,2.22,2.22,0,0,1,1.82-.76c1.37,0,2,.76,2,2.29a4.32,4.32,0,0,1-.12,1Zm.91-2.32c-.57,0-.88.46-.91,1.37h1.61v-.25a1.59,1.59,0,0,0-.17-.86A.59.59,0,0,0,43.73,101.6Z" style="fill:#232f3e"/><path d="M53,106.35v-3.71a1.32,1.32,0,0,0-.14-.69.51.51,0,0,0-.47-.22,1.53,1.53,0,0,0-.79.26.49.49,0,0,1,0,.12v4.24H50v-3.71a1.32,1.32,0,0,0-.14-.69.5.5,0,0,0-.46-.22,1.56,1.56,0,0,0-.79.26v4.36H47v-5.63h1.35l.13.51a3.34,3.34,0,0,1,1.81-.65,1.27,1.27,0,0,1,1.21.67,3.38,3.38,0,0,1,1.83-.67,1.28,1.28,0,0,1,1,.42,1.85,1.85,0,0,1,.37,1.22v4.13Z" style="fill:#232f3e"/><path d="M57.3,103.92a1.66,1.66,0,0,0,.36,1.12,1.45,1.45,0,0,0,1.06.33,3.18,3.18,0,0,0,.68-.09,5.54,5.54,0,0,0,.8-.21v1a2.77,2.77,0,0,1-.83.31,4.77,4.77,0,0,1-1,.11c-1.71,0-2.57-1-2.57-2.95a3.37,3.37,0,0,1,.63-2.2,2.22,2.22,0,0,1,1.82-.76c1.37,0,2.05.76,2.05,2.29a4.32,4.32,0,0,1-.12,1Zm.91-2.32c-.57,0-.88.46-.91,1.37h1.61v-.25a1.7,1.7,0,0,0-.16-.86A.61.61,0,0,0,58.21,101.6Z" style="fill:#232f3e"/><path d="M64.55,106.35v-3.7a1.36,1.36,0,0,0-.14-.7.55.55,0,0,0-.5-.22,1.62,1.62,0,0,0-.82.26v4.36H61.44v-5.63h1.35l.14.51a3.32,3.32,0,0,1,1.84-.65,1.35,1.35,0,0,1,1.07.42,1.83,1.83,0,0,1,.36,1.22v4.13Z" style="fill:#232f3e"/><path d="M70.64,106.2a3.51,3.51,0,0,1-1.23.22,1.85,1.85,0,0,1-1.32-.4,1.81,1.81,0,0,1-.41-1.3v-2.9H67v-.92l.78-.15L68,99.21h1.36v1.51h1.28v1.1H69.33v2.77a.73.73,0,0,0,.15.52.69.69,0,0,0,.53.16,3,3,0,0,0,.63-.08Z" style="fill:#232f3e"/><path d="M27,120.13a4.63,4.63,0,0,1-1.78.34q-3.37,0-3.38-3.9a4.46,4.46,0,0,1,.88-2.95,3.16,3.16,0,0,1,2.53-1,4.72,4.72,0,0,1,1.65.3v1.21a5.61,5.61,0,0,0-1.44-.23,1.61,1.61,0,0,0-1.4.61,3.29,3.29,0,0,0-.45,1.93v.25a3.26,3.26,0,0,0,.44,1.9,1.55,1.55,0,0,0,1.37.61,7.12,7.12,0,0,0,1.58-.26Z" style="fill:#232f3e"/><path d="M30.25,120.49a2.31,2.31,0,0,1-1.85-.77,4,4,0,0,1,0-4.37,2.6,2.6,0,0,1,3.69,0,4,4,0,0,1,0,4.37A2.29,2.29,0,0,1,30.25,120.49Zm0-1.15a.66.66,0,0,0,.64-.43,4.79,4.79,0,0,0,0-2.74.66.66,0,0,0-.64-.44.67.67,0,0,0-.65.44,4.79,4.79,0,0,0,0,2.74A.67.67,0,0,0,30.25,119.34Z" style="fill:#232f3e"/><path d="M37,120.35v-3.7a1.25,1.25,0,0,0-.15-.7.54.54,0,0,0-.49-.22,1.57,1.57,0,0,0-.82.26v4.36H33.9v-5.63h1.35l.13.51a3.35,3.35,0,0,1,1.84-.65,1.35,1.35,0,0,1,1.07.42,1.83,1.83,0,0,1,.37,1.22v4.13Z" style="fill:#232f3e"/><path d="M42.05,118.77c0-.25-.17-.46-.51-.62l-.73-.35a1.7,1.7,0,0,1-1.13-1.59,1.45,1.45,0,0,1,.55-1.18,2.26,2.26,0,0,1,1.47-.45,3.57,3.57,0,0,1,1.53.35v1a5,5,0,0,0-.69-.19,3.15,3.15,0,0,0-.61-.07c-.51,0-.77.18-.77.54s.22.45.64.66l.72.34a1.83,1.83,0,0,1,.77.62,1.61,1.61,0,0,1,.25.93A1.57,1.57,0,0,1,43,120a2.28,2.28,0,0,1-1.48.46,3.83,3.83,0,0,1-1.82-.44v-1a5.45,5.45,0,0,0,1.61.35.86.86,0,0,0,.57-.17A.56.56,0,0,0,42.05,118.77Z" style="fill:#232f3e"/><path d="M46.69,120.49a2.29,2.29,0,0,1-1.84-.77,4,4,0,0,1,0-4.37,2.6,2.6,0,0,1,3.69,0,4,4,0,0,1,0,4.37A2.31,2.31,0,0,1,46.69,120.49Zm0-1.15a.67.67,0,0,0,.65-.43,4.79,4.79,0,0,0,0-2.74.67.67,0,0,0-.65-.44.65.65,0,0,0-.64.44,4.79,4.79,0,0,0,0,2.74A.65.65,0,0,0,46.69,119.34Z" style="fill:#232f3e"/><path d="M52.74,120.25a2.69,2.69,0,0,1-1,.16A1.4,1.4,0,0,1,50.7,120a1.54,1.54,0,0,1-.36-1.12v-6.71H52v6.54a.75.75,0,0,0,.08.4.36.36,0,0,0,.32.12,2.26,2.26,0,0,0,.35,0Z" style="fill:#232f3e"/><path d="M54.85,117.92a1.66,1.66,0,0,0,.36,1.12,1.45,1.45,0,0,0,1.06.33,3.26,3.26,0,0,0,.68-.09,5.54,5.54,0,0,0,.8-.21v1a2.77,2.77,0,0,1-.83.31,4.77,4.77,0,0,1-1,.11c-1.72,0-2.58-1-2.58-2.95a3.32,3.32,0,0,1,.64-2.2,2.22,2.22,0,0,1,1.82-.76c1.37,0,2,.76,2,2.29a4.32,4.32,0,0,1-.12,1Zm.91-2.32c-.58,0-.88.46-.91,1.37h1.61v-.25a1.59,1.59,0,0,0-.17-.86A.59.59,0,0,0,55.76,115.6Z" style="fill:#232f3e"/></g><g id="ICONS_-_EDIT" data-name="ICONS - EDIT"><path d="M64,64H57V62h6V18H17V62H45v2H16a1,1,0,0,1-1-1V17a1,1,0,0,1,1-1H64a1,1,0,0,1,1,1V63A1,1,0,0,1,64,64Z" style="fill:#fff"/><rect x="16" y="24" width="48" height="2" style="fill:#fff"/><path d="M42.68,58.92H37.32a1,1,0,0,1-1-1V57A13.81,13.81,0,0,1,33.71,56l-.63.63a1,1,0,0,1-1.41,0L27.88,52.8a1,1,0,0,1-.29-.71,1,1,0,0,1,.29-.71l.64-.63a13,13,0,0,1-1.09-2.61h-.89a1,1,0,0,1-1-1V41.79a1,1,0,0,1,1-1h.9a13.54,13.54,0,0,1,1.08-2.61l-.64-.64a1,1,0,0,1,0-1.41l3.79-3.79a1,1,0,0,1,.7-.29h0a1,1,0,0,1,.71.29l.64.64a13.72,13.72,0,0,1,2.6-1.08V31a1,1,0,0,1,1-1h5.36a1,1,0,0,1,1,1v.91A12.53,12.53,0,0,1,46.28,33l.64-.65a1,1,0,0,1,1.41,0l3.79,3.79a1,1,0,0,1,0,1.41l-.64.64a12.39,12.39,0,0,1,1.08,2.61h.9a1,1,0,0,1,1,1v5.35a1,1,0,0,1-1,1h-.9a12.61,12.61,0,0,1-1.08,2.61l.64.63a1,1,0,0,1,0,1.42l-3.79,3.78a1,1,0,0,1-1.41,0L46.29,56A13.18,13.18,0,0,1,43.68,57v.89A1,1,0,0,1,42.68,58.92Zm-4.36-2h3.36v-.66a1,1,0,0,1,.77-1,11.22,11.22,0,0,0,3.47-1.43,1,1,0,0,1,1.24.14l.47.47L50,52.09l-.48-.48a1,1,0,0,1-.14-1.24,10.65,10.65,0,0,0,1.43-3.45,1,1,0,0,1,1-.78h.67V42.79h-.67a1,1,0,0,1-1-.78,10.93,10.93,0,0,0-1.43-3.46,1,1,0,0,1,.14-1.24l.48-.48-2.37-2.37-.48.49a1,1,0,0,1-1.25.13,10.76,10.76,0,0,0-3.45-1.42,1,1,0,0,1-.77-1V32H38.32v.68a1,1,0,0,1-.78,1,11.21,11.21,0,0,0-3.45,1.43,1,1,0,0,1-1.24-.14l-.48-.48L30,36.83l.48.48a1,1,0,0,1,.14,1.25A11,11,0,0,0,29.19,42a1,1,0,0,1-1,.78h-.67v3.35h.67a1,1,0,0,1,1,.78,11.16,11.16,0,0,0,1.43,3.46,1,1,0,0,1-.13,1.24l-.48.47,2.37,2.37.48-.48a1,1,0,0,1,1.24-.13,11.11,11.11,0,0,0,3.45,1.43,1,1,0,0,1,.78,1ZM40,49.84a5.38,5.38,0,1,1,5.38-5.38A5.39,5.39,0,0,1,40,49.84Zm0-8.75a3.38,3.38,0,1,0,3.38,3.37A3.38,3.38,0,0,0,40,41.09Z" style="fill:#fff"/><rect x="19" y="20" width="2" height="2" style="fill:#fff"/><rect x="23" y="20" width="2" height="2" style="fill:#fff"/><rect x="27" y="20" width="2" height="2" style="fill:#fff"/></g></svg>