<svg xmlns="http://www.w3.org/2000/svg" width="80" height="115" viewBox="0 0 80 115"><title>Artboard 71</title><g id="CARDS"><rect x="1" y="1" width="78" height="78" style="fill:#232f3e"/><path d="M0,0V80H0v35H80V80h0V0ZM1,1H79V79H1Z" style="fill:#fff"/></g><g id="TEXT_-_EDIT" data-name="TEXT - EDIT"><path d="M33.69,92.35l-.44-1.82h-2l-.42,1.82H29.06l2.31-7.63h1.87l2.3,7.63Zm-2.18-2.92H33l-.76-3.16Z" style="fill:#232f3e"/><path d="M40.89,92.35,40,86.72l-.89,5.63H37.19l-1.78-7.63h1.7l1.06,6.06L39.08,85h1.84l.94,5.65,1-6h1.66l-1.78,7.63Z" style="fill:#232f3e"/><path d="M46.84,89a3.55,3.55,0,0,1-1.27-1,2,2,0,0,1-.39-1.23,2,2,0,0,1,.34-1.17,2.11,2.11,0,0,1,.92-.77,3.18,3.18,0,0,1,1.34-.27,4.85,4.85,0,0,1,1.89.39v1.17A5.44,5.44,0,0,0,48,85.79a1.24,1.24,0,0,0-.79.23.75.75,0,0,0-.29.64.86.86,0,0,0,.18.56,2.32,2.32,0,0,0,.72.48l.65.32a5.12,5.12,0,0,1,1,.62,2,2,0,0,1,.54.69,2.29,2.29,0,0,1,.17.92,2,2,0,0,1-.74,1.65,3.09,3.09,0,0,1-2,.61,5.35,5.35,0,0,1-1.13-.12,3.76,3.76,0,0,1-.95-.32V90.92a7.29,7.29,0,0,0,1,.25,5.33,5.33,0,0,0,1,.11,1.34,1.34,0,0,0,.88-.25.86.86,0,0,0,.3-.71.84.84,0,0,0-.21-.58,2.47,2.47,0,0,0-.71-.47Z" style="fill:#232f3e"/><path d="M14.27,106.13a4.59,4.59,0,0,1-1.78.34q-3.37,0-3.37-3.9A4.4,4.4,0,0,1,10,99.62a3.15,3.15,0,0,1,2.53-1,4.72,4.72,0,0,1,1.65.3v1.21a5.74,5.74,0,0,0-1.45-.23,1.62,1.62,0,0,0-1.4.61,3.37,3.37,0,0,0-.44,1.93v.25a3.27,3.27,0,0,0,.43,1.9,1.56,1.56,0,0,0,1.37.61,7.12,7.12,0,0,0,1.58-.26Z" style="fill:#232f3e"/><path d="M17.5,106.49a2.29,2.29,0,0,1-1.84-.77,4,4,0,0,1,0-4.37,2.29,2.29,0,0,1,1.84-.77,2.31,2.31,0,0,1,1.85.77,4,4,0,0,1,0,4.37A2.31,2.31,0,0,1,17.5,106.49Zm0-1.15a.67.67,0,0,0,.65-.43,4.79,4.79,0,0,0,0-2.74.67.67,0,0,0-.65-.44.65.65,0,0,0-.64.44,4.79,4.79,0,0,0,0,2.74A.65.65,0,0,0,17.5,105.34Z" style="fill:#232f3e"/><path d="M24.4,106.35l-.13-.49a2,2,0,0,1-.63.43,1.86,1.86,0,0,1-.72.15,1.75,1.75,0,0,1-1.51-.75,3.65,3.65,0,0,1-.54-2.13,3.73,3.73,0,0,1,.56-2.19,1.76,1.76,0,0,1,1.53-.79,2.08,2.08,0,0,1,.63.13,2.35,2.35,0,0,1,.61.33V98.21h1.65v8.14Zm-.92-1a1.34,1.34,0,0,0,.72-.22V102a1.51,1.51,0,0,0-.8-.26.7.7,0,0,0-.67.44,3.39,3.39,0,0,0-.21,1.39,3.05,3.05,0,0,0,.23,1.36A.77.77,0,0,0,23.48,105.32Z" style="fill:#232f3e"/><path d="M28.49,103.92a1.66,1.66,0,0,0,.36,1.12,1.45,1.45,0,0,0,1.06.33,3.18,3.18,0,0,0,.68-.09,5.54,5.54,0,0,0,.8-.21v1a2.77,2.77,0,0,1-.83.31,4.77,4.77,0,0,1-1,.11c-1.72,0-2.58-1-2.58-2.95a3.37,3.37,0,0,1,.64-2.2,2.22,2.22,0,0,1,1.82-.76c1.37,0,2.05.76,2.05,2.29a4.32,4.32,0,0,1-.12,1Zm.91-2.32c-.57,0-.88.46-.91,1.37H30.1v-.25a1.59,1.59,0,0,0-.17-.86A.58.58,0,0,0,29.4,101.6Z" style="fill:#232f3e"/><path d="M34.39,103.52v2.83H32.74V98.72h2.64a2.43,2.43,0,0,1,1.77.65,2.68,2.68,0,0,1,0,3.5,2.43,2.43,0,0,1-1.77.65Zm0-1.15h.79a.84.84,0,0,0,.71-.31,1.5,1.5,0,0,0,.25-.94,1.45,1.45,0,0,0-.25-.93.82.82,0,0,0-.71-.32h-.79Z" style="fill:#232f3e"/><path d="M39.89,99.81a1.09,1.09,0,0,1-.72-.22.79.79,0,0,1-.26-.61.77.77,0,0,1,.26-.61,1,1,0,0,1,.72-.23,1,1,0,0,1,.69.23.75.75,0,0,1,.27.61.76.76,0,0,1-.27.61A1,1,0,0,1,39.89,99.81Zm-.84,6.54v-5.63H40.7v5.63Z" style="fill:#232f3e"/><path d="M42.16,108.61v-7.89h1.35l.12.48a2.46,2.46,0,0,1,.71-.45,2.16,2.16,0,0,1,.79-.17,1.75,1.75,0,0,1,1.51.74,3.68,3.68,0,0,1,.52,2.14,3.79,3.79,0,0,1-.55,2.2,1.74,1.74,0,0,1-1.51.78,2.08,2.08,0,0,1-.68-.12,1.91,1.91,0,0,1-.61-.35v2.64Zm2.42-6.91a1.29,1.29,0,0,0-.77.25v3.11a1.43,1.43,0,0,0,.79.26.72.72,0,0,0,.7-.42,3.22,3.22,0,0,0,.21-1.37,3.34,3.34,0,0,0-.21-1.41A.74.74,0,0,0,44.58,101.7Z" style="fill:#232f3e"/><path d="M49.52,103.92a1.71,1.71,0,0,0,.37,1.12,1.43,1.43,0,0,0,1.06.33,3.26,3.26,0,0,0,.68-.09,5.9,5.9,0,0,0,.8-.21v1a2.88,2.88,0,0,1-.83.31,4.77,4.77,0,0,1-1,.11c-1.72,0-2.58-1-2.58-2.95a3.37,3.37,0,0,1,.63-2.2,2.23,2.23,0,0,1,1.83-.76c1.36,0,2,.76,2,2.29a4.32,4.32,0,0,1-.12,1Zm.92-2.32c-.58,0-.88.46-.92,1.37h1.62v-.25a1.68,1.68,0,0,0-.17-.86A.59.59,0,0,0,50.44,101.6Z" style="fill:#232f3e"/><path d="M56.07,106.25a2.7,2.7,0,0,1-1,.16A1.43,1.43,0,0,1,54,106a1.58,1.58,0,0,1-.35-1.12V98.21h1.65v6.54a.75.75,0,0,0,.08.4.36.36,0,0,0,.32.12,2.26,2.26,0,0,0,.35,0Z" style="fill:#232f3e"/><path d="M57.94,99.81a1.08,1.08,0,0,1-.71-.22A.79.79,0,0,1,57,99a.77.77,0,0,1,.26-.61,1,1,0,0,1,.71-.23,1,1,0,0,1,.7.23.75.75,0,0,1,.27.61.76.76,0,0,1-.27.61A1,1,0,0,1,57.94,99.81Zm-.83,6.54v-5.63h1.65v5.63Z" style="fill:#232f3e"/><path d="M63.33,106.35v-3.7a1.36,1.36,0,0,0-.14-.7.56.56,0,0,0-.5-.22,1.59,1.59,0,0,0-.82.26v4.36H60.22v-5.63h1.35l.13.51a3.38,3.38,0,0,1,1.85-.65,1.33,1.33,0,0,1,1.06.42,1.78,1.78,0,0,1,.37,1.22v4.13Z" style="fill:#232f3e"/><path d="M67.6,103.92A1.66,1.66,0,0,0,68,105a1.43,1.43,0,0,0,1.06.33,3.26,3.26,0,0,0,.68-.09,5.9,5.9,0,0,0,.8-.21v1a2.88,2.88,0,0,1-.83.31,4.77,4.77,0,0,1-1,.11c-1.72,0-2.58-1-2.58-2.95a3.37,3.37,0,0,1,.63-2.2,2.24,2.24,0,0,1,1.83-.76c1.36,0,2,.76,2,2.29a4.32,4.32,0,0,1-.12,1Zm.91-2.32c-.58,0-.88.46-.91,1.37h1.61v-.25a1.68,1.68,0,0,0-.17-.86A.59.59,0,0,0,68.51,101.6Z" style="fill:#232f3e"/></g><g id="ICONS_-_EDIT" data-name="ICONS - EDIT"><polyline points="57 36 57 64 23 64 23 36" style="fill:none;stroke:#fff;stroke-linejoin:round;stroke-width:2px"/><rect x="16" y="16" width="48" height="20" rx="4.46" ry="4.46" style="fill:none;stroke:#fff;stroke-linejoin:round;stroke-width:2px"/><polyline points="33.97 44.02 28.23 49.09 33.95 54.03" style="fill:none;stroke:#fff;stroke-linejoin:round;stroke-width:2px"/><polyline points="46.1 44.02 51.85 49.02 46.1 54.07" style="fill:none;stroke:#fff;stroke-linejoin:round;stroke-width:2px"/><line x1="43.92" y1="41.15" x2="37.04" y2="57.92" style="fill:none;stroke:#fff;stroke-linejoin:round;stroke-width:2px"/><line x1="16" y1="31" x2="34" y2="31" style="fill:none;stroke:#fff;stroke-linejoin:round;stroke-width:2px"/><line x1="41" y1="31" x2="37" y2="31" style="fill:none;stroke:#fff;stroke-linejoin:round;stroke-width:2px"/><line x1="44" y1="31" x2="64" y2="31" style="fill:none;stroke:#fff;stroke-linejoin:round;stroke-width:2px"/></g></svg>