<svg xmlns="http://www.w3.org/2000/svg" width="80" height="115" viewBox="0 0 80 115"><title>architecture-product-card_AWS_Marketplace</title><g id="CARDS"><rect x="1" y="1" width="78" height="78" style="fill:#232f3e"/><path d="M0,0V80H0v35H80V80h0V0ZM1,1H79V79H1Z" style="fill:#fff"/></g><g id="TEXT_-_EDIT" data-name="TEXT - EDIT"><path d="M33.69,92.35l-.44-1.82h-2l-.42,1.82H29.06l2.31-7.63h1.87l2.3,7.63Zm-2.18-2.92H33l-.76-3.16Z" style="fill:#232f3e"/><path d="M40.89,92.35,40,86.72l-.89,5.63H37.19l-1.78-7.63h1.7l1.06,6.06L39.08,85h1.84l.94,5.65,1-6h1.66l-1.78,7.63Z" style="fill:#232f3e"/><path d="M46.84,89a3.55,3.55,0,0,1-1.27-1,2,2,0,0,1-.39-1.23,2,2,0,0,1,.34-1.17,2.11,2.11,0,0,1,.92-.77,3.18,3.18,0,0,1,1.34-.27,4.85,4.85,0,0,1,1.89.39v1.17A5.44,5.44,0,0,0,48,85.79a1.24,1.24,0,0,0-.79.23.75.75,0,0,0-.29.64.86.86,0,0,0,.18.56,2.32,2.32,0,0,0,.72.48l.65.32a5.12,5.12,0,0,1,1,.62,2,2,0,0,1,.54.69,2.29,2.29,0,0,1,.17.92,2,2,0,0,1-.74,1.65,3.09,3.09,0,0,1-2,.61,5.35,5.35,0,0,1-1.13-.12,3.76,3.76,0,0,1-.95-.32V90.92a7.29,7.29,0,0,0,1,.25,5.33,5.33,0,0,0,1,.11,1.34,1.34,0,0,0,.88-.25.86.86,0,0,0,.3-.71.84.84,0,0,0-.21-.58,2.47,2.47,0,0,0-.71-.47Z" style="fill:#232f3e"/><path d="M16.93,106.35V101l-1.41,3.46H14.09L12.69,101v5.32H11.18V98.72h1.93L14.83,103l1.73-4.27h1.88v7.63Z" style="fill:#232f3e"/><path d="M22.87,106.35l-.15-.51a1.42,1.42,0,0,1-.59.47,1.81,1.81,0,0,1-.78.18,1.56,1.56,0,0,1-1.18-.45,1.88,1.88,0,0,1,.1-2.53A2,2,0,0,1,21.7,103a4,4,0,0,1,.93.13v-.51a1.32,1.32,0,0,0-.17-.78.74.74,0,0,0-.6-.2,5.9,5.9,0,0,0-1.78.35v-1a3.07,3.07,0,0,1,.92-.33,5.57,5.57,0,0,1,1.16-.12,2.21,2.21,0,0,1,1.52.44,1.82,1.82,0,0,1,.47,1.39v3.94Zm-1-.92a1.19,1.19,0,0,0,.8-.35V104a2.38,2.38,0,0,0-.63-.07.69.69,0,0,0-.54.2.85.85,0,0,0-.18.59.82.82,0,0,0,.15.52A.47.47,0,0,0,21.83,105.43Z" style="fill:#232f3e"/><path d="M25.54,106.35v-5.63h1.35l.18.73a2.5,2.5,0,0,1,.72-.59,1.55,1.55,0,0,1,.75-.19,2.56,2.56,0,0,1,.39,0V102a5,5,0,0,0-.64,0,2.47,2.47,0,0,0-1.1.26v4.11Z" style="fill:#232f3e"/><path d="M29.67,106.35V98.21H31.3v5l1.64-2.44h1.83l-2,2.69L35,106.35h-1.9l-1.76-2.6v2.6Z" style="fill:#232f3e"/><path d="M36.65,103.92A1.66,1.66,0,0,0,37,105a1.45,1.45,0,0,0,1.06.33,3.18,3.18,0,0,0,.68-.09,5.54,5.54,0,0,0,.8-.21v1a2.77,2.77,0,0,1-.83.31,4.77,4.77,0,0,1-1,.11c-1.71,0-2.57-1-2.57-2.95a3.37,3.37,0,0,1,.63-2.2,2.22,2.22,0,0,1,1.82-.76c1.37,0,2,.76,2,2.29a4.32,4.32,0,0,1-.12,1Zm.91-2.32c-.57,0-.88.46-.91,1.37h1.61v-.25a1.7,1.7,0,0,0-.16-.86A.61.61,0,0,0,37.56,101.6Z" style="fill:#232f3e"/><path d="M43.83,106.2a3.47,3.47,0,0,1-1.23.22,1.47,1.47,0,0,1-1.72-1.7v-2.9h-.74v-.92l.79-.15.24-1.54h1.36v1.51h1.28v1.1H42.53v2.77a.79.79,0,0,0,.14.52.7.7,0,0,0,.53.16,2.94,2.94,0,0,0,.63-.08Z" style="fill:#232f3e"/><path d="M44.71,108.61v-7.89h1.35l.12.48a2.46,2.46,0,0,1,.71-.45,2.07,2.07,0,0,1,.78-.17,1.76,1.76,0,0,1,1.52.74,4.67,4.67,0,0,1,0,4.34,1.74,1.74,0,0,1-1.51.78,2.09,2.09,0,0,1-.69-.12,2,2,0,0,1-.6-.35v2.64Zm2.42-6.91a1.27,1.27,0,0,0-.77.25v3.11a1.42,1.42,0,0,0,.78.26.73.73,0,0,0,.71-.42,3.22,3.22,0,0,0,.21-1.37,3.34,3.34,0,0,0-.21-1.41A.74.74,0,0,0,47.13,101.7Z" style="fill:#232f3e"/><path d="M53.25,106.25a2.69,2.69,0,0,1-1,.16,1.43,1.43,0,0,1-1.08-.37,1.54,1.54,0,0,1-.36-1.12V98.21H52.5v6.54a.75.75,0,0,0,.08.4.37.37,0,0,0,.32.12,2.14,2.14,0,0,0,.35,0Z" style="fill:#232f3e"/><path d="M57.17,106.35l-.15-.51a1.42,1.42,0,0,1-.59.47,1.85,1.85,0,0,1-.78.18,1.56,1.56,0,0,1-1.18-.45,1.66,1.66,0,0,1-.44-1.22,1.69,1.69,0,0,1,.53-1.31A2.08,2.08,0,0,1,56,103a4,4,0,0,1,.93.13v-.51a1.32,1.32,0,0,0-.17-.78.77.77,0,0,0-.61-.2,5.9,5.9,0,0,0-1.77.35v-1a3.07,3.07,0,0,1,.92-.33,5.57,5.57,0,0,1,1.16-.12A2.18,2.18,0,0,1,58,101a1.78,1.78,0,0,1,.47,1.39v3.94Zm-1-.92a1.19,1.19,0,0,0,.8-.35V104a2.38,2.38,0,0,0-.63-.07.69.69,0,0,0-.54.2.85.85,0,0,0-.18.59.82.82,0,0,0,.15.52A.47.47,0,0,0,56.13,105.43Z" style="fill:#232f3e"/><path d="M63.48,106.09a2,2,0,0,1-.64.26,3.59,3.59,0,0,1-.81.09,2.28,2.28,0,0,1-1.84-.73,3.91,3.91,0,0,1,0-4.32,2.36,2.36,0,0,1,1.88-.76,2.93,2.93,0,0,1,1.35.33v1a3.14,3.14,0,0,0-1-.19,1.05,1.05,0,0,0-.93.4,2.28,2.28,0,0,0-.29,1.29v.16a2.31,2.31,0,0,0,.28,1.28,1,1,0,0,0,.91.4,3.26,3.26,0,0,0,1.08-.21Z" style="fill:#232f3e"/><path d="M65.74,103.92a1.71,1.71,0,0,0,.37,1.12,1.43,1.43,0,0,0,1.06.33,3.26,3.26,0,0,0,.68-.09,5.9,5.9,0,0,0,.8-.21v1a2.88,2.88,0,0,1-.83.31,4.77,4.77,0,0,1-1,.11c-1.72,0-2.58-1-2.58-2.95a3.37,3.37,0,0,1,.63-2.2,2.24,2.24,0,0,1,1.83-.76c1.36,0,2.05.76,2.05,2.29a4.32,4.32,0,0,1-.12,1Zm.92-2.32c-.58,0-.88.46-.92,1.37h1.62v-.25a1.68,1.68,0,0,0-.17-.86A.59.59,0,0,0,66.66,101.6Z" style="fill:#232f3e"/></g><g id="ICONS_-_EDIT" data-name="ICONS - EDIT"><path d="M35,49.87a1,1,0,0,1-.5-.13l-8-4.62a1,1,0,0,1-.5-.86V35h2v8.66l7,4,7-4V35h2v9.24a1,1,0,0,1-.5.86l-8,4.62A1,1,0,0,1,35,49.87Z" style="fill:#fff"/><path d="M35,40.64a1,1,0,0,1-.5-.14l-8-4.61,1-1.74L35,38.48l7.5-4.33,1,1.74-8,4.61A1,1,0,0,1,35,40.64Z" style="fill:#fff"/><rect x="34" y="39.64" width="2" height="9.24" style="fill:#fff"/><path d="M43,36a1,1,0,0,1-.5-.14l-8-4.62,1-1.73L43,33.82l7-4V21.7l-7-4.05L35.5,22l-1-1.74,8-4.62a1,1,0,0,1,1,0l8,4.62a1,1,0,0,1,.5.87v9.24a1,1,0,0,1-.5.86l-8,4.62A1,1,0,0,1,43,36Z" style="fill:#fff"/><path d="M43,26.74a1,1,0,0,1-.5-.14L34.5,22l1-1.74L43,24.58l7.5-4.33,1,1.74-8,4.61A1,1,0,0,1,43,26.74Z" style="fill:#fff"/><rect x="42" y="25.74" width="2" height="9.24" style="fill:#fff"/><path d="M27,36a1,1,0,0,1-.5-.14l-8-4.62a1,1,0,0,1-.5-.86V21.12a1,1,0,0,1,.5-.87l8-4.62a1,1,0,0,1,1,0l8,4.62a1,1,0,0,1,.5.87v9.24a1,1,0,0,1-.5.86l-8,4.62A1,1,0,0,1,27,36Zm-7-6.2,7,4,7-4V21.7l-7-4.05L20,21.7Z" style="fill:#fff"/><path d="M27,26.74a1,1,0,0,1-.5-.14L18.5,22l1-1.74L27,24.58l7.5-4.33,1,1.74-8,4.61A1,1,0,0,1,27,26.74Z" style="fill:#fff"/><rect x="26" y="25.74" width="2" height="9.24" style="fill:#fff"/><path d="M26,64.5A4.5,4.5,0,1,1,30.5,60,4.51,4.51,0,0,1,26,64.5Zm0-7A2.5,2.5,0,1,0,28.5,60,2.5,2.5,0,0,0,26,57.5Z" style="fill:#fff"/><path d="M46,64.5A4.5,4.5,0,1,1,50.5,60,4.51,4.51,0,0,1,46,64.5Zm0-7A2.5,2.5,0,1,0,48.5,60,2.5,2.5,0,0,0,46,57.5Z" style="fill:#fff"/><rect x="45.76" y="53.5" width="4.47" height="2" transform="translate(-22.21 73.06) rotate(-63.43)" style="fill:#fff"/><path d="M51.53,53.5H20a1,1,0,0,1-1-.8l-3-15,2-.4,2.84,14.2H50.71L55,30.3a1,1,0,0,1,1-.8h9v2H56.81l-4.3,21.2A1,1,0,0,1,51.53,53.5Z" style="fill:#fff"/></g></svg>