<svg xmlns="http://www.w3.org/2000/svg" width="80" height="100" viewBox="0 0 80 100"><title>architecture-product-card_AWS_AppSync</title><g id="CARDS"><rect x="1" y="1" width="78" height="78" style="fill:#232f3e"/><path d="M0,0V80H0v20H80V80h0V0ZM1,1H79V79H1Z" style="fill:#fff"/></g><g id="TEXT_-_EDIT" data-name="TEXT - EDIT"><path d="M11.92,92.35l-.43-1.82h-2l-.42,1.82H7.3l2.31-7.63h1.87l2.3,7.63ZM9.74,89.43h1.5l-.76-3.16Z" style="fill:#232f3e"/><path d="M19.13,92.35l-.94-5.63-.89,5.63H15.43l-1.78-7.63h1.7l1.06,6.06L17.32,85h1.83l.94,5.65,1-6h1.66L21,92.35Z" style="fill:#232f3e"/><path d="M25.08,89a3.6,3.6,0,0,1-1.28-1,2,2,0,0,1-.38-1.23,2.06,2.06,0,0,1,.33-1.17,2.2,2.2,0,0,1,.93-.77A3.11,3.11,0,0,1,26,84.56a4.92,4.92,0,0,1,1.89.39v1.17a5.44,5.44,0,0,0-1.72-.33,1.29,1.29,0,0,0-.8.23.78.78,0,0,0-.29.64.86.86,0,0,0,.19.56,2.09,2.09,0,0,0,.72.48l.65.32a4.73,4.73,0,0,1,1,.62,1.76,1.76,0,0,1,.54.69,2.13,2.13,0,0,1,.18.92,2,2,0,0,1-.74,1.65,3.12,3.12,0,0,1-2,.61,5.52,5.52,0,0,1-1.14-.12,4.06,4.06,0,0,1-.95-.32V90.92a7.45,7.45,0,0,0,1,.25,5.33,5.33,0,0,0,1,.11,1.31,1.31,0,0,0,.87-.25.94.94,0,0,0,.1-1.29,2.62,2.62,0,0,0-.71-.47Z" style="fill:#232f3e"/><path d="M36,92.35l-.43-1.82h-2l-.42,1.82H31.4l2.32-7.63h1.87l2.3,7.63Zm-2.18-2.92h1.49l-.75-3.16Z" style="fill:#232f3e"/><path d="M38.67,94.61V86.72H40l.12.48a2.46,2.46,0,0,1,.71-.45,2.07,2.07,0,0,1,.78-.17,1.76,1.76,0,0,1,1.52.74,4.67,4.67,0,0,1,0,4.34,1.74,1.74,0,0,1-1.51.78,2.09,2.09,0,0,1-.69-.12,2,2,0,0,1-.6-.35v2.64Zm2.42-6.91a1.27,1.27,0,0,0-.77.25v3.11a1.42,1.42,0,0,0,.78.26.73.73,0,0,0,.71-.42A3.22,3.22,0,0,0,42,89.53a3.34,3.34,0,0,0-.21-1.41A.74.74,0,0,0,41.09,87.7Z" style="fill:#232f3e"/><path d="M44.81,94.61V86.72h1.35l.12.48a2.46,2.46,0,0,1,.71-.45,2.16,2.16,0,0,1,.79-.17,1.74,1.74,0,0,1,1.51.74,3.68,3.68,0,0,1,.52,2.14,3.87,3.87,0,0,1-.54,2.2,1.76,1.76,0,0,1-1.52.78,2.08,2.08,0,0,1-.68-.12,1.91,1.91,0,0,1-.61-.35v2.64Zm2.43-6.91a1.3,1.3,0,0,0-.78.25v3.11a1.43,1.43,0,0,0,.79.26.72.72,0,0,0,.7-.42,3.22,3.22,0,0,0,.21-1.37A3.34,3.34,0,0,0,48,88.12.73.73,0,0,0,47.24,87.7Z" style="fill:#232f3e"/><path d="M52.39,89a3.7,3.7,0,0,1-1.28-1,2,2,0,0,1-.38-1.23,2,2,0,0,1,.34-1.17,2.11,2.11,0,0,1,.92-.77,3.18,3.18,0,0,1,1.34-.27,4.85,4.85,0,0,1,1.89.39v1.17a5.44,5.44,0,0,0-1.72-.33,1.24,1.24,0,0,0-.79.23.75.75,0,0,0-.29.64.86.86,0,0,0,.18.56,2.32,2.32,0,0,0,.72.48L54,88a4.73,4.73,0,0,1,1,.62,1.89,1.89,0,0,1,.55.69,2.29,2.29,0,0,1,.17.92,2,2,0,0,1-.74,1.65,3.09,3.09,0,0,1-2,.61,5.35,5.35,0,0,1-1.13-.12,4,4,0,0,1-1-.32V90.92a7.85,7.85,0,0,0,1,.25,5.33,5.33,0,0,0,1,.11,1.34,1.34,0,0,0,.88-.25.86.86,0,0,0,.3-.71.84.84,0,0,0-.21-.58,2.47,2.47,0,0,0-.71-.47Z" style="fill:#232f3e"/><path d="M58.14,92.46l-2-5.74H57.9l.93,4.14.9-4.14h1.7l-2,6.48a2.48,2.48,0,0,1-.67,1.18,1.65,1.65,0,0,1-1.11.36,3.59,3.59,0,0,1-1.06-.16v-1a4.24,4.24,0,0,0,.58,0,.93.93,0,0,0,.68-.22,1.16,1.16,0,0,0,.3-.74Z" style="fill:#232f3e"/><path d="M65.3,92.35v-3.7a1.25,1.25,0,0,0-.15-.7.54.54,0,0,0-.49-.22,1.57,1.57,0,0,0-.82.26v4.36H62.19V86.72h1.35l.13.51a3.35,3.35,0,0,1,1.84-.65,1.35,1.35,0,0,1,1.07.42A1.83,1.83,0,0,1,67,88.22v4.13Z" style="fill:#232f3e"/><path d="M72,92.09a2,2,0,0,1-.64.26,3.44,3.44,0,0,1-.8.09,2.29,2.29,0,0,1-1.85-.73,4,4,0,0,1,0-4.32,2.38,2.38,0,0,1,1.88-.76A2.93,2.93,0,0,1,72,87v1a3.09,3.09,0,0,0-1-.19,1.05,1.05,0,0,0-.93.4,2.29,2.29,0,0,0-.28,1.29v.16A2.32,2.32,0,0,0,70,90.9a1,1,0,0,0,.91.4A3.22,3.22,0,0,0,72,91.09Z" style="fill:#232f3e"/></g><g id="ICONS_-_EDIT" data-name="ICONS - EDIT"><path d="M40.12,62.73a22.59,22.59,0,0,1-10.91-2.81l1-1.75a20.69,20.69,0,0,0,27.55-29l-1,5-2-.39,1.45-7.33a1,1,0,0,1,1.17-.79l7.34,1.45-.39,2-4.9-1A22.72,22.72,0,0,1,40.12,62.73ZM22.78,54a1.07,1.07,0,0,1-.25,0l-7.25-1.82.49-1.94,4.66,1.17A22.69,22.69,0,0,1,50.92,20.08l-1,1.75A20.69,20.69,0,0,0,22.33,50.67l1.3-5.15,1.94.48-1.82,7.25A1,1,0,0,1,22.78,54ZM48,49.7a4,4,0,0,1-3.88-3H35.9a4,4,0,1,1-3.87-5,4.18,4.18,0,0,1,1.07.14l4.18-7.24a4,4,0,1,1,5.5,0L47,41.84A4.18,4.18,0,0,1,48,41.7a4,4,0,0,1,0,8Zm0-6a2,2,0,1,0,2,2A2,2,0,0,0,48,43.7Zm-16,0a2,2,0,1,0,2,2A2,2,0,0,0,32,43.7Zm3.87,1h8.25a4,4,0,0,1,1.08-1.86L41,35.57a4,4,0,0,1-2,0l-4.19,7.28A4,4,0,0,1,35.9,44.7ZM40,29.7a2,2,0,1,0,2,2A2,2,0,0,0,40,29.7Z" style="fill:#fff"/></g></svg>