<svg xmlns="http://www.w3.org/2000/svg" width="80" height="115" viewBox="0 0 80 115"><title>architecture-product-card_AWS_Auto_Scaling</title><g id="CARDS"><rect x="1" y="1" width="78" height="78" style="fill:#232f3e"/><path d="M0,0V80H0v35H80V80h0V0ZM1,1H79V79H1Z" style="fill:#fff"/></g><g id="TEXT_-_EDIT" data-name="TEXT - EDIT"><path d="M33.69,92.35l-.44-1.82h-2l-.42,1.82H29.06l2.31-7.63h1.87l2.3,7.63Zm-2.18-2.92H33l-.76-3.16Z" style="fill:#232f3e"/><path d="M40.89,92.35,40,86.72l-.89,5.63H37.19l-1.78-7.63h1.7l1.06,6.06L39.08,85h1.84l.94,5.65,1-6h1.66l-1.78,7.63Z" style="fill:#232f3e"/><path d="M46.84,89a3.55,3.55,0,0,1-1.27-1,2,2,0,0,1-.39-1.23,2,2,0,0,1,.34-1.17,2.11,2.11,0,0,1,.92-.77,3.18,3.18,0,0,1,1.34-.27,4.85,4.85,0,0,1,1.89.39v1.17A5.44,5.44,0,0,0,48,85.79a1.24,1.24,0,0,0-.79.23.75.75,0,0,0-.29.64.86.86,0,0,0,.18.56,2.32,2.32,0,0,0,.72.48l.65.32a5.12,5.12,0,0,1,1,.62,2,2,0,0,1,.54.69,2.29,2.29,0,0,1,.17.92,2,2,0,0,1-.74,1.65,3.09,3.09,0,0,1-2,.61,5.35,5.35,0,0,1-1.13-.12,3.76,3.76,0,0,1-.95-.32V90.92a7.29,7.29,0,0,0,1,.25,5.33,5.33,0,0,0,1,.11,1.34,1.34,0,0,0,.88-.25.86.86,0,0,0,.3-.71.84.84,0,0,0-.21-.58,2.47,2.47,0,0,0-.71-.47Z" style="fill:#232f3e"/><path d="M14.58,106.35l-.43-1.82h-2l-.42,1.82H10l2.32-7.63h1.86l2.31,7.63Zm-2.18-2.92h1.49l-.76-3.16Z" style="fill:#232f3e"/><path d="M20.48,106.35l-.13-.51a3.15,3.15,0,0,1-1.78.65,1.25,1.25,0,0,1-1-.43,2,2,0,0,1-.35-1.24v-4.1h1.65v3.62a1.59,1.59,0,0,0,.14.77.44.44,0,0,0,.44.23,1.4,1.4,0,0,0,.76-.25v-4.37h1.65v5.63Z" style="fill:#232f3e"/><path d="M26.29,106.2a3.47,3.47,0,0,1-1.23.22,1.8,1.8,0,0,1-1.31-.4,1.81,1.81,0,0,1-.41-1.3v-2.9H22.6v-.92l.79-.15.24-1.54H25v1.51h1.28v1.1H25v2.77a.79.79,0,0,0,.14.52.7.7,0,0,0,.53.16,2.94,2.94,0,0,0,.63-.08Z" style="fill:#232f3e"/><path d="M29.4,106.49a2.27,2.27,0,0,1-1.84-.77,3.95,3.95,0,0,1,0-4.37,2.58,2.58,0,0,1,3.68,0,4,4,0,0,1,0,4.37A2.29,2.29,0,0,1,29.4,106.49Zm0-1.15a.66.66,0,0,0,.64-.43,4.79,4.79,0,0,0,0-2.74.66.66,0,0,0-.64-.44.67.67,0,0,0-.65.44,5,5,0,0,0,0,2.74A.67.67,0,0,0,29.4,105.34Z" style="fill:#232f3e"/><path d="M37,103a3.55,3.55,0,0,1-1.27-1,2,2,0,0,1-.39-1.23,2,2,0,0,1,.34-1.17,2.11,2.11,0,0,1,.92-.77A3.18,3.18,0,0,1,38,98.56a4.85,4.85,0,0,1,1.89.39v1.17a5.44,5.44,0,0,0-1.72-.33,1.26,1.26,0,0,0-.79.23.75.75,0,0,0-.29.64.86.86,0,0,0,.18.56,2.32,2.32,0,0,0,.72.48l.65.32a5.12,5.12,0,0,1,1,.62,2,2,0,0,1,.54.69,2.29,2.29,0,0,1,.17.92,2,2,0,0,1-.74,1.65,3.09,3.09,0,0,1-2,.61,5.35,5.35,0,0,1-1.13-.12,3.76,3.76,0,0,1-.95-.32v-1.15a7.29,7.29,0,0,0,1,.25,5.33,5.33,0,0,0,1,.11,1.32,1.32,0,0,0,.88-.25.86.86,0,0,0,.3-.71.84.84,0,0,0-.21-.58,2.47,2.47,0,0,0-.71-.47Z" style="fill:#232f3e"/><path d="M45.08,106.09a1.93,1.93,0,0,1-.63.26,3.59,3.59,0,0,1-.81.09,2.27,2.27,0,0,1-1.84-.73,3.24,3.24,0,0,1-.63-2.16,3.16,3.16,0,0,1,.67-2.16,2.34,2.34,0,0,1,1.87-.76,2.93,2.93,0,0,1,1.35.33v1a3.08,3.08,0,0,0-1-.19,1.06,1.06,0,0,0-.94.4,2.29,2.29,0,0,0-.28,1.29v.16a2.23,2.23,0,0,0,.28,1.28,1,1,0,0,0,.9.4,3.22,3.22,0,0,0,1.08-.21Z" style="fill:#232f3e"/><path d="M49,106.35l-.15-.51a1.49,1.49,0,0,1-.59.47,1.85,1.85,0,0,1-.78.18,1.56,1.56,0,0,1-1.18-.45,1.66,1.66,0,0,1-.44-1.22,1.69,1.69,0,0,1,.53-1.31,2.08,2.08,0,0,1,1.44-.47,3.88,3.88,0,0,1,.92.13v-.51a1.33,1.33,0,0,0-.16-.78.77.77,0,0,0-.61-.2,5.9,5.9,0,0,0-1.77.35v-1a3.07,3.07,0,0,1,.92-.33,5.54,5.54,0,0,1,1.15-.12,2.19,2.19,0,0,1,1.52.44,1.78,1.78,0,0,1,.47,1.39v3.94Zm-1-.92a1.17,1.17,0,0,0,.79-.35V104a2.25,2.25,0,0,0-.62-.07.69.69,0,0,0-.54.2.85.85,0,0,0-.18.59.82.82,0,0,0,.15.52A.47.47,0,0,0,48,105.43Z" style="fill:#232f3e"/><path d="M54.11,106.25a2.7,2.7,0,0,1-1,.16,1.39,1.39,0,0,1-1.07-.37,1.54,1.54,0,0,1-.36-1.12V98.21h1.65v6.54a.75.75,0,0,0,.08.4.36.36,0,0,0,.32.12,2.26,2.26,0,0,0,.35,0Z" style="fill:#232f3e"/><path d="M56,99.81a1,1,0,0,1-.71-.22A.76.76,0,0,1,55,99a.75.75,0,0,1,.27-.61,1.2,1.2,0,0,1,1.41,0A.77.77,0,0,1,57,99a.79.79,0,0,1-.26.61A1,1,0,0,1,56,99.81Zm-.83,6.54v-5.63h1.65v5.63Z" style="fill:#232f3e"/><path d="M61.37,106.35v-3.7a1.36,1.36,0,0,0-.14-.7.55.55,0,0,0-.5-.22,1.59,1.59,0,0,0-.82.26v4.36H58.26v-5.63h1.35l.14.51a3.32,3.32,0,0,1,1.84-.65,1.35,1.35,0,0,1,1.07.42,1.83,1.83,0,0,1,.36,1.22v4.13Z" style="fill:#232f3e"/><path d="M67.32,105.71a1.65,1.65,0,0,1-1.21.53,1.68,1.68,0,0,1-1.44-.74,3.46,3.46,0,0,1-.53-2,3.6,3.6,0,0,1,.54-2.11,1.69,1.69,0,0,1,1.46-.77,1.79,1.79,0,0,1,.71.17,2,2,0,0,1,.63.45l.12-.48H69V106c0,1.86-.85,2.79-2.57,2.79a3.92,3.92,0,0,1-1.83-.44v-1a5.5,5.5,0,0,0,1.62.35,1.48,1.48,0,0,0,.7-.13.76.76,0,0,0,.35-.44,3.26,3.26,0,0,0,.1-1Zm-.66-.6a1.26,1.26,0,0,0,.66-.22V102a1.32,1.32,0,0,0-.73-.27.63.63,0,0,0-.6.42,3.2,3.2,0,0,0-.2,1.3A3,3,0,0,0,66,104.7.71.71,0,0,0,66.66,105.11Z" style="fill:#232f3e"/></g><g id="ICONS_-_EDIT" data-name="ICONS - EDIT"><polyline points="33.63 22.5 40 16.14 46.36 22.5" style="fill:none;stroke:#fff;stroke-linejoin:round;stroke-width:2px"/><line x1="40" y1="16" x2="40" y2="28" style="fill:none;stroke:#fff;stroke-linejoin:round;stroke-width:2px"/><polyline points="33.63 57.64 40 64 46.36 57.64" style="fill:none;stroke:#fff;stroke-linejoin:round;stroke-width:2px"/><line x1="40" y1="64" x2="40" y2="52" style="fill:none;stroke:#fff;stroke-linejoin:round;stroke-width:2px"/><polyline points="20.57 46.43 26.93 40.07 20.57 33.7" style="fill:none;stroke:#fff;stroke-linejoin:round;stroke-width:2px"/><line x1="27" y1="40" x2="15" y2="40" style="fill:none;stroke:#fff;stroke-linejoin:round;stroke-width:2px"/><polyline points="59.43 33.7 53.07 40.07 59.43 46.43" style="fill:none;stroke:#fff;stroke-linejoin:round;stroke-width:2px"/><line x1="53" y1="40" x2="65" y2="40" style="fill:none;stroke:#fff;stroke-linejoin:round;stroke-width:2px"/><line x1="40" y1="40.18" x2="31.92" y2="35.5" style="fill:none;stroke:#fff;stroke-linejoin:round;stroke-width:2px"/><line x1="48.08" y1="35.5" x2="40" y2="40.18" style="fill:none;stroke:#fff;stroke-linejoin:round;stroke-width:2px"/><line x1="40" y1="40" x2="40" y2="49" style="fill:none;stroke:#fff;stroke-linejoin:round;stroke-width:2px"/><polygon points="48 44.44 48 35.54 40 31.09 32 35.54 32 44.44 40 48.88 48 44.44" style="fill:none;stroke:#fff;stroke-linejoin:round;stroke-width:2px"/></g></svg>