<svg xmlns="http://www.w3.org/2000/svg" width="80" height="115" viewBox="0 0 80 115"><title>architecture-product-card_Amazon_Pinpoint</title><g id="CARDS"><rect x="1" y="1" width="78" height="78" style="fill:#232f3e"/><path d="M0,0V80H0v35H80V80h0V0ZM1,1H79V79H1Z" style="fill:#fff"/></g><g id="TEXT_-_EDIT" data-name="TEXT - EDIT"><path d="M25.35,92.35l-.43-1.82h-2l-.42,1.82H20.72L23,84.72H24.9l2.31,7.63Zm-2.18-2.92h1.49l-.76-3.16Z" style="fill:#232f3e"/><path d="M34.06,92.35V88.64a1.32,1.32,0,0,0-.14-.69.49.49,0,0,0-.46-.22,1.59,1.59,0,0,0-.8.26.5.5,0,0,1,0,.12v4.24H31V88.64a1.33,1.33,0,0,0-.13-.69.51.51,0,0,0-.47-.22,1.55,1.55,0,0,0-.78.26v4.36H28V86.72h1.35l.13.51a3.31,3.31,0,0,1,1.81-.65,1.25,1.25,0,0,1,1.2.67,3.38,3.38,0,0,1,1.83-.67,1.3,1.3,0,0,1,1,.42,1.85,1.85,0,0,1,.36,1.22v4.13Z" style="fill:#232f3e"/><path d="M40,92.35l-.14-.51a1.56,1.56,0,0,1-.59.47,1.86,1.86,0,0,1-.79.18A1.57,1.57,0,0,1,37.31,92a1.65,1.65,0,0,1-.43-1.22,1.69,1.69,0,0,1,.53-1.31A2,2,0,0,1,38.84,89a4,4,0,0,1,.93.13v-.51a1.33,1.33,0,0,0-.16-.78.77.77,0,0,0-.61-.2,5.9,5.9,0,0,0-1.77.35V87a3,3,0,0,1,.92-.33,5.47,5.47,0,0,1,1.15-.12,2.19,2.19,0,0,1,1.52.44,1.82,1.82,0,0,1,.47,1.39v3.94Zm-1-.92a1.17,1.17,0,0,0,.79-.35V90a2.3,2.3,0,0,0-.62-.07.67.67,0,0,0-.54.2.81.81,0,0,0-.19.59.82.82,0,0,0,.15.52A.49.49,0,0,0,39,91.43Z" style="fill:#232f3e"/><path d="M42.28,92.35V91.28l2.49-3.4h-2.4V86.72h4.14v1.07L44,91.19h2.54v1.16Z" style="fill:#232f3e"/><path d="M49.79,92.49A2.3,2.3,0,0,1,48,91.72a4,4,0,0,1,0-4.37,2.6,2.6,0,0,1,3.69,0,4,4,0,0,1,0,4.37A2.31,2.31,0,0,1,49.79,92.49Zm0-1.15a.67.67,0,0,0,.65-.43,4.79,4.79,0,0,0,0-2.74.69.69,0,0,0-1.29,0,4.79,4.79,0,0,0,0,2.74A.66.66,0,0,0,49.79,91.34Z" style="fill:#232f3e"/><path d="M56.55,92.35v-3.7a1.36,1.36,0,0,0-.14-.7.55.55,0,0,0-.5-.22,1.56,1.56,0,0,0-.81.26v4.36H53.44V86.72h1.35l.14.51a3.32,3.32,0,0,1,1.84-.65,1.35,1.35,0,0,1,1.07.42,1.83,1.83,0,0,1,.36,1.22v4.13Z" style="fill:#232f3e"/><path d="M21.78,103.52v2.83H20.13V98.72h2.64a2.42,2.42,0,0,1,1.76.65,2.65,2.65,0,0,1,0,3.5,2.42,2.42,0,0,1-1.76.65Zm0-1.15h.78a.87.87,0,0,0,.72-.31,1.57,1.57,0,0,0,.24-.94,1.52,1.52,0,0,0-.24-.93.85.85,0,0,0-.72-.32h-.78Z" style="fill:#232f3e"/><path d="M27.27,99.81a1.06,1.06,0,0,1-.71-.22A.75.75,0,0,1,26.3,99a.74.74,0,0,1,.26-.61,1.2,1.2,0,0,1,1.41,0,.74.74,0,0,1,.26.61.75.75,0,0,1-.26.61A1,1,0,0,1,27.27,99.81Zm-.83,6.54v-5.63h1.65v5.63Z" style="fill:#232f3e"/><path d="M32.66,106.35v-3.7a1.25,1.25,0,0,0-.15-.7.53.53,0,0,0-.49-.22,1.59,1.59,0,0,0-.82.26v4.36H29.55v-5.63H30.9l.13.51a3.35,3.35,0,0,1,1.84-.65,1.35,1.35,0,0,1,1.07.42,1.83,1.83,0,0,1,.37,1.22v4.13Z" style="fill:#232f3e"/><path d="M35.7,108.61v-7.89h1.35l.12.48a2.38,2.38,0,0,1,.72-.45,2.07,2.07,0,0,1,.78-.17,1.74,1.74,0,0,1,1.51.74,3.68,3.68,0,0,1,.52,2.14,3.87,3.87,0,0,1-.54,2.2,1.76,1.76,0,0,1-1.52.78,2.08,2.08,0,0,1-.68-.12,1.91,1.91,0,0,1-.61-.35v2.64Zm2.43-6.91a1.32,1.32,0,0,0-.78.25v3.11a1.43,1.43,0,0,0,.79.26.72.72,0,0,0,.7-.42,3.22,3.22,0,0,0,.21-1.37,3.34,3.34,0,0,0-.21-1.41A.73.73,0,0,0,38.13,101.7Z" style="fill:#232f3e"/><path d="M44.08,106.49a2.31,2.31,0,0,1-1.85-.77,4,4,0,0,1,0-4.37,2.6,2.6,0,0,1,3.69,0,4,4,0,0,1,0,4.37A2.29,2.29,0,0,1,44.08,106.49Zm0-1.15a.66.66,0,0,0,.64-.43,4.79,4.79,0,0,0,0-2.74.66.66,0,0,0-.64-.44.67.67,0,0,0-.65.44,4.79,4.79,0,0,0,0,2.74A.67.67,0,0,0,44.08,105.34Z" style="fill:#232f3e"/><path d="M48.6,99.81a1.09,1.09,0,0,1-.72-.22.79.79,0,0,1-.26-.61.77.77,0,0,1,.26-.61,1,1,0,0,1,.72-.23,1,1,0,0,1,.69.23.75.75,0,0,1,.27.61.76.76,0,0,1-.27.61A1,1,0,0,1,48.6,99.81Zm-.84,6.54v-5.63h1.65v5.63Z" style="fill:#232f3e"/><path d="M54,106.35v-3.7a1.36,1.36,0,0,0-.14-.7.56.56,0,0,0-.5-.22,1.59,1.59,0,0,0-.82.26v4.36H50.87v-5.63h1.35l.13.51a3.38,3.38,0,0,1,1.85-.65,1.33,1.33,0,0,1,1.06.42,1.78,1.78,0,0,1,.37,1.22v4.13Z" style="fill:#232f3e"/><path d="M60.06,106.2a3.46,3.46,0,0,1-1.22.22,1.83,1.83,0,0,1-1.32-.4,1.81,1.81,0,0,1-.41-1.3v-2.9h-.73v-.92l.78-.15.24-1.54h1.36v1.51H60v1.1H58.76v2.77a.73.73,0,0,0,.15.52.67.67,0,0,0,.53.16,2.85,2.85,0,0,0,.62-.08Z" style="fill:#232f3e"/></g><g id="ICONS_-_EDIT" data-name="ICONS - EDIT"><path d="M40,55.44A15.45,15.45,0,1,1,55.45,40,15.46,15.46,0,0,1,40,55.44Zm0-28.89A13.45,13.45,0,1,0,53.45,40,13.46,13.46,0,0,0,40,26.55Z" style="fill:#fff"/><path d="M40,48a8,8,0,1,1,8-8A8,8,0,0,1,40,48ZM40,34a6,6,0,1,0,6,6A6,6,0,0,0,40,34Z" style="fill:#fff"/><path d="M40,64a24,24,0,1,1,9.67-46l-.81,1.83A22,22,0,1,0,62,40a21.53,21.53,0,0,0-1.85-8.82L62,30.37A23.59,23.59,0,0,1,64,40,24,24,0,0,1,40,64Z" style="fill:#fff"/><path d="M56.3,29.54a5.81,5.81,0,1,1,5.81-5.81A5.81,5.81,0,0,1,56.3,29.54Zm0-9.62a3.81,3.81,0,1,0,3.81,3.81A3.82,3.82,0,0,0,56.3,19.92Z" style="fill:#fff"/><rect x="37.32" y="32.56" width="18.22" height="2" transform="translate(-10.14 42.58) rotate(-44.92)" style="fill:#fff"/></g></svg>