<svg xmlns="http://www.w3.org/2000/svg" width="80" height="115" viewBox="0 0 80 115"><title>architecture-product-card_AWS_CloudHSM</title><g id="CARDS"><rect x="1" y="1" width="78" height="78" style="fill:#232f3e"/><path d="M0,0V80H0v35H80V80h0V0ZM1,1H79V79H1Z" style="fill:#fff"/></g><g id="TEXT_-_EDIT" data-name="TEXT - EDIT"><path d="M33.69,92.35l-.44-1.82h-2l-.42,1.82H29.06l2.31-7.63h1.87l2.3,7.63Zm-2.18-2.92H33l-.76-3.16Z" style="fill:#232f3e"/><path d="M40.89,92.35,40,86.72l-.89,5.63H37.19l-1.78-7.63h1.7l1.06,6.06L39.08,85h1.84l.94,5.65,1-6h1.66l-1.78,7.63Z" style="fill:#232f3e"/><path d="M46.84,89a3.55,3.55,0,0,1-1.27-1,2,2,0,0,1-.39-1.23,2,2,0,0,1,.34-1.17,2.11,2.11,0,0,1,.92-.77,3.18,3.18,0,0,1,1.34-.27,4.85,4.85,0,0,1,1.89.39v1.17A5.44,5.44,0,0,0,48,85.79a1.24,1.24,0,0,0-.79.23.75.75,0,0,0-.29.64.86.86,0,0,0,.18.56,2.32,2.32,0,0,0,.72.48l.65.32a5.12,5.12,0,0,1,1,.62,2,2,0,0,1,.54.69,2.29,2.29,0,0,1,.17.92,2,2,0,0,1-.74,1.65,3.09,3.09,0,0,1-2,.61,5.35,5.35,0,0,1-1.13-.12,3.76,3.76,0,0,1-.95-.32V90.92a7.29,7.29,0,0,0,1,.25,5.33,5.33,0,0,0,1,.11,1.34,1.34,0,0,0,.88-.25.86.86,0,0,0,.3-.71.84.84,0,0,0-.21-.58,2.47,2.47,0,0,0-.71-.47Z" style="fill:#232f3e"/><path d="M20.8,106.13a4.64,4.64,0,0,1-1.79.34q-3.37,0-3.37-3.9a4.4,4.4,0,0,1,.88-2.95,3.16,3.16,0,0,1,2.53-1,4.72,4.72,0,0,1,1.65.3v1.21a5.68,5.68,0,0,0-1.45-.23,1.59,1.59,0,0,0-1.39.61,3.29,3.29,0,0,0-.45,1.93v.25a3.35,3.35,0,0,0,.43,1.9,1.57,1.57,0,0,0,1.38.61,7.21,7.21,0,0,0,1.58-.26Z" style="fill:#232f3e"/><path d="M24.19,106.25a2.69,2.69,0,0,1-1,.16,1.43,1.43,0,0,1-1.08-.37,1.54,1.54,0,0,1-.35-1.12V98.21h1.65v6.54a.77.77,0,0,0,.07.4.37.37,0,0,0,.32.12,2.14,2.14,0,0,0,.35,0Z" style="fill:#232f3e"/><path d="M27.31,106.49a2.29,2.29,0,0,1-1.84-.77,4,4,0,0,1,0-4.37,2.6,2.6,0,0,1,3.69,0,4,4,0,0,1,0,4.37A2.31,2.31,0,0,1,27.31,106.49Zm0-1.15a.67.67,0,0,0,.65-.43,4.79,4.79,0,0,0,0-2.74.69.69,0,0,0-1.29,0,4.79,4.79,0,0,0,0,2.74A.66.66,0,0,0,27.31,105.34Z" style="fill:#232f3e"/><path d="M34.23,106.35l-.13-.51a3.18,3.18,0,0,1-1.79.65,1.22,1.22,0,0,1-1-.43,2,2,0,0,1-.35-1.24v-4.1h1.65v3.62a1.61,1.61,0,0,0,.13.77.47.47,0,0,0,.45.23,1.42,1.42,0,0,0,.76-.25v-4.37h1.65v5.63Z" style="fill:#232f3e"/><path d="M40.25,106.35l-.13-.49a2,2,0,0,1-.63.43,1.86,1.86,0,0,1-.72.15,1.75,1.75,0,0,1-1.51-.75,3.65,3.65,0,0,1-.54-2.13,3.73,3.73,0,0,1,.56-2.19,1.76,1.76,0,0,1,1.53-.79,2.08,2.08,0,0,1,.63.13,2.35,2.35,0,0,1,.61.33V98.21H41.7v8.14Zm-.92-1a1.34,1.34,0,0,0,.72-.22V102a1.54,1.54,0,0,0-.8-.26.7.7,0,0,0-.67.44,3.39,3.39,0,0,0-.21,1.39,3.05,3.05,0,0,0,.23,1.36A.77.77,0,0,0,39.33,105.32Z" style="fill:#232f3e"/><path d="M47.25,106.35v-3.3H44.92v3.3H43.23V98.72h1.69v3.15h2.33V98.72h1.69v7.63Z" style="fill:#232f3e"/><path d="M51.9,103a3.55,3.55,0,0,1-1.27-1,2,2,0,0,1-.39-1.23,2,2,0,0,1,.34-1.17,2.11,2.11,0,0,1,.92-.77,3.18,3.18,0,0,1,1.34-.27,4.85,4.85,0,0,1,1.89.39v1.17A5.44,5.44,0,0,0,53,99.79a1.24,1.24,0,0,0-.79.23.75.75,0,0,0-.29.64.86.86,0,0,0,.18.56,2.32,2.32,0,0,0,.72.48l.65.32a5.12,5.12,0,0,1,1,.62,2,2,0,0,1,.54.69,2.29,2.29,0,0,1,.17.92,2,2,0,0,1-.74,1.65,3.09,3.09,0,0,1-2,.61,5.35,5.35,0,0,1-1.13-.12,4,4,0,0,1-1-.32v-1.15a7.85,7.85,0,0,0,1,.25,5.33,5.33,0,0,0,1,.11,1.34,1.34,0,0,0,.88-.25.86.86,0,0,0,.3-.71.84.84,0,0,0-.21-.58,2.47,2.47,0,0,0-.71-.47Z" style="fill:#232f3e"/><path d="M62.18,106.35V101l-1.41,3.46H59.34L57.94,101v5.32H56.43V98.72h1.93L60.08,103l1.73-4.27h1.88v7.63Z" style="fill:#232f3e"/></g><g id="ICONS_-_EDIT" data-name="ICONS - EDIT"><path d="M41.5,56H21.78a2.31,2.31,0,0,1-2.28-2.32V20.32A2.31,2.31,0,0,1,21.78,18H55.22a2.3,2.3,0,0,1,2.28,2.32V44h-2V20.32a.3.3,0,0,0-.28-.32H21.78a.3.3,0,0,0-.28.32V53.68a.3.3,0,0,0,.28.32H41.5Z" style="fill:#fff"/><path d="M56.53,55a6,6,0,0,0,.62-2.7A6.31,6.31,0,0,0,50.83,46a3.69,3.69,0,0,0-.49,0h-.18c-.24,0-.47,0-.69.1a6.12,6.12,0,0,0-.93.26l-.6.28a5.39,5.39,0,0,0-.52.3,6.31,6.31,0,0,0,6.06,11l1,1v2h2l1,1v2h3l2,2h2V63Zm-5.31-2.33a1.78,1.78,0,0,1-2.51,0,1,1,0,0,1-.21-1.34h0a.87.87,0,0,1,.21-1.16,1.78,1.78,0,0,1,2.51,0,.78.78,0,0,1,.28.8h0A1.39,1.39,0,0,1,51.22,52.68Z" style="fill:none;stroke:#fff;stroke-linejoin:round;stroke-width:2px"/><path d="M50.08,54.18a2.76,2.76,0,0,1-1.95-4.71,2.83,2.83,0,0,1,3.9,0,2.76,2.76,0,0,1-2,4.71Zm0-3.51a.73.73,0,0,0-.53.22A.75.75,0,0,0,50.61,52h0a.75.75,0,0,0,0-1.06A.76.76,0,0,0,50.08,50.67Z" style="fill:#fff"/><path d="M20.5,33h-4a1,1,0,0,1-1-1V26a1,1,0,0,1,1-1h4a1,1,0,0,1,1,1v6A1,1,0,0,1,20.5,33Zm-3-2h2V27h-2Z" style="fill:#fff"/><path d="M20.5,49h-4a1,1,0,0,1-1-1V42a1,1,0,0,1,1-1h4a1,1,0,0,1,1,1v6A1,1,0,0,1,20.5,49Zm-3-2h2V43h-2Z" style="fill:#fff"/><path d="M37.5,43a6,6,0,1,1,6-6A6,6,0,0,1,37.5,43Zm0-10a4,4,0,1,0,4,4A4,4,0,0,0,37.5,33Z" style="fill:#fff"/><path d="M37.5,48A11,11,0,1,1,47.92,33.49l-1.9.64a9,9,0,1,0,0,5.74l1.9.64A11,11,0,0,1,37.5,48Z" style="fill:#fff"/><rect x="42.5" y="36" width="9" height="2" style="fill:#fff"/></g></svg>