<svg id="CARDS" xmlns="http://www.w3.org/2000/svg" width="80" height="100" viewBox="0 0 80 100"><title>Artboard 71</title><rect x="1" y="1" width="78" height="78" style="fill:#232f3e"/><path d="M0,0V80H0v20H80V80h0V0ZM1,1H79V79H1Z" style="fill:#fff"/><path d="M15,92.35l-.43-1.82h-2l-.43,1.82H10.39l2.32-7.63h1.86l2.3,7.63Zm-2.18-2.92h1.49l-.76-3.16Z" style="fill:#232f3e"/><path d="M23.73,92.35V88.64a1.32,1.32,0,0,0-.14-.69.5.5,0,0,0-.46-.22,1.56,1.56,0,0,0-.8.26.49.49,0,0,1,0,.12v4.24H20.69V88.64a1.33,1.33,0,0,0-.13-.69.51.51,0,0,0-.47-.22,1.53,1.53,0,0,0-.78.26v4.36H17.66V86.72H19l.13.51A3.29,3.29,0,0,1,21,86.58a1.25,1.25,0,0,1,1.2.67A3.38,3.38,0,0,1,24,86.58,1.3,1.3,0,0,1,25,87a1.85,1.85,0,0,1,.36,1.22v4.13Z" style="fill:#232f3e"/><path d="M29.68,92.35l-.14-.51a1.56,1.56,0,0,1-.59.47,1.86,1.86,0,0,1-.79.18A1.57,1.57,0,0,1,27,92a1.65,1.65,0,0,1-.43-1.22,1.69,1.69,0,0,1,.53-1.31A2,2,0,0,1,28.51,89a4,4,0,0,1,.93.13v-.51a1.33,1.33,0,0,0-.16-.78.77.77,0,0,0-.61-.2A5.9,5.9,0,0,0,26.9,88V87a3,3,0,0,1,.91-.33A5.64,5.64,0,0,1,29,86.58a2.19,2.19,0,0,1,1.52.44A1.82,1.82,0,0,1,31,88.41v3.94Zm-1-.92a1.17,1.17,0,0,0,.79-.35V90a2.33,2.33,0,0,0-.63-.07.66.66,0,0,0-.53.2.81.81,0,0,0-.19.59.82.82,0,0,0,.15.52A.49.49,0,0,0,28.65,91.43Z" style="fill:#232f3e"/><path d="M32,92.35V91.28l2.49-3.4H32V86.72h4.14v1.07l-2.5,3.4h2.54v1.16Z" style="fill:#232f3e"/><path d="M39.46,92.49a2.29,2.29,0,0,1-1.84-.77,4,4,0,0,1,0-4.37,2.6,2.6,0,0,1,3.69,0,4,4,0,0,1,0,4.37A2.31,2.31,0,0,1,39.46,92.49Zm0-1.15a.67.67,0,0,0,.65-.43,4.79,4.79,0,0,0,0-2.74.69.69,0,0,0-1.29,0,4.79,4.79,0,0,0,0,2.74A.66.66,0,0,0,39.46,91.34Z" style="fill:#232f3e"/><path d="M46.22,92.35v-3.7a1.36,1.36,0,0,0-.14-.7.55.55,0,0,0-.5-.22,1.59,1.59,0,0,0-.82.26v4.36H43.11V86.72h1.35l.14.51a3.32,3.32,0,0,1,1.84-.65,1.36,1.36,0,0,1,1.07.42,1.83,1.83,0,0,1,.36,1.22v4.13Z" style="fill:#232f3e"/><path d="M51.92,92.35V84.72h4.54V85.9H53.61v1.95H55.9V89H53.61v2.15h2.85v1.18Z" style="fill:#232f3e"/><path d="M62.51,92.13a4.59,4.59,0,0,1-1.78.34q-3.37,0-3.38-3.9a4.46,4.46,0,0,1,.88-2.95,3.16,3.16,0,0,1,2.53-1,4.64,4.64,0,0,1,1.65.3v1.21A5.61,5.61,0,0,0,61,85.88a1.61,1.61,0,0,0-1.4.61,3.29,3.29,0,0,0-.45,1.93v.25a3.26,3.26,0,0,0,.44,1.9,1.56,1.56,0,0,0,1.37.61,7.12,7.12,0,0,0,1.58-.26Z" style="fill:#232f3e"/><path d="M67.38,92.35l-1.46-2.83h-.65v2.83H63.62V84.72h2.64a2.4,2.4,0,0,1,1.76.65,2.31,2.31,0,0,1,.66,1.75,2.57,2.57,0,0,1-.33,1.33,2,2,0,0,1-.92.84l1.68,3.06Zm-2.11-4h.78a.86.86,0,0,0,.72-.31,1.57,1.57,0,0,0,.25-.94,1.52,1.52,0,0,0-.25-.93.84.84,0,0,0-.72-.32h-.78Z" style="fill:#232f3e"/><path d="M59.5,33.25V51.69l-16,9.24V54.31l9-5.19a2,2,0,0,0,1-1.44,4.83,4.83,0,0,0,0-.75V36.72l6-3.47M61,30.18a.54.54,0,0,0-.27.07l-8.68,5c-.16.1-.52.26-.52.47v11.2a3.26,3.26,0,0,1,0,.46L41.77,53a.53.53,0,0,0-.27.46v10A.53.53,0,0,0,42,64a.54.54,0,0,0,.27-.07L61.23,53a.52.52,0,0,0,.27-.46V30.71a.53.53,0,0,0-.53-.53Z" style="fill:#fff"/><path d="M38,65a1.61,1.61,0,0,1-.77-.2L18.27,53.9a1.54,1.54,0,0,1-.77-1.33v-24a1.54,1.54,0,0,1,.77-1.33l20.82-12a1.55,1.55,0,0,1,1.53,0L59.56,26.1a1.56,1.56,0,0,1,.76,1.33,1.53,1.53,0,0,1-.76,1.33L39.5,40.34V63.5a1.54,1.54,0,0,1-.77,1.33A1.57,1.57,0,0,1,38,65ZM19.5,52.3l18,10.39V40.07a1.52,1.52,0,0,1,.77-1.33L57.86,27.43,39.86,17,19.5,28.79ZM39.27,40.47Zm-20-11.54Z" style="fill:#fff"/></svg>