<svg version="1.1" width="60" height="60" viewBox="0 0 60 60" xmlns="http://www.w3.org/2000/svg" xmlns:xlink="http://www.w3.org/1999/xlink" overflow="hidden"><g id="Background"><rect x="0" y="0" width="60" height="60" fill="#FFFFFF"/><path d=" M 59 1 L 59 59 L 1 59 L 1 1 L 59 1 M 60 0 L 0 0 L 0 60 L 60 60 L 60 0 Z" fill="#232F3E"/></g><g id="Art"><path d=" M 19.69 30 L 7.5 30 L 7.5 28.5 C 7.50748 23.4711 10.9454 19.0963 15.83 17.9 C 17.6661 18.8994 19.8839 18.8994 21.72 17.9 C 22.9641 18.2062 24.1452 18.7273 25.21 19.44" stroke="#232F3E" stroke-width="2" stroke-linejoin="round" fill="none"/><path d=" M 21.47 17.94 C 24.2204 16.4429 25.2363 12.9996 23.7392 10.2492 C 22.242 7.49881 18.7988 6.48286 16.0484 7.98 C 13.298 9.47714 12.282 12.9204 13.7792 15.6708 C 14.7722 17.495 16.6831 18.6303 18.76 18.63 C 19.7069 18.6307 20.6388 18.3935 21.47 17.94" stroke="#232F3E" stroke-width="2" stroke-linejoin="round" fill="none"/><path d=" M 34.73 19.49 C 35.8 18.7517 36.9965 18.2162 38.26 17.91 C 40.1033 18.9093 42.3267 18.9093 44.17 17.91 C 49.0546 19.1063 52.4925 23.4811 52.5 28.51 L 52.5 30 L 40.31 30" stroke="#232F3E" stroke-width="2" stroke-linejoin="round" fill="none"/><path d=" M 43.91 17.94 C 46.6604 16.4429 47.6763 12.9996 46.1792 10.2492 C 44.682 7.49881 41.2388 6.48286 38.4884 7.98 C 35.738 9.47714 34.722 12.9204 36.2192 15.6708 C 37.2122 17.495 39.1231 18.6303 41.2 18.63 C 42.1469 18.6307 43.0788 18.3935 43.91 17.94" stroke="#232F3E" stroke-width="2" stroke-linejoin="round" fill="none"/><path d=" M 45.94 50.37 L 45.94 52.49 L 14 52.49 L 14 50.37 C 14.0108 43.2562 18.8716 37.0668 25.78 35.37 C 28.3874 36.7836 31.5326 36.7836 34.14 35.37 C 41.0584 37.0558 45.9305 43.2491 45.94 50.37 Z" stroke="#232F3E" stroke-width="2" stroke-linejoin="round" fill="none"/><path d=" M 33.77 35.41 C 36.3042 34.049 37.8866 31.4065 37.89 28.53 C 37.9347 24.1396 34.4117 20.5442 30.0213 20.4995 C 25.6308 20.4549 22.0355 23.9778 21.9908 28.3683 C 21.9611 31.2926 23.5393 33.9972 26.1 35.41 C 28.49 36.7155 31.38 36.7155 33.77 35.41" stroke="#232F3E" stroke-width="2" stroke-linejoin="round" fill="none"/></g></svg>